g crateboxpart.003
v -0.005 0.01 0.005
v -0.005 0 0.005
v -0.005 0 0.004
v -0.005 0.01 0.004
v -0.004 0.009000001 0.004
v -0.004 0.001 0.004
v -0.004 0.001 0.003
v -0.004 0.009000001 0.003
v -0.003 0.008 0.005
v -0.003 0.007 0.005
v -0.003 0.007 0.004
v -0.003 0.008 0.004
v -0.002 0.007 0.005
v -0.002 0.006 0.005
v -0.002 0.006 0.004
v -0.002 0.007 0.004
v -0.001 0.006 0.005
v -0.001 0.005 0.005
v -0.001 0.005 0.004
v -0.001 0.006 0.004
v 0 0.005 0.005
v 0 0.004 0.005
v 0 0.004 0.004
v 0 0.005 0.004
v 0.001 0.004 0.005
v 0.001 0.003 0.005
v 0.001 0.003 0.004
v 0.001 0.004 0.004
v 0.002 0.003 0.005
v 0.002 0.002 0.005
v 0.002 0.002 0.004
v 0.002 0.003 0.004
v 0.003 0.002 0.005
v 0.003 0.001 0.005
v 0.003 0.001 0.004
v 0.003 0.002 0.004
v 0.004 0.009000001 0.005
v 0.004 0.003 0.005
v 0.004 0.003 0.004
v 0.004 0.009000001 0.004
v -0.004 0.001 0.005
v -0.004 0.008 0.005
v -0.004 0.001 0.004
v -0.004 0.008 0.004
v -0.002 0.008 0.005
v -0.002 0.009000001 0.005
v -0.002 0.008 0.004
v -0.002 0.009000001 0.004
v -0.001 0.007 0.005
v -0.001 0.008 0.005
v -0.001 0.007 0.004
v -0.001 0.008 0.004
v 0 0.006 0.005
v 0 0.007 0.005
v 0 0.006 0.004
v 0 0.007 0.004
v 0.001 0.005 0.005
v 0.001 0.006 0.005
v 0.001 0.005 0.004
v 0.001 0.006 0.004
v 0.002 0.004 0.005
v 0.002 0.005 0.005
v 0.002 0.004 0.004
v 0.002 0.005 0.004
v 0.003 0.003 0.005
v 0.003 0.004 0.005
v 0.003 0.003 0.004
v 0.003 0.004 0.004
v 0.004 0.001 0.004
v 0.004 0.009000001 0.004
v 0.004 0.001 0.003
v 0.004 0.009000001 0.003
v 0.005 0 0.005
v 0.005 0.01 0.005
v 0.005 0 0.004
v 0.005 0.01 0.004
v -0.004 0.001 0.005
v -0.005 0 0.005
v -0.005 0.01 0.005
v -0.004 0.008 0.005
v -0.003 0.008 0.005
v -0.002 0.008 0.005
v -0.002 0.007 0.005
v -0.003 0.007 0.005
v -0.002 0.009000001 0.005
v -0.001 0.006 0.005
v -0.002 0.006 0.005
v -0.001 0.007 0.005
v -0.001 0.008 0.005
v 0 0.005 0.005
v -0.001 0.005 0.005
v 0 0.006 0.005
v 0 0.007 0.005
v 0.001 0.004 0.005
v 0 0.004 0.005
v 0.001 0.005 0.005
v 0.001 0.006 0.005
v 0.002 0.003 0.005
v 0.001 0.003 0.005
v 0.002 0.004 0.005
v 0.002 0.005 0.005
v 0.003 0.002 0.005
v 0.002 0.002 0.005
v 0.003 0.003 0.005
v 0.003 0.004 0.005
v 0.004 0.003 0.005
v 0.003 0.001 0.005
v 0.005 0 0.005
v 0.004 0.009000001 0.005
v 0.005 0.01 0.005
v -0.003 0.007 0.004
v -0.004 0.001 0.004
v -0.004 0.008 0.004
v -0.003 0.008 0.004
v -0.002 0.006 0.004
v -0.002 0.007 0.004
v -0.001 0.005 0.004
v -0.001 0.006 0.004
v 0 0.004 0.004
v 0 0.005 0.004
v 0.001 0.003 0.004
v 0.001 0.004 0.004
v 0.002 0.002 0.004
v 0.002 0.003 0.004
v 0.003 0.001 0.004
v 0.003 0.002 0.004
v -0.001 0.008 0.004
v -0.002 0.008 0.004
v -0.002 0.009000001 0.004
v 0.004 0.009000001 0.004
v 0 0.007 0.004
v -0.001 0.007 0.004
v 0.001 0.006 0.004
v 0 0.006 0.004
v 0.002 0.005 0.004
v 0.001 0.005 0.004
v 0.003 0.004 0.004
v 0.002 0.004 0.004
v 0.004 0.003 0.004
v 0.003 0.003 0.004
v -0.005 0 0.004
v -0.004 0.001 0.004
v -0.005 0.01 0.004
v -0.004 0.009000001 0.004
v 0.004 0.001 0.004
v 0.004 0.009000001 0.004
v 0.005 0 0.004
v 0.005 0.01 0.004
v -0.004 0.001 0.003
v 0.004 0.001 0.003
v -0.004 0.009000001 0.003
v 0.004 0.009000001 0.003
v -0.005 0 0.004
v -0.005 0 0.005
v 0.005 0 0.005
v 0.005 0 0.004
v -0.004 0.001 0.003
v -0.004 0.001 0.004
v 0.004 0.001 0.004
v 0.004 0.001 0.003
v 0.002 0.002 0.004
v 0.002 0.002 0.005
v 0.003 0.002 0.005
v 0.003 0.002 0.004
v 0.001 0.003 0.004
v 0.001 0.003 0.005
v 0.002 0.003 0.005
v 0.002 0.003 0.004
v 0 0.004 0.004
v 0 0.004 0.005
v 0.001 0.004 0.005
v 0.001 0.004 0.004
v -0.001 0.005 0.004
v -0.001 0.005 0.005
v 0 0.005 0.005
v 0 0.005 0.004
v -0.002 0.006 0.004
v -0.002 0.006 0.005
v -0.001 0.006 0.005
v -0.001 0.006 0.004
v -0.003 0.007 0.004
v -0.003 0.007 0.005
v -0.002 0.007 0.005
v -0.002 0.007 0.004
v -0.004 0.008 0.004
v -0.004 0.008 0.005
v -0.003 0.008 0.005
v -0.003 0.008 0.004
v -0.002 0.009000001 0.004
v -0.002 0.009000001 0.005
v 0.004 0.009000001 0.005
v 0.004 0.009000001 0.004
v -0.004 0.001 0.005
v -0.004 0.001 0.004
v 0.003 0.001 0.005
v 0.003 0.001 0.004
v 0.003 0.003 0.005
v 0.003 0.003 0.004
v 0.004 0.003 0.005
v 0.004 0.003 0.004
v 0.002 0.004 0.005
v 0.002 0.004 0.004
v 0.003 0.004 0.005
v 0.003 0.004 0.004
v 0.001 0.005 0.005
v 0.001 0.005 0.004
v 0.002 0.005 0.005
v 0.002 0.005 0.004
v 0 0.006 0.005
v 0 0.006 0.004
v 0.001 0.006 0.005
v 0.001 0.006 0.004
v -0.001 0.007 0.005
v -0.001 0.007 0.004
v 0 0.007 0.005
v 0 0.007 0.004
v -0.002 0.008 0.005
v -0.002 0.008 0.004
v -0.001 0.008 0.005
v -0.001 0.008 0.004
v -0.004 0.009000001 0.004
v -0.004 0.009000001 0.003
v 0.004 0.009000001 0.004
v 0.004 0.009000001 0.003
v -0.005 0.01 0.005
v -0.005 0.01 0.004
v 0.005 0.01 0.005
v 0.005 0.01 0.004
vt 0.537109 0.5
vt 0.537109 0.5
vt 0.537109 0.5
vt 0.537109 0.5
vt 0.537109 0.5
vt 0.537109 0.5
vt 0.537109 0.5
vt 0.537109 0.5
vt 0.537109 0.5
vt 0.537109 0.5
vt 0.537109 0.5
vt 0.537109 0.5
vt 0.537109 0.5
vt 0.537109 0.5
vt 0.537109 0.5
vt 0.537109 0.5
vt 0.537109 0.5
vt 0.537109 0.5
vt 0.537109 0.5
vt 0.537109 0.5
vt 0.537109 0.5
vt 0.537109 0.5
vt 0.537109 0.5
vt 0.537109 0.5
vt 0.537109 0.5
vt 0.537109 0.5
vt 0.537109 0.5
vt 0.537109 0.5
vt 0.537109 0.5
vt 0.537109 0.5
vt 0.537109 0.5
vt 0.537109 0.5
vt 0.537109 0.5
vt 0.537109 0.5
vt 0.537109 0.5
vt 0.537109 0.5
vt 0.537109 0.5
vt 0.537109 0.5
vt 0.537109 0.5
vt 0.537109 0.5
vt 0.537109 0.5
vt 0.537109 0.5
vt 0.537109 0.5
vt 0.537109 0.5
vt 0.537109 0.5
vt 0.537109 0.5
vt 0.537109 0.5
vt 0.537109 0.5
vt 0.537109 0.5
vt 0.537109 0.5
vt 0.537109 0.5
vt 0.537109 0.5
vt 0.537109 0.5
vt 0.537109 0.5
vt 0.537109 0.5
vt 0.537109 0.5
vt 0.537109 0.5
vt 0.537109 0.5
vt 0.537109 0.5
vt 0.537109 0.5
vt 0.537109 0.5
vt 0.537109 0.5
vt 0.537109 0.5
vt 0.537109 0.5
vt 0.537109 0.5
vt 0.537109 0.5
vt 0.537109 0.5
vt 0.537109 0.5
vt 0.537109 0.5
vt 0.537109 0.5
vt 0.537109 0.5
vt 0.537109 0.5
vt 0.537109 0.5
vt 0.537109 0.5
vt 0.537109 0.5
vt 0.537109 0.5
vt 0.537109 0.5
vt 0.537109 0.5
vt 0.537109 0.5
vt 0.537109 0.5
vt 0.537109 0.5
vt 0.537109 0.5
vt 0.537109 0.5
vt 0.537109 0.5
vt 0.537109 0.5
vt 0.537109 0.5
vt 0.537109 0.5
vt 0.537109 0.5
vt 0.537109 0.5
vt 0.537109 0.5
vt 0.537109 0.5
vt 0.537109 0.5
vt 0.537109 0.5
vt 0.537109 0.5
vt 0.537109 0.5
vt 0.537109 0.5
vt 0.537109 0.5
vt 0.537109 0.5
vt 0.537109 0.5
vt 0.537109 0.5
vt 0.537109 0.5
vt 0.537109 0.5
vt 0.537109 0.5
vt 0.537109 0.5
vt 0.537109 0.5
vt 0.537109 0.5
vt 0.537109 0.5
vt 0.537109 0.5
vt 0.537109 0.5
vt 0.537109 0.5
vt 0.537109 0.5
vt 0.537109 0.5
vt 0.537109 0.5
vt 0.537109 0.5
vt 0.537109 0.5
vt 0.537109 0.5
vt 0.537109 0.5
vt 0.537109 0.5
vt 0.537109 0.5
vt 0.537109 0.5
vt 0.537109 0.5
vt 0.537109 0.5
vt 0.537109 0.5
vt 0.537109 0.5
vt 0.537109 0.5
vt 0.537109 0.5
vt 0.537109 0.5
vt 0.537109 0.5
vt 0.537109 0.5
vt 0.537109 0.5
vt 0.537109 0.5
vt 0.537109 0.5
vt 0.537109 0.5
vt 0.537109 0.5
vt 0.537109 0.5
vt 0.537109 0.5
vt 0.537109 0.5
vt 0.537109 0.5
vt 0.537109 0.5
vt 0.537109 0.5
vt 0.537109 0.5
vt 0.537109 0.5
vt 0.537109 0.5
vt 0.537109 0.5
vt 0.537109 0.5
vt 0.537109 0.5
vt 0.537109 0.5
vt 0.537109 0.5
vt 0.537109 0.5
vt 0.537109 0.5
vt 0.537109 0.5
vt 0.537109 0.5
vt 0.537109 0.5
vt 0.537109 0.5
vt 0.537109 0.5
vt 0.537109 0.5
vt 0.537109 0.5
vt 0.537109 0.5
vt 0.537109 0.5
vt 0.537109 0.5
vt 0.537109 0.5
vt 0.537109 0.5
vt 0.537109 0.5
vt 0.537109 0.5
vt 0.537109 0.5
vt 0.537109 0.5
vt 0.537109 0.5
vt 0.537109 0.5
vt 0.537109 0.5
vt 0.537109 0.5
vt 0.537109 0.5
vt 0.537109 0.5
vt 0.537109 0.5
vt 0.537109 0.5
vt 0.537109 0.5
vt 0.537109 0.5
vt 0.537109 0.5
vt 0.537109 0.5
vt 0.537109 0.5
vt 0.537109 0.5
vt 0.537109 0.5
vt 0.537109 0.5
vt 0.537109 0.5
vt 0.537109 0.5
vt 0.537109 0.5
vt 0.537109 0.5
vt 0.537109 0.5
vt 0.537109 0.5
vt 0.537109 0.5
vt 0.537109 0.5
vt 0.537109 0.5
vt 0.537109 0.5
vt 0.537109 0.5
vt 0.537109 0.5
vt 0.537109 0.5
vt 0.537109 0.5
vt 0.537109 0.5
vt 0.537109 0.5
vt 0.537109 0.5
vt 0.537109 0.5
vt 0.537109 0.5
vt 0.537109 0.5
vt 0.537109 0.5
vt 0.537109 0.5
vt 0.537109 0.5
vt 0.537109 0.5
vt 0.537109 0.5
vt 0.537109 0.5
vt 0.537109 0.5
vt 0.537109 0.5
vt 0.537109 0.5
vt 0.537109 0.5
vt 0.537109 0.5
vt 0.537109 0.5
vt 0.537109 0.5
vt 0.537109 0.5
vt 0.537109 0.5
vt 0.537109 0.5
vt 0.537109 0.5
vt 0.537109 0.5
vt 0.537109 0.5
vt 0.537109 0.5
vt 0.537109 0.5
vt 0.537109 0.5
vt 0.537109 0.5
vt 0.537109 0.5
vt 0.537109 0.5
vt 0.537109 0.5
vn -1 0 0
vn -1 0 0
vn -1 0 0
vn -1 0 0
vn -1 0 0
vn -1 0 0
vn -1 0 0
vn -1 0 0
vn -1 0 0
vn -1 0 0
vn -1 0 0
vn -1 0 0
vn -1 0 0
vn -1 0 0
vn -1 0 0
vn -1 0 0
vn -1 0 0
vn -1 0 0
vn -1 0 0
vn -1 0 0
vn -1 0 0
vn -1 0 0
vn -1 0 0
vn -1 0 0
vn -1 0 0
vn -1 0 0
vn -1 0 0
vn -1 0 0
vn -1 0 0
vn -1 0 0
vn -1 0 0
vn -1 0 0
vn -1 0 0
vn -1 0 0
vn -1 0 0
vn -1 0 0
vn -1 0 0
vn -1 0 0
vn -1 0 0
vn -1 0 0
vn 1 0 0
vn 1 0 0
vn 1 0 0
vn 1 0 0
vn 1 0 0
vn 1 0 0
vn 1 0 0
vn 1 0 0
vn 1 0 0
vn 1 0 0
vn 1 0 0
vn 1 0 0
vn 1 0 0
vn 1 0 0
vn 1 0 0
vn 1 0 0
vn 1 0 0
vn 1 0 0
vn 1 0 0
vn 1 0 0
vn 1 0 0
vn 1 0 0
vn 1 0 0
vn 1 0 0
vn 1 0 0
vn 1 0 0
vn 1 0 0
vn 1 0 0
vn 1 0 0
vn 1 0 0
vn 1 0 0
vn 1 0 0
vn 1 0 0
vn 1 0 0
vn 1 0 0
vn 1 0 0
vn 0 0 1
vn 0 0 1
vn 0 0 1
vn 0 0 1
vn 0 0 1
vn 0 0 1
vn 0 0 1
vn 0 0 1
vn 0 0 1
vn 0 0 1
vn 0 0 1
vn 0 0 1
vn 0 0 1
vn 0 0 1
vn 0 0 1
vn 0 0 1
vn 0 0 1
vn 0 0 1
vn 0 0 1
vn 0 0 1
vn 0 0 1
vn 0 0 1
vn 0 0 1
vn 0 0 1
vn 0 0 1
vn 0 0 1
vn 0 0 1
vn 0 0 1
vn 0 0 1
vn 0 0 1
vn 0 0 1
vn 0 0 1
vn 0 0 1
vn 0 0 1
vn 0 0 1
vn 0 0 1
vn 0 0 1
vn 0 0 1
vn 0 0 1
vn 0 0 1
vn 0 0 1
vn 0 0 1
vn 0 0 1
vn 0 0 1
vn 0 0 1
vn 0 0 1
vn 0 0 1
vn 0 0 1
vn 0 0 1
vn 0 0 1
vn 0 0 1
vn 0 0 1
vn 0 0 1
vn 0 0 1
vn 0 0 1
vn 0 0 1
vn 0 0 1
vn 0 0 1
vn 0 0 1
vn 0 0 1
vn 0 0 1
vn 0 0 1
vn 0 0 1
vn 0 0 1
vn 0 0 -1
vn 0 0 -1
vn 0 0 -1
vn 0 0 -1
vn 0 0 -1
vn 0 0 -1
vn 0 0 -1
vn 0 0 -1
vn 0 0 -1
vn 0 0 -1
vn 0 0 -1
vn 0 0 -1
vn 0 -1 0
vn 0 -1 0
vn 0 -1 0
vn 0 -1 0
vn 0 -1 0
vn 0 -1 0
vn 0 -1 0
vn 0 -1 0
vn 0 -1 0
vn 0 -1 0
vn 0 -1 0
vn 0 -1 0
vn 0 -1 0
vn 0 -1 0
vn 0 -1 0
vn 0 -1 0
vn 0 -1 0
vn 0 -1 0
vn 0 -1 0
vn 0 -1 0
vn 0 -1 0
vn 0 -1 0
vn 0 -1 0
vn 0 -1 0
vn 0 -1 0
vn 0 -1 0
vn 0 -1 0
vn 0 -1 0
vn 0 -1 0
vn 0 -1 0
vn 0 -1 0
vn 0 -1 0
vn 0 -1 0
vn 0 -1 0
vn 0 -1 0
vn 0 -1 0
vn 0 -1 0
vn 0 -1 0
vn 0 -1 0
vn 0 -1 0
vn 0 1 0
vn 0 1 0
vn 0 1 0
vn 0 1 0
vn 0 1 0
vn 0 1 0
vn 0 1 0
vn 0 1 0
vn 0 1 0
vn 0 1 0
vn 0 1 0
vn 0 1 0
vn 0 1 0
vn 0 1 0
vn 0 1 0
vn 0 1 0
vn 0 1 0
vn 0 1 0
vn 0 1 0
vn 0 1 0
vn 0 1 0
vn 0 1 0
vn 0 1 0
vn 0 1 0
vn 0 1 0
vn 0 1 0
vn 0 1 0
vn 0 1 0
vn 0 1 0
vn 0 1 0
vn 0 1 0
vn 0 1 0
vn 0 1 0
vn 0 1 0
vn 0 1 0
vn 0 1 0
g crateboxpart.003_0
f 3/3/3 2/2/2 1/1/1
f 3/3/3 1/1/1 4/4/4
f 7/7/7 6/6/6 5/5/5
f 7/7/7 5/5/5 8/8/8
f 11/11/11 10/10/10 9/9/9
f 11/11/11 9/9/9 12/12/12
f 15/15/15 14/14/14 13/13/13
f 15/15/15 13/13/13 16/16/16
f 19/19/19 18/18/18 17/17/17
f 19/19/19 17/17/17 20/20/20
f 23/23/23 22/22/22 21/21/21
f 23/23/23 21/21/21 24/24/24
f 27/27/27 26/26/26 25/25/25
f 27/27/27 25/25/25 28/28/28
f 31/31/31 30/30/30 29/29/29
f 31/31/31 29/29/29 32/32/32
f 35/35/35 34/34/34 33/33/33
f 35/35/35 33/33/33 36/36/36
f 39/39/39 38/38/38 37/37/37
f 39/39/39 37/37/37 40/40/40
f 43/43/43 42/42/42 41/41/41
f 43/43/43 44/44/44 42/42/42
f 47/47/47 46/46/46 45/45/45
f 47/47/47 48/48/48 46/46/46
f 51/51/51 50/50/50 49/49/49
f 51/51/51 52/52/52 50/50/50
f 55/55/55 54/54/54 53/53/53
f 55/55/55 56/56/56 54/54/54
f 59/59/59 58/58/58 57/57/57
f 59/59/59 60/60/60 58/58/58
f 63/63/63 62/62/62 61/61/61
f 63/63/63 64/64/64 62/62/62
f 67/67/67 66/66/66 65/65/65
f 67/67/67 68/68/68 66/66/66
f 71/71/71 70/70/70 69/69/69
f 71/71/71 72/72/72 70/70/70
f 75/75/75 74/74/74 73/73/73
f 75/75/75 76/76/76 74/74/74
f 79/79/79 78/78/78 77/77/77
f 79/79/79 77/77/77 80/80/80
f 79/79/79 80/80/80 81/81/81
f 79/79/79 81/81/81 82/82/82
f 81/81/81 83/83/83 82/82/82
f 81/81/81 84/84/84 83/83/83
f 79/79/79 82/82/82 85/85/85
f 82/82/82 83/83/83 86/86/86
f 83/83/83 87/87/87 86/86/86
f 82/82/82 86/86/86 88/88/88
f 82/82/82 88/88/88 89/89/89
f 88/88/88 86/86/86 90/90/90
f 86/86/86 91/91/91 90/90/90
f 88/88/88 90/90/90 92/92/92
f 88/88/88 92/92/92 93/93/93
f 92/92/92 90/90/90 94/94/94
f 90/90/90 95/95/95 94/94/94
f 92/92/92 94/94/94 96/96/96
f 92/92/92 96/96/96 97/97/97
f 96/96/96 94/94/94 98/98/98
f 94/94/94 99/99/99 98/98/98
f 96/96/96 98/98/98 100/100/100
f 96/96/96 100/100/100 101/101/101
f 100/100/100 98/98/98 102/102/102
f 98/98/98 103/103/103 102/102/102
f 100/100/100 102/102/102 104/104/104
f 100/100/100 104/104/104 105/105/105
f 104/104/104 102/102/102 106/106/106
f 102/102/102 107/107/107 106/106/106
f 106/106/106 107/107/107 108/108/108
f 109/109/109 106/106/106 108/108/108
f 107/107/107 78/78/78 108/108/108
f 77/77/77 78/78/78 107/107/107
f 109/109/109 108/108/108 110/110/110
f 79/79/79 109/109/109 110/110/110
f 79/79/79 85/85/85 109/109/109
f 113/113/113 112/112/112 111/111/111
f 113/113/113 111/111/111 114/114/114
f 111/111/111 112/112/112 115/115/115
f 111/111/111 115/115/115 116/116/116
f 115/115/115 112/112/112 117/117/117
f 115/115/115 117/117/117 118/118/118
f 117/117/117 112/112/112 119/119/119
f 117/117/117 119/119/119 120/120/120
f 119/119/119 112/112/112 121/121/121
f 119/119/119 121/121/121 122/122/122
f 121/121/121 112/112/112 123/123/123
f 121/121/121 123/123/123 124/124/124
f 123/123/123 112/112/112 125/125/125
f 123/123/123 125/125/125 126/126/126
f 129/129/129 128/128/128 127/127/127
f 129/129/129 127/127/127 130/130/130
f 127/127/127 131/131/131 130/130/130
f 127/127/127 132/132/132 131/131/131
f 131/131/131 133/133/133 130/130/130
f 131/131/131 134/134/134 133/133/133
f 133/133/133 135/135/135 130/130/130
f 133/133/133 136/136/136 135/135/135
f 135/135/135 137/137/137 130/130/130
f 135/135/135 138/138/138 137/137/137
f 137/137/137 139/139/139 130/130/130
f 137/137/137 140/140/140 139/139/139
f 143/143/143 142/142/142 141/141/141
f 143/143/143 144/144/144 142/142/142
f 142/142/142 145/145/145 141/141/141
f 143/143/143 146/146/146 144/144/144
f 145/145/145 147/147/147 141/141/141
f 146/146/146 147/147/147 145/145/145
f 143/143/143 148/148/148 146/146/146
f 146/146/146 148/148/148 147/147/147
f 151/151/151 150/150/150 149/149/149
f 151/151/151 152/152/152 150/150/150
f 155/155/155 154/154/154 153/153/153
f 155/155/155 153/153/153 156/156/156
f 159/159/159 158/158/158 157/157/157
f 159/159/159 157/157/157 160/160/160
f 163/163/163 162/162/162 161/161/161
f 163/163/163 161/161/161 164/164/164
f 167/167/167 166/166/166 165/165/165
f 167/167/167 165/165/165 168/168/168
f 171/171/171 170/170/170 169/169/169
f 171/171/171 169/169/169 172/172/172
f 175/175/175 174/174/174 173/173/173
f 175/175/175 173/173/173 176/176/176
f 179/179/179 178/178/178 177/177/177
f 179/179/179 177/177/177 180/180/180
f 183/183/183 182/182/182 181/181/181
f 183/183/183 181/181/181 184/184/184
f 187/187/187 186/186/186 185/185/185
f 187/187/187 185/185/185 188/188/188
f 191/191/191 190/190/190 189/189/189
f 191/191/191 189/189/189 192/192/192
f 195/195/195 194/194/194 193/193/193
f 195/195/195 196/196/196 194/194/194
f 199/199/199 198/198/198 197/197/197
f 199/199/199 200/200/200 198/198/198
f 203/203/203 202/202/202 201/201/201
f 203/203/203 204/204/204 202/202/202
f 207/207/207 206/206/206 205/205/205
f 207/207/207 208/208/208 206/206/206
f 211/211/211 210/210/210 209/209/209
f 211/211/211 212/212/212 210/210/210
f 215/215/215 214/214/214 213/213/213
f 215/215/215 216/216/216 214/214/214
f 219/219/219 218/218/218 217/217/217
f 219/219/219 220/220/220 218/218/218
f 223/223/223 222/222/222 221/221/221
f 223/223/223 224/224/224 222/222/222
f 227/227/227 226/226/226 225/225/225
f 227/227/227 228/228/228 226/226/226
