g default
v -1.4 0.4 -0.25
v -1.4 0.2 -0.25
v -1.4 0.2 -0.45
v -1.4 0.4 -0.45
v -1.2 0.3 0.25
v -1.2 0.2 0.25
v -1.2 0.2 0.15
v -1.2 0.3 0.15
v -1.2 0.3 0.15
v -1.2 0.2 0.15
v -1.2 0.2 0.05
v -1.2 0.3 0.05
v -1.2 0.3 0.05
v -1.2 0.2 0.05
v -1.2 0.2 -0.15
v -1.2 0.3 -0.15
v -1.2 0.3 -0.15
v -1.2 0.2 -0.15
v -1.2 0.2 -0.25
v -1.2 0.4 -0.15
v -1.2 0.4 -0.25
v -1.2 0.3 -0.45
v -1.2 0.2 -0.45
v -1.2 0.2 -0.55
v -1.2 0.3 -0.55
v -1.2 0.3 -0.55
v -1.2 0.2 -0.55
v -1.2 0.2 -0.65
v -1.2 0.3 -0.65
v -0.5 0.2 -0.15
v -0.5 0.1 -0.15
v -0.5 0.1 -0.25
v -0.5 0.2 -0.25
v -0.4 0.1 -0.05
v -0.4 0 -0.05
v -0.4 0 -0.15
v -0.4 0.1 -0.15
v -1.1 0.2 -0.55
v -1.1 0.3 -0.55
v -1.1 0.2 -0.65
v -1.1 0.3 -0.65
v -1.1 0.3 -0.15
v -1.1 0.4 -0.15
v -1.1 0.3 -0.25
v -1.1 0.4 -0.25
v -1 0.2 -0.45
v -1 0.3 -0.45
v -1 0.2 -0.55
v -1 0.3 -0.55
v -0.9 0.2 -0.15
v -0.9 0.3 -0.15
v -0.9 0.2 -0.25
v -0.9 0.3 -0.25
v -0.8 0.2 0.25
v -0.8 0.3 0.25
v -0.8 0.2 0.15
v -0.8 0.3 0.15
v -0.8 0.2 -0.05
v -0.8 0.3 -0.05
v -0.8 0.2 -0.15
v -0.8 0.3 -0.15
v -0.7 0.2 0.15
v -0.7 0.3 0.15
v -0.7 0.2 -0.05
v -0.7 0.3 -0.05
v -0.3 0.1 -0.15
v -0.3 0.2 -0.15
v -0.3 0.1 -0.25
v -0.3 0.2 -0.25
v -0.2 0 -0.05
v -0.2 0.1 -0.05
v -0.2 0 -0.15
v -0.2 0.1 -0.15
v 0 0.2 -0.25
v 0 0.4 -0.25
v 0 0.2 -0.45
v 0 0.4 -0.45
v -0.8 0.2 0.25
v -1.2 0.2 0.25
v -1.2 0.3 0.25
v -0.8 0.3 0.25
v -0.7 0.2 0.15
v -0.8 0.2 0.15
v -0.8 0.3 0.15
v -0.7 0.3 0.15
v -0.2 0 -0.05
v -0.4 0 -0.05
v -0.4 0.1 -0.05
v -0.2 0.1 -0.05
v -1.1 0.3 -0.15
v -1.2 0.3 -0.15
v -1.2 0.4 -0.15
v -1.1 0.4 -0.15
v -0.4 0.1 -0.15
v -0.5 0.1 -0.15
v -0.5 0.2 -0.15
v -0.3 0.1 -0.15
v -0.3 0.2 -0.15
v -1.2 0.2 -0.25
v -1.4 0.2 -0.25
v -1.4 0.4 -0.25
v -1.2 0.4 -0.25
v -0.9 0.3 -0.25
v -1.1 0.3 -0.25
v -1.1 0.4 -0.25
v -0.9 0.4 -0.25
v -0.8 0.2 -0.25
v -0.9 0.2 -0.25
v -0.9 0.3 -0.25
v -0.9 0.4 -0.25
v -0.8 0.4 -0.25
v -0.6 0.2 -0.25
v -0.8 0.2 -0.25
v -0.8 0.4 -0.25
v -0.6 0.4 -0.25
v -0.5 0.2 -0.25
v -0.6 0.2 -0.25
v -0.6 0.4 -0.25
v -0.5 0.4 -0.25
v -0.3 0.2 -0.25
v -0.5 0.2 -0.25
v -0.5 0.4 -0.25
v -0.2 0.2 -0.25
v -0.2 0.4 -0.25
v 0 0.2 -0.25
v -0.2 0.2 -0.25
v -0.2 0.4 -0.25
v 0 0.4 -0.25
v -0.8 0.2 -0.05
v -0.7 0.2 -0.05
v -0.8 0.3 -0.05
v -0.7 0.3 -0.05
v -0.9 0.2 -0.15
v -0.8 0.2 -0.15
v -0.9 0.3 -0.15
v -0.8 0.3 -0.15
v -0.4 0 -0.15
v -0.3 0.1 -0.15
v -0.4 0.1 -0.15
v -0.2 0 -0.15
v -0.2 0.1 -0.15
v -0.5 0.1 -0.25
v -0.3 0.1 -0.25
v -0.5 0.2 -0.25
v -0.3 0.2 -0.25
v -1.4 0.2 -0.45
v -1.2 0.2 -0.45
v -1.4 0.4 -0.45
v -1.2 0.3 -0.45
v -1.2 0.4 -0.45
v -1.2 0.3 -0.45
v -1 0.3 -0.45
v -1.2 0.4 -0.45
v -0.9 0.4 -0.45
v -0.9 0.2 -0.45
v -1 0.2 -0.45
v -0.9 0.2 -0.45
v -0.8 0.2 -0.45
v -0.9 0.4 -0.45
v -0.8 0.4 -0.45
v -0.8 0.2 -0.45
v -0.6 0.2 -0.45
v -0.8 0.4 -0.45
v -0.6 0.4 -0.45
v -0.6 0.2 -0.45
v -0.5 0.2 -0.45
v -0.6 0.4 -0.45
v -0.5 0.4 -0.45
v -0.5 0.2 -0.45
v -0.2 0.2 -0.45
v -0.5 0.4 -0.45
v -0.2 0.4 -0.45
v -0.2 0.2 -0.45
v 0 0.2 -0.45
v -0.2 0.4 -0.45
v 0 0.4 -0.45
v -1.1 0.2 -0.55
v -1 0.2 -0.55
v -1.1 0.3 -0.55
v -1 0.3 -0.55
v -1.2 0.2 -0.65
v -1.1 0.2 -0.65
v -1.2 0.3 -0.65
v -1.1 0.3 -0.65
v -0.4 0 -0.15
v -0.4 0 -0.05
v -0.2 0 -0.05
v -0.2 0 -0.15
v -0.5 0.1 -0.25
v -0.5 0.1 -0.15
v -0.4 0.1 -0.15
v -0.3 0.1 -0.15
v -0.3 0.1 -0.25
v -1.2 0.2 0.15
v -1.2 0.2 0.25
v -0.8 0.2 0.25
v -0.8 0.2 0.15
v -0.8 0.2 -0.05
v -0.7 0.2 0.15
v -0.7 0.2 -0.05
v -0.9 0.2 -0.15
v -0.9 0.2 -0.05
v -0.8 0.2 -0.15
v -1.2 0.2 0.05
v -1.2 0.2 0.15
v -0.8 0.2 0.15
v -1.1 0.2 0.05
v -0.9 0.2 -0.05
v -0.8 0.2 -0.05
v -1.1 0.2 -0.15
v -0.9 0.2 -0.15
v -1.2 0.2 -0.15
v -1.2 0.2 0.05
v -1.1 0.2 0.05
v -1.1 0.2 -0.15
v -1.1 0.2 -0.25
v -0.9 0.2 -0.15
v -0.9 0.2 -0.25
v -1.2 0.2 -0.25
v -1.2 0.2 -0.15
v -1.1 0.2 -0.15
v -1.1 0.2 -0.25
v -1.2 0.2 -0.45
v -0.9 0.2 -0.25
v -1 0.2 -0.45
v -0.9 0.2 -0.45
v -1.2 0.2 -0.55
v -1.1 0.2 -0.55
v -1 0.2 -0.55
v -1.4 0.2 -0.45
v -1.4 0.2 -0.25
v -1.2 0.2 -0.25
v -1.2 0.2 -0.45
v -0.9 0.2 -0.45
v -0.9 0.2 -0.25
v -0.8 0.2 -0.25
v -0.8 0.2 -0.45
v -0.8 0.2 -0.45
v -0.8 0.2 -0.25
v -0.6 0.2 -0.25
v -0.6 0.2 -0.45
v -0.6 0.2 -0.45
v -0.6 0.2 -0.25
v -0.5 0.2 -0.25
v -0.5 0.2 -0.45
v -0.5 0.2 -0.45
v -0.3 0.2 -0.25
v -0.2 0.2 -0.25
v -0.5 0.2 -0.25
v -0.2 0.2 -0.45
v -0.2 0.2 -0.45
v -0.2 0.2 -0.25
v 0 0.2 -0.25
v 0 0.2 -0.45
v -1.2 0.2 -0.65
v -1.2 0.2 -0.55
v -1.1 0.2 -0.55
v -1.1 0.2 -0.65
v -0.4 0.1 -0.05
v -0.4 0.1 -0.15
v -0.2 0.1 -0.05
v -0.3 0.1 -0.15
v -0.2 0.1 -0.15
v -0.5 0.2 -0.15
v -0.5 0.2 -0.25
v -0.3 0.2 -0.15
v -0.3 0.2 -0.25
v -1.2 0.3 0.25
v -1.2 0.3 0.15
v -0.8 0.3 0.25
v -0.8 0.3 0.15
v -0.8 0.3 -0.05
v -0.7 0.3 0.15
v -0.7 0.3 -0.05
v -0.9 0.3 -0.05
v -0.9 0.3 -0.15
v -0.8 0.3 -0.15
v -1.2 0.3 0.15
v -1.2 0.3 0.05
v -0.8 0.3 0.15
v -1.1 0.3 0.05
v -0.9 0.3 -0.05
v -0.8 0.3 -0.05
v -1.1 0.3 -0.15
v -0.9 0.3 -0.15
v -1.2 0.3 0.05
v -1.2 0.3 -0.15
v -1.1 0.3 0.05
v -1.1 0.3 -0.15
v -1.1 0.3 -0.25
v -0.9 0.3 -0.15
v -0.9 0.3 -0.25
v -1.2 0.3 -0.45
v -1.2 0.3 -0.55
v -1 0.3 -0.45
v -1.1 0.3 -0.55
v -1 0.3 -0.55
v -1.2 0.3 -0.55
v -1.2 0.3 -0.65
v -1.1 0.3 -0.55
v -1.1 0.3 -0.65
v -1.2 0.4 -0.15
v -1.2 0.4 -0.25
v -1.1 0.4 -0.15
v -1.1 0.4 -0.25
v -1.2 0.4 -0.45
v -0.9 0.4 -0.25
v -0.9 0.4 -0.45
v -1.4 0.4 -0.25
v -1.4 0.4 -0.45
v -1.2 0.4 -0.25
v -1.2 0.4 -0.45
v -0.9 0.4 -0.25
v -0.9 0.4 -0.45
v -0.8 0.4 -0.25
v -0.8 0.4 -0.45
v -0.8 0.4 -0.25
v -0.8 0.4 -0.45
v -0.6 0.4 -0.25
v -0.6 0.4 -0.45
v -0.6 0.4 -0.25
v -0.6 0.4 -0.45
v -0.5 0.4 -0.25
v -0.5 0.4 -0.45
v -0.5 0.4 -0.25
v -0.5 0.4 -0.45
v -0.2 0.4 -0.25
v -0.2 0.4 -0.45
v -0.2 0.4 -0.25
v -0.2 0.4 -0.45
v 0 0.4 -0.25
v 0 0.4 -0.45
vt 0.537109 0.5
vt 0.537109 0.5
vt 0.537109 0.5
vt 0.537109 0.5
vt 0.966797 0.5
vt 0.966797 0.5
vt 0.966797 0.5
vt 0.966797 0.5
vt 0.974609 0.5
vt 0.974609 0.5
vt 0.974609 0.5
vt 0.974609 0.5
vt 0.978516 0.5
vt 0.978516 0.5
vt 0.978516 0.5
vt 0.978516 0.5
vt 0.982422 0.5
vt 0.982422 0.5
vt 0.982422 0.5
vt 0.982422 0.5
vt 0.982422 0.5
vt 0.982422 0.5
vt 0.982422 0.5
vt 0.982422 0.5
vt 0.982422 0.5
vt 0.974609 0.5
vt 0.974609 0.5
vt 0.974609 0.5
vt 0.974609 0.5
vt 0.650391 0.5
vt 0.650391 0.5
vt 0.650391 0.5
vt 0.650391 0.5
vt 0.673828 0.5
vt 0.673828 0.5
vt 0.673828 0.5
vt 0.673828 0.5
vt 0.974609 0.5
vt 0.974609 0.5
vt 0.974609 0.5
vt 0.974609 0.5
vt 0.982422 0.5
vt 0.982422 0.5
vt 0.982422 0.5
vt 0.982422 0.5
vt 0.982422 0.5
vt 0.982422 0.5
vt 0.982422 0.5
vt 0.982422 0.5
vt 0.978516 0.5
vt 0.978516 0.5
vt 0.978516 0.5
vt 0.978516 0.5
vt 0.966797 0.5
vt 0.966797 0.5
vt 0.966797 0.5
vt 0.966797 0.5
vt 0.966797 0.5
vt 0.966797 0.5
vt 0.966797 0.5
vt 0.966797 0.5
vt 0.966797 0.5
vt 0.966797 0.5
vt 0.966797 0.5
vt 0.966797 0.5
vt 0.650391 0.5
vt 0.650391 0.5
vt 0.650391 0.5
vt 0.650391 0.5
vt 0.673828 0.5
vt 0.673828 0.5
vt 0.673828 0.5
vt 0.673828 0.5
vt 0.537109 0.5
vt 0.537109 0.5
vt 0.537109 0.5
vt 0.537109 0.5
vt 0.966797 0.5
vt 0.966797 0.5
vt 0.966797 0.5
vt 0.966797 0.5
vt 0.966797 0.5
vt 0.966797 0.5
vt 0.966797 0.5
vt 0.966797 0.5
vt 0.673828 0.5
vt 0.673828 0.5
vt 0.673828 0.5
vt 0.673828 0.5
vt 0.982422 0.5
vt 0.982422 0.5
vt 0.982422 0.5
vt 0.982422 0.5
vt 0.650391 0.5
vt 0.650391 0.5
vt 0.650391 0.5
vt 0.650391 0.5
vt 0.650391 0.5
vt 0.537109 0.5
vt 0.537109 0.5
vt 0.537109 0.5
vt 0.537109 0.5
vt 0.982422 0.5
vt 0.982422 0.5
vt 0.982422 0.5
vt 0.982422 0.5
vt 0.537109 0.5
vt 0.537109 0.5
vt 0.537109 0.5
vt 0.537109 0.5
vt 0.537109 0.5
vt 0.701172 0.5
vt 0.701172 0.5
vt 0.701172 0.5
vt 0.701172 0.5
vt 0.673828 0.5
vt 0.673828 0.5
vt 0.673828 0.5
vt 0.673828 0.5
vt 0.701172 0.5
vt 0.701172 0.5
vt 0.701172 0.5
vt 0.701172 0.5
vt 0.701172 0.5
vt 0.537109 0.5
vt 0.537109 0.5
vt 0.537109 0.5
vt 0.537109 0.5
vt 0.966797 0.5
vt 0.966797 0.5
vt 0.966797 0.5
vt 0.966797 0.5
vt 0.966797 0.5
vt 0.966797 0.5
vt 0.966797 0.5
vt 0.966797 0.5
vt 0.673828 0.5
vt 0.673828 0.5
vt 0.673828 0.5
vt 0.673828 0.5
vt 0.673828 0.5
vt 0.650391 0.5
vt 0.650391 0.5
vt 0.650391 0.5
vt 0.650391 0.5
vt 0.537109 0.5
vt 0.537109 0.5
vt 0.537109 0.5
vt 0.537109 0.5
vt 0.537109 0.5
vt 0.982422 0.5
vt 0.982422 0.5
vt 0.982422 0.5
vt 0.982422 0.5
vt 0.982422 0.5
vt 0.982422 0.5
vt 0.537109 0.5
vt 0.537109 0.5
vt 0.537109 0.5
vt 0.537109 0.5
vt 0.701172 0.5
vt 0.701172 0.5
vt 0.701172 0.5
vt 0.701172 0.5
vt 0.673828 0.5
vt 0.673828 0.5
vt 0.673828 0.5
vt 0.673828 0.5
vt 0.701172 0.5
vt 0.701172 0.5
vt 0.701172 0.5
vt 0.701172 0.5
vt 0.537109 0.5
vt 0.537109 0.5
vt 0.537109 0.5
vt 0.537109 0.5
vt 0.982422 0.5
vt 0.982422 0.5
vt 0.982422 0.5
vt 0.982422 0.5
vt 0.974609 0.5
vt 0.974609 0.5
vt 0.974609 0.5
vt 0.974609 0.5
vt 0.673828 0.5
vt 0.673828 0.5
vt 0.673828 0.5
vt 0.673828 0.5
vt 0.650391 0.5
vt 0.650391 0.5
vt 0.650391 0.5
vt 0.650391 0.5
vt 0.650391 0.5
vt 0.966797 0.5
vt 0.966797 0.5
vt 0.966797 0.5
vt 0.966797 0.5
vt 0.966797 0.5
vt 0.966797 0.5
vt 0.966797 0.5
vt 0.966797 0.5
vt 0.966797 0.5
vt 0.966797 0.5
vt 0.974609 0.5
vt 0.974609 0.5
vt 0.974609 0.5
vt 0.974609 0.5
vt 0.974609 0.5
vt 0.974609 0.5
vt 0.974609 0.5
vt 0.974609 0.5
vt 0.978516 0.5
vt 0.978516 0.5
vt 0.978516 0.5
vt 0.978516 0.5
vt 0.978516 0.5
vt 0.978516 0.5
vt 0.978516 0.5
vt 0.982422 0.5
vt 0.982422 0.5
vt 0.982422 0.5
vt 0.982422 0.5
vt 0.982422 0.5
vt 0.982422 0.5
vt 0.982422 0.5
vt 0.982422 0.5
vt 0.982422 0.5
vt 0.982422 0.5
vt 0.982422 0.5
vt 0.537109 0.5
vt 0.537109 0.5
vt 0.537109 0.5
vt 0.537109 0.5
vt 0.537109 0.5
vt 0.537109 0.5
vt 0.537109 0.5
vt 0.537109 0.5
vt 0.701172 0.5
vt 0.701172 0.5
vt 0.701172 0.5
vt 0.701172 0.5
vt 0.673828 0.5
vt 0.673828 0.5
vt 0.673828 0.5
vt 0.673828 0.5
vt 0.701172 0.5
vt 0.701172 0.5
vt 0.701172 0.5
vt 0.701172 0.5
vt 0.701172 0.5
vt 0.537109 0.5
vt 0.537109 0.5
vt 0.537109 0.5
vt 0.537109 0.5
vt 0.974609 0.5
vt 0.974609 0.5
vt 0.974609 0.5
vt 0.974609 0.5
vt 0.673828 0.5
vt 0.673828 0.5
vt 0.673828 0.5
vt 0.673828 0.5
vt 0.673828 0.5
vt 0.650391 0.5
vt 0.650391 0.5
vt 0.650391 0.5
vt 0.650391 0.5
vt 0.966797 0.5
vt 0.966797 0.5
vt 0.966797 0.5
vt 0.966797 0.5
vt 0.966797 0.5
vt 0.966797 0.5
vt 0.966797 0.5
vt 0.966797 0.5
vt 0.966797 0.5
vt 0.966797 0.5
vt 0.974609 0.5
vt 0.974609 0.5
vt 0.974609 0.5
vt 0.974609 0.5
vt 0.974609 0.5
vt 0.974609 0.5
vt 0.974609 0.5
vt 0.974609 0.5
vt 0.978516 0.5
vt 0.978516 0.5
vt 0.978516 0.5
vt 0.978516 0.5
vt 0.978516 0.5
vt 0.978516 0.5
vt 0.978516 0.5
vt 0.982422 0.5
vt 0.982422 0.5
vt 0.982422 0.5
vt 0.982422 0.5
vt 0.982422 0.5
vt 0.974609 0.5
vt 0.974609 0.5
vt 0.974609 0.5
vt 0.974609 0.5
vt 0.982422 0.5
vt 0.982422 0.5
vt 0.982422 0.5
vt 0.982422 0.5
vt 0.982422 0.5
vt 0.982422 0.5
vt 0.982422 0.5
vt 0.537109 0.5
vt 0.537109 0.5
vt 0.537109 0.5
vt 0.537109 0.5
vt 0.537109 0.5
vt 0.537109 0.5
vt 0.537109 0.5
vt 0.537109 0.5
vt 0.701172 0.5
vt 0.701172 0.5
vt 0.701172 0.5
vt 0.701172 0.5
vt 0.673828 0.5
vt 0.673828 0.5
vt 0.673828 0.5
vt 0.673828 0.5
vt 0.701172 0.5
vt 0.701172 0.5
vt 0.701172 0.5
vt 0.701172 0.5
vt 0.537109 0.5
vt 0.537109 0.5
vt 0.537109 0.5
vt 0.537109 0.5
vn -1 0 0
vn -1 0 0
vn -1 0 0
vn -1 0 0
vn -1 0 0
vn -1 0 0
vn -1 0 0
vn -1 0 0
vn -1 0 0
vn -1 0 0
vn -1 0 0
vn -1 0 0
vn -1 0 0
vn -1 0 0
vn -1 0 0
vn -1 0 0
vn -1 0 0
vn -1 0 0
vn -1 0 0
vn -1 0 0
vn -1 0 0
vn -1 0 0
vn -1 0 0
vn -1 0 0
vn -1 0 0
vn -1 0 0
vn -1 0 0
vn -1 0 0
vn -1 0 0
vn -1 0 0
vn -1 0 0
vn -1 0 0
vn -1 0 0
vn -1 0 0
vn -1 0 0
vn -1 0 0
vn -1 0 0
vn 1 0 0
vn 1 0 0
vn 1 0 0
vn 1 0 0
vn 1 0 0
vn 1 0 0
vn 1 0 0
vn 1 0 0
vn 1 0 0
vn 1 0 0
vn 1 0 0
vn 1 0 0
vn 1 0 0
vn 1 0 0
vn 1 0 0
vn 1 0 0
vn 1 0 0
vn 1 0 0
vn 1 0 0
vn 1 0 0
vn 1 0 0
vn 1 0 0
vn 1 0 0
vn 1 0 0
vn 1 0 0
vn 1 0 0
vn 1 0 0
vn 1 0 0
vn 1 0 0
vn 1 0 0
vn 1 0 0
vn 1 0 0
vn 1 0 0
vn 1 0 0
vn 1 0 0
vn 1 0 0
vn 1 0 0
vn 1 0 0
vn 1 0 0
vn 1 0 0
vn 0 0 1
vn 0 0 1
vn 0 0 1
vn 0 0 1
vn 0 0 1
vn 0 0 1
vn 0 0 1
vn 0 0 1
vn 0 0 1
vn 0 0 1
vn 0 0 1
vn 0 0 1
vn 0 0 1
vn 0 0 1
vn 0 0 1
vn 0 0 1
vn 0 0 1
vn 0 0 1
vn 0 0 1
vn 0 0 1
vn 0 0 1
vn 0 0 1
vn 0 0 1
vn 0 0 1
vn 0 0 1
vn 0 0 1
vn 0 0 1
vn 0 0 1
vn 0 0 1
vn 0 0 1
vn 0 0 1
vn 0 0 1
vn 0 0 1
vn 0 0 1
vn 0 0 1
vn 0 0 1
vn 0 0 1
vn 0 0 1
vn 0 0 1
vn 0 0 1
vn 0 0 1
vn 0 0 1
vn 0 0 1
vn 0 0 1
vn 0 0 1
vn 0 0 1
vn 0 0 1
vn 0 0 1
vn 0 0 1
vn 0 0 1
vn 0 0 1
vn 0 0 -1
vn 0 0 -1
vn 0 0 -1
vn 0 0 -1
vn 0 0 -1
vn 0 0 -1
vn 0 0 -1
vn 0 0 -1
vn 0 0 -1
vn 0 0 -1
vn 0 0 -1
vn 0 0 -1
vn 0 0 -1
vn 0 0 -1
vn 0 0 -1
vn 0 0 -1
vn 0 0 -1
vn 0 0 -1
vn 0 0 -1
vn 0 0 -1
vn 0 0 -1
vn 0 0 -1
vn 0 0 -1
vn 0 0 -1
vn 0 0 -1
vn 0 0 -1
vn 0 0 -1
vn 0 0 -1
vn 0 0 -1
vn 0 0 -1
vn 0 0 -1
vn 0 0 -1
vn 0 0 -1
vn 0 0 -1
vn 0 0 -1
vn 0 0 -1
vn 0 0 -1
vn 0 0 -1
vn 0 0 -1
vn 0 0 -1
vn 0 0 -1
vn 0 0 -1
vn 0 0 -1
vn 0 0 -1
vn 0 0 -1
vn 0 0 -1
vn 0 0 -1
vn 0 0 -1
vn 0 0 -1
vn 0 0 -1
vn 0 0 -1
vn 0 0 -1
vn 0 0 -1
vn 0 0 -1
vn 0 0 -1
vn 0 0 -1
vn 0 -1 0
vn 0 -1 0
vn 0 -1 0
vn 0 -1 0
vn 0 -1 0
vn 0 -1 0
vn 0 -1 0
vn 0 -1 0
vn 0 -1 0
vn 0 -1 0
vn 0 -1 0
vn 0 -1 0
vn 0 -1 0
vn 0 -1 0
vn 0 -1 0
vn 0 -1 0
vn 0 -1 0
vn 0 -1 0
vn 0 -1 0
vn 0 -1 0
vn 0 -1 0
vn 0 -1 0
vn 0 -1 0
vn 0 -1 0
vn 0 -1 0
vn 0 -1 0
vn 0 -1 0
vn 0 -1 0
vn 0 -1 0
vn 0 -1 0
vn 0 -1 0
vn 0 -1 0
vn 0 -1 0
vn 0 -1 0
vn 0 -1 0
vn 0 -1 0
vn 0 -1 0
vn 0 -1 0
vn 0 -1 0
vn 0 -1 0
vn 0 -1 0
vn 0 -1 0
vn 0 -1 0
vn 0 -1 0
vn 0 -1 0
vn 0 -1 0
vn 0 -1 0
vn 0 -1 0
vn 0 -1 0
vn 0 -1 0
vn 0 -1 0
vn 0 -1 0
vn 0 -1 0
vn 0 -1 0
vn 0 -1 0
vn 0 -1 0
vn 0 -1 0
vn 0 -1 0
vn 0 -1 0
vn 0 -1 0
vn 0 -1 0
vn 0 -1 0
vn 0 -1 0
vn 0 -1 0
vn 0 -1 0
vn 0 -1 0
vn 0 -1 0
vn 0 -1 0
vn 0 -1 0
vn 0 -1 0
vn 0 -1 0
vn 0 -1 0
vn 0 -1 0
vn 0 -1 0
vn 0 1 0
vn 0 1 0
vn 0 1 0
vn 0 1 0
vn 0 1 0
vn 0 1 0
vn 0 1 0
vn 0 1 0
vn 0 1 0
vn 0 1 0
vn 0 1 0
vn 0 1 0
vn 0 1 0
vn 0 1 0
vn 0 1 0
vn 0 1 0
vn 0 1 0
vn 0 1 0
vn 0 1 0
vn 0 1 0
vn 0 1 0
vn 0 1 0
vn 0 1 0
vn 0 1 0
vn 0 1 0
vn 0 1 0
vn 0 1 0
vn 0 1 0
vn 0 1 0
vn 0 1 0
vn 0 1 0
vn 0 1 0
vn 0 1 0
vn 0 1 0
vn 0 1 0
vn 0 1 0
vn 0 1 0
vn 0 1 0
vn 0 1 0
vn 0 1 0
vn 0 1 0
vn 0 1 0
vn 0 1 0
vn 0 1 0
vn 0 1 0
vn 0 1 0
vn 0 1 0
vn 0 1 0
vn 0 1 0
vn 0 1 0
vn 0 1 0
vn 0 1 0
vn 0 1 0
vn 0 1 0
vn 0 1 0
vn 0 1 0
vn 0 1 0
vn 0 1 0
vn 0 1 0
vn 0 1 0
vn 0 1 0
vn 0 1 0
vn 0 1 0
vn 0 1 0
vn 0 1 0
vn 0 1 0
vn 0 1 0
vn 0 1 0
vn 0 1 0
vn 0 1 0
vn 0 1 0
vn 0 1 0
vn 0 1 0
vn 0 1 0
g default_0
f 3/3/3 2/2/2 1/1/1
f 3/3/3 1/1/1 4/4/4
f 7/7/7 6/6/6 5/5/5
f 7/7/7 5/5/5 8/8/8
f 11/11/11 10/10/10 9/9/9
f 11/11/11 9/9/9 12/12/12
f 15/15/15 14/14/14 13/13/13
f 15/15/15 13/13/13 16/16/16
f 19/19/19 18/18/18 17/17/17
f 19/19/19 17/17/17 20/20/20
f 19/19/19 20/20/20 21/21/21
f 24/24/24 23/23/23 22/22/22
f 24/24/24 22/22/22 25/25/25
f 28/28/28 27/27/27 26/26/26
f 28/28/28 26/26/26 29/29/29
f 32/32/32 31/31/31 30/30/30
f 32/32/32 30/30/30 33/33/33
f 36/36/36 35/35/35 34/34/34
f 36/36/36 34/34/34 37/37/37
f 40/40/40 39/39/39 38/38/38
f 40/40/40 41/41/41 39/39/39
f 44/44/44 43/43/43 42/42/42
f 44/44/44 45/45/45 43/43/43
f 48/48/48 47/47/47 46/46/46
f 48/48/48 49/49/49 47/47/47
f 52/52/52 51/51/51 50/50/50
f 52/52/52 53/53/53 51/51/51
f 56/56/56 55/55/55 54/54/54
f 56/56/56 57/57/57 55/55/55
f 60/60/60 59/59/59 58/58/58
f 60/60/60 61/61/61 59/59/59
f 64/64/64 63/63/63 62/62/62
f 64/64/64 65/65/65 63/63/63
f 68/68/68 67/67/67 66/66/66
f 68/68/68 69/69/69 67/67/67
f 72/72/72 71/71/71 70/70/70
f 72/72/72 73/73/73 71/71/71
f 76/76/76 75/75/75 74/74/74
f 76/76/76 77/77/77 75/75/75
f 80/80/80 79/79/79 78/78/78
f 80/80/80 78/78/78 81/81/81
f 84/84/84 83/83/83 82/82/82
f 84/84/84 82/82/82 85/85/85
f 88/88/88 87/87/87 86/86/86
f 88/88/88 86/86/86 89/89/89
f 92/92/92 91/91/91 90/90/90
f 92/92/92 90/90/90 93/93/93
f 96/96/96 95/95/95 94/94/94
f 96/96/96 94/94/94 97/97/97
f 96/96/96 97/97/97 98/98/98
f 101/101/101 100/100/100 99/99/99
f 101/101/101 99/99/99 102/102/102
f 105/105/105 104/104/104 103/103/103
f 105/105/105 103/103/103 106/106/106
f 109/109/109 108/108/108 107/107/107
f 110/110/110 109/109/109 107/107/107
f 110/110/110 107/107/107 111/111/111
f 114/114/114 113/113/113 112/112/112
f 114/114/114 112/112/112 115/115/115
f 118/118/118 117/117/117 116/116/116
f 118/118/118 116/116/116 119/119/119
f 122/122/122 121/121/121 120/120/120
f 122/122/122 120/120/120 123/123/123
f 122/122/122 123/123/123 124/124/124
f 127/127/127 126/126/126 125/125/125
f 127/127/127 125/125/125 128/128/128
f 131/131/131 130/130/130 129/129/129
f 131/131/131 132/132/132 130/130/130
f 135/135/135 134/134/134 133/133/133
f 135/135/135 136/136/136 134/134/134
f 139/139/139 138/138/138 137/137/137
f 138/138/138 140/140/140 137/137/137
f 138/138/138 141/141/141 140/140/140
f 144/144/144 143/143/143 142/142/142
f 144/144/144 145/145/145 143/143/143
f 148/148/148 147/147/147 146/146/146
f 148/148/148 149/149/149 147/147/147
f 148/148/148 150/150/150 149/149/149
f 153/153/153 152/152/152 151/151/151
f 153/153/153 154/154/154 152/152/152
f 152/152/152 154/154/154 155/155/155
f 152/152/152 155/155/155 156/156/156
f 159/159/159 158/158/158 157/157/157
f 159/159/159 160/160/160 158/158/158
f 163/163/163 162/162/162 161/161/161
f 163/163/163 164/164/164 162/162/162
f 167/167/167 166/166/166 165/165/165
f 167/167/167 168/168/168 166/166/166
f 171/171/171 170/170/170 169/169/169
f 171/171/171 172/172/172 170/170/170
f 175/175/175 174/174/174 173/173/173
f 175/175/175 176/176/176 174/174/174
f 179/179/179 178/178/178 177/177/177
f 179/179/179 180/180/180 178/178/178
f 183/183/183 182/182/182 181/181/181
f 183/183/183 184/184/184 182/182/182
f 187/187/187 186/186/186 185/185/185
f 187/187/187 185/185/185 188/188/188
f 191/191/191 190/190/190 189/189/189
f 192/192/192 191/191/191 189/189/189
f 192/192/192 189/189/189 193/193/193
f 196/196/196 195/195/195 194/194/194
f 196/196/196 194/194/194 197/197/197
f 199/199/199 197/197/197 198/198/198
f 199/199/199 198/198/198 200/200/200
f 198/198/198 202/202/202 201/201/201
f 198/198/198 201/201/201 203/203/203
f 206/206/206 205/205/205 204/204/204
f 206/206/206 204/204/204 207/207/207
f 206/206/206 207/207/207 208/208/208
f 206/206/206 208/208/208 209/209/209
f 208/208/208 207/207/207 210/210/210
f 208/208/208 210/210/210 211/211/211
f 214/214/214 213/213/213 212/212/212
f 214/214/214 212/212/212 215/215/215
f 217/217/217 215/215/215 216/216/216
f 217/217/217 216/216/216 218/218/218
f 221/221/221 220/220/220 219/219/219
f 221/221/221 219/219/219 222/222/222
f 222/222/222 219/219/219 223/223/223
f 224/224/224 222/222/222 223/223/223
f 224/224/224 223/223/223 225/225/225
f 224/224/224 225/225/225 226/226/226
f 225/225/225 223/223/223 227/227/227
f 225/225/225 227/227/227 228/228/228
f 225/225/225 228/228/228 229/229/229
f 232/232/232 231/231/231 230/230/230
f 232/232/232 230/230/230 233/233/233
f 236/236/236 235/235/235 234/234/234
f 236/236/236 234/234/234 237/237/237
f 240/240/240 239/239/239 238/238/238
f 240/240/240 238/238/238 241/241/241
f 244/244/244 243/243/243 242/242/242
f 244/244/244 242/242/242 245/245/245
f 248/248/248 247/247/247 246/246/246
f 247/247/247 249/249/249 246/246/246
f 248/248/248 246/246/246 250/250/250
f 253/253/253 252/252/252 251/251/251
f 253/253/253 251/251/251 254/254/254
f 257/257/257 256/256/256 255/255/255
f 257/257/257 255/255/255 258/258/258
f 261/261/261 260/260/260 259/259/259
f 261/261/261 262/262/262 260/260/260
f 261/261/261 263/263/263 262/262/262
f 266/266/266 265/265/265 264/264/264
f 266/266/266 267/267/267 265/265/265
f 270/270/270 269/269/269 268/268/268
f 270/270/270 271/271/271 269/269/269
f 273/273/273 272/272/272 271/271/271
f 273/273/273 274/274/274 272/272/272
f 272/272/272 276/276/276 275/275/275
f 272/272/272 277/277/277 276/276/276
f 280/280/280 279/279/279 278/278/278
f 280/280/280 281/281/281 279/279/279
f 280/280/280 282/282/282 281/281/281
f 280/280/280 283/283/283 282/282/282
f 282/282/282 284/284/284 281/281/281
f 282/282/282 285/285/285 284/284/284
f 288/288/288 287/287/287 286/286/286
f 288/288/288 289/289/289 287/287/287
f 291/291/291 290/290/290 289/289/289
f 291/291/291 292/292/292 290/290/290
f 295/295/295 294/294/294 293/293/293
f 295/295/295 296/296/296 294/294/294
f 295/295/295 297/297/297 296/296/296
f 300/300/300 299/299/299 298/298/298
f 300/300/300 301/301/301 299/299/299
f 304/304/304 303/303/303 302/302/302
f 304/304/304 305/305/305 303/303/303
f 305/305/305 306/306/306 303/303/303
f 307/307/307 306/306/306 305/305/305
f 307/307/307 308/308/308 306/306/306
f 311/311/311 310/310/310 309/309/309
f 311/311/311 312/312/312 310/310/310
f 315/315/315 314/314/314 313/313/313
f 315/315/315 316/316/316 314/314/314
f 319/319/319 318/318/318 317/317/317
f 319/319/319 320/320/320 318/318/318
f 323/323/323 322/322/322 321/321/321
f 323/323/323 324/324/324 322/322/322
f 327/327/327 326/326/326 325/325/325
f 327/327/327 328/328/328 326/326/326
f 331/331/331 330/330/330 329/329/329
f 331/331/331 332/332/332 330/330/330
