g default
v -0.35 0.6 0.1
v -0.35 0.4 0.1
v -0.35 0.4 -0.1
v -0.35 0.6 -0.1
v -0.25 0.6 0.2
v -0.25 0.5 0.2
v -0.25 0.5 0.1
v -0.25 0.6 0.1
v -0.15 0.2 0
v -0.15 0 0
v -0.15 0 -0.1
v -0.15 0.2 -0.1
v -0.15 0.4 0
v -0.15 0.2 0
v -0.15 0.2 -0.1
v -0.15 0.2 -0.2
v -0.15 0.4 -0.1
v -0.15 0.5 -0.1
v -0.15 0.5 -0.2
v -0.05 0.6 0
v -0.05 0.5 0
v -0.05 0.5 -0.1
v -0.05 0.6 -0.1
v 0.05 0.6 -0.1
v 0.05 0.5 -0.1
v 0.05 0.5 -0.2
v 0.05 0.6 -0.2
v 0.05 0.7 0
v 0.05 0.6 0
v 0.05 0.7 -0.1
v 0.15 0.7 0.1
v 0.15 0.6 0.1
v 0.15 0.6 0
v 0.15 0.7 0
v 0.15 0.7 -0.1
v 0.15 0.6 -0.1
v 0.15 0.6 -0.2
v 0.15 0.7 -0.2
v 0.15 0.8 0.1
v 0.15 0.7 0
v 0.15 0.7 0.1
v 0.15 0.8 -0.1
v -0.15 0.4 0.1
v -0.15 0.5 0.1
v -0.15 0.4 0
v -0.15 0.5 0
v -0.15 0.6 0.2
v -0.15 0.5 0.2
v -0.15 0.5 -0.1
v -0.15 0.6 -0.1
v 0.05 0 0
v 0.05 0.1 0
v 0.05 0 -0.1
v 0.05 0.1 -0.1
v 0.05 0.2 -0.1
v 0.05 0.3 -0.1
v 0.05 0.2 -0.2
v 0.05 0.3 -0.2
v 0.15 0.1 0
v 0.15 0.3 0
v 0.15 0.1 -0.1
v 0.15 0.3 -0.1
v 0.15 0.3 -0.1
v 0.15 0.5 -0.1
v 0.15 0.3 -0.2
v 0.15 0.5 -0.2
v 0.25 0.3 0
v 0.25 0.5 -0.1
v 0.25 0.3 -0.1
v 0.25 0.6 0
v 0.25 0.6 -0.1
v 0.25 0.5 -0.1
v 0.25 0.6 -0.1
v 0.25 0.5 -0.2
v 0.25 0.7 -0.1
v 0.25 0.7 -0.2
v 0.35 0.6 0.1
v 0.35 0.8 0.1
v 0.35 0.6 -0.1
v 0.35 0.8 -0.1
v -0.15 0.5 0.2
v -0.25 0.5 0.2
v -0.25 0.6 0.2
v -0.15 0.6 0.2
v -0.25 0.5 0.1
v -0.35 0.4 0.1
v -0.35 0.6 0.1
v -0.25 0.6 0.1
v -0.15 0.4 0.1
v -0.15 0.5 0.1
v 0.25 0.6 0.1
v 0.15 0.6 0.1
v 0.15 0.7 0.1
v 0.25 0.7 0.1
v 0.25 0.7 0.1
v 0.15 0.7 0.1
v 0.15 0.8 0.1
v 0.35 0.8 0.1
v 0.35 0.6 0.1
v 0.25 0.6 0.1
v -0.05 0.2 0
v -0.15 0 0
v -0.15 0.2 0
v 0.05 0 0
v -0.05 0.3 0
v 0.05 0.1 0
v 0.05 0.3 0
v 0.15 0.1 0
v 0.05 0.4 0
v 0.15 0.3 0
v 0.15 0.4 0
v 0.25 0.3 0
v 0.15 0.6 0
v 0.25 0.6 0
v -0.05 0.2 0
v -0.15 0.4 0
v -0.15 0.5 0
v -0.15 0.2 0
v -0.05 0.3 0
v -0.05 0.5 0
v 0.05 0.3 0
v -0.05 0.6 0
v 0.05 0.4 0
v 0.05 0.6 0
v 0.15 0.4 0
v 0.05 0.7 0
v 0.15 0.6 0
v 0.15 0.7 0
v -0.35 0.4 -0.1
v -0.15 0.4 -0.1
v -0.35 0.6 -0.1
v -0.15 0.5 -0.1
v -0.15 0.6 -0.1
v -0.15 0 -0.1
v 0.05 0 -0.1
v -0.15 0.2 -0.1
v 0.05 0.1 -0.1
v 0.05 0.2 -0.1
v 0.15 0.1 -0.1
v 0.05 0.3 -0.1
v 0.15 0.3 -0.1
v 0.25 0.3 -0.1
v 0.15 0.5 -0.1
v 0.25 0.5 -0.1
v -0.05 0.5 -0.1
v 0.05 0.5 -0.1
v -0.05 0.6 -0.1
v 0.05 0.6 -0.1
v 0.15 0.6 -0.1
v 0.05 0.7 -0.1
v 0.15 0.7 -0.1
v 0.25 0.7 -0.1
v 0.15 0.8 -0.1
v 0.35 0.8 -0.1
v 0.35 0.6 -0.1
v 0.25 0.6 -0.1
v -0.15 0.2 -0.2
v 0.05 0.2 -0.2
v -0.15 0.5 -0.2
v 0.05 0.3 -0.2
v 0.05 0.5 -0.2
v 0.15 0.3 -0.2
v 0.05 0.6 -0.2
v 0.15 0.5 -0.2
v 0.15 0.6 -0.2
v 0.25 0.5 -0.2
v 0.15 0.7 -0.2
v 0.25 0.7 -0.2
v -0.15 0 -0.1
v -0.15 0 0
v 0.05 0 0
v 0.05 0 -0.1
v 0.05 0.1 -0.1
v 0.05 0.1 0
v 0.15 0.1 0
v 0.15 0.1 -0.1
v -0.15 0.2 -0.2
v -0.15 0.2 -0.1
v 0.05 0.2 -0.1
v 0.05 0.2 -0.2
v 0.15 0.3 -0.1
v 0.15 0.3 0
v 0.25 0.3 0
v 0.25 0.3 -0.1
v 0.05 0.3 -0.2
v 0.05 0.3 -0.1
v 0.15 0.3 -0.1
v 0.15 0.3 -0.2
v -0.15 0.4 0
v -0.35 0.4 0.1
v -0.15 0.4 0.1
v -0.35 0.4 -0.1
v -0.15 0.4 -0.1
v -0.25 0.5 0.1
v -0.25 0.5 0.2
v -0.15 0.5 0.2
v -0.15 0.5 0.1
v 0.15 0.5 -0.2
v 0.15 0.5 -0.1
v 0.25 0.5 -0.1
v 0.25 0.5 -0.2
v 0.15 0.6 0
v 0.15 0.6 0.1
v 0.25 0.6 0.1
v 0.25 0.6 0
v 0.25 0.6 0
v 0.25 0.6 0.1
v 0.35 0.6 0.1
v 0.25 0.6 -0.1
v 0.35 0.6 -0.1
v -0.15 0.5 0
v -0.15 0.5 -0.1
v -0.05 0.5 0
v -0.05 0.5 -0.1
v -0.15 0.5 -0.2
v 0.05 0.5 -0.1
v 0.05 0.5 -0.2
v -0.25 0.6 0.2
v -0.25 0.6 0.1
v -0.15 0.6 0.2
v -0.15 0.6 -0.1
v -0.35 0.6 -0.1
v -0.35 0.6 0.1
v -0.05 0.6 0
v -0.05 0.6 -0.1
v 0.05 0.6 0
v 0.05 0.6 -0.1
v 0.05 0.6 -0.2
v 0.15 0.6 -0.1
v 0.15 0.6 -0.2
v 0.05 0.7 0
v 0.05 0.7 -0.1
v 0.15 0.7 0
v 0.15 0.7 -0.1
v 0.15 0.7 -0.2
v 0.25 0.7 -0.1
v 0.25 0.7 -0.2
v 0.15 0.8 0.1
v 0.15 0.8 -0.1
v 0.35 0.8 0.1
v 0.35 0.8 -0.1
vt 0.341797 0.5
vt 0.341797 0.5
vt 0.341797 0.5
vt 0.341797 0.5
vt 0.341797 0.5
vt 0.341797 0.5
vt 0.341797 0.5
vt 0.341797 0.5
vt 0.666016 0.5
vt 0.666016 0.5
vt 0.666016 0.5
vt 0.666016 0.5
vt 0.669922 0.5
vt 0.669922 0.5
vt 0.669922 0.5
vt 0.669922 0.5
vt 0.669922 0.5
vt 0.669922 0.5
vt 0.669922 0.5
vt 0.669922 0.5
vt 0.669922 0.5
vt 0.669922 0.5
vt 0.669922 0.5
vt 0.669922 0.5
vt 0.669922 0.5
vt 0.669922 0.5
vt 0.669922 0.5
vt 0.669922 0.5
vt 0.669922 0.5
vt 0.669922 0.5
vt 0.666016 0.5
vt 0.666016 0.5
vt 0.666016 0.5
vt 0.666016 0.5
vt 0.669922 0.5
vt 0.669922 0.5
vt 0.669922 0.5
vt 0.669922 0.5
vt 0.669922 0.5
vt 0.669922 0.5
vt 0.669922 0.5
vt 0.669922 0.5
vt 0.341797 0.5
vt 0.341797 0.5
vt 0.341797 0.5
vt 0.341797 0.5
vt 0.341797 0.5
vt 0.341797 0.5
vt 0.341797 0.5
vt 0.341797 0.5
vt 0.666016 0.5
vt 0.666016 0.5
vt 0.666016 0.5
vt 0.666016 0.5
vt 0.669922 0.5
vt 0.669922 0.5
vt 0.669922 0.5
vt 0.669922 0.5
vt 0.666016 0.5
vt 0.666016 0.5
vt 0.666016 0.5
vt 0.666016 0.5
vt 0.669922 0.5
vt 0.669922 0.5
vt 0.669922 0.5
vt 0.669922 0.5
vt 0.666016 0.5
vt 0.666016 0.5
vt 0.666016 0.5
vt 0.666016 0.5
vt 0.666016 0.5
vt 0.669922 0.5
vt 0.669922 0.5
vt 0.669922 0.5
vt 0.669922 0.5
vt 0.669922 0.5
vt 0.669922 0.5
vt 0.669922 0.5
vt 0.669922 0.5
vt 0.669922 0.5
vt 0.341797 0.5
vt 0.341797 0.5
vt 0.341797 0.5
vt 0.341797 0.5
vt 0.341797 0.5
vt 0.341797 0.5
vt 0.341797 0.5
vt 0.341797 0.5
vt 0.341797 0.5
vt 0.341797 0.5
vt 0.666016 0.5
vt 0.666016 0.5
vt 0.666016 0.5
vt 0.666016 0.5
vt 0.669922 0.5
vt 0.669922 0.5
vt 0.669922 0.5
vt 0.669922 0.5
vt 0.669922 0.5
vt 0.669922 0.5
vt 0.666016 0.5
vt 0.666016 0.5
vt 0.666016 0.5
vt 0.666016 0.5
vt 0.666016 0.5
vt 0.666016 0.5
vt 0.666016 0.5
vt 0.666016 0.5
vt 0.666016 0.5
vt 0.666016 0.5
vt 0.666016 0.5
vt 0.666016 0.5
vt 0.666016 0.5
vt 0.666016 0.5
vt 0.669922 0.5
vt 0.669922 0.5
vt 0.669922 0.5
vt 0.669922 0.5
vt 0.669922 0.5
vt 0.669922 0.5
vt 0.669922 0.5
vt 0.669922 0.5
vt 0.669922 0.5
vt 0.669922 0.5
vt 0.669922 0.5
vt 0.669922 0.5
vt 0.669922 0.5
vt 0.669922 0.5
vt 0.341797 0.5
vt 0.341797 0.5
vt 0.341797 0.5
vt 0.341797 0.5
vt 0.341797 0.5
vt 0.666016 0.5
vt 0.666016 0.5
vt 0.666016 0.5
vt 0.666016 0.5
vt 0.666016 0.5
vt 0.666016 0.5
vt 0.666016 0.5
vt 0.666016 0.5
vt 0.666016 0.5
vt 0.666016 0.5
vt 0.666016 0.5
vt 0.669922 0.5
vt 0.669922 0.5
vt 0.669922 0.5
vt 0.669922 0.5
vt 0.669922 0.5
vt 0.669922 0.5
vt 0.669922 0.5
vt 0.669922 0.5
vt 0.669922 0.5
vt 0.669922 0.5
vt 0.669922 0.5
vt 0.669922 0.5
vt 0.669922 0.5
vt 0.669922 0.5
vt 0.669922 0.5
vt 0.669922 0.5
vt 0.669922 0.5
vt 0.669922 0.5
vt 0.669922 0.5
vt 0.669922 0.5
vt 0.669922 0.5
vt 0.669922 0.5
vt 0.669922 0.5
vt 0.669922 0.5
vt 0.666016 0.5
vt 0.666016 0.5
vt 0.666016 0.5
vt 0.666016 0.5
vt 0.666016 0.5
vt 0.666016 0.5
vt 0.666016 0.5
vt 0.666016 0.5
vt 0.669922 0.5
vt 0.669922 0.5
vt 0.669922 0.5
vt 0.669922 0.5
vt 0.666016 0.5
vt 0.666016 0.5
vt 0.666016 0.5
vt 0.666016 0.5
vt 0.669922 0.5
vt 0.669922 0.5
vt 0.669922 0.5
vt 0.669922 0.5
vt 0.341797 0.5
vt 0.341797 0.5
vt 0.341797 0.5
vt 0.341797 0.5
vt 0.341797 0.5
vt 0.341797 0.5
vt 0.341797 0.5
vt 0.341797 0.5
vt 0.341797 0.5
vt 0.669922 0.5
vt 0.669922 0.5
vt 0.669922 0.5
vt 0.669922 0.5
vt 0.666016 0.5
vt 0.666016 0.5
vt 0.666016 0.5
vt 0.666016 0.5
vt 0.669922 0.5
vt 0.669922 0.5
vt 0.669922 0.5
vt 0.669922 0.5
vt 0.669922 0.5
vt 0.669922 0.5
vt 0.669922 0.5
vt 0.669922 0.5
vt 0.669922 0.5
vt 0.669922 0.5
vt 0.669922 0.5
vt 0.669922 0.5
vt 0.341797 0.5
vt 0.341797 0.5
vt 0.341797 0.5
vt 0.341797 0.5
vt 0.341797 0.5
vt 0.341797 0.5
vt 0.669922 0.5
vt 0.669922 0.5
vt 0.669922 0.5
vt 0.669922 0.5
vt 0.669922 0.5
vt 0.669922 0.5
vt 0.669922 0.5
vt 0.669922 0.5
vt 0.669922 0.5
vt 0.669922 0.5
vt 0.669922 0.5
vt 0.669922 0.5
vt 0.669922 0.5
vt 0.669922 0.5
vt 0.669922 0.5
vt 0.669922 0.5
vt 0.669922 0.5
vt 0.669922 0.5
vn -1 0 0
vn -1 0 0
vn -1 0 0
vn -1 0 0
vn -1 0 0
vn -1 0 0
vn -1 0 0
vn -1 0 0
vn -1 0 0
vn -1 0 0
vn -1 0 0
vn -1 0 0
vn -1 0 0
vn -1 0 0
vn -1 0 0
vn -1 0 0
vn -1 0 0
vn -1 0 0
vn -1 0 0
vn -1 0 0
vn -1 0 0
vn -1 0 0
vn -1 0 0
vn -1 0 0
vn -1 0 0
vn -1 0 0
vn -1 0 0
vn -1 0 0
vn -1 0 0
vn -1 0 0
vn -1 0 0
vn -1 0 0
vn -1 0 0
vn -1 0 0
vn -1 0 0
vn -1 0 0
vn -1 0 0
vn -1 0 0
vn -1 0 0
vn -1 0 0
vn -1 0 0
vn -1 0 0
vn 1 0 0
vn 1 0 0
vn 1 0 0
vn 1 0 0
vn 1 0 0
vn 1 0 0
vn 1 0 0
vn 1 0 0
vn 1 0 0
vn 1 0 0
vn 1 0 0
vn 1 0 0
vn 1 0 0
vn 1 0 0
vn 1 0 0
vn 1 0 0
vn 1 0 0
vn 1 0 0
vn 1 0 0
vn 1 0 0
vn 1 0 0
vn 1 0 0
vn 1 0 0
vn 1 0 0
vn 1 0 0
vn 1 0 0
vn 1 0 0
vn 1 0 0
vn 1 0 0
vn 1 0 0
vn 1 0 0
vn 1 0 0
vn 1 0 0
vn 1 0 0
vn 1 0 0
vn 1 0 0
vn 1 0 0
vn 1 0 0
vn 0 0 1
vn 0 0 1
vn 0 0 1
vn 0 0 1
vn 0 0 1
vn 0 0 1
vn 0 0 1
vn 0 0 1
vn 0 0 1
vn 0 0 1
vn 0 0 1
vn 0 0 1
vn 0 0 1
vn 0 0 1
vn 0 0 1
vn 0 0 1
vn 0 0 1
vn 0 0 1
vn 0 0 1
vn 0 0 1
vn 0 0 1
vn 0 0 1
vn 0 0 1
vn 0 0 1
vn 0 0 1
vn 0 0 1
vn 0 0 1
vn 0 0 1
vn 0 0 1
vn 0 0 1
vn 0 0 1
vn 0 0 1
vn 0 0 1
vn 0 0 1
vn 0 0 1
vn 0 0 1
vn 0 0 1
vn 0 0 1
vn 0 0 1
vn 0 0 1
vn 0 0 1
vn 0 0 1
vn 0 0 1
vn 0 0 1
vn 0 0 1
vn 0 0 1
vn 0 0 1
vn 0 0 1
vn 0 0 -1
vn 0 0 -1
vn 0 0 -1
vn 0 0 -1
vn 0 0 -1
vn 0 0 -1
vn 0 0 -1
vn 0 0 -1
vn 0 0 -1
vn 0 0 -1
vn 0 0 -1
vn 0 0 -1
vn 0 0 -1
vn 0 0 -1
vn 0 0 -1
vn 0 0 -1
vn 0 0 -1
vn 0 0 -1
vn 0 0 -1
vn 0 0 -1
vn 0 0 -1
vn 0 0 -1
vn 0 0 -1
vn 0 0 -1
vn 0 0 -1
vn 0 0 -1
vn 0 0 -1
vn 0 0 -1
vn 0 0 -1
vn 0 0 -1
vn 0 0 -1
vn 0 0 -1
vn 0 0 -1
vn 0 0 -1
vn 0 0 -1
vn 0 0 -1
vn 0 0 -1
vn 0 0 -1
vn 0 0 -1
vn 0 0 -1
vn 0 -1 0
vn 0 -1 0
vn 0 -1 0
vn 0 -1 0
vn 0 -1 0
vn 0 -1 0
vn 0 -1 0
vn 0 -1 0
vn 0 -1 0
vn 0 -1 0
vn 0 -1 0
vn 0 -1 0
vn 0 -1 0
vn 0 -1 0
vn 0 -1 0
vn 0 -1 0
vn 0 -1 0
vn 0 -1 0
vn 0 -1 0
vn 0 -1 0
vn 0 -1 0
vn 0 -1 0
vn 0 -1 0
vn 0 -1 0
vn 0 -1 0
vn 0 -1 0
vn 0 -1 0
vn 0 -1 0
vn 0 -1 0
vn 0 -1 0
vn 0 -1 0
vn 0 -1 0
vn 0 -1 0
vn 0 -1 0
vn 0 -1 0
vn 0 -1 0
vn 0 -1 0
vn 0 -1 0
vn 0 -1 0
vn 0 -1 0
vn 0 -1 0
vn 0 -1 0
vn 0 1 0
vn 0 1 0
vn 0 1 0
vn 0 1 0
vn 0 1 0
vn 0 1 0
vn 0 1 0
vn 0 1 0
vn 0 1 0
vn 0 1 0
vn 0 1 0
vn 0 1 0
vn 0 1 0
vn 0 1 0
vn 0 1 0
vn 0 1 0
vn 0 1 0
vn 0 1 0
vn 0 1 0
vn 0 1 0
vn 0 1 0
vn 0 1 0
vn 0 1 0
vn 0 1 0
vn 0 1 0
vn 0 1 0
vn 0 1 0
vn 0 1 0
vn 0 1 0
vn 0 1 0
vn 0 1 0
g default_0
f 3/3/3 2/2/2 1/1/1
f 3/3/3 1/1/1 4/4/4
f 7/7/7 6/6/6 5/5/5
f 7/7/7 5/5/5 8/8/8
f 11/11/11 10/10/10 9/9/9
f 11/11/11 9/9/9 12/12/12
f 15/15/15 14/14/14 13/13/13
f 16/16/16 15/15/15 13/13/13
f 16/16/16 13/13/13 17/17/17
f 16/16/16 17/17/17 18/18/18
f 16/16/16 18/18/18 19/19/19
f 22/22/22 21/21/21 20/20/20
f 22/22/22 20/20/20 23/23/23
f 26/26/26 25/25/25 24/24/24
f 26/26/26 24/24/24 27/27/27
f 24/24/24 29/29/29 28/28/28
f 24/24/24 28/28/28 30/30/30
f 33/33/33 32/32/32 31/31/31
f 33/33/33 31/31/31 34/34/34
f 37/37/37 36/36/36 35/35/35
f 37/37/37 35/35/35 38/38/38
f 35/35/35 40/40/40 39/39/39
f 40/40/40 41/41/41 39/39/39
f 35/35/35 39/39/39 42/42/42
f 45/45/45 44/44/44 43/43/43
f 45/45/45 46/46/46 44/44/44
f 46/46/46 47/47/47 44/44/44
f 44/44/44 47/47/47 48/48/48
f 49/49/49 47/47/47 46/46/46
f 49/49/49 50/50/50 47/47/47
f 53/53/53 52/52/52 51/51/51
f 53/53/53 54/54/54 52/52/52
f 57/57/57 56/56/56 55/55/55
f 57/57/57 58/58/58 56/56/56
f 61/61/61 60/60/60 59/59/59
f 61/61/61 62/62/62 60/60/60
f 65/65/65 64/64/64 63/63/63
f 65/65/65 66/66/66 64/64/64
f 69/69/69 68/68/68 67/67/67
f 68/68/68 70/70/70 67/67/67
f 68/68/68 71/71/71 70/70/70
f 74/74/74 73/73/73 72/72/72
f 74/74/74 75/75/75 73/73/73
f 74/74/74 76/76/76 75/75/75
f 79/79/79 78/78/78 77/77/77
f 79/79/79 80/80/80 78/78/78
f 83/83/83 82/82/82 81/81/81
f 83/83/83 81/81/81 84/84/84
f 87/87/87 86/86/86 85/85/85
f 87/87/87 85/85/85 88/88/88
f 85/85/85 86/86/86 89/89/89
f 85/85/85 89/89/89 90/90/90
f 93/93/93 92/92/92 91/91/91
f 93/93/93 91/91/91 94/94/94
f 97/97/97 96/96/96 95/95/95
f 97/97/97 95/95/95 98/98/98
f 95/95/95 99/99/99 98/98/98
f 95/95/95 100/100/100 99/99/99
f 103/103/103 102/102/102 101/101/101
f 101/101/101 102/102/102 104/104/104
f 105/105/105 101/101/101 104/104/104
f 105/105/105 104/104/104 106/106/106
f 105/105/105 106/106/106 107/107/107
f 107/107/107 106/106/106 108/108/108
f 109/109/109 107/107/107 108/108/108
f 109/109/109 108/108/108 110/110/110
f 109/109/109 110/110/110 111/111/111
f 111/111/111 110/110/110 112/112/112
f 113/113/113 111/111/111 112/112/112
f 113/113/113 112/112/112 114/114/114
f 117/117/117 116/116/116 115/115/115
f 116/116/116 118/118/118 115/115/115
f 117/117/117 115/115/115 119/119/119
f 117/117/117 119/119/119 120/120/120
f 120/120/120 119/119/119 121/121/121
f 122/122/122 120/120/120 121/121/121
f 122/122/122 121/121/121 123/123/123
f 122/122/122 123/123/123 124/124/124
f 124/124/124 123/123/123 125/125/125
f 126/126/126 124/124/124 125/125/125
f 126/126/126 125/125/125 127/127/127
f 126/126/126 127/127/127 128/128/128
f 131/131/131 130/130/130 129/129/129
f 131/131/131 132/132/132 130/130/130
f 131/131/131 133/133/133 132/132/132
f 136/136/136 135/135/135 134/134/134
f 136/136/136 137/137/137 135/135/135
f 136/136/136 138/138/138 137/137/137
f 138/138/138 139/139/139 137/137/137
f 140/140/140 139/139/139 138/138/138
f 140/140/140 141/141/141 139/139/139
f 143/143/143 142/142/142 141/141/141
f 143/143/143 144/144/144 142/142/142
f 147/147/147 146/146/146 145/145/145
f 147/147/147 148/148/148 146/146/146
f 150/150/150 149/149/149 148/148/148
f 150/150/150 151/151/151 149/149/149
f 153/153/153 152/152/152 151/151/151
f 153/153/153 154/154/154 152/152/152
f 152/152/152 154/154/154 155/155/155
f 152/152/152 155/155/155 156/156/156
f 159/159/159 158/158/158 157/157/157
f 159/159/159 160/160/160 158/158/158
f 159/159/159 161/161/161 160/160/160
f 161/161/161 162/162/162 160/160/160
f 163/163/163 162/162/162 161/161/161
f 163/163/163 164/164/164 162/162/162
f 163/163/163 165/165/165 164/164/164
f 165/165/165 166/166/166 164/164/164
f 167/167/167 166/166/166 165/165/165
f 167/167/167 168/168/168 166/166/166
f 171/171/171 170/170/170 169/169/169
f 171/171/171 169/169/169 172/172/172
f 175/175/175 174/174/174 173/173/173
f 175/175/175 173/173/173 176/176/176
f 179/179/179 178/178/178 177/177/177
f 179/179/179 177/177/177 180/180/180
f 183/183/183 182/182/182 181/181/181
f 183/183/183 181/181/181 184/184/184
f 187/187/187 186/186/186 185/185/185
f 187/187/187 185/185/185 188/188/188
f 191/191/191 190/190/190 189/189/189
f 189/189/189 190/190/190 192/192/192
f 189/189/189 192/192/192 193/193/193
f 196/196/196 195/195/195 194/194/194
f 196/196/196 194/194/194 197/197/197
f 200/200/200 199/199/199 198/198/198
f 200/200/200 198/198/198 201/201/201
f 204/204/204 203/203/203 202/202/202
f 204/204/204 202/202/202 205/205/205
f 208/208/208 207/207/207 206/206/206
f 208/208/208 206/206/206 209/209/209
f 208/208/208 209/209/209 210/210/210
f 213/213/213 212/212/212 211/211/211
f 213/213/213 214/214/214 212/212/212
f 214/214/214 215/215/215 212/212/212
f 216/216/216 215/215/215 214/214/214
f 216/216/216 217/217/217 215/215/215
f 220/220/220 219/219/219 218/218/218
f 220/220/220 221/221/221 219/219/219
f 219/219/219 221/221/221 222/222/222
f 219/219/219 222/222/222 223/223/223
f 226/226/226 225/225/225 224/224/224
f 226/226/226 227/227/227 225/225/225
f 229/229/229 228/228/228 227/227/227
f 229/229/229 230/230/230 228/228/228
f 233/233/233 232/232/232 231/231/231
f 233/233/233 234/234/234 232/232/232
f 236/236/236 235/235/235 234/234/234
f 236/236/236 237/237/237 235/235/235
f 240/240/240 239/239/239 238/238/238
f 240/240/240 241/241/241 239/239/239
