g default
v -0.4 0.3 0.2
v -0.4 0 0.3
v -0.4 0 0.2
v -0.4 0.4 0.3
v -0.4 0.3 -0.3
v -0.4 0.4 -0.3
v 0.3 0.3 0.3
v 0.3 0 0.3
v 0.3 0 0.2
v 0.3 0.3 0.2
v -0.3 0 0.3
v -0.3 0.3 0.3
v -0.3 0 0.2
v -0.3 0.3 0.2
v 0.4 0 0.3
v 0.4 0.3 0.2
v 0.4 0 0.2
v 0.4 0.4 0.3
v 0.4 0.3 -0.3
v 0.4 0.4 -0.3
v -0.3 0 0.3
v -0.4 0 0.3
v -0.4 0.4 0.3
v -0.3 0.3 0.3
v 0.3 0.3 0.3
v 0.4 0.4 0.3
v 0.4 0 0.3
v 0.3 0 0.3
v -0.4 0 0.2
v -0.3 0 0.2
v -0.4 0.3 0.2
v -0.3 0.3 0.2
v 0.3 0 0.2
v 0.4 0 0.2
v 0.3 0.3 0.2
v 0.4 0.3 0.2
v -0.4 0.3 -0.3
v 0.4 0.3 -0.3
v -0.4 0.4 -0.3
v 0.4 0.4 -0.3
v -0.4 0 0.2
v -0.4 0 0.3
v -0.3 0 0.3
v -0.3 0 0.2
v 0.3 0 0.2
v 0.3 0 0.3
v 0.4 0 0.3
v 0.4 0 0.2
v -0.3 0.3 0.2
v -0.3 0.3 0.3
v 0.3 0.3 0.3
v 0.3 0.3 0.2
v -0.4 0.3 -0.3
v -0.4 0.3 0.2
v 0.4 0.3 0.2
v 0.4 0.3 -0.3
v -0.4 0.4 0.3
v -0.4 0.4 -0.3
v 0.4 0.4 0.3
v 0.4 0.4 -0.3
vt 0.369141 0.5
vt 0.369141 0.5
vt 0.369141 0.5
vt 0.369141 0.5
vt 0.369141 0.5
vt 0.369141 0.5
vt 0.369141 0.5
vt 0.369141 0.5
vt 0.369141 0.5
vt 0.369141 0.5
vt 0.369141 0.5
vt 0.369141 0.5
vt 0.369141 0.5
vt 0.369141 0.5
vt 0.369141 0.5
vt 0.369141 0.5
vt 0.369141 0.5
vt 0.369141 0.5
vt 0.369141 0.5
vt 0.369141 0.5
vt 0.369141 0.5
vt 0.369141 0.5
vt 0.369141 0.5
vt 0.369141 0.5
vt 0.369141 0.5
vt 0.369141 0.5
vt 0.369141 0.5
vt 0.369141 0.5
vt 0.369141 0.5
vt 0.369141 0.5
vt 0.369141 0.5
vt 0.369141 0.5
vt 0.369141 0.5
vt 0.369141 0.5
vt 0.369141 0.5
vt 0.369141 0.5
vt 0.369141 0.5
vt 0.369141 0.5
vt 0.369141 0.5
vt 0.369141 0.5
vt 0.369141 0.5
vt 0.369141 0.5
vt 0.369141 0.5
vt 0.369141 0.5
vt 0.369141 0.5
vt 0.369141 0.5
vt 0.369141 0.5
vt 0.369141 0.5
vt 0.369141 0.5
vt 0.369141 0.5
vt 0.369141 0.5
vt 0.369141 0.5
vt 0.369141 0.5
vt 0.369141 0.5
vt 0.369141 0.5
vt 0.369141 0.5
vt 0.369141 0.5
vt 0.369141 0.5
vt 0.369141 0.5
vt 0.369141 0.5
vn -1 0 0
vn -1 0 0
vn -1 0 0
vn -1 0 0
vn -1 0 0
vn -1 0 0
vn -1 0 0
vn -1 0 0
vn -1 0 0
vn -1 0 0
vn 1 0 0
vn 1 0 0
vn 1 0 0
vn 1 0 0
vn 1 0 0
vn 1 0 0
vn 1 0 0
vn 1 0 0
vn 1 0 0
vn 1 0 0
vn 0 0 1
vn 0 0 1
vn 0 0 1
vn 0 0 1
vn 0 0 1
vn 0 0 1
vn 0 0 1
vn 0 0 1
vn 0 0 -1
vn 0 0 -1
vn 0 0 -1
vn 0 0 -1
vn 0 0 -1
vn 0 0 -1
vn 0 0 -1
vn 0 0 -1
vn 0 0 -1
vn 0 0 -1
vn 0 0 -1
vn 0 0 -1
vn 0 -1 0
vn 0 -1 0
vn 0 -1 0
vn 0 -1 0
vn 0 -1 0
vn 0 -1 0
vn 0 -1 0
vn 0 -1 0
vn 0 -1 0
vn 0 -1 0
vn 0 -1 0
vn 0 -1 0
vn 0 -1 0
vn 0 -1 0
vn 0 -1 0
vn 0 -1 0
vn 0 1 0
vn 0 1 0
vn 0 1 0
vn 0 1 0
g default_0
f 3/3/3 2/2/2 1/1/1
f 1/1/1 2/2/2 4/4/4
f 5/5/5 1/1/1 4/4/4
f 5/5/5 4/4/4 6/6/6
f 9/9/9 8/8/8 7/7/7
f 9/9/9 7/7/7 10/10/10
f 13/13/13 12/12/12 11/11/11
f 13/13/13 14/14/14 12/12/12
f 17/17/17 16/16/16 15/15/15
f 16/16/16 18/18/18 15/15/15
f 19/19/19 18/18/18 16/16/16
f 19/19/19 20/20/20 18/18/18
f 23/23/23 22/22/22 21/21/21
f 23/23/23 21/21/21 24/24/24
f 23/23/23 24/24/24 25/25/25
f 23/23/23 25/25/25 26/26/26
f 25/25/25 27/27/27 26/26/26
f 25/25/25 28/28/28 27/27/27
f 31/31/31 30/30/30 29/29/29
f 31/31/31 32/32/32 30/30/30
f 35/35/35 34/34/34 33/33/33
f 35/35/35 36/36/36 34/34/34
f 39/39/39 38/38/38 37/37/37
f 39/39/39 40/40/40 38/38/38
f 43/43/43 42/42/42 41/41/41
f 43/43/43 41/41/41 44/44/44
f 47/47/47 46/46/46 45/45/45
f 47/47/47 45/45/45 48/48/48
f 51/51/51 50/50/50 49/49/49
f 51/51/51 49/49/49 52/52/52
f 52/52/52 49/49/49 53/53/53
f 49/49/49 54/54/54 53/53/53
f 55/55/55 52/52/52 53/53/53
f 55/55/55 53/53/53 56/56/56
f 59/59/59 58/58/58 57/57/57
f 59/59/59 60/60/60 58/58/58
