g default
v -0.5 0.6 0.3
v -0.5 0.4 0.3
v -0.5 0.4 0.2
v -0.5 0.6 0.2
v -0.5 0.7 0.2
v -0.5 0.6 -0.2
v -0.5 0.7 -0.2
v -0.5 0.4 -0.2
v -0.5 0.4 -0.3
v -0.5 0.6 -0.3
v -0.3 0.4 0.3
v -0.3 0 0.3
v -0.3 0 -0.3
v -0.3 0.4 0.2
v -0.3 0.4 -0.2
v -0.3 0.4 -0.3
v -0.3 0.6 0.2
v -0.3 0.6 -0.2
v 0.2 0.5 0.2
v 0.2 0.4 0.3
v 0.2 0.4 0.2
v 0.2 0.6 0.3
v 0.2 0.5 -0.2
v 0.2 0.6 0.2
v 0.2 0.6 -0.2
v 0.2 0.4 -0.3
v 0.2 0.4 -0.2
v 0.2 0.6 -0.3
v 0.2 0.7 0.2
v 0.2 0.7 -0.2
v -0.2 0.4 0.3
v -0.2 0.5 0.2
v -0.2 0.4 0.2
v -0.2 0.6 0.3
v -0.2 0.5 -0.2
v -0.2 0.6 0.2
v -0.2 0.6 -0.2
v -0.2 0.4 -0.3
v -0.2 0.4 -0.2
v -0.2 0.6 -0.3
v -0.2 0.7 0.2
v -0.2 0.7 -0.2
v 0.3 0 0.3
v 0.3 0.4 0.3
v 0.3 0 -0.3
v 0.3 0.4 0.2
v 0.3 0.4 -0.2
v 0.3 0.4 -0.3
v 0.3 0.6 0.2
v 0.3 0.6 -0.2
v 0.5 0.4 0.3
v 0.5 0.6 0.3
v 0.5 0.4 0.2
v 0.5 0.6 0.2
v 0.5 0.7 0.2
v 0.5 0.6 -0.2
v 0.5 0.7 -0.2
v 0.5 0.4 -0.2
v 0.5 0.4 -0.3
v 0.5 0.6 -0.3
v -0.3 0.4 0.3
v -0.5 0.4 0.3
v -0.5 0.6 0.3
v -0.2 0.4 0.3
v -0.3 0 0.3
v -0.2 0.6 0.3
v 0.2 0.4 0.3
v 0.3 0 0.3
v 0.2 0.6 0.3
v 0.3 0.4 0.3
v 0.5 0.4 0.3
v 0.5 0.6 0.3
v -0.2 0.6 0.2
v -0.5 0.6 0.2
v -0.5 0.7 0.2
v -0.2 0.7 0.2
v 0.2 0.4 0.2
v -0.2 0.4 0.2
v -0.2 0.5 0.2
v 0.2 0.5 0.2
v 0.5 0.6 0.2
v 0.2 0.6 0.2
v 0.2 0.7 0.2
v 0.5 0.7 0.2
v -0.3 0.4 -0.2
v -0.5 0.4 -0.2
v -0.5 0.6 -0.2
v -0.3 0.6 -0.2
v 0.5 0.4 -0.2
v 0.3 0.4 -0.2
v 0.3 0.6 -0.2
v 0.5 0.6 -0.2
v -0.5 0.4 0.2
v -0.3 0.4 0.2
v -0.5 0.6 0.2
v -0.3 0.6 0.2
v 0.3 0.4 0.2
v 0.5 0.4 0.2
v 0.3 0.6 0.2
v 0.5 0.6 0.2
v -0.5 0.6 -0.2
v -0.2 0.6 -0.2
v -0.5 0.7 -0.2
v -0.2 0.7 -0.2
v -0.2 0.4 -0.2
v 0.2 0.4 -0.2
v -0.2 0.5 -0.2
v 0.2 0.5 -0.2
v 0.2 0.6 -0.2
v 0.5 0.6 -0.2
v 0.2 0.7 -0.2
v 0.5 0.7 -0.2
v -0.5 0.4 -0.3
v -0.3 0.4 -0.3
v -0.5 0.6 -0.3
v -0.2 0.4 -0.3
v -0.3 0 -0.3
v -0.2 0.6 -0.3
v 0.2 0.4 -0.3
v 0.3 0 -0.3
v 0.2 0.6 -0.3
v 0.3 0.4 -0.3
v 0.5 0.4 -0.3
v 0.5 0.6 -0.3
v -0.3 0 -0.3
v -0.3 0 0.3
v 0.3 0 0.3
v 0.3 0 -0.3
v -0.5 0.4 0.2
v -0.5 0.4 0.3
v -0.3 0.4 0.3
v -0.3 0.4 0.2
v 0.3 0.4 0.2
v 0.3 0.4 0.3
v 0.5 0.4 0.3
v 0.5 0.4 0.2
v -0.5 0.4 -0.3
v -0.5 0.4 -0.2
v -0.3 0.4 -0.2
v -0.3 0.4 -0.3
v 0.3 0.4 -0.3
v 0.3 0.4 -0.2
v 0.5 0.4 -0.2
v 0.5 0.4 -0.3
v -0.5 0.6 -0.2
v -0.5 0.6 0.2
v -0.3 0.6 0.2
v -0.3 0.6 -0.2
v 0.3 0.6 -0.2
v 0.3 0.6 0.2
v 0.5 0.6 0.2
v 0.5 0.6 -0.2
v -0.2 0.4 0.3
v -0.2 0.4 0.2
v 0.2 0.4 0.3
v 0.2 0.4 0.2
v -0.2 0.4 -0.2
v -0.2 0.4 -0.3
v 0.2 0.4 -0.2
v 0.2 0.4 -0.3
v -0.2 0.5 0.2
v -0.1 0.5 0.1
v 0.2 0.5 0.2
v 0.1 0.5 0.1
v -0.1 0.5 -0.1
v 0.1 0.5 -0.1
v -0.2 0.5 -0.2
v 0.2 0.5 -0.2
v -0.1 0.5 0.1
v -0.1 0.5 -0.1
v 0.1 0.5 0.1
v 0.1 0.5 -0.1
v -0.5 0.6 0.3
v -0.5 0.6 0.2
v -0.2 0.6 0.3
v -0.2 0.6 0.2
v 0.2 0.6 0.3
v 0.2 0.6 0.2
v 0.5 0.6 0.3
v 0.5 0.6 0.2
v -0.5 0.6 -0.2
v -0.5 0.6 -0.3
v -0.2 0.6 -0.2
v -0.2 0.6 -0.3
v 0.2 0.6 -0.2
v 0.2 0.6 -0.3
v 0.5 0.6 -0.2
v 0.5 0.6 -0.3
v -0.5 0.7 0.2
v -0.5 0.7 -0.2
v -0.2 0.7 0.2
v -0.2 0.7 -0.2
v 0.2 0.7 0.2
v 0.2 0.7 -0.2
v 0.5 0.7 0.2
v 0.5 0.7 -0.2
vt 0.783203 0.5
vt 0.783203 0.5
vt 0.783203 0.5
vt 0.783203 0.5
vt 0.783203 0.5
vt 0.783203 0.5
vt 0.783203 0.5
vt 0.783203 0.5
vt 0.783203 0.5
vt 0.783203 0.5
vt 0.783203 0.5
vt 0.783203 0.5
vt 0.783203 0.5
vt 0.783203 0.5
vt 0.783203 0.5
vt 0.783203 0.5
vt 0.783203 0.5
vt 0.783203 0.5
vt 0.783203 0.5
vt 0.783203 0.5
vt 0.783203 0.5
vt 0.783203 0.5
vt 0.783203 0.5
vt 0.783203 0.5
vt 0.783203 0.5
vt 0.783203 0.5
vt 0.783203 0.5
vt 0.783203 0.5
vt 0.783203 0.5
vt 0.783203 0.5
vt 0.783203 0.5
vt 0.783203 0.5
vt 0.783203 0.5
vt 0.783203 0.5
vt 0.783203 0.5
vt 0.783203 0.5
vt 0.783203 0.5
vt 0.783203 0.5
vt 0.783203 0.5
vt 0.783203 0.5
vt 0.783203 0.5
vt 0.783203 0.5
vt 0.783203 0.5
vt 0.783203 0.5
vt 0.783203 0.5
vt 0.783203 0.5
vt 0.783203 0.5
vt 0.783203 0.5
vt 0.783203 0.5
vt 0.783203 0.5
vt 0.783203 0.5
vt 0.783203 0.5
vt 0.783203 0.5
vt 0.783203 0.5
vt 0.783203 0.5
vt 0.783203 0.5
vt 0.783203 0.5
vt 0.783203 0.5
vt 0.783203 0.5
vt 0.783203 0.5
vt 0.783203 0.5
vt 0.783203 0.5
vt 0.783203 0.5
vt 0.783203 0.5
vt 0.783203 0.5
vt 0.783203 0.5
vt 0.783203 0.5
vt 0.783203 0.5
vt 0.783203 0.5
vt 0.783203 0.5
vt 0.783203 0.5
vt 0.783203 0.5
vt 0.783203 0.5
vt 0.783203 0.5
vt 0.783203 0.5
vt 0.783203 0.5
vt 0.783203 0.5
vt 0.783203 0.5
vt 0.783203 0.5
vt 0.783203 0.5
vt 0.783203 0.5
vt 0.783203 0.5
vt 0.783203 0.5
vt 0.783203 0.5
vt 0.783203 0.5
vt 0.783203 0.5
vt 0.783203 0.5
vt 0.783203 0.5
vt 0.783203 0.5
vt 0.783203 0.5
vt 0.783203 0.5
vt 0.783203 0.5
vt 0.783203 0.5
vt 0.783203 0.5
vt 0.783203 0.5
vt 0.783203 0.5
vt 0.783203 0.5
vt 0.783203 0.5
vt 0.783203 0.5
vt 0.783203 0.5
vt 0.783203 0.5
vt 0.783203 0.5
vt 0.783203 0.5
vt 0.783203 0.5
vt 0.783203 0.5
vt 0.783203 0.5
vt 0.783203 0.5
vt 0.783203 0.5
vt 0.783203 0.5
vt 0.783203 0.5
vt 0.783203 0.5
vt 0.783203 0.5
vt 0.783203 0.5
vt 0.783203 0.5
vt 0.783203 0.5
vt 0.783203 0.5
vt 0.783203 0.5
vt 0.783203 0.5
vt 0.783203 0.5
vt 0.783203 0.5
vt 0.783203 0.5
vt 0.783203 0.5
vt 0.783203 0.5
vt 0.783203 0.5
vt 0.783203 0.5
vt 0.783203 0.5
vt 0.783203 0.5
vt 0.783203 0.5
vt 0.783203 0.5
vt 0.783203 0.5
vt 0.783203 0.5
vt 0.783203 0.5
vt 0.783203 0.5
vt 0.783203 0.5
vt 0.783203 0.5
vt 0.783203 0.5
vt 0.783203 0.5
vt 0.783203 0.5
vt 0.783203 0.5
vt 0.783203 0.5
vt 0.783203 0.5
vt 0.783203 0.5
vt 0.783203 0.5
vt 0.783203 0.5
vt 0.783203 0.5
vt 0.783203 0.5
vt 0.783203 0.5
vt 0.783203 0.5
vt 0.783203 0.5
vt 0.783203 0.5
vt 0.783203 0.5
vt 0.783203 0.5
vt 0.783203 0.5
vt 0.783203 0.5
vt 0.783203 0.5
vt 0.783203 0.5
vt 0.783203 0.5
vt 0.783203 0.5
vt 0.783203 0.5
vt 0.783203 0.5
vt 0.783203 0.5
vt 0.783203 0.5
vt 0.783203 0.5
vt 0.783203 0.5
vt 0.783203 0.5
vt 0.783203 0.5
vt 0.783203 0.5
vt 0.783203 0.5
vt 0.986328 0.5
vt 0.986328 0.5
vt 0.986328 0.5
vt 0.986328 0.5
vt 0.783203 0.5
vt 0.783203 0.5
vt 0.783203 0.5
vt 0.783203 0.5
vt 0.783203 0.5
vt 0.783203 0.5
vt 0.783203 0.5
vt 0.783203 0.5
vt 0.783203 0.5
vt 0.783203 0.5
vt 0.783203 0.5
vt 0.783203 0.5
vt 0.783203 0.5
vt 0.783203 0.5
vt 0.783203 0.5
vt 0.783203 0.5
vt 0.783203 0.5
vt 0.783203 0.5
vt 0.783203 0.5
vt 0.783203 0.5
vt 0.783203 0.5
vt 0.783203 0.5
vt 0.783203 0.5
vt 0.783203 0.5
vn -1 0 0
vn -1 0 0
vn -1 0 0
vn -1 0 0
vn -1 0 0
vn -1 0 0
vn -1 0 0
vn -1 0 0
vn -1 0 0
vn -1 0 0
vn -1 0 0
vn -1 0 0
vn -1 0 0
vn -1 0 0
vn -1 0 0
vn -1 0 0
vn -1 0 0
vn -1 0 0
vn -1 0 0
vn -1 0 0
vn -1 0 0
vn -1 0 0
vn -1 0 0
vn -1 0 0
vn -1 0 0
vn -1 0 0
vn -1 0 0
vn -1 0 0
vn -1 0 0
vn -1 0 0
vn 1 0 0
vn 1 0 0
vn 1 0 0
vn 1 0 0
vn 1 0 0
vn 1 0 0
vn 1 0 0
vn 1 0 0
vn 1 0 0
vn 1 0 0
vn 1 0 0
vn 1 0 0
vn 1 0 0
vn 1 0 0
vn 1 0 0
vn 1 0 0
vn 1 0 0
vn 1 0 0
vn 1 0 0
vn 1 0 0
vn 1 0 0
vn 1 0 0
vn 1 0 0
vn 1 0 0
vn 1 0 0
vn 1 0 0
vn 1 0 0
vn 1 0 0
vn 1 0 0
vn 1 0 0
vn 0 0 1
vn 0 0 1
vn 0 0 1
vn 0 0 1
vn 0 0 1
vn 0 0 1
vn 0 0 1
vn 0 0 1
vn 0 0 1
vn 0 0 1
vn 0 0 1
vn 0 0 1
vn 0 0 1
vn 0 0 1
vn 0 0 1
vn 0 0 1
vn 0 0 1
vn 0 0 1
vn 0 0 1
vn 0 0 1
vn 0 0 1
vn 0 0 1
vn 0 0 1
vn 0 0 1
vn 0 0 1
vn 0 0 1
vn 0 0 1
vn 0 0 1
vn 0 0 1
vn 0 0 1
vn 0 0 1
vn 0 0 1
vn 0 0 -1
vn 0 0 -1
vn 0 0 -1
vn 0 0 -1
vn 0 0 -1
vn 0 0 -1
vn 0 0 -1
vn 0 0 -1
vn 0 0 -1
vn 0 0 -1
vn 0 0 -1
vn 0 0 -1
vn 0 0 -1
vn 0 0 -1
vn 0 0 -1
vn 0 0 -1
vn 0 0 -1
vn 0 0 -1
vn 0 0 -1
vn 0 0 -1
vn 0 0 -1
vn 0 0 -1
vn 0 0 -1
vn 0 0 -1
vn 0 0 -1
vn 0 0 -1
vn 0 0 -1
vn 0 0 -1
vn 0 0 -1
vn 0 0 -1
vn 0 0 -1
vn 0 0 -1
vn 0 -1 0
vn 0 -1 0
vn 0 -1 0
vn 0 -1 0
vn 0 -1 0
vn 0 -1 0
vn 0 -1 0
vn 0 -1 0
vn 0 -1 0
vn 0 -1 0
vn 0 -1 0
vn 0 -1 0
vn 0 -1 0
vn 0 -1 0
vn 0 -1 0
vn 0 -1 0
vn 0 -1 0
vn 0 -1 0
vn 0 -1 0
vn 0 -1 0
vn 0 -1 0
vn 0 -1 0
vn 0 -1 0
vn 0 -1 0
vn 0 -1 0
vn 0 -1 0
vn 0 -1 0
vn 0 -1 0
vn 0 1 0
vn 0 1 0
vn 0 1 0
vn 0 1 0
vn 0 1 0
vn 0 1 0
vn 0 1 0
vn 0 1 0
vn 0 1 0
vn 0 1 0
vn 0 1 0
vn 0 1 0
vn 0 1 0
vn 0 1 0
vn 0 1 0
vn 0 1 0
vn 0 1 0
vn 0 1 0
vn 0 1 0
vn 0 1 0
vn 0 1 0
vn 0 1 0
vn 0 1 0
vn 0 1 0
vn 0 1 0
vn 0 1 0
vn 0 1 0
vn 0 1 0
vn 0 1 0
vn 0 1 0
vn 0 1 0
vn 0 1 0
vn 0 1 0
vn 0 1 0
vn 0 1 0
vn 0 1 0
vn 0 1 0
vn 0 1 0
vn 0 1 0
vn 0 1 0
vn 0 1 0
vn 0 1 0
vn 0 1 0
vn 0 1 0
g default_0
f 3/3/3 2/2/2 1/1/1
f 3/3/3 1/1/1 4/4/4
f 6/6/6 4/4/4 5/5/5
f 6/6/6 5/5/5 7/7/7
f 9/9/9 8/8/8 6/6/6
f 9/9/9 6/6/6 10/10/10
f 13/13/13 12/12/12 11/11/11
f 13/13/13 11/11/11 14/14/14
f 13/13/13 14/14/14 15/15/15
f 13/13/13 15/15/15 16/16/16
f 15/15/15 14/14/14 17/17/17
f 15/15/15 17/17/17 18/18/18
f 21/21/21 20/20/20 19/19/19
f 19/19/19 20/20/20 22/22/22
f 23/23/23 19/19/19 22/22/22
f 23/23/23 22/22/22 24/24/24
f 23/23/23 24/24/24 25/25/25
f 26/26/26 23/23/23 25/25/25
f 26/26/26 27/27/27 23/23/23
f 26/26/26 25/25/25 28/28/28
f 25/25/25 24/24/24 29/29/29
f 25/25/25 29/29/29 30/30/30
f 33/33/33 32/32/32 31/31/31
f 32/32/32 34/34/34 31/31/31
f 35/35/35 34/34/34 32/32/32
f 35/35/35 36/36/36 34/34/34
f 35/35/35 37/37/37 36/36/36
f 38/38/38 37/37/37 35/35/35
f 38/38/38 35/35/35 39/39/39
f 38/38/38 40/40/40 37/37/37
f 37/37/37 41/41/41 36/36/36
f 37/37/37 42/42/42 41/41/41
f 45/45/45 44/44/44 43/43/43
f 45/45/45 46/46/46 44/44/44
f 45/45/45 47/47/47 46/46/46
f 45/45/45 48/48/48 47/47/47
f 47/47/47 49/49/49 46/46/46
f 47/47/47 50/50/50 49/49/49
f 53/53/53 52/52/52 51/51/51
f 53/53/53 54/54/54 52/52/52
f 56/56/56 55/55/55 54/54/54
f 56/56/56 57/57/57 55/55/55
f 59/59/59 56/56/56 58/58/58
f 59/59/59 60/60/60 56/56/56
f 63/63/63 62/62/62 61/61/61
f 63/63/63 61/61/61 64/64/64
f 61/61/61 65/65/65 64/64/64
f 63/63/63 64/64/64 66/66/66
f 64/64/64 65/65/65 67/67/67
f 67/67/67 65/65/65 68/68/68
f 69/69/69 67/67/67 68/68/68
f 69/69/69 68/68/68 70/70/70
f 69/69/69 70/70/70 71/71/71
f 69/69/69 71/71/71 72/72/72
f 75/75/75 74/74/74 73/73/73
f 75/75/75 73/73/73 76/76/76
f 79/79/79 78/78/78 77/77/77
f 79/79/79 77/77/77 80/80/80
f 83/83/83 82/82/82 81/81/81
f 83/83/83 81/81/81 84/84/84
f 87/87/87 86/86/86 85/85/85
f 87/87/87 85/85/85 88/88/88
f 91/91/91 90/90/90 89/89/89
f 91/91/91 89/89/89 92/92/92
f 95/95/95 94/94/94 93/93/93
f 95/95/95 96/96/96 94/94/94
f 99/99/99 98/98/98 97/97/97
f 99/99/99 100/100/100 98/98/98
f 103/103/103 102/102/102 101/101/101
f 103/103/103 104/104/104 102/102/102
f 107/107/107 106/106/106 105/105/105
f 107/107/107 108/108/108 106/106/106
f 111/111/111 110/110/110 109/109/109
f 111/111/111 112/112/112 110/110/110
f 115/115/115 114/114/114 113/113/113
f 115/115/115 116/116/116 114/114/114
f 114/114/114 116/116/116 117/117/117
f 115/115/115 118/118/118 116/116/116
f 116/116/116 119/119/119 117/117/117
f 119/119/119 120/120/120 117/117/117
f 121/121/121 120/120/120 119/119/119
f 121/121/121 122/122/122 120/120/120
f 121/121/121 123/123/123 122/122/122
f 121/121/121 124/124/124 123/123/123
f 127/127/127 126/126/126 125/125/125
f 127/127/127 125/125/125 128/128/128
f 131/131/131 130/130/130 129/129/129
f 131/131/131 129/129/129 132/132/132
f 135/135/135 134/134/134 133/133/133
f 135/135/135 133/133/133 136/136/136
f 139/139/139 138/138/138 137/137/137
f 139/139/139 137/137/137 140/140/140
f 143/143/143 142/142/142 141/141/141
f 143/143/143 141/141/141 144/144/144
f 147/147/147 146/146/146 145/145/145
f 147/147/147 145/145/145 148/148/148
f 151/151/151 150/150/150 149/149/149
f 151/151/151 149/149/149 152/152/152
f 155/155/155 154/154/154 153/153/153
f 155/155/155 156/156/156 154/154/154
f 159/159/159 158/158/158 157/157/157
f 159/159/159 160/160/160 158/158/158
f 163/163/163 162/162/162 161/161/161
f 163/163/163 164/164/164 162/162/162
f 162/162/162 165/165/165 161/161/161
f 163/163/163 166/166/166 164/164/164
f 165/165/165 167/167/167 161/161/161
f 166/166/166 167/167/167 165/165/165
f 163/163/163 168/168/168 166/166/166
f 166/166/166 168/168/168 167/167/167
f 171/171/171 170/170/170 169/169/169
f 171/171/171 172/172/172 170/170/170
f 175/175/175 174/174/174 173/173/173
f 175/175/175 176/176/176 174/174/174
f 179/179/179 178/178/178 177/177/177
f 179/179/179 180/180/180 178/178/178
f 183/183/183 182/182/182 181/181/181
f 183/183/183 184/184/184 182/182/182
f 187/187/187 186/186/186 185/185/185
f 187/187/187 188/188/188 186/186/186
f 191/191/191 190/190/190 189/189/189
f 191/191/191 192/192/192 190/190/190
f 195/195/195 194/194/194 193/193/193
f 195/195/195 196/196/196 194/194/194
