g default
v -0.55 0.2 -0.3
v -0.55 0 -0.3
v -0.55 0 -0.4
v -0.55 0.2 -0.4
v -0.45 0.2 -0.3
v -0.45 0.1 -0.1
v -0.45 0.1 -0.3
v -0.45 0.3 -0.1
v -0.45 0.3 -0.3
v -0.35 0.3 -0.1
v -0.35 0.2 0.1
v -0.35 0.2 -0.1
v -0.35 0.4 -0.1
v -0.35 0.3 -0.2
v -0.35 0.4 -0.2
v -0.35 0.5 0.1
v -0.35 0.5 -0.1
v -0.25 0.5 0.1
v -0.25 0.3 0.2
v -0.25 0.3 0.1
v -0.25 0.6 0.2
v -0.25 0.5 -0.1
v -0.25 0.6 -0.1
v -0.15 0.6 0.2
v -0.15 0.4 0.4
v -0.15 0.4 0.2
v -0.15 0.8 0.4
v -0.15 0.8 0.2
v -0.15 0.8 0.2
v -0.15 0.6 0.2
v -0.15 0.6 0
v -0.15 0.8 0.1
v -0.15 0.8 0
v -0.15 0.9 0.2
v -0.15 0.9 0.1
v -0.05 1 0.2
v -0.05 0.9 0.2
v -0.05 0.9 0.1
v -0.05 1 0.1
v 0.05 0.3 0.1
v 0.05 0.2 0.1
v 0.05 0.2 -0.1
v 0.05 0.3 0
v 0.05 0.6 0
v 0.05 0.6 -0.1
v 0.15 0.2 -0.1
v 0.15 0.1 -0.1
v 0.15 0.1 -0.2
v 0.15 0.3 -0.1
v 0.15 0.3 -0.2
v 0.25 0.3 -0.2
v 0.25 0.1 -0.2
v 0.25 0.1 -0.3
v 0.25 0.3 -0.3
v 0.25 0.4 -0.1
v 0.25 0.3 -0.1
v 0.25 0.4 -0.2
v 0.35 0.2 -0.3
v 0.35 0.1 -0.3
v 0.35 0.1 -0.4
v 0.35 0.2 -0.4
v 0.45 0.1 -0.3
v 0.45 0 -0.3
v 0.45 0 -0.4
v 0.45 0.1 -0.4
v -0.45 0 -0.3
v -0.45 0.1 -0.3
v -0.45 0 -0.4
v -0.45 0.1 -0.4
v -0.35 0.1 -0.3
v -0.35 0.2 -0.3
v -0.35 0.1 -0.4
v -0.35 0.2 -0.4
v -0.25 0.1 -0.2
v -0.25 0.3 -0.2
v -0.25 0.1 -0.3
v -0.25 0.3 -0.3
v -0.25 0.3 -0.1
v -0.25 0.4 -0.1
v -0.25 0.4 -0.2
v -0.15 0.1 -0.1
v -0.15 0.2 -0.1
v -0.15 0.1 -0.2
v -0.15 0.3 -0.1
v -0.15 0.3 -0.2
v -0.05 0.2 0.1
v -0.05 0.3 0.1
v -0.05 0.2 -0.1
v -0.05 0.3 0
v -0.05 0.6 0
v -0.05 0.6 -0.1
v 0.05 0.9 0.2
v 0.05 1 0.2
v 0.05 0.9 0.1
v 0.05 1 0.1
v 0.15 0.4 0.4
v 0.15 0.6 0.2
v 0.15 0.4 0.2
v 0.15 0.8 0.4
v 0.15 0.8 0.2
v 0.15 0.6 0.2
v 0.15 0.8 0.2
v 0.15 0.6 0
v 0.15 0.8 0.1
v 0.15 0.8 0
v 0.15 0.9 0.2
v 0.15 0.9 0.1
v 0.25 0.3 0.2
v 0.25 0.5 0.1
v 0.25 0.3 0.1
v 0.25 0.6 0.2
v 0.25 0.5 -0.1
v 0.25 0.6 -0.1
v 0.35 0.2 0.1
v 0.35 0.3 -0.1
v 0.35 0.2 -0.1
v 0.35 0.4 -0.1
v 0.35 0.3 -0.2
v 0.35 0.4 -0.2
v 0.35 0.5 0.1
v 0.35 0.5 -0.1
v 0.45 0.1 -0.1
v 0.45 0.2 -0.3
v 0.45 0.1 -0.3
v 0.45 0.3 -0.1
v 0.45 0.3 -0.3
v 0.55 0 -0.3
v 0.55 0.2 -0.3
v 0.55 0 -0.4
v 0.55 0.2 -0.4
v 0.15 0.4 0.4
v -0.15 0.4 0.4
v -0.15 0.8 0.4
v 0.15 0.8 0.4
v -0.15 0.4 0.2
v -0.25 0.3 0.2
v -0.25 0.6 0.2
v -0.15 0.6 0.2
v 0.15 0.4 0.2
v 0.25 0.3 0.2
v 0.15 0.6 0.2
v 0.25 0.6 0.2
v -0.05 0.9 0.2
v -0.15 0.8 0.2
v -0.15 0.9 0.2
v 0.05 0.9 0.2
v -0.05 1 0.2
v 0.05 1 0.2
v 0.15 0.8 0.2
v 0.15 0.9 0.2
v -0.25 0.3 0.1
v -0.35 0.2 0.1
v -0.35 0.5 0.1
v -0.25 0.5 0.1
v -0.05 0.2 0.1
v -0.05 0.3 0.1
v 0.25 0.3 0.1
v 0.05 0.2 0.1
v 0.05 0.3 0.1
v 0.35 0.2 0.1
v 0.25 0.5 0.1
v 0.35 0.5 0.1
v -0.35 0.2 -0.1
v -0.45 0.1 -0.1
v -0.45 0.3 -0.1
v -0.35 0.3 -0.1
v -0.15 0.1 -0.1
v -0.15 0.2 -0.1
v 0.35 0.2 -0.1
v 0.15 0.1 -0.1
v 0.15 0.2 -0.1
v 0.45 0.1 -0.1
v 0.35 0.3 -0.1
v 0.45 0.3 -0.1
v -0.45 0 -0.3
v -0.55 0 -0.3
v -0.55 0.2 -0.3
v -0.45 0.1 -0.3
v -0.45 0.2 -0.3
v 0.55 0 -0.3
v 0.45 0 -0.3
v 0.45 0.1 -0.3
v 0.45 0.2 -0.3
v 0.55 0.2 -0.3
v -0.15 0.8 0.1
v -0.05 0.9 0.1
v -0.15 0.9 0.1
v 0.05 0.9 0.1
v -0.05 1 0.1
v 0.05 1 0.1
v 0.15 0.8 0.1
v 0.15 0.9 0.1
v -0.15 0.6 0
v -0.05 0.6 0
v -0.15 0.8 0
v 0.05 0.6 0
v 0.05 0.3 0
v -0.05 0.3 0
v 0.15 0.6 0
v 0.15 0.8 0
v -0.35 0.4 -0.1
v -0.25 0.4 -0.1
v -0.35 0.5 -0.1
v -0.25 0.5 -0.1
v -0.15 0.3 -0.1
v -0.25 0.3 -0.1
v -0.25 0.6 -0.1
v -0.05 0.6 -0.1
v -0.05 0.2 -0.1
v -0.15 0.2 -0.1
v 0.05 0.2 -0.1
v 0.15 0.2 -0.1
v 0.05 0.6 -0.1
v 0.15 0.3 -0.1
v 0.25 0.3 -0.1
v 0.25 0.4 -0.1
v 0.25 0.5 -0.1
v 0.25 0.6 -0.1
v 0.35 0.4 -0.1
v 0.35 0.5 -0.1
v -0.35 0.3 -0.2
v -0.25 0.3 -0.2
v -0.35 0.4 -0.2
v -0.25 0.4 -0.2
v -0.25 0.1 -0.2
v -0.15 0.1 -0.2
v -0.15 0.3 -0.2
v 0.15 0.1 -0.2
v 0.25 0.1 -0.2
v 0.15 0.3 -0.2
v 0.25 0.3 -0.2
v 0.35 0.3 -0.2
v 0.25 0.4 -0.2
v 0.35 0.4 -0.2
v -0.45 0.2 -0.3
v -0.35 0.2 -0.3
v -0.45 0.3 -0.3
v -0.25 0.3 -0.3
v -0.25 0.1 -0.3
v -0.35 0.1 -0.3
v 0.25 0.1 -0.3
v 0.35 0.1 -0.3
v 0.25 0.3 -0.3
v 0.35 0.2 -0.3
v 0.45 0.2 -0.3
v 0.45 0.3 -0.3
v -0.55 0 -0.4
v -0.45 0 -0.4
v -0.55 0.2 -0.4
v -0.45 0.1 -0.4
v -0.35 0.1 -0.4
v -0.35 0.2 -0.4
v 0.35 0.1 -0.4
v 0.45 0.1 -0.4
v 0.35 0.2 -0.4
v 0.55 0.2 -0.4
v 0.55 0 -0.4
v 0.45 0 -0.4
v -0.55 0 -0.4
v -0.55 0 -0.3
v -0.45 0 -0.3
v -0.45 0 -0.4
v 0.45 0 -0.4
v 0.45 0 -0.3
v 0.55 0 -0.3
v 0.55 0 -0.4
v -0.25 0.1 -0.2
v -0.45 0.1 -0.1
v -0.15 0.1 -0.1
v -0.15 0.1 -0.2
v -0.45 0.1 -0.3
v -0.35 0.1 -0.3
v -0.25 0.1 -0.3
v -0.45 0.1 -0.4
v -0.35 0.1 -0.4
v 0.15 0.1 -0.2
v 0.15 0.1 -0.1
v 0.45 0.1 -0.1
v 0.25 0.1 -0.2
v 0.25 0.1 -0.3
v 0.35 0.1 -0.3
v 0.45 0.1 -0.3
v 0.35 0.1 -0.4
v 0.45 0.1 -0.4
v -0.35 0.2 -0.1
v -0.35 0.2 0.1
v -0.05 0.2 0.1
v -0.15 0.2 -0.1
v -0.05 0.2 -0.1
v 0.05 0.2 -0.1
v 0.05 0.2 0.1
v 0.35 0.2 0.1
v 0.15 0.2 -0.1
v 0.35 0.2 -0.1
v -0.25 0.3 0.1
v -0.25 0.3 0.2
v 0.25 0.3 0.2
v -0.05 0.3 0.1
v 0.05 0.3 0.1
v 0.25 0.3 0.1
v -0.05 0.3 0
v 0.05 0.3 0
v -0.15 0.4 0.2
v -0.15 0.4 0.4
v 0.15 0.4 0.4
v 0.15 0.4 0.2
v -0.55 0.2 -0.3
v -0.55 0.2 -0.4
v -0.45 0.2 -0.3
v -0.35 0.2 -0.3
v -0.35 0.2 -0.4
v 0.45 0.2 -0.3
v 0.35 0.2 -0.4
v 0.55 0.2 -0.3
v 0.35 0.2 -0.3
v 0.55 0.2 -0.4
v -0.45 0.3 -0.1
v -0.35 0.3 -0.2
v -0.35 0.3 -0.1
v -0.45 0.3 -0.3
v -0.25 0.3 -0.2
v -0.25 0.3 -0.3
v -0.25 0.3 -0.1
v -0.15 0.3 -0.1
v -0.15 0.3 -0.2
v 0.15 0.3 -0.1
v 0.15 0.3 -0.2
v 0.25 0.3 -0.1
v 0.25 0.3 -0.2
v 0.25 0.3 -0.3
v 0.35 0.3 -0.2
v 0.45 0.3 -0.3
v 0.45 0.3 -0.1
v 0.35 0.3 -0.1
v -0.35 0.4 -0.1
v -0.35 0.4 -0.2
v -0.25 0.4 -0.1
v -0.25 0.4 -0.2
v 0.25 0.4 -0.1
v 0.25 0.4 -0.2
v 0.35 0.4 -0.1
v 0.35 0.4 -0.2
v -0.35 0.5 0.1
v -0.35 0.5 -0.1
v -0.25 0.5 0.1
v -0.25 0.5 -0.1
v 0.25 0.5 0.1
v 0.25 0.5 -0.1
v 0.35 0.5 0.1
v 0.35 0.5 -0.1
v -0.25 0.6 0.2
v -0.15 0.6 0
v -0.15 0.6 0.2
v -0.25 0.6 -0.1
v -0.05 0.6 0
v -0.05 0.6 -0.1
v 0.15 0.6 0.2
v 0.15 0.6 0
v 0.25 0.6 0.2
v 0.25 0.6 -0.1
v 0.05 0.6 -0.1
v 0.05 0.6 0
v -0.15 0.8 0.4
v -0.15 0.8 0.2
v 0.15 0.8 0.4
v 0.15 0.8 0.2
v -0.15 0.8 0.1
v -0.15 0.8 0
v 0.15 0.8 0.1
v 0.15 0.8 0
v -0.15 0.9 0.2
v -0.15 0.9 0.1
v -0.05 0.9 0.2
v -0.05 0.9 0.1
v 0.05 0.9 0.2
v 0.05 0.9 0.1
v 0.15 0.9 0.2
v 0.15 0.9 0.1
v -0.05 1 0.2
v -0.05 1 0.1
v 0.05 1 0.2
v 0.05 1 0.1
vt 0.306641 0.5
vt 0.306641 0.5
vt 0.306641 0.5
vt 0.306641 0.5
vt 0.306641 0.5
vt 0.306641 0.5
vt 0.306641 0.5
vt 0.306641 0.5
vt 0.306641 0.5
vt 0.306641 0.5
vt 0.306641 0.5
vt 0.306641 0.5
vt 0.306641 0.5
vt 0.306641 0.5
vt 0.306641 0.5
vt 0.306641 0.5
vt 0.306641 0.5
vt 0.306641 0.5
vt 0.306641 0.5
vt 0.306641 0.5
vt 0.306641 0.5
vt 0.306641 0.5
vt 0.306641 0.5
vt 0.373047 0.5
vt 0.373047 0.5
vt 0.373047 0.5
vt 0.373047 0.5
vt 0.373047 0.5
vt 0.306641 0.5
vt 0.306641 0.5
vt 0.306641 0.5
vt 0.306641 0.5
vt 0.306641 0.5
vt 0.306641 0.5
vt 0.306641 0.5
vt 0.306641 0.5
vt 0.306641 0.5
vt 0.306641 0.5
vt 0.306641 0.5
vt 0.306641 0.5
vt 0.306641 0.5
vt 0.306641 0.5
vt 0.306641 0.5
vt 0.306641 0.5
vt 0.306641 0.5
vt 0.306641 0.5
vt 0.306641 0.5
vt 0.306641 0.5
vt 0.306641 0.5
vt 0.306641 0.5
vt 0.306641 0.5
vt 0.306641 0.5
vt 0.306641 0.5
vt 0.306641 0.5
vt 0.306641 0.5
vt 0.306641 0.5
vt 0.306641 0.5
vt 0.306641 0.5
vt 0.306641 0.5
vt 0.306641 0.5
vt 0.306641 0.5
vt 0.306641 0.5
vt 0.306641 0.5
vt 0.306641 0.5
vt 0.306641 0.5
vt 0.306641 0.5
vt 0.306641 0.5
vt 0.306641 0.5
vt 0.306641 0.5
vt 0.306641 0.5
vt 0.306641 0.5
vt 0.306641 0.5
vt 0.306641 0.5
vt 0.306641 0.5
vt 0.306641 0.5
vt 0.306641 0.5
vt 0.306641 0.5
vt 0.306641 0.5
vt 0.306641 0.5
vt 0.306641 0.5
vt 0.306641 0.5
vt 0.306641 0.5
vt 0.306641 0.5
vt 0.306641 0.5
vt 0.306641 0.5
vt 0.306641 0.5
vt 0.306641 0.5
vt 0.306641 0.5
vt 0.306641 0.5
vt 0.306641 0.5
vt 0.306641 0.5
vt 0.306641 0.5
vt 0.306641 0.5
vt 0.306641 0.5
vt 0.306641 0.5
vt 0.373047 0.5
vt 0.373047 0.5
vt 0.373047 0.5
vt 0.373047 0.5
vt 0.373047 0.5
vt 0.306641 0.5
vt 0.306641 0.5
vt 0.306641 0.5
vt 0.306641 0.5
vt 0.306641 0.5
vt 0.306641 0.5
vt 0.306641 0.5
vt 0.306641 0.5
vt 0.306641 0.5
vt 0.306641 0.5
vt 0.306641 0.5
vt 0.306641 0.5
vt 0.306641 0.5
vt 0.306641 0.5
vt 0.306641 0.5
vt 0.306641 0.5
vt 0.306641 0.5
vt 0.306641 0.5
vt 0.306641 0.5
vt 0.306641 0.5
vt 0.306641 0.5
vt 0.306641 0.5
vt 0.306641 0.5
vt 0.306641 0.5
vt 0.306641 0.5
vt 0.306641 0.5
vt 0.306641 0.5
vt 0.306641 0.5
vt 0.306641 0.5
vt 0.306641 0.5
vt 0.373047 0.5
vt 0.373047 0.5
vt 0.373047 0.5
vt 0.373047 0.5
vt 0.306641 0.5
vt 0.306641 0.5
vt 0.306641 0.5
vt 0.306641 0.5
vt 0.306641 0.5
vt 0.306641 0.5
vt 0.306641 0.5
vt 0.306641 0.5
vt 0.306641 0.5
vt 0.306641 0.5
vt 0.306641 0.5
vt 0.306641 0.5
vt 0.306641 0.5
vt 0.306641 0.5
vt 0.306641 0.5
vt 0.306641 0.5
vt 0.306641 0.5
vt 0.306641 0.5
vt 0.306641 0.5
vt 0.306641 0.5
vt 0.306641 0.5
vt 0.306641 0.5
vt 0.306641 0.5
vt 0.306641 0.5
vt 0.306641 0.5
vt 0.306641 0.5
vt 0.306641 0.5
vt 0.306641 0.5
vt 0.306641 0.5
vt 0.306641 0.5
vt 0.306641 0.5
vt 0.306641 0.5
vt 0.306641 0.5
vt 0.306641 0.5
vt 0.306641 0.5
vt 0.306641 0.5
vt 0.306641 0.5
vt 0.306641 0.5
vt 0.306641 0.5
vt 0.306641 0.5
vt 0.306641 0.5
vt 0.306641 0.5
vt 0.306641 0.5
vt 0.306641 0.5
vt 0.306641 0.5
vt 0.306641 0.5
vt 0.306641 0.5
vt 0.306641 0.5
vt 0.306641 0.5
vt 0.306641 0.5
vt 0.306641 0.5
vt 0.306641 0.5
vt 0.306641 0.5
vt 0.306641 0.5
vt 0.306641 0.5
vt 0.306641 0.5
vt 0.306641 0.5
vt 0.306641 0.5
vt 0.306641 0.5
vt 0.306641 0.5
vt 0.306641 0.5
vt 0.306641 0.5
vt 0.306641 0.5
vt 0.306641 0.5
vt 0.306641 0.5
vt 0.306641 0.5
vt 0.306641 0.5
vt 0.306641 0.5
vt 0.306641 0.5
vt 0.306641 0.5
vt 0.306641 0.5
vt 0.306641 0.5
vt 0.306641 0.5
vt 0.306641 0.5
vt 0.306641 0.5
vt 0.306641 0.5
vt 0.306641 0.5
vt 0.306641 0.5
vt 0.306641 0.5
vt 0.306641 0.5
vt 0.306641 0.5
vt 0.306641 0.5
vt 0.306641 0.5
vt 0.306641 0.5
vt 0.306641 0.5
vt 0.306641 0.5
vt 0.306641 0.5
vt 0.306641 0.5
vt 0.306641 0.5
vt 0.306641 0.5
vt 0.306641 0.5
vt 0.306641 0.5
vt 0.306641 0.5
vt 0.306641 0.5
vt 0.306641 0.5
vt 0.306641 0.5
vt 0.306641 0.5
vt 0.306641 0.5
vt 0.306641 0.5
vt 0.306641 0.5
vt 0.306641 0.5
vt 0.306641 0.5
vt 0.306641 0.5
vt 0.306641 0.5
vt 0.306641 0.5
vt 0.306641 0.5
vt 0.306641 0.5
vt 0.306641 0.5
vt 0.306641 0.5
vt 0.306641 0.5
vt 0.306641 0.5
vt 0.306641 0.5
vt 0.306641 0.5
vt 0.306641 0.5
vt 0.306641 0.5
vt 0.306641 0.5
vt 0.306641 0.5
vt 0.306641 0.5
vt 0.306641 0.5
vt 0.306641 0.5
vt 0.306641 0.5
vt 0.306641 0.5
vt 0.306641 0.5
vt 0.306641 0.5
vt 0.306641 0.5
vt 0.306641 0.5
vt 0.306641 0.5
vt 0.306641 0.5
vt 0.306641 0.5
vt 0.306641 0.5
vt 0.306641 0.5
vt 0.306641 0.5
vt 0.306641 0.5
vt 0.306641 0.5
vt 0.306641 0.5
vt 0.306641 0.5
vt 0.306641 0.5
vt 0.306641 0.5
vt 0.306641 0.5
vt 0.306641 0.5
vt 0.306641 0.5
vt 0.306641 0.5
vt 0.306641 0.5
vt 0.306641 0.5
vt 0.306641 0.5
vt 0.306641 0.5
vt 0.306641 0.5
vt 0.306641 0.5
vt 0.306641 0.5
vt 0.306641 0.5
vt 0.306641 0.5
vt 0.306641 0.5
vt 0.306641 0.5
vt 0.306641 0.5
vt 0.306641 0.5
vt 0.306641 0.5
vt 0.306641 0.5
vt 0.306641 0.5
vt 0.306641 0.5
vt 0.306641 0.5
vt 0.306641 0.5
vt 0.306641 0.5
vt 0.306641 0.5
vt 0.306641 0.5
vt 0.306641 0.5
vt 0.306641 0.5
vt 0.306641 0.5
vt 0.306641 0.5
vt 0.373047 0.5
vt 0.373047 0.5
vt 0.373047 0.5
vt 0.373047 0.5
vt 0.306641 0.5
vt 0.306641 0.5
vt 0.306641 0.5
vt 0.306641 0.5
vt 0.306641 0.5
vt 0.306641 0.5
vt 0.306641 0.5
vt 0.306641 0.5
vt 0.306641 0.5
vt 0.306641 0.5
vt 0.306641 0.5
vt 0.306641 0.5
vt 0.306641 0.5
vt 0.306641 0.5
vt 0.306641 0.5
vt 0.306641 0.5
vt 0.306641 0.5
vt 0.306641 0.5
vt 0.306641 0.5
vt 0.306641 0.5
vt 0.306641 0.5
vt 0.306641 0.5
vt 0.306641 0.5
vt 0.306641 0.5
vt 0.306641 0.5
vt 0.306641 0.5
vt 0.306641 0.5
vt 0.306641 0.5
vt 0.306641 0.5
vt 0.306641 0.5
vt 0.306641 0.5
vt 0.306641 0.5
vt 0.306641 0.5
vt 0.306641 0.5
vt 0.306641 0.5
vt 0.306641 0.5
vt 0.306641 0.5
vt 0.306641 0.5
vt 0.306641 0.5
vt 0.306641 0.5
vt 0.306641 0.5
vt 0.306641 0.5
vt 0.306641 0.5
vt 0.306641 0.5
vt 0.306641 0.5
vt 0.306641 0.5
vt 0.306641 0.5
vt 0.306641 0.5
vt 0.306641 0.5
vt 0.306641 0.5
vt 0.306641 0.5
vt 0.306641 0.5
vt 0.306641 0.5
vt 0.306641 0.5
vt 0.306641 0.5
vt 0.306641 0.5
vt 0.373047 0.5
vt 0.373047 0.5
vt 0.373047 0.5
vt 0.373047 0.5
vt 0.306641 0.5
vt 0.306641 0.5
vt 0.306641 0.5
vt 0.306641 0.5
vt 0.306641 0.5
vt 0.306641 0.5
vt 0.306641 0.5
vt 0.306641 0.5
vt 0.306641 0.5
vt 0.306641 0.5
vt 0.306641 0.5
vt 0.306641 0.5
vt 0.306641 0.5
vt 0.306641 0.5
vt 0.306641 0.5
vt 0.306641 0.5
vn -1 0 0
vn -1 0 0
vn -1 0 0
vn -1 0 0
vn -1 0 0
vn -1 0 0
vn -1 0 0
vn -1 0 0
vn -1 0 0
vn -1 0 0
vn -1 0 0
vn -1 0 0
vn -1 0 0
vn -1 0 0
vn -1 0 0
vn -1 0 0
vn -1 0 0
vn -1 0 0
vn -1 0 0
vn -1 0 0
vn -1 0 0
vn -1 0 0
vn -1 0 0
vn -1 0 0
vn -1 0 0
vn -1 0 0
vn -1 0 0
vn -1 0 0
vn -1 0 0
vn -1 0 0
vn -1 0 0
vn -1 0 0
vn -1 0 0
vn -1 0 0
vn -1 0 0
vn -1 0 0
vn -1 0 0
vn -1 0 0
vn -1 0 0
vn -1 0 0
vn -1 0 0
vn -1 0 0
vn -1 0 0
vn -1 0 0
vn -1 0 0
vn -1 0 0
vn -1 0 0
vn -1 0 0
vn -1 0 0
vn -1 0 0
vn -1 0 0
vn -1 0 0
vn -1 0 0
vn -1 0 0
vn -1 0 0
vn -1 0 0
vn -1 0 0
vn -1 0 0
vn -1 0 0
vn -1 0 0
vn -1 0 0
vn -1 0 0
vn -1 0 0
vn -1 0 0
vn -1 0 0
vn 1 0 0
vn 1 0 0
vn 1 0 0
vn 1 0 0
vn 1 0 0
vn 1 0 0
vn 1 0 0
vn 1 0 0
vn 1 0 0
vn 1 0 0
vn 1 0 0
vn 1 0 0
vn 1 0 0
vn 1 0 0
vn 1 0 0
vn 1 0 0
vn 1 0 0
vn 1 0 0
vn 1 0 0
vn 1 0 0
vn 1 0 0
vn 1 0 0
vn 1 0 0
vn 1 0 0
vn 1 0 0
vn 1 0 0
vn 1 0 0
vn 1 0 0
vn 1 0 0
vn 1 0 0
vn 1 0 0
vn 1 0 0
vn 1 0 0
vn 1 0 0
vn 1 0 0
vn 1 0 0
vn 1 0 0
vn 1 0 0
vn 1 0 0
vn 1 0 0
vn 1 0 0
vn 1 0 0
vn 1 0 0
vn 1 0 0
vn 1 0 0
vn 1 0 0
vn 1 0 0
vn 1 0 0
vn 1 0 0
vn 1 0 0
vn 1 0 0
vn 1 0 0
vn 1 0 0
vn 1 0 0
vn 1 0 0
vn 1 0 0
vn 1 0 0
vn 1 0 0
vn 1 0 0
vn 1 0 0
vn 1 0 0
vn 1 0 0
vn 1 0 0
vn 1 0 0
vn 1 0 0
vn 0 0 1
vn 0 0 1
vn 0 0 1
vn 0 0 1
vn 0 0 1
vn 0 0 1
vn 0 0 1
vn 0 0 1
vn 0 0 1
vn 0 0 1
vn 0 0 1
vn 0 0 1
vn 0 0 1
vn 0 0 1
vn 0 0 1
vn 0 0 1
vn 0 0 1
vn 0 0 1
vn 0 0 1
vn 0 0 1
vn 0 0 1
vn 0 0 1
vn 0 0 1
vn 0 0 1
vn 0 0 1
vn 0 0 1
vn 0 0 1
vn 0 0 1
vn 0 0 1
vn 0 0 1
vn 0 0 1
vn 0 0 1
vn 0 0 1
vn 0 0 1
vn 0 0 1
vn 0 0 1
vn 0 0 1
vn 0 0 1
vn 0 0 1
vn 0 0 1
vn 0 0 1
vn 0 0 1
vn 0 0 1
vn 0 0 1
vn 0 0 1
vn 0 0 1
vn 0 0 1
vn 0 0 1
vn 0 0 1
vn 0 0 1
vn 0 0 1
vn 0 0 1
vn 0 0 1
vn 0 0 1
vn 0 0 -1
vn 0 0 -1
vn 0 0 -1
vn 0 0 -1
vn 0 0 -1
vn 0 0 -1
vn 0 0 -1
vn 0 0 -1
vn 0 0 -1
vn 0 0 -1
vn 0 0 -1
vn 0 0 -1
vn 0 0 -1
vn 0 0 -1
vn 0 0 -1
vn 0 0 -1
vn 0 0 -1
vn 0 0 -1
vn 0 0 -1
vn 0 0 -1
vn 0 0 -1
vn 0 0 -1
vn 0 0 -1
vn 0 0 -1
vn 0 0 -1
vn 0 0 -1
vn 0 0 -1
vn 0 0 -1
vn 0 0 -1
vn 0 0 -1
vn 0 0 -1
vn 0 0 -1
vn 0 0 -1
vn 0 0 -1
vn 0 0 -1
vn 0 0 -1
vn 0 0 -1
vn 0 0 -1
vn 0 0 -1
vn 0 0 -1
vn 0 0 -1
vn 0 0 -1
vn 0 0 -1
vn 0 0 -1
vn 0 0 -1
vn 0 0 -1
vn 0 0 -1
vn 0 0 -1
vn 0 0 -1
vn 0 0 -1
vn 0 0 -1
vn 0 0 -1
vn 0 0 -1
vn 0 0 -1
vn 0 0 -1
vn 0 0 -1
vn 0 0 -1
vn 0 0 -1
vn 0 0 -1
vn 0 0 -1
vn 0 0 -1
vn 0 0 -1
vn 0 0 -1
vn 0 0 -1
vn 0 0 -1
vn 0 0 -1
vn 0 0 -1
vn 0 0 -1
vn 0 0 -1
vn 0 0 -1
vn 0 0 -1
vn 0 0 -1
vn 0 0 -1
vn 0 0 -1
vn 0 -1 0
vn 0 -1 0
vn 0 -1 0
vn 0 -1 0
vn 0 -1 0
vn 0 -1 0
vn 0 -1 0
vn 0 -1 0
vn 0 -1 0
vn 0 -1 0
vn 0 -1 0
vn 0 -1 0
vn 0 -1 0
vn 0 -1 0
vn 0 -1 0
vn 0 -1 0
vn 0 -1 0
vn 0 -1 0
vn 0 -1 0
vn 0 -1 0
vn 0 -1 0
vn 0 -1 0
vn 0 -1 0
vn 0 -1 0
vn 0 -1 0
vn 0 -1 0
vn 0 -1 0
vn 0 -1 0
vn 0 -1 0
vn 0 -1 0
vn 0 -1 0
vn 0 -1 0
vn 0 -1 0
vn 0 -1 0
vn 0 -1 0
vn 0 -1 0
vn 0 -1 0
vn 0 -1 0
vn 0 -1 0
vn 0 -1 0
vn 0 -1 0
vn 0 -1 0
vn 0 -1 0
vn 0 -1 0
vn 0 -1 0
vn 0 -1 0
vn 0 -1 0
vn 0 -1 0
vn 0 1 0
vn 0 1 0
vn 0 1 0
vn 0 1 0
vn 0 1 0
vn 0 1 0
vn 0 1 0
vn 0 1 0
vn 0 1 0
vn 0 1 0
vn 0 1 0
vn 0 1 0
vn 0 1 0
vn 0 1 0
vn 0 1 0
vn 0 1 0
vn 0 1 0
vn 0 1 0
vn 0 1 0
vn 0 1 0
vn 0 1 0
vn 0 1 0
vn 0 1 0
vn 0 1 0
vn 0 1 0
vn 0 1 0
vn 0 1 0
vn 0 1 0
vn 0 1 0
vn 0 1 0
vn 0 1 0
vn 0 1 0
vn 0 1 0
vn 0 1 0
vn 0 1 0
vn 0 1 0
vn 0 1 0
vn 0 1 0
vn 0 1 0
vn 0 1 0
vn 0 1 0
vn 0 1 0
vn 0 1 0
vn 0 1 0
vn 0 1 0
vn 0 1 0
vn 0 1 0
vn 0 1 0
vn 0 1 0
vn 0 1 0
vn 0 1 0
vn 0 1 0
vn 0 1 0
vn 0 1 0
vn 0 1 0
vn 0 1 0
vn 0 1 0
vn 0 1 0
vn 0 1 0
vn 0 1 0
vn 0 1 0
vn 0 1 0
vn 0 1 0
vn 0 1 0
vn 0 1 0
vn 0 1 0
vn 0 1 0
vn 0 1 0
vn 0 1 0
vn 0 1 0
vn 0 1 0
vn 0 1 0
vn 0 1 0
vn 0 1 0
vn 0 1 0
vn 0 1 0
g default_0
f 3/3/3 2/2/2 1/1/1
f 3/3/3 1/1/1 4/4/4
f 7/7/7 6/6/6 5/5/5
f 5/5/5 6/6/6 8/8/8
f 5/5/5 8/8/8 9/9/9
f 12/12/12 11/11/11 10/10/10
f 10/10/10 11/11/11 13/13/13
f 14/14/14 10/10/10 13/13/13
f 14/14/14 13/13/13 15/15/15
f 13/13/13 11/11/11 16/16/16
f 13/13/13 16/16/16 17/17/17
f 20/20/20 19/19/19 18/18/18
f 18/18/18 19/19/19 21/21/21
f 22/22/22 18/18/18 21/21/21
f 22/22/22 21/21/21 23/23/23
f 26/26/26 25/25/25 24/24/24
f 24/24/24 25/25/25 27/27/27
f 24/24/24 27/27/27 28/28/28
f 31/31/31 30/30/30 29/29/29
f 31/31/31 29/29/29 32/32/32
f 31/31/31 32/32/32 33/33/33
f 32/32/32 29/29/29 34/34/34
f 32/32/32 34/34/34 35/35/35
f 38/38/38 37/37/37 36/36/36
f 38/38/38 36/36/36 39/39/39
f 42/42/42 41/41/41 40/40/40
f 42/42/42 40/40/40 43/43/43
f 42/42/42 43/43/43 44/44/44
f 42/42/42 44/44/44 45/45/45
f 48/48/48 47/47/47 46/46/46
f 48/48/48 46/46/46 49/49/49
f 48/48/48 49/49/49 50/50/50
f 53/53/53 52/52/52 51/51/51
f 53/53/53 51/51/51 54/54/54
f 51/51/51 56/56/56 55/55/55
f 51/51/51 55/55/55 57/57/57
f 60/60/60 59/59/59 58/58/58
f 60/60/60 58/58/58 61/61/61
f 64/64/64 63/63/63 62/62/62
f 64/64/64 62/62/62 65/65/65
f 68/68/68 67/67/67 66/66/66
f 68/68/68 69/69/69 67/67/67
f 72/72/72 71/71/71 70/70/70
f 72/72/72 73/73/73 71/71/71
f 76/76/76 75/75/75 74/74/74
f 76/76/76 77/77/77 75/75/75
f 75/75/75 79/79/79 78/78/78
f 75/75/75 80/80/80 79/79/79
f 83/83/83 82/82/82 81/81/81
f 83/83/83 84/84/84 82/82/82
f 83/83/83 85/85/85 84/84/84
f 88/88/88 87/87/87 86/86/86
f 88/88/88 89/89/89 87/87/87
f 88/88/88 90/90/90 89/89/89
f 88/88/88 91/91/91 90/90/90
f 94/94/94 93/93/93 92/92/92
f 94/94/94 95/95/95 93/93/93
f 98/98/98 97/97/97 96/96/96
f 97/97/97 99/99/99 96/96/96
f 97/97/97 100/100/100 99/99/99
f 103/103/103 102/102/102 101/101/101
f 103/103/103 104/104/104 102/102/102
f 103/103/103 105/105/105 104/104/104
f 104/104/104 106/106/106 102/102/102
f 104/104/104 107/107/107 106/106/106
f 110/110/110 109/109/109 108/108/108
f 109/109/109 111/111/111 108/108/108
f 112/112/112 111/111/111 109/109/109
f 112/112/112 113/113/113 111/111/111
f 116/116/116 115/115/115 114/114/114
f 115/115/115 117/117/117 114/114/114
f 118/118/118 117/117/117 115/115/115
f 118/118/118 119/119/119 117/117/117
f 117/117/117 120/120/120 114/114/114
f 117/117/117 121/121/121 120/120/120
f 124/124/124 123/123/123 122/122/122
f 123/123/123 125/125/125 122/122/122
f 123/123/123 126/126/126 125/125/125
f 129/129/129 128/128/128 127/127/127
f 129/129/129 130/130/130 128/128/128
f 133/133/133 132/132/132 131/131/131
f 133/133/133 131/131/131 134/134/134
f 137/137/137 136/136/136 135/135/135
f 137/137/137 135/135/135 138/138/138
f 135/135/135 136/136/136 139/139/139
f 139/139/139 136/136/136 140/140/140
f 141/141/141 139/139/139 140/140/140
f 141/141/141 140/140/140 142/142/142
f 145/145/145 144/144/144 143/143/143
f 143/143/143 144/144/144 146/146/146
f 147/147/147 143/143/143 146/146/146
f 147/147/147 146/146/146 148/148/148
f 146/146/146 144/144/144 149/149/149
f 146/146/146 149/149/149 150/150/150
f 153/153/153 152/152/152 151/151/151
f 153/153/153 151/151/151 154/154/154
f 151/151/151 152/152/152 155/155/155
f 151/151/151 155/155/155 156/156/156
f 159/159/159 158/158/158 157/157/157
f 157/157/157 158/158/158 160/160/160
f 161/161/161 157/157/157 160/160/160
f 161/161/161 160/160/160 162/162/162
f 165/165/165 164/164/164 163/163/163
f 165/165/165 163/163/163 166/166/166
f 163/163/163 164/164/164 167/167/167
f 163/163/163 167/167/167 168/168/168
f 171/171/171 170/170/170 169/169/169
f 169/169/169 170/170/170 172/172/172
f 173/173/173 169/169/169 172/172/172
f 173/173/173 172/172/172 174/174/174
f 177/177/177 176/176/176 175/175/175
f 177/177/177 175/175/175 178/178/178
f 177/177/177 178/178/178 179/179/179
f 182/182/182 181/181/181 180/180/180
f 183/183/183 182/182/182 180/180/180
f 183/183/183 180/180/180 184/184/184
f 187/187/187 186/186/186 185/185/185
f 186/186/186 188/188/188 185/185/185
f 189/189/189 188/188/188 186/186/186
f 189/189/189 190/190/190 188/188/188
f 188/188/188 191/191/191 185/185/185
f 188/188/188 192/192/192 191/191/191
f 195/195/195 194/194/194 193/193/193
f 195/195/195 196/196/196 194/194/194
f 194/194/194 196/196/196 197/197/197
f 194/194/194 197/197/197 198/198/198
f 195/195/195 199/199/199 196/196/196
f 195/195/195 200/200/200 199/199/199
f 203/203/203 202/202/202 201/201/201
f 203/203/203 204/204/204 202/202/202
f 204/204/204 205/205/205 202/202/202
f 202/202/202 205/205/205 206/206/206
f 207/207/207 205/205/205 204/204/204
f 207/207/207 208/208/208 205/205/205
f 205/205/205 208/208/208 209/209/209
f 205/205/205 209/209/209 210/210/210
f 213/213/213 212/212/212 211/211/211
f 213/213/213 214/214/214 212/212/212
f 213/213/213 215/215/215 214/214/214
f 213/213/213 216/216/216 215/215/215
f 213/213/213 217/217/217 216/216/216
f 213/213/213 218/218/218 217/217/217
f 217/217/217 219/219/219 216/216/216
f 217/217/217 220/220/220 219/219/219
f 223/223/223 222/222/222 221/221/221
f 223/223/223 224/224/224 222/222/222
f 222/222/222 226/226/226 225/225/225
f 222/222/222 227/227/227 226/226/226
f 230/230/230 229/229/229 228/228/228
f 230/230/230 231/231/231 229/229/229
f 233/233/233 232/232/232 231/231/231
f 233/233/233 234/234/234 232/232/232
f 237/237/237 236/236/236 235/235/235
f 237/237/237 238/238/238 236/236/236
f 236/236/236 238/238/238 239/239/239
f 236/236/236 239/239/239 240/240/240
f 243/243/243 242/242/242 241/241/241
f 243/243/243 244/244/244 242/242/242
f 243/243/243 245/245/245 244/244/244
f 243/243/243 246/246/246 245/245/245
f 249/249/249 248/248/248 247/247/247
f 249/249/249 250/250/250 248/248/248
f 249/249/249 251/251/251 250/250/250
f 249/249/249 252/252/252 251/251/251
f 255/255/255 254/254/254 253/253/253
f 255/255/255 256/256/256 254/254/254
f 254/254/254 256/256/256 257/257/257
f 254/254/254 257/257/257 258/258/258
f 261/261/261 260/260/260 259/259/259
f 261/261/261 259/259/259 262/262/262
f 265/265/265 264/264/264 263/263/263
f 265/265/265 263/263/263 266/266/266
f 269/269/269 268/268/268 267/267/267
f 269/269/269 267/267/267 270/270/270
f 267/267/267 268/268/268 271/271/271
f 267/267/267 271/271/271 272/272/272
f 267/267/267 272/272/272 273/273/273
f 272/272/272 271/271/271 274/274/274
f 272/272/272 274/274/274 275/275/275
f 278/278/278 277/277/277 276/276/276
f 278/278/278 276/276/276 279/279/279
f 278/278/278 279/279/279 280/280/280
f 278/278/278 280/280/280 281/281/281
f 278/278/278 281/281/281 282/282/282
f 282/282/282 281/281/281 283/283/283
f 282/282/282 283/283/283 284/284/284
f 287/287/287 286/286/286 285/285/285
f 287/287/287 285/285/285 288/288/288
f 287/287/287 288/288/288 289/289/289
f 292/292/292 291/291/291 290/290/290
f 292/292/292 290/290/290 293/293/293
f 292/292/292 293/293/293 294/294/294
f 297/297/297 296/296/296 295/295/295
f 297/297/297 295/295/295 298/298/298
f 297/297/297 298/298/298 299/299/299
f 297/297/297 299/299/299 300/300/300
f 299/299/299 298/298/298 301/301/301
f 299/299/299 301/301/301 302/302/302
f 305/305/305 304/304/304 303/303/303
f 305/305/305 303/303/303 306/306/306
f 309/309/309 308/308/308 307/307/307
f 310/310/310 308/308/308 309/309/309
f 310/310/310 311/311/311 308/308/308
f 314/314/314 313/313/313 312/312/312
f 312/312/312 313/313/313 315/315/315
f 314/314/314 316/316/316 313/313/313
f 319/319/319 318/318/318 317/317/317
f 318/318/318 320/320/320 317/317/317
f 321/321/321 320/320/320 318/318/318
f 321/321/321 322/322/322 320/320/320
f 324/324/324 321/321/321 323/323/323
f 324/324/324 325/325/325 321/321/321
f 328/328/328 327/327/327 326/326/326
f 328/328/328 329/329/329 327/327/327
f 331/331/331 330/330/330 329/329/329
f 331/331/331 332/332/332 330/330/330
f 333/333/333 332/332/332 331/331/331
f 333/333/333 331/331/331 334/334/334
f 337/337/337 336/336/336 335/335/335
f 337/337/337 338/338/338 336/336/336
f 341/341/341 340/340/340 339/339/339
f 341/341/341 342/342/342 340/340/340
f 345/345/345 344/344/344 343/343/343
f 345/345/345 346/346/346 344/344/344
f 349/349/349 348/348/348 347/347/347
f 349/349/349 350/350/350 348/348/348
f 353/353/353 352/352/352 351/351/351
f 352/352/352 354/354/354 351/351/351
f 355/355/355 354/354/354 352/352/352
f 355/355/355 356/356/356 354/354/354
f 359/359/359 358/358/358 357/357/357
f 359/359/359 360/360/360 358/358/358
f 358/358/358 360/360/360 361/361/361
f 358/358/358 361/361/361 362/362/362
f 365/365/365 364/364/364 363/363/363
f 365/365/365 366/366/366 364/364/364
f 369/369/369 368/368/368 367/367/367
f 369/369/369 370/370/370 368/368/368
f 373/373/373 372/372/372 371/371/371
f 373/373/373 374/374/374 372/372/372
f 377/377/377 376/376/376 375/375/375
f 377/377/377 378/378/378 376/376/376
f 381/381/381 380/380/380 379/379/379
f 381/381/381 382/382/382 380/380/380
