g default
v -0.4 0.5 0.3
v -0.4 0 0.3
v -0.4 0 -0.3
v -0.4 0.5 0.2
v -0.4 0.5 -0.2
v -0.4 0.5 -0.3
v -0.4 0.6 0.2
v -0.4 0.6 -0.2
v -0.3 0.5 0.4
v -0.3 0 0.4
v -0.3 0 0.3
v -0.3 0.5 0.3
v -0.3 0.6 0.3
v -0.3 0.5 0.2
v -0.3 0.6 0.2
v -0.3 0.7 0.2
v -0.3 0.6 -0.2
v -0.3 0.7 -0.2
v -0.3 0.5 -0.2
v -0.3 0.5 -0.3
v -0.3 0.6 -0.3
v -0.3 0 -0.3
v -0.3 0 -0.4
v -0.3 0.5 -0.4
v -0.2 0.6 0.4
v -0.2 0.5 0.4
v -0.2 0.5 0.3
v -0.2 0.6 0.3
v -0.2 0.7 0.3
v -0.2 0.6 0.2
v -0.2 0.7 0.2
v -0.2 0.6 -0.3
v -0.2 0.5 -0.3
v -0.2 0.5 -0.4
v -0.2 0.6 -0.4
v -0.2 0.7 -0.2
v -0.2 0.6 -0.2
v -0.2 0.7 -0.3
v -0.2 0.8 0.1
v -0.2 0.7 0.1
v -0.2 0.7 -0.1
v -0.2 0.8 -0.1
v -0.2 1 0.1
v -0.2 0.8 0.1
v -0.2 0.8 -0.1
v -0.2 1 -0.1
v -0.1 0.8 0.2
v -0.1 0.7 0.2
v -0.1 0.7 0.1
v -0.1 0.8 0.1
v -0.1 0.8 -0.1
v -0.1 0.7 -0.1
v -0.1 0.7 -0.2
v -0.1 0.8 -0.2
v -0.1 1 -0.1
v -0.1 0.9 -0.1
v -0.1 0.9 -0.2
v -0.1 1 -0.2
v 0 0.9 0.1
v 0 1 0.1
v 0 0.9 0
v 0 1 0
v 0.1 0.7 0.2
v 0.1 0.8 0.2
v 0.1 0.7 0.1
v 0.1 0.8 0.1
v 0.1 0.7 -0.1
v 0.1 0.8 -0.1
v 0.1 0.7 -0.2
v 0.1 0.8 -0.2
v 0.1 0.8 0.1
v 0.1 0.9 0.1
v 0.1 0.8 -0.1
v 0.1 0.9 0
v 0.1 0.9 -0.1
v 0.1 1 0
v 0.1 0.9 -0.2
v 0.1 1 -0.2
v 0.2 0.5 0.4
v 0.2 0.6 0.4
v 0.2 0.5 0.3
v 0.2 0.6 0.3
v 0.2 0.7 0.3
v 0.2 0.6 0.2
v 0.2 0.7 0.2
v 0.2 0.5 -0.3
v 0.2 0.6 -0.3
v 0.2 0.5 -0.4
v 0.2 0.6 -0.4
v 0.2 0.6 -0.2
v 0.2 0.7 -0.2
v 0.2 0.7 -0.3
v 0.2 0.7 0.1
v 0.2 0.8 0.1
v 0.2 0.7 -0.1
v 0.2 0.8 -0.1
v 0.3 0 0.4
v 0.3 0.5 0.4
v 0.3 0 0.3
v 0.3 0.5 0.3
v 0.3 0.6 0.3
v 0.3 0.5 0.2
v 0.3 0.6 0.2
v 0.3 0.7 0.2
v 0.3 0.6 -0.2
v 0.3 0.7 -0.2
v 0.3 0.5 -0.2
v 0.3 0.5 -0.3
v 0.3 0.6 -0.3
v 0.3 0 -0.3
v 0.3 0 -0.4
v 0.3 0.5 -0.4
v 0.4 0 0.3
v 0.4 0.5 0.3
v 0.4 0 -0.3
v 0.4 0.5 0.2
v 0.4 0.5 -0.2
v 0.4 0.5 -0.3
v 0.4 0.6 0.2
v 0.4 0.6 -0.2
v -0.2 0.5 0.4
v -0.3 0 0.4
v -0.3 0.5 0.4
v 0.2 0.5 0.4
v -0.2 0.6 0.4
v 0.2 0.6 0.4
v 0.3 0 0.4
v 0.3 0.5 0.4
v -0.3 0 0.3
v -0.4 0 0.3
v -0.4 0.5 0.3
v -0.3 0.5 0.3
v -0.2 0.5 0.3
v -0.3 0.6 0.3
v -0.2 0.6 0.3
v 0.2 0.6 0.3
v -0.2 0.7 0.3
v 0.2 0.7 0.3
v 0.3 0.5 0.3
v 0.2 0.5 0.3
v 0.3 0.6 0.3
v 0.4 0 0.3
v 0.3 0 0.3
v 0.4 0.5 0.3
v -0.3 0.5 0.2
v -0.4 0.5 0.2
v -0.4 0.6 0.2
v -0.3 0.6 0.2
v -0.2 0.6 0.2
v -0.3 0.7 0.2
v -0.2 0.7 0.2
v 0.1 0.7 0.2
v -0.1 0.7 0.2
v -0.1 0.8 0.2
v 0.1 0.8 0.2
v 0.3 0.6 0.2
v 0.2 0.6 0.2
v 0.2 0.7 0.2
v 0.3 0.7 0.2
v 0.4 0.5 0.2
v 0.3 0.5 0.2
v 0.4 0.6 0.2
v -0.1 0.7 0.1
v -0.2 0.7 0.1
v -0.2 0.8 0.1
v -0.1 0.8 0.1
v -0.1 0.8 0.1
v -0.2 0.8 0.1
v -0.2 1 0.1
v 0 0.9 0.1
v 0 1 0.1
v 0.1 0.8 0.1
v 0.1 0.9 0.1
v 0.2 0.7 0.1
v 0.1 0.7 0.1
v 0.1 0.8 0.1
v 0.2 0.8 0.1
v 0.1 0.9 0
v 0 0.9 0
v 0 1 0
v 0.1 1 0
v -0.2 0.7 -0.1
v -0.1 0.7 -0.1
v -0.2 0.8 -0.1
v -0.1 0.8 -0.1
v -0.2 0.8 -0.1
v -0.1 0.8 -0.1
v -0.2 1 -0.1
v -0.1 0.9 -0.1
v -0.1 1 -0.1
v 0.1 0.8 -0.1
v 0.1 0.9 -0.1
v 0.1 0.7 -0.1
v 0.2 0.7 -0.1
v 0.1 0.8 -0.1
v 0.2 0.8 -0.1
v -0.4 0.5 -0.2
v -0.3 0.5 -0.2
v -0.4 0.6 -0.2
v -0.3 0.6 -0.2
v -0.2 0.6 -0.2
v -0.3 0.7 -0.2
v -0.2 0.7 -0.2
v -0.1 0.7 -0.2
v 0.1 0.7 -0.2
v -0.1 0.8 -0.2
v 0.1 0.8 -0.2
v -0.1 0.9 -0.2
v 0.1 0.9 -0.2
v -0.1 1 -0.2
v 0.1 1 -0.2
v 0.2 0.6 -0.2
v 0.3 0.6 -0.2
v 0.2 0.7 -0.2
v 0.3 0.7 -0.2
v 0.3 0.5 -0.2
v 0.4 0.5 -0.2
v 0.4 0.6 -0.2
v -0.4 0 -0.3
v -0.3 0 -0.3
v -0.4 0.5 -0.3
v -0.3 0.5 -0.3
v -0.2 0.5 -0.3
v -0.3 0.6 -0.3
v -0.2 0.6 -0.3
v 0.2 0.6 -0.3
v -0.2 0.7 -0.3
v 0.2 0.7 -0.3
v 0.2 0.5 -0.3
v 0.3 0.5 -0.3
v 0.3 0.6 -0.3
v 0.3 0 -0.3
v 0.4 0 -0.3
v 0.4 0.5 -0.3
v -0.3 0 -0.4
v -0.2 0.5 -0.4
v -0.3 0.5 -0.4
v 0.2 0.5 -0.4
v -0.2 0.6 -0.4
v 0.2 0.6 -0.4
v 0.3 0 -0.4
v 0.3 0.5 -0.4
v -0.3 0 0.3
v -0.3 0 0.4
v 0.3 0 0.4
v 0.3 0 0.3
v -0.4 0 -0.3
v -0.4 0 0.3
v 0.4 0 0.3
v -0.3 0 -0.3
v 0.3 0 -0.3
v 0.4 0 -0.3
v -0.3 0 -0.4
v 0.3 0 -0.4
v -0.1 0.9 -0.2
v -0.1 0.9 -0.1
v 0.1 0.9 -0.1
v 0.1 0.9 -0.2
v -0.3 0.5 0.4
v -0.3 0.5 0.3
v -0.2 0.5 0.4
v -0.2 0.5 0.3
v -0.4 0.5 0.3
v -0.4 0.5 0.2
v -0.3 0.5 0.2
v 0.2 0.5 0.4
v 0.2 0.5 0.3
v 0.3 0.5 0.4
v 0.3 0.5 0.3
v 0.3 0.5 0.2
v 0.4 0.5 0.3
v 0.4 0.5 0.2
v -0.4 0.5 -0.2
v -0.4 0.5 -0.3
v -0.3 0.5 -0.2
v -0.3 0.5 -0.3
v -0.3 0.5 -0.4
v -0.2 0.5 -0.3
v -0.2 0.5 -0.4
v 0.3 0.5 -0.2
v 0.3 0.5 -0.3
v 0.4 0.5 -0.2
v 0.4 0.5 -0.3
v 0.2 0.5 -0.3
v 0.2 0.5 -0.4
v 0.3 0.5 -0.4
v -0.2 0.6 0.4
v -0.2 0.6 0.3
v 0.2 0.6 0.4
v 0.2 0.6 0.3
v -0.3 0.6 0.3
v -0.3 0.6 0.2
v -0.2 0.6 0.2
v 0.2 0.6 0.2
v 0.3 0.6 0.3
v 0.3 0.6 0.2
v -0.4 0.6 0.2
v -0.4 0.6 -0.2
v -0.3 0.6 -0.2
v 0.3 0.6 -0.2
v 0.4 0.6 0.2
v 0.4 0.6 -0.2
v -0.3 0.6 -0.3
v -0.2 0.6 -0.2
v -0.2 0.6 -0.3
v 0.2 0.6 -0.2
v 0.2 0.6 -0.3
v 0.3 0.6 -0.3
v -0.2 0.6 -0.4
v 0.2 0.6 -0.4
v -0.2 0.7 0.3
v -0.2 0.7 0.2
v 0.2 0.7 0.3
v -0.1 0.7 0.2
v 0.1 0.7 0.2
v 0.2 0.7 0.2
v -0.2 0.7 0.1
v -0.3 0.7 0.2
v -0.1 0.7 0.1
v 0.1 0.7 0.1
v 0.3 0.7 0.2
v 0.2 0.7 0.1
v -0.2 0.7 -0.1
v 0.2 0.7 -0.1
v -0.3 0.7 -0.2
v -0.1 0.7 -0.1
v -0.2 0.7 -0.2
v -0.1 0.7 -0.2
v 0.2 0.7 -0.2
v 0.1 0.7 -0.2
v 0.1 0.7 -0.1
v 0.3 0.7 -0.2
v -0.2 0.7 -0.3
v 0.2 0.7 -0.3
v -0.1 0.8 0.2
v -0.1 0.8 0.1
v 0.1 0.8 0.2
v 0.1 0.8 0.1
v 0.1 0.8 -0.1
v 0.2 0.8 0.1
v 0.2 0.8 -0.1
v -0.1 0.8 -0.1
v -0.1 0.8 -0.2
v 0.1 0.8 -0.2
v 0 0.9 0.1
v 0 0.9 0
v 0.1 0.9 0.1
v 0.1 0.9 0
v -0.2 1 0.1
v 0 1 0
v 0 1 0.1
v -0.2 1 -0.1
v 0.1 1 0
v -0.1 1 -0.1
v -0.1 1 -0.2
v 0.1 1 -0.2
vt 0.201172 0.5
vt 0.201172 0.5
vt 0.201172 0.5
vt 0.201172 0.5
vt 0.201172 0.5
vt 0.201172 0.5
vt 0.201172 0.5
vt 0.201172 0.5
vt 0.201172 0.5
vt 0.201172 0.5
vt 0.201172 0.5
vt 0.201172 0.5
vt 0.201172 0.5
vt 0.201172 0.5
vt 0.201172 0.5
vt 0.201172 0.5
vt 0.201172 0.5
vt 0.201172 0.5
vt 0.201172 0.5
vt 0.201172 0.5
vt 0.201172 0.5
vt 0.201172 0.5
vt 0.201172 0.5
vt 0.201172 0.5
vt 0.201172 0.5
vt 0.201172 0.5
vt 0.201172 0.5
vt 0.201172 0.5
vt 0.201172 0.5
vt 0.201172 0.5
vt 0.201172 0.5
vt 0.201172 0.5
vt 0.201172 0.5
vt 0.201172 0.5
vt 0.201172 0.5
vt 0.201172 0.5
vt 0.201172 0.5
vt 0.201172 0.5
vt 0.255859 0.5
vt 0.255859 0.5
vt 0.255859 0.5
vt 0.255859 0.5
vt 0.201172 0.5
vt 0.201172 0.5
vt 0.201172 0.5
vt 0.201172 0.5
vt 0.255859 0.5
vt 0.255859 0.5
vt 0.255859 0.5
vt 0.255859 0.5
vt 0.255859 0.5
vt 0.255859 0.5
vt 0.255859 0.5
vt 0.255859 0.5
vt 0.201172 0.5
vt 0.201172 0.5
vt 0.201172 0.5
vt 0.201172 0.5
vt 0.201172 0.5
vt 0.201172 0.5
vt 0.201172 0.5
vt 0.201172 0.5
vt 0.255859 0.5
vt 0.255859 0.5
vt 0.255859 0.5
vt 0.255859 0.5
vt 0.255859 0.5
vt 0.255859 0.5
vt 0.255859 0.5
vt 0.255859 0.5
vt 0.201172 0.5
vt 0.201172 0.5
vt 0.201172 0.5
vt 0.201172 0.5
vt 0.201172 0.5
vt 0.201172 0.5
vt 0.201172 0.5
vt 0.201172 0.5
vt 0.201172 0.5
vt 0.201172 0.5
vt 0.201172 0.5
vt 0.201172 0.5
vt 0.201172 0.5
vt 0.201172 0.5
vt 0.201172 0.5
vt 0.201172 0.5
vt 0.201172 0.5
vt 0.201172 0.5
vt 0.201172 0.5
vt 0.201172 0.5
vt 0.201172 0.5
vt 0.201172 0.5
vt 0.255859 0.5
vt 0.255859 0.5
vt 0.255859 0.5
vt 0.255859 0.5
vt 0.201172 0.5
vt 0.201172 0.5
vt 0.201172 0.5
vt 0.201172 0.5
vt 0.201172 0.5
vt 0.201172 0.5
vt 0.201172 0.5
vt 0.201172 0.5
vt 0.201172 0.5
vt 0.201172 0.5
vt 0.201172 0.5
vt 0.201172 0.5
vt 0.201172 0.5
vt 0.201172 0.5
vt 0.201172 0.5
vt 0.201172 0.5
vt 0.201172 0.5
vt 0.201172 0.5
vt 0.201172 0.5
vt 0.201172 0.5
vt 0.201172 0.5
vt 0.201172 0.5
vt 0.201172 0.5
vt 0.201172 0.5
vt 0.201172 0.5
vt 0.201172 0.5
vt 0.201172 0.5
vt 0.201172 0.5
vt 0.201172 0.5
vt 0.201172 0.5
vt 0.201172 0.5
vt 0.201172 0.5
vt 0.201172 0.5
vt 0.201172 0.5
vt 0.201172 0.5
vt 0.201172 0.5
vt 0.201172 0.5
vt 0.201172 0.5
vt 0.201172 0.5
vt 0.201172 0.5
vt 0.201172 0.5
vt 0.201172 0.5
vt 0.201172 0.5
vt 0.201172 0.5
vt 0.201172 0.5
vt 0.201172 0.5
vt 0.201172 0.5
vt 0.201172 0.5
vt 0.201172 0.5
vt 0.201172 0.5
vt 0.201172 0.5
vt 0.201172 0.5
vt 0.201172 0.5
vt 0.201172 0.5
vt 0.201172 0.5
vt 0.255859 0.5
vt 0.255859 0.5
vt 0.255859 0.5
vt 0.255859 0.5
vt 0.201172 0.5
vt 0.201172 0.5
vt 0.201172 0.5
vt 0.201172 0.5
vt 0.201172 0.5
vt 0.201172 0.5
vt 0.201172 0.5
vt 0.255859 0.5
vt 0.255859 0.5
vt 0.255859 0.5
vt 0.255859 0.5
vt 0.201172 0.5
vt 0.201172 0.5
vt 0.201172 0.5
vt 0.201172 0.5
vt 0.201172 0.5
vt 0.201172 0.5
vt 0.201172 0.5
vt 0.255859 0.5
vt 0.255859 0.5
vt 0.255859 0.5
vt 0.255859 0.5
vt 0.201172 0.5
vt 0.201172 0.5
vt 0.201172 0.5
vt 0.201172 0.5
vt 0.255859 0.5
vt 0.255859 0.5
vt 0.255859 0.5
vt 0.255859 0.5
vt 0.201172 0.5
vt 0.201172 0.5
vt 0.201172 0.5
vt 0.201172 0.5
vt 0.201172 0.5
vt 0.201172 0.5
vt 0.201172 0.5
vt 0.255859 0.5
vt 0.255859 0.5
vt 0.255859 0.5
vt 0.255859 0.5
vt 0.201172 0.5
vt 0.201172 0.5
vt 0.201172 0.5
vt 0.201172 0.5
vt 0.201172 0.5
vt 0.201172 0.5
vt 0.201172 0.5
vt 0.255859 0.5
vt 0.255859 0.5
vt 0.255859 0.5
vt 0.255859 0.5
vt 0.201172 0.5
vt 0.201172 0.5
vt 0.201172 0.5
vt 0.201172 0.5
vt 0.201172 0.5
vt 0.201172 0.5
vt 0.201172 0.5
vt 0.201172 0.5
vt 0.201172 0.5
vt 0.201172 0.5
vt 0.201172 0.5
vt 0.201172 0.5
vt 0.201172 0.5
vt 0.201172 0.5
vt 0.201172 0.5
vt 0.201172 0.5
vt 0.201172 0.5
vt 0.201172 0.5
vt 0.201172 0.5
vt 0.201172 0.5
vt 0.201172 0.5
vt 0.201172 0.5
vt 0.201172 0.5
vt 0.201172 0.5
vt 0.201172 0.5
vt 0.201172 0.5
vt 0.201172 0.5
vt 0.201172 0.5
vt 0.201172 0.5
vt 0.201172 0.5
vt 0.201172 0.5
vt 0.201172 0.5
vt 0.201172 0.5
vt 0.201172 0.5
vt 0.201172 0.5
vt 0.201172 0.5
vt 0.201172 0.5
vt 0.201172 0.5
vt 0.201172 0.5
vt 0.201172 0.5
vt 0.201172 0.5
vt 0.201172 0.5
vt 0.201172 0.5
vt 0.201172 0.5
vt 0.201172 0.5
vt 0.201172 0.5
vt 0.201172 0.5
vt 0.201172 0.5
vt 0.201172 0.5
vt 0.201172 0.5
vt 0.201172 0.5
vt 0.201172 0.5
vt 0.201172 0.5
vt 0.201172 0.5
vt 0.201172 0.5
vt 0.201172 0.5
vt 0.201172 0.5
vt 0.201172 0.5
vt 0.201172 0.5
vt 0.201172 0.5
vt 0.201172 0.5
vt 0.201172 0.5
vt 0.201172 0.5
vt 0.201172 0.5
vt 0.201172 0.5
vt 0.201172 0.5
vt 0.201172 0.5
vt 0.201172 0.5
vt 0.201172 0.5
vt 0.201172 0.5
vt 0.201172 0.5
vt 0.201172 0.5
vt 0.201172 0.5
vt 0.201172 0.5
vt 0.201172 0.5
vt 0.201172 0.5
vt 0.201172 0.5
vt 0.201172 0.5
vt 0.201172 0.5
vt 0.201172 0.5
vt 0.201172 0.5
vt 0.201172 0.5
vt 0.201172 0.5
vt 0.201172 0.5
vt 0.201172 0.5
vt 0.201172 0.5
vt 0.201172 0.5
vt 0.201172 0.5
vt 0.201172 0.5
vt 0.201172 0.5
vt 0.201172 0.5
vt 0.201172 0.5
vt 0.201172 0.5
vt 0.201172 0.5
vt 0.201172 0.5
vt 0.201172 0.5
vt 0.201172 0.5
vt 0.201172 0.5
vt 0.201172 0.5
vt 0.201172 0.5
vt 0.201172 0.5
vt 0.201172 0.5
vt 0.201172 0.5
vt 0.201172 0.5
vt 0.201172 0.5
vt 0.201172 0.5
vt 0.201172 0.5
vt 0.201172 0.5
vt 0.201172 0.5
vt 0.201172 0.5
vt 0.201172 0.5
vt 0.201172 0.5
vt 0.201172 0.5
vt 0.201172 0.5
vt 0.201172 0.5
vt 0.201172 0.5
vt 0.201172 0.5
vt 0.201172 0.5
vt 0.201172 0.5
vt 0.201172 0.5
vt 0.201172 0.5
vt 0.201172 0.5
vt 0.201172 0.5
vt 0.201172 0.5
vt 0.201172 0.5
vt 0.201172 0.5
vt 0.201172 0.5
vt 0.255859 0.5
vt 0.255859 0.5
vt 0.255859 0.5
vt 0.255859 0.5
vt 0.255859 0.5
vt 0.255859 0.5
vt 0.255859 0.5
vt 0.255859 0.5
vt 0.255859 0.5
vt 0.255859 0.5
vt 0.201172 0.5
vt 0.201172 0.5
vt 0.201172 0.5
vt 0.201172 0.5
vt 0.201172 0.5
vt 0.201172 0.5
vt 0.201172 0.5
vt 0.201172 0.5
vt 0.201172 0.5
vt 0.201172 0.5
vt 0.201172 0.5
vt 0.201172 0.5
vn -1 0 0
vn -1 0 0
vn -1 0 0
vn -1 0 0
vn -1 0 0
vn -1 0 0
vn -1 0 0
vn -1 0 0
vn -1 0 0
vn -1 0 0
vn -1 0 0
vn -1 0 0
vn -1 0 0
vn -1 0 0
vn -1 0 0
vn -1 0 0
vn -1 0 0
vn -1 0 0
vn -1 0 0
vn -1 0 0
vn -1 0 0
vn -1 0 0
vn -1 0 0
vn -1 0 0
vn -1 0 0
vn -1 0 0
vn -1 0 0
vn -1 0 0
vn -1 0 0
vn -1 0 0
vn -1 0 0
vn -1 0 0
vn -1 0 0
vn -1 0 0
vn -1 0 0
vn -1 0 0
vn -1 0 0
vn -1 0 0
vn -1 0 0
vn -1 0 0
vn -1 0 0
vn -1 0 0
vn -1 0 0
vn -1 0 0
vn -1 0 0
vn -1 0 0
vn -1 0 0
vn -1 0 0
vn -1 0 0
vn -1 0 0
vn -1 0 0
vn -1 0 0
vn -1 0 0
vn -1 0 0
vn -1 0 0
vn -1 0 0
vn -1 0 0
vn -1 0 0
vn 1 0 0
vn 1 0 0
vn 1 0 0
vn 1 0 0
vn 1 0 0
vn 1 0 0
vn 1 0 0
vn 1 0 0
vn 1 0 0
vn 1 0 0
vn 1 0 0
vn 1 0 0
vn 1 0 0
vn 1 0 0
vn 1 0 0
vn 1 0 0
vn 1 0 0
vn 1 0 0
vn 1 0 0
vn 1 0 0
vn 1 0 0
vn 1 0 0
vn 1 0 0
vn 1 0 0
vn 1 0 0
vn 1 0 0
vn 1 0 0
vn 1 0 0
vn 1 0 0
vn 1 0 0
vn 1 0 0
vn 1 0 0
vn 1 0 0
vn 1 0 0
vn 1 0 0
vn 1 0 0
vn 1 0 0
vn 1 0 0
vn 1 0 0
vn 1 0 0
vn 1 0 0
vn 1 0 0
vn 1 0 0
vn 1 0 0
vn 1 0 0
vn 1 0 0
vn 1 0 0
vn 1 0 0
vn 1 0 0
vn 1 0 0
vn 1 0 0
vn 1 0 0
vn 1 0 0
vn 1 0 0
vn 1 0 0
vn 1 0 0
vn 1 0 0
vn 1 0 0
vn 1 0 0
vn 1 0 0
vn 1 0 0
vn 1 0 0
vn 0 0 1
vn 0 0 1
vn 0 0 1
vn 0 0 1
vn 0 0 1
vn 0 0 1
vn 0 0 1
vn 0 0 1
vn 0 0 1
vn 0 0 1
vn 0 0 1
vn 0 0 1
vn 0 0 1
vn 0 0 1
vn 0 0 1
vn 0 0 1
vn 0 0 1
vn 0 0 1
vn 0 0 1
vn 0 0 1
vn 0 0 1
vn 0 0 1
vn 0 0 1
vn 0 0 1
vn 0 0 1
vn 0 0 1
vn 0 0 1
vn 0 0 1
vn 0 0 1
vn 0 0 1
vn 0 0 1
vn 0 0 1
vn 0 0 1
vn 0 0 1
vn 0 0 1
vn 0 0 1
vn 0 0 1
vn 0 0 1
vn 0 0 1
vn 0 0 1
vn 0 0 1
vn 0 0 1
vn 0 0 1
vn 0 0 1
vn 0 0 1
vn 0 0 1
vn 0 0 1
vn 0 0 1
vn 0 0 1
vn 0 0 1
vn 0 0 1
vn 0 0 1
vn 0 0 1
vn 0 0 1
vn 0 0 1
vn 0 0 1
vn 0 0 1
vn 0 0 1
vn 0 0 1
vn 0 0 1
vn 0 0 1
vn 0 0 -1
vn 0 0 -1
vn 0 0 -1
vn 0 0 -1
vn 0 0 -1
vn 0 0 -1
vn 0 0 -1
vn 0 0 -1
vn 0 0 -1
vn 0 0 -1
vn 0 0 -1
vn 0 0 -1
vn 0 0 -1
vn 0 0 -1
vn 0 0 -1
vn 0 0 -1
vn 0 0 -1
vn 0 0 -1
vn 0 0 -1
vn 0 0 -1
vn 0 0 -1
vn 0 0 -1
vn 0 0 -1
vn 0 0 -1
vn 0 0 -1
vn 0 0 -1
vn 0 0 -1
vn 0 0 -1
vn 0 0 -1
vn 0 0 -1
vn 0 0 -1
vn 0 0 -1
vn 0 0 -1
vn 0 0 -1
vn 0 0 -1
vn 0 0 -1
vn 0 0 -1
vn 0 0 -1
vn 0 0 -1
vn 0 0 -1
vn 0 0 -1
vn 0 0 -1
vn 0 0 -1
vn 0 0 -1
vn 0 0 -1
vn 0 0 -1
vn 0 0 -1
vn 0 0 -1
vn 0 0 -1
vn 0 0 -1
vn 0 0 -1
vn 0 0 -1
vn 0 0 -1
vn 0 0 -1
vn 0 0 -1
vn 0 0 -1
vn 0 0 -1
vn 0 0 -1
vn 0 0 -1
vn 0 0 -1
vn 0 0 -1
vn 0 -1 0
vn 0 -1 0
vn 0 -1 0
vn 0 -1 0
vn 0 -1 0
vn 0 -1 0
vn 0 -1 0
vn 0 -1 0
vn 0 -1 0
vn 0 -1 0
vn 0 -1 0
vn 0 -1 0
vn 0 -1 0
vn 0 -1 0
vn 0 -1 0
vn 0 -1 0
vn 0 1 0
vn 0 1 0
vn 0 1 0
vn 0 1 0
vn 0 1 0
vn 0 1 0
vn 0 1 0
vn 0 1 0
vn 0 1 0
vn 0 1 0
vn 0 1 0
vn 0 1 0
vn 0 1 0
vn 0 1 0
vn 0 1 0
vn 0 1 0
vn 0 1 0
vn 0 1 0
vn 0 1 0
vn 0 1 0
vn 0 1 0
vn 0 1 0
vn 0 1 0
vn 0 1 0
vn 0 1 0
vn 0 1 0
vn 0 1 0
vn 0 1 0
vn 0 1 0
vn 0 1 0
vn 0 1 0
vn 0 1 0
vn 0 1 0
vn 0 1 0
vn 0 1 0
vn 0 1 0
vn 0 1 0
vn 0 1 0
vn 0 1 0
vn 0 1 0
vn 0 1 0
vn 0 1 0
vn 0 1 0
vn 0 1 0
vn 0 1 0
vn 0 1 0
vn 0 1 0
vn 0 1 0
vn 0 1 0
vn 0 1 0
vn 0 1 0
vn 0 1 0
vn 0 1 0
vn 0 1 0
vn 0 1 0
vn 0 1 0
vn 0 1 0
vn 0 1 0
vn 0 1 0
vn 0 1 0
vn 0 1 0
vn 0 1 0
vn 0 1 0
vn 0 1 0
vn 0 1 0
vn 0 1 0
vn 0 1 0
vn 0 1 0
vn 0 1 0
vn 0 1 0
vn 0 1 0
vn 0 1 0
vn 0 1 0
vn 0 1 0
vn 0 1 0
vn 0 1 0
vn 0 1 0
vn 0 1 0
vn 0 1 0
vn 0 1 0
vn 0 1 0
vn 0 1 0
vn 0 1 0
vn 0 1 0
vn 0 1 0
vn 0 1 0
vn 0 1 0
vn 0 1 0
vn 0 1 0
vn 0 1 0
vn 0 1 0
vn 0 1 0
vn 0 1 0
vn 0 1 0
vn 0 1 0
vn 0 1 0
vn 0 1 0
vn 0 1 0
g default_0
f 3/3/3 2/2/2 1/1/1
f 3/3/3 1/1/1 4/4/4
f 3/3/3 4/4/4 5/5/5
f 3/3/3 5/5/5 6/6/6
f 5/5/5 4/4/4 7/7/7
f 5/5/5 7/7/7 8/8/8
f 11/11/11 10/10/10 9/9/9
f 11/11/11 9/9/9 12/12/12
f 14/14/14 12/12/12 13/13/13
f 14/14/14 13/13/13 15/15/15
f 17/17/17 15/15/15 16/16/16
f 17/17/17 16/16/16 18/18/18
f 20/20/20 19/19/19 17/17/17
f 20/20/20 17/17/17 21/21/21
f 23/23/23 22/22/22 20/20/20
f 23/23/23 20/20/20 24/24/24
f 27/27/27 26/26/26 25/25/25
f 27/27/27 25/25/25 28/28/28
f 30/30/30 28/28/28 29/29/29
f 30/30/30 29/29/29 31/31/31
f 34/34/34 33/33/33 32/32/32
f 34/34/34 32/32/32 35/35/35
f 32/32/32 37/37/37 36/36/36
f 32/32/32 36/36/36 38/38/38
f 41/41/41 40/40/40 39/39/39
f 41/41/41 39/39/39 42/42/42
f 45/45/45 44/44/44 43/43/43
f 45/45/45 43/43/43 46/46/46
f 49/49/49 48/48/48 47/47/47
f 49/49/49 47/47/47 50/50/50
f 53/53/53 52/52/52 51/51/51
f 53/53/53 51/51/51 54/54/54
f 57/57/57 56/56/56 55/55/55
f 57/57/57 55/55/55 58/58/58
f 61/61/61 60/60/60 59/59/59
f 61/61/61 62/62/62 60/60/60
f 65/65/65 64/64/64 63/63/63
f 65/65/65 66/66/66 64/64/64
f 69/69/69 68/68/68 67/67/67
f 69/69/69 70/70/70 68/68/68
f 73/73/73 72/72/72 71/71/71
f 73/73/73 74/74/74 72/72/72
f 73/73/73 75/75/75 74/74/74
f 75/75/75 76/76/76 74/74/74
f 77/77/77 76/76/76 75/75/75
f 77/77/77 78/78/78 76/76/76
f 81/81/81 80/80/80 79/79/79
f 81/81/81 82/82/82 80/80/80
f 84/84/84 83/83/83 82/82/82
f 84/84/84 85/85/85 83/83/83
f 88/88/88 87/87/87 86/86/86
f 88/88/88 89/89/89 87/87/87
f 87/87/87 91/91/91 90/90/90
f 87/87/87 92/92/92 91/91/91
f 95/95/95 94/94/94 93/93/93
f 95/95/95 96/96/96 94/94/94
f 99/99/99 98/98/98 97/97/97
f 99/99/99 100/100/100 98/98/98
f 102/102/102 101/101/101 100/100/100
f 102/102/102 103/103/103 101/101/101
f 105/105/105 104/104/104 103/103/103
f 105/105/105 106/106/106 104/104/104
f 108/108/108 105/105/105 107/107/107
f 108/108/108 109/109/109 105/105/105
f 111/111/111 108/108/108 110/110/110
f 111/111/111 112/112/112 108/108/108
f 115/115/115 114/114/114 113/113/113
f 115/115/115 116/116/116 114/114/114
f 115/115/115 117/117/117 116/116/116
f 115/115/115 118/118/118 117/117/117
f 117/117/117 119/119/119 116/116/116
f 117/117/117 120/120/120 119/119/119
f 123/123/123 122/122/122 121/121/121
f 121/121/121 122/122/122 124/124/124
f 125/125/125 121/121/121 124/124/124
f 125/125/125 124/124/124 126/126/126
f 124/124/124 122/122/122 127/127/127
f 124/124/124 127/127/127 128/128/128
f 131/131/131 130/130/130 129/129/129
f 131/131/131 129/129/129 132/132/132
f 134/134/134 132/132/132 133/133/133
f 134/134/134 133/133/133 135/135/135
f 137/137/137 135/135/135 136/136/136
f 137/137/137 136/136/136 138/138/138
f 136/136/136 140/140/140 139/139/139
f 136/136/136 139/139/139 141/141/141
f 139/139/139 143/143/143 142/142/142
f 139/139/139 142/142/142 144/144/144
f 147/147/147 146/146/146 145/145/145
f 147/147/147 145/145/145 148/148/148
f 150/150/150 148/148/148 149/149/149
f 150/150/150 149/149/149 151/151/151
f 154/154/154 153/153/153 152/152/152
f 154/154/154 152/152/152 155/155/155
f 158/158/158 157/157/157 156/156/156
f 158/158/158 156/156/156 159/159/159
f 156/156/156 161/161/161 160/160/160
f 156/156/156 160/160/160 162/162/162
f 165/165/165 164/164/164 163/163/163
f 165/165/165 163/163/163 166/166/166
f 169/169/169 168/168/168 167/167/167
f 169/169/169 167/167/167 170/170/170
f 169/169/169 170/170/170 171/171/171
f 170/170/170 167/167/167 172/172/172
f 170/170/170 172/172/172 173/173/173
f 176/176/176 175/175/175 174/174/174
f 176/176/176 174/174/174 177/177/177
f 180/180/180 179/179/179 178/178/178
f 180/180/180 178/178/178 181/181/181
f 184/184/184 183/183/183 182/182/182
f 184/184/184 185/185/185 183/183/183
f 188/188/188 187/187/187 186/186/186
f 188/188/188 189/189/189 187/187/187
f 188/188/188 190/190/190 189/189/189
f 189/189/189 191/191/191 187/187/187
f 189/189/189 192/192/192 191/191/191
f 195/195/195 194/194/194 193/193/193
f 195/195/195 196/196/196 194/194/194
f 199/199/199 198/198/198 197/197/197
f 199/199/199 200/200/200 198/198/198
f 202/202/202 201/201/201 200/200/200
f 202/202/202 203/203/203 201/201/201
f 206/206/206 205/205/205 204/204/204
f 206/206/206 207/207/207 205/205/205
f 210/210/210 209/209/209 208/208/208
f 210/210/210 211/211/211 209/209/209
f 214/214/214 213/213/213 212/212/212
f 214/214/214 215/215/215 213/213/213
f 213/213/213 217/217/217 216/216/216
f 213/213/213 218/218/218 217/217/217
f 221/221/221 220/220/220 219/219/219
f 221/221/221 222/222/222 220/220/220
f 224/224/224 223/223/223 222/222/222
f 224/224/224 225/225/225 223/223/223
f 227/227/227 226/226/226 225/225/225
f 227/227/227 228/228/228 226/226/226
f 226/226/226 230/230/230 229/229/229
f 226/226/226 231/231/231 230/230/230
f 230/230/230 233/233/233 232/232/232
f 230/230/230 234/234/234 233/233/233
f 237/237/237 236/236/236 235/235/235
f 236/236/236 238/238/238 235/235/235
f 239/239/239 238/238/238 236/236/236
f 239/239/239 240/240/240 238/238/238
f 238/238/238 241/241/241 235/235/235
f 238/238/238 242/242/242 241/241/241
f 245/245/245 244/244/244 243/243/243
f 245/245/245 243/243/243 246/246/246
f 246/246/246 243/243/243 247/247/247
f 243/243/243 248/248/248 247/247/247
f 249/249/249 246/246/246 247/247/247
f 249/249/249 247/247/247 250/250/250
f 249/249/249 250/250/250 251/251/251
f 249/249/249 251/251/251 252/252/252
f 251/251/251 250/250/250 253/253/253
f 251/251/251 253/253/253 254/254/254
f 257/257/257 256/256/256 255/255/255
f 257/257/257 255/255/255 258/258/258
f 261/261/261 260/260/260 259/259/259
f 261/261/261 262/262/262 260/260/260
f 260/260/260 264/264/264 263/263/263
f 260/260/260 265/265/265 264/264/264
f 268/268/268 267/267/267 266/266/266
f 268/268/268 269/269/269 267/267/267
f 271/271/271 270/270/270 269/269/269
f 271/271/271 272/272/272 270/270/270
f 275/275/275 274/274/274 273/273/273
f 275/275/275 276/276/276 274/274/274
f 278/278/278 277/277/277 276/276/276
f 278/278/278 279/279/279 277/277/277
f 282/282/282 281/281/281 280/280/280
f 282/282/282 283/283/283 281/281/281
f 281/281/281 285/285/285 284/284/284
f 281/281/281 286/286/286 285/285/285
f 289/289/289 288/288/288 287/287/287
f 289/289/289 290/290/290 288/288/288
f 288/288/288 292/292/292 291/291/291
f 288/288/288 293/293/293 292/292/292
f 295/295/295 294/294/294 290/290/290
f 295/295/295 296/296/296 294/294/294
f 292/292/292 298/298/298 297/297/297
f 292/292/292 299/299/299 298/298/298
f 301/301/301 300/300/300 296/296/296
f 301/301/301 302/302/302 300/300/300
f 304/304/304 303/303/303 299/299/299
f 304/304/304 305/305/305 303/303/303
f 300/300/300 307/307/307 306/306/306
f 300/300/300 308/308/308 307/307/307
f 307/307/307 309/309/309 305/305/305
f 307/307/307 310/310/310 309/309/309
f 313/313/313 312/312/312 311/311/311
f 313/313/313 314/314/314 312/312/312
f 313/313/313 315/315/315 314/314/314
f 313/313/313 316/316/316 315/315/315
f 314/314/314 317/317/317 312/312/312
f 312/312/312 317/317/317 318/318/318
f 314/314/314 319/319/319 317/317/317
f 316/316/316 320/320/320 315/315/315
f 321/321/321 320/320/320 316/316/316
f 321/321/321 322/322/322 320/320/320
f 317/317/317 323/323/323 318/318/318
f 321/321/321 324/324/324 322/322/322
f 323/323/323 325/325/325 318/318/318
f 326/326/326 325/325/325 323/323/323
f 326/326/326 327/327/327 325/325/325
f 326/326/326 328/328/328 327/327/327
f 321/321/321 329/329/329 324/324/324
f 324/324/324 329/329/329 330/330/330
f 324/324/324 330/330/330 331/331/331
f 321/321/321 332/332/332 329/329/329
f 328/328/328 333/333/333 327/327/327
f 330/330/330 333/333/333 328/328/328
f 329/329/329 333/333/333 330/330/330
f 329/329/329 334/334/334 333/333/333
f 337/337/337 336/336/336 335/335/335
f 337/337/337 338/338/338 336/336/336
f 340/340/340 339/339/339 338/338/338
f 340/340/340 341/341/341 339/339/339
f 339/339/339 343/343/343 342/342/342
f 339/339/339 344/344/344 343/343/343
f 347/347/347 346/346/346 345/345/345
f 347/347/347 348/348/348 346/346/346
f 351/351/351 350/350/350 349/349/349
f 350/350/350 352/352/352 349/349/349
f 353/353/353 352/352/352 350/350/350
f 353/353/353 354/354/354 352/352/352
f 353/353/353 355/355/355 354/354/354
f 353/353/353 356/356/356 355/355/355
