g default
v -0.4 0.3 0.2
v -0.4 0 0.3
v -0.4 0 0.2
v -0.4 0.4 0.3
v -0.4 0.3 -0.3
v -0.4 0.4 -0.3
v -0.4 0 -0.4
v -0.4 0 -0.3
v -0.4 1 -0.3
v -0.4 1 -0.4
v 0.3 0.3 0.3
v 0.3 0 0.3
v 0.3 0 0.2
v 0.3 0.3 0.2
v 0.3 0.3 -0.3
v 0.3 0 -0.3
v 0.3 0 -0.4
v 0.3 0.4 -0.3
v 0.3 0.7 -0.3
v 0.3 0.7 -0.4
v 0.3 0.9 -0.3
v 0.3 0.8 -0.3
v 0.3 0.8 -0.4
v 0.3 0.9 -0.4
v -0.3 0 0.3
v -0.3 0.3 0.3
v -0.3 0 0.2
v -0.3 0.3 0.2
v -0.3 0 -0.3
v -0.3 0.3 -0.3
v -0.3 0 -0.4
v -0.3 0.4 -0.3
v -0.3 0.7 -0.3
v -0.3 0.7 -0.4
v -0.3 0.8 -0.3
v -0.3 0.9 -0.3
v -0.3 0.8 -0.4
v -0.3 0.9 -0.4
v 0.4 0 0.3
v 0.4 0.3 0.2
v 0.4 0 0.2
v 0.4 0.4 0.3
v 0.4 0.3 -0.3
v 0.4 0.4 -0.3
v 0.4 0 -0.4
v 0.4 0 -0.3
v 0.4 1 -0.3
v 0.4 1 -0.4
v -0.3 0 0.3
v -0.4 0 0.3
v -0.4 0.4 0.3
v -0.3 0.3 0.3
v 0.3 0.3 0.3
v 0.4 0.4 0.3
v 0.4 0 0.3
v 0.3 0 0.3
v -0.3 0 -0.3
v -0.4 0 -0.3
v -0.4 0.3 -0.3
v -0.3 0.3 -0.3
v -0.3 0.4 -0.3
v -0.4 0.4 -0.3
v -0.4 1 -0.3
v -0.3 0.7 -0.3
v -0.3 0.8 -0.3
v -0.3 0.9 -0.3
v 0.3 0.7 -0.3
v 0.3 0.8 -0.3
v 0.3 0.9 -0.3
v 0.4 0.4 -0.3
v 0.3 0.4 -0.3
v 0.4 1 -0.3
v 0.4 0 -0.3
v 0.3 0 -0.3
v 0.3 0.3 -0.3
v 0.4 0.3 -0.3
v -0.4 0 0.2
v -0.3 0 0.2
v -0.4 0.3 0.2
v -0.3 0.3 0.2
v 0.3 0 0.2
v 0.4 0 0.2
v 0.3 0.3 0.2
v 0.4 0.3 0.2
v -0.3 0.3 -0.3
v 0.3 0.3 -0.3
v -0.3 0.4 -0.3
v 0.3 0.4 -0.3
v -0.4 0 -0.4
v -0.3 0 -0.4
v -0.4 1 -0.4
v -0.3 0.7 -0.4
v -0.3 0.8 -0.4
v -0.3 0.9 -0.4
v 0.3 0.7 -0.4
v 0.3 0.8 -0.4
v 0.3 0.9 -0.4
v 0.4 0 -0.4
v 0.3 0 -0.4
v 0.4 1 -0.4
v -0.4 0 0.2
v -0.4 0 0.3
v -0.3 0 0.3
v -0.3 0 0.2
v 0.3 0 0.2
v 0.3 0 0.3
v 0.4 0 0.3
v 0.4 0 0.2
v -0.4 0 -0.4
v -0.4 0 -0.3
v -0.3 0 -0.3
v -0.3 0 -0.4
v 0.3 0 -0.4
v 0.3 0 -0.3
v 0.4 0 -0.3
v 0.4 0 -0.4
v -0.3 0.3 0.2
v -0.3 0.3 0.3
v 0.3 0.3 0.3
v 0.3 0.3 0.2
v -0.4 0.3 -0.3
v -0.4 0.3 0.2
v 0.4 0.3 0.2
v -0.3 0.3 -0.3
v 0.3 0.3 -0.3
v 0.4 0.3 -0.3
v -0.3 0.7 -0.4
v -0.3 0.7 -0.3
v 0.3 0.7 -0.3
v 0.3 0.7 -0.4
v -0.3 0.9 -0.4
v -0.3 0.9 -0.3
v 0.3 0.9 -0.3
v 0.3 0.9 -0.4
v -0.4 0.4 0.3
v -0.4 0.4 -0.3
v 0.4 0.4 0.3
v -0.3 0.4 -0.3
v 0.3 0.4 -0.3
v 0.4 0.4 -0.3
v -0.3 0.8 -0.3
v -0.3 0.8 -0.4
v 0.3 0.8 -0.3
v 0.3 0.8 -0.4
v -0.4 1 -0.3
v -0.4 1 -0.4
v 0.4 1 -0.3
v 0.4 1 -0.4
vt 0.369141 0.5
vt 0.369141 0.5
vt 0.369141 0.5
vt 0.369141 0.5
vt 0.369141 0.5
vt 0.369141 0.5
vt 0.369141 0.5
vt 0.369141 0.5
vt 0.369141 0.5
vt 0.369141 0.5
vt 0.369141 0.5
vt 0.369141 0.5
vt 0.369141 0.5
vt 0.369141 0.5
vt 0.369141 0.5
vt 0.369141 0.5
vt 0.369141 0.5
vt 0.369141 0.5
vt 0.369141 0.5
vt 0.369141 0.5
vt 0.369141 0.5
vt 0.369141 0.5
vt 0.369141 0.5
vt 0.369141 0.5
vt 0.369141 0.5
vt 0.369141 0.5
vt 0.369141 0.5
vt 0.369141 0.5
vt 0.369141 0.5
vt 0.369141 0.5
vt 0.369141 0.5
vt 0.369141 0.5
vt 0.369141 0.5
vt 0.369141 0.5
vt 0.369141 0.5
vt 0.369141 0.5
vt 0.369141 0.5
vt 0.369141 0.5
vt 0.369141 0.5
vt 0.369141 0.5
vt 0.369141 0.5
vt 0.369141 0.5
vt 0.369141 0.5
vt 0.369141 0.5
vt 0.369141 0.5
vt 0.369141 0.5
vt 0.369141 0.5
vt 0.369141 0.5
vt 0.369141 0.5
vt 0.369141 0.5
vt 0.369141 0.5
vt 0.369141 0.5
vt 0.369141 0.5
vt 0.369141 0.5
vt 0.369141 0.5
vt 0.369141 0.5
vt 0.369141 0.5
vt 0.369141 0.5
vt 0.369141 0.5
vt 0.369141 0.5
vt 0.369141 0.5
vt 0.369141 0.5
vt 0.369141 0.5
vt 0.369141 0.5
vt 0.369141 0.5
vt 0.369141 0.5
vt 0.369141 0.5
vt 0.369141 0.5
vt 0.369141 0.5
vt 0.369141 0.5
vt 0.369141 0.5
vt 0.369141 0.5
vt 0.369141 0.5
vt 0.369141 0.5
vt 0.369141 0.5
vt 0.369141 0.5
vt 0.369141 0.5
vt 0.369141 0.5
vt 0.369141 0.5
vt 0.369141 0.5
vt 0.369141 0.5
vt 0.369141 0.5
vt 0.369141 0.5
vt 0.369141 0.5
vt 0.369141 0.5
vt 0.369141 0.5
vt 0.369141 0.5
vt 0.369141 0.5
vt 0.369141 0.5
vt 0.369141 0.5
vt 0.369141 0.5
vt 0.369141 0.5
vt 0.369141 0.5
vt 0.369141 0.5
vt 0.369141 0.5
vt 0.369141 0.5
vt 0.369141 0.5
vt 0.369141 0.5
vt 0.369141 0.5
vt 0.369141 0.5
vt 0.369141 0.5
vt 0.369141 0.5
vt 0.369141 0.5
vt 0.369141 0.5
vt 0.369141 0.5
vt 0.369141 0.5
vt 0.369141 0.5
vt 0.369141 0.5
vt 0.369141 0.5
vt 0.369141 0.5
vt 0.369141 0.5
vt 0.369141 0.5
vt 0.369141 0.5
vt 0.369141 0.5
vt 0.369141 0.5
vt 0.369141 0.5
vt 0.369141 0.5
vt 0.369141 0.5
vt 0.369141 0.5
vt 0.369141 0.5
vt 0.369141 0.5
vt 0.369141 0.5
vt 0.369141 0.5
vt 0.369141 0.5
vt 0.369141 0.5
vt 0.369141 0.5
vt 0.369141 0.5
vt 0.369141 0.5
vt 0.369141 0.5
vt 0.369141 0.5
vt 0.369141 0.5
vt 0.369141 0.5
vt 0.369141 0.5
vt 0.369141 0.5
vt 0.369141 0.5
vt 0.369141 0.5
vt 0.369141 0.5
vt 0.369141 0.5
vt 0.369141 0.5
vt 0.369141 0.5
vt 0.369141 0.5
vt 0.369141 0.5
vt 0.369141 0.5
vt 0.369141 0.5
vt 0.369141 0.5
vt 0.369141 0.5
vt 0.369141 0.5
vt 0.369141 0.5
vn -1 0 0
vn -1 0 0
vn -1 0 0
vn -1 0 0
vn -1 0 0
vn -1 0 0
vn -1 0 0
vn -1 0 0
vn -1 0 0
vn -1 0 0
vn -1 0 0
vn -1 0 0
vn -1 0 0
vn -1 0 0
vn -1 0 0
vn -1 0 0
vn -1 0 0
vn -1 0 0
vn -1 0 0
vn -1 0 0
vn -1 0 0
vn -1 0 0
vn -1 0 0
vn -1 0 0
vn 1 0 0
vn 1 0 0
vn 1 0 0
vn 1 0 0
vn 1 0 0
vn 1 0 0
vn 1 0 0
vn 1 0 0
vn 1 0 0
vn 1 0 0
vn 1 0 0
vn 1 0 0
vn 1 0 0
vn 1 0 0
vn 1 0 0
vn 1 0 0
vn 1 0 0
vn 1 0 0
vn 1 0 0
vn 1 0 0
vn 1 0 0
vn 1 0 0
vn 1 0 0
vn 1 0 0
vn 0 0 1
vn 0 0 1
vn 0 0 1
vn 0 0 1
vn 0 0 1
vn 0 0 1
vn 0 0 1
vn 0 0 1
vn 0 0 1
vn 0 0 1
vn 0 0 1
vn 0 0 1
vn 0 0 1
vn 0 0 1
vn 0 0 1
vn 0 0 1
vn 0 0 1
vn 0 0 1
vn 0 0 1
vn 0 0 1
vn 0 0 1
vn 0 0 1
vn 0 0 1
vn 0 0 1
vn 0 0 1
vn 0 0 1
vn 0 0 1
vn 0 0 1
vn 0 0 -1
vn 0 0 -1
vn 0 0 -1
vn 0 0 -1
vn 0 0 -1
vn 0 0 -1
vn 0 0 -1
vn 0 0 -1
vn 0 0 -1
vn 0 0 -1
vn 0 0 -1
vn 0 0 -1
vn 0 0 -1
vn 0 0 -1
vn 0 0 -1
vn 0 0 -1
vn 0 0 -1
vn 0 0 -1
vn 0 0 -1
vn 0 0 -1
vn 0 0 -1
vn 0 0 -1
vn 0 0 -1
vn 0 0 -1
vn 0 -1 0
vn 0 -1 0
vn 0 -1 0
vn 0 -1 0
vn 0 -1 0
vn 0 -1 0
vn 0 -1 0
vn 0 -1 0
vn 0 -1 0
vn 0 -1 0
vn 0 -1 0
vn 0 -1 0
vn 0 -1 0
vn 0 -1 0
vn 0 -1 0
vn 0 -1 0
vn 0 -1 0
vn 0 -1 0
vn 0 -1 0
vn 0 -1 0
vn 0 -1 0
vn 0 -1 0
vn 0 -1 0
vn 0 -1 0
vn 0 -1 0
vn 0 -1 0
vn 0 -1 0
vn 0 -1 0
vn 0 -1 0
vn 0 -1 0
vn 0 -1 0
vn 0 -1 0
vn 0 -1 0
vn 0 -1 0
vn 0 1 0
vn 0 1 0
vn 0 1 0
vn 0 1 0
vn 0 1 0
vn 0 1 0
vn 0 1 0
vn 0 1 0
vn 0 1 0
vn 0 1 0
vn 0 1 0
vn 0 1 0
vn 0 1 0
vn 0 1 0
g default_0
f 3/3/3 2/2/2 1/1/1
f 1/1/1 2/2/2 4/4/4
f 5/5/5 1/1/1 4/4/4
f 5/5/5 4/4/4 6/6/6
f 7/7/7 5/5/5 6/6/6
f 7/7/7 8/8/8 5/5/5
f 7/7/7 6/6/6 9/9/9
f 7/7/7 9/9/9 10/10/10
f 13/13/13 12/12/12 11/11/11
f 13/13/13 11/11/11 14/14/14
f 17/17/17 16/16/16 15/15/15
f 17/17/17 15/15/15 18/18/18
f 17/17/17 18/18/18 19/19/19
f 17/17/17 19/19/19 20/20/20
f 23/23/23 22/22/22 21/21/21
f 23/23/23 21/21/21 24/24/24
f 27/27/27 26/26/26 25/25/25
f 27/27/27 28/28/28 26/26/26
f 31/31/31 30/30/30 29/29/29
f 31/31/31 32/32/32 30/30/30
f 31/31/31 33/33/33 32/32/32
f 31/31/31 34/34/34 33/33/33
f 37/37/37 36/36/36 35/35/35
f 37/37/37 38/38/38 36/36/36
f 41/41/41 40/40/40 39/39/39
f 40/40/40 42/42/42 39/39/39
f 43/43/43 42/42/42 40/40/40
f 43/43/43 44/44/44 42/42/42
f 45/45/45 44/44/44 43/43/43
f 45/45/45 43/43/43 46/46/46
f 45/45/45 47/47/47 44/44/44
f 45/45/45 48/48/48 47/47/47
f 51/51/51 50/50/50 49/49/49
f 51/51/51 49/49/49 52/52/52
f 51/51/51 52/52/52 53/53/53
f 51/51/51 53/53/53 54/54/54
f 53/53/53 55/55/55 54/54/54
f 53/53/53 56/56/56 55/55/55
f 59/59/59 58/58/58 57/57/57
f 59/59/59 57/57/57 60/60/60
f 63/63/63 62/62/62 61/61/61
f 63/63/63 61/61/61 64/64/64
f 63/63/63 64/64/64 65/65/65
f 63/63/63 65/65/65 66/66/66
f 65/65/65 64/64/64 67/67/67
f 65/65/65 67/67/67 68/68/68
f 63/63/63 66/66/66 69/69/69
f 68/68/68 67/67/67 70/70/70
f 69/69/69 68/68/68 70/70/70
f 67/67/67 71/71/71 70/70/70
f 63/63/63 69/69/69 72/72/72
f 69/69/69 70/70/70 72/72/72
f 75/75/75 74/74/74 73/73/73
f 75/75/75 73/73/73 76/76/76
f 79/79/79 78/78/78 77/77/77
f 79/79/79 80/80/80 78/78/78
f 83/83/83 82/82/82 81/81/81
f 83/83/83 84/84/84 82/82/82
f 87/87/87 86/86/86 85/85/85
f 87/87/87 88/88/88 86/86/86
f 91/91/91 90/90/90 89/89/89
f 91/91/91 92/92/92 90/90/90
f 91/91/91 93/93/93 92/92/92
f 91/91/91 94/94/94 93/93/93
f 93/93/93 95/95/95 92/92/92
f 93/93/93 96/96/96 95/95/95
f 91/91/91 97/97/97 94/94/94
f 96/96/96 98/98/98 95/95/95
f 97/97/97 98/98/98 96/96/96
f 95/95/95 98/98/98 99/99/99
f 91/91/91 100/100/100 97/97/97
f 97/97/97 100/100/100 98/98/98
f 103/103/103 102/102/102 101/101/101
f 103/103/103 101/101/101 104/104/104
f 107/107/107 106/106/106 105/105/105
f 107/107/107 105/105/105 108/108/108
f 111/111/111 110/110/110 109/109/109
f 111/111/111 109/109/109 112/112/112
f 115/115/115 114/114/114 113/113/113
f 115/115/115 113/113/113 116/116/116
f 119/119/119 118/118/118 117/117/117
f 119/119/119 117/117/117 120/120/120
f 120/120/120 117/117/117 121/121/121
f 117/117/117 122/122/122 121/121/121
f 123/123/123 120/120/120 121/121/121
f 123/123/123 121/121/121 124/124/124
f 123/123/123 124/124/124 125/125/125
f 123/123/123 125/125/125 126/126/126
f 129/129/129 128/128/128 127/127/127
f 129/129/129 127/127/127 130/130/130
f 133/133/133 132/132/132 131/131/131
f 133/133/133 131/131/131 134/134/134
f 137/137/137 136/136/136 135/135/135
f 137/137/137 138/138/138 136/136/136
f 137/137/137 139/139/139 138/138/138
f 137/137/137 140/140/140 139/139/139
f 143/143/143 142/142/142 141/141/141
f 143/143/143 144/144/144 142/142/142
f 147/147/147 146/146/146 145/145/145
f 147/147/147 148/148/148 146/146/146
