g default
v -1.05 0.1 0.15
v -1.05 0 0.15
v -1.05 0 0.05
v -1.05 0.1 0.05
v -0.75 0.1 -0.05
v -0.75 0 -0.05
v -0.75 0 -0.15
v -0.75 0.1 -0.15
v -0.55 0.1 0.05
v -0.55 0 0.05
v -0.55 0 -0.05
v -0.55 0.1 -0.05
v -0.55 0 -0.05
v -0.55 0.1 -0.05
v -0.55 0 -0.15
v -0.55 0.1 -0.15
v -0.25 0 0.05
v -0.25 0.1 0.05
v -0.25 0 -0.05
v -0.25 0.1 -0.05
v 0.95 0 0.15
v 0.95 0.1 0.15
v 0.95 0 0.05
v 0.95 0.1 0.05
v -0.85 0 0.15
v -1.05 0 0.15
v -1.05 0.1 0.15
v -0.85 0.1 0.15
v -0.65 0 0.15
v -0.85 0 0.15
v -0.85 0.1 0.15
v -0.65 0.1 0.15
v -0.35 0 0.15
v -0.65 0 0.15
v -0.65 0.1 0.15
v -0.35 0.1 0.15
v -0.15 0 0.15
v -0.35 0 0.15
v -0.35 0.1 0.15
v -0.15 0.1 0.15
v -0.05 0 0.15
v -0.15 0 0.15
v -0.15 0.1 0.15
v -0.05 0.1 0.15
v 0.25 0 0.15
v -0.05 0 0.15
v -0.05 0.1 0.15
v 0.25 0.1 0.15
v 0.75 0 0.15
v 0.25 0 0.15
v 0.25 0.1 0.15
v 0.75 0.1 0.15
v 0.85 0 0.15
v 0.75 0 0.15
v 0.75 0.1 0.15
v 0.85 0.1 0.15
v 0.95 0 0.15
v 0.85 0 0.15
v 0.85 0.1 0.15
v 0.95 0.1 0.15
v -0.65 0 -0.05
v -0.75 0 -0.05
v -0.75 0.1 -0.05
v -0.65 0.1 -0.05
v -0.55 0 -0.05
v -0.65 0 -0.05
v -0.65 0.1 -0.05
v -0.55 0.1 -0.05
v -1.05 0 0.05
v -0.85 0 0.05
v -1.05 0.1 0.05
v -0.85 0.1 0.05
v -0.85 0 0.05
v -0.65 0 0.05
v -0.85 0.1 0.05
v -0.65 0.1 0.05
v -0.65 0 0.05
v -0.55 0 0.05
v -0.65 0.1 0.05
v -0.55 0.1 0.05
v -0.25 0 0.05
v -0.15 0 0.05
v -0.25 0.1 0.05
v -0.15 0.1 0.05
v -0.15 0 0.05
v -0.05 0 0.05
v -0.15 0.1 0.05
v -0.05 0.1 0.05
v -0.05 0 0.05
v 0.25 0 0.05
v -0.05 0.1 0.05
v 0.25 0.1 0.05
v 0.25 0 0.05
v 0.75 0 0.05
v 0.25 0.1 0.05
v 0.75 0.1 0.05
v 0.75 0 0.05
v 0.85 0 0.05
v 0.75 0.1 0.05
v 0.85 0.1 0.05
v 0.85 0 0.05
v 0.95 0 0.05
v 0.85 0.1 0.05
v 0.95 0.1 0.05
v -0.55 0 -0.05
v -0.45 0 -0.05
v -0.55 0.1 -0.05
v -0.45 0.1 -0.05
v -0.45 0 -0.05
v -0.25 0 -0.05
v -0.45 0.1 -0.05
v -0.25 0.1 -0.05
v -0.75 0 -0.15
v -0.65 0 -0.15
v -0.75 0.1 -0.15
v -0.65 0.1 -0.15
v -0.65 0 -0.15
v -0.55 0 -0.15
v -0.65 0.1 -0.15
v -0.55 0.1 -0.15
v -1.05 0 0.05
v -1.05 0 0.15
v -0.85 0 0.15
v -0.85 0 0.05
v -0.85 0 0.05
v -0.85 0 0.15
v -0.65 0 0.15
v -0.65 0 0.05
v -0.65 0 0.05
v -0.65 0 0.15
v -0.35 0 0.15
v -0.55 0 0.05
v -0.45 0 0.05
v -0.35 0 0.05
v -0.45 0 -0.05
v -0.25 0 0.05
v -0.25 0 -0.05
v -0.35 0 0.05
v -0.35 0 0.15
v -0.15 0 0.15
v -0.25 0 0.05
v -0.15 0 0.05
v -0.15 0 0.05
v -0.15 0 0.15
v -0.05 0 0.15
v -0.05 0 0.05
v -0.05 0 0.05
v -0.05 0 0.15
v 0.25 0 0.15
v 0.25 0 0.05
v 0.25 0 0.05
v 0.25 0 0.15
v 0.75 0 0.15
v 0.75 0 0.05
v 0.75 0 0.05
v 0.75 0 0.15
v 0.85 0 0.15
v 0.85 0 0.05
v 0.85 0 0.05
v 0.85 0 0.15
v 0.95 0 0.15
v 0.95 0 0.05
v -0.55 0 -0.05
v -0.55 0 0.05
v -0.45 0 0.05
v -0.45 0 -0.05
v -0.65 0 -0.15
v -0.65 0 -0.05
v -0.55 0 -0.15
v -0.75 0 -0.15
v -0.75 0 -0.05
v -0.65 0 -0.05
v -0.65 0 -0.15
v -1.05 0.1 0.15
v -1.05 0.1 0.05
v -0.85 0.1 0.15
v -0.85 0.1 0.05
v -0.85 0.1 0.15
v -0.85 0.1 0.05
v -0.65 0.1 0.15
v -0.65 0.1 0.05
v -0.65 0.1 0.15
v -0.65 0.1 0.05
v -0.35 0.1 0.15
v -0.55 0.1 0.05
v -0.45 0.1 0.05
v -0.35 0.1 0.05
v -0.45 0.1 -0.05
v -0.25 0.1 0.05
v -0.25 0.1 -0.05
v -0.35 0.1 0.15
v -0.35 0.1 0.05
v -0.15 0.1 0.15
v -0.25 0.1 0.05
v -0.15 0.1 0.05
v -0.15 0.1 0.15
v -0.15 0.1 0.05
v -0.05 0.1 0.15
v -0.05 0.1 0.05
v -0.05 0.1 0.15
v -0.05 0.1 0.05
v 0.25 0.1 0.15
v 0.25 0.1 0.05
v 0.25 0.1 0.15
v 0.25 0.1 0.05
v 0.75 0.1 0.15
v 0.75 0.1 0.05
v 0.75 0.1 0.15
v 0.75 0.1 0.05
v 0.85 0.1 0.15
v 0.85 0.1 0.05
v 0.85 0.1 0.15
v 0.85 0.1 0.05
v 0.95 0.1 0.15
v 0.95 0.1 0.05
v -0.55 0.1 0.05
v -0.55 0.1 -0.05
v -0.45 0.1 0.05
v -0.45 0.1 -0.05
v -0.65 0.1 -0.05
v -0.65 0.1 -0.15
v -0.55 0.1 -0.15
v -0.75 0.1 -0.05
v -0.75 0.1 -0.15
v -0.65 0.1 -0.05
v -0.65 0.1 -0.15
vt 0.888672 0.5
vt 0.888672 0.5
vt 0.888672 0.5
vt 0.888672 0.5
vt 0.888672 0.5
vt 0.888672 0.5
vt 0.888672 0.5
vt 0.888672 0.5
vt 0.892578 0.5
vt 0.892578 0.5
vt 0.892578 0.5
vt 0.892578 0.5
vt 0.892578 0.5
vt 0.892578 0.5
vt 0.892578 0.5
vt 0.892578 0.5
vt 0.896484 0.5
vt 0.896484 0.5
vt 0.896484 0.5
vt 0.896484 0.5
vt 0.00585938 0.5
vt 0.00585938 0.5
vt 0.00585938 0.5
vt 0.00585938 0.5
vt 0.888672 0.5
vt 0.888672 0.5
vt 0.888672 0.5
vt 0.888672 0.5
vt 0.892578 0.5
vt 0.892578 0.5
vt 0.892578 0.5
vt 0.892578 0.5
vt 0.896484 0.5
vt 0.896484 0.5
vt 0.896484 0.5
vt 0.896484 0.5
vt 0.900391 0.5
vt 0.900391 0.5
vt 0.900391 0.5
vt 0.900391 0.5
vt 0.904297 0.5
vt 0.904297 0.5
vt 0.904297 0.5
vt 0.904297 0.5
vt 0.00195312 0.5
vt 0.00195312 0.5
vt 0.00195312 0.5
vt 0.00195312 0.5
vt 0.958984 0.5
vt 0.958984 0.5
vt 0.958984 0.5
vt 0.958984 0.5
vt 0.00195312 0.5
vt 0.00195312 0.5
vt 0.00195312 0.5
vt 0.00195312 0.5
vt 0.00585938 0.5
vt 0.00585938 0.5
vt 0.00585938 0.5
vt 0.00585938 0.5
vt 0.888672 0.5
vt 0.888672 0.5
vt 0.888672 0.5
vt 0.888672 0.5
vt 0.892578 0.5
vt 0.892578 0.5
vt 0.892578 0.5
vt 0.892578 0.5
vt 0.888672 0.5
vt 0.888672 0.5
vt 0.888672 0.5
vt 0.888672 0.5
vt 0.892578 0.5
vt 0.892578 0.5
vt 0.892578 0.5
vt 0.892578 0.5
vt 0.896484 0.5
vt 0.896484 0.5
vt 0.896484 0.5
vt 0.896484 0.5
vt 0.900391 0.5
vt 0.900391 0.5
vt 0.900391 0.5
vt 0.900391 0.5
vt 0.904297 0.5
vt 0.904297 0.5
vt 0.904297 0.5
vt 0.904297 0.5
vt 0.00195312 0.5
vt 0.00195312 0.5
vt 0.00195312 0.5
vt 0.00195312 0.5
vt 0.958984 0.5
vt 0.958984 0.5
vt 0.958984 0.5
vt 0.958984 0.5
vt 0.00195312 0.5
vt 0.00195312 0.5
vt 0.00195312 0.5
vt 0.00195312 0.5
vt 0.00585938 0.5
vt 0.00585938 0.5
vt 0.00585938 0.5
vt 0.00585938 0.5
vt 0.892578 0.5
vt 0.892578 0.5
vt 0.892578 0.5
vt 0.892578 0.5
vt 0.896484 0.5
vt 0.896484 0.5
vt 0.896484 0.5
vt 0.896484 0.5
vt 0.888672 0.5
vt 0.888672 0.5
vt 0.888672 0.5
vt 0.888672 0.5
vt 0.892578 0.5
vt 0.892578 0.5
vt 0.892578 0.5
vt 0.892578 0.5
vt 0.888672 0.5
vt 0.888672 0.5
vt 0.888672 0.5
vt 0.888672 0.5
vt 0.892578 0.5
vt 0.892578 0.5
vt 0.892578 0.5
vt 0.892578 0.5
vt 0.896484 0.5
vt 0.896484 0.5
vt 0.896484 0.5
vt 0.896484 0.5
vt 0.896484 0.5
vt 0.896484 0.5
vt 0.896484 0.5
vt 0.896484 0.5
vt 0.896484 0.5
vt 0.900391 0.5
vt 0.900391 0.5
vt 0.900391 0.5
vt 0.900391 0.5
vt 0.900391 0.5
vt 0.904297 0.5
vt 0.904297 0.5
vt 0.904297 0.5
vt 0.904297 0.5
vt 0.00195312 0.5
vt 0.00195312 0.5
vt 0.00195312 0.5
vt 0.00195312 0.5
vt 0.958984 0.5
vt 0.958984 0.5
vt 0.958984 0.5
vt 0.958984 0.5
vt 0.00195312 0.5
vt 0.00195312 0.5
vt 0.00195312 0.5
vt 0.00195312 0.5
vt 0.00585938 0.5
vt 0.00585938 0.5
vt 0.00585938 0.5
vt 0.00585938 0.5
vt 0.892578 0.5
vt 0.892578 0.5
vt 0.892578 0.5
vt 0.892578 0.5
vt 0.892578 0.5
vt 0.892578 0.5
vt 0.892578 0.5
vt 0.888672 0.5
vt 0.888672 0.5
vt 0.888672 0.5
vt 0.888672 0.5
vt 0.888672 0.5
vt 0.888672 0.5
vt 0.888672 0.5
vt 0.888672 0.5
vt 0.892578 0.5
vt 0.892578 0.5
vt 0.892578 0.5
vt 0.892578 0.5
vt 0.896484 0.5
vt 0.896484 0.5
vt 0.896484 0.5
vt 0.896484 0.5
vt 0.896484 0.5
vt 0.896484 0.5
vt 0.896484 0.5
vt 0.896484 0.5
vt 0.896484 0.5
vt 0.900391 0.5
vt 0.900391 0.5
vt 0.900391 0.5
vt 0.900391 0.5
vt 0.900391 0.5
vt 0.904297 0.5
vt 0.904297 0.5
vt 0.904297 0.5
vt 0.904297 0.5
vt 0.00195312 0.5
vt 0.00195312 0.5
vt 0.00195312 0.5
vt 0.00195312 0.5
vt 0.958984 0.5
vt 0.958984 0.5
vt 0.958984 0.5
vt 0.958984 0.5
vt 0.00195312 0.5
vt 0.00195312 0.5
vt 0.00195312 0.5
vt 0.00195312 0.5
vt 0.00585938 0.5
vt 0.00585938 0.5
vt 0.00585938 0.5
vt 0.00585938 0.5
vt 0.892578 0.5
vt 0.892578 0.5
vt 0.892578 0.5
vt 0.892578 0.5
vt 0.892578 0.5
vt 0.892578 0.5
vt 0.892578 0.5
vt 0.888672 0.5
vt 0.888672 0.5
vt 0.888672 0.5
vt 0.888672 0.5
vn -1 0 0
vn -1 0 0
vn -1 0 0
vn -1 0 0
vn -1 0 0
vn -1 0 0
vn -1 0 0
vn -1 0 0
vn -1 0 0
vn -1 0 0
vn -1 0 0
vn -1 0 0
vn 1 0 0
vn 1 0 0
vn 1 0 0
vn 1 0 0
vn 1 0 0
vn 1 0 0
vn 1 0 0
vn 1 0 0
vn 1 0 0
vn 1 0 0
vn 1 0 0
vn 1 0 0
vn 0 0 1
vn 0 0 1
vn 0 0 1
vn 0 0 1
vn 0 0 1
vn 0 0 1
vn 0 0 1
vn 0 0 1
vn 0 0 1
vn 0 0 1
vn 0 0 1
vn 0 0 1
vn 0 0 1
vn 0 0 1
vn 0 0 1
vn 0 0 1
vn 0 0 1
vn 0 0 1
vn 0 0 1
vn 0 0 1
vn 0 0 1
vn 0 0 1
vn 0 0 1
vn 0 0 1
vn 0 0 1
vn 0 0 1
vn 0 0 1
vn 0 0 1
vn 0 0 1
vn 0 0 1
vn 0 0 1
vn 0 0 1
vn 0 0 1
vn 0 0 1
vn 0 0 1
vn 0 0 1
vn 0 0 1
vn 0 0 1
vn 0 0 1
vn 0 0 1
vn 0 0 1
vn 0 0 1
vn 0 0 1
vn 0 0 1
vn 0 0 -1
vn 0 0 -1
vn 0 0 -1
vn 0 0 -1
vn 0 0 -1
vn 0 0 -1
vn 0 0 -1
vn 0 0 -1
vn 0 0 -1
vn 0 0 -1
vn 0 0 -1
vn 0 0 -1
vn 0 0 -1
vn 0 0 -1
vn 0 0 -1
vn 0 0 -1
vn 0 0 -1
vn 0 0 -1
vn 0 0 -1
vn 0 0 -1
vn 0 0 -1
vn 0 0 -1
vn 0 0 -1
vn 0 0 -1
vn 0 0 -1
vn 0 0 -1
vn 0 0 -1
vn 0 0 -1
vn 0 0 -1
vn 0 0 -1
vn 0 0 -1
vn 0 0 -1
vn 0 0 -1
vn 0 0 -1
vn 0 0 -1
vn 0 0 -1
vn 0 0 -1
vn 0 0 -1
vn 0 0 -1
vn 0 0 -1
vn 0 0 -1
vn 0 0 -1
vn 0 0 -1
vn 0 0 -1
vn 0 0 -1
vn 0 0 -1
vn 0 0 -1
vn 0 0 -1
vn 0 0 -1
vn 0 0 -1
vn 0 0 -1
vn 0 0 -1
vn 0 -1 0
vn 0 -1 0
vn 0 -1 0
vn 0 -1 0
vn 0 -1 0
vn 0 -1 0
vn 0 -1 0
vn 0 -1 0
vn 0 -1 0
vn 0 -1 0
vn 0 -1 0
vn 0 -1 0
vn 0 -1 0
vn 0 -1 0
vn 0 -1 0
vn 0 -1 0
vn 0 -1 0
vn 0 -1 0
vn 0 -1 0
vn 0 -1 0
vn 0 -1 0
vn 0 -1 0
vn 0 -1 0
vn 0 -1 0
vn 0 -1 0
vn 0 -1 0
vn 0 -1 0
vn 0 -1 0
vn 0 -1 0
vn 0 -1 0
vn 0 -1 0
vn 0 -1 0
vn 0 -1 0
vn 0 -1 0
vn 0 -1 0
vn 0 -1 0
vn 0 -1 0
vn 0 -1 0
vn 0 -1 0
vn 0 -1 0
vn 0 -1 0
vn 0 -1 0
vn 0 -1 0
vn 0 -1 0
vn 0 -1 0
vn 0 -1 0
vn 0 -1 0
vn 0 -1 0
vn 0 -1 0
vn 0 -1 0
vn 0 -1 0
vn 0 -1 0
vn 0 -1 0
vn 0 1 0
vn 0 1 0
vn 0 1 0
vn 0 1 0
vn 0 1 0
vn 0 1 0
vn 0 1 0
vn 0 1 0
vn 0 1 0
vn 0 1 0
vn 0 1 0
vn 0 1 0
vn 0 1 0
vn 0 1 0
vn 0 1 0
vn 0 1 0
vn 0 1 0
vn 0 1 0
vn 0 1 0
vn 0 1 0
vn 0 1 0
vn 0 1 0
vn 0 1 0
vn 0 1 0
vn 0 1 0
vn 0 1 0
vn 0 1 0
vn 0 1 0
vn 0 1 0
vn 0 1 0
vn 0 1 0
vn 0 1 0
vn 0 1 0
vn 0 1 0
vn 0 1 0
vn 0 1 0
vn 0 1 0
vn 0 1 0
vn 0 1 0
vn 0 1 0
vn 0 1 0
vn 0 1 0
vn 0 1 0
vn 0 1 0
vn 0 1 0
vn 0 1 0
vn 0 1 0
vn 0 1 0
vn 0 1 0
vn 0 1 0
vn 0 1 0
vn 0 1 0
vn 0 1 0
g default_0
f 3/3/3 2/2/2 1/1/1
f 3/3/3 1/1/1 4/4/4
f 7/7/7 6/6/6 5/5/5
f 7/7/7 5/5/5 8/8/8
f 11/11/11 10/10/10 9/9/9
f 11/11/11 9/9/9 12/12/12
f 15/15/15 14/14/14 13/13/13
f 15/15/15 16/16/16 14/14/14
f 19/19/19 18/18/18 17/17/17
f 19/19/19 20/20/20 18/18/18
f 23/23/23 22/22/22 21/21/21
f 23/23/23 24/24/24 22/22/22
f 27/27/27 26/26/26 25/25/25
f 27/27/27 25/25/25 28/28/28
f 31/31/31 30/30/30 29/29/29
f 31/31/31 29/29/29 32/32/32
f 35/35/35 34/34/34 33/33/33
f 35/35/35 33/33/33 36/36/36
f 39/39/39 38/38/38 37/37/37
f 39/39/39 37/37/37 40/40/40
f 43/43/43 42/42/42 41/41/41
f 43/43/43 41/41/41 44/44/44
f 47/47/47 46/46/46 45/45/45
f 47/47/47 45/45/45 48/48/48
f 51/51/51 50/50/50 49/49/49
f 51/51/51 49/49/49 52/52/52
f 55/55/55 54/54/54 53/53/53
f 55/55/55 53/53/53 56/56/56
f 59/59/59 58/58/58 57/57/57
f 59/59/59 57/57/57 60/60/60
f 63/63/63 62/62/62 61/61/61
f 63/63/63 61/61/61 64/64/64
f 67/67/67 66/66/66 65/65/65
f 67/67/67 65/65/65 68/68/68
f 71/71/71 70/70/70 69/69/69
f 71/71/71 72/72/72 70/70/70
f 75/75/75 74/74/74 73/73/73
f 75/75/75 76/76/76 74/74/74
f 79/79/79 78/78/78 77/77/77
f 79/79/79 80/80/80 78/78/78
f 83/83/83 82/82/82 81/81/81
f 83/83/83 84/84/84 82/82/82
f 87/87/87 86/86/86 85/85/85
f 87/87/87 88/88/88 86/86/86
f 91/91/91 90/90/90 89/89/89
f 91/91/91 92/92/92 90/90/90
f 95/95/95 94/94/94 93/93/93
f 95/95/95 96/96/96 94/94/94
f 99/99/99 98/98/98 97/97/97
f 99/99/99 100/100/100 98/98/98
f 103/103/103 102/102/102 101/101/101
f 103/103/103 104/104/104 102/102/102
f 107/107/107 106/106/106 105/105/105
f 107/107/107 108/108/108 106/106/106
f 111/111/111 110/110/110 109/109/109
f 111/111/111 112/112/112 110/110/110
f 115/115/115 114/114/114 113/113/113
f 115/115/115 116/116/116 114/114/114
f 119/119/119 118/118/118 117/117/117
f 119/119/119 120/120/120 118/118/118
f 123/123/123 122/122/122 121/121/121
f 123/123/123 121/121/121 124/124/124
f 127/127/127 126/126/126 125/125/125
f 127/127/127 125/125/125 128/128/128
f 131/131/131 130/130/130 129/129/129
f 131/131/131 129/129/129 132/132/132
f 131/131/131 132/132/132 133/133/133
f 131/131/131 133/133/133 134/134/134
f 134/134/134 133/133/133 135/135/135
f 136/136/136 134/134/134 135/135/135
f 136/136/136 135/135/135 137/137/137
f 140/140/140 139/139/139 138/138/138
f 140/140/140 138/138/138 141/141/141
f 140/140/140 141/141/141 142/142/142
f 145/145/145 144/144/144 143/143/143
f 145/145/145 143/143/143 146/146/146
f 149/149/149 148/148/148 147/147/147
f 149/149/149 147/147/147 150/150/150
f 153/153/153 152/152/152 151/151/151
f 153/153/153 151/151/151 154/154/154
f 157/157/157 156/156/156 155/155/155
f 157/157/157 155/155/155 158/158/158
f 161/161/161 160/160/160 159/159/159
f 161/161/161 159/159/159 162/162/162
f 165/165/165 164/164/164 163/163/163
f 165/165/165 163/163/163 166/166/166
f 163/163/163 168/168/168 167/167/167
f 163/163/163 167/167/167 169/169/169
f 172/172/172 171/171/171 170/170/170
f 172/172/172 170/170/170 173/173/173
f 176/176/176 175/175/175 174/174/174
f 176/176/176 177/177/177 175/175/175
f 180/180/180 179/179/179 178/178/178
f 180/180/180 181/181/181 179/179/179
f 184/184/184 183/183/183 182/182/182
f 184/184/184 185/185/185 183/183/183
f 184/184/184 186/186/186 185/185/185
f 184/184/184 187/187/187 186/186/186
f 187/187/187 188/188/188 186/186/186
f 189/189/189 188/188/188 187/187/187
f 189/189/189 190/190/190 188/188/188
f 193/193/193 192/192/192 191/191/191
f 193/193/193 194/194/194 192/192/192
f 193/193/193 195/195/195 194/194/194
f 198/198/198 197/197/197 196/196/196
f 198/198/198 199/199/199 197/197/197
f 202/202/202 201/201/201 200/200/200
f 202/202/202 203/203/203 201/201/201
f 206/206/206 205/205/205 204/204/204
f 206/206/206 207/207/207 205/205/205
f 210/210/210 209/209/209 208/208/208
f 210/210/210 211/211/211 209/209/209
f 214/214/214 213/213/213 212/212/212
f 214/214/214 215/215/215 213/213/213
f 218/218/218 217/217/217 216/216/216
f 218/218/218 219/219/219 217/217/217
f 217/217/217 221/221/221 220/220/220
f 217/217/217 222/222/222 221/221/221
f 225/225/225 224/224/224 223/223/223
f 225/225/225 226/226/226 224/224/224
