g default
v -0.15 0.3 0.8
v -0.15 0 0.8
v -0.15 0 0.7
v -0.15 0.3 0.7
v -0.05 0.2 1.5
v -0.05 0.1 1.5
v -0.05 0.1 0.8
v -0.05 0.2 0.8
v -0.05 0.2 0.7
v -0.05 0.1 0.7
v -0.05 0.1 -1.4
v -0.05 0.2 -1.4
v 0.05 0.2 -1.4
v 0.05 0.1 -1.4
v 0.05 0.1 -1.5
v 0.05 0.2 -1.5
v 0.15 0.1 1.5
v 0.15 0.2 1.5
v 0.15 0.1 1.4
v 0.15 0.2 1.4
v 0.15 0.1 1.4
v 0.15 0.2 1.4
v 0.15 0.1 1.3
v 0.15 0.2 1.3
v 0.15 0.1 1.3
v 0.15 0.2 1.3
v 0.15 0.1 1.2
v 0.15 0.2 1.2
v 0.15 0.1 1.2
v 0.15 0.2 1.2
v 0.15 0.1 1.1
v 0.15 0.2 1.1
v 0.15 0.1 1.1
v 0.15 0.2 1.1
v 0.15 0.1 1
v 0.15 0.2 1
v 0.15 0.1 1
v 0.15 0.2 1
v 0.15 0.1 0.9
v 0.15 0.2 0.9
v 0.15 0.1 0.9
v 0.15 0.2 0.9
v 0.15 0.1 0.8
v 0.15 0.2 0.8
v 0.15 0.1 0.7
v 0.15 0.2 0.7
v 0.15 0.1 -1.2
v 0.15 0.2 -1.2
v 0.15 0.1 -1.2
v 0.15 0.2 -1.2
v 0.15 0.1 -1.5
v 0.15 0.2 -1.5
v 0.25 0 0.8
v 0.25 0.3 0.8
v 0.25 0 0.7
v 0.25 0.3 0.7
v 0.15 0.1 1.5
v -0.05 0.1 1.5
v -0.05 0.2 1.5
v 0.15 0.2 1.5
v -0.05 0.1 0.8
v -0.15 0 0.8
v -0.15 0.3 0.8
v -0.05 0.2 0.8
v 0.15 0.1 0.8
v 0.15 0.2 0.8
v 0.25 0 0.8
v 0.25 0.3 0.8
v -0.15 0 0.7
v -0.05 0.1 0.7
v -0.15 0.3 0.7
v -0.05 0.2 0.7
v 0.05 0.1 0.7
v 0.05 0.2 0.7
v 0.15 0.1 0.7
v 0.15 0.2 0.7
v 0.25 0 0.7
v 0.25 0.3 0.7
v -0.05 0.1 -1.4
v 0.05 0.1 -1.4
v -0.05 0.2 -1.4
v 0.05 0.2 -1.4
v 0.05 0.1 -1.5
v 0.15 0.1 -1.5
v 0.05 0.2 -1.5
v 0.15 0.2 -1.5
v -0.15 0 0.7
v -0.15 0 0.8
v 0.25 0 0.8
v 0.25 0 0.7
v 0.05 0.1 1.4
v -0.05 0.1 1.5
v 0.15 0.1 1.5
v 0.15 0.1 1.4
v 0.05 0.1 1.3
v 0.05 0.1 1.2
v 0.15 0.1 1.3
v 0.15 0.1 1.2
v 0.05 0.1 1.1
v 0.05 0.1 1
v 0.15 0.1 1.1
v 0.15 0.1 1
v 0.05 0.1 0.9
v -0.05 0.1 0.8
v 0.15 0.1 0.9
v 0.15 0.1 0.8
v 0.05 0.1 1.3
v 0.05 0.1 1.4
v 0.15 0.1 1.4
v 0.15 0.1 1.3
v 0.05 0.1 1.1
v 0.05 0.1 1.2
v 0.15 0.1 1.2
v 0.15 0.1 1.1
v 0.05 0.1 0.9
v 0.05 0.1 1
v 0.15 0.1 1
v 0.15 0.1 0.9
v 0.05 0.1 -1.2
v -0.05 0.1 0.7
v 0.05 0.1 0.7
v -0.05 0.1 -1.4
v 0.15 0.1 -1.2
v 0.05 0.1 -1.4
v 0.05 0.1 -1.5
v 0.15 0.1 -1.5
v 0.05 0.1 -1.2
v 0.05 0.1 0.7
v 0.15 0.1 0.7
v 0.15 0.1 -1.2
v -0.05 0.2 1.5
v 0.05 0.2 1.4
v 0.15 0.2 1.5
v 0.15 0.2 1.4
v 0.05 0.2 1.3
v 0.05 0.2 1.2
v 0.15 0.2 1.3
v 0.15 0.2 1.2
v 0.05 0.2 1.1
v 0.05 0.2 1
v 0.15 0.2 1.1
v 0.15 0.2 1
v 0.05 0.2 0.9
v -0.05 0.2 0.8
v 0.15 0.2 0.9
v 0.15 0.2 0.8
v 0.05 0.2 1.4
v 0.05 0.2 1.3
v 0.15 0.2 1.4
v 0.15 0.2 1.3
v 0.05 0.2 1.2
v 0.05 0.2 1.1
v 0.15 0.2 1.2
v 0.15 0.2 1.1
v 0.05 0.2 1
v 0.05 0.2 0.9
v 0.15 0.2 1
v 0.15 0.2 0.9
v -0.05 0.2 0.7
v 0.05 0.2 -1.2
v 0.05 0.2 0.7
v -0.05 0.2 -1.4
v 0.15 0.2 -1.2
v 0.05 0.2 -1.4
v 0.05 0.2 -1.5
v 0.15 0.2 -1.5
v 0.05 0.2 0.7
v 0.05 0.2 -1.2
v 0.15 0.2 0.7
v 0.15 0.2 -1.2
v -0.15 0.3 0.8
v -0.15 0.3 0.7
v 0.25 0.3 0.8
v 0.25 0.3 0.7
vt 0.970703 0.5
vt 0.970703 0.5
vt 0.970703 0.5
vt 0.970703 0.5
vt 0.986328 0.5
vt 0.986328 0.5
vt 0.986328 0.5
vt 0.986328 0.5
vt 0.962891 0.5
vt 0.962891 0.5
vt 0.962891 0.5
vt 0.962891 0.5
vt 0.962891 0.5
vt 0.962891 0.5
vt 0.962891 0.5
vt 0.962891 0.5
vt 0.986328 0.5
vt 0.986328 0.5
vt 0.986328 0.5
vt 0.986328 0.5
vt 0.970703 0.5
vt 0.970703 0.5
vt 0.970703 0.5
vt 0.970703 0.5
vt 0.986328 0.5
vt 0.986328 0.5
vt 0.986328 0.5
vt 0.986328 0.5
vt 0.970703 0.5
vt 0.970703 0.5
vt 0.970703 0.5
vt 0.970703 0.5
vt 0.986328 0.5
vt 0.986328 0.5
vt 0.986328 0.5
vt 0.986328 0.5
vt 0.970703 0.5
vt 0.970703 0.5
vt 0.970703 0.5
vt 0.970703 0.5
vt 0.986328 0.5
vt 0.986328 0.5
vt 0.986328 0.5
vt 0.986328 0.5
vt 0.970703 0.5
vt 0.970703 0.5
vt 0.970703 0.5
vt 0.970703 0.5
vt 0.962891 0.5
vt 0.962891 0.5
vt 0.962891 0.5
vt 0.962891 0.5
vt 0.970703 0.5
vt 0.970703 0.5
vt 0.970703 0.5
vt 0.970703 0.5
vt 0.986328 0.5
vt 0.986328 0.5
vt 0.986328 0.5
vt 0.986328 0.5
vt 0.970703 0.5
vt 0.970703 0.5
vt 0.970703 0.5
vt 0.970703 0.5
vt 0.970703 0.5
vt 0.970703 0.5
vt 0.970703 0.5
vt 0.970703 0.5
vt 0.970703 0.5
vt 0.970703 0.5
vt 0.970703 0.5
vt 0.970703 0.5
vt 0.970703 0.5
vt 0.970703 0.5
vt 0.970703 0.5
vt 0.970703 0.5
vt 0.970703 0.5
vt 0.970703 0.5
vt 0.962891 0.5
vt 0.962891 0.5
vt 0.962891 0.5
vt 0.962891 0.5
vt 0.962891 0.5
vt 0.962891 0.5
vt 0.962891 0.5
vt 0.962891 0.5
vt 0.970703 0.5
vt 0.970703 0.5
vt 0.970703 0.5
vt 0.970703 0.5
vt 0.986328 0.5
vt 0.986328 0.5
vt 0.986328 0.5
vt 0.986328 0.5
vt 0.986328 0.5
vt 0.986328 0.5
vt 0.986328 0.5
vt 0.986328 0.5
vt 0.986328 0.5
vt 0.986328 0.5
vt 0.986328 0.5
vt 0.986328 0.5
vt 0.986328 0.5
vt 0.986328 0.5
vt 0.986328 0.5
vt 0.986328 0.5
vt 0.970703 0.5
vt 0.970703 0.5
vt 0.970703 0.5
vt 0.970703 0.5
vt 0.970703 0.5
vt 0.970703 0.5
vt 0.970703 0.5
vt 0.970703 0.5
vt 0.970703 0.5
vt 0.970703 0.5
vt 0.970703 0.5
vt 0.970703 0.5
vt 0.962891 0.5
vt 0.962891 0.5
vt 0.962891 0.5
vt 0.962891 0.5
vt 0.962891 0.5
vt 0.962891 0.5
vt 0.962891 0.5
vt 0.962891 0.5
vt 0.970703 0.5
vt 0.970703 0.5
vt 0.970703 0.5
vt 0.970703 0.5
vt 0.986328 0.5
vt 0.986328 0.5
vt 0.986328 0.5
vt 0.986328 0.5
vt 0.986328 0.5
vt 0.986328 0.5
vt 0.986328 0.5
vt 0.986328 0.5
vt 0.986328 0.5
vt 0.986328 0.5
vt 0.986328 0.5
vt 0.986328 0.5
vt 0.986328 0.5
vt 0.986328 0.5
vt 0.986328 0.5
vt 0.986328 0.5
vt 0.970703 0.5
vt 0.970703 0.5
vt 0.970703 0.5
vt 0.970703 0.5
vt 0.970703 0.5
vt 0.970703 0.5
vt 0.970703 0.5
vt 0.970703 0.5
vt 0.970703 0.5
vt 0.970703 0.5
vt 0.970703 0.5
vt 0.970703 0.5
vt 0.962891 0.5
vt 0.962891 0.5
vt 0.962891 0.5
vt 0.962891 0.5
vt 0.962891 0.5
vt 0.962891 0.5
vt 0.962891 0.5
vt 0.962891 0.5
vt 0.970703 0.5
vt 0.970703 0.5
vt 0.970703 0.5
vt 0.970703 0.5
vt 0.970703 0.5
vt 0.970703 0.5
vt 0.970703 0.5
vt 0.970703 0.5
vn -1 0 0
vn -1 0 0
vn -1 0 0
vn -1 0 0
vn -1 0 0
vn -1 0 0
vn -1 0 0
vn -1 0 0
vn -1 0 0
vn -1 0 0
vn -1 0 0
vn -1 0 0
vn -1 0 0
vn -1 0 0
vn -1 0 0
vn -1 0 0
vn 1 0 0
vn 1 0 0
vn 1 0 0
vn 1 0 0
vn 1 0 0
vn 1 0 0
vn 1 0 0
vn 1 0 0
vn 1 0 0
vn 1 0 0
vn 1 0 0
vn 1 0 0
vn 1 0 0
vn 1 0 0
vn 1 0 0
vn 1 0 0
vn 1 0 0
vn 1 0 0
vn 1 0 0
vn 1 0 0
vn 1 0 0
vn 1 0 0
vn 1 0 0
vn 1 0 0
vn 1 0 0
vn 1 0 0
vn 1 0 0
vn 1 0 0
vn 1 0 0
vn 1 0 0
vn 1 0 0
vn 1 0 0
vn 1 0 0
vn 1 0 0
vn 1 0 0
vn 1 0 0
vn 1 0 0
vn 1 0 0
vn 1 0 0
vn 1 0 0
vn 0 0 1
vn 0 0 1
vn 0 0 1
vn 0 0 1
vn 0 0 1
vn 0 0 1
vn 0 0 1
vn 0 0 1
vn 0 0 1
vn 0 0 1
vn 0 0 1
vn 0 0 1
vn 0 0 -1
vn 0 0 -1
vn 0 0 -1
vn 0 0 -1
vn 0 0 -1
vn 0 0 -1
vn 0 0 -1
vn 0 0 -1
vn 0 0 -1
vn 0 0 -1
vn 0 0 -1
vn 0 0 -1
vn 0 0 -1
vn 0 0 -1
vn 0 0 -1
vn 0 0 -1
vn 0 0 -1
vn 0 0 -1
vn 0 -1 0
vn 0 -1 0
vn 0 -1 0
vn 0 -1 0
vn 0 -1 0
vn 0 -1 0
vn 0 -1 0
vn 0 -1 0
vn 0 -1 0
vn 0 -1 0
vn 0 -1 0
vn 0 -1 0
vn 0 -1 0
vn 0 -1 0
vn 0 -1 0
vn 0 -1 0
vn 0 -1 0
vn 0 -1 0
vn 0 -1 0
vn 0 -1 0
vn 0 -1 0
vn 0 -1 0
vn 0 -1 0
vn 0 -1 0
vn 0 -1 0
vn 0 -1 0
vn 0 -1 0
vn 0 -1 0
vn 0 -1 0
vn 0 -1 0
vn 0 -1 0
vn 0 -1 0
vn 0 -1 0
vn 0 -1 0
vn 0 -1 0
vn 0 -1 0
vn 0 -1 0
vn 0 -1 0
vn 0 -1 0
vn 0 -1 0
vn 0 -1 0
vn 0 -1 0
vn 0 -1 0
vn 0 -1 0
vn 0 1 0
vn 0 1 0
vn 0 1 0
vn 0 1 0
vn 0 1 0
vn 0 1 0
vn 0 1 0
vn 0 1 0
vn 0 1 0
vn 0 1 0
vn 0 1 0
vn 0 1 0
vn 0 1 0
vn 0 1 0
vn 0 1 0
vn 0 1 0
vn 0 1 0
vn 0 1 0
vn 0 1 0
vn 0 1 0
vn 0 1 0
vn 0 1 0
vn 0 1 0
vn 0 1 0
vn 0 1 0
vn 0 1 0
vn 0 1 0
vn 0 1 0
vn 0 1 0
vn 0 1 0
vn 0 1 0
vn 0 1 0
vn 0 1 0
vn 0 1 0
vn 0 1 0
vn 0 1 0
vn 0 1 0
vn 0 1 0
vn 0 1 0
vn 0 1 0
vn 0 1 0
vn 0 1 0
vn 0 1 0
vn 0 1 0
g default_0
f 3/3/3 2/2/2 1/1/1
f 3/3/3 1/1/1 4/4/4
f 7/7/7 6/6/6 5/5/5
f 7/7/7 5/5/5 8/8/8
f 11/11/11 10/10/10 9/9/9
f 11/11/11 9/9/9 12/12/12
f 15/15/15 14/14/14 13/13/13
f 15/15/15 13/13/13 16/16/16
f 19/19/19 18/18/18 17/17/17
f 19/19/19 20/20/20 18/18/18
f 23/23/23 22/22/22 21/21/21
f 23/23/23 24/24/24 22/22/22
f 27/27/27 26/26/26 25/25/25
f 27/27/27 28/28/28 26/26/26
f 31/31/31 30/30/30 29/29/29
f 31/31/31 32/32/32 30/30/30
f 35/35/35 34/34/34 33/33/33
f 35/35/35 36/36/36 34/34/34
f 39/39/39 38/38/38 37/37/37
f 39/39/39 40/40/40 38/38/38
f 43/43/43 42/42/42 41/41/41
f 43/43/43 44/44/44 42/42/42
f 47/47/47 46/46/46 45/45/45
f 47/47/47 48/48/48 46/46/46
f 51/51/51 50/50/50 49/49/49
f 51/51/51 52/52/52 50/50/50
f 55/55/55 54/54/54 53/53/53
f 55/55/55 56/56/56 54/54/54
f 59/59/59 58/58/58 57/57/57
f 59/59/59 57/57/57 60/60/60
f 63/63/63 62/62/62 61/61/61
f 63/63/63 61/61/61 64/64/64
f 61/61/61 62/62/62 65/65/65
f 63/63/63 64/64/64 66/66/66
f 65/65/65 62/62/62 67/67/67
f 66/66/66 65/65/65 67/67/67
f 63/63/63 66/66/66 68/68/68
f 66/66/66 67/67/67 68/68/68
f 71/71/71 70/70/70 69/69/69
f 71/71/71 72/72/72 70/70/70
f 70/70/70 73/73/73 69/69/69
f 71/71/71 74/74/74 72/72/72
f 73/73/73 75/75/75 69/69/69
f 71/71/71 76/76/76 74/74/74
f 75/75/75 77/77/77 69/69/69
f 76/76/76 77/77/77 75/75/75
f 71/71/71 78/78/78 76/76/76
f 76/76/76 78/78/78 77/77/77
f 81/81/81 80/80/80 79/79/79
f 81/81/81 82/82/82 80/80/80
f 85/85/85 84/84/84 83/83/83
f 85/85/85 86/86/86 84/84/84
f 89/89/89 88/88/88 87/87/87
f 89/89/89 87/87/87 90/90/90
f 93/93/93 92/92/92 91/91/91
f 93/93/93 91/91/91 94/94/94
f 91/91/91 92/92/92 95/95/95
f 95/95/95 92/92/92 96/96/96
f 97/97/97 95/95/95 96/96/96
f 97/97/97 96/96/96 98/98/98
f 96/96/96 92/92/92 99/99/99
f 99/99/99 92/92/92 100/100/100
f 101/101/101 99/99/99 100/100/100
f 101/101/101 100/100/100 102/102/102
f 100/100/100 92/92/92 103/103/103
f 103/103/103 92/92/92 104/104/104
f 105/105/105 103/103/103 104/104/104
f 105/105/105 104/104/104 106/106/106
f 109/109/109 108/108/108 107/107/107
f 109/109/109 107/107/107 110/110/110
f 113/113/113 112/112/112 111/111/111
f 113/113/113 111/111/111 114/114/114
f 117/117/117 116/116/116 115/115/115
f 117/117/117 115/115/115 118/118/118
f 121/121/121 120/120/120 119/119/119
f 119/119/119 120/120/120 122/122/122
f 123/123/123 119/119/119 122/122/122
f 123/123/123 122/122/122 124/124/124
f 123/123/123 124/124/124 125/125/125
f 123/123/123 125/125/125 126/126/126
f 129/129/129 128/128/128 127/127/127
f 129/129/129 127/127/127 130/130/130
f 133/133/133 132/132/132 131/131/131
f 133/133/133 134/134/134 132/132/132
f 132/132/132 135/135/135 131/131/131
f 135/135/135 136/136/136 131/131/131
f 137/137/137 136/136/136 135/135/135
f 137/137/137 138/138/138 136/136/136
f 136/136/136 139/139/139 131/131/131
f 139/139/139 140/140/140 131/131/131
f 141/141/141 140/140/140 139/139/139
f 141/141/141 142/142/142 140/140/140
f 140/140/140 143/143/143 131/131/131
f 143/143/143 144/144/144 131/131/131
f 145/145/145 144/144/144 143/143/143
f 145/145/145 146/146/146 144/144/144
f 149/149/149 148/148/148 147/147/147
f 149/149/149 150/150/150 148/148/148
f 153/153/153 152/152/152 151/151/151
f 153/153/153 154/154/154 152/152/152
f 157/157/157 156/156/156 155/155/155
f 157/157/157 158/158/158 156/156/156
f 161/161/161 160/160/160 159/159/159
f 160/160/160 162/162/162 159/159/159
f 163/163/163 162/162/162 160/160/160
f 163/163/163 164/164/164 162/162/162
f 163/163/163 165/165/165 164/164/164
f 163/163/163 166/166/166 165/165/165
f 169/169/169 168/168/168 167/167/167
f 169/169/169 170/170/170 168/168/168
f 173/173/173 172/172/172 171/171/171
f 173/173/173 174/174/174 172/172/172
