g default
v -0.3 0.6 0.2
v -0.3 0.1 0.2
v -0.3 0.1 -0.2
v -0.3 0.6 0.1
v -0.3 0.6 -0.1
v -0.3 0.6 -0.2
v -0.3 0.8 0
v -0.3 0.8 -0.1
v -0.3 1.1 0.1
v -0.3 1.1 0
v -0.2 0.1 0.2
v -0.2 0 0.2
v -0.2 0 -0.2
v -0.2 0.1 -0.2
v -0.2 0.6 0.3
v -0.2 0.1 0.3
v -0.2 0.6 0.2
v -0.2 0.6 -0.2
v -0.2 0.1 -0.3
v -0.2 0.6 -0.3
v -0.2 0.7 -0.1
v -0.2 0.6 -0.1
v -0.2 0.7 -0.2
v -0.2 1.1 0
v -0.2 0.8 0
v -0.2 0.8 -0.1
v -0.2 1.3 -0.1
v -0.2 1.3 0.1
v -0.2 1.1 0.1
v -0.1 0.1 0.3
v -0.1 0 0.3
v -0.1 0 0.2
v -0.1 0.1 0.2
v -0.1 0.1 -0.2
v -0.1 0 -0.2
v -0.1 0 -0.3
v -0.1 0.1 -0.3
v -0.1 1.3 0.2
v -0.1 0.6 0.2
v -0.1 0.6 0.1
v -0.1 1.3 0.1
v -0.1 1.5 0.1
v -0.1 1.3 -0.1
v -0.1 1.5 -0.1
v -0.1 0.7 -0.1
v -0.1 0.7 -0.2
v -0.1 1.3 -0.2
v 0.1 0.4 0.3
v 0.1 0.2 0.3
v 0.1 0.2 0.2
v 0.1 0.4 0.2
v 0.1 0.4 -0.2
v 0.1 0.2 -0.2
v 0.1 0.2 -0.3
v 0.1 0.4 -0.3
v 0 0.2 0.3
v 0 0.4 0.3
v 0 0.2 0.2
v 0 0.4 0.2
v 0 0.2 -0.2
v 0 0.5 -0.2
v 0 0.2 -0.3
v 0 0.5 -0.3
v 0.1 0.5 -0.2
v 0.1 0.6 -0.2
v 0.1 0.5 -0.3
v 0.1 0.6 -0.3
v 0.1 0.6 -0.1
v 0.1 1.3 -0.1
v 0.1 1.3 -0.2
v 0.1 0.6 0.2
v 0.1 1.3 0.2
v 0.1 0.6 0.1
v 0.1 1.3 0.1
v 0.1 1.4 0.1
v 0.1 1.5 0.1
v 0.1 1.4 -0.1
v 0.1 1.5 -0.1
v 0.2 0 0.3
v 0.2 0.2 0.3
v 0.2 0 -0.3
v 0.2 0.2 -0.1
v 0.2 0.4 -0.1
v 0.2 0.4 -0.2
v 0.2 0.4 -0.3
v 0.2 0.5 0
v 0.2 0.4 0
v 0.2 0.6 -0.1
v 0.2 0.6 0.1
v 0.2 0.6 0.3
v 0.2 0.5 0.3
v 0.2 0.6 -0.2
v 0.2 1.4 0.1
v 0.2 1.4 -0.1
v 0.3 0.2 0.3
v 0.3 0.4 0
v 0.3 0.2 -0.1
v 0.3 0.4 -0.1
v 0.3 0.5 0.3
v 0.3 0.5 0
v -0.1 0.1 0.3
v -0.2 0.1 0.3
v -0.2 0.6 0.3
v 0 0.2 0.3
v -0.1 0 0.3
v 0 0.4 0.3
v 0.1 0.2 0.3
v 0.1 0.4 0.3
v 0.2 0 0.3
v 0.2 0.2 0.3
v 0.2 0.5 0.3
v 0.2 0.6 0.3
v 0.3 0.2 0.3
v 0.3 0.5 0.3
v -0.2 0.1 0.2
v -0.3 0.1 0.2
v -0.3 0.6 0.2
v -0.2 0.6 0.2
v -0.1 0 0.2
v -0.2 0 0.2
v -0.1 0.1 0.2
v 0.1 0.2 0.2
v 0 0.2 0.2
v 0 0.4 0.2
v 0.1 0.4 0.2
v 0.1 0.6 0.2
v -0.1 0.6 0.2
v -0.1 1.3 0.2
v 0.1 1.3 0.2
v -0.2 1.1 0.1
v -0.3 0.6 0.1
v -0.3 1.1 0.1
v -0.1 0.6 0.1
v -0.2 1.3 0.1
v -0.1 1.3 0.1
v 0.1 1.3 0.1
v -0.1 1.5 0.1
v 0.1 1.4 0.1
v 0.1 1.5 0.1
v 0.2 0.6 0.1
v 0.1 0.6 0.1
v 0.2 1.4 0.1
v -0.3 0.8 0
v -0.2 0.8 0
v -0.3 1.1 0
v -0.2 1.1 0
v 0.2 0.4 0
v 0.3 0.4 0
v 0.2 0.5 0
v 0.3 0.5 0
v -0.3 0.6 -0.1
v -0.2 0.6 -0.1
v -0.3 0.8 -0.1
v -0.2 0.7 -0.1
v -0.2 0.8 -0.1
v -0.1 0.7 -0.1
v -0.2 1.3 -0.1
v -0.1 1.3 -0.1
v 0.1 1.3 -0.1
v -0.1 1.5 -0.1
v 0.1 1.4 -0.1
v 0.1 1.5 -0.1
v 0.2 0.6 -0.1
v 0.1 0.6 -0.1
v 0.2 1.4 -0.1
v 0.2 0.2 -0.1
v 0.3 0.2 -0.1
v 0.2 0.4 -0.1
v 0.3 0.4 -0.1
v -0.3 0.1 -0.2
v -0.2 0.1 -0.2
v -0.3 0.6 -0.2
v -0.2 0.6 -0.2
v -0.2 0 -0.2
v -0.1 0 -0.2
v -0.1 0.1 -0.2
v -0.1 0.7 -0.2
v -0.2 0.7 -0.2
v 0.1 0.6 -0.2
v -0.1 1.3 -0.2
v 0.1 1.3 -0.2
v 0.1 0.5 -0.2
v 0.2 0.4 -0.2
v 0.1 0.4 -0.2
v 0 0.5 -0.2
v 0.1 0.2 -0.2
v 0 0.2 -0.2
v 0.2 0.6 -0.2
v -0.2 0.1 -0.3
v -0.1 0.1 -0.3
v -0.2 0.6 -0.3
v 0 0.2 -0.3
v -0.1 0 -0.3
v 0 0.5 -0.3
v 0.1 0.2 -0.3
v 0.1 0.5 -0.3
v 0.1 0.6 -0.3
v 0.2 0 -0.3
v 0.1 0.4 -0.3
v 0.2 0.4 -0.3
v -0.1 0 0.2
v -0.1 0 0.3
v 0.2 0 0.3
v -0.1 0 -0.2
v -0.2 0 -0.2
v -0.2 0 0.2
v -0.1 0 -0.3
v 0.2 0 -0.3
v -0.2 0.1 0.2
v -0.2 0.1 0.3
v -0.1 0.1 0.3
v -0.1 0.1 0.2
v -0.3 0.1 -0.2
v -0.3 0.1 0.2
v -0.2 0.1 -0.2
v -0.2 0.1 -0.3
v -0.1 0.1 -0.2
v -0.1 0.1 -0.3
v 0.2 0.2 -0.1
v 0.2 0.2 0.3
v 0.3 0.2 0.3
v 0.3 0.2 -0.1
v 0 0.4 0.2
v 0 0.4 0.3
v 0.1 0.4 0.3
v 0.1 0.4 0.2
v 0 0.5 -0.3
v 0 0.5 -0.2
v 0.1 0.5 -0.2
v 0.1 0.5 -0.3
v 0 0.2 0.3
v 0 0.2 0.2
v 0.1 0.2 0.3
v 0.1 0.2 0.2
v 0 0.2 -0.2
v 0 0.2 -0.3
v 0.1 0.2 -0.2
v 0.1 0.2 -0.3
v 0.2 0.4 0
v 0.2 0.4 -0.1
v 0.3 0.4 0
v 0.3 0.4 -0.1
v 0.1 0.4 -0.2
v 0.1 0.4 -0.3
v 0.2 0.4 -0.2
v 0.2 0.4 -0.3
v 0.2 0.5 0.3
v 0.2 0.5 0
v 0.3 0.5 0.3
v 0.3 0.5 0
v -0.2 0.6 0.3
v -0.2 0.6 0.2
v 0.2 0.6 0.3
v -0.1 0.6 0.2
v 0.1 0.6 0.2
v -0.3 0.6 0.1
v -0.3 0.6 0.2
v -0.1 0.6 0.1
v 0.1 0.6 0.1
v 0.2 0.6 0.1
v -0.3 0.6 -0.1
v -0.3 0.6 -0.2
v -0.2 0.6 -0.1
v -0.2 0.6 -0.2
v -0.2 0.6 -0.3
v 0.1 0.6 -0.2
v 0.1 0.6 -0.3
v 0.1 0.6 -0.1
v 0.2 0.6 -0.1
v 0.2 0.6 -0.2
v -0.2 0.7 -0.1
v -0.2 0.7 -0.2
v -0.1 0.7 -0.1
v -0.1 0.7 -0.2
v -0.3 0.8 0
v -0.3 0.8 -0.1
v -0.2 0.8 0
v -0.2 0.8 -0.1
v -0.3 1.1 0.1
v -0.3 1.1 0
v -0.2 1.1 0.1
v -0.2 1.1 0
v -0.1 1.3 0.2
v -0.1 1.3 0.1
v 0.1 1.3 0.2
v 0.1 1.3 0.1
v -0.2 1.3 0.1
v -0.2 1.3 -0.1
v -0.1 1.3 -0.1
v -0.1 1.3 -0.2
v 0.1 1.3 -0.1
v 0.1 1.3 -0.2
v 0.1 1.4 0.1
v 0.1 1.4 -0.1
v 0.2 1.4 0.1
v 0.2 1.4 -0.1
v -0.1 1.5 0.1
v -0.1 1.5 -0.1
v 0.1 1.5 0.1
v 0.1 1.5 -0.1
vt 0.990234 0.5
vt 0.990234 0.5
vt 0.990234 0.5
vt 0.990234 0.5
vt 0.990234 0.5
vt 0.990234 0.5
vt 0.990234 0.5
vt 0.990234 0.5
vt 0.990234 0.5
vt 0.990234 0.5
vt 0.990234 0.5
vt 0.990234 0.5
vt 0.990234 0.5
vt 0.990234 0.5
vt 0.990234 0.5
vt 0.990234 0.5
vt 0.990234 0.5
vt 0.990234 0.5
vt 0.990234 0.5
vt 0.990234 0.5
vt 0.990234 0.5
vt 0.990234 0.5
vt 0.990234 0.5
vt 0.990234 0.5
vt 0.990234 0.5
vt 0.990234 0.5
vt 0.990234 0.5
vt 0.990234 0.5
vt 0.990234 0.5
vt 0.990234 0.5
vt 0.990234 0.5
vt 0.990234 0.5
vt 0.990234 0.5
vt 0.990234 0.5
vt 0.990234 0.5
vt 0.990234 0.5
vt 0.990234 0.5
vt 0.990234 0.5
vt 0.990234 0.5
vt 0.990234 0.5
vt 0.990234 0.5
vt 0.990234 0.5
vt 0.990234 0.5
vt 0.990234 0.5
vt 0.990234 0.5
vt 0.990234 0.5
vt 0.990234 0.5
vt 0.990234 0.5
vt 0.990234 0.5
vt 0.990234 0.5
vt 0.990234 0.5
vt 0.990234 0.5
vt 0.990234 0.5
vt 0.990234 0.5
vt 0.990234 0.5
vt 0.990234 0.5
vt 0.990234 0.5
vt 0.990234 0.5
vt 0.990234 0.5
vt 0.990234 0.5
vt 0.990234 0.5
vt 0.990234 0.5
vt 0.990234 0.5
vt 0.990234 0.5
vt 0.990234 0.5
vt 0.990234 0.5
vt 0.990234 0.5
vt 0.990234 0.5
vt 0.990234 0.5
vt 0.990234 0.5
vt 0.990234 0.5
vt 0.990234 0.5
vt 0.990234 0.5
vt 0.990234 0.5
vt 0.990234 0.5
vt 0.990234 0.5
vt 0.990234 0.5
vt 0.990234 0.5
vt 0.990234 0.5
vt 0.990234 0.5
vt 0.990234 0.5
vt 0.990234 0.5
vt 0.990234 0.5
vt 0.990234 0.5
vt 0.990234 0.5
vt 0.990234 0.5
vt 0.990234 0.5
vt 0.990234 0.5
vt 0.990234 0.5
vt 0.990234 0.5
vt 0.990234 0.5
vt 0.990234 0.5
vt 0.990234 0.5
vt 0.990234 0.5
vt 0.990234 0.5
vt 0.990234 0.5
vt 0.990234 0.5
vt 0.990234 0.5
vt 0.990234 0.5
vt 0.990234 0.5
vt 0.990234 0.5
vt 0.990234 0.5
vt 0.990234 0.5
vt 0.990234 0.5
vt 0.990234 0.5
vt 0.990234 0.5
vt 0.990234 0.5
vt 0.990234 0.5
vt 0.990234 0.5
vt 0.990234 0.5
vt 0.990234 0.5
vt 0.990234 0.5
vt 0.990234 0.5
vt 0.990234 0.5
vt 0.990234 0.5
vt 0.990234 0.5
vt 0.990234 0.5
vt 0.990234 0.5
vt 0.990234 0.5
vt 0.990234 0.5
vt 0.990234 0.5
vt 0.990234 0.5
vt 0.990234 0.5
vt 0.990234 0.5
vt 0.990234 0.5
vt 0.990234 0.5
vt 0.990234 0.5
vt 0.990234 0.5
vt 0.990234 0.5
vt 0.990234 0.5
vt 0.990234 0.5
vt 0.990234 0.5
vt 0.990234 0.5
vt 0.990234 0.5
vt 0.990234 0.5
vt 0.990234 0.5
vt 0.990234 0.5
vt 0.990234 0.5
vt 0.990234 0.5
vt 0.990234 0.5
vt 0.990234 0.5
vt 0.990234 0.5
vt 0.990234 0.5
vt 0.990234 0.5
vt 0.990234 0.5
vt 0.990234 0.5
vt 0.990234 0.5
vt 0.990234 0.5
vt 0.990234 0.5
vt 0.990234 0.5
vt 0.990234 0.5
vt 0.990234 0.5
vt 0.990234 0.5
vt 0.990234 0.5
vt 0.990234 0.5
vt 0.990234 0.5
vt 0.990234 0.5
vt 0.990234 0.5
vt 0.990234 0.5
vt 0.990234 0.5
vt 0.990234 0.5
vt 0.990234 0.5
vt 0.990234 0.5
vt 0.990234 0.5
vt 0.990234 0.5
vt 0.990234 0.5
vt 0.990234 0.5
vt 0.990234 0.5
vt 0.990234 0.5
vt 0.990234 0.5
vt 0.990234 0.5
vt 0.990234 0.5
vt 0.990234 0.5
vt 0.990234 0.5
vt 0.990234 0.5
vt 0.990234 0.5
vt 0.990234 0.5
vt 0.990234 0.5
vt 0.990234 0.5
vt 0.990234 0.5
vt 0.990234 0.5
vt 0.990234 0.5
vt 0.990234 0.5
vt 0.990234 0.5
vt 0.990234 0.5
vt 0.990234 0.5
vt 0.990234 0.5
vt 0.990234 0.5
vt 0.990234 0.5
vt 0.990234 0.5
vt 0.990234 0.5
vt 0.990234 0.5
vt 0.990234 0.5
vt 0.990234 0.5
vt 0.990234 0.5
vt 0.990234 0.5
vt 0.990234 0.5
vt 0.990234 0.5
vt 0.990234 0.5
vt 0.990234 0.5
vt 0.990234 0.5
vt 0.990234 0.5
vt 0.990234 0.5
vt 0.990234 0.5
vt 0.990234 0.5
vt 0.990234 0.5
vt 0.990234 0.5
vt 0.990234 0.5
vt 0.990234 0.5
vt 0.990234 0.5
vt 0.990234 0.5
vt 0.990234 0.5
vt 0.990234 0.5
vt 0.990234 0.5
vt 0.990234 0.5
vt 0.990234 0.5
vt 0.990234 0.5
vt 0.990234 0.5
vt 0.990234 0.5
vt 0.990234 0.5
vt 0.990234 0.5
vt 0.990234 0.5
vt 0.990234 0.5
vt 0.990234 0.5
vt 0.990234 0.5
vt 0.990234 0.5
vt 0.990234 0.5
vt 0.990234 0.5
vt 0.990234 0.5
vt 0.990234 0.5
vt 0.990234 0.5
vt 0.990234 0.5
vt 0.990234 0.5
vt 0.990234 0.5
vt 0.990234 0.5
vt 0.990234 0.5
vt 0.990234 0.5
vt 0.990234 0.5
vt 0.990234 0.5
vt 0.990234 0.5
vt 0.990234 0.5
vt 0.990234 0.5
vt 0.990234 0.5
vt 0.990234 0.5
vt 0.990234 0.5
vt 0.990234 0.5
vt 0.990234 0.5
vt 0.990234 0.5
vt 0.990234 0.5
vt 0.990234 0.5
vt 0.990234 0.5
vt 0.990234 0.5
vt 0.990234 0.5
vt 0.990234 0.5
vt 0.990234 0.5
vt 0.990234 0.5
vt 0.990234 0.5
vt 0.990234 0.5
vt 0.990234 0.5
vt 0.990234 0.5
vt 0.990234 0.5
vt 0.990234 0.5
vt 0.990234 0.5
vt 0.990234 0.5
vt 0.990234 0.5
vt 0.990234 0.5
vt 0.990234 0.5
vt 0.990234 0.5
vt 0.990234 0.5
vt 0.990234 0.5
vt 0.990234 0.5
vt 0.990234 0.5
vt 0.990234 0.5
vt 0.990234 0.5
vt 0.990234 0.5
vt 0.990234 0.5
vt 0.990234 0.5
vt 0.990234 0.5
vt 0.990234 0.5
vt 0.990234 0.5
vt 0.990234 0.5
vt 0.990234 0.5
vt 0.990234 0.5
vt 0.990234 0.5
vt 0.990234 0.5
vt 0.990234 0.5
vt 0.990234 0.5
vt 0.990234 0.5
vt 0.990234 0.5
vt 0.990234 0.5
vt 0.990234 0.5
vt 0.990234 0.5
vt 0.990234 0.5
vt 0.990234 0.5
vt 0.990234 0.5
vt 0.990234 0.5
vt 0.990234 0.5
vt 0.990234 0.5
vt 0.990234 0.5
vt 0.990234 0.5
vn -1 0 0
vn -1 0 0
vn -1 0 0
vn -1 0 0
vn -1 0 0
vn -1 0 0
vn -1 0 0
vn -1 0 0
vn -1 0 0
vn -1 0 0
vn -1 0 0
vn -1 0 0
vn -1 0 0
vn -1 0 0
vn -1 0 0
vn -1 0 0
vn -1 0 0
vn -1 0 0
vn -1 0 0
vn -1 0 0
vn -1 0 0
vn -1 0 0
vn -1 0 0
vn -1 0 0
vn -1 0 0
vn -1 0 0
vn -1 0 0
vn -1 0 0
vn -1 0 0
vn -1 0 0
vn -1 0 0
vn -1 0 0
vn -1 0 0
vn -1 0 0
vn -1 0 0
vn -1 0 0
vn -1 0 0
vn -1 0 0
vn -1 0 0
vn -1 0 0
vn -1 0 0
vn -1 0 0
vn -1 0 0
vn -1 0 0
vn -1 0 0
vn -1 0 0
vn -1 0 0
vn -1 0 0
vn -1 0 0
vn -1 0 0
vn -1 0 0
vn -1 0 0
vn -1 0 0
vn -1 0 0
vn -1 0 0
vn 1 0 0
vn 1 0 0
vn 1 0 0
vn 1 0 0
vn 1 0 0
vn 1 0 0
vn 1 0 0
vn 1 0 0
vn 1 0 0
vn 1 0 0
vn 1 0 0
vn 1 0 0
vn 1 0 0
vn 1 0 0
vn 1 0 0
vn 1 0 0
vn 1 0 0
vn 1 0 0
vn 1 0 0
vn 1 0 0
vn 1 0 0
vn 1 0 0
vn 1 0 0
vn 1 0 0
vn 1 0 0
vn 1 0 0
vn 1 0 0
vn 1 0 0
vn 1 0 0
vn 1 0 0
vn 1 0 0
vn 1 0 0
vn 1 0 0
vn 1 0 0
vn 1 0 0
vn 1 0 0
vn 1 0 0
vn 1 0 0
vn 1 0 0
vn 1 0 0
vn 1 0 0
vn 1 0 0
vn 1 0 0
vn 1 0 0
vn 1 0 0
vn 0 0 1
vn 0 0 1
vn 0 0 1
vn 0 0 1
vn 0 0 1
vn 0 0 1
vn 0 0 1
vn 0 0 1
vn 0 0 1
vn 0 0 1
vn 0 0 1
vn 0 0 1
vn 0 0 1
vn 0 0 1
vn 0 0 1
vn 0 0 1
vn 0 0 1
vn 0 0 1
vn 0 0 1
vn 0 0 1
vn 0 0 1
vn 0 0 1
vn 0 0 1
vn 0 0 1
vn 0 0 1
vn 0 0 1
vn 0 0 1
vn 0 0 1
vn 0 0 1
vn 0 0 1
vn 0 0 1
vn 0 0 1
vn 0 0 1
vn 0 0 1
vn 0 0 1
vn 0 0 1
vn 0 0 1
vn 0 0 1
vn 0 0 1
vn 0 0 1
vn 0 0 1
vn 0 0 1
vn 0 0 -1
vn 0 0 -1
vn 0 0 -1
vn 0 0 -1
vn 0 0 -1
vn 0 0 -1
vn 0 0 -1
vn 0 0 -1
vn 0 0 -1
vn 0 0 -1
vn 0 0 -1
vn 0 0 -1
vn 0 0 -1
vn 0 0 -1
vn 0 0 -1
vn 0 0 -1
vn 0 0 -1
vn 0 0 -1
vn 0 0 -1
vn 0 0 -1
vn 0 0 -1
vn 0 0 -1
vn 0 0 -1
vn 0 0 -1
vn 0 0 -1
vn 0 0 -1
vn 0 0 -1
vn 0 0 -1
vn 0 0 -1
vn 0 0 -1
vn 0 0 -1
vn 0 0 -1
vn 0 0 -1
vn 0 0 -1
vn 0 0 -1
vn 0 0 -1
vn 0 0 -1
vn 0 0 -1
vn 0 0 -1
vn 0 0 -1
vn 0 0 -1
vn 0 0 -1
vn 0 0 -1
vn 0 0 -1
vn 0 0 -1
vn 0 0 -1
vn 0 0 -1
vn 0 0 -1
vn 0 0 -1
vn 0 0 -1
vn 0 0 -1
vn 0 0 -1
vn 0 0 -1
vn 0 0 -1
vn 0 0 -1
vn 0 0 -1
vn 0 0 -1
vn 0 0 -1
vn 0 -1 0
vn 0 -1 0
vn 0 -1 0
vn 0 -1 0
vn 0 -1 0
vn 0 -1 0
vn 0 -1 0
vn 0 -1 0
vn 0 -1 0
vn 0 -1 0
vn 0 -1 0
vn 0 -1 0
vn 0 -1 0
vn 0 -1 0
vn 0 -1 0
vn 0 -1 0
vn 0 -1 0
vn 0 -1 0
vn 0 -1 0
vn 0 -1 0
vn 0 -1 0
vn 0 -1 0
vn 0 -1 0
vn 0 -1 0
vn 0 -1 0
vn 0 -1 0
vn 0 -1 0
vn 0 -1 0
vn 0 -1 0
vn 0 -1 0
vn 0 1 0
vn 0 1 0
vn 0 1 0
vn 0 1 0
vn 0 1 0
vn 0 1 0
vn 0 1 0
vn 0 1 0
vn 0 1 0
vn 0 1 0
vn 0 1 0
vn 0 1 0
vn 0 1 0
vn 0 1 0
vn 0 1 0
vn 0 1 0
vn 0 1 0
vn 0 1 0
vn 0 1 0
vn 0 1 0
vn 0 1 0
vn 0 1 0
vn 0 1 0
vn 0 1 0
vn 0 1 0
vn 0 1 0
vn 0 1 0
vn 0 1 0
vn 0 1 0
vn 0 1 0
vn 0 1 0
vn 0 1 0
vn 0 1 0
vn 0 1 0
vn 0 1 0
vn 0 1 0
vn 0 1 0
vn 0 1 0
vn 0 1 0
vn 0 1 0
vn 0 1 0
vn 0 1 0
vn 0 1 0
vn 0 1 0
vn 0 1 0
vn 0 1 0
vn 0 1 0
vn 0 1 0
vn 0 1 0
vn 0 1 0
vn 0 1 0
vn 0 1 0
vn 0 1 0
vn 0 1 0
vn 0 1 0
vn 0 1 0
vn 0 1 0
vn 0 1 0
vn 0 1 0
vn 0 1 0
vn 0 1 0
vn 0 1 0
vn 0 1 0
vn 0 1 0
vn 0 1 0
vn 0 1 0
vn 0 1 0
vn 0 1 0
vn 0 1 0
vn 0 1 0
g default_0
f 3/3/3 2/2/2 1/1/1
f 3/3/3 1/1/1 4/4/4
f 3/3/3 4/4/4 5/5/5
f 3/3/3 5/5/5 6/6/6
f 5/5/5 4/4/4 7/7/7
f 5/5/5 7/7/7 8/8/8
f 7/7/7 4/4/4 9/9/9
f 7/7/7 9/9/9 10/10/10
f 13/13/13 12/12/12 11/11/11
f 13/13/13 11/11/11 14/14/14
f 11/11/11 16/16/16 15/15/15
f 11/11/11 15/15/15 17/17/17
f 19/19/19 14/14/14 18/18/18
f 19/19/19 18/18/18 20/20/20
f 18/18/18 22/22/22 21/21/21
f 18/18/18 21/21/21 23/23/23
f 26/26/26 25/25/25 24/24/24
f 26/26/26 24/24/24 27/27/27
f 24/24/24 28/28/28 27/27/27
f 24/24/24 29/29/29 28/28/28
f 32/32/32 31/31/31 30/30/30
f 32/32/32 30/30/30 33/33/33
f 36/36/36 35/35/35 34/34/34
f 36/36/36 34/34/34 37/37/37
f 40/40/40 39/39/39 38/38/38
f 40/40/40 38/38/38 41/41/41
f 43/43/43 41/41/41 42/42/42
f 43/43/43 42/42/42 44/44/44
f 46/46/46 45/45/45 43/43/43
f 46/46/46 43/43/43 47/47/47
f 50/50/50 49/49/49 48/48/48
f 50/50/50 48/48/48 51/51/51
f 54/54/54 53/53/53 52/52/52
f 54/54/54 52/52/52 55/55/55
f 58/58/58 57/57/57 56/56/56
f 58/58/58 59/59/59 57/57/57
f 62/62/62 61/61/61 60/60/60
f 62/62/62 63/63/63 61/61/61
f 66/66/66 65/65/65 64/64/64
f 66/66/66 67/67/67 65/65/65
f 65/65/65 69/69/69 68/68/68
f 65/65/65 70/70/70 69/69/69
f 73/73/73 72/72/72 71/71/71
f 73/73/73 74/74/74 72/72/72
f 77/77/77 76/76/76 75/75/75
f 77/77/77 78/78/78 76/76/76
f 81/81/81 80/80/80 79/79/79
f 81/81/81 82/82/82 80/80/80
f 81/81/81 83/83/83 82/82/82
f 81/81/81 84/84/84 83/83/83
f 81/81/81 85/85/85 84/84/84
f 84/84/84 86/86/86 83/83/83
f 83/83/83 86/86/86 87/87/87
f 84/84/84 88/88/88 86/86/86
f 86/86/86 88/88/88 89/89/89
f 86/86/86 89/89/89 90/90/90
f 86/86/86 90/90/90 91/91/91
f 84/84/84 92/92/92 88/88/88
f 88/88/88 93/93/93 89/89/89
f 88/88/88 94/94/94 93/93/93
f 97/97/97 96/96/96 95/95/95
f 97/97/97 98/98/98 96/96/96
f 96/96/96 99/99/99 95/95/95
f 96/96/96 100/100/100 99/99/99
f 103/103/103 102/102/102 101/101/101
f 103/103/103 101/101/101 104/104/104
f 101/101/101 105/105/105 104/104/104
f 103/103/103 104/104/104 106/106/106
f 104/104/104 105/105/105 107/107/107
f 103/103/103 106/106/106 108/108/108
f 107/107/107 105/105/105 109/109/109
f 108/108/108 107/107/107 109/109/109
f 108/108/108 109/109/109 110/110/110
f 103/103/103 108/108/108 111/111/111
f 108/108/108 110/110/110 111/111/111
f 103/103/103 111/111/111 112/112/112
f 111/111/111 110/110/110 113/113/113
f 111/111/111 113/113/113 114/114/114
f 117/117/117 116/116/116 115/115/115
f 117/117/117 115/115/115 118/118/118
f 115/115/115 120/120/120 119/119/119
f 115/115/115 119/119/119 121/121/121
f 124/124/124 123/123/123 122/122/122
f 124/124/124 122/122/122 125/125/125
f 128/128/128 127/127/127 126/126/126
f 128/128/128 126/126/126 129/129/129
f 132/132/132 131/131/131 130/130/130
f 130/130/130 131/131/131 133/133/133
f 134/134/134 130/130/130 133/133/133
f 134/134/134 133/133/133 135/135/135
f 137/137/137 135/135/135 136/136/136
f 137/137/137 136/136/136 138/138/138
f 137/137/137 138/138/138 139/139/139
f 138/138/138 136/136/136 140/140/140
f 136/136/136 141/141/141 140/140/140
f 138/138/138 140/140/140 142/142/142
f 145/145/145 144/144/144 143/143/143
f 145/145/145 146/146/146 144/144/144
f 149/149/149 148/148/148 147/147/147
f 149/149/149 150/150/150 148/148/148
f 153/153/153 152/152/152 151/151/151
f 153/153/153 154/154/154 152/152/152
f 153/153/153 155/155/155 154/154/154
f 155/155/155 156/156/156 154/154/154
f 157/157/157 156/156/156 155/155/155
f 157/157/157 158/158/158 156/156/156
f 160/160/160 159/159/159 158/158/158
f 160/160/160 161/161/161 159/159/159
f 160/160/160 162/162/162 161/161/161
f 161/161/161 163/163/163 159/159/159
f 159/159/159 163/163/163 164/164/164
f 161/161/161 165/165/165 163/163/163
f 168/168/168 167/167/167 166/166/166
f 168/168/168 169/169/169 167/167/167
f 172/172/172 171/171/171 170/170/170
f 172/172/172 173/173/173 171/171/171
f 171/171/171 175/175/175 174/174/174
f 171/171/171 176/176/176 175/175/175
f 178/178/178 177/177/177 173/173/173
f 177/177/177 179/179/179 173/173/173
f 180/180/180 179/179/179 177/177/177
f 180/180/180 181/181/181 179/179/179
f 179/179/179 183/183/183 182/182/182
f 182/182/182 183/183/183 184/184/184
f 185/185/185 182/182/182 184/184/184
f 185/185/185 184/184/184 186/186/186
f 185/185/185 186/186/186 187/187/187
f 179/179/179 188/188/188 183/183/183
f 191/191/191 190/190/190 189/189/189
f 191/191/191 192/192/192 190/190/190
f 190/190/190 192/192/192 193/193/193
f 191/191/191 194/194/194 192/192/192
f 192/192/192 195/195/195 193/193/193
f 191/191/191 196/196/196 194/194/194
f 191/191/191 197/197/197 196/196/196
f 195/195/195 198/198/198 193/193/193
f 199/199/199 198/198/198 195/195/195
f 199/199/199 200/200/200 198/198/198
f 203/203/203 202/202/202 201/201/201
f 203/203/203 201/201/201 204/204/204
f 201/201/201 205/205/205 204/204/204
f 201/201/201 206/206/206 205/205/205
f 203/203/203 204/204/204 207/207/207
f 203/203/203 207/207/207 208/208/208
f 211/211/211 210/210/210 209/209/209
f 211/211/211 209/209/209 212/212/212
f 209/209/209 214/214/214 213/213/213
f 209/209/209 213/213/213 215/215/215
f 217/217/217 215/215/215 216/216/216
f 217/217/217 216/216/216 218/218/218
f 221/221/221 220/220/220 219/219/219
f 221/221/221 219/219/219 222/222/222
f 225/225/225 224/224/224 223/223/223
f 225/225/225 223/223/223 226/226/226
f 229/229/229 228/228/228 227/227/227
f 229/229/229 227/227/227 230/230/230
f 233/233/233 232/232/232 231/231/231
f 233/233/233 234/234/234 232/232/232
f 237/237/237 236/236/236 235/235/235
f 237/237/237 238/238/238 236/236/236
f 241/241/241 240/240/240 239/239/239
f 241/241/241 242/242/242 240/240/240
f 245/245/245 244/244/244 243/243/243
f 245/245/245 246/246/246 244/244/244
f 249/249/249 248/248/248 247/247/247
f 249/249/249 250/250/250 248/248/248
f 253/253/253 252/252/252 251/251/251
f 253/253/253 254/254/254 252/252/252
f 253/253/253 255/255/255 254/254/254
f 254/254/254 256/256/256 252/252/252
f 252/252/252 256/256/256 257/257/257
f 254/254/254 258/258/258 256/256/256
f 253/253/253 259/259/259 255/255/255
f 253/253/253 260/260/260 259/259/259
f 263/263/263 262/262/262 261/261/261
f 263/263/263 264/264/264 262/262/262
f 266/266/266 265/265/265 264/264/264
f 266/266/266 267/267/267 265/265/265
f 269/269/269 266/266/266 268/268/268
f 269/269/269 270/270/270 266/266/266
f 273/273/273 272/272/272 271/271/271
f 273/273/273 274/274/274 272/272/272
f 277/277/277 276/276/276 275/275/275
f 277/277/277 278/278/278 276/276/276
f 281/281/281 280/280/280 279/279/279
f 281/281/281 282/282/282 280/280/280
f 285/285/285 284/284/284 283/283/283
f 285/285/285 286/286/286 284/284/284
f 284/284/284 288/288/288 287/287/287
f 284/284/284 289/289/289 288/288/288
f 291/291/291 290/290/290 289/289/289
f 291/291/291 292/292/292 290/290/290
f 295/295/295 294/294/294 293/293/293
f 295/295/295 296/296/296 294/294/294
f 299/299/299 298/298/298 297/297/297
f 299/299/299 300/300/300 298/298/298
