g default
v -0.95 0.1 0.05
v -0.95 0 0.05
v -0.95 0 -0.05
v -0.95 0.1 -0.05
v -0.75 0.1 0.15
v -0.75 0 0.15
v -0.75 0 0.05
v -0.75 0.1 0.05
v -0.75 0.1 -0.05
v -0.75 0 -0.05
v -0.75 0 -0.15
v -0.75 0.1 -0.15
v 0.65 0.1 0.15
v 0.65 0 0.15
v 0.65 0 0.05
v 0.65 0.1 0.05
v 0.65 0.1 -0.05
v 0.65 0 -0.05
v 0.65 0 -0.15
v 0.65 0.1 -0.15
v -0.65 0 0.15
v -0.65 0.1 0.15
v -0.65 0 0.05
v -0.65 0.1 0.05
v -0.65 0 -0.05
v -0.65 0.1 -0.05
v -0.65 0 -0.15
v -0.65 0.1 -0.15
v 0.85 0 0.05
v 0.85 0.1 0.05
v 0.85 0 -0.05
v 0.85 0.1 -0.05
v 0.95 0 0.15
v 0.95 0.1 0.15
v 0.95 0 0.05
v 0.95 0.1 0.05
v 0.95 0 -0.05
v 0.95 0.1 -0.05
v 0.95 0 -0.15
v 0.95 0.1 -0.15
v -0.65 0 0.15
v -0.75 0 0.15
v -0.75 0.1 0.15
v -0.65 0.1 0.15
v 0.75 0 0.15
v 0.65 0 0.15
v 0.65 0.1 0.15
v 0.75 0.1 0.15
v 0.85 0 0.15
v 0.75 0 0.15
v 0.75 0.1 0.15
v 0.85 0.1 0.15
v 0.95 0 0.15
v 0.85 0 0.15
v 0.85 0.1 0.15
v 0.95 0.1 0.15
v -0.75 0 0.05
v -0.95 0 0.05
v -0.95 0.1 0.05
v -0.75 0.1 0.05
v 0.65 0 0.05
v -0.65 0 0.05
v -0.65 0.1 0.05
v 0.65 0.1 0.05
v 0.95 0 -0.05
v 0.85 0 -0.05
v 0.85 0.1 -0.05
v 0.95 0.1 -0.05
v 0.85 0 0.05
v 0.95 0 0.05
v 0.85 0.1 0.05
v 0.95 0.1 0.05
v -0.95 0 -0.05
v -0.75 0 -0.05
v -0.95 0.1 -0.05
v -0.75 0.1 -0.05
v -0.65 0 -0.05
v 0.65 0 -0.05
v -0.65 0.1 -0.05
v 0.65 0.1 -0.05
v -0.75 0 -0.15
v -0.65 0 -0.15
v -0.75 0.1 -0.15
v -0.65 0.1 -0.15
v 0.65 0 -0.15
v 0.75 0 -0.15
v 0.65 0.1 -0.15
v 0.75 0.1 -0.15
v 0.75 0 -0.15
v 0.85 0 -0.15
v 0.75 0.1 -0.15
v 0.85 0.1 -0.15
v 0.85 0 -0.15
v 0.95 0 -0.15
v 0.85 0.1 -0.15
v 0.95 0.1 -0.15
v -0.75 0 0.05
v -0.75 0 0.15
v -0.65 0 0.15
v -0.65 0 0.05
v -0.95 0 -0.05
v -0.95 0 0.05
v -0.75 0 -0.05
v -0.75 0 -0.15
v -0.65 0 -0.05
v -0.65 0 -0.15
v 0.65 0 0.05
v 0.65 0 0.15
v 0.75 0 0.15
v 0.75 0 0.05
v 0.75 0 0.05
v 0.75 0 0.15
v 0.85 0 0.15
v 0.85 0 0.05
v 0.85 0 0.05
v 0.85 0 0.15
v 0.95 0 0.15
v 0.95 0 0.05
v -0.75 0 -0.05
v -0.75 0 0.05
v -0.65 0 0.05
v -0.65 0 -0.05
v -0.65 0 -0.05
v 0.65 0 0.05
v 0.75 0 0.05
v -0.65 0 0.05
v 0.85 0 0.05
v 0.65 0 -0.05
v 0.75 0 -0.05
v 0.85 0 -0.05
v 0.65 0 -0.15
v 0.65 0 -0.05
v 0.75 0 -0.05
v 0.75 0 -0.15
v 0.75 0 -0.15
v 0.75 0 -0.05
v 0.85 0 -0.05
v 0.85 0 -0.15
v 0.85 0 -0.15
v 0.85 0 -0.05
v 0.95 0 -0.05
v 0.95 0 -0.15
v -0.75 0.1 0.15
v -0.75 0.1 0.05
v -0.65 0.1 0.15
v -0.65 0.1 0.05
v -0.95 0.1 0.05
v -0.95 0.1 -0.05
v -0.75 0.1 -0.05
v -0.75 0.1 -0.15
v -0.65 0.1 -0.05
v -0.65 0.1 -0.15
v 0.65 0.1 0.15
v 0.65 0.1 0.05
v 0.75 0.1 0.15
v 0.75 0.1 0.05
v 0.75 0.1 0.15
v 0.75 0.1 0.05
v 0.85 0.1 0.15
v 0.85 0.1 0.05
v 0.85 0.1 0.15
v 0.85 0.1 0.05
v 0.95 0.1 0.15
v 0.95 0.1 0.05
v -0.75 0.1 0.05
v -0.75 0.1 -0.05
v -0.65 0.1 0.05
v -0.65 0.1 -0.05
v 0.65 0.1 0.05
v -0.65 0.1 -0.05
v 0.75 0.1 0.05
v -0.65 0.1 0.05
v 0.85 0.1 0.05
v 0.65 0.1 -0.05
v 0.75 0.1 -0.05
v 0.85 0.1 -0.05
v 0.65 0.1 -0.05
v 0.65 0.1 -0.15
v 0.75 0.1 -0.05
v 0.75 0.1 -0.15
v 0.75 0.1 -0.05
v 0.75 0.1 -0.15
v 0.85 0.1 -0.05
v 0.85 0.1 -0.15
v 0.85 0.1 -0.05
v 0.85 0.1 -0.15
v 0.95 0.1 -0.05
v 0.95 0.1 -0.15
vt 0.978516 0.5
vt 0.978516 0.5
vt 0.978516 0.5
vt 0.978516 0.5
vt 0.978516 0.5
vt 0.978516 0.5
vt 0.978516 0.5
vt 0.978516 0.5
vt 0.978516 0.5
vt 0.978516 0.5
vt 0.978516 0.5
vt 0.978516 0.5
vt 0.970703 0.5
vt 0.970703 0.5
vt 0.970703 0.5
vt 0.970703 0.5
vt 0.970703 0.5
vt 0.970703 0.5
vt 0.970703 0.5
vt 0.970703 0.5
vt 0.978516 0.5
vt 0.978516 0.5
vt 0.978516 0.5
vt 0.978516 0.5
vt 0.978516 0.5
vt 0.978516 0.5
vt 0.978516 0.5
vt 0.978516 0.5
vt 0.537109 0.5
vt 0.537109 0.5
vt 0.537109 0.5
vt 0.537109 0.5
vt 0.962891 0.5
vt 0.962891 0.5
vt 0.962891 0.5
vt 0.962891 0.5
vt 0.962891 0.5
vt 0.962891 0.5
vt 0.962891 0.5
vt 0.962891 0.5
vt 0.978516 0.5
vt 0.978516 0.5
vt 0.978516 0.5
vt 0.978516 0.5
vt 0.970703 0.5
vt 0.970703 0.5
vt 0.970703 0.5
vt 0.970703 0.5
vt 0.966797 0.5
vt 0.966797 0.5
vt 0.966797 0.5
vt 0.966797 0.5
vt 0.962891 0.5
vt 0.962891 0.5
vt 0.962891 0.5
vt 0.962891 0.5
vt 0.978516 0.5
vt 0.978516 0.5
vt 0.978516 0.5
vt 0.978516 0.5
vt 0.537109 0.5
vt 0.537109 0.5
vt 0.537109 0.5
vt 0.537109 0.5
vt 0.962891 0.5
vt 0.962891 0.5
vt 0.962891 0.5
vt 0.962891 0.5
vt 0.962891 0.5
vt 0.962891 0.5
vt 0.962891 0.5
vt 0.962891 0.5
vt 0.978516 0.5
vt 0.978516 0.5
vt 0.978516 0.5
vt 0.978516 0.5
vt 0.537109 0.5
vt 0.537109 0.5
vt 0.537109 0.5
vt 0.537109 0.5
vt 0.978516 0.5
vt 0.978516 0.5
vt 0.978516 0.5
vt 0.978516 0.5
vt 0.970703 0.5
vt 0.970703 0.5
vt 0.970703 0.5
vt 0.970703 0.5
vt 0.966797 0.5
vt 0.966797 0.5
vt 0.966797 0.5
vt 0.966797 0.5
vt 0.962891 0.5
vt 0.962891 0.5
vt 0.962891 0.5
vt 0.962891 0.5
vt 0.978516 0.5
vt 0.978516 0.5
vt 0.978516 0.5
vt 0.978516 0.5
vt 0.978516 0.5
vt 0.978516 0.5
vt 0.978516 0.5
vt 0.978516 0.5
vt 0.978516 0.5
vt 0.978516 0.5
vt 0.970703 0.5
vt 0.970703 0.5
vt 0.970703 0.5
vt 0.970703 0.5
vt 0.966797 0.5
vt 0.966797 0.5
vt 0.966797 0.5
vt 0.966797 0.5
vt 0.962891 0.5
vt 0.962891 0.5
vt 0.962891 0.5
vt 0.962891 0.5
vt 0.970703 0.5
vt 0.970703 0.5
vt 0.970703 0.5
vt 0.970703 0.5
vt 0.537109 0.5
vt 0.537109 0.5
vt 0.537109 0.5
vt 0.537109 0.5
vt 0.537109 0.5
vt 0.537109 0.5
vt 0.537109 0.5
vt 0.537109 0.5
vt 0.970703 0.5
vt 0.970703 0.5
vt 0.970703 0.5
vt 0.970703 0.5
vt 0.966797 0.5
vt 0.966797 0.5
vt 0.966797 0.5
vt 0.966797 0.5
vt 0.962891 0.5
vt 0.962891 0.5
vt 0.962891 0.5
vt 0.962891 0.5
vt 0.978516 0.5
vt 0.978516 0.5
vt 0.978516 0.5
vt 0.978516 0.5
vt 0.978516 0.5
vt 0.978516 0.5
vt 0.978516 0.5
vt 0.978516 0.5
vt 0.978516 0.5
vt 0.978516 0.5
vt 0.970703 0.5
vt 0.970703 0.5
vt 0.970703 0.5
vt 0.970703 0.5
vt 0.966797 0.5
vt 0.966797 0.5
vt 0.966797 0.5
vt 0.966797 0.5
vt 0.962891 0.5
vt 0.962891 0.5
vt 0.962891 0.5
vt 0.962891 0.5
vt 0.970703 0.5
vt 0.970703 0.5
vt 0.970703 0.5
vt 0.970703 0.5
vt 0.537109 0.5
vt 0.537109 0.5
vt 0.537109 0.5
vt 0.537109 0.5
vt 0.537109 0.5
vt 0.537109 0.5
vt 0.537109 0.5
vt 0.537109 0.5
vt 0.970703 0.5
vt 0.970703 0.5
vt 0.970703 0.5
vt 0.970703 0.5
vt 0.966797 0.5
vt 0.966797 0.5
vt 0.966797 0.5
vt 0.966797 0.5
vt 0.962891 0.5
vt 0.962891 0.5
vt 0.962891 0.5
vt 0.962891 0.5
vn -1 0 0
vn -1 0 0
vn -1 0 0
vn -1 0 0
vn -1 0 0
vn -1 0 0
vn -1 0 0
vn -1 0 0
vn -1 0 0
vn -1 0 0
vn -1 0 0
vn -1 0 0
vn -1 0 0
vn -1 0 0
vn -1 0 0
vn -1 0 0
vn -1 0 0
vn -1 0 0
vn -1 0 0
vn -1 0 0
vn 1 0 0
vn 1 0 0
vn 1 0 0
vn 1 0 0
vn 1 0 0
vn 1 0 0
vn 1 0 0
vn 1 0 0
vn 1 0 0
vn 1 0 0
vn 1 0 0
vn 1 0 0
vn 1 0 0
vn 1 0 0
vn 1 0 0
vn 1 0 0
vn 1 0 0
vn 1 0 0
vn 1 0 0
vn 1 0 0
vn 0 0 1
vn 0 0 1
vn 0 0 1
vn 0 0 1
vn 0 0 1
vn 0 0 1
vn 0 0 1
vn 0 0 1
vn 0 0 1
vn 0 0 1
vn 0 0 1
vn 0 0 1
vn 0 0 1
vn 0 0 1
vn 0 0 1
vn 0 0 1
vn 0 0 1
vn 0 0 1
vn 0 0 1
vn 0 0 1
vn 0 0 1
vn 0 0 1
vn 0 0 1
vn 0 0 1
vn 0 0 1
vn 0 0 1
vn 0 0 1
vn 0 0 1
vn 0 0 -1
vn 0 0 -1
vn 0 0 -1
vn 0 0 -1
vn 0 0 -1
vn 0 0 -1
vn 0 0 -1
vn 0 0 -1
vn 0 0 -1
vn 0 0 -1
vn 0 0 -1
vn 0 0 -1
vn 0 0 -1
vn 0 0 -1
vn 0 0 -1
vn 0 0 -1
vn 0 0 -1
vn 0 0 -1
vn 0 0 -1
vn 0 0 -1
vn 0 0 -1
vn 0 0 -1
vn 0 0 -1
vn 0 0 -1
vn 0 0 -1
vn 0 0 -1
vn 0 0 -1
vn 0 0 -1
vn 0 -1 0
vn 0 -1 0
vn 0 -1 0
vn 0 -1 0
vn 0 -1 0
vn 0 -1 0
vn 0 -1 0
vn 0 -1 0
vn 0 -1 0
vn 0 -1 0
vn 0 -1 0
vn 0 -1 0
vn 0 -1 0
vn 0 -1 0
vn 0 -1 0
vn 0 -1 0
vn 0 -1 0
vn 0 -1 0
vn 0 -1 0
vn 0 -1 0
vn 0 -1 0
vn 0 -1 0
vn 0 -1 0
vn 0 -1 0
vn 0 -1 0
vn 0 -1 0
vn 0 -1 0
vn 0 -1 0
vn 0 -1 0
vn 0 -1 0
vn 0 -1 0
vn 0 -1 0
vn 0 -1 0
vn 0 -1 0
vn 0 -1 0
vn 0 -1 0
vn 0 -1 0
vn 0 -1 0
vn 0 -1 0
vn 0 -1 0
vn 0 -1 0
vn 0 -1 0
vn 0 -1 0
vn 0 -1 0
vn 0 -1 0
vn 0 -1 0
vn 0 1 0
vn 0 1 0
vn 0 1 0
vn 0 1 0
vn 0 1 0
vn 0 1 0
vn 0 1 0
vn 0 1 0
vn 0 1 0
vn 0 1 0
vn 0 1 0
vn 0 1 0
vn 0 1 0
vn 0 1 0
vn 0 1 0
vn 0 1 0
vn 0 1 0
vn 0 1 0
vn 0 1 0
vn 0 1 0
vn 0 1 0
vn 0 1 0
vn 0 1 0
vn 0 1 0
vn 0 1 0
vn 0 1 0
vn 0 1 0
vn 0 1 0
vn 0 1 0
vn 0 1 0
vn 0 1 0
vn 0 1 0
vn 0 1 0
vn 0 1 0
vn 0 1 0
vn 0 1 0
vn 0 1 0
vn 0 1 0
vn 0 1 0
vn 0 1 0
vn 0 1 0
vn 0 1 0
vn 0 1 0
vn 0 1 0
vn 0 1 0
vn 0 1 0
g default_0
f 3/3/3 2/2/2 1/1/1
f 3/3/3 1/1/1 4/4/4
f 7/7/7 6/6/6 5/5/5
f 7/7/7 5/5/5 8/8/8
f 11/11/11 10/10/10 9/9/9
f 11/11/11 9/9/9 12/12/12
f 15/15/15 14/14/14 13/13/13
f 15/15/15 13/13/13 16/16/16
f 19/19/19 18/18/18 17/17/17
f 19/19/19 17/17/17 20/20/20
f 23/23/23 22/22/22 21/21/21
f 23/23/23 24/24/24 22/22/22
f 27/27/27 26/26/26 25/25/25
f 27/27/27 28/28/28 26/26/26
f 31/31/31 30/30/30 29/29/29
f 31/31/31 32/32/32 30/30/30
f 35/35/35 34/34/34 33/33/33
f 35/35/35 36/36/36 34/34/34
f 39/39/39 38/38/38 37/37/37
f 39/39/39 40/40/40 38/38/38
f 43/43/43 42/42/42 41/41/41
f 43/43/43 41/41/41 44/44/44
f 47/47/47 46/46/46 45/45/45
f 47/47/47 45/45/45 48/48/48
f 51/51/51 50/50/50 49/49/49
f 51/51/51 49/49/49 52/52/52
f 55/55/55 54/54/54 53/53/53
f 55/55/55 53/53/53 56/56/56
f 59/59/59 58/58/58 57/57/57
f 59/59/59 57/57/57 60/60/60
f 63/63/63 62/62/62 61/61/61
f 63/63/63 61/61/61 64/64/64
f 67/67/67 66/66/66 65/65/65
f 67/67/67 65/65/65 68/68/68
f 71/71/71 70/70/70 69/69/69
f 71/71/71 72/72/72 70/70/70
f 75/75/75 74/74/74 73/73/73
f 75/75/75 76/76/76 74/74/74
f 79/79/79 78/78/78 77/77/77
f 79/79/79 80/80/80 78/78/78
f 83/83/83 82/82/82 81/81/81
f 83/83/83 84/84/84 82/82/82
f 87/87/87 86/86/86 85/85/85
f 87/87/87 88/88/88 86/86/86
f 91/91/91 90/90/90 89/89/89
f 91/91/91 92/92/92 90/90/90
f 95/95/95 94/94/94 93/93/93
f 95/95/95 96/96/96 94/94/94
f 99/99/99 98/98/98 97/97/97
f 99/99/99 97/97/97 100/100/100
f 97/97/97 102/102/102 101/101/101
f 97/97/97 101/101/101 103/103/103
f 105/105/105 103/103/103 104/104/104
f 105/105/105 104/104/104 106/106/106
f 109/109/109 108/108/108 107/107/107
f 109/109/109 107/107/107 110/110/110
f 113/113/113 112/112/112 111/111/111
f 113/113/113 111/111/111 114/114/114
f 117/117/117 116/116/116 115/115/115
f 117/117/117 115/115/115 118/118/118
f 121/121/121 120/120/120 119/119/119
f 121/121/121 119/119/119 122/122/122
f 125/125/125 124/124/124 123/123/123
f 124/124/124 126/126/126 123/123/123
f 127/127/127 125/125/125 123/123/123
f 127/127/127 123/123/123 128/128/128
f 127/127/127 128/128/128 129/129/129
f 127/127/127 129/129/129 130/130/130
f 133/133/133 132/132/132 131/131/131
f 133/133/133 131/131/131 134/134/134
f 137/137/137 136/136/136 135/135/135
f 137/137/137 135/135/135 138/138/138
f 141/141/141 140/140/140 139/139/139
f 141/141/141 139/139/139 142/142/142
f 145/145/145 144/144/144 143/143/143
f 145/145/145 146/146/146 144/144/144
f 144/144/144 148/148/148 147/147/147
f 144/144/144 149/149/149 148/148/148
f 151/151/151 150/150/150 149/149/149
f 151/151/151 152/152/152 150/150/150
f 155/155/155 154/154/154 153/153/153
f 155/155/155 156/156/156 154/154/154
f 159/159/159 158/158/158 157/157/157
f 159/159/159 160/160/160 158/158/158
f 163/163/163 162/162/162 161/161/161
f 163/163/163 164/164/164 162/162/162
f 167/167/167 166/166/166 165/165/165
f 167/167/167 168/168/168 166/166/166
f 171/171/171 170/170/170 169/169/169
f 169/169/169 170/170/170 172/172/172
f 173/173/173 170/170/170 171/171/171
f 173/173/173 174/174/174 170/170/170
f 173/173/173 175/175/175 174/174/174
f 173/173/173 176/176/176 175/175/175
f 179/179/179 178/178/178 177/177/177
f 179/179/179 180/180/180 178/178/178
f 183/183/183 182/182/182 181/181/181
f 183/183/183 184/184/184 182/182/182
f 187/187/187 186/186/186 185/185/185
f 187/187/187 188/188/188 186/186/186
