g default
v -0.25 0.4 0.15
v -0.25 0.1 0.15
v -0.25 0.1 -0.15
v -0.25 0.4 -0.15
v -0.15 0.1 0.15
v -0.15 0 0.15
v -0.15 0 -0.15
v -0.15 0.1 -0.15
v -0.15 0.4 0.25
v -0.15 0.1 0.25
v -0.15 0.4 0.15
v -0.15 0.4 -0.15
v -0.15 0.1 -0.25
v -0.15 0.4 -0.25
v -0.15 0.5 0.15
v -0.15 0.5 -0.15
v 0.15 0 0.15
v 0.15 0.1 0.15
v 0.15 0 -0.15
v 0.15 0.1 -0.15
v 0.15 0.1 0.25
v 0.15 0.4 0.25
v 0.15 0.4 0.15
v 0.15 0.4 -0.15
v 0.15 0.1 -0.25
v 0.15 0.4 -0.25
v 0.15 0.5 0.15
v 0.15 0.5 -0.15
v 0.25 0.1 0.15
v 0.25 0.4 0.15
v 0.25 0.1 -0.15
v 0.25 0.4 -0.15
v 0.15 0.1 0.25
v -0.15 0.1 0.25
v -0.15 0.4 0.25
v 0.15 0.4 0.25
v -0.15 0.1 0.15
v -0.25 0.1 0.15
v -0.25 0.4 0.15
v -0.15 0.4 0.15
v 0.15 0 0.15
v -0.15 0 0.15
v 0.15 0.1 0.15
v 0.15 0.4 0.15
v -0.15 0.5 0.15
v 0.15 0.5 0.15
v 0.25 0.1 0.15
v 0.25 0.4 0.15
v -0.25 0.1 -0.15
v -0.15 0.1 -0.15
v -0.25 0.4 -0.15
v -0.15 0.4 -0.15
v -0.15 0 -0.15
v 0.15 0 -0.15
v 0.15 0.1 -0.15
v 0.15 0.4 -0.15
v -0.15 0.5 -0.15
v 0.15 0.5 -0.15
v 0.25 0.1 -0.15
v 0.25 0.4 -0.15
v -0.15 0.1 -0.25
v 0.15 0.1 -0.25
v -0.15 0.4 -0.25
v 0.15 0.4 -0.25
v -0.15 0 -0.15
v -0.15 0 0.15
v 0.15 0 0.15
v 0.15 0 -0.15
v -0.15 0.1 0.15
v -0.15 0.1 0.25
v 0.15 0.1 0.25
v 0.15 0.1 0.15
v -0.25 0.1 -0.15
v -0.25 0.1 0.15
v -0.15 0.1 -0.15
v 0.15 0.1 -0.15
v 0.25 0.1 0.15
v 0.25 0.1 -0.15
v -0.15 0.1 -0.25
v 0.15 0.1 -0.25
v -0.15 0.4 0.25
v -0.15 0.4 0.15
v 0.15 0.4 0.25
v 0.15 0.4 0.15
v -0.25 0.4 0.15
v -0.25 0.4 -0.15
v -0.15 0.4 -0.15
v 0.15 0.4 -0.15
v 0.25 0.4 0.15
v 0.25 0.4 -0.15
v -0.15 0.4 -0.25
v 0.15 0.4 -0.25
v -0.15 0.5 0.15
v -0.15 0.5 -0.15
v 0.15 0.5 0.15
v 0.15 0.5 -0.15
vt 0.958984 0.5
vt 0.958984 0.5
vt 0.958984 0.5
vt 0.958984 0.5
vt 0.958984 0.5
vt 0.958984 0.5
vt 0.958984 0.5
vt 0.958984 0.5
vt 0.958984 0.5
vt 0.958984 0.5
vt 0.958984 0.5
vt 0.958984 0.5
vt 0.958984 0.5
vt 0.958984 0.5
vt 0.958984 0.5
vt 0.958984 0.5
vt 0.958984 0.5
vt 0.958984 0.5
vt 0.958984 0.5
vt 0.958984 0.5
vt 0.958984 0.5
vt 0.958984 0.5
vt 0.958984 0.5
vt 0.958984 0.5
vt 0.958984 0.5
vt 0.958984 0.5
vt 0.958984 0.5
vt 0.958984 0.5
vt 0.958984 0.5
vt 0.958984 0.5
vt 0.958984 0.5
vt 0.958984 0.5
vt 0.958984 0.5
vt 0.958984 0.5
vt 0.958984 0.5
vt 0.958984 0.5
vt 0.958984 0.5
vt 0.958984 0.5
vt 0.958984 0.5
vt 0.958984 0.5
vt 0.958984 0.5
vt 0.958984 0.5
vt 0.958984 0.5
vt 0.958984 0.5
vt 0.958984 0.5
vt 0.958984 0.5
vt 0.958984 0.5
vt 0.958984 0.5
vt 0.958984 0.5
vt 0.958984 0.5
vt 0.958984 0.5
vt 0.958984 0.5
vt 0.958984 0.5
vt 0.958984 0.5
vt 0.958984 0.5
vt 0.958984 0.5
vt 0.958984 0.5
vt 0.958984 0.5
vt 0.958984 0.5
vt 0.958984 0.5
vt 0.958984 0.5
vt 0.958984 0.5
vt 0.958984 0.5
vt 0.958984 0.5
vt 0.958984 0.5
vt 0.958984 0.5
vt 0.958984 0.5
vt 0.958984 0.5
vt 0.958984 0.5
vt 0.958984 0.5
vt 0.958984 0.5
vt 0.958984 0.5
vt 0.958984 0.5
vt 0.958984 0.5
vt 0.958984 0.5
vt 0.958984 0.5
vt 0.958984 0.5
vt 0.958984 0.5
vt 0.958984 0.5
vt 0.958984 0.5
vt 0.958984 0.5
vt 0.958984 0.5
vt 0.958984 0.5
vt 0.958984 0.5
vt 0.958984 0.5
vt 0.958984 0.5
vt 0.958984 0.5
vt 0.958984 0.5
vt 0.958984 0.5
vt 0.958984 0.5
vt 0.958984 0.5
vt 0.958984 0.5
vt 0.958984 0.5
vt 0.958984 0.5
vt 0.958984 0.5
vt 0.958984 0.5
vn -1 0 0
vn -1 0 0
vn -1 0 0
vn -1 0 0
vn -1 0 0
vn -1 0 0
vn -1 0 0
vn -1 0 0
vn -1 0 0
vn -1 0 0
vn -1 0 0
vn -1 0 0
vn -1 0 0
vn -1 0 0
vn -1 0 0
vn -1 0 0
vn 1 0 0
vn 1 0 0
vn 1 0 0
vn 1 0 0
vn 1 0 0
vn 1 0 0
vn 1 0 0
vn 1 0 0
vn 1 0 0
vn 1 0 0
vn 1 0 0
vn 1 0 0
vn 1 0 0
vn 1 0 0
vn 1 0 0
vn 1 0 0
vn 0 0 1
vn 0 0 1
vn 0 0 1
vn 0 0 1
vn 0 0 1
vn 0 0 1
vn 0 0 1
vn 0 0 1
vn 0 0 1
vn 0 0 1
vn 0 0 1
vn 0 0 1
vn 0 0 1
vn 0 0 1
vn 0 0 1
vn 0 0 1
vn 0 0 -1
vn 0 0 -1
vn 0 0 -1
vn 0 0 -1
vn 0 0 -1
vn 0 0 -1
vn 0 0 -1
vn 0 0 -1
vn 0 0 -1
vn 0 0 -1
vn 0 0 -1
vn 0 0 -1
vn 0 0 -1
vn 0 0 -1
vn 0 0 -1
vn 0 0 -1
vn 0 -1 0
vn 0 -1 0
vn 0 -1 0
vn 0 -1 0
vn 0 -1 0
vn 0 -1 0
vn 0 -1 0
vn 0 -1 0
vn 0 -1 0
vn 0 -1 0
vn 0 -1 0
vn 0 -1 0
vn 0 -1 0
vn 0 -1 0
vn 0 -1 0
vn 0 -1 0
vn 0 1 0
vn 0 1 0
vn 0 1 0
vn 0 1 0
vn 0 1 0
vn 0 1 0
vn 0 1 0
vn 0 1 0
vn 0 1 0
vn 0 1 0
vn 0 1 0
vn 0 1 0
vn 0 1 0
vn 0 1 0
vn 0 1 0
vn 0 1 0
g default_0
f 3/3/3 2/2/2 1/1/1
f 3/3/3 1/1/1 4/4/4
f 7/7/7 6/6/6 5/5/5
f 7/7/7 5/5/5 8/8/8
f 5/5/5 10/10/10 9/9/9
f 5/5/5 9/9/9 11/11/11
f 13/13/13 8/8/8 12/12/12
f 13/13/13 12/12/12 14/14/14
f 12/12/12 11/11/11 15/15/15
f 12/12/12 15/15/15 16/16/16
f 19/19/19 18/18/18 17/17/17
f 19/19/19 20/20/20 18/18/18
f 18/18/18 22/22/22 21/21/21
f 18/18/18 23/23/23 22/22/22
f 25/25/25 24/24/24 20/20/20
f 25/25/25 26/26/26 24/24/24
f 24/24/24 27/27/27 23/23/23
f 24/24/24 28/28/28 27/27/27
f 31/31/31 30/30/30 29/29/29
f 31/31/31 32/32/32 30/30/30
f 35/35/35 34/34/34 33/33/33
f 35/35/35 33/33/33 36/36/36
f 39/39/39 38/38/38 37/37/37
f 39/39/39 37/37/37 40/40/40
f 37/37/37 42/42/42 41/41/41
f 37/37/37 41/41/41 43/43/43
f 45/45/45 40/40/40 44/44/44
f 45/45/45 44/44/44 46/46/46
f 44/44/44 43/43/43 47/47/47
f 44/44/44 47/47/47 48/48/48
f 51/51/51 50/50/50 49/49/49
f 51/51/51 52/52/52 50/50/50
f 50/50/50 54/54/54 53/53/53
f 50/50/50 55/55/55 54/54/54
f 57/57/57 56/56/56 52/52/52
f 57/57/57 58/58/58 56/56/56
f 56/56/56 59/59/59 55/55/55
f 56/56/56 60/60/60 59/59/59
f 63/63/63 62/62/62 61/61/61
f 63/63/63 64/64/64 62/62/62
f 67/67/67 66/66/66 65/65/65
f 67/67/67 65/65/65 68/68/68
f 71/71/71 70/70/70 69/69/69
f 71/71/71 69/69/69 72/72/72
f 69/69/69 74/74/74 73/73/73
f 69/69/69 73/73/73 75/75/75
f 77/77/77 72/72/72 76/76/76
f 77/77/77 76/76/76 78/78/78
f 76/76/76 75/75/75 79/79/79
f 76/76/76 79/79/79 80/80/80
f 83/83/83 82/82/82 81/81/81
f 83/83/83 84/84/84 82/82/82
f 82/82/82 86/86/86 85/85/85
f 82/82/82 87/87/87 86/86/86
f 89/89/89 88/88/88 84/84/84
f 89/89/89 90/90/90 88/88/88
f 88/88/88 91/91/91 87/87/87
f 88/88/88 92/92/92 91/91/91
f 95/95/95 94/94/94 93/93/93
f 95/95/95 96/96/96 94/94/94
