g default
v -0.5 3.9 1.1
v -0.5 3.8 1.1
v -0.5 3.8 -0.3
v -0.5 3.9 -0.3
v -0.4 3.4 0.7
v -0.4 3.3 0.7
v -0.4 3.3 -0.2
v -0.4 3.8 -0.2
v -0.4 3.5 0.8
v -0.4 3.4 0.8
v -0.4 3.6 0.9
v -0.4 3.5 0.9
v -0.4 3.7 1
v -0.4 3.6 1
v -0.4 3.8 1.1
v -0.4 3.7 1.1
v -0.3 3.8 -0.2
v -0.3 3.3 -0.2
v -0.3 3.3 -0.3
v -0.3 3.8 -0.3
v 0.3 3.3 -0.2
v 0.3 3.8 -0.2
v 0.3 3.3 -0.3
v 0.3 3.8 -0.3
v 0.4 3.3 0.7
v 0.4 3.4 0.7
v 0.4 3.3 -0.2
v 0.4 3.8 -0.2
v 0.4 3.5 0.8
v 0.4 3.4 0.8
v 0.4 3.6 0.9
v 0.4 3.5 0.9
v 0.4 3.7 1
v 0.4 3.6 1
v 0.4 3.8 1.1
v 0.4 3.7 1.1
v 0.5 3.8 1.1
v 0.5 3.9 1.1
v 0.5 3.8 -0.3
v 0.5 3.9 -0.3
v -0.4 3.8 1.1
v -0.5 3.8 1.1
v -0.5 3.9 1.1
v 0.4 3.8 1.1
v 0.4 3.7 1.1
v -0.4 3.7 1.1
v 0.5 3.8 1.1
v 0.5 3.9 1.1
v 0.4 3.6 1
v -0.4 3.6 1
v -0.4 3.7 1
v 0.4 3.7 1
v 0.4 3.5 0.9
v -0.4 3.5 0.9
v -0.4 3.6 0.9
v 0.4 3.6 0.9
v 0.4 3.4 0.8
v -0.4 3.4 0.8
v -0.4 3.5 0.8
v 0.4 3.5 0.8
v 0.4 3.3 0.7
v -0.4 3.3 0.7
v -0.4 3.4 0.7
v 0.4 3.4 0.7
v -0.4 3.3 -0.2
v -0.3 3.3 -0.2
v -0.4 3.8 -0.2
v -0.3 3.8 -0.2
v 0.3 3.3 -0.2
v 0.4 3.3 -0.2
v 0.3 3.8 -0.2
v 0.4 3.8 -0.2
v -0.5 3.8 -0.3
v -0.3 3.8 -0.3
v -0.5 3.9 -0.3
v 0.3 3.8 -0.3
v 0.3 3.3 -0.3
v -0.3 3.3 -0.3
v 0.5 3.8 -0.3
v 0.5 3.9 -0.3
v -0.4 3.3 -0.2
v -0.4 3.3 0.7
v 0.4 3.3 0.7
v -0.3 3.3 -0.2
v 0.3 3.3 -0.2
v 0.4 3.3 -0.2
v -0.3 3.3 -0.3
v 0.3 3.3 -0.3
v -0.4 3.4 0.7
v -0.4 3.4 0.8
v 0.4 3.4 0.8
v 0.4 3.4 0.7
v -0.4 3.5 0.8
v -0.4 3.5 0.9
v 0.4 3.5 0.9
v 0.4 3.5 0.8
v -0.4 3.6 0.9
v -0.4 3.6 1
v 0.4 3.6 1
v 0.4 3.6 0.9
v -0.4 3.7 1
v -0.4 3.7 1.1
v 0.4 3.7 1.1
v 0.4 3.7 1
v -0.4 3.8 -0.2
v -0.5 3.8 1.1
v -0.4 3.8 1.1
v -0.5 3.8 -0.3
v -0.3 3.8 -0.2
v -0.3 3.8 -0.3
v 0.4 3.8 -0.2
v 0.4 3.8 1.1
v 0.5 3.8 1.1
v 0.5 3.8 -0.3
v 0.3 3.8 -0.3
v 0.3 3.8 -0.2
v -0.5 3.9 1.1
v -0.5 3.9 -0.3
v 0.5 3.9 1.1
v 0.5 3.9 -0.3
vt 0.982422 0.5
vt 0.982422 0.5
vt 0.982422 0.5
vt 0.982422 0.5
vt 0.982422 0.5
vt 0.982422 0.5
vt 0.982422 0.5
vt 0.982422 0.5
vt 0.982422 0.5
vt 0.982422 0.5
vt 0.982422 0.5
vt 0.982422 0.5
vt 0.982422 0.5
vt 0.982422 0.5
vt 0.982422 0.5
vt 0.982422 0.5
vt 0.982422 0.5
vt 0.982422 0.5
vt 0.982422 0.5
vt 0.982422 0.5
vt 0.982422 0.5
vt 0.982422 0.5
vt 0.982422 0.5
vt 0.982422 0.5
vt 0.982422 0.5
vt 0.982422 0.5
vt 0.982422 0.5
vt 0.982422 0.5
vt 0.982422 0.5
vt 0.982422 0.5
vt 0.982422 0.5
vt 0.982422 0.5
vt 0.982422 0.5
vt 0.982422 0.5
vt 0.982422 0.5
vt 0.982422 0.5
vt 0.982422 0.5
vt 0.982422 0.5
vt 0.982422 0.5
vt 0.982422 0.5
vt 0.982422 0.5
vt 0.982422 0.5
vt 0.982422 0.5
vt 0.982422 0.5
vt 0.982422 0.5
vt 0.982422 0.5
vt 0.982422 0.5
vt 0.982422 0.5
vt 0.982422 0.5
vt 0.982422 0.5
vt 0.982422 0.5
vt 0.982422 0.5
vt 0.982422 0.5
vt 0.982422 0.5
vt 0.982422 0.5
vt 0.982422 0.5
vt 0.982422 0.5
vt 0.982422 0.5
vt 0.982422 0.5
vt 0.982422 0.5
vt 0.982422 0.5
vt 0.982422 0.5
vt 0.982422 0.5
vt 0.982422 0.5
vt 0.982422 0.5
vt 0.982422 0.5
vt 0.982422 0.5
vt 0.982422 0.5
vt 0.982422 0.5
vt 0.982422 0.5
vt 0.982422 0.5
vt 0.982422 0.5
vt 0.982422 0.5
vt 0.982422 0.5
vt 0.982422 0.5
vt 0.982422 0.5
vt 0.982422 0.5
vt 0.982422 0.5
vt 0.982422 0.5
vt 0.982422 0.5
vt 0.982422 0.5
vt 0.982422 0.5
vt 0.982422 0.5
vt 0.982422 0.5
vt 0.982422 0.5
vt 0.982422 0.5
vt 0.982422 0.5
vt 0.982422 0.5
vt 0.982422 0.5
vt 0.982422 0.5
vt 0.982422 0.5
vt 0.982422 0.5
vt 0.982422 0.5
vt 0.982422 0.5
vt 0.982422 0.5
vt 0.982422 0.5
vt 0.982422 0.5
vt 0.982422 0.5
vt 0.982422 0.5
vt 0.982422 0.5
vt 0.982422 0.5
vt 0.982422 0.5
vt 0.982422 0.5
vt 0.982422 0.5
vt 0.982422 0.5
vt 0.982422 0.5
vt 0.982422 0.5
vt 0.982422 0.5
vt 0.982422 0.5
vt 0.982422 0.5
vt 0.982422 0.5
vt 0.982422 0.5
vt 0.982422 0.5
vt 0.982422 0.5
vt 0.982422 0.5
vt 0.982422 0.5
vt 0.982422 0.5
vt 0.982422 0.5
vt 0.982422 0.5
vt 0.982422 0.5
vn -1 0 0
vn -1 0 0
vn -1 0 0
vn -1 0 0
vn -1 0 0
vn -1 0 0
vn -1 0 0
vn -1 0 0
vn -1 0 0
vn -1 0 0
vn -1 0 0
vn -1 0 0
vn -1 0 0
vn -1 0 0
vn -1 0 0
vn -1 0 0
vn -1 0 0
vn -1 0 0
vn -1 0 0
vn -1 0 0
vn 1 0 0
vn 1 0 0
vn 1 0 0
vn 1 0 0
vn 1 0 0
vn 1 0 0
vn 1 0 0
vn 1 0 0
vn 1 0 0
vn 1 0 0
vn 1 0 0
vn 1 0 0
vn 1 0 0
vn 1 0 0
vn 1 0 0
vn 1 0 0
vn 1 0 0
vn 1 0 0
vn 1 0 0
vn 1 0 0
vn 0 0 1
vn 0 0 1
vn 0 0 1
vn 0 0 1
vn 0 0 1
vn 0 0 1
vn 0 0 1
vn 0 0 1
vn 0 0 1
vn 0 0 1
vn 0 0 1
vn 0 0 1
vn 0 0 1
vn 0 0 1
vn 0 0 1
vn 0 0 1
vn 0 0 1
vn 0 0 1
vn 0 0 1
vn 0 0 1
vn 0 0 1
vn 0 0 1
vn 0 0 1
vn 0 0 1
vn 0 0 -1
vn 0 0 -1
vn 0 0 -1
vn 0 0 -1
vn 0 0 -1
vn 0 0 -1
vn 0 0 -1
vn 0 0 -1
vn 0 0 -1
vn 0 0 -1
vn 0 0 -1
vn 0 0 -1
vn 0 0 -1
vn 0 0 -1
vn 0 0 -1
vn 0 0 -1
vn 0 -1 0
vn 0 -1 0
vn 0 -1 0
vn 0 -1 0
vn 0 -1 0
vn 0 -1 0
vn 0 -1 0
vn 0 -1 0
vn 0 -1 0
vn 0 -1 0
vn 0 -1 0
vn 0 -1 0
vn 0 -1 0
vn 0 -1 0
vn 0 -1 0
vn 0 -1 0
vn 0 -1 0
vn 0 -1 0
vn 0 -1 0
vn 0 -1 0
vn 0 -1 0
vn 0 -1 0
vn 0 -1 0
vn 0 -1 0
vn 0 -1 0
vn 0 -1 0
vn 0 -1 0
vn 0 -1 0
vn 0 -1 0
vn 0 -1 0
vn 0 -1 0
vn 0 -1 0
vn 0 -1 0
vn 0 -1 0
vn 0 -1 0
vn 0 -1 0
vn 0 1 0
vn 0 1 0
vn 0 1 0
vn 0 1 0
g default_0
f 3/3/3 2/2/2 1/1/1
f 3/3/3 1/1/1 4/4/4
f 7/7/7 6/6/6 5/5/5
f 7/7/7 5/5/5 8/8/8
f 5/5/5 9/9/9 8/8/8
f 5/5/5 10/10/10 9/9/9
f 9/9/9 11/11/11 8/8/8
f 9/9/9 12/12/12 11/11/11
f 11/11/11 13/13/13 8/8/8
f 11/11/11 14/14/14 13/13/13
f 13/13/13 15/15/15 8/8/8
f 13/13/13 16/16/16 15/15/15
f 19/19/19 18/18/18 17/17/17
f 19/19/19 17/17/17 20/20/20
f 23/23/23 22/22/22 21/21/21
f 23/23/23 24/24/24 22/22/22
f 27/27/27 26/26/26 25/25/25
f 27/27/27 28/28/28 26/26/26
f 26/26/26 28/28/28 29/29/29
f 26/26/26 29/29/29 30/30/30
f 29/29/29 28/28/28 31/31/31
f 29/29/29 31/31/31 32/32/32
f 31/31/31 28/28/28 33/33/33
f 31/31/31 33/33/33 34/34/34
f 33/33/33 28/28/28 35/35/35
f 33/33/33 35/35/35 36/36/36
f 39/39/39 38/38/38 37/37/37
f 39/39/39 40/40/40 38/38/38
f 43/43/43 42/42/42 41/41/41
f 43/43/43 41/41/41 44/44/44
f 41/41/41 45/45/45 44/44/44
f 41/41/41 46/46/46 45/45/45
f 43/43/43 44/44/44 47/47/47
f 43/43/43 47/47/47 48/48/48
f 51/51/51 50/50/50 49/49/49
f 51/51/51 49/49/49 52/52/52
f 55/55/55 54/54/54 53/53/53
f 55/55/55 53/53/53 56/56/56
f 59/59/59 58/58/58 57/57/57
f 59/59/59 57/57/57 60/60/60
f 63/63/63 62/62/62 61/61/61
f 63/63/63 61/61/61 64/64/64
f 67/67/67 66/66/66 65/65/65
f 67/67/67 68/68/68 66/66/66
f 71/71/71 70/70/70 69/69/69
f 71/71/71 72/72/72 70/70/70
f 75/75/75 74/74/74 73/73/73
f 75/75/75 76/76/76 74/74/74
f 74/74/74 76/76/76 77/77/77
f 74/74/74 77/77/77 78/78/78
f 75/75/75 79/79/79 76/76/76
f 75/75/75 80/80/80 79/79/79
f 83/83/83 82/82/82 81/81/81
f 83/83/83 81/81/81 84/84/84
f 83/83/83 84/84/84 85/85/85
f 83/83/83 85/85/85 86/86/86
f 85/85/85 84/84/84 87/87/87
f 85/85/85 87/87/87 88/88/88
f 91/91/91 90/90/90 89/89/89
f 91/91/91 89/89/89 92/92/92
f 95/95/95 94/94/94 93/93/93
f 95/95/95 93/93/93 96/96/96
f 99/99/99 98/98/98 97/97/97
f 99/99/99 97/97/97 100/100/100
f 103/103/103 102/102/102 101/101/101
f 103/103/103 101/101/101 104/104/104
f 107/107/107 106/106/106 105/105/105
f 105/105/105 106/106/106 108/108/108
f 109/109/109 105/105/105 108/108/108
f 109/109/109 108/108/108 110/110/110
f 113/113/113 112/112/112 111/111/111
f 113/113/113 111/111/111 114/114/114
f 111/111/111 115/115/115 114/114/114
f 111/111/111 116/116/116 115/115/115
f 119/119/119 118/118/118 117/117/117
f 119/119/119 120/120/120 118/118/118
