g default
v -0.6 0.1 0.15
v -0.6 0 0.15
v -0.6 0 -0.05
v -0.6 0.1 -0.05
v -0.5 0.1 -0.05
v -0.5 0 -0.05
v -0.5 0 -0.15
v -0.5 0.1 -0.15
v -0.5 0 0.15
v -0.5 0.1 0.15
v -0.5 0 -0.05
v -0.5 0.1 -0.05
v 0.6 0 -0.05
v 0.6 0.1 -0.05
v 0.6 0 -0.15
v 0.6 0.1 -0.15
v -0.5 0 0.15
v -0.6 0 0.15
v -0.6 0.1 0.15
v -0.5 0.1 0.15
v -0.3 0 -0.05
v -0.5 0 -0.05
v -0.5 0.1 -0.05
v -0.3 0.1 -0.05
v 0.6 0 -0.05
v -0.3 0 -0.05
v -0.3 0.1 -0.05
v 0.6 0.1 -0.05
v -0.6 0 -0.05
v -0.5 0 -0.05
v -0.6 0.1 -0.05
v -0.5 0.1 -0.05
v -0.5 0 -0.15
v -0.3 0 -0.15
v -0.5 0.1 -0.15
v -0.3 0.1 -0.15
v -0.3 0 -0.15
v 0.6 0 -0.15
v -0.3 0.1 -0.15
v 0.6 0.1 -0.15
v -0.6 0 -0.05
v -0.6 0 0.15
v -0.5 0 0.15
v -0.5 0 -0.05
v -0.5 0 -0.15
v -0.3 0 -0.05
v -0.3 0 -0.15
v -0.3 0 -0.15
v -0.3 0 -0.05
v 0.6 0 -0.05
v 0.6 0 -0.15
v -0.6 0.1 0.15
v -0.6 0.1 -0.05
v -0.5 0.1 0.15
v -0.5 0.1 -0.05
v -0.5 0.1 -0.15
v -0.3 0.1 -0.05
v -0.3 0.1 -0.15
v -0.3 0.1 -0.05
v -0.3 0.1 -0.15
v 0.6 0.1 -0.05
v 0.6 0.1 -0.15
vt 0.970703 0.5
vt 0.970703 0.5
vt 0.970703 0.5
vt 0.970703 0.5
vt 0.970703 0.5
vt 0.970703 0.5
vt 0.970703 0.5
vt 0.970703 0.5
vt 0.970703 0.5
vt 0.970703 0.5
vt 0.970703 0.5
vt 0.970703 0.5
vt 0.978516 0.5
vt 0.978516 0.5
vt 0.978516 0.5
vt 0.978516 0.5
vt 0.970703 0.5
vt 0.970703 0.5
vt 0.970703 0.5
vt 0.970703 0.5
vt 0.970703 0.5
vt 0.970703 0.5
vt 0.970703 0.5
vt 0.970703 0.5
vt 0.978516 0.5
vt 0.978516 0.5
vt 0.978516 0.5
vt 0.978516 0.5
vt 0.970703 0.5
vt 0.970703 0.5
vt 0.970703 0.5
vt 0.970703 0.5
vt 0.970703 0.5
vt 0.970703 0.5
vt 0.970703 0.5
vt 0.970703 0.5
vt 0.978516 0.5
vt 0.978516 0.5
vt 0.978516 0.5
vt 0.978516 0.5
vt 0.970703 0.5
vt 0.970703 0.5
vt 0.970703 0.5
vt 0.970703 0.5
vt 0.970703 0.5
vt 0.970703 0.5
vt 0.970703 0.5
vt 0.978516 0.5
vt 0.978516 0.5
vt 0.978516 0.5
vt 0.978516 0.5
vt 0.970703 0.5
vt 0.970703 0.5
vt 0.970703 0.5
vt 0.970703 0.5
vt 0.970703 0.5
vt 0.970703 0.5
vt 0.970703 0.5
vt 0.978516 0.5
vt 0.978516 0.5
vt 0.978516 0.5
vt 0.978516 0.5
vn -1 0 0
vn -1 0 0
vn -1 0 0
vn -1 0 0
vn -1 0 0
vn -1 0 0
vn -1 0 0
vn -1 0 0
vn 1 0 0
vn 1 0 0
vn 1 0 0
vn 1 0 0
vn 1 0 0
vn 1 0 0
vn 1 0 0
vn 1 0 0
vn 0 0 1
vn 0 0 1
vn 0 0 1
vn 0 0 1
vn 0 0 1
vn 0 0 1
vn 0 0 1
vn 0 0 1
vn 0 0 1
vn 0 0 1
vn 0 0 1
vn 0 0 1
vn 0 0 -1
vn 0 0 -1
vn 0 0 -1
vn 0 0 -1
vn 0 0 -1
vn 0 0 -1
vn 0 0 -1
vn 0 0 -1
vn 0 0 -1
vn 0 0 -1
vn 0 0 -1
vn 0 0 -1
vn 0 -1 0
vn 0 -1 0
vn 0 -1 0
vn 0 -1 0
vn 0 -1 0
vn 0 -1 0
vn 0 -1 0
vn 0 -1 0
vn 0 -1 0
vn 0 -1 0
vn 0 -1 0
vn 0 1 0
vn 0 1 0
vn 0 1 0
vn 0 1 0
vn 0 1 0
vn 0 1 0
vn 0 1 0
vn 0 1 0
vn 0 1 0
vn 0 1 0
vn 0 1 0
g default_0
f 3/3/3 2/2/2 1/1/1
f 3/3/3 1/1/1 4/4/4
f 7/7/7 6/6/6 5/5/5
f 7/7/7 5/5/5 8/8/8
f 11/11/11 10/10/10 9/9/9
f 11/11/11 12/12/12 10/10/10
f 15/15/15 14/14/14 13/13/13
f 15/15/15 16/16/16 14/14/14
f 19/19/19 18/18/18 17/17/17
f 19/19/19 17/17/17 20/20/20
f 23/23/23 22/22/22 21/21/21
f 23/23/23 21/21/21 24/24/24
f 27/27/27 26/26/26 25/25/25
f 27/27/27 25/25/25 28/28/28
f 31/31/31 30/30/30 29/29/29
f 31/31/31 32/32/32 30/30/30
f 35/35/35 34/34/34 33/33/33
f 35/35/35 36/36/36 34/34/34
f 39/39/39 38/38/38 37/37/37
f 39/39/39 40/40/40 38/38/38
f 43/43/43 42/42/42 41/41/41
f 43/43/43 41/41/41 44/44/44
f 46/46/46 44/44/44 45/45/45
f 46/46/46 45/45/45 47/47/47
f 50/50/50 49/49/49 48/48/48
f 50/50/50 48/48/48 51/51/51
f 54/54/54 53/53/53 52/52/52
f 54/54/54 55/55/55 53/53/53
f 57/57/57 56/56/56 55/55/55
f 57/57/57 58/58/58 56/56/56
f 61/61/61 60/60/60 59/59/59
f 61/61/61 62/62/62 60/60/60
