g default
v -0.7 1 0.1
v -0.7 0.8 0.1
v -0.7 0.8 -0.1
v -0.7 1 -0.1
v -0.3 0.8 0.1
v -0.3 0.4 0.2
v -0.3 0.4 -0.2
v -0.3 0.8 -0.1
v -0.3 1 0.2
v -0.3 1 0.1
v -0.3 1 -0.1
v -0.3 1 -0.2
v -0.3 1.5 0.2
v -0.3 1.1 0.2
v -0.3 1.1 -0.2
v -0.3 1.5 -0.2
v -0.2 0.7 0.3
v -0.2 0.4 0.3
v -0.2 0.4 0.2
v -0.2 0.7 0.2
v -0.2 0.9 0.3
v -0.2 0.7 0.3
v -0.2 0.7 0.2
v -0.2 0.9 0.2
v -0.2 1 0.3
v -0.2 0.9 0.3
v -0.2 0.9 0.2
v -0.2 1 0.2
v -0.2 1.1 0.2
v -0.2 1 -0.2
v -0.2 1.1 -0.2
v -0.2 0.4 -0.2
v -0.2 0.4 -0.3
v -0.2 1 -0.3
v -0.2 1.5 0.3
v -0.2 1.1 0.3
v -0.2 1.5 0.2
v -0.2 1.5 -0.2
v -0.2 1.1 -0.3
v -0.2 1.5 -0.3
v -0.2 1.6 0.2
v -0.2 1.6 -0.2
v -0.1 0.4 0.1
v -0.1 0 0.1
v -0.1 0 -0.1
v -0.1 0.4 -0.1
v 0.1 0 0.1
v 0.1 0.4 0.1
v 0.1 0 -0.1
v 0.1 0.4 -0.1
v 0.2 0.4 0.3
v 0.2 0.7 0.3
v 0.2 0.4 0.2
v 0.2 0.7 0.2
v 0.2 0.7 0.3
v 0.2 0.9 0.3
v 0.2 0.7 0.2
v 0.2 0.9 0.2
v 0.2 0.9 0.3
v 0.2 1 0.3
v 0.2 0.9 0.2
v 0.2 1 0.2
v 0.2 1.1 0.2
v 0.2 1 -0.2
v 0.2 1.1 -0.2
v 0.2 0.4 -0.2
v 0.2 0.4 -0.3
v 0.2 1 -0.3
v 0.2 1.1 0.3
v 0.2 1.5 0.3
v 0.2 1.5 0.2
v 0.2 1.5 -0.2
v 0.2 1.1 -0.3
v 0.2 1.5 -0.3
v 0.2 1.6 0.2
v 0.2 1.6 -0.2
v 0.3 0.4 0.2
v 0.3 0.8 0.1
v 0.3 0.4 -0.2
v 0.3 0.8 -0.1
v 0.3 1 0.2
v 0.3 1 0.1
v 0.3 1 -0.1
v 0.3 1 -0.2
v 0.3 1.1 0.2
v 0.3 1.5 0.2
v 0.3 1.1 -0.2
v 0.3 1.5 -0.2
v 0.7 0.8 0.1
v 0.7 1 0.1
v 0.7 0.8 -0.1
v 0.7 1 -0.1
v -0.1 0.6 0.3
v -0.2 0.4 0.3
v -0.2 0.7 0.3
v -0.1 0.7 0.3
v 0.1 0.6 0.3
v 0.2 0.4 0.3
v 0.1 0.7 0.3
v -0.1 0.9 0.3
v 0.1 0.9 0.3
v 0.2 0.7 0.3
v -0.2 0.9 0.3
v -0.2 1 0.3
v -0.1 1 0.3
v 0.2 0.9 0.3
v 0.1 1 0.3
v 0.2 1 0.3
v -0.1 0.7 0.3
v -0.2 0.7 0.3
v -0.2 0.9 0.3
v -0.1 0.9 0.3
v 0.1 0.6 0.3
v -0.1 0.6 0.3
v 0.1 0.7 0.3
v 0.1 0.9 0.3
v -0.1 1 0.3
v 0.1 1 0.3
v 0.2 0.7 0.3
v 0.2 0.9 0.3
v 0.2 1.1 0.3
v -0.2 1.1 0.3
v -0.2 1.5 0.3
v 0.2 1.5 0.3
v -0.2 0.4 0.2
v -0.3 0.4 0.2
v -0.3 1 0.2
v -0.2 0.7 0.2
v -0.2 0.9 0.2
v -0.2 1 0.2
v -0.1 1 0.2
v -0.2 1.1 0.2
v 0.1 1 0.2
v 0.2 1 0.2
v 0.2 1.1 0.2
v -0.3 1.1 0.2
v -0.3 1.5 0.2
v -0.2 1.5 0.2
v 0.2 1.5 0.2
v -0.2 1.6 0.2
v 0.2 1.6 0.2
v 0.3 1.1 0.2
v 0.3 1.5 0.2
v 0.3 0.4 0.2
v 0.2 0.9 0.2
v 0.2 0.7 0.2
v 0.2 0.4 0.2
v 0.3 1 0.2
v -0.3 0.8 0.1
v -0.7 0.8 0.1
v -0.7 1 0.1
v -0.3 1 0.1
v 0.1 0 0.1
v -0.1 0 0.1
v -0.1 0.4 0.1
v 0.1 0.4 0.1
v 0.7 0.8 0.1
v 0.3 0.8 0.1
v 0.3 1 0.1
v 0.7 1 0.1
v -0.7 0.8 -0.1
v -0.3 0.8 -0.1
v -0.7 1 -0.1
v -0.3 1 -0.1
v -0.1 0 -0.1
v 0.1 0 -0.1
v -0.1 0.4 -0.1
v 0.1 0.4 -0.1
v 0.3 0.8 -0.1
v 0.7 0.8 -0.1
v 0.3 1 -0.1
v 0.7 1 -0.1
v -0.3 0.4 -0.2
v -0.2 0.4 -0.2
v -0.3 1 -0.2
v -0.2 1 -0.2
v 0.2 1 -0.2
v -0.2 1.1 -0.2
v 0.2 1.1 -0.2
v -0.3 1.1 -0.2
v -0.3 1.5 -0.2
v -0.2 1.5 -0.2
v 0.2 1.5 -0.2
v -0.2 1.6 -0.2
v 0.2 1.6 -0.2
v 0.3 1.1 -0.2
v 0.3 1.5 -0.2
v 0.2 0.4 -0.2
v 0.3 0.4 -0.2
v 0.3 1 -0.2
v -0.2 0.4 -0.3
v 0.2 0.4 -0.3
v -0.2 1 -0.3
v 0.2 1 -0.3
v -0.2 1.1 -0.3
v 0.2 1.1 -0.3
v -0.2 1.5 -0.3
v 0.2 1.5 -0.3
v -0.1 0 -0.1
v -0.1 0 0.1
v 0.1 0 0.1
v 0.1 0 -0.1
v -0.2 0.4 0.2
v -0.2 0.4 0.3
v 0.2 0.4 0.3
v 0.2 0.4 0.2
v -0.1 0.4 0.1
v -0.3 0.4 0.2
v 0.3 0.4 0.2
v 0.1 0.4 0.1
v -0.1 0.4 -0.1
v 0.1 0.4 -0.1
v -0.3 0.4 -0.2
v -0.2 0.4 -0.2
v 0.2 0.4 -0.2
v 0.3 0.4 -0.2
v -0.2 0.4 -0.3
v 0.2 0.4 -0.3
v -0.7 0.8 -0.1
v -0.7 0.8 0.1
v -0.3 0.8 0.1
v -0.3 0.8 -0.1
v 0.3 0.8 -0.1
v 0.3 0.8 0.1
v 0.7 0.8 0.1
v 0.7 0.8 -0.1
v -0.2 1.1 0.2
v -0.2 1.1 0.3
v 0.2 1.1 0.3
v 0.2 1.1 0.2
v -0.3 1.1 -0.2
v -0.3 1.1 0.2
v -0.2 1.1 -0.2
v 0.2 1.1 -0.2
v 0.3 1.1 0.2
v 0.3 1.1 -0.2
v -0.2 1.1 -0.3
v 0.2 1.1 -0.3
v -0.2 1 0.3
v -0.2 1 0.2
v -0.1 1 0.3
v -0.1 1 0.2
v -0.3 1 0.2
v -0.3 1 0.1
v -0.3 1 -0.1
v -0.3 1 -0.2
v -0.2 1 -0.2
v -0.2 1 -0.3
v 0.2 1 -0.2
v 0.2 1 -0.3
v 0.2 1 0.2
v 0.3 1 -0.1
v 0.3 1 0.1
v 0.3 1 0.2
v 0.3 1 -0.2
v 0.1 1 0.2
v 0.2 1 0.3
v 0.1 1 0.3
v -0.1 1 0.3
v -0.1 1 0.2
v 0.1 1 0.3
v 0.1 1 0.2
v -0.7 1 0.1
v -0.7 1 -0.1
v -0.3 1 0.1
v -0.3 1 -0.1
v 0.3 1 0.1
v 0.3 1 -0.1
v 0.7 1 0.1
v 0.7 1 -0.1
v -0.2 1.5 0.3
v -0.2 1.5 0.2
v 0.2 1.5 0.3
v 0.2 1.5 0.2
v -0.3 1.5 0.2
v -0.3 1.5 -0.2
v -0.2 1.5 -0.2
v 0.2 1.5 -0.2
v 0.3 1.5 0.2
v 0.3 1.5 -0.2
v -0.2 1.5 -0.3
v 0.2 1.5 -0.3
v -0.2 1.6 0.2
v -0.2 1.6 -0.2
v 0.2 1.6 0.2
v 0.2 1.6 -0.2
vt 0.373047 0.5
vt 0.373047 0.5
vt 0.373047 0.5
vt 0.373047 0.5
vt 0.970703 0.5
vt 0.970703 0.5
vt 0.970703 0.5
vt 0.970703 0.5
vt 0.970703 0.5
vt 0.970703 0.5
vt 0.970703 0.5
vt 0.970703 0.5
vt 0.970703 0.5
vt 0.970703 0.5
vt 0.970703 0.5
vt 0.970703 0.5
vt 0.970703 0.5
vt 0.970703 0.5
vt 0.970703 0.5
vt 0.970703 0.5
vt 0.853516 0.5
vt 0.853516 0.5
vt 0.853516 0.5
vt 0.853516 0.5
vt 0.970703 0.5
vt 0.970703 0.5
vt 0.970703 0.5
vt 0.970703 0.5
vt 0.970703 0.5
vt 0.970703 0.5
vt 0.970703 0.5
vt 0.970703 0.5
vt 0.970703 0.5
vt 0.970703 0.5
vt 0.970703 0.5
vt 0.970703 0.5
vt 0.970703 0.5
vt 0.970703 0.5
vt 0.970703 0.5
vt 0.970703 0.5
vt 0.970703 0.5
vt 0.970703 0.5
vt 0.373047 0.5
vt 0.373047 0.5
vt 0.373047 0.5
vt 0.373047 0.5
vt 0.373047 0.5
vt 0.373047 0.5
vt 0.373047 0.5
vt 0.373047 0.5
vt 0.970703 0.5
vt 0.970703 0.5
vt 0.970703 0.5
vt 0.970703 0.5
vt 0.853516 0.5
vt 0.853516 0.5
vt 0.853516 0.5
vt 0.853516 0.5
vt 0.970703 0.5
vt 0.970703 0.5
vt 0.970703 0.5
vt 0.970703 0.5
vt 0.970703 0.5
vt 0.970703 0.5
vt 0.970703 0.5
vt 0.970703 0.5
vt 0.970703 0.5
vt 0.970703 0.5
vt 0.970703 0.5
vt 0.970703 0.5
vt 0.970703 0.5
vt 0.970703 0.5
vt 0.970703 0.5
vt 0.970703 0.5
vt 0.970703 0.5
vt 0.970703 0.5
vt 0.970703 0.5
vt 0.970703 0.5
vt 0.970703 0.5
vt 0.970703 0.5
vt 0.970703 0.5
vt 0.970703 0.5
vt 0.970703 0.5
vt 0.970703 0.5
vt 0.970703 0.5
vt 0.970703 0.5
vt 0.970703 0.5
vt 0.970703 0.5
vt 0.373047 0.5
vt 0.373047 0.5
vt 0.373047 0.5
vt 0.373047 0.5
vt 0.970703 0.5
vt 0.970703 0.5
vt 0.970703 0.5
vt 0.970703 0.5
vt 0.970703 0.5
vt 0.970703 0.5
vt 0.970703 0.5
vt 0.970703 0.5
vt 0.970703 0.5
vt 0.970703 0.5
vt 0.970703 0.5
vt 0.970703 0.5
vt 0.970703 0.5
vt 0.970703 0.5
vt 0.970703 0.5
vt 0.970703 0.5
vt 0.853516 0.5
vt 0.853516 0.5
vt 0.853516 0.5
vt 0.853516 0.5
vt 0.853516 0.5
vt 0.853516 0.5
vt 0.853516 0.5
vt 0.853516 0.5
vt 0.853516 0.5
vt 0.853516 0.5
vt 0.853516 0.5
vt 0.853516 0.5
vt 0.970703 0.5
vt 0.970703 0.5
vt 0.970703 0.5
vt 0.970703 0.5
vt 0.970703 0.5
vt 0.970703 0.5
vt 0.970703 0.5
vt 0.970703 0.5
vt 0.970703 0.5
vt 0.970703 0.5
vt 0.970703 0.5
vt 0.970703 0.5
vt 0.970703 0.5
vt 0.970703 0.5
vt 0.970703 0.5
vt 0.970703 0.5
vt 0.970703 0.5
vt 0.970703 0.5
vt 0.970703 0.5
vt 0.970703 0.5
vt 0.970703 0.5
vt 0.970703 0.5
vt 0.970703 0.5
vt 0.970703 0.5
vt 0.970703 0.5
vt 0.970703 0.5
vt 0.970703 0.5
vt 0.970703 0.5
vt 0.373047 0.5
vt 0.373047 0.5
vt 0.373047 0.5
vt 0.373047 0.5
vt 0.373047 0.5
vt 0.373047 0.5
vt 0.373047 0.5
vt 0.373047 0.5
vt 0.373047 0.5
vt 0.373047 0.5
vt 0.373047 0.5
vt 0.373047 0.5
vt 0.373047 0.5
vt 0.373047 0.5
vt 0.373047 0.5
vt 0.373047 0.5
vt 0.373047 0.5
vt 0.373047 0.5
vt 0.373047 0.5
vt 0.373047 0.5
vt 0.373047 0.5
vt 0.373047 0.5
vt 0.373047 0.5
vt 0.373047 0.5
vt 0.970703 0.5
vt 0.970703 0.5
vt 0.970703 0.5
vt 0.970703 0.5
vt 0.970703 0.5
vt 0.970703 0.5
vt 0.970703 0.5
vt 0.970703 0.5
vt 0.970703 0.5
vt 0.970703 0.5
vt 0.970703 0.5
vt 0.970703 0.5
vt 0.970703 0.5
vt 0.970703 0.5
vt 0.970703 0.5
vt 0.970703 0.5
vt 0.970703 0.5
vt 0.970703 0.5
vt 0.970703 0.5
vt 0.970703 0.5
vt 0.970703 0.5
vt 0.970703 0.5
vt 0.970703 0.5
vt 0.970703 0.5
vt 0.970703 0.5
vt 0.970703 0.5
vt 0.373047 0.5
vt 0.373047 0.5
vt 0.373047 0.5
vt 0.373047 0.5
vt 0.970703 0.5
vt 0.970703 0.5
vt 0.970703 0.5
vt 0.970703 0.5
vt 0.970703 0.5
vt 0.970703 0.5
vt 0.970703 0.5
vt 0.970703 0.5
vt 0.970703 0.5
vt 0.970703 0.5
vt 0.970703 0.5
vt 0.970703 0.5
vt 0.970703 0.5
vt 0.970703 0.5
vt 0.970703 0.5
vt 0.970703 0.5
vt 0.373047 0.5
vt 0.373047 0.5
vt 0.373047 0.5
vt 0.373047 0.5
vt 0.373047 0.5
vt 0.373047 0.5
vt 0.373047 0.5
vt 0.373047 0.5
vt 0.970703 0.5
vt 0.970703 0.5
vt 0.970703 0.5
vt 0.970703 0.5
vt 0.970703 0.5
vt 0.970703 0.5
vt 0.970703 0.5
vt 0.970703 0.5
vt 0.970703 0.5
vt 0.970703 0.5
vt 0.970703 0.5
vt 0.970703 0.5
vt 0.970703 0.5
vt 0.970703 0.5
vt 0.970703 0.5
vt 0.970703 0.5
vt 0.970703 0.5
vt 0.970703 0.5
vt 0.970703 0.5
vt 0.970703 0.5
vt 0.970703 0.5
vt 0.970703 0.5
vt 0.970703 0.5
vt 0.970703 0.5
vt 0.970703 0.5
vt 0.970703 0.5
vt 0.970703 0.5
vt 0.970703 0.5
vt 0.970703 0.5
vt 0.970703 0.5
vt 0.970703 0.5
vt 0.970703 0.5
vt 0.853516 0.5
vt 0.853516 0.5
vt 0.853516 0.5
vt 0.853516 0.5
vt 0.373047 0.5
vt 0.373047 0.5
vt 0.373047 0.5
vt 0.373047 0.5
vt 0.373047 0.5
vt 0.373047 0.5
vt 0.373047 0.5
vt 0.373047 0.5
vt 0.970703 0.5
vt 0.970703 0.5
vt 0.970703 0.5
vt 0.970703 0.5
vt 0.970703 0.5
vt 0.970703 0.5
vt 0.970703 0.5
vt 0.970703 0.5
vt 0.970703 0.5
vt 0.970703 0.5
vt 0.970703 0.5
vt 0.970703 0.5
vt 0.970703 0.5
vt 0.970703 0.5
vt 0.970703 0.5
vt 0.970703 0.5
vn -1 0 0
vn -1 0 0
vn -1 0 0
vn -1 0 0
vn -1 0 0
vn -1 0 0
vn -1 0 0
vn -1 0 0
vn -1 0 0
vn -1 0 0
vn -1 0 0
vn -1 0 0
vn -1 0 0
vn -1 0 0
vn -1 0 0
vn -1 0 0
vn -1 0 0
vn -1 0 0
vn -1 0 0
vn -1 0 0
vn -1 0 0
vn -1 0 0
vn -1 0 0
vn -1 0 0
vn -1 0 0
vn -1 0 0
vn -1 0 0
vn -1 0 0
vn -1 0 0
vn -1 0 0
vn -1 0 0
vn -1 0 0
vn -1 0 0
vn -1 0 0
vn -1 0 0
vn -1 0 0
vn -1 0 0
vn -1 0 0
vn -1 0 0
vn -1 0 0
vn -1 0 0
vn -1 0 0
vn -1 0 0
vn -1 0 0
vn -1 0 0
vn -1 0 0
vn 1 0 0
vn 1 0 0
vn 1 0 0
vn 1 0 0
vn 1 0 0
vn 1 0 0
vn 1 0 0
vn 1 0 0
vn 1 0 0
vn 1 0 0
vn 1 0 0
vn 1 0 0
vn 1 0 0
vn 1 0 0
vn 1 0 0
vn 1 0 0
vn 1 0 0
vn 1 0 0
vn 1 0 0
vn 1 0 0
vn 1 0 0
vn 1 0 0
vn 1 0 0
vn 1 0 0
vn 1 0 0
vn 1 0 0
vn 1 0 0
vn 1 0 0
vn 1 0 0
vn 1 0 0
vn 1 0 0
vn 1 0 0
vn 1 0 0
vn 1 0 0
vn 1 0 0
vn 1 0 0
vn 1 0 0
vn 1 0 0
vn 1 0 0
vn 1 0 0
vn 1 0 0
vn 1 0 0
vn 1 0 0
vn 1 0 0
vn 1 0 0
vn 1 0 0
vn 0 0 1
vn 0 0 1
vn 0 0 1
vn 0 0 1
vn 0 0 1
vn 0 0 1
vn 0 0 1
vn 0 0 1
vn 0 0 1
vn 0 0 1
vn 0 0 1
vn 0 0 1
vn 0 0 1
vn 0 0 1
vn 0 0 1
vn 0 0 1
vn 0 0 1
vn 0 0 1
vn 0 0 1
vn 0 0 1
vn 0 0 1
vn 0 0 1
vn 0 0 1
vn 0 0 1
vn 0 0 1
vn 0 0 1
vn 0 0 1
vn 0 0 1
vn 0 0 1
vn 0 0 1
vn 0 0 1
vn 0 0 1
vn 0 0 1
vn 0 0 1
vn 0 0 1
vn 0 0 1
vn 0 0 1
vn 0 0 1
vn 0 0 1
vn 0 0 1
vn 0 0 1
vn 0 0 1
vn 0 0 1
vn 0 0 1
vn 0 0 1
vn 0 0 1
vn 0 0 1
vn 0 0 1
vn 0 0 1
vn 0 0 1
vn 0 0 1
vn 0 0 1
vn 0 0 1
vn 0 0 1
vn 0 0 1
vn 0 0 1
vn 0 0 1
vn 0 0 1
vn 0 0 1
vn 0 0 1
vn 0 0 1
vn 0 0 1
vn 0 0 1
vn 0 0 1
vn 0 0 1
vn 0 0 1
vn 0 0 1
vn 0 0 1
vn 0 0 -1
vn 0 0 -1
vn 0 0 -1
vn 0 0 -1
vn 0 0 -1
vn 0 0 -1
vn 0 0 -1
vn 0 0 -1
vn 0 0 -1
vn 0 0 -1
vn 0 0 -1
vn 0 0 -1
vn 0 0 -1
vn 0 0 -1
vn 0 0 -1
vn 0 0 -1
vn 0 0 -1
vn 0 0 -1
vn 0 0 -1
vn 0 0 -1
vn 0 0 -1
vn 0 0 -1
vn 0 0 -1
vn 0 0 -1
vn 0 0 -1
vn 0 0 -1
vn 0 0 -1
vn 0 0 -1
vn 0 0 -1
vn 0 0 -1
vn 0 0 -1
vn 0 0 -1
vn 0 0 -1
vn 0 0 -1
vn 0 0 -1
vn 0 0 -1
vn 0 0 -1
vn 0 0 -1
vn 0 -1 0
vn 0 -1 0
vn 0 -1 0
vn 0 -1 0
vn 0 -1 0
vn 0 -1 0
vn 0 -1 0
vn 0 -1 0
vn 0 -1 0
vn 0 -1 0
vn 0 -1 0
vn 0 -1 0
vn 0 -1 0
vn 0 -1 0
vn 0 -1 0
vn 0 -1 0
vn 0 -1 0
vn 0 -1 0
vn 0 -1 0
vn 0 -1 0
vn 0 -1 0
vn 0 -1 0
vn 0 -1 0
vn 0 -1 0
vn 0 -1 0
vn 0 -1 0
vn 0 -1 0
vn 0 -1 0
vn 0 -1 0
vn 0 -1 0
vn 0 -1 0
vn 0 -1 0
vn 0 -1 0
vn 0 -1 0
vn 0 -1 0
vn 0 -1 0
vn 0 -1 0
vn 0 -1 0
vn 0 -1 0
vn 0 -1 0
vn 0 1 0
vn 0 1 0
vn 0 1 0
vn 0 1 0
vn 0 1 0
vn 0 1 0
vn 0 1 0
vn 0 1 0
vn 0 1 0
vn 0 1 0
vn 0 1 0
vn 0 1 0
vn 0 1 0
vn 0 1 0
vn 0 1 0
vn 0 1 0
vn 0 1 0
vn 0 1 0
vn 0 1 0
vn 0 1 0
vn 0 1 0
vn 0 1 0
vn 0 1 0
vn 0 1 0
vn 0 1 0
vn 0 1 0
vn 0 1 0
vn 0 1 0
vn 0 1 0
vn 0 1 0
vn 0 1 0
vn 0 1 0
vn 0 1 0
vn 0 1 0
vn 0 1 0
vn 0 1 0
vn 0 1 0
vn 0 1 0
vn 0 1 0
vn 0 1 0
vn 0 1 0
vn 0 1 0
vn 0 1 0
vn 0 1 0
vn 0 1 0
vn 0 1 0
vn 0 1 0
vn 0 1 0
g default_0
f 3/3/3 2/2/2 1/1/1
f 3/3/3 1/1/1 4/4/4
f 7/7/7 6/6/6 5/5/5
f 7/7/7 5/5/5 8/8/8
f 5/5/5 6/6/6 9/9/9
f 5/5/5 9/9/9 10/10/10
f 7/7/7 8/8/8 11/11/11
f 7/7/7 11/11/11 12/12/12
f 15/15/15 14/14/14 13/13/13
f 15/15/15 13/13/13 16/16/16
f 19/19/19 18/18/18 17/17/17
f 19/19/19 17/17/17 20/20/20
f 23/23/23 22/22/22 21/21/21
f 23/23/23 21/21/21 24/24/24
f 27/27/27 26/26/26 25/25/25
f 27/27/27 25/25/25 28/28/28
f 30/30/30 28/28/28 29/29/29
f 30/30/30 29/29/29 31/31/31
f 33/33/33 32/32/32 30/30/30
f 33/33/33 30/30/30 34/34/34
f 29/29/29 36/36/36 35/35/35
f 29/29/29 35/35/35 37/37/37
f 39/39/39 31/31/31 38/38/38
f 39/39/39 38/38/38 40/40/40
f 38/38/38 37/37/37 41/41/41
f 38/38/38 41/41/41 42/42/42
f 45/45/45 44/44/44 43/43/43
f 45/45/45 43/43/43 46/46/46
f 49/49/49 48/48/48 47/47/47
f 49/49/49 50/50/50 48/48/48
f 53/53/53 52/52/52 51/51/51
f 53/53/53 54/54/54 52/52/52
f 57/57/57 56/56/56 55/55/55
f 57/57/57 58/58/58 56/56/56
f 61/61/61 60/60/60 59/59/59
f 61/61/61 62/62/62 60/60/60
f 64/64/64 63/63/63 62/62/62
f 64/64/64 65/65/65 63/63/63
f 67/67/67 64/64/64 66/66/66
f 67/67/67 68/68/68 64/64/64
f 63/63/63 70/70/70 69/69/69
f 63/63/63 71/71/71 70/70/70
f 73/73/73 72/72/72 65/65/65
f 73/73/73 74/74/74 72/72/72
f 72/72/72 75/75/75 71/71/71
f 72/72/72 76/76/76 75/75/75
f 79/79/79 78/78/78 77/77/77
f 79/79/79 80/80/80 78/78/78
f 78/78/78 81/81/81 77/77/77
f 78/78/78 82/82/82 81/81/81
f 79/79/79 83/83/83 80/80/80
f 79/79/79 84/84/84 83/83/83
f 87/87/87 86/86/86 85/85/85
f 87/87/87 88/88/88 86/86/86
f 91/91/91 90/90/90 89/89/89
f 91/91/91 92/92/92 90/90/90
f 95/95/95 94/94/94 93/93/93
f 95/95/95 93/93/93 96/96/96
f 93/93/93 94/94/94 97/97/97
f 97/97/97 94/94/94 98/98/98
f 99/99/99 97/97/97 98/98/98
f 100/100/100 96/96/96 99/99/99
f 100/100/100 99/99/99 101/101/101
f 99/99/99 98/98/98 102/102/102
f 104/104/104 103/103/103 100/100/100
f 104/104/104 100/100/100 105/105/105
f 107/107/107 101/101/101 106/106/106
f 107/107/107 106/106/106 108/108/108
f 111/111/111 110/110/110 109/109/109
f 111/111/111 109/109/109 112/112/112
f 109/109/109 114/114/114 113/113/113
f 109/109/109 113/113/113 115/115/115
f 117/117/117 112/112/112 116/116/116
f 117/117/117 116/116/116 118/118/118
f 116/116/116 115/115/115 119/119/119
f 116/116/116 119/119/119 120/120/120
f 123/123/123 122/122/122 121/121/121
f 123/123/123 121/121/121 124/124/124
f 127/127/127 126/126/126 125/125/125
f 127/127/127 125/125/125 128/128/128
f 127/127/127 128/128/128 129/129/129
f 127/127/127 129/129/129 130/130/130
f 132/132/132 130/130/130 131/131/131
f 132/132/132 131/131/131 133/133/133
f 132/132/132 133/133/133 134/134/134
f 132/132/132 134/134/134 135/135/135
f 137/137/137 136/136/136 132/132/132
f 137/137/137 132/132/132 138/138/138
f 140/140/140 138/138/138 139/139/139
f 140/140/140 139/139/139 141/141/141
f 139/139/139 135/135/135 142/142/142
f 139/139/139 142/142/142 143/143/143
f 134/134/134 145/145/145 144/144/144
f 145/145/145 146/146/146 144/144/144
f 146/146/146 147/147/147 144/144/144
f 134/134/134 144/144/144 148/148/148
f 151/151/151 150/150/150 149/149/149
f 151/151/151 149/149/149 152/152/152
f 155/155/155 154/154/154 153/153/153
f 155/155/155 153/153/153 156/156/156
f 159/159/159 158/158/158 157/157/157
f 159/159/159 157/157/157 160/160/160
f 163/163/163 162/162/162 161/161/161
f 163/163/163 164/164/164 162/162/162
f 167/167/167 166/166/166 165/165/165
f 167/167/167 168/168/168 166/166/166
f 171/171/171 170/170/170 169/169/169
f 171/171/171 172/172/172 170/170/170
f 175/175/175 174/174/174 173/173/173
f 175/175/175 176/176/176 174/174/174
f 178/178/178 177/177/177 176/176/176
f 178/178/178 179/179/179 177/177/177
f 181/181/181 178/178/178 180/180/180
f 181/181/181 182/182/182 178/178/178
f 184/184/184 183/183/183 182/182/182
f 184/184/184 185/185/185 183/183/183
f 183/183/183 186/186/186 179/179/179
f 183/183/183 187/187/187 186/186/186
f 177/177/177 189/189/189 188/188/188
f 177/177/177 190/190/190 189/189/189
f 193/193/193 192/192/192 191/191/191
f 193/193/193 194/194/194 192/192/192
f 197/197/197 196/196/196 195/195/195
f 197/197/197 198/198/198 196/196/196
f 201/201/201 200/200/200 199/199/199
f 201/201/201 199/199/199 202/202/202
f 205/205/205 204/204/204 203/203/203
f 205/205/205 203/203/203 206/206/206
f 206/206/206 203/203/203 207/207/207
f 203/203/203 208/208/208 207/207/207
f 209/209/209 206/206/206 207/207/207
f 209/209/209 207/207/207 210/210/210
f 207/207/207 208/208/208 211/211/211
f 209/209/209 210/210/210 212/212/212
f 211/211/211 208/208/208 213/213/213
f 212/212/212 211/211/211 213/213/213
f 212/212/212 213/213/213 214/214/214
f 209/209/209 212/212/212 215/215/215
f 212/212/212 214/214/214 215/215/215
f 209/209/209 215/215/215 216/216/216
f 215/215/215 214/214/214 217/217/217
f 215/215/215 217/217/217 218/218/218
f 221/221/221 220/220/220 219/219/219
f 221/221/221 219/219/219 222/222/222
f 225/225/225 224/224/224 223/223/223
f 225/225/225 223/223/223 226/226/226
f 229/229/229 228/228/228 227/227/227
f 229/229/229 227/227/227 230/230/230
f 227/227/227 232/232/232 231/231/231
f 227/227/227 231/231/231 233/233/233
f 235/235/235 230/230/230 234/234/234
f 235/235/235 234/234/234 236/236/236
f 234/234/234 233/233/233 237/237/237
f 234/234/234 237/237/237 238/238/238
f 241/241/241 240/240/240 239/239/239
f 241/241/241 242/242/242 240/240/240
f 240/240/240 244/244/244 243/243/243
f 240/240/240 245/245/245 244/244/244
f 240/240/240 246/246/246 245/245/245
f 240/240/240 247/247/247 246/246/246
f 249/249/249 248/248/248 247/247/247
f 249/249/249 250/250/250 248/248/248
f 252/252/252 249/249/249 251/251/251
f 253/253/253 252/252/252 251/251/251
f 254/254/254 253/253/253 251/251/251
f 252/252/252 255/255/255 249/249/249
f 257/257/257 251/251/251 256/256/256
f 257/257/257 256/256/256 258/258/258
f 261/261/261 260/260/260 259/259/259
f 261/261/261 262/262/262 260/260/260
f 265/265/265 264/264/264 263/263/263
f 265/265/265 266/266/266 264/264/264
f 269/269/269 268/268/268 267/267/267
f 269/269/269 270/270/270 268/268/268
f 273/273/273 272/272/272 271/271/271
f 273/273/273 274/274/274 272/272/272
f 272/272/272 276/276/276 275/275/275
f 272/272/272 277/277/277 276/276/276
f 279/279/279 278/278/278 274/274/274
f 279/279/279 280/280/280 278/278/278
f 278/278/278 281/281/281 277/277/277
f 278/278/278 282/282/282 281/281/281
f 285/285/285 284/284/284 283/283/283
f 285/285/285 286/286/286 284/284/284
