g default
v -0.2 0.5 -0.2
v -0.2 0.3 -0.2
v -0.2 0.3 -0.4
v -0.2 0.5 -0.4
v -0.1 0.2 0.3
v -0.1 0.1 0.3
v -0.1 0.1 0.2
v -0.1 0.2 0.2
v -0.1 0.3 -0.2
v -0.1 0.2 -0.2
v -0.1 0.2 -0.4
v -0.1 0.3 -0.4
v 0 0.1 0.3
v 0 0 0.4
v 0 0 0.2
v 0 0.1 0.2
v 0 0.2 0.4
v 0 0.2 0.3
v 0 0.2 0.1
v 0 0.1 0.1
v 0 0.1 -0.1
v 0 0.2 -0.1
v 0 0.3 -0.1
v 0 0.2 -0.2
v 0 0.3 -0.2
v 0.1 0.2 0.2
v 0.1 0.1 0.2
v 0.1 0.1 0.1
v 0.1 0.2 0.1
v 0.1 0.2 -0.1
v 0.1 0.1 -0.1
v 0.1 0.1 -0.3
v 0.1 0.2 -0.3
v 0.1 0.3 0
v 0.1 0.2 0
v 0.1 0.3 -0.1
v 0 0.3 -0.3
v 0 0.4 -0.3
v 0 0.3 -0.4
v 0 0.5 -0.4
v 0 0.5 -0.2
v 0 0.4 -0.2
v 0.1 0.3 -0.2
v 0.1 0.4 -0.2
v 0.1 0.3 -0.3
v 0.1 0.4 -0.3
v 0.2 0 0.4
v 0.2 0.1 0.2
v 0.2 0 0.2
v 0.2 0.2 0.4
v 0.2 0.1 -0.3
v 0.2 0.2 0
v 0.2 0.2 -0.3
v 0.2 0.3 0
v 0.2 0.2 -0.4
v 0.2 0.3 -0.4
v 0.2 0 0.4
v 0 0 0.4
v 0 0.2 0.4
v 0.2 0.2 0.4
v 0 0.1 0.3
v -0.1 0.1 0.3
v -0.1 0.2 0.3
v 0 0.2 0.3
v 0.1 0.1 0.1
v 0 0.1 0.1
v 0 0.2 0.1
v 0.1 0.2 0.1
v 0.2 0.2 0
v 0.1 0.2 0
v 0.1 0.3 0
v 0.2 0.3 0
v 0.1 0.2 -0.1
v 0 0.2 -0.1
v 0 0.3 -0.1
v 0.1 0.3 -0.1
v -0.1 0.3 -0.2
v -0.2 0.3 -0.2
v -0.2 0.5 -0.2
v 0 0.3 -0.2
v 0 0.2 -0.2
v -0.1 0.2 -0.2
v 0 0.4 -0.2
v 0 0.5 -0.2
v 0.1 0.3 -0.2
v 0.1 0.4 -0.2
v -0.1 0.1 0.2
v 0 0.1 0.2
v -0.1 0.2 0.2
v 0.1 0.1 0.2
v 0 0 0.2
v 0.1 0.2 0.2
v 0.2 0 0.2
v 0.2 0.1 0.2
v 0 0.1 -0.1
v 0.1 0.1 -0.1
v 0 0.2 -0.1
v 0.1 0.2 -0.1
v 0 0.3 -0.3
v 0.1 0.3 -0.3
v 0 0.4 -0.3
v 0.1 0.4 -0.3
v 0.1 0.1 -0.3
v 0.2 0.1 -0.3
v 0.1 0.2 -0.3
v 0.2 0.2 -0.3
v -0.2 0.3 -0.4
v -0.1 0.3 -0.4
v -0.2 0.5 -0.4
v 0 0.3 -0.4
v -0.1 0.2 -0.4
v 0 0.5 -0.4
v 0.2 0.2 -0.4
v 0.2 0.3 -0.4
v 0 0 0.2
v 0 0 0.4
v 0.2 0 0.4
v 0.2 0 0.2
v -0.1 0.1 0.2
v -0.1 0.1 0.3
v 0 0.1 0.3
v 0 0.1 0.2
v 0.1 0.1 0.1
v 0.1 0.1 0.2
v 0.2 0.1 0.2
v 0.1 0.1 -0.1
v 0 0.1 -0.1
v 0 0.1 0.1
v 0.1 0.1 -0.3
v 0.2 0.1 -0.3
v 0 0.2 -0.2
v 0 0.2 -0.1
v 0.1 0.2 -0.1
v 0.1 0.2 -0.3
v -0.1 0.2 -0.2
v -0.1 0.2 -0.4
v 0.2 0.2 -0.3
v 0.2 0.2 -0.4
v -0.2 0.3 -0.4
v -0.2 0.3 -0.2
v -0.1 0.3 -0.2
v -0.1 0.3 -0.4
v 0 0.2 0.4
v 0 0.2 0.3
v 0.2 0.2 0.4
v 0.1 0.2 0.2
v -0.1 0.2 0.2
v -0.1 0.2 0.3
v 0.1 0.2 0.1
v 0.1 0.2 0
v 0 0.2 0.1
v 0.2 0.2 0
v 0 0.2 -0.1
v 0.1 0.2 -0.1
v 0.1 0.3 0
v 0.1 0.3 -0.1
v 0.2 0.3 0
v 0.1 0.3 -0.2
v 0 0.3 -0.2
v 0 0.3 -0.1
v 0.1 0.3 -0.3
v 0.2 0.3 -0.4
v 0 0.3 -0.4
v 0 0.3 -0.3
v 0 0.4 -0.2
v 0 0.4 -0.3
v 0.1 0.4 -0.2
v 0.1 0.4 -0.3
v -0.2 0.5 -0.2
v -0.2 0.5 -0.4
v 0 0.5 -0.2
v 0 0.5 -0.4
vt 0.646484 0.5
vt 0.646484 0.5
vt 0.646484 0.5
vt 0.646484 0.5
vt 0.646484 0.5
vt 0.646484 0.5
vt 0.646484 0.5
vt 0.646484 0.5
vt 0.646484 0.5
vt 0.646484 0.5
vt 0.646484 0.5
vt 0.646484 0.5
vt 0.646484 0.5
vt 0.646484 0.5
vt 0.646484 0.5
vt 0.646484 0.5
vt 0.646484 0.5
vt 0.646484 0.5
vt 0.646484 0.5
vt 0.646484 0.5
vt 0.646484 0.5
vt 0.646484 0.5
vt 0.646484 0.5
vt 0.646484 0.5
vt 0.646484 0.5
vt 0.646484 0.5
vt 0.646484 0.5
vt 0.646484 0.5
vt 0.646484 0.5
vt 0.646484 0.5
vt 0.646484 0.5
vt 0.646484 0.5
vt 0.646484 0.5
vt 0.646484 0.5
vt 0.646484 0.5
vt 0.646484 0.5
vt 0.646484 0.5
vt 0.646484 0.5
vt 0.646484 0.5
vt 0.646484 0.5
vt 0.646484 0.5
vt 0.646484 0.5
vt 0.646484 0.5
vt 0.646484 0.5
vt 0.646484 0.5
vt 0.646484 0.5
vt 0.646484 0.5
vt 0.646484 0.5
vt 0.646484 0.5
vt 0.646484 0.5
vt 0.646484 0.5
vt 0.646484 0.5
vt 0.646484 0.5
vt 0.646484 0.5
vt 0.646484 0.5
vt 0.646484 0.5
vt 0.646484 0.5
vt 0.646484 0.5
vt 0.646484 0.5
vt 0.646484 0.5
vt 0.646484 0.5
vt 0.646484 0.5
vt 0.646484 0.5
vt 0.646484 0.5
vt 0.646484 0.5
vt 0.646484 0.5
vt 0.646484 0.5
vt 0.646484 0.5
vt 0.646484 0.5
vt 0.646484 0.5
vt 0.646484 0.5
vt 0.646484 0.5
vt 0.646484 0.5
vt 0.646484 0.5
vt 0.646484 0.5
vt 0.646484 0.5
vt 0.646484 0.5
vt 0.646484 0.5
vt 0.646484 0.5
vt 0.646484 0.5
vt 0.646484 0.5
vt 0.646484 0.5
vt 0.646484 0.5
vt 0.646484 0.5
vt 0.646484 0.5
vt 0.646484 0.5
vt 0.646484 0.5
vt 0.646484 0.5
vt 0.646484 0.5
vt 0.646484 0.5
vt 0.646484 0.5
vt 0.646484 0.5
vt 0.646484 0.5
vt 0.646484 0.5
vt 0.646484 0.5
vt 0.646484 0.5
vt 0.646484 0.5
vt 0.646484 0.5
vt 0.646484 0.5
vt 0.646484 0.5
vt 0.646484 0.5
vt 0.646484 0.5
vt 0.646484 0.5
vt 0.646484 0.5
vt 0.646484 0.5
vt 0.646484 0.5
vt 0.646484 0.5
vt 0.646484 0.5
vt 0.646484 0.5
vt 0.646484 0.5
vt 0.646484 0.5
vt 0.646484 0.5
vt 0.646484 0.5
vt 0.646484 0.5
vt 0.646484 0.5
vt 0.646484 0.5
vt 0.646484 0.5
vt 0.646484 0.5
vt 0.646484 0.5
vt 0.646484 0.5
vt 0.646484 0.5
vt 0.646484 0.5
vt 0.646484 0.5
vt 0.646484 0.5
vt 0.646484 0.5
vt 0.646484 0.5
vt 0.646484 0.5
vt 0.646484 0.5
vt 0.646484 0.5
vt 0.646484 0.5
vt 0.646484 0.5
vt 0.646484 0.5
vt 0.646484 0.5
vt 0.646484 0.5
vt 0.646484 0.5
vt 0.646484 0.5
vt 0.646484 0.5
vt 0.646484 0.5
vt 0.646484 0.5
vt 0.646484 0.5
vt 0.646484 0.5
vt 0.646484 0.5
vt 0.646484 0.5
vt 0.646484 0.5
vt 0.646484 0.5
vt 0.646484 0.5
vt 0.646484 0.5
vt 0.646484 0.5
vt 0.646484 0.5
vt 0.646484 0.5
vt 0.646484 0.5
vt 0.646484 0.5
vt 0.646484 0.5
vt 0.646484 0.5
vt 0.646484 0.5
vt 0.646484 0.5
vt 0.646484 0.5
vt 0.646484 0.5
vt 0.646484 0.5
vt 0.646484 0.5
vt 0.646484 0.5
vt 0.646484 0.5
vt 0.646484 0.5
vt 0.646484 0.5
vt 0.646484 0.5
vt 0.646484 0.5
vt 0.646484 0.5
vt 0.646484 0.5
vt 0.646484 0.5
vt 0.646484 0.5
vt 0.646484 0.5
vt 0.646484 0.5
vn -1 0 0
vn -1 0 0
vn -1 0 0
vn -1 0 0
vn -1 0 0
vn -1 0 0
vn -1 0 0
vn -1 0 0
vn -1 0 0
vn -1 0 0
vn -1 0 0
vn -1 0 0
vn -1 0 0
vn -1 0 0
vn -1 0 0
vn -1 0 0
vn -1 0 0
vn -1 0 0
vn -1 0 0
vn -1 0 0
vn -1 0 0
vn -1 0 0
vn -1 0 0
vn -1 0 0
vn -1 0 0
vn -1 0 0
vn -1 0 0
vn -1 0 0
vn -1 0 0
vn -1 0 0
vn -1 0 0
vn -1 0 0
vn -1 0 0
vn -1 0 0
vn -1 0 0
vn -1 0 0
vn 1 0 0
vn 1 0 0
vn 1 0 0
vn 1 0 0
vn 1 0 0
vn 1 0 0
vn 1 0 0
vn 1 0 0
vn 1 0 0
vn 1 0 0
vn 1 0 0
vn 1 0 0
vn 1 0 0
vn 1 0 0
vn 1 0 0
vn 1 0 0
vn 1 0 0
vn 1 0 0
vn 1 0 0
vn 1 0 0
vn 0 0 1
vn 0 0 1
vn 0 0 1
vn 0 0 1
vn 0 0 1
vn 0 0 1
vn 0 0 1
vn 0 0 1
vn 0 0 1
vn 0 0 1
vn 0 0 1
vn 0 0 1
vn 0 0 1
vn 0 0 1
vn 0 0 1
vn 0 0 1
vn 0 0 1
vn 0 0 1
vn 0 0 1
vn 0 0 1
vn 0 0 1
vn 0 0 1
vn 0 0 1
vn 0 0 1
vn 0 0 1
vn 0 0 1
vn 0 0 1
vn 0 0 1
vn 0 0 1
vn 0 0 1
vn 0 0 -1
vn 0 0 -1
vn 0 0 -1
vn 0 0 -1
vn 0 0 -1
vn 0 0 -1
vn 0 0 -1
vn 0 0 -1
vn 0 0 -1
vn 0 0 -1
vn 0 0 -1
vn 0 0 -1
vn 0 0 -1
vn 0 0 -1
vn 0 0 -1
vn 0 0 -1
vn 0 0 -1
vn 0 0 -1
vn 0 0 -1
vn 0 0 -1
vn 0 0 -1
vn 0 0 -1
vn 0 0 -1
vn 0 0 -1
vn 0 0 -1
vn 0 0 -1
vn 0 0 -1
vn 0 0 -1
vn 0 -1 0
vn 0 -1 0
vn 0 -1 0
vn 0 -1 0
vn 0 -1 0
vn 0 -1 0
vn 0 -1 0
vn 0 -1 0
vn 0 -1 0
vn 0 -1 0
vn 0 -1 0
vn 0 -1 0
vn 0 -1 0
vn 0 -1 0
vn 0 -1 0
vn 0 -1 0
vn 0 -1 0
vn 0 -1 0
vn 0 -1 0
vn 0 -1 0
vn 0 -1 0
vn 0 -1 0
vn 0 -1 0
vn 0 -1 0
vn 0 -1 0
vn 0 -1 0
vn 0 -1 0
vn 0 -1 0
vn 0 1 0
vn 0 1 0
vn 0 1 0
vn 0 1 0
vn 0 1 0
vn 0 1 0
vn 0 1 0
vn 0 1 0
vn 0 1 0
vn 0 1 0
vn 0 1 0
vn 0 1 0
vn 0 1 0
vn 0 1 0
vn 0 1 0
vn 0 1 0
vn 0 1 0
vn 0 1 0
vn 0 1 0
vn 0 1 0
vn 0 1 0
vn 0 1 0
vn 0 1 0
vn 0 1 0
vn 0 1 0
vn 0 1 0
vn 0 1 0
vn 0 1 0
vn 0 1 0
vn 0 1 0
g default_0
f 3/3/3 2/2/2 1/1/1
f 3/3/3 1/1/1 4/4/4
f 7/7/7 6/6/6 5/5/5
f 7/7/7 5/5/5 8/8/8
f 11/11/11 10/10/10 9/9/9
f 11/11/11 9/9/9 12/12/12
f 15/15/15 14/14/14 13/13/13
f 15/15/15 13/13/13 16/16/16
f 13/13/13 14/14/14 17/17/17
f 13/13/13 17/17/17 18/18/18
f 21/21/21 20/20/20 19/19/19
f 21/21/21 19/19/19 22/22/22
f 24/24/24 22/22/22 23/23/23
f 24/24/24 23/23/23 25/25/25
f 28/28/28 27/27/27 26/26/26
f 28/28/28 26/26/26 29/29/29
f 32/32/32 31/31/31 30/30/30
f 32/32/32 30/30/30 33/33/33
f 30/30/30 35/35/35 34/34/34
f 30/30/30 34/34/34 36/36/36
f 39/39/39 38/38/38 37/37/37
f 39/39/39 40/40/40 38/38/38
f 38/38/38 40/40/40 41/41/41
f 38/38/38 41/41/41 42/42/42
f 45/45/45 44/44/44 43/43/43
f 45/45/45 46/46/46 44/44/44
f 49/49/49 48/48/48 47/47/47
f 48/48/48 50/50/50 47/47/47
f 51/51/51 50/50/50 48/48/48
f 51/51/51 52/52/52 50/50/50
f 51/51/51 53/53/53 52/52/52
f 53/53/53 54/54/54 52/52/52
f 55/55/55 54/54/54 53/53/53
f 55/55/55 56/56/56 54/54/54
f 59/59/59 58/58/58 57/57/57
f 59/59/59 57/57/57 60/60/60
f 63/63/63 62/62/62 61/61/61
f 63/63/63 61/61/61 64/64/64
f 67/67/67 66/66/66 65/65/65
f 67/67/67 65/65/65 68/68/68
f 71/71/71 70/70/70 69/69/69
f 71/71/71 69/69/69 72/72/72
f 75/75/75 74/74/74 73/73/73
f 75/75/75 73/73/73 76/76/76
f 79/79/79 78/78/78 77/77/77
f 79/79/79 77/77/77 80/80/80
f 77/77/77 81/81/81 80/80/80
f 77/77/77 82/82/82 81/81/81
f 79/79/79 80/80/80 83/83/83
f 79/79/79 83/83/83 84/84/84
f 83/83/83 80/80/80 85/85/85
f 83/83/83 85/85/85 86/86/86
f 89/89/89 88/88/88 87/87/87
f 89/89/89 90/90/90 88/88/88
f 88/88/88 90/90/90 91/91/91
f 89/89/89 92/92/92 90/90/90
f 90/90/90 93/93/93 91/91/91
f 90/90/90 94/94/94 93/93/93
f 97/97/97 96/96/96 95/95/95
f 97/97/97 98/98/98 96/96/96
f 101/101/101 100/100/100 99/99/99
f 101/101/101 102/102/102 100/100/100
f 105/105/105 104/104/104 103/103/103
f 105/105/105 106/106/106 104/104/104
f 109/109/109 108/108/108 107/107/107
f 109/109/109 110/110/110 108/108/108
f 108/108/108 110/110/110 111/111/111
f 109/109/109 112/112/112 110/110/110
f 110/110/110 113/113/113 111/111/111
f 110/110/110 114/114/114 113/113/113
f 117/117/117 116/116/116 115/115/115
f 117/117/117 115/115/115 118/118/118
f 121/121/121 120/120/120 119/119/119
f 121/121/121 119/119/119 122/122/122
f 125/125/125 124/124/124 123/123/123
f 125/125/125 123/123/123 126/126/126
f 123/123/123 127/127/127 126/126/126
f 123/123/123 128/128/128 127/127/127
f 125/125/125 126/126/126 129/129/129
f 125/125/125 129/129/129 130/130/130
f 133/133/133 132/132/132 131/131/131
f 133/133/133 131/131/131 134/134/134
f 131/131/131 135/135/135 134/134/134
f 134/134/134 135/135/135 136/136/136
f 137/137/137 134/134/134 136/136/136
f 137/137/137 136/136/136 138/138/138
f 141/141/141 140/140/140 139/139/139
f 141/141/141 139/139/139 142/142/142
f 145/145/145 144/144/144 143/143/143
f 145/145/145 146/146/146 144/144/144
f 144/144/144 146/146/146 147/147/147
f 144/144/144 147/147/147 148/148/148
f 145/145/145 149/149/149 146/146/146
f 145/145/145 150/150/150 149/149/149
f 149/149/149 150/150/150 151/151/151
f 145/145/145 152/152/152 150/150/150
f 150/150/150 153/153/153 151/151/151
f 150/150/150 154/154/154 153/153/153
f 157/157/157 156/156/156 155/155/155
f 157/157/157 158/158/158 156/156/156
f 156/156/156 158/158/158 159/159/159
f 156/156/156 159/159/159 160/160/160
f 157/157/157 161/161/161 158/158/158
f 157/157/157 162/162/162 161/161/161
f 161/161/161 162/162/162 163/163/163
f 161/161/161 163/163/163 164/164/164
f 167/167/167 166/166/166 165/165/165
f 167/167/167 168/168/168 166/166/166
f 171/171/171 170/170/170 169/169/169
f 171/171/171 172/172/172 170/170/170
