g default
v -2 0.1 0.5
v -2 0 0.5
v -2 0 0
v -2 0.1 0.3
v -2 0.2 0.3
v -2 0.2 0.2
v -2 0.3 0.2
v -2 0.3 0.1
v -2 0.4 0.1
v -2 0.4 0
v -2 0.4 0
v -2 0 0
v -2 0 -0.3
v -2 0.5 0
v -2 0.5 -0.1
v -2 0.7 -0.1
v -2 0.7 -0.2
v -2 1.2 -0.2
v -2 1.2 -0.3
v -2 1.2 -0.3
v -2 0 -0.3
v -2 0 -0.5
v -2 2.2 -0.3
v -2 2.2 -0.4
v -2 3.9 -0.4
v -2 3.9 -0.5
v 2 0 0.5
v 2 0.1 0.5
v 2 0 0
v 2 0.1 0.3
v 2 0.2 0.3
v 2 0.2 0.2
v 2 0.3 0.2
v 2 0.3 0.1
v 2 0.4 0.1
v 2 0.4 0
v 2 0 0
v 2 0.4 0
v 2 0 -0.3
v 2 0.5 0
v 2 0.5 -0.1
v 2 0.7 -0.1
v 2 0.7 -0.2
v 2 1.2 -0.2
v 2 1.2 -0.3
v 2 0 -0.3
v 2 1.2 -0.3
v 2 0 -0.5
v 2 2.2 -0.3
v 2 2.2 -0.4
v 2 3.9 -0.4
v 2 3.9 -0.5
v 2 0 0.5
v -2 0 0.5
v -2 0.1 0.5
v 2 0.1 0.5
v 2 0.1 0.3
v -2 0.1 0.3
v -2 0.2 0.3
v 2 0.2 0.3
v 2 0.2 0.2
v -2 0.2 0.2
v -2 0.3 0.2
v 2 0.3 0.2
v 2 0.3 0.1
v -2 0.3 0.1
v -2 0.4 0.1
v 2 0.4 0.1
v 2 0.4 0
v -2 0.4 0
v -2 0.5 0
v 2 0.5 0
v 2 0.5 -0.1
v -2 0.5 -0.1
v -2 0.7 -0.1
v 2 0.7 -0.1
v 2 0.7 -0.2
v -2 0.7 -0.2
v -2 1.2 -0.2
v 2 1.2 -0.2
v 2 1.2 -0.3
v -2 1.2 -0.3
v -2 2.2 -0.3
v 2 2.2 -0.3
v 2 2.2 -0.4
v -2 2.2 -0.4
v -2 3.9 -0.4
v 2 3.9 -0.4
v -2 0 -0.5
v 2 0 -0.5
v -2 3.9 -0.5
v 2 3.9 -0.5
v -2 0 0
v -2 0 0.5
v 2 0 0.5
v 2 0 0
v -2 0 -0.3
v -2 0 0
v 2 0 0
v 2 0 -0.3
v -2 0 -0.5
v -2 0 -0.3
v 2 0 -0.3
v 2 0 -0.5
v -2 0.1 0.5
v -2 0.1 0.3
v 2 0.1 0.5
v 2 0.1 0.3
v -2 0.2 0.3
v -2 0.2 0.2
v 2 0.2 0.3
v 2 0.2 0.2
v -2 0.3 0.2
v -2 0.3 0.1
v 2 0.3 0.2
v 2 0.3 0.1
v -2 0.4 0.1
v -2 0.4 0
v 2 0.4 0.1
v 2 0.4 0
v -2 0.5 0
v -2 0.5 -0.1
v 2 0.5 0
v 2 0.5 -0.1
v -2 0.7 -0.1
v -2 0.7 -0.2
v 2 0.7 -0.1
v 2 0.7 -0.2
v -2 1.2 -0.2
v -2 1.2 -0.3
v 2 1.2 -0.2
v 2 1.2 -0.3
v -2 2.2 -0.3
v -2 2.2 -0.4
v 2 2.2 -0.3
v 2 2.2 -0.4
v -2 3.9 -0.4
v -2 3.9 -0.5
v 2 3.9 -0.4
v 2 3.9 -0.5
vt 0.990234 0.5
vt 0.990234 0.5
vt 0.990234 0.5
vt 0.990234 0.5
vt 0.990234 0.5
vt 0.990234 0.5
vt 0.990234 0.5
vt 0.990234 0.5
vt 0.990234 0.5
vt 0.990234 0.5
vt 0.986328 0.5
vt 0.986328 0.5
vt 0.986328 0.5
vt 0.986328 0.5
vt 0.986328 0.5
vt 0.986328 0.5
vt 0.986328 0.5
vt 0.986328 0.5
vt 0.986328 0.5
vt 0.982422 0.5
vt 0.982422 0.5
vt 0.982422 0.5
vt 0.982422 0.5
vt 0.982422 0.5
vt 0.982422 0.5
vt 0.982422 0.5
vt 0.990234 0.5
vt 0.990234 0.5
vt 0.990234 0.5
vt 0.990234 0.5
vt 0.990234 0.5
vt 0.990234 0.5
vt 0.990234 0.5
vt 0.990234 0.5
vt 0.990234 0.5
vt 0.990234 0.5
vt 0.986328 0.5
vt 0.986328 0.5
vt 0.986328 0.5
vt 0.986328 0.5
vt 0.986328 0.5
vt 0.986328 0.5
vt 0.986328 0.5
vt 0.986328 0.5
vt 0.986328 0.5
vt 0.982422 0.5
vt 0.982422 0.5
vt 0.982422 0.5
vt 0.982422 0.5
vt 0.982422 0.5
vt 0.982422 0.5
vt 0.982422 0.5
vt 0.990234 0.5
vt 0.990234 0.5
vt 0.990234 0.5
vt 0.990234 0.5
vt 0.990234 0.5
vt 0.990234 0.5
vt 0.990234 0.5
vt 0.990234 0.5
vt 0.990234 0.5
vt 0.990234 0.5
vt 0.990234 0.5
vt 0.990234 0.5
vt 0.990234 0.5
vt 0.990234 0.5
vt 0.990234 0.5
vt 0.990234 0.5
vt 0.986328 0.5
vt 0.986328 0.5
vt 0.986328 0.5
vt 0.986328 0.5
vt 0.986328 0.5
vt 0.986328 0.5
vt 0.986328 0.5
vt 0.986328 0.5
vt 0.986328 0.5
vt 0.986328 0.5
vt 0.986328 0.5
vt 0.986328 0.5
vt 0.982422 0.5
vt 0.982422 0.5
vt 0.982422 0.5
vt 0.982422 0.5
vt 0.982422 0.5
vt 0.982422 0.5
vt 0.982422 0.5
vt 0.982422 0.5
vt 0.982422 0.5
vt 0.982422 0.5
vt 0.982422 0.5
vt 0.982422 0.5
vt 0.990234 0.5
vt 0.990234 0.5
vt 0.990234 0.5
vt 0.990234 0.5
vt 0.986328 0.5
vt 0.986328 0.5
vt 0.986328 0.5
vt 0.986328 0.5
vt 0.982422 0.5
vt 0.982422 0.5
vt 0.982422 0.5
vt 0.982422 0.5
vt 0.990234 0.5
vt 0.990234 0.5
vt 0.990234 0.5
vt 0.990234 0.5
vt 0.990234 0.5
vt 0.990234 0.5
vt 0.990234 0.5
vt 0.990234 0.5
vt 0.990234 0.5
vt 0.990234 0.5
vt 0.990234 0.5
vt 0.990234 0.5
vt 0.990234 0.5
vt 0.990234 0.5
vt 0.990234 0.5
vt 0.990234 0.5
vt 0.986328 0.5
vt 0.986328 0.5
vt 0.986328 0.5
vt 0.986328 0.5
vt 0.986328 0.5
vt 0.986328 0.5
vt 0.986328 0.5
vt 0.986328 0.5
vt 0.986328 0.5
vt 0.986328 0.5
vt 0.986328 0.5
vt 0.986328 0.5
vt 0.982422 0.5
vt 0.982422 0.5
vt 0.982422 0.5
vt 0.982422 0.5
vt 0.982422 0.5
vt 0.982422 0.5
vt 0.982422 0.5
vt 0.982422 0.5
vn -1 0 0
vn -1 0 0
vn -1 0 0
vn -1 0 0
vn -1 0 0
vn -1 0 0
vn -1 0 0
vn -1 0 0
vn -1 0 0
vn -1 0 0
vn -1 0 0
vn -1 0 0
vn -1 0 0
vn -1 0 0
vn -1 0 0
vn -1 0 0
vn -1 0 0
vn -1 0 0
vn -1 0 0
vn -1 0 0
vn -1 0 0
vn -1 0 0
vn -1 0 0
vn -1 0 0
vn -1 0 0
vn -1 0 0
vn 1 0 0
vn 1 0 0
vn 1 0 0
vn 1 0 0
vn 1 0 0
vn 1 0 0
vn 1 0 0
vn 1 0 0
vn 1 0 0
vn 1 0 0
vn 1 0 0
vn 1 0 0
vn 1 0 0
vn 1 0 0
vn 1 0 0
vn 1 0 0
vn 1 0 0
vn 1 0 0
vn 1 0 0
vn 1 0 0
vn 1 0 0
vn 1 0 0
vn 1 0 0
vn 1 0 0
vn 1 0 0
vn 1 0 0
vn 0 0 1
vn 0 0 1
vn 0 0 1
vn 0 0 1
vn 0 0 1
vn 0 0 1
vn 0 0 1
vn 0 0 1
vn 0 0 1
vn 0 0 1
vn 0 0 1
vn 0 0 1
vn 0 0 1
vn 0 0 1
vn 0 0 1
vn 0 0 1
vn 0 0 1
vn 0 0 1
vn 0 0 1
vn 0 0 1
vn 0 0 1
vn 0 0 1
vn 0 0 1
vn 0 0 1
vn 0 0 1
vn 0 0 1
vn 0 0 1
vn 0 0 1
vn 0 0 1
vn 0 0 1
vn 0 0 1
vn 0 0 1
vn 0 0 1
vn 0 0 1
vn 0 0 1
vn 0 0 1
vn 0 0 -1
vn 0 0 -1
vn 0 0 -1
vn 0 0 -1
vn 0 -1 0
vn 0 -1 0
vn 0 -1 0
vn 0 -1 0
vn 0 -1 0
vn 0 -1 0
vn 0 -1 0
vn 0 -1 0
vn 0 -1 0
vn 0 -1 0
vn 0 -1 0
vn 0 -1 0
vn 0 1 0
vn 0 1 0
vn 0 1 0
vn 0 1 0
vn 0 1 0
vn 0 1 0
vn 0 1 0
vn 0 1 0
vn 0 1 0
vn 0 1 0
vn 0 1 0
vn 0 1 0
vn 0 1 0
vn 0 1 0
vn 0 1 0
vn 0 1 0
vn 0 1 0
vn 0 1 0
vn 0 1 0
vn 0 1 0
vn 0 1 0
vn 0 1 0
vn 0 1 0
vn 0 1 0
vn 0 1 0
vn 0 1 0
vn 0 1 0
vn 0 1 0
vn 0 1 0
vn 0 1 0
vn 0 1 0
vn 0 1 0
vn 0 1 0
vn 0 1 0
vn 0 1 0
vn 0 1 0
g default_0
f 3/3/3 2/2/2 1/1/1
f 3/3/3 1/1/1 4/4/4
f 3/3/3 4/4/4 5/5/5
f 3/3/3 5/5/5 6/6/6
f 3/3/3 6/6/6 7/7/7
f 3/3/3 7/7/7 8/8/8
f 3/3/3 8/8/8 9/9/9
f 3/3/3 9/9/9 10/10/10
f 13/13/13 12/12/12 11/11/11
f 13/13/13 11/11/11 14/14/14
f 13/13/13 14/14/14 15/15/15
f 13/13/13 15/15/15 16/16/16
f 13/13/13 16/16/16 17/17/17
f 13/13/13 17/17/17 18/18/18
f 13/13/13 18/18/18 19/19/19
f 22/22/22 21/21/21 20/20/20
f 22/22/22 20/20/20 23/23/23
f 22/22/22 23/23/23 24/24/24
f 22/22/22 24/24/24 25/25/25
f 22/22/22 25/25/25 26/26/26
f 29/29/29 28/28/28 27/27/27
f 29/29/29 30/30/30 28/28/28
f 29/29/29 31/31/31 30/30/30
f 29/29/29 32/32/32 31/31/31
f 29/29/29 33/33/33 32/32/32
f 29/29/29 34/34/34 33/33/33
f 29/29/29 35/35/35 34/34/34
f 29/29/29 36/36/36 35/35/35
f 39/39/39 38/38/38 37/37/37
f 39/39/39 40/40/40 38/38/38
f 39/39/39 41/41/41 40/40/40
f 39/39/39 42/42/42 41/41/41
f 39/39/39 43/43/43 42/42/42
f 39/39/39 44/44/44 43/43/43
f 39/39/39 45/45/45 44/44/44
f 48/48/48 47/47/47 46/46/46
f 48/48/48 49/49/49 47/47/47
f 48/48/48 50/50/50 49/49/49
f 48/48/48 51/51/51 50/50/50
f 48/48/48 52/52/52 51/51/51
f 55/55/55 54/54/54 53/53/53
f 55/55/55 53/53/53 56/56/56
f 59/59/59 58/58/58 57/57/57
f 59/59/59 57/57/57 60/60/60
f 63/63/63 62/62/62 61/61/61
f 63/63/63 61/61/61 64/64/64
f 67/67/67 66/66/66 65/65/65
f 67/67/67 65/65/65 68/68/68
f 71/71/71 70/70/70 69/69/69
f 71/71/71 69/69/69 72/72/72
f 75/75/75 74/74/74 73/73/73
f 75/75/75 73/73/73 76/76/76
f 79/79/79 78/78/78 77/77/77
f 79/79/79 77/77/77 80/80/80
f 83/83/83 82/82/82 81/81/81
f 83/83/83 81/81/81 84/84/84
f 87/87/87 86/86/86 85/85/85
f 87/87/87 85/85/85 88/88/88
f 91/91/91 90/90/90 89/89/89
f 91/91/91 92/92/92 90/90/90
f 95/95/95 94/94/94 93/93/93
f 95/95/95 93/93/93 96/96/96
f 99/99/99 98/98/98 97/97/97
f 99/99/99 97/97/97 100/100/100
f 103/103/103 102/102/102 101/101/101
f 103/103/103 101/101/101 104/104/104
f 107/107/107 106/106/106 105/105/105
f 107/107/107 108/108/108 106/106/106
f 111/111/111 110/110/110 109/109/109
f 111/111/111 112/112/112 110/110/110
f 115/115/115 114/114/114 113/113/113
f 115/115/115 116/116/116 114/114/114
f 119/119/119 118/118/118 117/117/117
f 119/119/119 120/120/120 118/118/118
f 123/123/123 122/122/122 121/121/121
f 123/123/123 124/124/124 122/122/122
f 127/127/127 126/126/126 125/125/125
f 127/127/127 128/128/128 126/126/126
f 131/131/131 130/130/130 129/129/129
f 131/131/131 132/132/132 130/130/130
f 135/135/135 134/134/134 133/133/133
f 135/135/135 136/136/136 134/134/134
f 139/139/139 138/138/138 137/137/137
f 139/139/139 140/140/140 138/138/138
