g default
v -0.7 0.2 0.55
v -0.7 0.1 0.55
v -0.7 0.1 -0.65
v -0.7 0.2 0.45
v -0.7 0.2 -0.65
v -0.7 0.3 0.45
v -0.7 0.2 0.45
v -0.7 0.2 -0.65
v -0.7 0.3 -0.65
v -0.6 0.4 0.35
v -0.6 0.3 0.35
v -0.6 0.3 -0.55
v -0.6 0.4 -0.55
v -0.4 0.5 0.15
v -0.4 0.4 0.15
v -0.4 0.4 -0.35
v -0.4 0.5 -0.35
v -0.2 0.1 0.55
v -0.2 0 0.65
v -0.2 0 0.55
v -0.2 0.2 0.55
v -0.2 0.3 0.65
v -0.2 0.3 0.55
v 0.1 0.2 0.65
v 0.1 0.1 0.65
v 0.1 0.1 0.55
v 0.1 0.2 0.55
v 0.3 0.5 0.05
v 0.3 0.4 0.05
v 0.3 0.4 -0.25
v 0.3 0.5 -0.25
v 0.4 0.3 0.25
v 0.4 0.2 0.25
v 0.4 0.2 -0.35
v 0.4 0.3 0.15
v 0.4 0.3 -0.35
v 0.6 0.2 0.45
v 0.6 0.1 0.45
v 0.6 0.1 -0.55
v 0.6 0.2 0.35
v 0.6 0.2 -0.55
v -0.6 0.1 0.45
v -0.6 0.2 0.45
v -0.6 0.1 -0.55
v -0.6 0.2 0.35
v -0.6 0.2 -0.55
v -0.4 0.2 0.25
v -0.4 0.3 0.25
v -0.4 0.2 -0.35
v -0.4 0.3 0.15
v -0.4 0.3 -0.35
v -0.3 0.4 0.05
v -0.3 0.5 0.05
v -0.3 0.4 -0.25
v -0.3 0.5 -0.25
v -0.1 0.1 0.65
v -0.1 0.2 0.65
v -0.1 0.1 0.55
v -0.1 0.2 0.55
v 0.2 0 0.65
v 0.2 0.1 0.55
v 0.2 0 0.55
v 0.2 0.2 0.55
v 0.2 0.3 0.65
v 0.2 0.3 0.55
v 0.4 0.4 0.15
v 0.4 0.5 0.15
v 0.4 0.4 -0.35
v 0.4 0.5 -0.35
v 0.6 0.3 0.35
v 0.6 0.4 0.35
v 0.6 0.3 -0.55
v 0.6 0.4 -0.55
v 0.7 0.1 0.55
v 0.7 0.2 0.55
v 0.7 0.1 -0.65
v 0.7 0.2 0.45
v 0.7 0.2 -0.65
v 0.7 0.2 0.45
v 0.7 0.3 0.45
v 0.7 0.2 -0.65
v 0.7 0.3 -0.65
v -0.1 0.1 0.65
v -0.2 0 0.65
v -0.2 0.3 0.65
v -0.1 0.2 0.65
v 0.1 0.1 0.65
v 0.1 0.2 0.65
v 0.2 0 0.65
v 0.2 0.3 0.65
v -0.2 0.1 0.55
v -0.7 0.1 0.55
v -0.7 0.2 0.55
v -0.2 0.2 0.55
v 0.1 0.1 0.55
v -0.1 0.1 0.55
v -0.1 0.2 0.55
v 0.1 0.2 0.55
v 0.7 0.1 0.55
v 0.2 0.1 0.55
v 0.2 0.2 0.55
v 0.7 0.2 0.55
v -0.2 0.2 0.45
v -0.7 0.2 0.45
v -0.7 0.3 0.45
v -0.1 0.2 0.45
v 0.1 0.2 0.45
v 0.2 0.2 0.45
v 0.7 0.2 0.45
v 0.7 0.3 0.45
v 0.6 0.3 0.35
v -0.6 0.3 0.35
v -0.6 0.4 0.35
v 0.6 0.4 0.35
v 0.4 0.4 0.15
v -0.4 0.4 0.15
v -0.4 0.5 0.15
v 0.4 0.5 0.15
v 0.3 0.4 -0.25
v -0.3 0.4 -0.25
v -0.3 0.5 -0.25
v 0.3 0.5 -0.25
v 0.4 0.2 -0.35
v -0.4 0.2 -0.35
v -0.4 0.3 -0.35
v 0.4 0.3 -0.35
v 0.6 0.1 -0.55
v -0.6 0.1 -0.55
v -0.6 0.2 -0.55
v 0.6 0.2 -0.55
v -0.2 0 0.55
v -0.1 0.1 0.55
v -0.2 0.1 0.55
v 0.1 0.1 0.55
v 0.2 0 0.55
v 0.2 0.1 0.55
v -0.2 0.2 0.55
v -0.1 0.2 0.55
v -0.2 0.3 0.55
v 0.1 0.2 0.55
v 0.2 0.2 0.55
v 0.2 0.3 0.55
v -0.6 0.1 0.45
v -0.2 0.1 0.45
v -0.6 0.2 0.45
v -0.2 0.2 0.45
v -0.2 0.1 0.45
v -0.1 0.1 0.45
v -0.2 0.2 0.45
v -0.1 0.2 0.45
v -0.1 0.1 0.45
v 0.1 0.1 0.45
v -0.1 0.2 0.45
v 0.1 0.2 0.45
v 0.1 0.1 0.45
v 0.2 0.1 0.45
v 0.1 0.2 0.45
v 0.2 0.2 0.45
v 0.2 0.1 0.45
v 0.6 0.1 0.45
v 0.2 0.2 0.45
v 0.6 0.2 0.45
v -0.4 0.2 0.25
v 0.4 0.2 0.25
v -0.4 0.3 0.25
v 0.4 0.3 0.25
v -0.3 0.4 0.05
v 0.3 0.4 0.05
v -0.3 0.5 0.05
v 0.3 0.5 0.05
v -0.4 0.4 -0.35
v 0.4 0.4 -0.35
v -0.4 0.5 -0.35
v 0.4 0.5 -0.35
v -0.6 0.3 -0.55
v 0.6 0.3 -0.55
v -0.6 0.4 -0.55
v 0.6 0.4 -0.55
v -0.7 0.1 -0.65
v 0.7 0.1 -0.65
v -0.7 0.2 -0.65
v 0.7 0.2 -0.65
v -0.7 0.2 -0.65
v 0.7 0.2 -0.65
v -0.7 0.3 -0.65
v 0.7 0.3 -0.65
v -0.2 0 0.55
v -0.2 0 0.65
v 0.2 0 0.65
v 0.2 0 0.55
v -0.6 0.1 0.45
v -0.7 0.1 0.55
v -0.2 0.1 0.55
v -0.2 0.1 0.45
v -0.6 0.1 -0.55
v -0.7 0.1 -0.65
v 0.6 0.1 -0.55
v 0.7 0.1 -0.65
v 0.7 0.1 0.55
v 0.6 0.1 0.45
v 0.2 0.1 0.45
v 0.2 0.1 0.55
v -0.2 0.1 0.45
v -0.2 0.1 0.55
v -0.1 0.1 0.55
v -0.1 0.1 0.45
v -0.1 0.1 0.45
v -0.1 0.1 0.55
v 0.1 0.1 0.55
v 0.1 0.1 0.45
v 0.1 0.1 0.45
v 0.1 0.1 0.55
v 0.2 0.1 0.55
v 0.2 0.1 0.45
v -0.1 0.2 0.55
v -0.1 0.2 0.65
v 0.1 0.2 0.65
v 0.1 0.2 0.55
v -0.6 0.2 0.35
v -0.1 0.2 0.45
v 0.1 0.2 0.45
v 0.2 0.2 0.45
v 0.6 0.2 0.45
v -0.2 0.2 0.45
v -0.6 0.2 0.45
v 0.6 0.2 0.35
v -0.4 0.2 0.25
v -0.6 0.2 0.35
v 0.6 0.2 0.35
v 0.4 0.2 0.25
v -0.4 0.2 -0.35
v 0.4 0.2 -0.35
v -0.6 0.2 -0.55
v 0.6 0.2 -0.55
v -0.4 0.3 0.15
v -0.4 0.3 0.25
v 0.4 0.3 0.25
v 0.4 0.3 0.15
v -0.3 0.3 0.05
v -0.4 0.3 0.15
v 0.4 0.3 0.15
v 0.3 0.3 0.05
v -0.3 0.3 -0.25
v 0.3 0.3 -0.25
v -0.4 0.3 -0.35
v 0.4 0.3 -0.35
v -0.3 0.3 -0.25
v -0.3 0.3 0.05
v 0.3 0.3 0.05
v 0.3 0.3 -0.25
v -0.1 0.1 0.65
v -0.1 0.1 0.55
v 0.1 0.1 0.65
v 0.1 0.1 0.55
v -0.7 0.2 0.55
v -0.7 0.2 0.45
v -0.2 0.2 0.55
v -0.2 0.2 0.45
v -0.2 0.2 0.55
v -0.2 0.2 0.45
v -0.1 0.2 0.55
v -0.1 0.2 0.45
v -0.1 0.2 0.55
v -0.1 0.2 0.45
v 0.1 0.2 0.55
v 0.1 0.2 0.45
v 0.1 0.2 0.55
v 0.1 0.2 0.45
v 0.2 0.2 0.55
v 0.2 0.2 0.45
v 0.2 0.2 0.55
v 0.2 0.2 0.45
v 0.7 0.2 0.55
v 0.7 0.2 0.45
v -0.2 0.3 0.65
v -0.2 0.3 0.55
v 0.2 0.3 0.65
v 0.2 0.3 0.55
v -0.7 0.3 0.45
v -0.6 0.3 0.35
v 0.7 0.3 0.45
v 0.6 0.3 0.35
v -0.6 0.3 -0.55
v 0.6 0.3 -0.55
v -0.7 0.3 -0.65
v 0.7 0.3 -0.65
v -0.6 0.4 0.35
v -0.4 0.4 0.15
v 0.6 0.4 0.35
v 0.4 0.4 0.15
v -0.4 0.4 -0.35
v 0.4 0.4 -0.35
v -0.6 0.4 -0.55
v 0.6 0.4 -0.55
v -0.3 0.4 0.05
v -0.3 0.4 -0.25
v 0.3 0.4 0.05
v 0.3 0.4 -0.25
v -0.4 0.5 0.15
v -0.3 0.5 0.05
v 0.4 0.5 0.15
v 0.3 0.5 0.05
v -0.3 0.5 -0.25
v 0.3 0.5 -0.25
v -0.4 0.5 -0.35
v 0.4 0.5 -0.35
vt 0.00976562 0.5
vt 0.00976562 0.5
vt 0.00976562 0.5
vt 0.00976562 0.5
vt 0.00976562 0.5
vt 0.0605469 0.5
vt 0.0605469 0.5
vt 0.0605469 0.5
vt 0.0605469 0.5
vt 0.396484 0.5
vt 0.396484 0.5
vt 0.396484 0.5
vt 0.396484 0.5
vt 0.560547 0.5
vt 0.560547 0.5
vt 0.560547 0.5
vt 0.560547 0.5
vt 0.0175781 0.5
vt 0.0175781 0.5
vt 0.0175781 0.5
vt 0.0175781 0.5
vt 0.0175781 0.5
vt 0.0175781 0.5
vt 0.0175781 0.5
vt 0.0175781 0.5
vt 0.0175781 0.5
vt 0.0175781 0.5
vt 0.560547 0.5
vt 0.560547 0.5
vt 0.560547 0.5
vt 0.560547 0.5
vt 0.537109 0.5
vt 0.537109 0.5
vt 0.537109 0.5
vt 0.537109 0.5
vt 0.537109 0.5
vt 0.00976562 0.5
vt 0.00976562 0.5
vt 0.00976562 0.5
vt 0.00976562 0.5
vt 0.00976562 0.5
vt 0.00976562 0.5
vt 0.00976562 0.5
vt 0.00976562 0.5
vt 0.00976562 0.5
vt 0.00976562 0.5
vt 0.537109 0.5
vt 0.537109 0.5
vt 0.537109 0.5
vt 0.537109 0.5
vt 0.537109 0.5
vt 0.560547 0.5
vt 0.560547 0.5
vt 0.560547 0.5
vt 0.560547 0.5
vt 0.0175781 0.5
vt 0.0175781 0.5
vt 0.0175781 0.5
vt 0.0175781 0.5
vt 0.0175781 0.5
vt 0.0175781 0.5
vt 0.0175781 0.5
vt 0.0175781 0.5
vt 0.0175781 0.5
vt 0.0175781 0.5
vt 0.560547 0.5
vt 0.560547 0.5
vt 0.560547 0.5
vt 0.560547 0.5
vt 0.396484 0.5
vt 0.396484 0.5
vt 0.396484 0.5
vt 0.396484 0.5
vt 0.00976562 0.5
vt 0.00976562 0.5
vt 0.00976562 0.5
vt 0.00976562 0.5
vt 0.00976562 0.5
vt 0.0605469 0.5
vt 0.0605469 0.5
vt 0.0605469 0.5
vt 0.0605469 0.5
vt 0.0175781 0.5
vt 0.0175781 0.5
vt 0.0175781 0.5
vt 0.0175781 0.5
vt 0.0175781 0.5
vt 0.0175781 0.5
vt 0.0175781 0.5
vt 0.0175781 0.5
vt 0.00976562 0.5
vt 0.00976562 0.5
vt 0.00976562 0.5
vt 0.00976562 0.5
vt 0.00976562 0.5
vt 0.00976562 0.5
vt 0.00976562 0.5
vt 0.00976562 0.5
vt 0.00976562 0.5
vt 0.00976562 0.5
vt 0.00976562 0.5
vt 0.00976562 0.5
vt 0.0605469 0.5
vt 0.0605469 0.5
vt 0.0605469 0.5
vt 0.0605469 0.5
vt 0.0605469 0.5
vt 0.0605469 0.5
vt 0.0605469 0.5
vt 0.0605469 0.5
vt 0.396484 0.5
vt 0.396484 0.5
vt 0.396484 0.5
vt 0.396484 0.5
vt 0.560547 0.5
vt 0.560547 0.5
vt 0.560547 0.5
vt 0.560547 0.5
vt 0.560547 0.5
vt 0.560547 0.5
vt 0.560547 0.5
vt 0.560547 0.5
vt 0.537109 0.5
vt 0.537109 0.5
vt 0.537109 0.5
vt 0.537109 0.5
vt 0.00976562 0.5
vt 0.00976562 0.5
vt 0.00976562 0.5
vt 0.00976562 0.5
vt 0.0175781 0.5
vt 0.0175781 0.5
vt 0.0175781 0.5
vt 0.0175781 0.5
vt 0.0175781 0.5
vt 0.0175781 0.5
vt 0.0175781 0.5
vt 0.0175781 0.5
vt 0.0175781 0.5
vt 0.0175781 0.5
vt 0.0175781 0.5
vt 0.0175781 0.5
vt 0.00976562 0.5
vt 0.00976562 0.5
vt 0.00976562 0.5
vt 0.00976562 0.5
vt 0.982422 0.5
vt 0.982422 0.5
vt 0.982422 0.5
vt 0.982422 0.5
vt 0.00976562 0.5
vt 0.00976562 0.5
vt 0.00976562 0.5
vt 0.00976562 0.5
vt 0.982422 0.5
vt 0.982422 0.5
vt 0.982422 0.5
vt 0.982422 0.5
vt 0.00976562 0.5
vt 0.00976562 0.5
vt 0.00976562 0.5
vt 0.00976562 0.5
vt 0.537109 0.5
vt 0.537109 0.5
vt 0.537109 0.5
vt 0.537109 0.5
vt 0.560547 0.5
vt 0.560547 0.5
vt 0.560547 0.5
vt 0.560547 0.5
vt 0.560547 0.5
vt 0.560547 0.5
vt 0.560547 0.5
vt 0.560547 0.5
vt 0.396484 0.5
vt 0.396484 0.5
vt 0.396484 0.5
vt 0.396484 0.5
vt 0.00976562 0.5
vt 0.00976562 0.5
vt 0.00976562 0.5
vt 0.00976562 0.5
vt 0.0605469 0.5
vt 0.0605469 0.5
vt 0.0605469 0.5
vt 0.0605469 0.5
vt 0.0175781 0.5
vt 0.0175781 0.5
vt 0.0175781 0.5
vt 0.0175781 0.5
vt 0.00976562 0.5
vt 0.00976562 0.5
vt 0.00976562 0.5
vt 0.00976562 0.5
vt 0.00976562 0.5
vt 0.00976562 0.5
vt 0.00976562 0.5
vt 0.00976562 0.5
vt 0.00976562 0.5
vt 0.00976562 0.5
vt 0.00976562 0.5
vt 0.00976562 0.5
vt 0.982422 0.5
vt 0.982422 0.5
vt 0.982422 0.5
vt 0.982422 0.5
vt 0.00976562 0.5
vt 0.00976562 0.5
vt 0.00976562 0.5
vt 0.00976562 0.5
vt 0.982422 0.5
vt 0.982422 0.5
vt 0.982422 0.5
vt 0.982422 0.5
vt 0.0175781 0.5
vt 0.0175781 0.5
vt 0.0175781 0.5
vt 0.0175781 0.5
vt 0.0605469 0.5
vt 0.0605469 0.5
vt 0.0605469 0.5
vt 0.0605469 0.5
vt 0.0605469 0.5
vt 0.0605469 0.5
vt 0.0605469 0.5
vt 0.0605469 0.5
vt 0.537109 0.5
vt 0.537109 0.5
vt 0.537109 0.5
vt 0.537109 0.5
vt 0.537109 0.5
vt 0.537109 0.5
vt 0.537109 0.5
vt 0.537109 0.5
vt 0.396484 0.5
vt 0.396484 0.5
vt 0.396484 0.5
vt 0.396484 0.5
vt 0.537109 0.5
vt 0.537109 0.5
vt 0.537109 0.5
vt 0.537109 0.5
vt 0.537109 0.5
vt 0.537109 0.5
vt 0.537109 0.5
vt 0.537109 0.5
vt 0.396484 0.5
vt 0.396484 0.5
vt 0.396484 0.5
vt 0.396484 0.5
vt 0.0175781 0.5
vt 0.0175781 0.5
vt 0.0175781 0.5
vt 0.0175781 0.5
vt 0.00976562 0.5
vt 0.00976562 0.5
vt 0.00976562 0.5
vt 0.00976562 0.5
vt 0.982422 0.5
vt 0.982422 0.5
vt 0.982422 0.5
vt 0.982422 0.5
vt 0.00976562 0.5
vt 0.00976562 0.5
vt 0.00976562 0.5
vt 0.00976562 0.5
vt 0.982422 0.5
vt 0.982422 0.5
vt 0.982422 0.5
vt 0.982422 0.5
vt 0.00976562 0.5
vt 0.00976562 0.5
vt 0.00976562 0.5
vt 0.00976562 0.5
vt 0.0175781 0.5
vt 0.0175781 0.5
vt 0.0175781 0.5
vt 0.0175781 0.5
vt 0.0605469 0.5
vt 0.0605469 0.5
vt 0.0605469 0.5
vt 0.0605469 0.5
vt 0.0605469 0.5
vt 0.0605469 0.5
vt 0.0605469 0.5
vt 0.0605469 0.5
vt 0.396484 0.5
vt 0.396484 0.5
vt 0.396484 0.5
vt 0.396484 0.5
vt 0.396484 0.5
vt 0.396484 0.5
vt 0.396484 0.5
vt 0.396484 0.5
vt 0.396484 0.5
vt 0.396484 0.5
vt 0.396484 0.5
vt 0.396484 0.5
vt 0.560547 0.5
vt 0.560547 0.5
vt 0.560547 0.5
vt 0.560547 0.5
vt 0.560547 0.5
vt 0.560547 0.5
vt 0.560547 0.5
vt 0.560547 0.5
vn -1 0 0
vn -1 0 0
vn -1 0 0
vn -1 0 0
vn -1 0 0
vn -1 0 0
vn -1 0 0
vn -1 0 0
vn -1 0 0
vn -1 0 0
vn -1 0 0
vn -1 0 0
vn -1 0 0
vn -1 0 0
vn -1 0 0
vn -1 0 0
vn -1 0 0
vn -1 0 0
vn -1 0 0
vn -1 0 0
vn -1 0 0
vn -1 0 0
vn -1 0 0
vn -1 0 0
vn -1 0 0
vn -1 0 0
vn -1 0 0
vn -1 0 0
vn -1 0 0
vn -1 0 0
vn -1 0 0
vn -1 0 0
vn -1 0 0
vn -1 0 0
vn -1 0 0
vn -1 0 0
vn -1 0 0
vn -1 0 0
vn -1 0 0
vn -1 0 0
vn -1 0 0
vn 1 0 0
vn 1 0 0
vn 1 0 0
vn 1 0 0
vn 1 0 0
vn 1 0 0
vn 1 0 0
vn 1 0 0
vn 1 0 0
vn 1 0 0
vn 1 0 0
vn 1 0 0
vn 1 0 0
vn 1 0 0
vn 1 0 0
vn 1 0 0
vn 1 0 0
vn 1 0 0
vn 1 0 0
vn 1 0 0
vn 1 0 0
vn 1 0 0
vn 1 0 0
vn 1 0 0
vn 1 0 0
vn 1 0 0
vn 1 0 0
vn 1 0 0
vn 1 0 0
vn 1 0 0
vn 1 0 0
vn 1 0 0
vn 1 0 0
vn 1 0 0
vn 1 0 0
vn 1 0 0
vn 1 0 0
vn 1 0 0
vn 1 0 0
vn 1 0 0
vn 1 0 0
vn 0 0 1
vn 0 0 1
vn 0 0 1
vn 0 0 1
vn 0 0 1
vn 0 0 1
vn 0 0 1
vn 0 0 1
vn 0 0 1
vn 0 0 1
vn 0 0 1
vn 0 0 1
vn 0 0 1
vn 0 0 1
vn 0 0 1
vn 0 0 1
vn 0 0 1
vn 0 0 1
vn 0 0 1
vn 0 0 1
vn 0 0 1
vn 0 0 1
vn 0 0 1
vn 0 0 1
vn 0 0 1
vn 0 0 1
vn 0 0 1
vn 0 0 1
vn 0 0 1
vn 0 0 1
vn 0 0 1
vn 0 0 1
vn 0 0 1
vn 0 0 1
vn 0 0 1
vn 0 0 1
vn 0 0 1
vn 0 0 1
vn 0 0 1
vn 0 0 1
vn 0 0 1
vn 0 0 1
vn 0 0 1
vn 0 0 1
vn 0 0 1
vn 0 0 1
vn 0 0 1
vn 0 0 1
vn 0 0 -1
vn 0 0 -1
vn 0 0 -1
vn 0 0 -1
vn 0 0 -1
vn 0 0 -1
vn 0 0 -1
vn 0 0 -1
vn 0 0 -1
vn 0 0 -1
vn 0 0 -1
vn 0 0 -1
vn 0 0 -1
vn 0 0 -1
vn 0 0 -1
vn 0 0 -1
vn 0 0 -1
vn 0 0 -1
vn 0 0 -1
vn 0 0 -1
vn 0 0 -1
vn 0 0 -1
vn 0 0 -1
vn 0 0 -1
vn 0 0 -1
vn 0 0 -1
vn 0 0 -1
vn 0 0 -1
vn 0 0 -1
vn 0 0 -1
vn 0 0 -1
vn 0 0 -1
vn 0 0 -1
vn 0 0 -1
vn 0 0 -1
vn 0 0 -1
vn 0 0 -1
vn 0 0 -1
vn 0 0 -1
vn 0 0 -1
vn 0 0 -1
vn 0 0 -1
vn 0 0 -1
vn 0 0 -1
vn 0 0 -1
vn 0 0 -1
vn 0 0 -1
vn 0 0 -1
vn 0 0 -1
vn 0 0 -1
vn 0 0 -1
vn 0 0 -1
vn 0 0 -1
vn 0 0 -1
vn 0 0 -1
vn 0 0 -1
vn 0 -1 0
vn 0 -1 0
vn 0 -1 0
vn 0 -1 0
vn 0 -1 0
vn 0 -1 0
vn 0 -1 0
vn 0 -1 0
vn 0 -1 0
vn 0 -1 0
vn 0 -1 0
vn 0 -1 0
vn 0 -1 0
vn 0 -1 0
vn 0 -1 0
vn 0 -1 0
vn 0 -1 0
vn 0 -1 0
vn 0 -1 0
vn 0 -1 0
vn 0 -1 0
vn 0 -1 0
vn 0 -1 0
vn 0 -1 0
vn 0 -1 0
vn 0 -1 0
vn 0 -1 0
vn 0 -1 0
vn 0 -1 0
vn 0 -1 0
vn 0 -1 0
vn 0 -1 0
vn 0 -1 0
vn 0 -1 0
vn 0 -1 0
vn 0 -1 0
vn 0 -1 0
vn 0 -1 0
vn 0 -1 0
vn 0 -1 0
vn 0 -1 0
vn 0 -1 0
vn 0 -1 0
vn 0 -1 0
vn 0 -1 0
vn 0 -1 0
vn 0 -1 0
vn 0 -1 0
vn 0 -1 0
vn 0 -1 0
vn 0 -1 0
vn 0 -1 0
vn 0 -1 0
vn 0 -1 0
vn 0 -1 0
vn 0 -1 0
vn 0 -1 0
vn 0 -1 0
vn 0 -1 0
vn 0 -1 0
vn 0 -1 0
vn 0 -1 0
vn 0 -1 0
vn 0 -1 0
vn 0 1 0
vn 0 1 0
vn 0 1 0
vn 0 1 0
vn 0 1 0
vn 0 1 0
vn 0 1 0
vn 0 1 0
vn 0 1 0
vn 0 1 0
vn 0 1 0
vn 0 1 0
vn 0 1 0
vn 0 1 0
vn 0 1 0
vn 0 1 0
vn 0 1 0
vn 0 1 0
vn 0 1 0
vn 0 1 0
vn 0 1 0
vn 0 1 0
vn 0 1 0
vn 0 1 0
vn 0 1 0
vn 0 1 0
vn 0 1 0
vn 0 1 0
vn 0 1 0
vn 0 1 0
vn 0 1 0
vn 0 1 0
vn 0 1 0
vn 0 1 0
vn 0 1 0
vn 0 1 0
vn 0 1 0
vn 0 1 0
vn 0 1 0
vn 0 1 0
vn 0 1 0
vn 0 1 0
vn 0 1 0
vn 0 1 0
vn 0 1 0
vn 0 1 0
vn 0 1 0
vn 0 1 0
vn 0 1 0
vn 0 1 0
vn 0 1 0
vn 0 1 0
vn 0 1 0
vn 0 1 0
vn 0 1 0
vn 0 1 0
g default_0
f 3/3/3 2/2/2 1/1/1
f 3/3/3 1/1/1 4/4/4
f 3/3/3 4/4/4 5/5/5
f 8/8/8 7/7/7 6/6/6
f 8/8/8 6/6/6 9/9/9
f 12/12/12 11/11/11 10/10/10
f 12/12/12 10/10/10 13/13/13
f 16/16/16 15/15/15 14/14/14
f 16/16/16 14/14/14 17/17/17
f 20/20/20 19/19/19 18/18/18
f 18/18/18 19/19/19 21/21/21
f 21/21/21 19/19/19 22/22/22
f 21/21/21 22/22/22 23/23/23
f 26/26/26 25/25/25 24/24/24
f 26/26/26 24/24/24 27/27/27
f 30/30/30 29/29/29 28/28/28
f 30/30/30 28/28/28 31/31/31
f 34/34/34 33/33/33 32/32/32
f 34/34/34 32/32/32 35/35/35
f 34/34/34 35/35/35 36/36/36
f 39/39/39 38/38/38 37/37/37
f 39/39/39 37/37/37 40/40/40
f 39/39/39 40/40/40 41/41/41
f 44/44/44 43/43/43 42/42/42
f 44/44/44 45/45/45 43/43/43
f 44/44/44 46/46/46 45/45/45
f 49/49/49 48/48/48 47/47/47
f 49/49/49 50/50/50 48/48/48
f 49/49/49 51/51/51 50/50/50
f 54/54/54 53/53/53 52/52/52
f 54/54/54 55/55/55 53/53/53
f 58/58/58 57/57/57 56/56/56
f 58/58/58 59/59/59 57/57/57
f 62/62/62 61/61/61 60/60/60
f 61/61/61 63/63/63 60/60/60
f 63/63/63 64/64/64 60/60/60
f 63/63/63 65/65/65 64/64/64
f 68/68/68 67/67/67 66/66/66
f 68/68/68 69/69/69 67/67/67
f 72/72/72 71/71/71 70/70/70
f 72/72/72 73/73/73 71/71/71
f 76/76/76 75/75/75 74/74/74
f 76/76/76 77/77/77 75/75/75
f 76/76/76 78/78/78 77/77/77
f 81/81/81 80/80/80 79/79/79
f 81/81/81 82/82/82 80/80/80
f 85/85/85 84/84/84 83/83/83
f 85/85/85 83/83/83 86/86/86
f 83/83/83 84/84/84 87/87/87
f 85/85/85 86/86/86 88/88/88
f 87/87/87 84/84/84 89/89/89
f 88/88/88 87/87/87 89/89/89
f 85/85/85 88/88/88 90/90/90
f 88/88/88 89/89/89 90/90/90
f 93/93/93 92/92/92 91/91/91
f 93/93/93 91/91/91 94/94/94
f 97/97/97 96/96/96 95/95/95
f 97/97/97 95/95/95 98/98/98
f 101/101/101 100/100/100 99/99/99
f 101/101/101 99/99/99 102/102/102
f 105/105/105 104/104/104 103/103/103
f 105/105/105 103/103/103 106/106/106
f 105/105/105 106/106/106 107/107/107
f 105/105/105 107/107/107 108/108/108
f 105/105/105 108/108/108 109/109/109
f 105/105/105 109/109/109 110/110/110
f 113/113/113 112/112/112 111/111/111
f 113/113/113 111/111/111 114/114/114
f 117/117/117 116/116/116 115/115/115
f 117/117/117 115/115/115 118/118/118
f 121/121/121 120/120/120 119/119/119
f 121/121/121 119/119/119 122/122/122
f 125/125/125 124/124/124 123/123/123
f 125/125/125 123/123/123 126/126/126
f 129/129/129 128/128/128 127/127/127
f 129/129/129 127/127/127 130/130/130
f 133/133/133 132/132/132 131/131/131
f 132/132/132 134/134/134 131/131/131
f 134/134/134 135/135/135 131/131/131
f 134/134/134 136/136/136 135/135/135
f 139/139/139 138/138/138 137/137/137
f 139/139/139 140/140/140 138/138/138
f 139/139/139 141/141/141 140/140/140
f 139/139/139 142/142/142 141/141/141
f 145/145/145 144/144/144 143/143/143
f 145/145/145 146/146/146 144/144/144
f 149/149/149 148/148/148 147/147/147
f 149/149/149 150/150/150 148/148/148
f 153/153/153 152/152/152 151/151/151
f 153/153/153 154/154/154 152/152/152
f 157/157/157 156/156/156 155/155/155
f 157/157/157 158/158/158 156/156/156
f 161/161/161 160/160/160 159/159/159
f 161/161/161 162/162/162 160/160/160
f 165/165/165 164/164/164 163/163/163
f 165/165/165 166/166/166 164/164/164
f 169/169/169 168/168/168 167/167/167
f 169/169/169 170/170/170 168/168/168
f 173/173/173 172/172/172 171/171/171
f 173/173/173 174/174/174 172/172/172
f 177/177/177 176/176/176 175/175/175
f 177/177/177 178/178/178 176/176/176
f 181/181/181 180/180/180 179/179/179
f 181/181/181 182/182/182 180/180/180
f 185/185/185 184/184/184 183/183/183
f 185/185/185 186/186/186 184/184/184
f 189/189/189 188/188/188 187/187/187
f 189/189/189 187/187/187 190/190/190
f 193/193/193 192/192/192 191/191/191
f 193/193/193 191/191/191 194/194/194
f 191/191/191 192/192/192 195/195/195
f 195/195/195 192/192/192 196/196/196
f 197/197/197 195/195/195 196/196/196
f 197/197/197 196/196/196 198/198/198
f 199/199/199 197/197/197 198/198/198
f 199/199/199 200/200/200 197/197/197
f 199/199/199 201/201/201 200/200/200
f 199/199/199 202/202/202 201/201/201
f 205/205/205 204/204/204 203/203/203
f 205/205/205 203/203/203 206/206/206
f 209/209/209 208/208/208 207/207/207
f 209/209/209 207/207/207 210/210/210
f 213/213/213 212/212/212 211/211/211
f 213/213/213 211/211/211 214/214/214
f 217/217/217 216/216/216 215/215/215
f 217/217/217 215/215/215 218/218/218
f 221/221/221 220/220/220 219/219/219
f 222/222/222 221/221/221 219/219/219
f 223/223/223 222/222/222 219/219/219
f 220/220/220 224/224/224 219/219/219
f 224/224/224 225/225/225 219/219/219
f 223/223/223 219/219/219 226/226/226
f 229/229/229 228/228/228 227/227/227
f 229/229/229 227/227/227 230/230/230
f 227/227/227 228/228/228 231/231/231
f 229/229/229 230/230/230 232/232/232
f 231/231/231 228/228/228 233/233/233
f 232/232/232 231/231/231 233/233/233
f 229/229/229 232/232/232 234/234/234
f 232/232/232 233/233/233 234/234/234
f 237/237/237 236/236/236 235/235/235
f 237/237/237 235/235/235 238/238/238
f 241/241/241 240/240/240 239/239/239
f 241/241/241 239/239/239 242/242/242
f 239/239/239 240/240/240 243/243/243
f 241/241/241 242/242/242 244/244/244
f 243/243/243 240/240/240 245/245/245
f 244/244/244 243/243/243 245/245/245
f 241/241/241 244/244/244 246/246/246
f 244/244/244 245/245/245 246/246/246
f 249/249/249 248/248/248 247/247/247
f 249/249/249 247/247/247 250/250/250
f 253/253/253 252/252/252 251/251/251
f 253/253/253 254/254/254 252/252/252
f 257/257/257 256/256/256 255/255/255
f 257/257/257 258/258/258 256/256/256
f 261/261/261 260/260/260 259/259/259
f 261/261/261 262/262/262 260/260/260
f 265/265/265 264/264/264 263/263/263
f 265/265/265 266/266/266 264/264/264
f 269/269/269 268/268/268 267/267/267
f 269/269/269 270/270/270 268/268/268
f 273/273/273 272/272/272 271/271/271
f 273/273/273 274/274/274 272/272/272
f 277/277/277 276/276/276 275/275/275
f 277/277/277 278/278/278 276/276/276
f 281/281/281 280/280/280 279/279/279
f 281/281/281 282/282/282 280/280/280
f 280/280/280 283/283/283 279/279/279
f 281/281/281 284/284/284 282/282/282
f 283/283/283 285/285/285 279/279/279
f 284/284/284 285/285/285 283/283/283
f 281/281/281 286/286/286 284/284/284
f 284/284/284 286/286/286 285/285/285
f 289/289/289 288/288/288 287/287/287
f 289/289/289 290/290/290 288/288/288
f 288/288/288 291/291/291 287/287/287
f 289/289/289 292/292/292 290/290/290
f 291/291/291 293/293/293 287/287/287
f 292/292/292 293/293/293 291/291/291
f 289/289/289 294/294/294 292/292/292
f 292/292/292 294/294/294 293/293/293
f 297/297/297 296/296/296 295/295/295
f 297/297/297 298/298/298 296/296/296
f 301/301/301 300/300/300 299/299/299
f 301/301/301 302/302/302 300/300/300
f 300/300/300 303/303/303 299/299/299
f 301/301/301 304/304/304 302/302/302
f 303/303/303 305/305/305 299/299/299
f 304/304/304 305/305/305 303/303/303
f 301/301/301 306/306/306 304/304/304
f 304/304/304 306/306/306 305/305/305
