g default
v -0.25 0.1 1.1
v -0.25 0 1.1
v -0.25 0 1
v -0.25 0.1 1
v -0.25 0.1 1
v -0.25 0 1
v -0.25 0 -1
v -0.25 0.1 -1
v -0.15 0.1 -1
v -0.15 0 -1
v -0.15 0 -1.3
v -0.15 0.1 -1.3
v -0.05 0.1 1.5
v -0.05 0 1.5
v -0.05 0 1.1
v -0.05 0.1 1.1
v -0.05 0.1 -1.3
v -0.05 0 -1.3
v -0.05 0 -1.4
v -0.05 0.1 -1.4
v 0.05 0.1 -1.4
v 0.05 0 -1.4
v 0.05 0 -1.5
v 0.05 0.1 -1.5
v 0.05 0 1.5
v 0.05 0.1 1.5
v 0.05 0 1.1
v 0.05 0.1 1.1
v 0.25 0 1.1
v 0.25 0.1 1.1
v 0.25 0 1
v 0.25 0.1 1
v 0.25 0 1
v 0.25 0.1 1
v 0.25 0 -1.3
v 0.25 0.1 -1.3
v 0.25 0 -1.3
v 0.25 0.1 -1.3
v 0.25 0 -1.5
v 0.25 0.1 -1.5
v 0.05 0 1.5
v -0.05 0 1.5
v -0.05 0.1 1.5
v 0.05 0.1 1.5
v -0.05 0 1.1
v -0.25 0 1.1
v -0.25 0.1 1.1
v -0.05 0.1 1.1
v 0.25 0 1.1
v 0.05 0 1.1
v 0.05 0.1 1.1
v 0.25 0.1 1.1
v -0.25 0 -1
v -0.15 0 -1
v -0.25 0.1 -1
v -0.15 0.1 -1
v -0.15 0 -1.3
v -0.05 0 -1.3
v -0.15 0.1 -1.3
v -0.05 0.1 -1.3
v -0.05 0 -1.4
v 0.05 0 -1.4
v -0.05 0.1 -1.4
v 0.05 0.1 -1.4
v 0.05 0 -1.5
v 0.25 0 -1.5
v 0.05 0.1 -1.5
v 0.25 0.1 -1.5
v -0.05 0 1.1
v -0.05 0 1.5
v 0.05 0 1.5
v 0.05 0 1.1
v -0.25 0 1
v -0.25 0 1.1
v 0.25 0 1.1
v -0.15 0 1
v 0.05 0 1
v 0.15 0 1
v 0.25 0 1
v 0.05 0 0.4
v 0.15 0 0.4
v 0.05 0 0.4
v -0.15 0 1
v 0.05 0 1
v -0.15 0 -0.3
v 0.15 0 0.4
v -0.05 0 -0.3
v -0.05 0 -1
v 0.05 0 -1
v 0.05 0 -1.2
v 0.15 0 -1.2
v 0.25 0 1
v 0.15 0 1
v 0.15 0 -1.3
v 0.25 0 -1.3
v -0.15 0 -0.3
v -0.25 0 1
v -0.15 0 1
v -0.25 0 -1
v -0.05 0 -0.3
v -0.15 0 -1
v -0.05 0 -1
v 0.05 0 -1.2
v 0.05 0 -1
v -0.15 0 -1.3
v 0.15 0 -1.2
v -0.05 0 -1.3
v 0.15 0 -1.3
v -0.05 0 -1.4
v 0.25 0 -1.3
v 0.05 0 -1.4
v 0.05 0 -1.5
v 0.25 0 -1.5
v -0.05 0.1 1.5
v -0.05 0.1 1.1
v 0.05 0.1 1.5
v 0.05 0.1 1.1
v -0.25 0.1 1
v -0.25 0.1 1.1
v 0.25 0.1 1.1
v -0.15 0.1 1
v 0.05 0.1 1
v 0.15 0.1 1
v 0.25 0.1 1
v 0.05 0.1 0.4
v 0.15 0.1 0.4
v -0.15 0.1 1
v 0.05 0.1 0.4
v 0.05 0.1 1
v -0.15 0.1 -0.3
v 0.15 0.1 0.4
v -0.05 0.1 -0.3
v -0.05 0.1 -1
v 0.05 0.1 -1
v 0.05 0.1 -1.2
v 0.15 0.1 -1.2
v 0.25 0.1 1
v 0.15 0.1 1
v 0.15 0.1 -1.3
v 0.25 0.1 -1.3
v -0.25 0.1 1
v -0.15 0.1 -0.3
v -0.15 0.1 1
v -0.25 0.1 -1
v -0.05 0.1 -0.3
v -0.15 0.1 -1
v -0.05 0.1 -1
v 0.05 0.1 -1.2
v 0.05 0.1 -1
v -0.15 0.1 -1.3
v 0.15 0.1 -1.2
v -0.05 0.1 -1.3
v 0.15 0.1 -1.3
v -0.05 0.1 -1.4
v 0.25 0.1 -1.3
v 0.05 0.1 -1.4
v 0.05 0.1 -1.5
v 0.25 0.1 -1.5
vt 0.970703 0.5
vt 0.970703 0.5
vt 0.970703 0.5
vt 0.970703 0.5
vt 0.962891 0.5
vt 0.962891 0.5
vt 0.962891 0.5
vt 0.962891 0.5
vt 0.962891 0.5
vt 0.962891 0.5
vt 0.962891 0.5
vt 0.962891 0.5
vt 0.970703 0.5
vt 0.970703 0.5
vt 0.970703 0.5
vt 0.970703 0.5
vt 0.962891 0.5
vt 0.962891 0.5
vt 0.962891 0.5
vt 0.962891 0.5
vt 0.962891 0.5
vt 0.962891 0.5
vt 0.962891 0.5
vt 0.962891 0.5
vt 0.970703 0.5
vt 0.970703 0.5
vt 0.970703 0.5
vt 0.970703 0.5
vt 0.970703 0.5
vt 0.970703 0.5
vt 0.970703 0.5
vt 0.970703 0.5
vt 0.986328 0.5
vt 0.986328 0.5
vt 0.986328 0.5
vt 0.986328 0.5
vt 0.962891 0.5
vt 0.962891 0.5
vt 0.962891 0.5
vt 0.962891 0.5
vt 0.970703 0.5
vt 0.970703 0.5
vt 0.970703 0.5
vt 0.970703 0.5
vt 0.970703 0.5
vt 0.970703 0.5
vt 0.970703 0.5
vt 0.970703 0.5
vt 0.970703 0.5
vt 0.970703 0.5
vt 0.970703 0.5
vt 0.970703 0.5
vt 0.962891 0.5
vt 0.962891 0.5
vt 0.962891 0.5
vt 0.962891 0.5
vt 0.962891 0.5
vt 0.962891 0.5
vt 0.962891 0.5
vt 0.962891 0.5
vt 0.962891 0.5
vt 0.962891 0.5
vt 0.962891 0.5
vt 0.962891 0.5
vt 0.962891 0.5
vt 0.962891 0.5
vt 0.962891 0.5
vt 0.962891 0.5
vt 0.970703 0.5
vt 0.970703 0.5
vt 0.970703 0.5
vt 0.970703 0.5
vt 0.970703 0.5
vt 0.970703 0.5
vt 0.970703 0.5
vt 0.970703 0.5
vt 0.970703 0.5
vt 0.970703 0.5
vt 0.970703 0.5
vt 0.970703 0.5
vt 0.970703 0.5
vt 0.986328 0.5
vt 0.986328 0.5
vt 0.986328 0.5
vt 0.986328 0.5
vt 0.986328 0.5
vt 0.986328 0.5
vt 0.986328 0.5
vt 0.986328 0.5
vt 0.986328 0.5
vt 0.986328 0.5
vt 0.986328 0.5
vt 0.986328 0.5
vt 0.986328 0.5
vt 0.986328 0.5
vt 0.962891 0.5
vt 0.962891 0.5
vt 0.962891 0.5
vt 0.962891 0.5
vt 0.962891 0.5
vt 0.962891 0.5
vt 0.962891 0.5
vt 0.962891 0.5
vt 0.962891 0.5
vt 0.962891 0.5
vt 0.962891 0.5
vt 0.962891 0.5
vt 0.962891 0.5
vt 0.962891 0.5
vt 0.962891 0.5
vt 0.962891 0.5
vt 0.962891 0.5
vt 0.962891 0.5
vt 0.970703 0.5
vt 0.970703 0.5
vt 0.970703 0.5
vt 0.970703 0.5
vt 0.970703 0.5
vt 0.970703 0.5
vt 0.970703 0.5
vt 0.970703 0.5
vt 0.970703 0.5
vt 0.970703 0.5
vt 0.970703 0.5
vt 0.970703 0.5
vt 0.970703 0.5
vt 0.986328 0.5
vt 0.986328 0.5
vt 0.986328 0.5
vt 0.986328 0.5
vt 0.986328 0.5
vt 0.986328 0.5
vt 0.986328 0.5
vt 0.986328 0.5
vt 0.986328 0.5
vt 0.986328 0.5
vt 0.986328 0.5
vt 0.986328 0.5
vt 0.986328 0.5
vt 0.986328 0.5
vt 0.962891 0.5
vt 0.962891 0.5
vt 0.962891 0.5
vt 0.962891 0.5
vt 0.962891 0.5
vt 0.962891 0.5
vt 0.962891 0.5
vt 0.962891 0.5
vt 0.962891 0.5
vt 0.962891 0.5
vt 0.962891 0.5
vt 0.962891 0.5
vt 0.962891 0.5
vt 0.962891 0.5
vt 0.962891 0.5
vt 0.962891 0.5
vt 0.962891 0.5
vt 0.962891 0.5
vn -1 0 0
vn -1 0 0
vn -1 0 0
vn -1 0 0
vn -1 0 0
vn -1 0 0
vn -1 0 0
vn -1 0 0
vn -1 0 0
vn -1 0 0
vn -1 0 0
vn -1 0 0
vn -1 0 0
vn -1 0 0
vn -1 0 0
vn -1 0 0
vn -1 0 0
vn -1 0 0
vn -1 0 0
vn -1 0 0
vn -1 0 0
vn -1 0 0
vn -1 0 0
vn -1 0 0
vn 1 0 0
vn 1 0 0
vn 1 0 0
vn 1 0 0
vn 1 0 0
vn 1 0 0
vn 1 0 0
vn 1 0 0
vn 1 0 0
vn 1 0 0
vn 1 0 0
vn 1 0 0
vn 1 0 0
vn 1 0 0
vn 1 0 0
vn 1 0 0
vn 0 0 1
vn 0 0 1
vn 0 0 1
vn 0 0 1
vn 0 0 1
vn 0 0 1
vn 0 0 1
vn 0 0 1
vn 0 0 1
vn 0 0 1
vn 0 0 1
vn 0 0 1
vn 0 0 -1
vn 0 0 -1
vn 0 0 -1
vn 0 0 -1
vn 0 0 -1
vn 0 0 -1
vn 0 0 -1
vn 0 0 -1
vn 0 0 -1
vn 0 0 -1
vn 0 0 -1
vn 0 0 -1
vn 0 0 -1
vn 0 0 -1
vn 0 0 -1
vn 0 0 -1
vn 0 -1 0
vn 0 -1 0
vn 0 -1 0
vn 0 -1 0
vn 0 -1 0
vn 0 -1 0
vn 0 -1 0
vn 0 -1 0
vn 0 -1 0
vn 0 -1 0
vn 0 -1 0
vn 0 -1 0
vn 0 -1 0
vn 0 -1 0
vn 0 -1 0
vn 0 -1 0
vn 0 -1 0
vn 0 -1 0
vn 0 -1 0
vn 0 -1 0
vn 0 -1 0
vn 0 -1 0
vn 0 -1 0
vn 0 -1 0
vn 0 -1 0
vn 0 -1 0
vn 0 -1 0
vn 0 -1 0
vn 0 -1 0
vn 0 -1 0
vn 0 -1 0
vn 0 -1 0
vn 0 -1 0
vn 0 -1 0
vn 0 -1 0
vn 0 -1 0
vn 0 -1 0
vn 0 -1 0
vn 0 -1 0
vn 0 -1 0
vn 0 -1 0
vn 0 -1 0
vn 0 -1 0
vn 0 -1 0
vn 0 -1 0
vn 0 1 0
vn 0 1 0
vn 0 1 0
vn 0 1 0
vn 0 1 0
vn 0 1 0
vn 0 1 0
vn 0 1 0
vn 0 1 0
vn 0 1 0
vn 0 1 0
vn 0 1 0
vn 0 1 0
vn 0 1 0
vn 0 1 0
vn 0 1 0
vn 0 1 0
vn 0 1 0
vn 0 1 0
vn 0 1 0
vn 0 1 0
vn 0 1 0
vn 0 1 0
vn 0 1 0
vn 0 1 0
vn 0 1 0
vn 0 1 0
vn 0 1 0
vn 0 1 0
vn 0 1 0
vn 0 1 0
vn 0 1 0
vn 0 1 0
vn 0 1 0
vn 0 1 0
vn 0 1 0
vn 0 1 0
vn 0 1 0
vn 0 1 0
vn 0 1 0
vn 0 1 0
vn 0 1 0
vn 0 1 0
vn 0 1 0
vn 0 1 0
g default_0
f 3/3/3 2/2/2 1/1/1
f 3/3/3 1/1/1 4/4/4
f 7/7/7 6/6/6 5/5/5
f 7/7/7 5/5/5 8/8/8
f 11/11/11 10/10/10 9/9/9
f 11/11/11 9/9/9 12/12/12
f 15/15/15 14/14/14 13/13/13
f 15/15/15 13/13/13 16/16/16
f 19/19/19 18/18/18 17/17/17
f 19/19/19 17/17/17 20/20/20
f 23/23/23 22/22/22 21/21/21
f 23/23/23 21/21/21 24/24/24
f 27/27/27 26/26/26 25/25/25
f 27/27/27 28/28/28 26/26/26
f 31/31/31 30/30/30 29/29/29
f 31/31/31 32/32/32 30/30/30
f 35/35/35 34/34/34 33/33/33
f 35/35/35 36/36/36 34/34/34
f 39/39/39 38/38/38 37/37/37
f 39/39/39 40/40/40 38/38/38
f 43/43/43 42/42/42 41/41/41
f 43/43/43 41/41/41 44/44/44
f 47/47/47 46/46/46 45/45/45
f 47/47/47 45/45/45 48/48/48
f 51/51/51 50/50/50 49/49/49
f 51/51/51 49/49/49 52/52/52
f 55/55/55 54/54/54 53/53/53
f 55/55/55 56/56/56 54/54/54
f 59/59/59 58/58/58 57/57/57
f 59/59/59 60/60/60 58/58/58
f 63/63/63 62/62/62 61/61/61
f 63/63/63 64/64/64 62/62/62
f 67/67/67 66/66/66 65/65/65
f 67/67/67 68/68/68 66/66/66
f 71/71/71 70/70/70 69/69/69
f 71/71/71 69/69/69 72/72/72
f 72/72/72 69/69/69 73/73/73
f 69/69/69 74/74/74 73/73/73
f 75/75/75 72/72/72 73/73/73
f 75/75/75 73/73/73 76/76/76
f 75/75/75 76/76/76 77/77/77
f 75/75/75 77/77/77 78/78/78
f 75/75/75 78/78/78 79/79/79
f 78/78/78 77/77/77 80/80/80
f 78/78/78 80/80/80 81/81/81
f 84/84/84 83/83/83 82/82/82
f 82/82/82 83/83/83 85/85/85
f 86/86/86 82/82/82 85/85/85
f 86/86/86 85/85/85 87/87/87
f 86/86/86 87/87/87 88/88/88
f 86/86/86 88/88/88 89/89/89
f 86/86/86 89/89/89 90/90/90
f 86/86/86 90/90/90 91/91/91
f 92/92/92 86/86/86 91/91/91
f 92/92/92 93/93/93 86/86/86
f 92/92/92 91/91/91 94/94/94
f 92/92/92 94/94/94 95/95/95
f 98/98/98 97/97/97 96/96/96
f 96/96/96 97/97/97 99/99/99
f 100/100/100 96/96/96 99/99/99
f 100/100/100 99/99/99 101/101/101
f 100/100/100 101/101/101 102/102/102
f 102/102/102 101/101/101 103/103/103
f 104/104/104 102/102/102 103/103/103
f 103/103/103 101/101/101 105/105/105
f 106/106/106 103/103/103 105/105/105
f 106/106/106 105/105/105 107/107/107
f 106/106/106 107/107/107 108/108/108
f 108/108/108 107/107/107 109/109/109
f 110/110/110 108/108/108 109/109/109
f 110/110/110 109/109/109 111/111/111
f 110/110/110 111/111/111 112/112/112
f 110/110/110 112/112/112 113/113/113
f 116/116/116 115/115/115 114/114/114
f 116/116/116 117/117/117 115/115/115
f 117/117/117 118/118/118 115/115/115
f 115/115/115 118/118/118 119/119/119
f 120/120/120 118/118/118 117/117/117
f 120/120/120 121/121/121 118/118/118
f 120/120/120 122/122/122 121/121/121
f 120/120/120 123/123/123 122/122/122
f 120/120/120 124/124/124 123/123/123
f 123/123/123 125/125/125 122/122/122
f 123/123/123 126/126/126 125/125/125
f 129/129/129 128/128/128 127/127/127
f 128/128/128 130/130/130 127/127/127
f 131/131/131 130/130/130 128/128/128
f 131/131/131 132/132/132 130/130/130
f 131/131/131 133/133/133 132/132/132
f 131/131/131 134/134/134 133/133/133
f 131/131/131 135/135/135 134/134/134
f 131/131/131 136/136/136 135/135/135
f 137/137/137 136/136/136 131/131/131
f 137/137/137 131/131/131 138/138/138
f 137/137/137 139/139/139 136/136/136
f 137/137/137 140/140/140 139/139/139
f 143/143/143 142/142/142 141/141/141
f 142/142/142 144/144/144 141/141/141
f 145/145/145 144/144/144 142/142/142
f 145/145/145 146/146/146 144/144/144
f 145/145/145 147/147/147 146/146/146
f 147/147/147 148/148/148 146/146/146
f 149/149/149 148/148/148 147/147/147
f 148/148/148 150/150/150 146/146/146
f 151/151/151 150/150/150 148/148/148
f 151/151/151 152/152/152 150/150/150
f 151/151/151 153/153/153 152/152/152
f 153/153/153 154/154/154 152/152/152
f 155/155/155 154/154/154 153/153/153
f 155/155/155 156/156/156 154/154/154
f 155/155/155 157/157/157 156/156/156
f 155/155/155 158/158/158 157/157/157
