g default
v -0.25 0.2 0.05
v -0.25 0.1 0.25
v -0.25 0.1 0.05
v -0.25 0.4 0.25
v -0.25 0.2 -0.05
v -0.25 0.4 0.15
v -0.25 0.5 0.15
v -0.25 0.5 -0.05
v -0.15 0.1 0.25
v -0.15 0 0.25
v -0.15 0 0.05
v -0.15 0.1 0.05
v -0.15 0.4 0.35
v -0.15 0.1 0.35
v -0.15 0.4 0.25
v -0.15 0.2 -0.05
v -0.15 0.1 -0.05
v -0.15 0.1 -0.25
v -0.15 0.3 -0.15
v -0.15 0.3 -0.25
v -0.15 0.5 -0.05
v -0.15 0.5 -0.15
v -0.15 0.3 -0.25
v -0.15 0.1 -0.25
v -0.15 0.1 -0.35
v -0.15 0.3 -0.35
v -0.05 0.1 -0.05
v -0.05 0 0.05
v -0.05 0 -0.25
v -0.05 0.1 -0.25
v -0.05 0.2 0.05
v -0.05 0.2 -0.05
v -0.05 0.1 -0.25
v -0.05 0 -0.25
v -0.05 0 -0.35
v -0.05 0.1 -0.35
v -0.05 0.4 -0.15
v -0.05 0.3 -0.15
v -0.05 0.3 -0.25
v -0.05 0.4 -0.25
v -0.05 0.4 -0.25
v -0.05 0.3 -0.25
v -0.05 0.3 -0.35
v -0.05 0.4 -0.35
v 0.05 0.4 0.15
v 0.05 0.5 0.15
v 0.05 0.4 -0.15
v 0.05 0.5 -0.15
v 0.15 0 0.25
v 0.15 0.1 0.25
v 0.15 0 0.15
v 0.15 0.1 0.15
v 0.15 0.1 0.35
v 0.15 0.4 0.35
v 0.15 0.4 0.25
v 0.15 0 -0.15
v 0.15 0.1 -0.15
v 0.15 0 -0.25
v 0.15 0.1 -0.25
v 0.15 0 -0.25
v 0.15 0.1 -0.25
v 0.15 0 -0.35
v 0.15 0.1 -0.35
v 0.15 0.3 -0.15
v 0.15 0.4 -0.15
v 0.15 0.3 -0.25
v 0.15 0.4 -0.25
v 0.15 0.3 -0.25
v 0.15 0.4 -0.25
v 0.15 0.3 -0.35
v 0.15 0.4 -0.35
v 0.25 0 0.15
v 0.25 0.1 0.15
v 0.25 0 -0.15
v 0.25 0.1 -0.15
v 0.25 0.3 -0.15
v 0.25 0.1 0.25
v 0.25 0.1 -0.25
v 0.25 0.3 -0.25
v 0.25 0.4 0.25
v 0.25 0.4 -0.15
v 0.25 0.1 -0.25
v 0.25 0.3 -0.25
v 0.25 0.1 -0.35
v 0.25 0.3 -0.35
v 0.15 0.1 0.35
v -0.15 0.1 0.35
v -0.15 0.4 0.35
v 0.15 0.4 0.35
v -0.15 0.1 0.25
v -0.25 0.1 0.25
v -0.25 0.4 0.25
v -0.15 0.4 0.25
v 0.15 0 0.25
v -0.15 0 0.25
v 0.15 0.1 0.25
v 0.25 0.1 0.25
v 0.15 0.4 0.25
v 0.25 0.4 0.25
v 0.05 0.4 0.15
v -0.25 0.4 0.15
v -0.25 0.5 0.15
v 0.05 0.5 0.15
v 0.25 0 0.15
v 0.15 0 0.15
v 0.15 0.1 0.15
v 0.25 0.1 0.15
v -0.05 0.1 -0.05
v -0.15 0.1 -0.05
v -0.15 0.2 -0.05
v -0.05 0.2 -0.05
v -0.25 0.1 0.05
v -0.15 0.1 0.05
v -0.25 0.2 0.05
v -0.05 0.2 0.05
v -0.05 0 0.05
v -0.15 0 0.05
v -0.25 0.2 -0.05
v -0.15 0.2 -0.05
v -0.25 0.5 -0.05
v -0.15 0.5 -0.05
v -0.15 0.3 -0.15
v -0.05 0.3 -0.15
v -0.15 0.5 -0.15
v -0.05 0.4 -0.15
v 0.05 0.4 -0.15
v 0.05 0.5 -0.15
v 0.15 0 -0.15
v 0.25 0 -0.15
v 0.15 0.1 -0.15
v 0.25 0.1 -0.15
v 0.15 0.3 -0.15
v 0.25 0.3 -0.15
v 0.15 0.4 -0.15
v 0.25 0.4 -0.15
v -0.15 0.1 -0.35
v -0.05 0.1 -0.35
v -0.15 0.3 -0.35
v -0.05 0.3 -0.35
v 0.15 0 -0.35
v -0.05 0 -0.35
v -0.05 0.4 -0.35
v 0.15 0.1 -0.35
v 0.15 0.3 -0.35
v 0.15 0.4 -0.35
v 0.25 0.1 -0.35
v 0.25 0.3 -0.35
v 0.15 0 0.15
v -0.15 0 0.25
v 0.15 0 0.25
v -0.15 0 0.05
v 0.25 0 0.15
v -0.05 0 0.05
v 0.15 0 -0.15
v 0.25 0 -0.15
v -0.05 0 -0.25
v 0.15 0 -0.25
v -0.05 0 -0.35
v -0.05 0 -0.25
v 0.15 0 -0.25
v 0.15 0 -0.35
v -0.15 0.1 0.25
v -0.15 0.1 0.35
v 0.15 0.1 0.35
v 0.15 0.1 0.25
v 0.15 0.1 0.15
v 0.25 0.1 0.25
v 0.25 0.1 0.15
v -0.25 0.1 0.05
v -0.25 0.1 0.25
v -0.15 0.1 0.05
v -0.15 0.1 -0.25
v -0.15 0.1 -0.05
v -0.05 0.1 -0.05
v -0.05 0.1 -0.25
v 0.15 0.1 -0.25
v 0.15 0.1 -0.15
v 0.25 0.1 -0.15
v 0.25 0.1 -0.25
v -0.15 0.1 -0.35
v -0.15 0.1 -0.25
v -0.05 0.1 -0.25
v -0.05 0.1 -0.35
v 0.15 0.1 -0.35
v 0.15 0.1 -0.25
v 0.25 0.1 -0.25
v 0.25 0.1 -0.35
v -0.25 0.2 -0.05
v -0.25 0.2 0.05
v -0.05 0.2 0.05
v -0.15 0.2 -0.05
v -0.05 0.2 -0.05
v -0.15 0.3 -0.15
v -0.15 0.3 -0.25
v -0.05 0.3 -0.15
v -0.05 0.3 -0.25
v 0.15 0.3 -0.15
v 0.15 0.3 -0.25
v 0.25 0.3 -0.15
v 0.25 0.3 -0.25
v -0.15 0.3 -0.25
v -0.15 0.3 -0.35
v -0.05 0.3 -0.25
v -0.05 0.3 -0.35
v 0.15 0.3 -0.25
v 0.15 0.3 -0.35
v 0.25 0.3 -0.25
v 0.25 0.3 -0.35
v -0.15 0.4 0.35
v -0.15 0.4 0.25
v 0.15 0.4 0.35
v 0.15 0.4 0.25
v -0.25 0.4 0.15
v -0.25 0.4 0.25
v 0.25 0.4 0.25
v 0.05 0.4 0.15
v 0.05 0.4 -0.15
v 0.15 0.4 -0.15
v 0.25 0.4 -0.15
v -0.05 0.4 -0.25
v -0.05 0.4 -0.15
v 0.15 0.4 -0.25
v -0.05 0.4 -0.25
v -0.05 0.4 -0.35
v 0.15 0.4 -0.25
v 0.15 0.4 -0.35
v -0.25 0.5 0.15
v -0.25 0.5 -0.05
v 0.05 0.5 0.15
v -0.15 0.5 -0.05
v -0.15 0.5 -0.15
v 0.05 0.5 -0.15
vt 0.419922 0.5
vt 0.419922 0.5
vt 0.419922 0.5
vt 0.419922 0.5
vt 0.419922 0.5
vt 0.419922 0.5
vt 0.419922 0.5
vt 0.419922 0.5
vt 0.419922 0.5
vt 0.419922 0.5
vt 0.419922 0.5
vt 0.419922 0.5
vt 0.419922 0.5
vt 0.419922 0.5
vt 0.419922 0.5
vt 0.419922 0.5
vt 0.419922 0.5
vt 0.419922 0.5
vt 0.419922 0.5
vt 0.419922 0.5
vt 0.419922 0.5
vt 0.419922 0.5
vt 0.958984 0.5
vt 0.958984 0.5
vt 0.958984 0.5
vt 0.958984 0.5
vt 0.419922 0.5
vt 0.419922 0.5
vt 0.419922 0.5
vt 0.419922 0.5
vt 0.419922 0.5
vt 0.419922 0.5
vt 0.958984 0.5
vt 0.958984 0.5
vt 0.958984 0.5
vt 0.958984 0.5
vt 0.419922 0.5
vt 0.419922 0.5
vt 0.419922 0.5
vt 0.419922 0.5
vt 0.958984 0.5
vt 0.958984 0.5
vt 0.958984 0.5
vt 0.958984 0.5
vt 0.419922 0.5
vt 0.419922 0.5
vt 0.419922 0.5
vt 0.419922 0.5
vt 0.419922 0.5
vt 0.419922 0.5
vt 0.419922 0.5
vt 0.419922 0.5
vt 0.419922 0.5
vt 0.419922 0.5
vt 0.419922 0.5
vt 0.419922 0.5
vt 0.419922 0.5
vt 0.419922 0.5
vt 0.419922 0.5
vt 0.958984 0.5
vt 0.958984 0.5
vt 0.958984 0.5
vt 0.958984 0.5
vt 0.419922 0.5
vt 0.419922 0.5
vt 0.419922 0.5
vt 0.419922 0.5
vt 0.958984 0.5
vt 0.958984 0.5
vt 0.958984 0.5
vt 0.958984 0.5
vt 0.419922 0.5
vt 0.419922 0.5
vt 0.419922 0.5
vt 0.419922 0.5
vt 0.419922 0.5
vt 0.419922 0.5
vt 0.419922 0.5
vt 0.419922 0.5
vt 0.419922 0.5
vt 0.419922 0.5
vt 0.958984 0.5
vt 0.958984 0.5
vt 0.958984 0.5
vt 0.958984 0.5
vt 0.419922 0.5
vt 0.419922 0.5
vt 0.419922 0.5
vt 0.419922 0.5
vt 0.419922 0.5
vt 0.419922 0.5
vt 0.419922 0.5
vt 0.419922 0.5
vt 0.419922 0.5
vt 0.419922 0.5
vt 0.419922 0.5
vt 0.419922 0.5
vt 0.419922 0.5
vt 0.419922 0.5
vt 0.419922 0.5
vt 0.419922 0.5
vt 0.419922 0.5
vt 0.419922 0.5
vt 0.419922 0.5
vt 0.419922 0.5
vt 0.419922 0.5
vt 0.419922 0.5
vt 0.419922 0.5
vt 0.419922 0.5
vt 0.419922 0.5
vt 0.419922 0.5
vt 0.419922 0.5
vt 0.419922 0.5
vt 0.419922 0.5
vt 0.419922 0.5
vt 0.419922 0.5
vt 0.419922 0.5
vt 0.419922 0.5
vt 0.419922 0.5
vt 0.419922 0.5
vt 0.419922 0.5
vt 0.419922 0.5
vt 0.419922 0.5
vt 0.419922 0.5
vt 0.419922 0.5
vt 0.419922 0.5
vt 0.419922 0.5
vt 0.419922 0.5
vt 0.419922 0.5
vt 0.419922 0.5
vt 0.419922 0.5
vt 0.419922 0.5
vt 0.419922 0.5
vt 0.419922 0.5
vt 0.419922 0.5
vt 0.958984 0.5
vt 0.958984 0.5
vt 0.958984 0.5
vt 0.958984 0.5
vt 0.958984 0.5
vt 0.958984 0.5
vt 0.958984 0.5
vt 0.958984 0.5
vt 0.958984 0.5
vt 0.958984 0.5
vt 0.958984 0.5
vt 0.958984 0.5
vt 0.419922 0.5
vt 0.419922 0.5
vt 0.419922 0.5
vt 0.419922 0.5
vt 0.419922 0.5
vt 0.419922 0.5
vt 0.419922 0.5
vt 0.419922 0.5
vt 0.419922 0.5
vt 0.419922 0.5
vt 0.958984 0.5
vt 0.958984 0.5
vt 0.958984 0.5
vt 0.958984 0.5
vt 0.419922 0.5
vt 0.419922 0.5
vt 0.419922 0.5
vt 0.419922 0.5
vt 0.419922 0.5
vt 0.419922 0.5
vt 0.419922 0.5
vt 0.419922 0.5
vt 0.419922 0.5
vt 0.419922 0.5
vt 0.419922 0.5
vt 0.419922 0.5
vt 0.419922 0.5
vt 0.419922 0.5
vt 0.419922 0.5
vt 0.419922 0.5
vt 0.419922 0.5
vt 0.419922 0.5
vt 0.958984 0.5
vt 0.958984 0.5
vt 0.958984 0.5
vt 0.958984 0.5
vt 0.958984 0.5
vt 0.958984 0.5
vt 0.958984 0.5
vt 0.958984 0.5
vt 0.419922 0.5
vt 0.419922 0.5
vt 0.419922 0.5
vt 0.419922 0.5
vt 0.419922 0.5
vt 0.419922 0.5
vt 0.419922 0.5
vt 0.419922 0.5
vt 0.419922 0.5
vt 0.419922 0.5
vt 0.419922 0.5
vt 0.419922 0.5
vt 0.419922 0.5
vt 0.958984 0.5
vt 0.958984 0.5
vt 0.958984 0.5
vt 0.958984 0.5
vt 0.958984 0.5
vt 0.958984 0.5
vt 0.958984 0.5
vt 0.958984 0.5
vt 0.419922 0.5
vt 0.419922 0.5
vt 0.419922 0.5
vt 0.419922 0.5
vt 0.419922 0.5
vt 0.419922 0.5
vt 0.419922 0.5
vt 0.419922 0.5
vt 0.419922 0.5
vt 0.419922 0.5
vt 0.419922 0.5
vt 0.419922 0.5
vt 0.419922 0.5
vt 0.419922 0.5
vt 0.958984 0.5
vt 0.958984 0.5
vt 0.958984 0.5
vt 0.958984 0.5
vt 0.419922 0.5
vt 0.419922 0.5
vt 0.419922 0.5
vt 0.419922 0.5
vt 0.419922 0.5
vt 0.419922 0.5
vn -1 0 0
vn -1 0 0
vn -1 0 0
vn -1 0 0
vn -1 0 0
vn -1 0 0
vn -1 0 0
vn -1 0 0
vn -1 0 0
vn -1 0 0
vn -1 0 0
vn -1 0 0
vn -1 0 0
vn -1 0 0
vn -1 0 0
vn -1 0 0
vn -1 0 0
vn -1 0 0
vn -1 0 0
vn -1 0 0
vn -1 0 0
vn -1 0 0
vn -1 0 0
vn -1 0 0
vn -1 0 0
vn -1 0 0
vn -1 0 0
vn -1 0 0
vn -1 0 0
vn -1 0 0
vn -1 0 0
vn -1 0 0
vn -1 0 0
vn -1 0 0
vn -1 0 0
vn -1 0 0
vn -1 0 0
vn -1 0 0
vn -1 0 0
vn -1 0 0
vn -1 0 0
vn -1 0 0
vn -1 0 0
vn -1 0 0
vn 1 0 0
vn 1 0 0
vn 1 0 0
vn 1 0 0
vn 1 0 0
vn 1 0 0
vn 1 0 0
vn 1 0 0
vn 1 0 0
vn 1 0 0
vn 1 0 0
vn 1 0 0
vn 1 0 0
vn 1 0 0
vn 1 0 0
vn 1 0 0
vn 1 0 0
vn 1 0 0
vn 1 0 0
vn 1 0 0
vn 1 0 0
vn 1 0 0
vn 1 0 0
vn 1 0 0
vn 1 0 0
vn 1 0 0
vn 1 0 0
vn 1 0 0
vn 1 0 0
vn 1 0 0
vn 1 0 0
vn 1 0 0
vn 1 0 0
vn 1 0 0
vn 1 0 0
vn 1 0 0
vn 1 0 0
vn 1 0 0
vn 1 0 0
vn 1 0 0
vn 1 0 0
vn 0 0 1
vn 0 0 1
vn 0 0 1
vn 0 0 1
vn 0 0 1
vn 0 0 1
vn 0 0 1
vn 0 0 1
vn 0 0 1
vn 0 0 1
vn 0 0 1
vn 0 0 1
vn 0 0 1
vn 0 0 1
vn 0 0 1
vn 0 0 1
vn 0 0 1
vn 0 0 1
vn 0 0 1
vn 0 0 1
vn 0 0 1
vn 0 0 1
vn 0 0 1
vn 0 0 1
vn 0 0 1
vn 0 0 1
vn 0 0 -1
vn 0 0 -1
vn 0 0 -1
vn 0 0 -1
vn 0 0 -1
vn 0 0 -1
vn 0 0 -1
vn 0 0 -1
vn 0 0 -1
vn 0 0 -1
vn 0 0 -1
vn 0 0 -1
vn 0 0 -1
vn 0 0 -1
vn 0 0 -1
vn 0 0 -1
vn 0 0 -1
vn 0 0 -1
vn 0 0 -1
vn 0 0 -1
vn 0 0 -1
vn 0 0 -1
vn 0 0 -1
vn 0 0 -1
vn 0 0 -1
vn 0 0 -1
vn 0 0 -1
vn 0 0 -1
vn 0 0 -1
vn 0 0 -1
vn 0 0 -1
vn 0 0 -1
vn 0 0 -1
vn 0 0 -1
vn 0 0 -1
vn 0 0 -1
vn 0 -1 0
vn 0 -1 0
vn 0 -1 0
vn 0 -1 0
vn 0 -1 0
vn 0 -1 0
vn 0 -1 0
vn 0 -1 0
vn 0 -1 0
vn 0 -1 0
vn 0 -1 0
vn 0 -1 0
vn 0 -1 0
vn 0 -1 0
vn 0 -1 0
vn 0 -1 0
vn 0 -1 0
vn 0 -1 0
vn 0 -1 0
vn 0 -1 0
vn 0 -1 0
vn 0 -1 0
vn 0 -1 0
vn 0 -1 0
vn 0 -1 0
vn 0 -1 0
vn 0 -1 0
vn 0 -1 0
vn 0 -1 0
vn 0 -1 0
vn 0 -1 0
vn 0 -1 0
vn 0 -1 0
vn 0 -1 0
vn 0 -1 0
vn 0 -1 0
vn 0 -1 0
vn 0 -1 0
vn 0 -1 0
vn 0 -1 0
vn 0 -1 0
vn 0 -1 0
vn 0 -1 0
vn 0 -1 0
vn 0 -1 0
vn 0 1 0
vn 0 1 0
vn 0 1 0
vn 0 1 0
vn 0 1 0
vn 0 1 0
vn 0 1 0
vn 0 1 0
vn 0 1 0
vn 0 1 0
vn 0 1 0
vn 0 1 0
vn 0 1 0
vn 0 1 0
vn 0 1 0
vn 0 1 0
vn 0 1 0
vn 0 1 0
vn 0 1 0
vn 0 1 0
vn 0 1 0
vn 0 1 0
vn 0 1 0
vn 0 1 0
vn 0 1 0
vn 0 1 0
vn 0 1 0
vn 0 1 0
vn 0 1 0
vn 0 1 0
vn 0 1 0
vn 0 1 0
vn 0 1 0
vn 0 1 0
vn 0 1 0
vn 0 1 0
vn 0 1 0
vn 0 1 0
vn 0 1 0
vn 0 1 0
g default_0
f 3/3/3 2/2/2 1/1/1
f 1/1/1 2/2/2 4/4/4
f 5/5/5 1/1/1 4/4/4
f 5/5/5 4/4/4 6/6/6
f 5/5/5 6/6/6 7/7/7
f 5/5/5 7/7/7 8/8/8
f 11/11/11 10/10/10 9/9/9
f 11/11/11 9/9/9 12/12/12
f 9/9/9 14/14/14 13/13/13
f 9/9/9 13/13/13 15/15/15
f 18/18/18 17/17/17 16/16/16
f 18/18/18 16/16/16 19/19/19
f 18/18/18 19/19/19 20/20/20
f 19/19/19 16/16/16 21/21/21
f 19/19/19 21/21/21 22/22/22
f 25/25/25 24/24/24 23/23/23
f 25/25/25 23/23/23 26/26/26
f 29/29/29 28/28/28 27/27/27
f 29/29/29 27/27/27 30/30/30
f 27/27/27 28/28/28 31/31/31
f 27/27/27 31/31/31 32/32/32
f 35/35/35 34/34/34 33/33/33
f 35/35/35 33/33/33 36/36/36
f 39/39/39 38/38/38 37/37/37
f 39/39/39 37/37/37 40/40/40
f 43/43/43 42/42/42 41/41/41
f 43/43/43 41/41/41 44/44/44
f 47/47/47 46/46/46 45/45/45
f 47/47/47 48/48/48 46/46/46
f 51/51/51 50/50/50 49/49/49
f 51/51/51 52/52/52 50/50/50
f 50/50/50 54/54/54 53/53/53
f 50/50/50 55/55/55 54/54/54
f 58/58/58 57/57/57 56/56/56
f 58/58/58 59/59/59 57/57/57
f 62/62/62 61/61/61 60/60/60
f 62/62/62 63/63/63 61/61/61
f 66/66/66 65/65/65 64/64/64
f 66/66/66 67/67/67 65/65/65
f 70/70/70 69/69/69 68/68/68
f 70/70/70 71/71/71 69/69/69
f 74/74/74 73/73/73 72/72/72
f 74/74/74 75/75/75 73/73/73
f 75/75/75 76/76/76 73/73/73
f 73/73/73 76/76/76 77/77/77
f 78/78/78 76/76/76 75/75/75
f 78/78/78 79/79/79 76/76/76
f 76/76/76 80/80/80 77/77/77
f 76/76/76 81/81/81 80/80/80
f 84/84/84 83/83/83 82/82/82
f 84/84/84 85/85/85 83/83/83
f 88/88/88 87/87/87 86/86/86
f 88/88/88 86/86/86 89/89/89
f 92/92/92 91/91/91 90/90/90
f 92/92/92 90/90/90 93/93/93
f 90/90/90 95/95/95 94/94/94
f 90/90/90 94/94/94 96/96/96
f 98/98/98 96/96/96 97/97/97
f 98/98/98 97/97/97 99/99/99
f 102/102/102 101/101/101 100/100/100
f 102/102/102 100/100/100 103/103/103
f 106/106/106 105/105/105 104/104/104
f 106/106/106 104/104/104 107/107/107
f 110/110/110 109/109/109 108/108/108
f 110/110/110 108/108/108 111/111/111
f 114/114/114 113/113/113 112/112/112
f 114/114/114 115/115/115 113/113/113
f 113/113/113 115/115/115 116/116/116
f 113/113/113 116/116/116 117/117/117
f 120/120/120 119/119/119 118/118/118
f 120/120/120 121/121/121 119/119/119
f 124/124/124 123/123/123 122/122/122
f 124/124/124 125/125/125 123/123/123
f 124/124/124 126/126/126 125/125/125
f 124/124/124 127/127/127 126/126/126
f 130/130/130 129/129/129 128/128/128
f 130/130/130 131/131/131 129/129/129
f 134/134/134 133/133/133 132/132/132
f 134/134/134 135/135/135 133/133/133
f 138/138/138 137/137/137 136/136/136
f 138/138/138 139/139/139 137/137/137
f 139/139/139 140/140/140 137/137/137
f 137/137/137 140/140/140 141/141/141
f 142/142/142 140/140/140 139/139/139
f 142/142/142 143/143/143 140/140/140
f 142/142/142 144/144/144 143/143/143
f 142/142/142 145/145/145 144/144/144
f 144/144/144 146/146/146 143/143/143
f 144/144/144 147/147/147 146/146/146
f 150/150/150 149/149/149 148/148/148
f 148/148/148 149/149/149 151/151/151
f 152/152/152 148/148/148 151/151/151
f 152/152/152 151/151/151 153/153/153
f 152/152/152 153/153/153 154/154/154
f 152/152/152 154/154/154 155/155/155
f 154/154/154 153/153/153 156/156/156
f 154/154/154 156/156/156 157/157/157
f 160/160/160 159/159/159 158/158/158
f 160/160/160 158/158/158 161/161/161
f 164/164/164 163/163/163 162/162/162
f 164/164/164 162/162/162 165/165/165
f 167/167/167 165/165/165 166/166/166
f 167/167/167 166/166/166 168/168/168
f 162/162/162 170/170/170 169/169/169
f 162/162/162 169/169/169 171/171/171
f 174/174/174 173/173/173 172/172/172
f 174/174/174 172/172/172 175/175/175
f 178/178/178 177/177/177 176/176/176
f 178/178/178 176/176/176 179/179/179
f 182/182/182 181/181/181 180/180/180
f 182/182/182 180/180/180 183/183/183
f 186/186/186 185/185/185 184/184/184
f 186/186/186 184/184/184 187/187/187
f 190/190/190 189/189/189 188/188/188
f 190/190/190 188/188/188 191/191/191
f 190/190/190 191/191/191 192/192/192
f 195/195/195 194/194/194 193/193/193
f 195/195/195 196/196/196 194/194/194
f 199/199/199 198/198/198 197/197/197
f 199/199/199 200/200/200 198/198/198
f 203/203/203 202/202/202 201/201/201
f 203/203/203 204/204/204 202/202/202
f 207/207/207 206/206/206 205/205/205
f 207/207/207 208/208/208 206/206/206
f 211/211/211 210/210/210 209/209/209
f 211/211/211 212/212/212 210/210/210
f 212/212/212 213/213/213 210/210/210
f 210/210/210 213/213/213 214/214/214
f 215/215/215 213/213/213 212/212/212
f 215/215/215 216/216/216 213/213/213
f 215/215/215 217/217/217 216/216/216
f 215/215/215 218/218/218 217/217/217
f 215/215/215 219/219/219 218/218/218
f 218/218/218 220/220/220 217/217/217
f 217/217/217 220/220/220 221/221/221
f 218/218/218 222/222/222 220/220/220
f 225/225/225 224/224/224 223/223/223
f 225/225/225 226/226/226 224/224/224
f 229/229/229 228/228/228 227/227/227
f 229/229/229 230/230/230 228/228/228
f 229/229/229 231/231/231 230/230/230
f 229/229/229 232/232/232 231/231/231
