g default
v -0.55 0.3 0.25
v -0.55 0 0.25
v -0.55 0 0.15
v -0.55 0.3 0.15
v -0.45 0.3 0.25
v -0.45 0 0.35
v -0.45 0 0.25
v -0.45 0.7 0.35
v -0.45 0.7 0.25
v -0.45 0.3 0.15
v -0.45 0 0.15
v -0.45 0 -0.35
v -0.45 0.8 -0.25
v -0.45 0.7 0.25
v -0.45 0.3 0.25
v -0.45 0.8 -0.35
v -0.45 1.2 0.25
v -0.45 1.2 -0.25
v -0.35 0.4 -0.35
v -0.35 0 -0.35
v -0.35 0 -0.45
v -0.35 0.4 -0.45
v -0.35 1.2 0.35
v -0.35 0.7 0.35
v -0.35 0.7 0.25
v -0.35 1.2 0.25
v -0.35 1.2 -0.25
v -0.35 0.8 -0.25
v -0.35 0.8 -0.35
v -0.35 1.2 -0.35
v -0.35 1.3 0.25
v -0.35 1.2 0.25
v -0.35 1.2 -0.25
v -0.35 1.3 -0.25
v -0.25 0.2 0.45
v -0.25 0 0.45
v -0.25 0 0.35
v -0.25 0.2 0.35
v -0.25 1 -0.35
v -0.25 0.4 -0.35
v -0.25 0.4 -0.45
v -0.25 1 -0.45
v -0.15 0.7 0.45
v -0.15 0.2 0.45
v -0.15 0.2 0.35
v -0.15 0.7 0.35
v 0.05 0.7 0.45
v 0.05 0.6 0.45
v 0.05 0.6 0.35
v 0.05 0.7 0.35
v -0.05 0.6 0.45
v -0.05 0.7 0.45
v -0.05 0.6 0.35
v -0.05 0.7 0.35
v 0.15 0.2 0.45
v 0.15 0.7 0.45
v 0.15 0.2 0.35
v 0.15 0.7 0.35
v 0.25 0 0.45
v 0.25 0.2 0.45
v 0.25 0 0.35
v 0.25 0.2 0.35
v 0.25 0.4 -0.35
v 0.25 1 -0.35
v 0.25 0.4 -0.45
v 0.25 1 -0.45
v 0.35 0 -0.35
v 0.35 0.4 -0.35
v 0.35 0 -0.45
v 0.35 0.4 -0.45
v 0.35 0.7 0.35
v 0.35 1.2 0.35
v 0.35 0.7 0.25
v 0.35 1.2 0.25
v 0.35 0.8 -0.25
v 0.35 1.2 -0.25
v 0.35 0.8 -0.35
v 0.35 1.2 -0.35
v 0.35 1.2 0.25
v 0.35 1.3 0.25
v 0.35 1.2 -0.25
v 0.35 1.3 -0.25
v 0.45 0 0.35
v 0.45 0.3 0.25
v 0.45 0 0.25
v 0.45 0.7 0.35
v 0.45 0.7 0.25
v 0.45 0 0.15
v 0.45 0.3 0.15
v 0.45 0 -0.35
v 0.45 0.8 -0.25
v 0.45 0.7 0.25
v 0.45 0.3 0.25
v 0.45 0.8 -0.35
v 0.45 1.2 0.25
v 0.45 1.2 -0.25
v 0.55 0 0.25
v 0.55 0.3 0.25
v 0.55 0 0.15
v 0.55 0.3 0.15
v -0.15 0.2 0.45
v -0.25 0 0.45
v -0.25 0.2 0.45
v 0.15 0.2 0.45
v 0.05 0.6 0.45
v -0.05 0.6 0.45
v -0.15 0.7 0.45
v -0.05 0.7 0.45
v 0.05 0.7 0.45
v 0.15 0.7 0.45
v 0.25 0 0.45
v 0.25 0.2 0.45
v -0.35 0.7 0.35
v -0.45 0 0.35
v -0.45 0.7 0.35
v -0.25 0 0.35
v -0.35 1.2 0.35
v -0.25 0.2 0.35
v -0.15 0.2 0.35
v -0.15 0.7 0.35
v -0.05 0.7 0.35
v 0.05 0.7 0.35
v 0.05 0.6 0.35
v -0.05 0.6 0.35
v 0.15 0.7 0.35
v 0.35 0.7 0.35
v 0.25 0.2 0.35
v 0.15 0.2 0.35
v 0.25 0 0.35
v 0.35 1.2 0.35
v 0.45 0 0.35
v 0.45 0.7 0.35
v -0.45 0 0.25
v -0.55 0 0.25
v -0.55 0.3 0.25
v -0.45 0.3 0.25
v -0.35 0.7 0.25
v -0.45 0.7 0.25
v -0.45 1.2 0.25
v -0.35 1.2 0.25
v 0.35 1.2 0.25
v -0.35 1.2 0.25
v -0.35 1.3 0.25
v 0.35 1.3 0.25
v 0.45 0.7 0.25
v 0.35 0.7 0.25
v 0.35 1.2 0.25
v 0.45 1.2 0.25
v 0.55 0 0.25
v 0.45 0 0.25
v 0.45 0.3 0.25
v 0.55 0.3 0.25
v -0.55 0 0.15
v -0.45 0 0.15
v -0.55 0.3 0.15
v -0.45 0.3 0.15
v 0.45 0 0.15
v 0.55 0 0.15
v 0.45 0.3 0.15
v 0.55 0.3 0.15
v -0.45 0.8 -0.25
v -0.35 0.8 -0.25
v -0.45 1.2 -0.25
v -0.35 1.2 -0.25
v -0.35 1.2 -0.25
v 0.35 1.2 -0.25
v -0.35 1.3 -0.25
v 0.35 1.3 -0.25
v 0.35 0.8 -0.25
v 0.45 0.8 -0.25
v 0.35 1.2 -0.25
v 0.45 1.2 -0.25
v -0.45 0 -0.35
v -0.35 0 -0.35
v -0.45 0.8 -0.35
v -0.35 0.4 -0.35
v -0.35 0.8 -0.35
v -0.25 0.4 -0.35
v -0.35 1.2 -0.35
v -0.25 1 -0.35
v 0.25 1 -0.35
v 0.35 1.2 -0.35
v 0.35 0.8 -0.35
v 0.35 0.4 -0.35
v 0.25 0.4 -0.35
v 0.45 0 -0.35
v 0.35 0 -0.35
v 0.45 0.8 -0.35
v -0.35 0 -0.45
v -0.25 0.4 -0.45
v -0.35 0.4 -0.45
v 0.25 0.4 -0.45
v -0.25 1 -0.45
v 0.25 1 -0.45
v 0.35 0 -0.45
v 0.35 0.4 -0.45
v -0.25 0 0.35
v -0.25 0 0.45
v 0.25 0 0.45
v 0.25 0 0.35
v -0.45 0 0.25
v -0.45 0 0.35
v -0.25 0 0.35
v -0.25 0 0.25
v -0.55 0 0.15
v -0.55 0 0.25
v -0.45 0 0.15
v -0.25 0 0.25
v -0.25 0 0.35
v 0.25 0 0.35
v 0.25 0 0.25
v -0.45 0 0.15
v -0.45 0 0.25
v 0.45 0 0.25
v 0.45 0 0.15
v -0.45 0 -0.35
v -0.35 0 -0.35
v 0.35 0 -0.35
v 0.45 0 -0.35
v 0.25 0 0.25
v 0.25 0 0.35
v 0.45 0 0.35
v 0.45 0 0.25
v 0.45 0 0.15
v 0.55 0 0.25
v 0.55 0 0.15
v -0.35 0 -0.45
v -0.35 0 -0.35
v 0.35 0 -0.35
v 0.35 0 -0.45
v -0.25 0.2 0.45
v -0.25 0.2 0.35
v -0.15 0.2 0.45
v -0.15 0.2 0.35
v 0.15 0.2 0.45
v 0.15 0.2 0.35
v 0.25 0.2 0.45
v 0.25 0.2 0.35
v -0.55 0.3 0.25
v -0.55 0.3 0.15
v -0.45 0.3 0.25
v -0.45 0.3 0.15
v 0.45 0.3 0.25
v 0.45 0.3 0.15
v 0.55 0.3 0.25
v 0.55 0.3 0.15
v -0.35 0.4 -0.35
v -0.35 0.4 -0.45
v -0.25 0.4 -0.35
v -0.25 0.4 -0.45
v 0.25 0.4 -0.35
v 0.25 0.4 -0.45
v 0.35 0.4 -0.35
v 0.35 0.4 -0.45
v -0.05 0.6 0.45
v -0.05 0.6 0.35
v 0.05 0.6 0.45
v 0.05 0.6 0.35
v -0.15 0.7 0.45
v -0.15 0.7 0.35
v -0.05 0.7 0.45
v -0.05 0.7 0.35
v 0.05 0.7 0.45
v 0.05 0.7 0.35
v 0.15 0.7 0.45
v 0.15 0.7 0.35
v -0.45 0.7 0.35
v -0.45 0.7 0.25
v -0.35 0.7 0.35
v -0.35 0.7 0.25
v 0.35 0.7 0.35
v 0.35 0.7 0.25
v 0.45 0.7 0.35
v 0.45 0.7 0.25
v -0.45 0.8 -0.25
v -0.45 0.8 -0.35
v -0.35 0.8 -0.25
v -0.35 0.8 -0.35
v 0.35 0.8 -0.25
v 0.35 0.8 -0.35
v 0.45 0.8 -0.25
v 0.45 0.8 -0.35
v -0.25 1 -0.35
v -0.25 1 -0.45
v 0.25 1 -0.35
v 0.25 1 -0.45
v -0.35 1.2 0.35
v -0.35 1.2 0.25
v 0.35 1.2 0.35
v 0.35 1.2 0.25
v -0.45 1.2 0.25
v -0.45 1.2 -0.25
v -0.35 1.2 0.25
v -0.35 1.2 -0.25
v -0.35 1.2 -0.35
v 0.35 1.2 -0.25
v 0.35 1.2 -0.35
v 0.35 1.2 0.25
v 0.45 1.2 0.25
v 0.45 1.2 -0.25
v -0.35 1.3 0.25
v -0.35 1.3 -0.25
v 0.35 1.3 0.25
v 0.35 1.3 -0.25
vt 0.673828 0.5
vt 0.673828 0.5
vt 0.673828 0.5
vt 0.673828 0.5
vt 0.673828 0.5
vt 0.673828 0.5
vt 0.673828 0.5
vt 0.673828 0.5
vt 0.673828 0.5
vt 0.990234 0.5
vt 0.990234 0.5
vt 0.990234 0.5
vt 0.990234 0.5
vt 0.990234 0.5
vt 0.990234 0.5
vt 0.990234 0.5
vt 0.990234 0.5
vt 0.990234 0.5
vt 0.673828 0.5
vt 0.673828 0.5
vt 0.673828 0.5
vt 0.673828 0.5
vt 0.673828 0.5
vt 0.673828 0.5
vt 0.673828 0.5
vt 0.673828 0.5
vt 0.990234 0.5
vt 0.990234 0.5
vt 0.990234 0.5
vt 0.990234 0.5
vt 0.0410156 0.5
vt 0.0410156 0.5
vt 0.0410156 0.5
vt 0.0410156 0.5
vt 0.986328 0.5
vt 0.986328 0.5
vt 0.986328 0.5
vt 0.986328 0.5
vt 0.673828 0.5
vt 0.673828 0.5
vt 0.673828 0.5
vt 0.673828 0.5
vt 0.986328 0.5
vt 0.986328 0.5
vt 0.986328 0.5
vt 0.986328 0.5
vt 0.986328 0.5
vt 0.986328 0.5
vt 0.986328 0.5
vt 0.986328 0.5
vt 0.986328 0.5
vt 0.986328 0.5
vt 0.986328 0.5
vt 0.986328 0.5
vt 0.986328 0.5
vt 0.986328 0.5
vt 0.986328 0.5
vt 0.986328 0.5
vt 0.986328 0.5
vt 0.986328 0.5
vt 0.986328 0.5
vt 0.986328 0.5
vt 0.673828 0.5
vt 0.673828 0.5
vt 0.673828 0.5
vt 0.673828 0.5
vt 0.673828 0.5
vt 0.673828 0.5
vt 0.673828 0.5
vt 0.673828 0.5
vt 0.673828 0.5
vt 0.673828 0.5
vt 0.673828 0.5
vt 0.673828 0.5
vt 0.990234 0.5
vt 0.990234 0.5
vt 0.990234 0.5
vt 0.990234 0.5
vt 0.0410156 0.5
vt 0.0410156 0.5
vt 0.0410156 0.5
vt 0.0410156 0.5
vt 0.673828 0.5
vt 0.673828 0.5
vt 0.673828 0.5
vt 0.673828 0.5
vt 0.673828 0.5
vt 0.990234 0.5
vt 0.990234 0.5
vt 0.990234 0.5
vt 0.990234 0.5
vt 0.990234 0.5
vt 0.990234 0.5
vt 0.990234 0.5
vt 0.990234 0.5
vt 0.990234 0.5
vt 0.673828 0.5
vt 0.673828 0.5
vt 0.673828 0.5
vt 0.673828 0.5
vt 0.986328 0.5
vt 0.986328 0.5
vt 0.986328 0.5
vt 0.986328 0.5
vt 0.986328 0.5
vt 0.986328 0.5
vt 0.986328 0.5
vt 0.986328 0.5
vt 0.986328 0.5
vt 0.986328 0.5
vt 0.986328 0.5
vt 0.986328 0.5
vt 0.673828 0.5
vt 0.673828 0.5
vt 0.673828 0.5
vt 0.673828 0.5
vt 0.673828 0.5
vt 0.673828 0.5
vt 0.673828 0.5
vt 0.673828 0.5
vt 0.673828 0.5
vt 0.673828 0.5
vt 0.673828 0.5
vt 0.673828 0.5
vt 0.673828 0.5
vt 0.673828 0.5
vt 0.673828 0.5
vt 0.673828 0.5
vt 0.673828 0.5
vt 0.673828 0.5
vt 0.673828 0.5
vt 0.673828 0.5
vt 0.673828 0.5
vt 0.673828 0.5
vt 0.673828 0.5
vt 0.673828 0.5
vt 0.990234 0.5
vt 0.990234 0.5
vt 0.990234 0.5
vt 0.990234 0.5
vt 0.0410156 0.5
vt 0.0410156 0.5
vt 0.0410156 0.5
vt 0.0410156 0.5
vt 0.990234 0.5
vt 0.990234 0.5
vt 0.990234 0.5
vt 0.990234 0.5
vt 0.673828 0.5
vt 0.673828 0.5
vt 0.673828 0.5
vt 0.673828 0.5
vt 0.673828 0.5
vt 0.673828 0.5
vt 0.673828 0.5
vt 0.673828 0.5
vt 0.673828 0.5
vt 0.673828 0.5
vt 0.673828 0.5
vt 0.673828 0.5
vt 0.990234 0.5
vt 0.990234 0.5
vt 0.990234 0.5
vt 0.990234 0.5
vt 0.0410156 0.5
vt 0.0410156 0.5
vt 0.0410156 0.5
vt 0.0410156 0.5
vt 0.990234 0.5
vt 0.990234 0.5
vt 0.990234 0.5
vt 0.990234 0.5
vt 0.990234 0.5
vt 0.990234 0.5
vt 0.990234 0.5
vt 0.990234 0.5
vt 0.990234 0.5
vt 0.990234 0.5
vt 0.990234 0.5
vt 0.990234 0.5
vt 0.990234 0.5
vt 0.990234 0.5
vt 0.990234 0.5
vt 0.990234 0.5
vt 0.990234 0.5
vt 0.990234 0.5
vt 0.990234 0.5
vt 0.990234 0.5
vt 0.673828 0.5
vt 0.673828 0.5
vt 0.673828 0.5
vt 0.673828 0.5
vt 0.673828 0.5
vt 0.673828 0.5
vt 0.673828 0.5
vt 0.673828 0.5
vt 0.986328 0.5
vt 0.986328 0.5
vt 0.986328 0.5
vt 0.986328 0.5
vt 0.673828 0.5
vt 0.673828 0.5
vt 0.673828 0.5
vt 0.673828 0.5
vt 0.673828 0.5
vt 0.673828 0.5
vt 0.673828 0.5
vt 0.990234 0.5
vt 0.990234 0.5
vt 0.990234 0.5
vt 0.990234 0.5
vt 0.990234 0.5
vt 0.990234 0.5
vt 0.990234 0.5
vt 0.990234 0.5
vt 0.990234 0.5
vt 0.990234 0.5
vt 0.990234 0.5
vt 0.990234 0.5
vt 0.673828 0.5
vt 0.673828 0.5
vt 0.673828 0.5
vt 0.673828 0.5
vt 0.673828 0.5
vt 0.673828 0.5
vt 0.673828 0.5
vt 0.673828 0.5
vt 0.673828 0.5
vt 0.673828 0.5
vt 0.673828 0.5
vt 0.986328 0.5
vt 0.986328 0.5
vt 0.986328 0.5
vt 0.986328 0.5
vt 0.986328 0.5
vt 0.986328 0.5
vt 0.986328 0.5
vt 0.986328 0.5
vt 0.673828 0.5
vt 0.673828 0.5
vt 0.673828 0.5
vt 0.673828 0.5
vt 0.673828 0.5
vt 0.673828 0.5
vt 0.673828 0.5
vt 0.673828 0.5
vt 0.673828 0.5
vt 0.673828 0.5
vt 0.673828 0.5
vt 0.673828 0.5
vt 0.673828 0.5
vt 0.673828 0.5
vt 0.673828 0.5
vt 0.673828 0.5
vt 0.986328 0.5
vt 0.986328 0.5
vt 0.986328 0.5
vt 0.986328 0.5
vt 0.986328 0.5
vt 0.986328 0.5
vt 0.986328 0.5
vt 0.986328 0.5
vt 0.986328 0.5
vt 0.986328 0.5
vt 0.986328 0.5
vt 0.986328 0.5
vt 0.673828 0.5
vt 0.673828 0.5
vt 0.673828 0.5
vt 0.673828 0.5
vt 0.673828 0.5
vt 0.673828 0.5
vt 0.673828 0.5
vt 0.673828 0.5
vt 0.990234 0.5
vt 0.990234 0.5
vt 0.990234 0.5
vt 0.990234 0.5
vt 0.990234 0.5
vt 0.990234 0.5
vt 0.990234 0.5
vt 0.990234 0.5
vt 0.673828 0.5
vt 0.673828 0.5
vt 0.673828 0.5
vt 0.673828 0.5
vt 0.673828 0.5
vt 0.673828 0.5
vt 0.673828 0.5
vt 0.673828 0.5
vt 0.990234 0.5
vt 0.990234 0.5
vt 0.990234 0.5
vt 0.990234 0.5
vt 0.990234 0.5
vt 0.990234 0.5
vt 0.990234 0.5
vt 0.990234 0.5
vt 0.990234 0.5
vt 0.990234 0.5
vt 0.0410156 0.5
vt 0.0410156 0.5
vt 0.0410156 0.5
vt 0.0410156 0.5
vn -1 0 0
vn -1 0 0
vn -1 0 0
vn -1 0 0
vn -1 0 0
vn -1 0 0
vn -1 0 0
vn -1 0 0
vn -1 0 0
vn -1 0 0
vn -1 0 0
vn -1 0 0
vn -1 0 0
vn -1 0 0
vn -1 0 0
vn -1 0 0
vn -1 0 0
vn -1 0 0
vn -1 0 0
vn -1 0 0
vn -1 0 0
vn -1 0 0
vn -1 0 0
vn -1 0 0
vn -1 0 0
vn -1 0 0
vn -1 0 0
vn -1 0 0
vn -1 0 0
vn -1 0 0
vn -1 0 0
vn -1 0 0
vn -1 0 0
vn -1 0 0
vn -1 0 0
vn -1 0 0
vn -1 0 0
vn -1 0 0
vn -1 0 0
vn -1 0 0
vn -1 0 0
vn -1 0 0
vn -1 0 0
vn -1 0 0
vn -1 0 0
vn -1 0 0
vn -1 0 0
vn -1 0 0
vn -1 0 0
vn -1 0 0
vn 1 0 0
vn 1 0 0
vn 1 0 0
vn 1 0 0
vn 1 0 0
vn 1 0 0
vn 1 0 0
vn 1 0 0
vn 1 0 0
vn 1 0 0
vn 1 0 0
vn 1 0 0
vn 1 0 0
vn 1 0 0
vn 1 0 0
vn 1 0 0
vn 1 0 0
vn 1 0 0
vn 1 0 0
vn 1 0 0
vn 1 0 0
vn 1 0 0
vn 1 0 0
vn 1 0 0
vn 1 0 0
vn 1 0 0
vn 1 0 0
vn 1 0 0
vn 1 0 0
vn 1 0 0
vn 1 0 0
vn 1 0 0
vn 1 0 0
vn 1 0 0
vn 1 0 0
vn 1 0 0
vn 1 0 0
vn 1 0 0
vn 1 0 0
vn 1 0 0
vn 1 0 0
vn 1 0 0
vn 1 0 0
vn 1 0 0
vn 1 0 0
vn 1 0 0
vn 1 0 0
vn 1 0 0
vn 1 0 0
vn 1 0 0
vn 0 0 1
vn 0 0 1
vn 0 0 1
vn 0 0 1
vn 0 0 1
vn 0 0 1
vn 0 0 1
vn 0 0 1
vn 0 0 1
vn 0 0 1
vn 0 0 1
vn 0 0 1
vn 0 0 1
vn 0 0 1
vn 0 0 1
vn 0 0 1
vn 0 0 1
vn 0 0 1
vn 0 0 1
vn 0 0 1
vn 0 0 1
vn 0 0 1
vn 0 0 1
vn 0 0 1
vn 0 0 1
vn 0 0 1
vn 0 0 1
vn 0 0 1
vn 0 0 1
vn 0 0 1
vn 0 0 1
vn 0 0 1
vn 0 0 1
vn 0 0 1
vn 0 0 1
vn 0 0 1
vn 0 0 1
vn 0 0 1
vn 0 0 1
vn 0 0 1
vn 0 0 1
vn 0 0 1
vn 0 0 1
vn 0 0 1
vn 0 0 1
vn 0 0 1
vn 0 0 1
vn 0 0 1
vn 0 0 1
vn 0 0 1
vn 0 0 1
vn 0 0 1
vn 0 0 -1
vn 0 0 -1
vn 0 0 -1
vn 0 0 -1
vn 0 0 -1
vn 0 0 -1
vn 0 0 -1
vn 0 0 -1
vn 0 0 -1
vn 0 0 -1
vn 0 0 -1
vn 0 0 -1
vn 0 0 -1
vn 0 0 -1
vn 0 0 -1
vn 0 0 -1
vn 0 0 -1
vn 0 0 -1
vn 0 0 -1
vn 0 0 -1
vn 0 0 -1
vn 0 0 -1
vn 0 0 -1
vn 0 0 -1
vn 0 0 -1
vn 0 0 -1
vn 0 0 -1
vn 0 0 -1
vn 0 0 -1
vn 0 0 -1
vn 0 0 -1
vn 0 0 -1
vn 0 0 -1
vn 0 0 -1
vn 0 0 -1
vn 0 0 -1
vn 0 0 -1
vn 0 0 -1
vn 0 0 -1
vn 0 0 -1
vn 0 0 -1
vn 0 0 -1
vn 0 0 -1
vn 0 0 -1
vn 0 -1 0
vn 0 -1 0
vn 0 -1 0
vn 0 -1 0
vn 0 -1 0
vn 0 -1 0
vn 0 -1 0
vn 0 -1 0
vn 0 -1 0
vn 0 -1 0
vn 0 -1 0
vn 0 -1 0
vn 0 -1 0
vn 0 -1 0
vn 0 -1 0
vn 0 -1 0
vn 0 -1 0
vn 0 -1 0
vn 0 -1 0
vn 0 -1 0
vn 0 -1 0
vn 0 -1 0
vn 0 -1 0
vn 0 -1 0
vn 0 -1 0
vn 0 -1 0
vn 0 -1 0
vn 0 -1 0
vn 0 -1 0
vn 0 -1 0
vn 0 -1 0
vn 0 -1 0
vn 0 -1 0
vn 0 -1 0
vn 0 1 0
vn 0 1 0
vn 0 1 0
vn 0 1 0
vn 0 1 0
vn 0 1 0
vn 0 1 0
vn 0 1 0
vn 0 1 0
vn 0 1 0
vn 0 1 0
vn 0 1 0
vn 0 1 0
vn 0 1 0
vn 0 1 0
vn 0 1 0
vn 0 1 0
vn 0 1 0
vn 0 1 0
vn 0 1 0
vn 0 1 0
vn 0 1 0
vn 0 1 0
vn 0 1 0
vn 0 1 0
vn 0 1 0
vn 0 1 0
vn 0 1 0
vn 0 1 0
vn 0 1 0
vn 0 1 0
vn 0 1 0
vn 0 1 0
vn 0 1 0
vn 0 1 0
vn 0 1 0
vn 0 1 0
vn 0 1 0
vn 0 1 0
vn 0 1 0
vn 0 1 0
vn 0 1 0
vn 0 1 0
vn 0 1 0
vn 0 1 0
vn 0 1 0
vn 0 1 0
vn 0 1 0
vn 0 1 0
vn 0 1 0
vn 0 1 0
vn 0 1 0
vn 0 1 0
vn 0 1 0
vn 0 1 0
vn 0 1 0
vn 0 1 0
vn 0 1 0
vn 0 1 0
vn 0 1 0
vn 0 1 0
vn 0 1 0
vn 0 1 0
vn 0 1 0
vn 0 1 0
vn 0 1 0
vn 0 1 0
vn 0 1 0
vn 0 1 0
vn 0 1 0
vn 0 1 0
vn 0 1 0
vn 0 1 0
vn 0 1 0
g default_0
f 3/3/3 2/2/2 1/1/1
f 3/3/3 1/1/1 4/4/4
f 7/7/7 6/6/6 5/5/5
f 5/5/5 6/6/6 8/8/8
f 5/5/5 8/8/8 9/9/9
f 12/12/12 11/11/11 10/10/10
f 12/12/12 10/10/10 13/13/13
f 10/10/10 14/14/14 13/13/13
f 10/10/10 15/15/15 14/14/14
f 12/12/12 13/13/13 16/16/16
f 13/13/13 14/14/14 17/17/17
f 13/13/13 17/17/17 18/18/18
f 21/21/21 20/20/20 19/19/19
f 21/21/21 19/19/19 22/22/22
f 25/25/25 24/24/24 23/23/23
f 25/25/25 23/23/23 26/26/26
f 29/29/29 28/28/28 27/27/27
f 29/29/29 27/27/27 30/30/30
f 33/33/33 32/32/32 31/31/31
f 33/33/33 31/31/31 34/34/34
f 37/37/37 36/36/36 35/35/35
f 37/37/37 35/35/35 38/38/38
f 41/41/41 40/40/40 39/39/39
f 41/41/41 39/39/39 42/42/42
f 45/45/45 44/44/44 43/43/43
f 45/45/45 43/43/43 46/46/46
f 49/49/49 48/48/48 47/47/47
f 49/49/49 47/47/47 50/50/50
f 53/53/53 52/52/52 51/51/51
f 53/53/53 54/54/54 52/52/52
f 57/57/57 56/56/56 55/55/55
f 57/57/57 58/58/58 56/56/56
f 61/61/61 60/60/60 59/59/59
f 61/61/61 62/62/62 60/60/60
f 65/65/65 64/64/64 63/63/63
f 65/65/65 66/66/66 64/64/64
f 69/69/69 68/68/68 67/67/67
f 69/69/69 70/70/70 68/68/68
f 73/73/73 72/72/72 71/71/71
f 73/73/73 74/74/74 72/72/72
f 77/77/77 76/76/76 75/75/75
f 77/77/77 78/78/78 76/76/76
f 81/81/81 80/80/80 79/79/79
f 81/81/81 82/82/82 80/80/80
f 85/85/85 84/84/84 83/83/83
f 84/84/84 86/86/86 83/83/83
f 84/84/84 87/87/87 86/86/86
f 90/90/90 89/89/89 88/88/88
f 90/90/90 91/91/91 89/89/89
f 89/89/89 91/91/91 92/92/92
f 89/89/89 92/92/92 93/93/93
f 90/90/90 94/94/94 91/91/91
f 91/91/91 95/95/95 92/92/92
f 91/91/91 96/96/96 95/95/95
f 99/99/99 98/98/98 97/97/97
f 99/99/99 100/100/100 98/98/98
f 103/103/103 102/102/102 101/101/101
f 101/101/101 102/102/102 104/104/104
f 105/105/105 101/101/101 104/104/104
f 106/106/106 101/101/101 105/105/105
f 107/107/107 101/101/101 106/106/106
f 107/107/107 106/106/106 108/108/108
f 109/109/109 105/105/105 104/104/104
f 109/109/109 104/104/104 110/110/110
f 104/104/104 102/102/102 111/111/111
f 104/104/104 111/111/111 112/112/112
f 115/115/115 114/114/114 113/113/113
f 113/113/113 114/114/114 116/116/116
f 117/117/117 113/113/113 116/116/116
f 117/117/117 116/116/116 118/118/118
f 117/117/117 118/118/118 119/119/119
f 117/117/117 119/119/119 120/120/120
f 117/117/117 120/120/120 121/121/121
f 117/117/117 121/121/121 122/122/122
f 121/121/121 123/123/123 122/122/122
f 121/121/121 124/124/124 123/123/123
f 117/117/117 122/122/122 125/125/125
f 117/117/117 125/125/125 126/126/126
f 125/125/125 127/127/127 126/126/126
f 125/125/125 128/128/128 127/127/127
f 127/127/127 129/129/129 126/126/126
f 117/117/117 126/126/126 130/130/130
f 126/126/126 129/129/129 131/131/131
f 126/126/126 131/131/131 132/132/132
f 135/135/135 134/134/134 133/133/133
f 135/135/135 133/133/133 136/136/136
f 139/139/139 138/138/138 137/137/137
f 139/139/139 137/137/137 140/140/140
f 143/143/143 142/142/142 141/141/141
f 143/143/143 141/141/141 144/144/144
f 147/147/147 146/146/146 145/145/145
f 147/147/147 145/145/145 148/148/148
f 151/151/151 150/150/150 149/149/149
f 151/151/151 149/149/149 152/152/152
f 155/155/155 154/154/154 153/153/153
f 155/155/155 156/156/156 154/154/154
f 159/159/159 158/158/158 157/157/157
f 159/159/159 160/160/160 158/158/158
f 163/163/163 162/162/162 161/161/161
f 163/163/163 164/164/164 162/162/162
f 167/167/167 166/166/166 165/165/165
f 167/167/167 168/168/168 166/166/166
f 171/171/171 170/170/170 169/169/169
f 171/171/171 172/172/172 170/170/170
f 175/175/175 174/174/174 173/173/173
f 175/175/175 176/176/176 174/174/174
f 175/175/175 177/177/177 176/176/176
f 177/177/177 178/178/178 176/176/176
f 179/179/179 178/178/178 177/177/177
f 179/179/179 180/180/180 178/178/178
f 179/179/179 181/181/181 180/180/180
f 179/179/179 182/182/182 181/181/181
f 181/181/181 182/182/182 183/183/183
f 181/181/181 183/183/183 184/184/184
f 181/181/181 184/184/184 185/185/185
f 183/183/183 186/186/186 184/184/184
f 184/184/184 186/186/186 187/187/187
f 183/183/183 188/188/188 186/186/186
f 191/191/191 190/190/190 189/189/189
f 190/190/190 192/192/192 189/189/189
f 193/193/193 192/192/192 190/190/190
f 193/193/193 194/194/194 192/192/192
f 192/192/192 195/195/195 189/189/189
f 192/192/192 196/196/196 195/195/195
f 199/199/199 198/198/198 197/197/197
f 199/199/199 197/197/197 200/200/200
f 203/203/203 202/202/202 201/201/201
f 203/203/203 201/201/201 204/204/204
f 201/201/201 206/206/206 205/205/205
f 201/201/201 205/205/205 207/207/207
f 210/210/210 209/209/209 208/208/208
f 210/210/210 208/208/208 211/211/211
f 211/211/211 208/208/208 212/212/212
f 208/208/208 213/213/213 212/212/212
f 214/214/214 211/211/211 212/212/212
f 214/214/214 212/212/212 215/215/215
f 215/215/215 212/212/212 216/216/216
f 215/215/215 216/216/216 217/217/217
f 215/215/215 217/217/217 218/218/218
f 215/215/215 218/218/218 219/219/219
f 222/222/222 221/221/221 220/220/220
f 222/222/222 220/220/220 223/223/223
f 225/225/225 223/223/223 224/224/224
f 225/225/225 224/224/224 226/226/226
f 229/229/229 228/228/228 227/227/227
f 229/229/229 227/227/227 230/230/230
f 233/233/233 232/232/232 231/231/231
f 233/233/233 234/234/234 232/232/232
f 237/237/237 236/236/236 235/235/235
f 237/237/237 238/238/238 236/236/236
f 241/241/241 240/240/240 239/239/239
f 241/241/241 242/242/242 240/240/240
f 245/245/245 244/244/244 243/243/243
f 245/245/245 246/246/246 244/244/244
f 249/249/249 248/248/248 247/247/247
f 249/249/249 250/250/250 248/248/248
f 253/253/253 252/252/252 251/251/251
f 253/253/253 254/254/254 252/252/252
f 257/257/257 256/256/256 255/255/255
f 257/257/257 258/258/258 256/256/256
f 261/261/261 260/260/260 259/259/259
f 261/261/261 262/262/262 260/260/260
f 265/265/265 264/264/264 263/263/263
f 265/265/265 266/266/266 264/264/264
f 269/269/269 268/268/268 267/267/267
f 269/269/269 270/270/270 268/268/268
f 273/273/273 272/272/272 271/271/271
f 273/273/273 274/274/274 272/272/272
f 277/277/277 276/276/276 275/275/275
f 277/277/277 278/278/278 276/276/276
f 281/281/281 280/280/280 279/279/279
f 281/281/281 282/282/282 280/280/280
f 285/285/285 284/284/284 283/283/283
f 285/285/285 286/286/286 284/284/284
f 289/289/289 288/288/288 287/287/287
f 289/289/289 290/290/290 288/288/288
f 293/293/293 292/292/292 291/291/291
f 293/293/293 294/294/294 292/292/292
f 296/296/296 295/295/295 294/294/294
f 296/296/296 297/297/297 295/295/295
f 299/299/299 296/296/296 298/298/298
f 299/299/299 300/300/300 296/296/296
f 303/303/303 302/302/302 301/301/301
f 303/303/303 304/304/304 302/302/302
