g default
v -0.15 0.1 0.4
v -0.15 0 0.4
v -0.15 0 0.1
v -0.15 0.1 0.1
v -0.05 0.1 0.1
v -0.05 0 0.1
v -0.05 0 -0.4
v -0.05 0.1 -0.4
v 0.05 0.1 0.4
v 0.05 0 0.4
v 0.05 0 0.2
v 0.05 0.1 0.2
v -0.05 0 0.4
v -0.05 0.1 0.4
v -0.05 0 0.2
v -0.05 0.1 0.2
v 0.05 0 0.1
v 0.05 0.1 0.1
v 0.05 0 -0.4
v 0.05 0.1 -0.4
v 0.15 0 0.4
v 0.15 0.1 0.4
v 0.15 0 0.1
v 0.15 0.1 0.1
v -0.05 0 0.4
v -0.15 0 0.4
v -0.15 0.1 0.4
v -0.05 0.1 0.4
v 0.15 0 0.4
v 0.05 0 0.4
v 0.05 0.1 0.4
v 0.15 0.1 0.4
v 0.05 0 0.2
v -0.05 0 0.2
v -0.05 0.1 0.2
v 0.05 0.1 0.2
v -0.15 0 0.1
v -0.05 0 0.1
v -0.15 0.1 0.1
v -0.05 0.1 0.1
v 0.05 0 0.1
v 0.15 0 0.1
v 0.05 0.1 0.1
v 0.15 0.1 0.1
v -0.05 0 -0.4
v 0.05 0 -0.4
v -0.05 0.1 -0.4
v 0.05 0.1 -0.4
v -0.05 0 0.2
v -0.15 0 0.4
v -0.05 0 0.4
v -0.15 0 0.1
v 0.05 0 0.2
v -0.05 0 0.1
v 0.05 0 0.1
v 0.15 0 0.4
v 0.05 0 0.4
v 0.15 0 0.1
v -0.05 0 -0.4
v 0.05 0 -0.4
v -0.15 0.1 0.4
v -0.05 0.1 0.2
v -0.05 0.1 0.4
v -0.15 0.1 0.1
v 0.05 0.1 0.2
v -0.05 0.1 0.1
v 0.05 0.1 0.1
v 0.15 0.1 0.4
v 0.05 0.1 0.4
v 0.15 0.1 0.1
v -0.05 0.1 -0.4
v 0.05 0.1 -0.4
vt 0.970703 0.5
vt 0.970703 0.5
vt 0.970703 0.5
vt 0.970703 0.5
vt 0.970703 0.5
vt 0.970703 0.5
vt 0.970703 0.5
vt 0.970703 0.5
vt 0.970703 0.5
vt 0.970703 0.5
vt 0.970703 0.5
vt 0.970703 0.5
vt 0.970703 0.5
vt 0.970703 0.5
vt 0.970703 0.5
vt 0.970703 0.5
vt 0.970703 0.5
vt 0.970703 0.5
vt 0.970703 0.5
vt 0.970703 0.5
vt 0.970703 0.5
vt 0.970703 0.5
vt 0.970703 0.5
vt 0.970703 0.5
vt 0.970703 0.5
vt 0.970703 0.5
vt 0.970703 0.5
vt 0.970703 0.5
vt 0.970703 0.5
vt 0.970703 0.5
vt 0.970703 0.5
vt 0.970703 0.5
vt 0.970703 0.5
vt 0.970703 0.5
vt 0.970703 0.5
vt 0.970703 0.5
vt 0.970703 0.5
vt 0.970703 0.5
vt 0.970703 0.5
vt 0.970703 0.5
vt 0.970703 0.5
vt 0.970703 0.5
vt 0.970703 0.5
vt 0.970703 0.5
vt 0.970703 0.5
vt 0.970703 0.5
vt 0.970703 0.5
vt 0.970703 0.5
vt 0.970703 0.5
vt 0.970703 0.5
vt 0.970703 0.5
vt 0.970703 0.5
vt 0.970703 0.5
vt 0.970703 0.5
vt 0.970703 0.5
vt 0.970703 0.5
vt 0.970703 0.5
vt 0.970703 0.5
vt 0.970703 0.5
vt 0.970703 0.5
vt 0.970703 0.5
vt 0.970703 0.5
vt 0.970703 0.5
vt 0.970703 0.5
vt 0.970703 0.5
vt 0.970703 0.5
vt 0.970703 0.5
vt 0.970703 0.5
vt 0.970703 0.5
vt 0.970703 0.5
vt 0.970703 0.5
vt 0.970703 0.5
vn -1 0 0
vn -1 0 0
vn -1 0 0
vn -1 0 0
vn -1 0 0
vn -1 0 0
vn -1 0 0
vn -1 0 0
vn -1 0 0
vn -1 0 0
vn -1 0 0
vn -1 0 0
vn 1 0 0
vn 1 0 0
vn 1 0 0
vn 1 0 0
vn 1 0 0
vn 1 0 0
vn 1 0 0
vn 1 0 0
vn 1 0 0
vn 1 0 0
vn 1 0 0
vn 1 0 0
vn 0 0 1
vn 0 0 1
vn 0 0 1
vn 0 0 1
vn 0 0 1
vn 0 0 1
vn 0 0 1
vn 0 0 1
vn 0 0 1
vn 0 0 1
vn 0 0 1
vn 0 0 1
vn 0 0 -1
vn 0 0 -1
vn 0 0 -1
vn 0 0 -1
vn 0 0 -1
vn 0 0 -1
vn 0 0 -1
vn 0 0 -1
vn 0 0 -1
vn 0 0 -1
vn 0 0 -1
vn 0 0 -1
vn 0 -1 0
vn 0 -1 0
vn 0 -1 0
vn 0 -1 0
vn 0 -1 0
vn 0 -1 0
vn 0 -1 0
vn 0 -1 0
vn 0 -1 0
vn 0 -1 0
vn 0 -1 0
vn 0 -1 0
vn 0 1 0
vn 0 1 0
vn 0 1 0
vn 0 1 0
vn 0 1 0
vn 0 1 0
vn 0 1 0
vn 0 1 0
vn 0 1 0
vn 0 1 0
vn 0 1 0
vn 0 1 0
g default_0
f 3/3/3 2/2/2 1/1/1
f 3/3/3 1/1/1 4/4/4
f 7/7/7 6/6/6 5/5/5
f 7/7/7 5/5/5 8/8/8
f 11/11/11 10/10/10 9/9/9
f 11/11/11 9/9/9 12/12/12
f 15/15/15 14/14/14 13/13/13
f 15/15/15 16/16/16 14/14/14
f 19/19/19 18/18/18 17/17/17
f 19/19/19 20/20/20 18/18/18
f 23/23/23 22/22/22 21/21/21
f 23/23/23 24/24/24 22/22/22
f 27/27/27 26/26/26 25/25/25
f 27/27/27 25/25/25 28/28/28
f 31/31/31 30/30/30 29/29/29
f 31/31/31 29/29/29 32/32/32
f 35/35/35 34/34/34 33/33/33
f 35/35/35 33/33/33 36/36/36
f 39/39/39 38/38/38 37/37/37
f 39/39/39 40/40/40 38/38/38
f 43/43/43 42/42/42 41/41/41
f 43/43/43 44/44/44 42/42/42
f 47/47/47 46/46/46 45/45/45
f 47/47/47 48/48/48 46/46/46
f 51/51/51 50/50/50 49/49/49
f 49/49/49 50/50/50 52/52/52
f 53/53/53 49/49/49 52/52/52
f 53/53/53 52/52/52 54/54/54
f 53/53/53 54/54/54 55/55/55
f 56/56/56 53/53/53 55/55/55
f 56/56/56 57/57/57 53/53/53
f 56/56/56 55/55/55 58/58/58
f 55/55/55 54/54/54 59/59/59
f 55/55/55 59/59/59 60/60/60
f 63/63/63 62/62/62 61/61/61
f 62/62/62 64/64/64 61/61/61
f 65/65/65 64/64/64 62/62/62
f 65/65/65 66/66/66 64/64/64
f 65/65/65 67/67/67 66/66/66
f 68/68/68 67/67/67 65/65/65
f 68/68/68 65/65/65 69/69/69
f 68/68/68 70/70/70 67/67/67
f 67/67/67 71/71/71 66/66/66
f 67/67/67 72/72/72 71/71/71
