g default
v -0.4 2.6 0.2
v -0.4 2.4 0.2
v -0.4 2.4 -0.2
v -0.4 2.8 -0.2
v -0.4 2.8 0.3
v -0.4 2.6 0.3
v -0.3 2.4 0.2
v -0.3 2.2 0.3
v -0.3 2.2 -0.3
v -0.3 2.4 -0.2
v -0.3 2.5 0.3
v -0.3 2.6 0.3
v -0.3 2.5 0.4
v -0.3 2.6 0.2
v -0.3 2.8 0.4
v -0.3 2.8 0.3
v -0.3 2.8 -0.2
v -0.3 2.8 -0.3
v 0.3 2.2 0.3
v 0.3 2.4 0.2
v 0.3 2.2 -0.3
v 0.3 2.4 -0.2
v 0.3 2.5 0.3
v 0.3 2.6 0.3
v 0.3 2.5 0.4
v 0.3 2.6 0.2
v 0.3 2.8 0.4
v 0.3 2.8 0.3
v 0.3 2.8 -0.2
v 0.3 2.8 -0.3
v 0.4 2.4 0.2
v 0.4 2.6 0.2
v 0.4 2.4 -0.2
v 0.4 2.8 -0.2
v 0.4 2.8 0.3
v 0.4 2.6 0.3
v 0.3 2.5 0.4
v -0.3 2.5 0.4
v -0.3 2.8 0.4
v 0.3 2.8 0.4
v -0.3 2.6 0.3
v -0.4 2.6 0.3
v -0.4 2.8 0.3
v -0.3 2.8 0.3
v 0.3 2.2 0.3
v -0.3 2.2 0.3
v -0.3 2.5 0.3
v 0.3 2.5 0.3
v 0.4 2.6 0.3
v 0.3 2.6 0.3
v 0.3 2.8 0.3
v 0.4 2.8 0.3
v -0.3 2.4 0.2
v -0.4 2.4 0.2
v -0.4 2.6 0.2
v -0.3 2.6 0.2
v 0.4 2.4 0.2
v 0.3 2.4 0.2
v 0.3 2.6 0.2
v 0.4 2.6 0.2
v -0.4 2.4 -0.2
v -0.3 2.4 -0.2
v -0.4 2.8 -0.2
v -0.3 2.8 -0.2
v 0.3 2.4 -0.2
v 0.4 2.4 -0.2
v 0.3 2.8 -0.2
v 0.4 2.8 -0.2
v -0.3 2.2 -0.3
v 0.3 2.2 -0.3
v -0.3 2.8 -0.3
v 0.3 2.8 -0.3
v -0.3 2.2 -0.3
v -0.3 2.2 0.3
v 0.3 2.2 0.3
v 0.3 2.2 -0.3
v -0.4 2.4 -0.2
v -0.4 2.4 0.2
v -0.3 2.4 0.2
v -0.3 2.4 -0.2
v 0.3 2.4 -0.2
v 0.3 2.4 0.2
v 0.4 2.4 0.2
v 0.4 2.4 -0.2
v -0.3 2.5 0.3
v -0.3 2.5 0.4
v 0.3 2.5 0.4
v 0.3 2.5 0.3
v -0.4 2.6 0.2
v -0.4 2.6 0.3
v -0.3 2.6 0.3
v -0.3 2.6 0.2
v 0.3 2.6 0.2
v 0.3 2.6 0.3
v 0.4 2.6 0.3
v 0.4 2.6 0.2
v -0.3 2.8 0.4
v -0.3 2.8 0.3
v 0.3 2.8 0.4
v 0.3 2.8 0.3
v -0.4 2.8 -0.2
v -0.4 2.8 0.3
v 0.4 2.8 0.3
v -0.3 2.8 -0.2
v 0.3 2.8 -0.2
v 0.4 2.8 -0.2
v -0.3 2.8 -0.3
v 0.3 2.8 -0.3
vt 0.982422 0.5
vt 0.982422 0.5
vt 0.982422 0.5
vt 0.982422 0.5
vt 0.982422 0.5
vt 0.982422 0.5
vt 0.982422 0.5
vt 0.982422 0.5
vt 0.982422 0.5
vt 0.982422 0.5
vt 0.982422 0.5
vt 0.982422 0.5
vt 0.982422 0.5
vt 0.982422 0.5
vt 0.982422 0.5
vt 0.982422 0.5
vt 0.982422 0.5
vt 0.982422 0.5
vt 0.982422 0.5
vt 0.982422 0.5
vt 0.982422 0.5
vt 0.982422 0.5
vt 0.982422 0.5
vt 0.982422 0.5
vt 0.982422 0.5
vt 0.982422 0.5
vt 0.982422 0.5
vt 0.982422 0.5
vt 0.982422 0.5
vt 0.982422 0.5
vt 0.982422 0.5
vt 0.982422 0.5
vt 0.982422 0.5
vt 0.982422 0.5
vt 0.982422 0.5
vt 0.982422 0.5
vt 0.982422 0.5
vt 0.982422 0.5
vt 0.982422 0.5
vt 0.982422 0.5
vt 0.982422 0.5
vt 0.982422 0.5
vt 0.982422 0.5
vt 0.982422 0.5
vt 0.982422 0.5
vt 0.982422 0.5
vt 0.982422 0.5
vt 0.982422 0.5
vt 0.982422 0.5
vt 0.982422 0.5
vt 0.982422 0.5
vt 0.982422 0.5
vt 0.982422 0.5
vt 0.982422 0.5
vt 0.982422 0.5
vt 0.982422 0.5
vt 0.982422 0.5
vt 0.982422 0.5
vt 0.982422 0.5
vt 0.982422 0.5
vt 0.982422 0.5
vt 0.982422 0.5
vt 0.982422 0.5
vt 0.982422 0.5
vt 0.982422 0.5
vt 0.982422 0.5
vt 0.982422 0.5
vt 0.982422 0.5
vt 0.982422 0.5
vt 0.982422 0.5
vt 0.982422 0.5
vt 0.982422 0.5
vt 0.982422 0.5
vt 0.982422 0.5
vt 0.982422 0.5
vt 0.982422 0.5
vt 0.982422 0.5
vt 0.982422 0.5
vt 0.982422 0.5
vt 0.982422 0.5
vt 0.982422 0.5
vt 0.982422 0.5
vt 0.982422 0.5
vt 0.982422 0.5
vt 0.982422 0.5
vt 0.982422 0.5
vt 0.982422 0.5
vt 0.982422 0.5
vt 0.982422 0.5
vt 0.982422 0.5
vt 0.982422 0.5
vt 0.982422 0.5
vt 0.982422 0.5
vt 0.982422 0.5
vt 0.982422 0.5
vt 0.982422 0.5
vt 0.982422 0.5
vt 0.982422 0.5
vt 0.982422 0.5
vt 0.982422 0.5
vt 0.982422 0.5
vt 0.982422 0.5
vt 0.982422 0.5
vt 0.982422 0.5
vt 0.982422 0.5
vt 0.982422 0.5
vt 0.982422 0.5
vt 0.982422 0.5
vn -1 0 0
vn -1 0 0
vn -1 0 0
vn -1 0 0
vn -1 0 0
vn -1 0 0
vn -1 0 0
vn -1 0 0
vn -1 0 0
vn -1 0 0
vn -1 0 0
vn -1 0 0
vn -1 0 0
vn -1 0 0
vn -1 0 0
vn -1 0 0
vn -1 0 0
vn -1 0 0
vn 1 0 0
vn 1 0 0
vn 1 0 0
vn 1 0 0
vn 1 0 0
vn 1 0 0
vn 1 0 0
vn 1 0 0
vn 1 0 0
vn 1 0 0
vn 1 0 0
vn 1 0 0
vn 1 0 0
vn 1 0 0
vn 1 0 0
vn 1 0 0
vn 1 0 0
vn 1 0 0
vn 0 0 1
vn 0 0 1
vn 0 0 1
vn 0 0 1
vn 0 0 1
vn 0 0 1
vn 0 0 1
vn 0 0 1
vn 0 0 1
vn 0 0 1
vn 0 0 1
vn 0 0 1
vn 0 0 1
vn 0 0 1
vn 0 0 1
vn 0 0 1
vn 0 0 1
vn 0 0 1
vn 0 0 1
vn 0 0 1
vn 0 0 1
vn 0 0 1
vn 0 0 1
vn 0 0 1
vn 0 0 -1
vn 0 0 -1
vn 0 0 -1
vn 0 0 -1
vn 0 0 -1
vn 0 0 -1
vn 0 0 -1
vn 0 0 -1
vn 0 0 -1
vn 0 0 -1
vn 0 0 -1
vn 0 0 -1
vn 0 -1 0
vn 0 -1 0
vn 0 -1 0
vn 0 -1 0
vn 0 -1 0
vn 0 -1 0
vn 0 -1 0
vn 0 -1 0
vn 0 -1 0
vn 0 -1 0
vn 0 -1 0
vn 0 -1 0
vn 0 -1 0
vn 0 -1 0
vn 0 -1 0
vn 0 -1 0
vn 0 -1 0
vn 0 -1 0
vn 0 -1 0
vn 0 -1 0
vn 0 -1 0
vn 0 -1 0
vn 0 -1 0
vn 0 -1 0
vn 0 1 0
vn 0 1 0
vn 0 1 0
vn 0 1 0
vn 0 1 0
vn 0 1 0
vn 0 1 0
vn 0 1 0
vn 0 1 0
vn 0 1 0
vn 0 1 0
vn 0 1 0
g default_0
f 3/3/3 2/2/2 1/1/1
f 3/3/3 1/1/1 4/4/4
f 1/1/1 5/5/5 4/4/4
f 1/1/1 6/6/6 5/5/5
f 9/9/9 8/8/8 7/7/7
f 9/9/9 7/7/7 10/10/10
f 7/7/7 8/8/8 11/11/11
f 7/7/7 11/11/11 12/12/12
f 11/11/11 13/13/13 12/12/12
f 7/7/7 12/12/12 14/14/14
f 12/12/12 13/13/13 15/15/15
f 12/12/12 15/15/15 16/16/16
f 9/9/9 10/10/10 17/17/17
f 9/9/9 17/17/17 18/18/18
f 21/21/21 20/20/20 19/19/19
f 21/21/21 22/22/22 20/20/20
f 20/20/20 23/23/23 19/19/19
f 20/20/20 24/24/24 23/23/23
f 23/23/23 24/24/24 25/25/25
f 20/20/20 26/26/26 24/24/24
f 24/24/24 27/27/27 25/25/25
f 24/24/24 28/28/28 27/27/27
f 21/21/21 29/29/29 22/22/22
f 21/21/21 30/30/30 29/29/29
f 33/33/33 32/32/32 31/31/31
f 33/33/33 34/34/34 32/32/32
f 32/32/32 34/34/34 35/35/35
f 32/32/32 35/35/35 36/36/36
f 39/39/39 38/38/38 37/37/37
f 39/39/39 37/37/37 40/40/40
f 43/43/43 42/42/42 41/41/41
f 43/43/43 41/41/41 44/44/44
f 47/47/47 46/46/46 45/45/45
f 47/47/47 45/45/45 48/48/48
f 51/51/51 50/50/50 49/49/49
f 51/51/51 49/49/49 52/52/52
f 55/55/55 54/54/54 53/53/53
f 55/55/55 53/53/53 56/56/56
f 59/59/59 58/58/58 57/57/57
f 59/59/59 57/57/57 60/60/60
f 63/63/63 62/62/62 61/61/61
f 63/63/63 64/64/64 62/62/62
f 67/67/67 66/66/66 65/65/65
f 67/67/67 68/68/68 66/66/66
f 71/71/71 70/70/70 69/69/69
f 71/71/71 72/72/72 70/70/70
f 75/75/75 74/74/74 73/73/73
f 75/75/75 73/73/73 76/76/76
f 79/79/79 78/78/78 77/77/77
f 79/79/79 77/77/77 80/80/80
f 83/83/83 82/82/82 81/81/81
f 83/83/83 81/81/81 84/84/84
f 87/87/87 86/86/86 85/85/85
f 87/87/87 85/85/85 88/88/88
f 91/91/91 90/90/90 89/89/89
f 91/91/91 89/89/89 92/92/92
f 95/95/95 94/94/94 93/93/93
f 95/95/95 93/93/93 96/96/96
f 99/99/99 98/98/98 97/97/97
f 99/99/99 100/100/100 98/98/98
f 100/100/100 101/101/101 98/98/98
f 98/98/98 101/101/101 102/102/102
f 103/103/103 101/101/101 100/100/100
f 103/103/103 104/104/104 101/101/101
f 103/103/103 105/105/105 104/104/104
f 103/103/103 106/106/106 105/105/105
f 105/105/105 107/107/107 104/104/104
f 105/105/105 108/108/108 107/107/107
