g default
v -0.2 0.1 -0.45
v -0.2 0 -0.45
v -0.2 0 -0.55
v -0.2 0.1 -0.55
v -0.1 0.1 -0.55
v -0.1 0 -0.55
v -0.1 0 -1.95
v -0.1 0.1 -1.95
v 0 0.1 2.25
v 0 0 2.25
v 0 0 2.15
v 0 0.1 2.15
v 0 0.1 2.15
v 0 0 2.15
v 0 0 2.05
v 0 0.1 2.05
v 0 0.1 2.05
v 0 0 2.05
v 0 0 -0.35
v 0 0.1 -0.35
v 0 0.1 -0.35
v 0 0 -0.35
v 0 0 -0.45
v 0 0.1 -0.45
v 0 0.1 -1.95
v 0 0 -1.95
v 0 0 -2.15
v 0 0.1 -2.15
v 0.1 0.1 -2.15
v 0.1 0 -2.15
v 0.1 0 -2.25
v 0.1 0.1 -2.25
v 0.1 0 2.25
v 0.1 0.1 2.25
v 0.1 0 2.15
v 0.1 0.1 2.15
v 0.1 0 2.15
v 0.1 0.1 2.15
v 0.1 0 2.05
v 0.1 0.1 2.05
v 0.1 0 2.05
v 0.1 0.1 2.05
v 0.1 0 -0.35
v 0.1 0.1 -0.35
v 0.1 0 -0.35
v 0.1 0.1 -0.35
v 0.1 0 -0.45
v 0.1 0.1 -0.45
v 0.2 0 -0.45
v 0.2 0.1 -0.45
v 0.2 0 -1.05
v 0.2 0.1 -1.05
v 0.2 0 -1.05
v 0.2 0.1 -1.05
v 0.2 0 -1.25
v 0.2 0.1 -1.25
v 0.2 0 -1.25
v 0.2 0.1 -1.25
v 0.2 0 -1.65
v 0.2 0.1 -1.65
v 0.2 0 -1.65
v 0.2 0.1 -1.65
v 0.2 0 -2.05
v 0.2 0.1 -2.05
v 0.2 0 -2.05
v 0.2 0.1 -2.05
v 0.2 0 -2.25
v 0.2 0.1 -2.25
v 0.1 0 2.25
v 0 0 2.25
v 0 0.1 2.25
v 0.1 0.1 2.25
v 0 0 -0.45
v -0.2 0 -0.45
v -0.2 0.1 -0.45
v 0 0.1 -0.45
v 0.2 0 -0.45
v 0.1 0 -0.45
v 0.1 0.1 -0.45
v 0.2 0.1 -0.45
v -0.2 0 -0.55
v -0.1 0 -0.55
v -0.2 0.1 -0.55
v -0.1 0.1 -0.55
v -0.1 0 -1.95
v 0 0 -1.95
v -0.1 0.1 -1.95
v 0 0.1 -1.95
v 0 0 -2.15
v 0.1 0 -2.15
v 0 0.1 -2.15
v 0.1 0.1 -2.15
v 0.1 0 -2.25
v 0.2 0 -2.25
v 0.1 0.1 -2.25
v 0.2 0.1 -2.25
v 0 0 2.15
v 0 0 2.25
v 0.1 0 2.25
v 0.1 0 2.15
v 0 0 2.05
v 0 0 2.15
v 0.1 0 2.15
v 0.1 0 2.05
v 0 0 -0.35
v 0 0 2.05
v 0.1 0 2.05
v 0.1 0 -0.35
v 0 0 -0.45
v 0 0 -0.35
v 0.1 0 -0.35
v 0.1 0 -0.45
v 0 0 -0.55
v 0.1 0 -0.55
v -0.2 0 -0.55
v -0.2 0 -0.45
v 0 0 -0.45
v -0.1 0 -0.55
v 0 0 -0.55
v 0.1 0 -0.55
v 0.1 0 -0.45
v 0.2 0 -0.45
v 0.1 0 -1.05
v 0.2 0 -1.05
v 0 0 -1.05
v -0.1 0 -0.55
v 0 0 -0.55
v 0 0 -1.35
v 0 0 -1.85
v -0.1 0 -1.95
v 0.1 0 -1.85
v 0 0 -1.95
v 0.1 0 -2.05
v 0 0 -2.15
v 0.2 0 -2.05
v 0.1 0 -2.15
v 0.1 0 -2.25
v 0.2 0 -2.25
v 0 0 -1.05
v 0 0 -0.55
v 0.1 0 -0.55
v 0.1 0 -1.05
v 0.1 0 -1.25
v 0.2 0 -1.05
v 0.2 0 -1.25
v 0.1 0 -1.25
v 0 0 -1.05
v 0.1 0 -1.05
v 0 0 -1.35
v 0.2 0 -1.25
v 0.1 0 -1.35
v 0.1 0 -1.65
v 0.2 0 -1.65
v 0.1 0 -1.65
v 0 0 -1.35
v 0.1 0 -1.35
v 0 0 -1.85
v 0.2 0 -1.65
v 0.1 0 -1.85
v 0.1 0 -2.05
v 0.2 0 -2.05
v 0 0.1 2.25
v 0 0.1 2.15
v 0.1 0.1 2.25
v 0.1 0.1 2.15
v 0 0.1 2.15
v 0 0.1 2.05
v 0.1 0.1 2.15
v 0.1 0.1 2.05
v 0 0.1 2.05
v 0 0.1 -0.35
v 0.1 0.1 2.05
v 0.1 0.1 -0.35
v 0 0.1 -0.35
v 0 0.1 -0.45
v 0.1 0.1 -0.35
v 0.1 0.1 -0.45
v 0 0.1 -0.55
v 0.1 0.1 -0.55
v -0.2 0.1 -0.45
v -0.2 0.1 -0.55
v 0 0.1 -0.45
v -0.1 0.1 -0.55
v 0 0.1 -0.55
v 0.1 0.1 -0.45
v 0.1 0.1 -0.55
v 0.2 0.1 -0.45
v 0.1 0.1 -1.05
v 0.2 0.1 -1.05
v -0.1 0.1 -0.55
v 0 0.1 -1.05
v 0 0.1 -0.55
v 0 0.1 -1.35
v 0 0.1 -1.85
v -0.1 0.1 -1.95
v 0.1 0.1 -1.85
v 0 0.1 -1.95
v 0.1 0.1 -2.05
v 0 0.1 -2.15
v 0.2 0.1 -2.05
v 0.1 0.1 -2.15
v 0.1 0.1 -2.25
v 0.2 0.1 -2.25
v 0 0.1 -0.55
v 0 0.1 -1.05
v 0.1 0.1 -0.55
v 0.1 0.1 -1.05
v 0.1 0.1 -1.25
v 0.2 0.1 -1.05
v 0.2 0.1 -1.25
v 0 0.1 -1.05
v 0.1 0.1 -1.25
v 0.1 0.1 -1.05
v 0 0.1 -1.35
v 0.2 0.1 -1.25
v 0.1 0.1 -1.35
v 0.1 0.1 -1.65
v 0.2 0.1 -1.65
v 0 0.1 -1.35
v 0.1 0.1 -1.65
v 0.1 0.1 -1.35
v 0 0.1 -1.85
v 0.2 0.1 -1.65
v 0.1 0.1 -1.85
v 0.1 0.1 -2.05
v 0.2 0.1 -2.05
vt 0.970703 0.5
vt 0.970703 0.5
vt 0.970703 0.5
vt 0.970703 0.5
vt 0.962891 0.5
vt 0.962891 0.5
vt 0.962891 0.5
vt 0.962891 0.5
vt 0.208984 0.5
vt 0.208984 0.5
vt 0.208984 0.5
vt 0.208984 0.5
vt 0.373047 0.5
vt 0.373047 0.5
vt 0.373047 0.5
vt 0.373047 0.5
vt 0.990234 0.5
vt 0.990234 0.5
vt 0.990234 0.5
vt 0.990234 0.5
vt 0.373047 0.5
vt 0.373047 0.5
vt 0.373047 0.5
vt 0.373047 0.5
vt 0.962891 0.5
vt 0.962891 0.5
vt 0.962891 0.5
vt 0.962891 0.5
vt 0.962891 0.5
vt 0.962891 0.5
vt 0.962891 0.5
vt 0.962891 0.5
vt 0.208984 0.5
vt 0.208984 0.5
vt 0.208984 0.5
vt 0.208984 0.5
vt 0.373047 0.5
vt 0.373047 0.5
vt 0.373047 0.5
vt 0.373047 0.5
vt 0.990234 0.5
vt 0.990234 0.5
vt 0.990234 0.5
vt 0.990234 0.5
vt 0.373047 0.5
vt 0.373047 0.5
vt 0.373047 0.5
vt 0.373047 0.5
vt 0.208984 0.5
vt 0.208984 0.5
vt 0.208984 0.5
vt 0.208984 0.5
vt 0.978516 0.5
vt 0.978516 0.5
vt 0.978516 0.5
vt 0.978516 0.5
vt 0.970703 0.5
vt 0.970703 0.5
vt 0.970703 0.5
vt 0.970703 0.5
vt 0.986328 0.5
vt 0.986328 0.5
vt 0.986328 0.5
vt 0.986328 0.5
vt 0.962891 0.5
vt 0.962891 0.5
vt 0.962891 0.5
vt 0.962891 0.5
vt 0.208984 0.5
vt 0.208984 0.5
vt 0.208984 0.5
vt 0.208984 0.5
vt 0.970703 0.5
vt 0.970703 0.5
vt 0.970703 0.5
vt 0.970703 0.5
vt 0.208984 0.5
vt 0.208984 0.5
vt 0.208984 0.5
vt 0.208984 0.5
vt 0.970703 0.5
vt 0.970703 0.5
vt 0.970703 0.5
vt 0.970703 0.5
vt 0.962891 0.5
vt 0.962891 0.5
vt 0.962891 0.5
vt 0.962891 0.5
vt 0.962891 0.5
vt 0.962891 0.5
vt 0.962891 0.5
vt 0.962891 0.5
vt 0.962891 0.5
vt 0.962891 0.5
vt 0.962891 0.5
vt 0.962891 0.5
vt 0.208984 0.5
vt 0.208984 0.5
vt 0.208984 0.5
vt 0.208984 0.5
vt 0.373047 0.5
vt 0.373047 0.5
vt 0.373047 0.5
vt 0.373047 0.5
vt 0.990234 0.5
vt 0.990234 0.5
vt 0.990234 0.5
vt 0.990234 0.5
vt 0.373047 0.5
vt 0.373047 0.5
vt 0.373047 0.5
vt 0.373047 0.5
vt 0.373047 0.5
vt 0.373047 0.5
vt 0.970703 0.5
vt 0.970703 0.5
vt 0.970703 0.5
vt 0.970703 0.5
vt 0.970703 0.5
vt 0.208984 0.5
vt 0.208984 0.5
vt 0.208984 0.5
vt 0.208984 0.5
vt 0.208984 0.5
vt 0.962891 0.5
vt 0.962891 0.5
vt 0.962891 0.5
vt 0.962891 0.5
vt 0.962891 0.5
vt 0.962891 0.5
vt 0.962891 0.5
vt 0.962891 0.5
vt 0.962891 0.5
vt 0.962891 0.5
vt 0.962891 0.5
vt 0.962891 0.5
vt 0.962891 0.5
vt 0.962891 0.5
vt 0.978516 0.5
vt 0.978516 0.5
vt 0.978516 0.5
vt 0.978516 0.5
vt 0.978516 0.5
vt 0.978516 0.5
vt 0.978516 0.5
vt 0.970703 0.5
vt 0.970703 0.5
vt 0.970703 0.5
vt 0.970703 0.5
vt 0.970703 0.5
vt 0.970703 0.5
vt 0.970703 0.5
vt 0.970703 0.5
vt 0.986328 0.5
vt 0.986328 0.5
vt 0.986328 0.5
vt 0.986328 0.5
vt 0.986328 0.5
vt 0.986328 0.5
vt 0.986328 0.5
vt 0.986328 0.5
vt 0.208984 0.5
vt 0.208984 0.5
vt 0.208984 0.5
vt 0.208984 0.5
vt 0.373047 0.5
vt 0.373047 0.5
vt 0.373047 0.5
vt 0.373047 0.5
vt 0.990234 0.5
vt 0.990234 0.5
vt 0.990234 0.5
vt 0.990234 0.5
vt 0.373047 0.5
vt 0.373047 0.5
vt 0.373047 0.5
vt 0.373047 0.5
vt 0.373047 0.5
vt 0.373047 0.5
vt 0.970703 0.5
vt 0.970703 0.5
vt 0.970703 0.5
vt 0.970703 0.5
vt 0.970703 0.5
vt 0.208984 0.5
vt 0.208984 0.5
vt 0.208984 0.5
vt 0.208984 0.5
vt 0.208984 0.5
vt 0.962891 0.5
vt 0.962891 0.5
vt 0.962891 0.5
vt 0.962891 0.5
vt 0.962891 0.5
vt 0.962891 0.5
vt 0.962891 0.5
vt 0.962891 0.5
vt 0.962891 0.5
vt 0.962891 0.5
vt 0.962891 0.5
vt 0.962891 0.5
vt 0.962891 0.5
vt 0.962891 0.5
vt 0.978516 0.5
vt 0.978516 0.5
vt 0.978516 0.5
vt 0.978516 0.5
vt 0.978516 0.5
vt 0.978516 0.5
vt 0.978516 0.5
vt 0.970703 0.5
vt 0.970703 0.5
vt 0.970703 0.5
vt 0.970703 0.5
vt 0.970703 0.5
vt 0.970703 0.5
vt 0.970703 0.5
vt 0.970703 0.5
vt 0.986328 0.5
vt 0.986328 0.5
vt 0.986328 0.5
vt 0.986328 0.5
vt 0.986328 0.5
vt 0.986328 0.5
vt 0.986328 0.5
vt 0.986328 0.5
vn -1 0 0
vn -1 0 0
vn -1 0 0
vn -1 0 0
vn -1 0 0
vn -1 0 0
vn -1 0 0
vn -1 0 0
vn -1 0 0
vn -1 0 0
vn -1 0 0
vn -1 0 0
vn -1 0 0
vn -1 0 0
vn -1 0 0
vn -1 0 0
vn -1 0 0
vn -1 0 0
vn -1 0 0
vn -1 0 0
vn -1 0 0
vn -1 0 0
vn -1 0 0
vn -1 0 0
vn -1 0 0
vn -1 0 0
vn -1 0 0
vn -1 0 0
vn -1 0 0
vn -1 0 0
vn -1 0 0
vn -1 0 0
vn 1 0 0
vn 1 0 0
vn 1 0 0
vn 1 0 0
vn 1 0 0
vn 1 0 0
vn 1 0 0
vn 1 0 0
vn 1 0 0
vn 1 0 0
vn 1 0 0
vn 1 0 0
vn 1 0 0
vn 1 0 0
vn 1 0 0
vn 1 0 0
vn 1 0 0
vn 1 0 0
vn 1 0 0
vn 1 0 0
vn 1 0 0
vn 1 0 0
vn 1 0 0
vn 1 0 0
vn 1 0 0
vn 1 0 0
vn 1 0 0
vn 1 0 0
vn 1 0 0
vn 1 0 0
vn 1 0 0
vn 1 0 0
vn 1 0 0
vn 1 0 0
vn 1 0 0
vn 1 0 0
vn 0 0 1
vn 0 0 1
vn 0 0 1
vn 0 0 1
vn 0 0 1
vn 0 0 1
vn 0 0 1
vn 0 0 1
vn 0 0 1
vn 0 0 1
vn 0 0 1
vn 0 0 1
vn 0 0 -1
vn 0 0 -1
vn 0 0 -1
vn 0 0 -1
vn 0 0 -1
vn 0 0 -1
vn 0 0 -1
vn 0 0 -1
vn 0 0 -1
vn 0 0 -1
vn 0 0 -1
vn 0 0 -1
vn 0 0 -1
vn 0 0 -1
vn 0 0 -1
vn 0 0 -1
vn 0 -1 0
vn 0 -1 0
vn 0 -1 0
vn 0 -1 0
vn 0 -1 0
vn 0 -1 0
vn 0 -1 0
vn 0 -1 0
vn 0 -1 0
vn 0 -1 0
vn 0 -1 0
vn 0 -1 0
vn 0 -1 0
vn 0 -1 0
vn 0 -1 0
vn 0 -1 0
vn 0 -1 0
vn 0 -1 0
vn 0 -1 0
vn 0 -1 0
vn 0 -1 0
vn 0 -1 0
vn 0 -1 0
vn 0 -1 0
vn 0 -1 0
vn 0 -1 0
vn 0 -1 0
vn 0 -1 0
vn 0 -1 0
vn 0 -1 0
vn 0 -1 0
vn 0 -1 0
vn 0 -1 0
vn 0 -1 0
vn 0 -1 0
vn 0 -1 0
vn 0 -1 0
vn 0 -1 0
vn 0 -1 0
vn 0 -1 0
vn 0 -1 0
vn 0 -1 0
vn 0 -1 0
vn 0 -1 0
vn 0 -1 0
vn 0 -1 0
vn 0 -1 0
vn 0 -1 0
vn 0 -1 0
vn 0 -1 0
vn 0 -1 0
vn 0 -1 0
vn 0 -1 0
vn 0 -1 0
vn 0 -1 0
vn 0 -1 0
vn 0 -1 0
vn 0 -1 0
vn 0 -1 0
vn 0 -1 0
vn 0 -1 0
vn 0 -1 0
vn 0 -1 0
vn 0 -1 0
vn 0 -1 0
vn 0 1 0
vn 0 1 0
vn 0 1 0
vn 0 1 0
vn 0 1 0
vn 0 1 0
vn 0 1 0
vn 0 1 0
vn 0 1 0
vn 0 1 0
vn 0 1 0
vn 0 1 0
vn 0 1 0
vn 0 1 0
vn 0 1 0
vn 0 1 0
vn 0 1 0
vn 0 1 0
vn 0 1 0
vn 0 1 0
vn 0 1 0
vn 0 1 0
vn 0 1 0
vn 0 1 0
vn 0 1 0
vn 0 1 0
vn 0 1 0
vn 0 1 0
vn 0 1 0
vn 0 1 0
vn 0 1 0
vn 0 1 0
vn 0 1 0
vn 0 1 0
vn 0 1 0
vn 0 1 0
vn 0 1 0
vn 0 1 0
vn 0 1 0
vn 0 1 0
vn 0 1 0
vn 0 1 0
vn 0 1 0
vn 0 1 0
vn 0 1 0
vn 0 1 0
vn 0 1 0
vn 0 1 0
vn 0 1 0
vn 0 1 0
vn 0 1 0
vn 0 1 0
vn 0 1 0
vn 0 1 0
vn 0 1 0
vn 0 1 0
vn 0 1 0
vn 0 1 0
vn 0 1 0
vn 0 1 0
vn 0 1 0
vn 0 1 0
vn 0 1 0
vn 0 1 0
vn 0 1 0
g default_0
f 3/3/3 2/2/2 1/1/1
f 3/3/3 1/1/1 4/4/4
f 7/7/7 6/6/6 5/5/5
f 7/7/7 5/5/5 8/8/8
f 11/11/11 10/10/10 9/9/9
f 11/11/11 9/9/9 12/12/12
f 15/15/15 14/14/14 13/13/13
f 15/15/15 13/13/13 16/16/16
f 19/19/19 18/18/18 17/17/17
f 19/19/19 17/17/17 20/20/20
f 23/23/23 22/22/22 21/21/21
f 23/23/23 21/21/21 24/24/24
f 27/27/27 26/26/26 25/25/25
f 27/27/27 25/25/25 28/28/28
f 31/31/31 30/30/30 29/29/29
f 31/31/31 29/29/29 32/32/32
f 35/35/35 34/34/34 33/33/33
f 35/35/35 36/36/36 34/34/34
f 39/39/39 38/38/38 37/37/37
f 39/39/39 40/40/40 38/38/38
f 43/43/43 42/42/42 41/41/41
f 43/43/43 44/44/44 42/42/42
f 47/47/47 46/46/46 45/45/45
f 47/47/47 48/48/48 46/46/46
f 51/51/51 50/50/50 49/49/49
f 51/51/51 52/52/52 50/50/50
f 55/55/55 54/54/54 53/53/53
f 55/55/55 56/56/56 54/54/54
f 59/59/59 58/58/58 57/57/57
f 59/59/59 60/60/60 58/58/58
f 63/63/63 62/62/62 61/61/61
f 63/63/63 64/64/64 62/62/62
f 67/67/67 66/66/66 65/65/65
f 67/67/67 68/68/68 66/66/66
f 71/71/71 70/70/70 69/69/69
f 71/71/71 69/69/69 72/72/72
f 75/75/75 74/74/74 73/73/73
f 75/75/75 73/73/73 76/76/76
f 79/79/79 78/78/78 77/77/77
f 79/79/79 77/77/77 80/80/80
f 83/83/83 82/82/82 81/81/81
f 83/83/83 84/84/84 82/82/82
f 87/87/87 86/86/86 85/85/85
f 87/87/87 88/88/88 86/86/86
f 91/91/91 90/90/90 89/89/89
f 91/91/91 92/92/92 90/90/90
f 95/95/95 94/94/94 93/93/93
f 95/95/95 96/96/96 94/94/94
f 99/99/99 98/98/98 97/97/97
f 99/99/99 97/97/97 100/100/100
f 103/103/103 102/102/102 101/101/101
f 103/103/103 101/101/101 104/104/104
f 107/107/107 106/106/106 105/105/105
f 107/107/107 105/105/105 108/108/108
f 111/111/111 110/110/110 109/109/109
f 111/111/111 109/109/109 112/112/112
f 112/112/112 109/109/109 113/113/113
f 112/112/112 113/113/113 114/114/114
f 117/117/117 116/116/116 115/115/115
f 117/117/117 115/115/115 118/118/118
f 117/117/117 118/118/118 119/119/119
f 122/122/122 121/121/121 120/120/120
f 122/122/122 120/120/120 123/123/123
f 122/122/122 123/123/123 124/124/124
f 127/127/127 126/126/126 125/125/125
f 125/125/125 126/126/126 128/128/128
f 128/128/128 126/126/126 129/129/129
f 129/129/129 126/126/126 130/130/130
f 131/131/131 129/129/129 130/130/130
f 131/131/131 130/130/130 132/132/132
f 131/131/131 132/132/132 133/133/133
f 133/133/133 132/132/132 134/134/134
f 135/135/135 133/133/133 134/134/134
f 135/135/135 134/134/134 136/136/136
f 135/135/135 136/136/136 137/137/137
f 135/135/135 137/137/137 138/138/138
f 141/141/141 140/140/140 139/139/139
f 141/141/141 139/139/139 142/142/142
f 144/144/144 142/142/142 143/143/143
f 144/144/144 143/143/143 145/145/145
f 148/148/148 147/147/147 146/146/146
f 146/146/146 147/147/147 149/149/149
f 150/150/150 146/146/146 149/149/149
f 150/150/150 149/149/149 151/151/151
f 150/150/150 151/151/151 152/152/152
f 150/150/150 152/152/152 153/153/153
f 156/156/156 155/155/155 154/154/154
f 154/154/154 155/155/155 157/157/157
f 158/158/158 154/154/154 157/157/157
f 158/158/158 157/157/157 159/159/159
f 158/158/158 159/159/159 160/160/160
f 158/158/158 160/160/160 161/161/161
f 164/164/164 163/163/163 162/162/162
f 164/164/164 165/165/165 163/163/163
f 168/168/168 167/167/167 166/166/166
f 168/168/168 169/169/169 167/167/167
f 172/172/172 171/171/171 170/170/170
f 172/172/172 173/173/173 171/171/171
f 176/176/176 175/175/175 174/174/174
f 176/176/176 177/177/177 175/175/175
f 177/177/177 178/178/178 175/175/175
f 177/177/177 179/179/179 178/178/178
f 182/182/182 181/181/181 180/180/180
f 182/182/182 183/183/183 181/181/181
f 182/182/182 184/184/184 183/183/183
f 187/187/187 186/186/186 185/185/185
f 187/187/187 188/188/188 186/186/186
f 187/187/187 189/189/189 188/188/188
f 192/192/192 191/191/191 190/190/190
f 191/191/191 193/193/193 190/190/190
f 193/193/193 194/194/194 190/190/190
f 194/194/194 195/195/195 190/190/190
f 196/196/196 195/195/195 194/194/194
f 196/196/196 197/197/197 195/195/195
f 196/196/196 198/198/198 197/197/197
f 198/198/198 199/199/199 197/197/197
f 200/200/200 199/199/199 198/198/198
f 200/200/200 201/201/201 199/199/199
f 200/200/200 202/202/202 201/201/201
f 200/200/200 203/203/203 202/202/202
f 206/206/206 205/205/205 204/204/204
f 206/206/206 207/207/207 205/205/205
f 209/209/209 208/208/208 207/207/207
f 209/209/209 210/210/210 208/208/208
f 213/213/213 212/212/212 211/211/211
f 212/212/212 214/214/214 211/211/211
f 215/215/215 214/214/214 212/212/212
f 215/215/215 216/216/216 214/214/214
f 215/215/215 217/217/217 216/216/216
f 215/215/215 218/218/218 217/217/217
f 221/221/221 220/220/220 219/219/219
f 220/220/220 222/222/222 219/219/219
f 223/223/223 222/222/222 220/220/220
f 223/223/223 224/224/224 222/222/222
f 223/223/223 225/225/225 224/224/224
f 223/223/223 226/226/226 225/225/225
