g default
v -0.495 1.08 0.045
v -0.495 0.27 0.045
v -0.495 0.27 -0.045
v -0.495 1.08 -0.045
v -0.315 0.54 0.045
v -0.315 0.36 0.045
v -0.315 0.36 -0.045
v -0.315 0.54 -0.045
v -0.225 0.36 0.045
v -0.225 0.18 0.045
v -0.225 0.18 -0.045
v -0.225 0.36 -0.045
v -0.135 0.18 0.045
v -0.135 0 0.045
v -0.135 0 -0.045
v -0.135 0.18 -0.045
v 0.045 0.09 0.045
v 0.045 0 0.045
v 0.045 0 -0.045
v 0.045 0.09 -0.045
v 0.405 0.54 0.045
v 0.405 0.27 0.045
v 0.405 0.27 -0.045
v 0.405 0.54 -0.045
v -0.405 0.27 0.045
v -0.405 0.54 0.045
v -0.405 0.27 -0.045
v -0.405 0.54 -0.045
v -0.045 0 0.045
v -0.045 0.09 0.045
v -0.045 0 -0.045
v -0.045 0.09 -0.045
v 0.135 0 0.045
v 0.135 0.18 0.045
v 0.135 0 -0.045
v 0.135 0.18 -0.045
v 0.225 0.18 0.045
v 0.225 0.36 0.045
v 0.225 0.18 -0.045
v 0.225 0.36 -0.045
v 0.315 0.36 0.045
v 0.315 0.54 0.045
v 0.315 0.36 -0.045
v 0.315 0.54 -0.045
v 0.495 0.27 0.045
v 0.495 1.08 0.045
v 0.495 0.27 -0.045
v 0.495 1.08 -0.045
v -0.405 0.27 0.045
v -0.495 0.27 0.045
v -0.495 1.08 0.045
v -0.405 0.54 0.045
v -0.315 0.54 0.045
v 0.315 0.54 0.045
v 0.315 0.36 0.045
v 0.225 0.36 0.045
v -0.225 0.36 0.045
v -0.315 0.36 0.045
v 0.225 0.18 0.045
v 0.135 0.18 0.045
v -0.135 0.18 0.045
v -0.225 0.18 0.045
v 0.045 0.09 0.045
v -0.045 0.09 0.045
v -0.045 0 0.045
v -0.135 0 0.045
v 0.135 0 0.045
v 0.045 0 0.045
v 0.405 0.54 0.045
v 0.495 1.08 0.045
v 0.495 0.27 0.045
v 0.405 0.27 0.045
v -0.495 0.27 -0.045
v -0.405 0.27 -0.045
v -0.495 1.08 -0.045
v -0.405 0.54 -0.045
v -0.315 0.54 -0.045
v 0.315 0.54 -0.045
v 0.315 0.36 -0.045
v 0.225 0.36 -0.045
v -0.225 0.36 -0.045
v -0.315 0.36 -0.045
v 0.225 0.18 -0.045
v 0.135 0.18 -0.045
v -0.135 0.18 -0.045
v -0.225 0.18 -0.045
v 0.045 0.09 -0.045
v -0.045 0.09 -0.045
v -0.045 0 -0.045
v -0.135 0 -0.045
v 0.135 0 -0.045
v 0.045 0 -0.045
v 0.405 0.54 -0.045
v 0.495 1.08 -0.045
v 0.495 0.27 -0.045
v 0.405 0.27 -0.045
v -0.135 0 -0.045
v -0.135 0 0.045
v -0.045 0 0.045
v -0.045 0 -0.045
v 0.045 0 -0.045
v 0.045 0 0.045
v 0.135 0 0.045
v 0.135 0 -0.045
v -0.045 0.09 -0.045
v -0.045 0.09 0.045
v 0.045 0.09 0.045
v 0.045 0.09 -0.045
v -0.225 0.18 -0.045
v -0.225 0.18 0.045
v -0.135 0.18 0.045
v -0.135 0.18 -0.045
v 0.135 0.18 -0.045
v 0.135 0.18 0.045
v 0.225 0.18 0.045
v 0.225 0.18 -0.045
v -0.495 0.27 -0.045
v -0.495 0.27 0.045
v -0.405 0.27 0.045
v -0.405 0.27 -0.045
v 0.405 0.27 -0.045
v 0.405 0.27 0.045
v 0.495 0.27 0.045
v 0.495 0.27 -0.045
v -0.315 0.36 -0.045
v -0.315 0.36 0.045
v -0.225 0.36 0.045
v -0.225 0.36 -0.045
v 0.225 0.36 -0.045
v 0.225 0.36 0.045
v 0.315 0.36 0.045
v 0.315 0.36 -0.045
v -0.405 0.54 -0.045
v -0.405 0.54 0.045
v -0.315 0.54 0.045
v -0.315 0.54 -0.045
v 0.315 0.54 -0.045
v 0.315 0.54 0.045
v 0.405 0.54 0.045
v 0.405 0.54 -0.045
v -0.495 1.08 0.045
v -0.495 1.08 -0.045
v 0.495 1.08 0.045
v 0.495 1.08 -0.045
vt 0.697266 0.5
vt 0.697266 0.5
vt 0.697266 0.5
vt 0.697266 0.5
vt 0.697266 0.5
vt 0.697266 0.5
vt 0.697266 0.5
vt 0.697266 0.5
vt 0.697266 0.5
vt 0.697266 0.5
vt 0.697266 0.5
vt 0.697266 0.5
vt 0.697266 0.5
vt 0.697266 0.5
vt 0.697266 0.5
vt 0.697266 0.5
vt 0.697266 0.5
vt 0.697266 0.5
vt 0.697266 0.5
vt 0.697266 0.5
vt 0.697266 0.5
vt 0.697266 0.5
vt 0.697266 0.5
vt 0.697266 0.5
vt 0.697266 0.5
vt 0.697266 0.5
vt 0.697266 0.5
vt 0.697266 0.5
vt 0.697266 0.5
vt 0.697266 0.5
vt 0.697266 0.5
vt 0.697266 0.5
vt 0.697266 0.5
vt 0.697266 0.5
vt 0.697266 0.5
vt 0.697266 0.5
vt 0.697266 0.5
vt 0.697266 0.5
vt 0.697266 0.5
vt 0.697266 0.5
vt 0.697266 0.5
vt 0.697266 0.5
vt 0.697266 0.5
vt 0.697266 0.5
vt 0.697266 0.5
vt 0.697266 0.5
vt 0.697266 0.5
vt 0.697266 0.5
vt 0.697266 0.5
vt 0.697266 0.5
vt 0.697266 0.5
vt 0.697266 0.5
vt 0.697266 0.5
vt 0.697266 0.5
vt 0.697266 0.5
vt 0.697266 0.5
vt 0.697266 0.5
vt 0.697266 0.5
vt 0.697266 0.5
vt 0.697266 0.5
vt 0.697266 0.5
vt 0.697266 0.5
vt 0.697266 0.5
vt 0.697266 0.5
vt 0.697266 0.5
vt 0.697266 0.5
vt 0.697266 0.5
vt 0.697266 0.5
vt 0.697266 0.5
vt 0.697266 0.5
vt 0.697266 0.5
vt 0.697266 0.5
vt 0.697266 0.5
vt 0.697266 0.5
vt 0.697266 0.5
vt 0.697266 0.5
vt 0.697266 0.5
vt 0.697266 0.5
vt 0.697266 0.5
vt 0.697266 0.5
vt 0.697266 0.5
vt 0.697266 0.5
vt 0.697266 0.5
vt 0.697266 0.5
vt 0.697266 0.5
vt 0.697266 0.5
vt 0.697266 0.5
vt 0.697266 0.5
vt 0.697266 0.5
vt 0.697266 0.5
vt 0.697266 0.5
vt 0.697266 0.5
vt 0.697266 0.5
vt 0.697266 0.5
vt 0.697266 0.5
vt 0.697266 0.5
vt 0.697266 0.5
vt 0.697266 0.5
vt 0.697266 0.5
vt 0.697266 0.5
vt 0.697266 0.5
vt 0.697266 0.5
vt 0.697266 0.5
vt 0.697266 0.5
vt 0.697266 0.5
vt 0.697266 0.5
vt 0.697266 0.5
vt 0.697266 0.5
vt 0.697266 0.5
vt 0.697266 0.5
vt 0.697266 0.5
vt 0.697266 0.5
vt 0.697266 0.5
vt 0.697266 0.5
vt 0.697266 0.5
vt 0.697266 0.5
vt 0.697266 0.5
vt 0.697266 0.5
vt 0.697266 0.5
vt 0.697266 0.5
vt 0.697266 0.5
vt 0.697266 0.5
vt 0.697266 0.5
vt 0.697266 0.5
vt 0.697266 0.5
vt 0.697266 0.5
vt 0.697266 0.5
vt 0.697266 0.5
vt 0.697266 0.5
vt 0.697266 0.5
vt 0.697266 0.5
vt 0.697266 0.5
vt 0.697266 0.5
vt 0.697266 0.5
vt 0.697266 0.5
vt 0.697266 0.5
vt 0.697266 0.5
vt 0.697266 0.5
vt 0.697266 0.5
vt 0.697266 0.5
vt 0.697266 0.5
vt 0.697266 0.5
vt 0.697266 0.5
vt 0.697266 0.5
vn -1 0 0
vn -1 0 0
vn -1 0 0
vn -1 0 0
vn -1 0 0
vn -1 0 0
vn -1 0 0
vn -1 0 0
vn -1 0 0
vn -1 0 0
vn -1 0 0
vn -1 0 0
vn -1 0 0
vn -1 0 0
vn -1 0 0
vn -1 0 0
vn -1 0 0
vn -1 0 0
vn -1 0 0
vn -1 0 0
vn -1 0 0
vn -1 0 0
vn -1 0 0
vn -1 0 0
vn 1 0 0
vn 1 0 0
vn 1 0 0
vn 1 0 0
vn 1 0 0
vn 1 0 0
vn 1 0 0
vn 1 0 0
vn 1 0 0
vn 1 0 0
vn 1 0 0
vn 1 0 0
vn 1 0 0
vn 1 0 0
vn 1 0 0
vn 1 0 0
vn 1 0 0
vn 1 0 0
vn 1 0 0
vn 1 0 0
vn 1 0 0
vn 1 0 0
vn 1 0 0
vn 1 0 0
vn 0 0 1
vn 0 0 1
vn 0 0 1
vn 0 0 1
vn 0 0 1
vn 0 0 1
vn 0 0 1
vn 0 0 1
vn 0 0 1
vn 0 0 1
vn 0 0 1
vn 0 0 1
vn 0 0 1
vn 0 0 1
vn 0 0 1
vn 0 0 1
vn 0 0 1
vn 0 0 1
vn 0 0 1
vn 0 0 1
vn 0 0 1
vn 0 0 1
vn 0 0 1
vn 0 0 1
vn 0 0 -1
vn 0 0 -1
vn 0 0 -1
vn 0 0 -1
vn 0 0 -1
vn 0 0 -1
vn 0 0 -1
vn 0 0 -1
vn 0 0 -1
vn 0 0 -1
vn 0 0 -1
vn 0 0 -1
vn 0 0 -1
vn 0 0 -1
vn 0 0 -1
vn 0 0 -1
vn 0 0 -1
vn 0 0 -1
vn 0 0 -1
vn 0 0 -1
vn 0 0 -1
vn 0 0 -1
vn 0 0 -1
vn 0 0 -1
vn 0 -1 0
vn 0 -1 0
vn 0 -1 0
vn 0 -1 0
vn 0 -1 0
vn 0 -1 0
vn 0 -1 0
vn 0 -1 0
vn 0 -1 0
vn 0 -1 0
vn 0 -1 0
vn 0 -1 0
vn 0 -1 0
vn 0 -1 0
vn 0 -1 0
vn 0 -1 0
vn 0 -1 0
vn 0 -1 0
vn 0 -1 0
vn 0 -1 0
vn 0 -1 0
vn 0 -1 0
vn 0 -1 0
vn 0 -1 0
vn 0 -1 0
vn 0 -1 0
vn 0 -1 0
vn 0 -1 0
vn 0 -1 0
vn 0 -1 0
vn 0 -1 0
vn 0 -1 0
vn 0 -1 0
vn 0 -1 0
vn 0 -1 0
vn 0 -1 0
vn 0 -1 0
vn 0 -1 0
vn 0 -1 0
vn 0 -1 0
vn 0 -1 0
vn 0 -1 0
vn 0 -1 0
vn 0 -1 0
vn 0 1 0
vn 0 1 0
vn 0 1 0
vn 0 1 0
g default_0
f 3/3/3 2/2/2 1/1/1
f 3/3/3 1/1/1 4/4/4
f 7/7/7 6/6/6 5/5/5
f 7/7/7 5/5/5 8/8/8
f 11/11/11 10/10/10 9/9/9
f 11/11/11 9/9/9 12/12/12
f 15/15/15 14/14/14 13/13/13
f 15/15/15 13/13/13 16/16/16
f 19/19/19 18/18/18 17/17/17
f 19/19/19 17/17/17 20/20/20
f 23/23/23 22/22/22 21/21/21
f 23/23/23 21/21/21 24/24/24
f 27/27/27 26/26/26 25/25/25
f 27/27/27 28/28/28 26/26/26
f 31/31/31 30/30/30 29/29/29
f 31/31/31 32/32/32 30/30/30
f 35/35/35 34/34/34 33/33/33
f 35/35/35 36/36/36 34/34/34
f 39/39/39 38/38/38 37/37/37
f 39/39/39 40/40/40 38/38/38
f 43/43/43 42/42/42 41/41/41
f 43/43/43 44/44/44 42/42/42
f 47/47/47 46/46/46 45/45/45
f 47/47/47 48/48/48 46/46/46
f 51/51/51 50/50/50 49/49/49
f 51/51/51 49/49/49 52/52/52
f 51/51/51 52/52/52 53/53/53
f 51/51/51 53/53/53 54/54/54
f 53/53/53 55/55/55 54/54/54
f 53/53/53 56/56/56 55/55/55
f 53/53/53 57/57/57 56/56/56
f 53/53/53 58/58/58 57/57/57
f 57/57/57 59/59/59 56/56/56
f 57/57/57 60/60/60 59/59/59
f 57/57/57 61/61/61 60/60/60
f 57/57/57 62/62/62 61/61/61
f 61/61/61 63/63/63 60/60/60
f 61/61/61 64/64/64 63/63/63
f 61/61/61 65/65/65 64/64/64
f 61/61/61 66/66/66 65/65/65
f 63/63/63 67/67/67 60/60/60
f 63/63/63 68/68/68 67/67/67
f 51/51/51 54/54/54 69/69/69
f 51/51/51 69/69/69 70/70/70
f 69/69/69 71/71/71 70/70/70
f 69/69/69 72/72/72 71/71/71
f 75/75/75 74/74/74 73/73/73
f 75/75/75 76/76/76 74/74/74
f 75/75/75 77/77/77 76/76/76
f 75/75/75 78/78/78 77/77/77
f 77/77/77 78/78/78 79/79/79
f 77/77/77 79/79/79 80/80/80
f 77/77/77 80/80/80 81/81/81
f 77/77/77 81/81/81 82/82/82
f 81/81/81 80/80/80 83/83/83
f 81/81/81 83/83/83 84/84/84
f 81/81/81 84/84/84 85/85/85
f 81/81/81 85/85/85 86/86/86
f 85/85/85 84/84/84 87/87/87
f 85/85/85 87/87/87 88/88/88
f 85/85/85 88/88/88 89/89/89
f 85/85/85 89/89/89 90/90/90
f 87/87/87 84/84/84 91/91/91
f 87/87/87 91/91/91 92/92/92
f 75/75/75 93/93/93 78/78/78
f 75/75/75 94/94/94 93/93/93
f 93/93/93 94/94/94 95/95/95
f 93/93/93 95/95/95 96/96/96
f 99/99/99 98/98/98 97/97/97
f 99/99/99 97/97/97 100/100/100
f 103/103/103 102/102/102 101/101/101
f 103/103/103 101/101/101 104/104/104
f 107/107/107 106/106/106 105/105/105
f 107/107/107 105/105/105 108/108/108
f 111/111/111 110/110/110 109/109/109
f 111/111/111 109/109/109 112/112/112
f 115/115/115 114/114/114 113/113/113
f 115/115/115 113/113/113 116/116/116
f 119/119/119 118/118/118 117/117/117
f 119/119/119 117/117/117 120/120/120
f 123/123/123 122/122/122 121/121/121
f 123/123/123 121/121/121 124/124/124
f 127/127/127 126/126/126 125/125/125
f 127/127/127 125/125/125 128/128/128
f 131/131/131 130/130/130 129/129/129
f 131/131/131 129/129/129 132/132/132
f 135/135/135 134/134/134 133/133/133
f 135/135/135 133/133/133 136/136/136
f 139/139/139 138/138/138 137/137/137
f 139/139/139 137/137/137 140/140/140
f 143/143/143 142/142/142 141/141/141
f 143/143/143 144/144/144 142/142/142
