g default
v -0.45 0.2 0.25
v -0.45 0 0.25
v -0.45 0 -0.25
v -0.45 0.2 -0.25
v -0.35 0.2 0.35
v -0.35 0 0.35
v -0.35 0 0.25
v -0.35 0.2 0.25
v -0.35 0.2 -0.25
v -0.35 0 -0.25
v -0.35 0 -0.35
v -0.35 0.2 -0.35
v -0.35 1 0.15
v -0.35 0.2 0.15
v -0.35 0.2 -0.15
v -0.35 1 -0.15
v -0.25 0.2 0.45
v -0.25 0 0.45
v -0.25 0 0.35
v -0.25 0.2 0.35
v -0.25 0.2 -0.35
v -0.25 0 -0.35
v -0.25 0 -0.45
v -0.25 0.2 -0.45
v -0.25 1 0.25
v -0.25 0.2 0.25
v -0.25 0.2 0.15
v -0.25 1 0.15
v -0.25 1 -0.15
v -0.25 0.2 -0.15
v -0.25 0.2 -0.25
v -0.25 1 -0.25
v -0.15 1 0.35
v -0.15 0.2 0.35
v -0.15 0.2 0.25
v -0.15 1 0.25
v -0.15 1 -0.25
v -0.15 0.2 -0.25
v -0.15 0.2 -0.35
v -0.15 1 -0.35
v 0.15 0.2 0.35
v 0.15 1 0.35
v 0.15 0.2 0.25
v 0.15 1 0.25
v 0.15 0.2 -0.25
v 0.15 1 -0.25
v 0.15 0.2 -0.35
v 0.15 1 -0.35
v 0.25 0 0.45
v 0.25 0.2 0.45
v 0.25 0 0.35
v 0.25 0.2 0.35
v 0.25 0 -0.35
v 0.25 0.2 -0.35
v 0.25 0 -0.45
v 0.25 0.2 -0.45
v 0.25 0.2 0.25
v 0.25 1 0.25
v 0.25 0.2 0.15
v 0.25 1 0.15
v 0.25 0.2 -0.15
v 0.25 1 -0.15
v 0.25 0.2 -0.25
v 0.25 1 -0.25
v 0.35 0 0.35
v 0.35 0.2 0.35
v 0.35 0 0.25
v 0.35 0.2 0.25
v 0.35 0 -0.25
v 0.35 0.2 -0.25
v 0.35 0 -0.35
v 0.35 0.2 -0.35
v 0.35 0.2 0.15
v 0.35 1 0.15
v 0.35 0.2 -0.15
v 0.35 1 -0.15
v 0.45 0 0.25
v 0.45 0.2 0.25
v 0.45 0 -0.25
v 0.45 0.2 -0.25
v 0.25 0 0.45
v -0.25 0 0.45
v -0.25 0.2 0.45
v 0.25 0.2 0.45
v -0.25 0 0.35
v -0.35 0 0.35
v -0.35 0.2 0.35
v -0.25 0.2 0.35
v 0.15 0.2 0.35
v -0.15 0.2 0.35
v -0.15 1 0.35
v 0.15 1 0.35
v 0.35 0 0.35
v 0.25 0 0.35
v 0.25 0.2 0.35
v 0.35 0.2 0.35
v -0.35 0 0.25
v -0.45 0 0.25
v -0.45 0.2 0.25
v -0.35 0.2 0.25
v -0.15 0.2 0.25
v -0.25 0.2 0.25
v -0.25 1 0.25
v -0.15 1 0.25
v 0.25 0.2 0.25
v 0.15 0.2 0.25
v 0.15 1 0.25
v 0.25 1 0.25
v 0.45 0 0.25
v 0.35 0 0.25
v 0.35 0.2 0.25
v 0.45 0.2 0.25
v -0.25 0.2 0.15
v -0.35 0.2 0.15
v -0.35 1 0.15
v -0.25 1 0.15
v 0.35 0.2 0.15
v 0.25 0.2 0.15
v 0.25 1 0.15
v 0.35 1 0.15
v -0.35 0.2 -0.15
v -0.25 0.2 -0.15
v -0.35 1 -0.15
v -0.25 1 -0.15
v 0.25 0.2 -0.15
v 0.35 0.2 -0.15
v 0.25 1 -0.15
v 0.35 1 -0.15
v -0.45 0 -0.25
v -0.35 0 -0.25
v -0.45 0.2 -0.25
v -0.35 0.2 -0.25
v -0.25 0.2 -0.25
v -0.15 0.2 -0.25
v -0.25 1 -0.25
v -0.15 1 -0.25
v 0.15 0.2 -0.25
v 0.25 0.2 -0.25
v 0.15 1 -0.25
v 0.25 1 -0.25
v 0.35 0 -0.25
v 0.45 0 -0.25
v 0.35 0.2 -0.25
v 0.45 0.2 -0.25
v -0.35 0 -0.35
v -0.25 0 -0.35
v -0.35 0.2 -0.35
v -0.25 0.2 -0.35
v -0.15 0.2 -0.35
v 0.15 0.2 -0.35
v -0.15 1 -0.35
v 0.15 1 -0.35
v 0.25 0 -0.35
v 0.35 0 -0.35
v 0.25 0.2 -0.35
v 0.35 0.2 -0.35
v -0.25 0 -0.45
v 0.25 0 -0.45
v -0.25 0.2 -0.45
v 0.25 0.2 -0.45
v -0.25 0 0.35
v -0.25 0 0.45
v 0.25 0 0.45
v 0.25 0 0.35
v -0.35 0 0.25
v -0.35 0 0.35
v 0.35 0 0.35
v 0.35 0 0.25
v -0.45 0 -0.25
v -0.45 0 0.25
v 0.45 0 0.25
v -0.35 0 -0.25
v 0.35 0 -0.25
v 0.45 0 -0.25
v -0.35 0 -0.35
v -0.25 0 -0.35
v 0.25 0 -0.35
v 0.35 0 -0.35
v -0.25 0 -0.45
v 0.25 0 -0.45
v -0.25 0.2 0.45
v -0.25 0.2 0.35
v 0.25 0.2 0.45
v -0.15 0.2 0.35
v 0.15 0.2 0.35
v 0.25 0.2 0.35
v -0.35 0.2 0.25
v -0.35 0.2 0.35
v -0.25 0.2 0.25
v -0.15 0.2 0.25
v 0.15 0.2 0.25
v 0.35 0.2 0.35
v 0.25 0.2 0.25
v 0.35 0.2 0.25
v -0.35 0.2 0.15
v -0.45 0.2 0.25
v -0.25 0.2 0.15
v 0.25 0.2 0.15
v 0.45 0.2 0.25
v 0.35 0.2 0.15
v -0.35 0.2 -0.15
v 0.35 0.2 -0.15
v -0.45 0.2 -0.25
v -0.25 0.2 -0.15
v -0.35 0.2 -0.25
v -0.25 0.2 -0.25
v 0.35 0.2 -0.25
v 0.25 0.2 -0.25
v 0.25 0.2 -0.15
v 0.45 0.2 -0.25
v -0.35 0.2 -0.35
v -0.15 0.2 -0.25
v -0.25 0.2 -0.35
v -0.15 0.2 -0.35
v 0.15 0.2 -0.35
v 0.15 0.2 -0.25
v 0.25 0.2 -0.35
v 0.35 0.2 -0.35
v -0.25 0.2 -0.45
v 0.25 0.2 -0.45
v -0.15 1 0.35
v -0.15 1 0.25
v 0.15 1 0.35
v 0.15 1 0.25
v -0.25 1 0.15
v -0.25 1 0.25
v 0.25 1 0.25
v 0.25 1 0.15
v -0.35 1 -0.15
v -0.35 1 0.15
v 0.35 1 0.15
v -0.25 1 -0.15
v 0.25 1 -0.15
v 0.35 1 -0.15
v -0.25 1 -0.25
v -0.15 1 -0.25
v 0.15 1 -0.25
v 0.25 1 -0.25
v -0.15 1 -0.35
v 0.15 1 -0.35
vt 0.0410156 0.5
vt 0.0410156 0.5
vt 0.0410156 0.5
vt 0.0410156 0.5
vt 0.0410156 0.5
vt 0.0410156 0.5
vt 0.0410156 0.5
vt 0.0410156 0.5
vt 0.0410156 0.5
vt 0.0410156 0.5
vt 0.0410156 0.5
vt 0.0410156 0.5
vt 0.0410156 0.5
vt 0.0410156 0.5
vt 0.0410156 0.5
vt 0.0410156 0.5
vt 0.0410156 0.5
vt 0.0410156 0.5
vt 0.0410156 0.5
vt 0.0410156 0.5
vt 0.0410156 0.5
vt 0.0410156 0.5
vt 0.0410156 0.5
vt 0.0410156 0.5
vt 0.0410156 0.5
vt 0.0410156 0.5
vt 0.0410156 0.5
vt 0.0410156 0.5
vt 0.0410156 0.5
vt 0.0410156 0.5
vt 0.0410156 0.5
vt 0.0410156 0.5
vt 0.0410156 0.5
vt 0.0410156 0.5
vt 0.0410156 0.5
vt 0.0410156 0.5
vt 0.0410156 0.5
vt 0.0410156 0.5
vt 0.0410156 0.5
vt 0.0410156 0.5
vt 0.0410156 0.5
vt 0.0410156 0.5
vt 0.0410156 0.5
vt 0.0410156 0.5
vt 0.0410156 0.5
vt 0.0410156 0.5
vt 0.0410156 0.5
vt 0.0410156 0.5
vt 0.0410156 0.5
vt 0.0410156 0.5
vt 0.0410156 0.5
vt 0.0410156 0.5
vt 0.0410156 0.5
vt 0.0410156 0.5
vt 0.0410156 0.5
vt 0.0410156 0.5
vt 0.0410156 0.5
vt 0.0410156 0.5
vt 0.0410156 0.5
vt 0.0410156 0.5
vt 0.0410156 0.5
vt 0.0410156 0.5
vt 0.0410156 0.5
vt 0.0410156 0.5
vt 0.0410156 0.5
vt 0.0410156 0.5
vt 0.0410156 0.5
vt 0.0410156 0.5
vt 0.0410156 0.5
vt 0.0410156 0.5
vt 0.0410156 0.5
vt 0.0410156 0.5
vt 0.0410156 0.5
vt 0.0410156 0.5
vt 0.0410156 0.5
vt 0.0410156 0.5
vt 0.0410156 0.5
vt 0.0410156 0.5
vt 0.0410156 0.5
vt 0.0410156 0.5
vt 0.0410156 0.5
vt 0.0410156 0.5
vt 0.0410156 0.5
vt 0.0410156 0.5
vt 0.0410156 0.5
vt 0.0410156 0.5
vt 0.0410156 0.5
vt 0.0410156 0.5
vt 0.0410156 0.5
vt 0.0410156 0.5
vt 0.0410156 0.5
vt 0.0410156 0.5
vt 0.0410156 0.5
vt 0.0410156 0.5
vt 0.0410156 0.5
vt 0.0410156 0.5
vt 0.0410156 0.5
vt 0.0410156 0.5
vt 0.0410156 0.5
vt 0.0410156 0.5
vt 0.0410156 0.5
vt 0.0410156 0.5
vt 0.0410156 0.5
vt 0.0410156 0.5
vt 0.0410156 0.5
vt 0.0410156 0.5
vt 0.0410156 0.5
vt 0.0410156 0.5
vt 0.0410156 0.5
vt 0.0410156 0.5
vt 0.0410156 0.5
vt 0.0410156 0.5
vt 0.0410156 0.5
vt 0.0410156 0.5
vt 0.0410156 0.5
vt 0.0410156 0.5
vt 0.0410156 0.5
vt 0.0410156 0.5
vt 0.0410156 0.5
vt 0.0410156 0.5
vt 0.0410156 0.5
vt 0.0410156 0.5
vt 0.0410156 0.5
vt 0.0410156 0.5
vt 0.0410156 0.5
vt 0.0410156 0.5
vt 0.0410156 0.5
vt 0.0410156 0.5
vt 0.0410156 0.5
vt 0.0410156 0.5
vt 0.0410156 0.5
vt 0.0410156 0.5
vt 0.0410156 0.5
vt 0.0410156 0.5
vt 0.0410156 0.5
vt 0.0410156 0.5
vt 0.0410156 0.5
vt 0.0410156 0.5
vt 0.0410156 0.5
vt 0.0410156 0.5
vt 0.0410156 0.5
vt 0.0410156 0.5
vt 0.0410156 0.5
vt 0.0410156 0.5
vt 0.0410156 0.5
vt 0.0410156 0.5
vt 0.0410156 0.5
vt 0.0410156 0.5
vt 0.0410156 0.5
vt 0.0410156 0.5
vt 0.0410156 0.5
vt 0.0410156 0.5
vt 0.0410156 0.5
vt 0.0410156 0.5
vt 0.0410156 0.5
vt 0.0410156 0.5
vt 0.0410156 0.5
vt 0.0410156 0.5
vt 0.0410156 0.5
vt 0.0410156 0.5
vt 0.0410156 0.5
vt 0.0410156 0.5
vt 0.0410156 0.5
vt 0.0410156 0.5
vt 0.0410156 0.5
vt 0.0410156 0.5
vt 0.0410156 0.5
vt 0.0410156 0.5
vt 0.0410156 0.5
vt 0.0410156 0.5
vt 0.0410156 0.5
vt 0.0410156 0.5
vt 0.0410156 0.5
vt 0.0410156 0.5
vt 0.0410156 0.5
vt 0.0410156 0.5
vt 0.0410156 0.5
vt 0.0410156 0.5
vt 0.0410156 0.5
vt 0.0410156 0.5
vt 0.0410156 0.5
vt 0.0410156 0.5
vt 0.0410156 0.5
vt 0.0410156 0.5
vt 0.0410156 0.5
vt 0.0410156 0.5
vt 0.0410156 0.5
vt 0.0410156 0.5
vt 0.0410156 0.5
vt 0.0410156 0.5
vt 0.0410156 0.5
vt 0.0410156 0.5
vt 0.0410156 0.5
vt 0.0410156 0.5
vt 0.0410156 0.5
vt 0.0410156 0.5
vt 0.0410156 0.5
vt 0.0410156 0.5
vt 0.0410156 0.5
vt 0.0410156 0.5
vt 0.0410156 0.5
vt 0.0410156 0.5
vt 0.0410156 0.5
vt 0.0410156 0.5
vt 0.0410156 0.5
vt 0.0410156 0.5
vt 0.0410156 0.5
vt 0.0410156 0.5
vt 0.0410156 0.5
vt 0.0410156 0.5
vt 0.0410156 0.5
vt 0.0410156 0.5
vt 0.0410156 0.5
vt 0.0410156 0.5
vt 0.0410156 0.5
vt 0.0410156 0.5
vt 0.0410156 0.5
vt 0.0410156 0.5
vt 0.0410156 0.5
vt 0.0410156 0.5
vt 0.0410156 0.5
vt 0.0410156 0.5
vt 0.0410156 0.5
vt 0.0410156 0.5
vt 0.0410156 0.5
vt 0.0410156 0.5
vt 0.0410156 0.5
vt 0.0410156 0.5
vt 0.0410156 0.5
vt 0.0410156 0.5
vt 0.0410156 0.5
vt 0.0410156 0.5
vt 0.0410156 0.5
vt 0.0410156 0.5
vt 0.0410156 0.5
vt 0.0410156 0.5
vt 0.0410156 0.5
vt 0.0410156 0.5
vt 0.0410156 0.5
vt 0.0410156 0.5
vn -1 0 0
vn -1 0 0
vn -1 0 0
vn -1 0 0
vn -1 0 0
vn -1 0 0
vn -1 0 0
vn -1 0 0
vn -1 0 0
vn -1 0 0
vn -1 0 0
vn -1 0 0
vn -1 0 0
vn -1 0 0
vn -1 0 0
vn -1 0 0
vn -1 0 0
vn -1 0 0
vn -1 0 0
vn -1 0 0
vn -1 0 0
vn -1 0 0
vn -1 0 0
vn -1 0 0
vn -1 0 0
vn -1 0 0
vn -1 0 0
vn -1 0 0
vn -1 0 0
vn -1 0 0
vn -1 0 0
vn -1 0 0
vn -1 0 0
vn -1 0 0
vn -1 0 0
vn -1 0 0
vn -1 0 0
vn -1 0 0
vn -1 0 0
vn -1 0 0
vn 1 0 0
vn 1 0 0
vn 1 0 0
vn 1 0 0
vn 1 0 0
vn 1 0 0
vn 1 0 0
vn 1 0 0
vn 1 0 0
vn 1 0 0
vn 1 0 0
vn 1 0 0
vn 1 0 0
vn 1 0 0
vn 1 0 0
vn 1 0 0
vn 1 0 0
vn 1 0 0
vn 1 0 0
vn 1 0 0
vn 1 0 0
vn 1 0 0
vn 1 0 0
vn 1 0 0
vn 1 0 0
vn 1 0 0
vn 1 0 0
vn 1 0 0
vn 1 0 0
vn 1 0 0
vn 1 0 0
vn 1 0 0
vn 1 0 0
vn 1 0 0
vn 1 0 0
vn 1 0 0
vn 1 0 0
vn 1 0 0
vn 1 0 0
vn 1 0 0
vn 0 0 1
vn 0 0 1
vn 0 0 1
vn 0 0 1
vn 0 0 1
vn 0 0 1
vn 0 0 1
vn 0 0 1
vn 0 0 1
vn 0 0 1
vn 0 0 1
vn 0 0 1
vn 0 0 1
vn 0 0 1
vn 0 0 1
vn 0 0 1
vn 0 0 1
vn 0 0 1
vn 0 0 1
vn 0 0 1
vn 0 0 1
vn 0 0 1
vn 0 0 1
vn 0 0 1
vn 0 0 1
vn 0 0 1
vn 0 0 1
vn 0 0 1
vn 0 0 1
vn 0 0 1
vn 0 0 1
vn 0 0 1
vn 0 0 1
vn 0 0 1
vn 0 0 1
vn 0 0 1
vn 0 0 1
vn 0 0 1
vn 0 0 1
vn 0 0 1
vn 0 0 -1
vn 0 0 -1
vn 0 0 -1
vn 0 0 -1
vn 0 0 -1
vn 0 0 -1
vn 0 0 -1
vn 0 0 -1
vn 0 0 -1
vn 0 0 -1
vn 0 0 -1
vn 0 0 -1
vn 0 0 -1
vn 0 0 -1
vn 0 0 -1
vn 0 0 -1
vn 0 0 -1
vn 0 0 -1
vn 0 0 -1
vn 0 0 -1
vn 0 0 -1
vn 0 0 -1
vn 0 0 -1
vn 0 0 -1
vn 0 0 -1
vn 0 0 -1
vn 0 0 -1
vn 0 0 -1
vn 0 0 -1
vn 0 0 -1
vn 0 0 -1
vn 0 0 -1
vn 0 0 -1
vn 0 0 -1
vn 0 0 -1
vn 0 0 -1
vn 0 0 -1
vn 0 0 -1
vn 0 0 -1
vn 0 0 -1
vn 0 -1 0
vn 0 -1 0
vn 0 -1 0
vn 0 -1 0
vn 0 -1 0
vn 0 -1 0
vn 0 -1 0
vn 0 -1 0
vn 0 -1 0
vn 0 -1 0
vn 0 -1 0
vn 0 -1 0
vn 0 -1 0
vn 0 -1 0
vn 0 -1 0
vn 0 -1 0
vn 0 -1 0
vn 0 -1 0
vn 0 -1 0
vn 0 -1 0
vn 0 1 0
vn 0 1 0
vn 0 1 0
vn 0 1 0
vn 0 1 0
vn 0 1 0
vn 0 1 0
vn 0 1 0
vn 0 1 0
vn 0 1 0
vn 0 1 0
vn 0 1 0
vn 0 1 0
vn 0 1 0
vn 0 1 0
vn 0 1 0
vn 0 1 0
vn 0 1 0
vn 0 1 0
vn 0 1 0
vn 0 1 0
vn 0 1 0
vn 0 1 0
vn 0 1 0
vn 0 1 0
vn 0 1 0
vn 0 1 0
vn 0 1 0
vn 0 1 0
vn 0 1 0
vn 0 1 0
vn 0 1 0
vn 0 1 0
vn 0 1 0
vn 0 1 0
vn 0 1 0
vn 0 1 0
vn 0 1 0
vn 0 1 0
vn 0 1 0
vn 0 1 0
vn 0 1 0
vn 0 1 0
vn 0 1 0
vn 0 1 0
vn 0 1 0
vn 0 1 0
vn 0 1 0
vn 0 1 0
vn 0 1 0
vn 0 1 0
vn 0 1 0
vn 0 1 0
vn 0 1 0
vn 0 1 0
vn 0 1 0
vn 0 1 0
vn 0 1 0
vn 0 1 0
vn 0 1 0
g default_0
f 3/3/3 2/2/2 1/1/1
f 3/3/3 1/1/1 4/4/4
f 7/7/7 6/6/6 5/5/5
f 7/7/7 5/5/5 8/8/8
f 11/11/11 10/10/10 9/9/9
f 11/11/11 9/9/9 12/12/12
f 15/15/15 14/14/14 13/13/13
f 15/15/15 13/13/13 16/16/16
f 19/19/19 18/18/18 17/17/17
f 19/19/19 17/17/17 20/20/20
f 23/23/23 22/22/22 21/21/21
f 23/23/23 21/21/21 24/24/24
f 27/27/27 26/26/26 25/25/25
f 27/27/27 25/25/25 28/28/28
f 31/31/31 30/30/30 29/29/29
f 31/31/31 29/29/29 32/32/32
f 35/35/35 34/34/34 33/33/33
f 35/35/35 33/33/33 36/36/36
f 39/39/39 38/38/38 37/37/37
f 39/39/39 37/37/37 40/40/40
f 43/43/43 42/42/42 41/41/41
f 43/43/43 44/44/44 42/42/42
f 47/47/47 46/46/46 45/45/45
f 47/47/47 48/48/48 46/46/46
f 51/51/51 50/50/50 49/49/49
f 51/51/51 52/52/52 50/50/50
f 55/55/55 54/54/54 53/53/53
f 55/55/55 56/56/56 54/54/54
f 59/59/59 58/58/58 57/57/57
f 59/59/59 60/60/60 58/58/58
f 63/63/63 62/62/62 61/61/61
f 63/63/63 64/64/64 62/62/62
f 67/67/67 66/66/66 65/65/65
f 67/67/67 68/68/68 66/66/66
f 71/71/71 70/70/70 69/69/69
f 71/71/71 72/72/72 70/70/70
f 75/75/75 74/74/74 73/73/73
f 75/75/75 76/76/76 74/74/74
f 79/79/79 78/78/78 77/77/77
f 79/79/79 80/80/80 78/78/78
f 83/83/83 82/82/82 81/81/81
f 83/83/83 81/81/81 84/84/84
f 87/87/87 86/86/86 85/85/85
f 87/87/87 85/85/85 88/88/88
f 91/91/91 90/90/90 89/89/89
f 91/91/91 89/89/89 92/92/92
f 95/95/95 94/94/94 93/93/93
f 95/95/95 93/93/93 96/96/96
f 99/99/99 98/98/98 97/97/97
f 99/99/99 97/97/97 100/100/100
f 103/103/103 102/102/102 101/101/101
f 103/103/103 101/101/101 104/104/104
f 107/107/107 106/106/106 105/105/105
f 107/107/107 105/105/105 108/108/108
f 111/111/111 110/110/110 109/109/109
f 111/111/111 109/109/109 112/112/112
f 115/115/115 114/114/114 113/113/113
f 115/115/115 113/113/113 116/116/116
f 119/119/119 118/118/118 117/117/117
f 119/119/119 117/117/117 120/120/120
f 123/123/123 122/122/122 121/121/121
f 123/123/123 124/124/124 122/122/122
f 127/127/127 126/126/126 125/125/125
f 127/127/127 128/128/128 126/126/126
f 131/131/131 130/130/130 129/129/129
f 131/131/131 132/132/132 130/130/130
f 135/135/135 134/134/134 133/133/133
f 135/135/135 136/136/136 134/134/134
f 139/139/139 138/138/138 137/137/137
f 139/139/139 140/140/140 138/138/138
f 143/143/143 142/142/142 141/141/141
f 143/143/143 144/144/144 142/142/142
f 147/147/147 146/146/146 145/145/145
f 147/147/147 148/148/148 146/146/146
f 151/151/151 150/150/150 149/149/149
f 151/151/151 152/152/152 150/150/150
f 155/155/155 154/154/154 153/153/153
f 155/155/155 156/156/156 154/154/154
f 159/159/159 158/158/158 157/157/157
f 159/159/159 160/160/160 158/158/158
f 163/163/163 162/162/162 161/161/161
f 163/163/163 161/161/161 164/164/164
f 164/164/164 161/161/161 165/165/165
f 161/161/161 166/166/166 165/165/165
f 167/167/167 164/164/164 165/165/165
f 167/167/167 165/165/165 168/168/168
f 168/168/168 165/165/165 169/169/169
f 165/165/165 170/170/170 169/169/169
f 171/171/171 168/168/168 169/169/169
f 171/171/171 169/169/169 172/172/172
f 171/171/171 172/172/172 173/173/173
f 171/171/171 173/173/173 174/174/174
f 173/173/173 172/172/172 175/175/175
f 173/173/173 175/175/175 176/176/176
f 173/173/173 176/176/176 177/177/177
f 173/173/173 177/177/177 178/178/178
f 177/177/177 176/176/176 179/179/179
f 177/177/177 179/179/179 180/180/180
f 183/183/183 182/182/182 181/181/181
f 183/183/183 184/184/184 182/182/182
f 183/183/183 185/185/185 184/184/184
f 183/183/183 186/186/186 185/185/185
f 184/184/184 187/187/187 182/182/182
f 182/182/182 187/187/187 188/188/188
f 184/184/184 189/189/189 187/187/187
f 184/184/184 190/190/190 189/189/189
f 186/186/186 191/191/191 185/185/185
f 192/192/192 191/191/191 186/186/186
f 192/192/192 193/193/193 191/191/191
f 192/192/192 194/194/194 193/193/193
f 189/189/189 195/195/195 187/187/187
f 187/187/187 195/195/195 196/196/196
f 189/189/189 197/197/197 195/195/195
f 194/194/194 198/198/198 193/193/193
f 199/199/199 198/198/198 194/194/194
f 199/199/199 200/200/200 198/198/198
f 195/195/195 201/201/201 196/196/196
f 199/199/199 202/202/202 200/200/200
f 201/201/201 203/203/203 196/196/196
f 204/204/204 203/203/203 201/201/201
f 204/204/204 205/205/205 203/203/203
f 204/204/204 206/206/206 205/205/205
f 199/199/199 207/207/207 202/202/202
f 202/202/202 207/207/207 208/208/208
f 202/202/202 208/208/208 209/209/209
f 199/199/199 210/210/210 207/207/207
f 206/206/206 211/211/211 205/205/205
f 212/212/212 211/211/211 206/206/206
f 212/212/212 213/213/213 211/211/211
f 212/212/212 214/214/214 213/213/213
f 207/207/207 215/215/215 208/208/208
f 208/208/208 215/215/215 216/216/216
f 207/207/207 217/217/217 215/215/215
f 207/207/207 218/218/218 217/217/217
f 214/214/214 219/219/219 213/213/213
f 217/217/217 219/219/219 215/215/215
f 215/215/215 219/219/219 214/214/214
f 217/217/217 220/220/220 219/219/219
f 223/223/223 222/222/222 221/221/221
f 223/223/223 224/224/224 222/222/222
f 224/224/224 225/225/225 222/222/222
f 222/222/222 225/225/225 226/226/226
f 227/227/227 225/225/225 224/224/224
f 227/227/227 228/228/228 225/225/225
f 228/228/228 229/229/229 225/225/225
f 225/225/225 229/229/229 230/230/230
f 231/231/231 229/229/229 228/228/228
f 231/231/231 232/232/232 229/229/229
f 231/231/231 233/233/233 232/232/232
f 231/231/231 234/234/234 233/233/233
f 233/233/233 235/235/235 232/232/232
f 233/233/233 236/236/236 235/235/235
f 233/233/233 237/237/237 236/236/236
f 233/233/233 238/238/238 237/237/237
f 237/237/237 239/239/239 236/236/236
f 237/237/237 240/240/240 239/239/239
