g default
v -0.2 0.1 -0.1
v -0.2 0 -0.1
v -0.2 0 -0.4
v -0.2 0.1 -0.4
v -0.1 0.1 0.4
v -0.1 0 0.4
v -0.1 0 -0.1
v -0.1 0.1 -0.1
v 0.1 0.1 -0.2
v 0.1 0 -0.2
v 0.1 0 -0.3
v 0.1 0.1 -0.3
v -0.1 0 -0.2
v -0.1 0.1 -0.2
v -0.1 0 -0.3
v -0.1 0.1 -0.3
v 0 0 0.3
v 0 0.1 0.3
v 0 0 0.2
v 0 0.1 0.2
v 0 0 0.1
v 0 0.1 0.1
v 0 0 -0.1
v 0 0.1 -0.1
v 0.2 0 0.4
v 0.2 0.1 0.4
v 0.2 0 0.3
v 0.2 0.1 0.3
v 0.2 0 0.2
v 0.2 0.1 0.2
v 0.2 0 0.1
v 0.2 0.1 0.1
v 0.2 0 -0.1
v 0.2 0.1 -0.1
v 0.2 0 -0.4
v 0.2 0.1 -0.4
v 0.2 0 0.4
v -0.1 0 0.4
v -0.1 0.1 0.4
v 0.2 0.1 0.4
v 0.2 0 0.2
v 0 0 0.2
v 0 0.1 0.2
v 0.2 0.1 0.2
v -0.1 0 -0.1
v -0.2 0 -0.1
v -0.2 0.1 -0.1
v -0.1 0.1 -0.1
v 0.2 0 -0.1
v 0 0 -0.1
v 0 0.1 -0.1
v 0.2 0.1 -0.1
v 0.1 0 -0.3
v -0.1 0 -0.3
v -0.1 0.1 -0.3
v 0.1 0.1 -0.3
v 0 0 0.3
v 0.2 0 0.3
v 0 0.1 0.3
v 0.2 0.1 0.3
v 0 0 0.1
v 0.2 0 0.1
v 0 0.1 0.1
v 0.2 0.1 0.1
v -0.1 0 -0.2
v 0.1 0 -0.2
v -0.1 0.1 -0.2
v 0.1 0.1 -0.2
v -0.2 0 -0.4
v 0.2 0 -0.4
v -0.2 0.1 -0.4
v 0.2 0.1 -0.4
v 0 0 0.3
v -0.1 0 0.4
v 0.2 0 0.4
v 0.2 0 0.3
v 0 0 0.2
v 0 0 0.1
v 0.2 0 0.2
v 0.2 0 0.1
v -0.1 0 -0.1
v 0 0 -0.1
v -0.1 0 -0.2
v -0.2 0 -0.1
v 0.2 0 -0.1
v 0.1 0 -0.2
v -0.1 0 -0.3
v 0.1 0 -0.3
v -0.2 0 -0.4
v 0.2 0 -0.4
v -0.1 0.1 0.4
v 0 0.1 0.3
v 0.2 0.1 0.4
v 0.2 0.1 0.3
v 0 0.1 0.2
v 0 0.1 0.1
v 0.2 0.1 0.2
v 0.2 0.1 0.1
v -0.1 0.1 -0.1
v 0 0.1 -0.1
v -0.1 0.1 -0.2
v -0.2 0.1 -0.1
v 0.2 0.1 -0.1
v 0.1 0.1 -0.2
v -0.1 0.1 -0.3
v 0.1 0.1 -0.3
v -0.2 0.1 -0.4
v 0.2 0.1 -0.4
vt 0.775391 0.5
vt 0.775391 0.5
vt 0.775391 0.5
vt 0.775391 0.5
vt 0.775391 0.5
vt 0.775391 0.5
vt 0.775391 0.5
vt 0.775391 0.5
vt 0.775391 0.5
vt 0.775391 0.5
vt 0.775391 0.5
vt 0.775391 0.5
vt 0.775391 0.5
vt 0.775391 0.5
vt 0.775391 0.5
vt 0.775391 0.5
vt 0.775391 0.5
vt 0.775391 0.5
vt 0.775391 0.5
vt 0.775391 0.5
vt 0.775391 0.5
vt 0.775391 0.5
vt 0.775391 0.5
vt 0.775391 0.5
vt 0.775391 0.5
vt 0.775391 0.5
vt 0.775391 0.5
vt 0.775391 0.5
vt 0.775391 0.5
vt 0.775391 0.5
vt 0.775391 0.5
vt 0.775391 0.5
vt 0.775391 0.5
vt 0.775391 0.5
vt 0.775391 0.5
vt 0.775391 0.5
vt 0.775391 0.5
vt 0.775391 0.5
vt 0.775391 0.5
vt 0.775391 0.5
vt 0.775391 0.5
vt 0.775391 0.5
vt 0.775391 0.5
vt 0.775391 0.5
vt 0.775391 0.5
vt 0.775391 0.5
vt 0.775391 0.5
vt 0.775391 0.5
vt 0.775391 0.5
vt 0.775391 0.5
vt 0.775391 0.5
vt 0.775391 0.5
vt 0.775391 0.5
vt 0.775391 0.5
vt 0.775391 0.5
vt 0.775391 0.5
vt 0.775391 0.5
vt 0.775391 0.5
vt 0.775391 0.5
vt 0.775391 0.5
vt 0.775391 0.5
vt 0.775391 0.5
vt 0.775391 0.5
vt 0.775391 0.5
vt 0.775391 0.5
vt 0.775391 0.5
vt 0.775391 0.5
vt 0.775391 0.5
vt 0.775391 0.5
vt 0.775391 0.5
vt 0.775391 0.5
vt 0.775391 0.5
vt 0.775391 0.5
vt 0.775391 0.5
vt 0.775391 0.5
vt 0.775391 0.5
vt 0.775391 0.5
vt 0.775391 0.5
vt 0.775391 0.5
vt 0.775391 0.5
vt 0.775391 0.5
vt 0.775391 0.5
vt 0.775391 0.5
vt 0.775391 0.5
vt 0.775391 0.5
vt 0.775391 0.5
vt 0.775391 0.5
vt 0.775391 0.5
vt 0.775391 0.5
vt 0.775391 0.5
vt 0.775391 0.5
vt 0.775391 0.5
vt 0.775391 0.5
vt 0.775391 0.5
vt 0.775391 0.5
vt 0.775391 0.5
vt 0.775391 0.5
vt 0.775391 0.5
vt 0.775391 0.5
vt 0.775391 0.5
vt 0.775391 0.5
vt 0.775391 0.5
vt 0.775391 0.5
vt 0.775391 0.5
vt 0.775391 0.5
vt 0.775391 0.5
vt 0.775391 0.5
vt 0.775391 0.5
vn -1 0 0
vn -1 0 0
vn -1 0 0
vn -1 0 0
vn -1 0 0
vn -1 0 0
vn -1 0 0
vn -1 0 0
vn -1 0 0
vn -1 0 0
vn -1 0 0
vn -1 0 0
vn 1 0 0
vn 1 0 0
vn 1 0 0
vn 1 0 0
vn 1 0 0
vn 1 0 0
vn 1 0 0
vn 1 0 0
vn 1 0 0
vn 1 0 0
vn 1 0 0
vn 1 0 0
vn 1 0 0
vn 1 0 0
vn 1 0 0
vn 1 0 0
vn 1 0 0
vn 1 0 0
vn 1 0 0
vn 1 0 0
vn 1 0 0
vn 1 0 0
vn 1 0 0
vn 1 0 0
vn 0 0 1
vn 0 0 1
vn 0 0 1
vn 0 0 1
vn 0 0 1
vn 0 0 1
vn 0 0 1
vn 0 0 1
vn 0 0 1
vn 0 0 1
vn 0 0 1
vn 0 0 1
vn 0 0 1
vn 0 0 1
vn 0 0 1
vn 0 0 1
vn 0 0 1
vn 0 0 1
vn 0 0 1
vn 0 0 1
vn 0 0 -1
vn 0 0 -1
vn 0 0 -1
vn 0 0 -1
vn 0 0 -1
vn 0 0 -1
vn 0 0 -1
vn 0 0 -1
vn 0 0 -1
vn 0 0 -1
vn 0 0 -1
vn 0 0 -1
vn 0 0 -1
vn 0 0 -1
vn 0 0 -1
vn 0 0 -1
vn 0 -1 0
vn 0 -1 0
vn 0 -1 0
vn 0 -1 0
vn 0 -1 0
vn 0 -1 0
vn 0 -1 0
vn 0 -1 0
vn 0 -1 0
vn 0 -1 0
vn 0 -1 0
vn 0 -1 0
vn 0 -1 0
vn 0 -1 0
vn 0 -1 0
vn 0 -1 0
vn 0 -1 0
vn 0 -1 0
vn 0 1 0
vn 0 1 0
vn 0 1 0
vn 0 1 0
vn 0 1 0
vn 0 1 0
vn 0 1 0
vn 0 1 0
vn 0 1 0
vn 0 1 0
vn 0 1 0
vn 0 1 0
vn 0 1 0
vn 0 1 0
vn 0 1 0
vn 0 1 0
vn 0 1 0
vn 0 1 0
g default_0
f 3/3/3 2/2/2 1/1/1
f 3/3/3 1/1/1 4/4/4
f 7/7/7 6/6/6 5/5/5
f 7/7/7 5/5/5 8/8/8
f 11/11/11 10/10/10 9/9/9
f 11/11/11 9/9/9 12/12/12
f 15/15/15 14/14/14 13/13/13
f 15/15/15 16/16/16 14/14/14
f 19/19/19 18/18/18 17/17/17
f 19/19/19 20/20/20 18/18/18
f 23/23/23 22/22/22 21/21/21
f 23/23/23 24/24/24 22/22/22
f 27/27/27 26/26/26 25/25/25
f 27/27/27 28/28/28 26/26/26
f 31/31/31 30/30/30 29/29/29
f 31/31/31 32/32/32 30/30/30
f 35/35/35 34/34/34 33/33/33
f 35/35/35 36/36/36 34/34/34
f 39/39/39 38/38/38 37/37/37
f 39/39/39 37/37/37 40/40/40
f 43/43/43 42/42/42 41/41/41
f 43/43/43 41/41/41 44/44/44
f 47/47/47 46/46/46 45/45/45
f 47/47/47 45/45/45 48/48/48
f 51/51/51 50/50/50 49/49/49
f 51/51/51 49/49/49 52/52/52
f 55/55/55 54/54/54 53/53/53
f 55/55/55 53/53/53 56/56/56
f 59/59/59 58/58/58 57/57/57
f 59/59/59 60/60/60 58/58/58
f 63/63/63 62/62/62 61/61/61
f 63/63/63 64/64/64 62/62/62
f 67/67/67 66/66/66 65/65/65
f 67/67/67 68/68/68 66/66/66
f 71/71/71 70/70/70 69/69/69
f 71/71/71 72/72/72 70/70/70
f 75/75/75 74/74/74 73/73/73
f 75/75/75 73/73/73 76/76/76
f 73/73/73 74/74/74 77/77/77
f 77/77/77 74/74/74 78/78/78
f 79/79/79 77/77/77 78/78/78
f 79/79/79 78/78/78 80/80/80
f 78/78/78 74/74/74 81/81/81
f 78/78/78 81/81/81 82/82/82
f 82/82/82 81/81/81 83/83/83
f 81/81/81 84/84/84 83/83/83
f 85/85/85 82/82/82 83/83/83
f 85/85/85 83/83/83 86/86/86
f 83/83/83 84/84/84 87/87/87
f 85/85/85 86/86/86 88/88/88
f 87/87/87 84/84/84 89/89/89
f 88/88/88 87/87/87 89/89/89
f 85/85/85 88/88/88 90/90/90
f 88/88/88 89/89/89 90/90/90
f 93/93/93 92/92/92 91/91/91
f 93/93/93 94/94/94 92/92/92
f 92/92/92 95/95/95 91/91/91
f 95/95/95 96/96/96 91/91/91
f 97/97/97 96/96/96 95/95/95
f 97/97/97 98/98/98 96/96/96
f 96/96/96 99/99/99 91/91/91
f 96/96/96 100/100/100 99/99/99
f 100/100/100 101/101/101 99/99/99
f 99/99/99 101/101/101 102/102/102
f 103/103/103 101/101/101 100/100/100
f 103/103/103 104/104/104 101/101/101
f 101/101/101 105/105/105 102/102/102
f 103/103/103 106/106/106 104/104/104
f 105/105/105 107/107/107 102/102/102
f 106/106/106 107/107/107 105/105/105
f 103/103/103 108/108/108 106/106/106
f 106/106/106 108/108/108 107/107/107
