g default
v -0.5 0.1 0
v -0.5 0 0
v -0.5 0 -0.2
v -0.5 0.1 -0.2
v -0.3 0.1 0.1
v -0.3 0 0.1
v -0.3 0 0
v -0.3 0.1 0
v -0.2 0.1 0.2
v -0.2 0 0.2
v -0.2 0 0.1
v -0.2 0.1 0.1
v -0.1 0.1 0.3
v -0.1 0 0.3
v -0.1 0 0.2
v -0.1 0.1 0.2
v -0.1 0.1 -0.2
v -0.1 0 -0.2
v -0.1 0 -0.3
v -0.1 0.1 -0.3
v 0.3 0 0.3
v 0.3 0.1 0.3
v 0.3 0 0.2
v 0.3 0.1 0.2
v 0.3 0 -0.2
v 0.3 0.1 -0.2
v 0.3 0 -0.3
v 0.3 0.1 -0.3
v 0.4 0 0.2
v 0.4 0.1 0.2
v 0.4 0 0.1
v 0.4 0.1 0.1
v 0.5 0 0.1
v 0.5 0.1 0.1
v 0.5 0 0
v 0.5 0.1 0
v 0.5 0 0
v 0.5 0.1 0
v 0.5 0 -0.1
v 0.5 0.1 -0.1
v 0.5 0 -0.1
v 0.5 0.1 -0.1
v 0.5 0 -0.2
v 0.5 0.1 -0.2
v 0 0 0.3
v -0.1 0 0.3
v -0.1 0.1 0.3
v 0 0.1 0.3
v 0.2 0 0.3
v 0 0 0.3
v 0 0.1 0.3
v 0.2 0.1 0.3
v 0.3 0 0.3
v 0.2 0 0.3
v 0.2 0.1 0.3
v 0.3 0.1 0.3
v -0.1 0 0.2
v -0.2 0 0.2
v -0.2 0.1 0.2
v -0.1 0.1 0.2
v 0.4 0 0.2
v 0.3 0 0.2
v 0.3 0.1 0.2
v 0.4 0.1 0.2
v -0.2 0 0.1
v -0.3 0 0.1
v -0.3 0.1 0.1
v -0.2 0.1 0.1
v 0.5 0 0.1
v 0.4 0 0.1
v 0.4 0.1 0.1
v 0.5 0.1 0.1
v -0.4 0 0
v -0.5 0 0
v -0.5 0.1 0
v -0.4 0.1 0
v -0.3 0 0
v -0.4 0 0
v -0.4 0.1 0
v -0.3 0.1 0
v -0.5 0 -0.2
v -0.4 0 -0.2
v -0.5 0.1 -0.2
v -0.4 0.1 -0.2
v -0.4 0 -0.2
v -0.3 0 -0.2
v -0.4 0.1 -0.2
v -0.3 0.1 -0.2
v -0.3 0 -0.2
v -0.1 0 -0.2
v -0.3 0.1 -0.2
v -0.1 0.1 -0.2
v 0.3 0 -0.2
v 0.4 0 -0.2
v 0.3 0.1 -0.2
v 0.4 0.1 -0.2
v 0.4 0 -0.2
v 0.5 0 -0.2
v 0.4 0.1 -0.2
v 0.5 0.1 -0.2
v -0.1 0 -0.3
v 0.3 0 -0.3
v -0.1 0.1 -0.3
v 0.3 0.1 -0.3
v -0.1 0 0.2
v -0.1 0 0.3
v 0 0 0.3
v 0 0 0.2
v 0 0 0.2
v 0 0 0.3
v 0.2 0 0.3
v 0.1 0 0.2
v 0.2 0 0.2
v 0.2 0 0.2
v 0.2 0 0.3
v 0.3 0 0.3
v 0.3 0 0.2
v 0.3 0 0.1
v 0.4 0 0.2
v 0.4 0 0.1
v 0.4 0 0
v 0.5 0 0.1
v 0.5 0 0
v -0.2 0 0.1
v -0.2 0 0.2
v -0.1 0 0.2
v -0.1 0 0.1
v -0.1 0 0.1
v -0.1 0 0.2
v 0 0 0.2
v 0 0 0.1
v 0 0 0.1
v 0 0 0.2
v 0.1 0 0.2
v 0.1 0 0.1
v 0.1 0 0.1
v 0.1 0 0.2
v 0.2 0 0.2
v 0.3 0 0.2
v 0.3 0 0.1
v -0.3 0 0
v -0.3 0 0.1
v -0.2 0 0.1
v -0.2 0 0
v -0.2 0 0
v -0.2 0 0.1
v -0.1 0 0.1
v -0.1 0 0
v -0.1 0 0
v -0.1 0 0.1
v 0 0 0.1
v 0 0 0
v 0 0 0
v 0 0 0.1
v 0.1 0 0.1
v 0.3 0 0.1
v 0.1 0 0
v 0.2 0 0
v 0.3 0 0
v -0.1 0 -0.1
v -0.1 0 0
v 0.1 0 -0.1
v -0.3 0 -0.2
v -0.3 0 -0.1
v -0.1 0 -0.2
v -0.4 0 -0.1
v -0.3 0 0
v -0.4 0 0
v 0.3 0 0
v 0.3 0 0.1
v 0.4 0 0.1
v 0.4 0 0
v -0.4 0 -0.1
v -0.5 0 0
v -0.4 0 0
v -0.5 0 -0.2
v -0.4 0 -0.2
v -0.3 0 -0.1
v -0.2 0 0
v -0.1 0 0
v -0.3 0 0
v -0.1 0 -0.1
v 0.1 0 -0.1
v 0.1 0 0
v 0.2 0 0
v 0.2 0 -0.1
v 0.2 0 -0.1
v 0.3 0 0
v 0.4 0 0
v 0.2 0 0
v 0.3 0 -0.1
v 0.4 0 -0.1
v 0.4 0 -0.1
v 0.4 0 0
v 0.5 0 0
v 0.5 0 -0.1
v -0.4 0 -0.2
v -0.4 0 -0.1
v -0.3 0 -0.1
v -0.3 0 -0.2
v -0.1 0 -0.2
v -0.1 0 -0.1
v 0.1 0 -0.1
v 0.1 0 -0.2
v 0.1 0 -0.2
v 0.1 0 -0.1
v 0.2 0 -0.1
v 0.2 0 -0.2
v 0.2 0 -0.2
v 0.2 0 -0.1
v 0.3 0 -0.1
v 0.3 0 -0.2
v 0.3 0 -0.2
v 0.3 0 -0.1
v 0.4 0 -0.1
v 0.4 0 -0.2
v 0.4 0 -0.2
v 0.4 0 -0.1
v 0.5 0 -0.1
v 0.5 0 -0.2
v -0.1 0 -0.3
v -0.1 0 -0.2
v 0.1 0 -0.2
v 0.2 0 -0.2
v 0.3 0 -0.2
v 0.3 0 -0.3
v -0.1 0.1 0.3
v -0.1 0.1 0.2
v 0 0.1 0.3
v 0 0.1 0.2
v 0 0.1 0.3
v 0 0.1 0.2
v 0.2 0.1 0.3
v 0.1 0.1 0.2
v 0.2 0.1 0.2
v 0.2 0.1 0.3
v 0.2 0.1 0.2
v 0.3 0.1 0.3
v 0.3 0.1 0.2
v 0.3 0.1 0.1
v 0.4 0.1 0.2
v 0.4 0.1 0.1
v 0.4 0.1 0
v 0.5 0.1 0.1
v 0.5 0.1 0
v -0.2 0.1 0.2
v -0.2 0.1 0.1
v -0.1 0.1 0.2
v -0.1 0.1 0.1
v -0.1 0.1 0.2
v -0.1 0.1 0.1
v 0 0.1 0.2
v 0 0.1 0.1
v 0 0.1 0.2
v 0 0.1 0.1
v 0.1 0.1 0.2
v 0.1 0.1 0.1
v 0.1 0.1 0.2
v 0.1 0.1 0.1
v 0.2 0.1 0.2
v 0.3 0.1 0.2
v 0.3 0.1 0.1
v -0.3 0.1 0.1
v -0.3 0.1 0
v -0.2 0.1 0.1
v -0.2 0.1 0
v -0.2 0.1 0.1
v -0.2 0.1 0
v -0.1 0.1 0.1
v -0.1 0.1 0
v -0.1 0.1 0.1
v -0.1 0.1 0
v 0 0.1 0.1
v 0 0.1 0
v 0 0.1 0.1
v 0 0.1 0
v 0.1 0.1 0.1
v 0.3 0.1 0.1
v 0.1 0.1 0
v 0.2 0.1 0
v 0.3 0.1 0
v -0.1 0.1 -0.1
v -0.1 0.1 0
v 0.1 0.1 -0.1
v -0.3 0.1 -0.1
v -0.3 0.1 -0.2
v -0.1 0.1 -0.2
v -0.4 0.1 -0.1
v -0.3 0.1 0
v -0.4 0.1 0
v 0.3 0.1 0.1
v 0.3 0.1 0
v 0.4 0.1 0.1
v 0.4 0.1 0
v -0.5 0.1 0
v -0.4 0.1 -0.1
v -0.4 0.1 0
v -0.5 0.1 -0.2
v -0.4 0.1 -0.2
v -0.2 0.1 0
v -0.3 0.1 -0.1
v -0.1 0.1 0
v -0.3 0.1 0
v -0.1 0.1 -0.1
v 0.1 0.1 0
v 0.1 0.1 -0.1
v 0.2 0.1 0
v 0.2 0.1 -0.1
v 0.3 0.1 0
v 0.2 0.1 -0.1
v 0.4 0.1 0
v 0.2 0.1 0
v 0.3 0.1 -0.1
v 0.4 0.1 -0.1
v 0.4 0.1 0
v 0.4 0.1 -0.1
v 0.5 0.1 0
v 0.5 0.1 -0.1
v -0.4 0.1 -0.1
v -0.4 0.1 -0.2
v -0.3 0.1 -0.1
v -0.3 0.1 -0.2
v -0.1 0.1 -0.1
v -0.1 0.1 -0.2
v 0.1 0.1 -0.1
v 0.1 0.1 -0.2
v 0.1 0.1 -0.1
v 0.1 0.1 -0.2
v 0.2 0.1 -0.1
v 0.2 0.1 -0.2
v 0.2 0.1 -0.1
v 0.2 0.1 -0.2
v 0.3 0.1 -0.1
v 0.3 0.1 -0.2
v 0.3 0.1 -0.1
v 0.3 0.1 -0.2
v 0.4 0.1 -0.1
v 0.4 0.1 -0.2
v 0.4 0.1 -0.1
v 0.4 0.1 -0.2
v 0.5 0.1 -0.1
v 0.5 0.1 -0.2
v -0.1 0.1 -0.2
v -0.1 0.1 -0.3
v 0.1 0.1 -0.2
v 0.2 0.1 -0.2
v 0.3 0.1 -0.2
v 0.3 0.1 -0.3
vt 0.228516 0.5
vt 0.228516 0.5
vt 0.228516 0.5
vt 0.228516 0.5
vt 0.279297 0.5
vt 0.279297 0.5
vt 0.279297 0.5
vt 0.279297 0.5
vt 0.849609 0.5
vt 0.849609 0.5
vt 0.849609 0.5
vt 0.849609 0.5
vt 0.228516 0.5
vt 0.228516 0.5
vt 0.228516 0.5
vt 0.228516 0.5
vt 0.228516 0.5
vt 0.228516 0.5
vt 0.228516 0.5
vt 0.228516 0.5
vt 0.0332031 0.5
vt 0.0332031 0.5
vt 0.0332031 0.5
vt 0.0332031 0.5
vt 0.228516 0.5
vt 0.228516 0.5
vt 0.228516 0.5
vt 0.228516 0.5
vt 0.0332031 0.5
vt 0.0332031 0.5
vt 0.0332031 0.5
vt 0.0332031 0.5
vt 0.0332031 0.5
vt 0.0332031 0.5
vt 0.0332031 0.5
vt 0.0332031 0.5
vt 0.0605469 0.5
vt 0.0605469 0.5
vt 0.0605469 0.5
vt 0.0605469 0.5
vt 0.228516 0.5
vt 0.228516 0.5
vt 0.228516 0.5
vt 0.228516 0.5
vt 0.228516 0.5
vt 0.228516 0.5
vt 0.228516 0.5
vt 0.228516 0.5
vt 0.0605469 0.5
vt 0.0605469 0.5
vt 0.0605469 0.5
vt 0.0605469 0.5
vt 0.0332031 0.5
vt 0.0332031 0.5
vt 0.0332031 0.5
vt 0.0332031 0.5
vt 0.849609 0.5
vt 0.849609 0.5
vt 0.849609 0.5
vt 0.849609 0.5
vt 0.0332031 0.5
vt 0.0332031 0.5
vt 0.0332031 0.5
vt 0.0332031 0.5
vt 0.279297 0.5
vt 0.279297 0.5
vt 0.279297 0.5
vt 0.279297 0.5
vt 0.0332031 0.5
vt 0.0332031 0.5
vt 0.0332031 0.5
vt 0.0332031 0.5
vt 0.228516 0.5
vt 0.228516 0.5
vt 0.228516 0.5
vt 0.228516 0.5
vt 0.849609 0.5
vt 0.849609 0.5
vt 0.849609 0.5
vt 0.849609 0.5
vt 0.228516 0.5
vt 0.228516 0.5
vt 0.228516 0.5
vt 0.228516 0.5
vt 0.560547 0.5
vt 0.560547 0.5
vt 0.560547 0.5
vt 0.560547 0.5
vt 0.849609 0.5
vt 0.849609 0.5
vt 0.849609 0.5
vt 0.849609 0.5
vt 0.201172 0.5
vt 0.201172 0.5
vt 0.201172 0.5
vt 0.201172 0.5
vt 0.228516 0.5
vt 0.228516 0.5
vt 0.228516 0.5
vt 0.228516 0.5
vt 0.228516 0.5
vt 0.228516 0.5
vt 0.228516 0.5
vt 0.228516 0.5
vt 0.228516 0.5
vt 0.228516 0.5
vt 0.228516 0.5
vt 0.228516 0.5
vt 0.0605469 0.5
vt 0.0605469 0.5
vt 0.0605469 0.5
vt 0.0605469 0.5
vt 0.0605469 0.5
vt 0.0332031 0.5
vt 0.0332031 0.5
vt 0.0332031 0.5
vt 0.0332031 0.5
vt 0.0332031 0.5
vt 0.0332031 0.5
vt 0.0332031 0.5
vt 0.0332031 0.5
vt 0.0332031 0.5
vt 0.0332031 0.5
vt 0.849609 0.5
vt 0.849609 0.5
vt 0.849609 0.5
vt 0.849609 0.5
vt 0.560547 0.5
vt 0.560547 0.5
vt 0.560547 0.5
vt 0.560547 0.5
vt 0.419922 0.5
vt 0.419922 0.5
vt 0.419922 0.5
vt 0.419922 0.5
vt 0.279297 0.5
vt 0.279297 0.5
vt 0.279297 0.5
vt 0.279297 0.5
vt 0.279297 0.5
vt 0.279297 0.5
vt 0.279297 0.5
vt 0.279297 0.5
vt 0.279297 0.5
vt 0.419922 0.5
vt 0.419922 0.5
vt 0.419922 0.5
vt 0.419922 0.5
vt 0.0605469 0.5
vt 0.0605469 0.5
vt 0.0605469 0.5
vt 0.0605469 0.5
vt 0.849609 0.5
vt 0.849609 0.5
vt 0.849609 0.5
vt 0.849609 0.5
vt 0.849609 0.5
vt 0.849609 0.5
vt 0.849609 0.5
vt 0.849609 0.5
vt 0.849609 0.5
vt 0.849609 0.5
vt 0.849609 0.5
vt 0.849609 0.5
vt 0.849609 0.5
vt 0.849609 0.5
vt 0.849609 0.5
vt 0.849609 0.5
vt 0.419922 0.5
vt 0.419922 0.5
vt 0.419922 0.5
vt 0.419922 0.5
vt 0.228516 0.5
vt 0.228516 0.5
vt 0.228516 0.5
vt 0.228516 0.5
vt 0.228516 0.5
vt 0.0332031 0.5
vt 0.0332031 0.5
vt 0.0332031 0.5
vt 0.0332031 0.5
vt 0.0332031 0.5
vt 0.0332031 0.5
vt 0.0332031 0.5
vt 0.0332031 0.5
vt 0.0332031 0.5
vt 0.279297 0.5
vt 0.279297 0.5
vt 0.279297 0.5
vt 0.279297 0.5
vt 0.279297 0.5
vt 0.279297 0.5
vt 0.0605469 0.5
vt 0.0605469 0.5
vt 0.0605469 0.5
vt 0.0605469 0.5
vt 0.560547 0.5
vt 0.560547 0.5
vt 0.560547 0.5
vt 0.560547 0.5
vt 0.419922 0.5
vt 0.419922 0.5
vt 0.419922 0.5
vt 0.419922 0.5
vt 0.560547 0.5
vt 0.560547 0.5
vt 0.560547 0.5
vt 0.560547 0.5
vt 0.0605469 0.5
vt 0.0605469 0.5
vt 0.0605469 0.5
vt 0.0605469 0.5
vt 0.201172 0.5
vt 0.201172 0.5
vt 0.201172 0.5
vt 0.201172 0.5
vt 0.228516 0.5
vt 0.228516 0.5
vt 0.228516 0.5
vt 0.228516 0.5
vt 0.228516 0.5
vt 0.228516 0.5
vt 0.228516 0.5
vt 0.228516 0.5
vt 0.228516 0.5
vt 0.228516 0.5
vt 0.228516 0.5
vt 0.228516 0.5
vt 0.228516 0.5
vt 0.228516 0.5
vt 0.0605469 0.5
vt 0.0605469 0.5
vt 0.0605469 0.5
vt 0.0605469 0.5
vt 0.0605469 0.5
vt 0.0332031 0.5
vt 0.0332031 0.5
vt 0.0332031 0.5
vt 0.0332031 0.5
vt 0.0332031 0.5
vt 0.0332031 0.5
vt 0.0332031 0.5
vt 0.0332031 0.5
vt 0.0332031 0.5
vt 0.0332031 0.5
vt 0.849609 0.5
vt 0.849609 0.5
vt 0.849609 0.5
vt 0.849609 0.5
vt 0.560547 0.5
vt 0.560547 0.5
vt 0.560547 0.5
vt 0.560547 0.5
vt 0.419922 0.5
vt 0.419922 0.5
vt 0.419922 0.5
vt 0.419922 0.5
vt 0.279297 0.5
vt 0.279297 0.5
vt 0.279297 0.5
vt 0.279297 0.5
vt 0.279297 0.5
vt 0.279297 0.5
vt 0.279297 0.5
vt 0.279297 0.5
vt 0.279297 0.5
vt 0.419922 0.5
vt 0.419922 0.5
vt 0.419922 0.5
vt 0.419922 0.5
vt 0.0605469 0.5
vt 0.0605469 0.5
vt 0.0605469 0.5
vt 0.0605469 0.5
vt 0.849609 0.5
vt 0.849609 0.5
vt 0.849609 0.5
vt 0.849609 0.5
vt 0.849609 0.5
vt 0.849609 0.5
vt 0.849609 0.5
vt 0.849609 0.5
vt 0.849609 0.5
vt 0.849609 0.5
vt 0.849609 0.5
vt 0.849609 0.5
vt 0.849609 0.5
vt 0.849609 0.5
vt 0.849609 0.5
vt 0.849609 0.5
vt 0.419922 0.5
vt 0.419922 0.5
vt 0.419922 0.5
vt 0.419922 0.5
vt 0.228516 0.5
vt 0.228516 0.5
vt 0.228516 0.5
vt 0.228516 0.5
vt 0.228516 0.5
vt 0.0332031 0.5
vt 0.0332031 0.5
vt 0.0332031 0.5
vt 0.0332031 0.5
vt 0.0332031 0.5
vt 0.0332031 0.5
vt 0.0332031 0.5
vt 0.0332031 0.5
vt 0.0332031 0.5
vt 0.279297 0.5
vt 0.279297 0.5
vt 0.279297 0.5
vt 0.279297 0.5
vt 0.279297 0.5
vt 0.279297 0.5
vt 0.0605469 0.5
vt 0.0605469 0.5
vt 0.0605469 0.5
vt 0.0605469 0.5
vt 0.560547 0.5
vt 0.560547 0.5
vt 0.560547 0.5
vt 0.560547 0.5
vt 0.419922 0.5
vt 0.419922 0.5
vt 0.419922 0.5
vt 0.419922 0.5
vt 0.560547 0.5
vt 0.560547 0.5
vt 0.560547 0.5
vt 0.560547 0.5
vt 0.0605469 0.5
vt 0.0605469 0.5
vt 0.0605469 0.5
vt 0.0605469 0.5
vt 0.201172 0.5
vt 0.201172 0.5
vt 0.201172 0.5
vt 0.201172 0.5
vt 0.228516 0.5
vt 0.228516 0.5
vt 0.228516 0.5
vt 0.228516 0.5
vt 0.228516 0.5
vt 0.228516 0.5
vt 0.228516 0.5
vt 0.228516 0.5
vt 0.228516 0.5
vt 0.228516 0.5
vn -1 0 0
vn -1 0 0
vn -1 0 0
vn -1 0 0
vn -1 0 0
vn -1 0 0
vn -1 0 0
vn -1 0 0
vn -1 0 0
vn -1 0 0
vn -1 0 0
vn -1 0 0
vn -1 0 0
vn -1 0 0
vn -1 0 0
vn -1 0 0
vn -1 0 0
vn -1 0 0
vn -1 0 0
vn -1 0 0
vn 1 0 0
vn 1 0 0
vn 1 0 0
vn 1 0 0
vn 1 0 0
vn 1 0 0
vn 1 0 0
vn 1 0 0
vn 1 0 0
vn 1 0 0
vn 1 0 0
vn 1 0 0
vn 1 0 0
vn 1 0 0
vn 1 0 0
vn 1 0 0
vn 1 0 0
vn 1 0 0
vn 1 0 0
vn 1 0 0
vn 1 0 0
vn 1 0 0
vn 1 0 0
vn 1 0 0
vn 0 0 1
vn 0 0 1
vn 0 0 1
vn 0 0 1
vn 0 0 1
vn 0 0 1
vn 0 0 1
vn 0 0 1
vn 0 0 1
vn 0 0 1
vn 0 0 1
vn 0 0 1
vn 0 0 1
vn 0 0 1
vn 0 0 1
vn 0 0 1
vn 0 0 1
vn 0 0 1
vn 0 0 1
vn 0 0 1
vn 0 0 1
vn 0 0 1
vn 0 0 1
vn 0 0 1
vn 0 0 1
vn 0 0 1
vn 0 0 1
vn 0 0 1
vn 0 0 1
vn 0 0 1
vn 0 0 1
vn 0 0 1
vn 0 0 1
vn 0 0 1
vn 0 0 1
vn 0 0 1
vn 0 0 -1
vn 0 0 -1
vn 0 0 -1
vn 0 0 -1
vn 0 0 -1
vn 0 0 -1
vn 0 0 -1
vn 0 0 -1
vn 0 0 -1
vn 0 0 -1
vn 0 0 -1
vn 0 0 -1
vn 0 0 -1
vn 0 0 -1
vn 0 0 -1
vn 0 0 -1
vn 0 0 -1
vn 0 0 -1
vn 0 0 -1
vn 0 0 -1
vn 0 0 -1
vn 0 0 -1
vn 0 0 -1
vn 0 0 -1
vn 0 -1 0
vn 0 -1 0
vn 0 -1 0
vn 0 -1 0
vn 0 -1 0
vn 0 -1 0
vn 0 -1 0
vn 0 -1 0
vn 0 -1 0
vn 0 -1 0
vn 0 -1 0
vn 0 -1 0
vn 0 -1 0
vn 0 -1 0
vn 0 -1 0
vn 0 -1 0
vn 0 -1 0
vn 0 -1 0
vn 0 -1 0
vn 0 -1 0
vn 0 -1 0
vn 0 -1 0
vn 0 -1 0
vn 0 -1 0
vn 0 -1 0
vn 0 -1 0
vn 0 -1 0
vn 0 -1 0
vn 0 -1 0
vn 0 -1 0
vn 0 -1 0
vn 0 -1 0
vn 0 -1 0
vn 0 -1 0
vn 0 -1 0
vn 0 -1 0
vn 0 -1 0
vn 0 -1 0
vn 0 -1 0
vn 0 -1 0
vn 0 -1 0
vn 0 -1 0
vn 0 -1 0
vn 0 -1 0
vn 0 -1 0
vn 0 -1 0
vn 0 -1 0
vn 0 -1 0
vn 0 -1 0
vn 0 -1 0
vn 0 -1 0
vn 0 -1 0
vn 0 -1 0
vn 0 -1 0
vn 0 -1 0
vn 0 -1 0
vn 0 -1 0
vn 0 -1 0
vn 0 -1 0
vn 0 -1 0
vn 0 -1 0
vn 0 -1 0
vn 0 -1 0
vn 0 -1 0
vn 0 -1 0
vn 0 -1 0
vn 0 -1 0
vn 0 -1 0
vn 0 -1 0
vn 0 -1 0
vn 0 -1 0
vn 0 -1 0
vn 0 -1 0
vn 0 -1 0
vn 0 -1 0
vn 0 -1 0
vn 0 -1 0
vn 0 -1 0
vn 0 -1 0
vn 0 -1 0
vn 0 -1 0
vn 0 -1 0
vn 0 -1 0
vn 0 -1 0
vn 0 -1 0
vn 0 -1 0
vn 0 -1 0
vn 0 -1 0
vn 0 -1 0
vn 0 -1 0
vn 0 -1 0
vn 0 -1 0
vn 0 -1 0
vn 0 -1 0
vn 0 -1 0
vn 0 -1 0
vn 0 -1 0
vn 0 -1 0
vn 0 -1 0
vn 0 -1 0
vn 0 -1 0
vn 0 -1 0
vn 0 -1 0
vn 0 -1 0
vn 0 -1 0
vn 0 -1 0
vn 0 -1 0
vn 0 -1 0
vn 0 -1 0
vn 0 -1 0
vn 0 -1 0
vn 0 -1 0
vn 0 -1 0
vn 0 -1 0
vn 0 -1 0
vn 0 -1 0
vn 0 -1 0
vn 0 -1 0
vn 0 -1 0
vn 0 -1 0
vn 0 -1 0
vn 0 -1 0
vn 0 1 0
vn 0 1 0
vn 0 1 0
vn 0 1 0
vn 0 1 0
vn 0 1 0
vn 0 1 0
vn 0 1 0
vn 0 1 0
vn 0 1 0
vn 0 1 0
vn 0 1 0
vn 0 1 0
vn 0 1 0
vn 0 1 0
vn 0 1 0
vn 0 1 0
vn 0 1 0
vn 0 1 0
vn 0 1 0
vn 0 1 0
vn 0 1 0
vn 0 1 0
vn 0 1 0
vn 0 1 0
vn 0 1 0
vn 0 1 0
vn 0 1 0
vn 0 1 0
vn 0 1 0
vn 0 1 0
vn 0 1 0
vn 0 1 0
vn 0 1 0
vn 0 1 0
vn 0 1 0
vn 0 1 0
vn 0 1 0
vn 0 1 0
vn 0 1 0
vn 0 1 0
vn 0 1 0
vn 0 1 0
vn 0 1 0
vn 0 1 0
vn 0 1 0
vn 0 1 0
vn 0 1 0
vn 0 1 0
vn 0 1 0
vn 0 1 0
vn 0 1 0
vn 0 1 0
vn 0 1 0
vn 0 1 0
vn 0 1 0
vn 0 1 0
vn 0 1 0
vn 0 1 0
vn 0 1 0
vn 0 1 0
vn 0 1 0
vn 0 1 0
vn 0 1 0
vn 0 1 0
vn 0 1 0
vn 0 1 0
vn 0 1 0
vn 0 1 0
vn 0 1 0
vn 0 1 0
vn 0 1 0
vn 0 1 0
vn 0 1 0
vn 0 1 0
vn 0 1 0
vn 0 1 0
vn 0 1 0
vn 0 1 0
vn 0 1 0
vn 0 1 0
vn 0 1 0
vn 0 1 0
vn 0 1 0
vn 0 1 0
vn 0 1 0
vn 0 1 0
vn 0 1 0
vn 0 1 0
vn 0 1 0
vn 0 1 0
vn 0 1 0
vn 0 1 0
vn 0 1 0
vn 0 1 0
vn 0 1 0
vn 0 1 0
vn 0 1 0
vn 0 1 0
vn 0 1 0
vn 0 1 0
vn 0 1 0
vn 0 1 0
vn 0 1 0
vn 0 1 0
vn 0 1 0
vn 0 1 0
vn 0 1 0
vn 0 1 0
vn 0 1 0
vn 0 1 0
vn 0 1 0
vn 0 1 0
vn 0 1 0
vn 0 1 0
vn 0 1 0
vn 0 1 0
vn 0 1 0
vn 0 1 0
vn 0 1 0
vn 0 1 0
vn 0 1 0
g default_0
f 3/3/3 2/2/2 1/1/1
f 3/3/3 1/1/1 4/4/4
f 7/7/7 6/6/6 5/5/5
f 7/7/7 5/5/5 8/8/8
f 11/11/11 10/10/10 9/9/9
f 11/11/11 9/9/9 12/12/12
f 15/15/15 14/14/14 13/13/13
f 15/15/15 13/13/13 16/16/16
f 19/19/19 18/18/18 17/17/17
f 19/19/19 17/17/17 20/20/20
f 23/23/23 22/22/22 21/21/21
f 23/23/23 24/24/24 22/22/22
f 27/27/27 26/26/26 25/25/25
f 27/27/27 28/28/28 26/26/26
f 31/31/31 30/30/30 29/29/29
f 31/31/31 32/32/32 30/30/30
f 35/35/35 34/34/34 33/33/33
f 35/35/35 36/36/36 34/34/34
f 39/39/39 38/38/38 37/37/37
f 39/39/39 40/40/40 38/38/38
f 43/43/43 42/42/42 41/41/41
f 43/43/43 44/44/44 42/42/42
f 47/47/47 46/46/46 45/45/45
f 47/47/47 45/45/45 48/48/48
f 51/51/51 50/50/50 49/49/49
f 51/51/51 49/49/49 52/52/52
f 55/55/55 54/54/54 53/53/53
f 55/55/55 53/53/53 56/56/56
f 59/59/59 58/58/58 57/57/57
f 59/59/59 57/57/57 60/60/60
f 63/63/63 62/62/62 61/61/61
f 63/63/63 61/61/61 64/64/64
f 67/67/67 66/66/66 65/65/65
f 67/67/67 65/65/65 68/68/68
f 71/71/71 70/70/70 69/69/69
f 71/71/71 69/69/69 72/72/72
f 75/75/75 74/74/74 73/73/73
f 75/75/75 73/73/73 76/76/76
f 79/79/79 78/78/78 77/77/77
f 79/79/79 77/77/77 80/80/80
f 83/83/83 82/82/82 81/81/81
f 83/83/83 84/84/84 82/82/82
f 87/87/87 86/86/86 85/85/85
f 87/87/87 88/88/88 86/86/86
f 91/91/91 90/90/90 89/89/89
f 91/91/91 92/92/92 90/90/90
f 95/95/95 94/94/94 93/93/93
f 95/95/95 96/96/96 94/94/94
f 99/99/99 98/98/98 97/97/97
f 99/99/99 100/100/100 98/98/98
f 103/103/103 102/102/102 101/101/101
f 103/103/103 104/104/104 102/102/102
f 107/107/107 106/106/106 105/105/105
f 107/107/107 105/105/105 108/108/108
f 111/111/111 110/110/110 109/109/109
f 111/111/111 109/109/109 112/112/112
f 111/111/111 112/112/112 113/113/113
f 116/116/116 115/115/115 114/114/114
f 116/116/116 114/114/114 117/117/117
f 119/119/119 117/117/117 118/118/118
f 119/119/119 118/118/118 120/120/120
f 122/122/122 120/120/120 121/121/121
f 122/122/122 121/121/121 123/123/123
f 126/126/126 125/125/125 124/124/124
f 126/126/126 124/124/124 127/127/127
f 130/130/130 129/129/129 128/128/128
f 130/130/130 128/128/128 131/131/131
f 134/134/134 133/133/133 132/132/132
f 134/134/134 132/132/132 135/135/135
f 138/138/138 137/137/137 136/136/136
f 139/139/139 138/138/138 136/136/136
f 139/139/139 136/136/136 140/140/140
f 143/143/143 142/142/142 141/141/141
f 143/143/143 141/141/141 144/144/144
f 147/147/147 146/146/146 145/145/145
f 147/147/147 145/145/145 148/148/148
f 151/151/151 150/150/150 149/149/149
f 151/151/151 149/149/149 152/152/152
f 155/155/155 154/154/154 153/153/153
f 156/156/156 155/155/155 153/153/153
f 156/156/156 153/153/153 157/157/157
f 156/156/156 157/157/157 158/158/158
f 156/156/156 158/158/158 159/159/159
f 157/157/157 153/153/153 160/160/160
f 153/153/153 161/161/161 160/160/160
f 157/157/157 160/160/160 162/162/162
f 160/160/160 164/164/164 163/163/163
f 160/160/160 163/163/163 165/165/165
f 167/167/167 166/166/166 164/164/164
f 167/167/167 168/168/168 166/166/166
f 171/171/171 170/170/170 169/169/169
f 171/171/171 169/169/169 172/172/172
f 175/175/175 174/174/174 173/173/173
f 173/173/173 174/174/174 176/176/176
f 173/173/173 176/176/176 177/177/177
f 180/180/180 179/179/179 178/178/178
f 179/179/179 181/181/181 178/178/178
f 180/180/180 178/178/178 182/182/182
f 185/185/185 184/184/184 183/183/183
f 185/185/185 183/183/183 186/186/186
f 189/189/189 188/188/188 187/187/187
f 188/188/188 190/190/190 187/187/187
f 189/189/189 187/187/187 191/191/191
f 189/189/189 191/191/191 192/192/192
f 195/195/195 194/194/194 193/193/193
f 195/195/195 193/193/193 196/196/196
f 199/199/199 198/198/198 197/197/197
f 199/199/199 197/197/197 200/200/200
f 203/203/203 202/202/202 201/201/201
f 203/203/203 201/201/201 204/204/204
f 207/207/207 206/206/206 205/205/205
f 207/207/207 205/205/205 208/208/208
f 211/211/211 210/210/210 209/209/209
f 211/211/211 209/209/209 212/212/212
f 215/215/215 214/214/214 213/213/213
f 215/215/215 213/213/213 216/216/216
f 219/219/219 218/218/218 217/217/217
f 219/219/219 217/217/217 220/220/220
f 223/223/223 222/222/222 221/221/221
f 224/224/224 223/223/223 221/221/221
f 225/225/225 224/224/224 221/221/221
f 225/225/225 221/221/221 226/226/226
f 229/229/229 228/228/228 227/227/227
f 229/229/229 230/230/230 228/228/228
f 233/233/233 232/232/232 231/231/231
f 233/233/233 234/234/234 232/232/232
f 233/233/233 235/235/235 234/234/234
f 238/238/238 237/237/237 236/236/236
f 238/238/238 239/239/239 237/237/237
f 241/241/241 240/240/240 239/239/239
f 241/241/241 242/242/242 240/240/240
f 244/244/244 243/243/243 242/242/242
f 244/244/244 245/245/245 243/243/243
f 248/248/248 247/247/247 246/246/246
f 248/248/248 249/249/249 247/247/247
f 252/252/252 251/251/251 250/250/250
f 252/252/252 253/253/253 251/251/251
f 256/256/256 255/255/255 254/254/254
f 256/256/256 257/257/257 255/255/255
f 260/260/260 259/259/259 258/258/258
f 261/261/261 259/259/259 260/260/260
f 261/261/261 262/262/262 259/259/259
f 265/265/265 264/264/264 263/263/263
f 265/265/265 266/266/266 264/264/264
f 269/269/269 268/268/268 267/267/267
f 269/269/269 270/270/270 268/268/268
f 273/273/273 272/272/272 271/271/271
f 273/273/273 274/274/274 272/272/272
f 277/277/277 276/276/276 275/275/275
f 278/278/278 276/276/276 277/277/277
f 278/278/278 279/279/279 276/276/276
f 278/278/278 280/280/280 279/279/279
f 278/278/278 281/281/281 280/280/280
f 279/279/279 282/282/282 276/276/276
f 276/276/276 282/282/282 283/283/283
f 279/279/279 284/284/284 282/282/282
f 282/282/282 286/286/286 285/285/285
f 282/282/282 287/287/287 286/286/286
f 289/289/289 285/285/285 288/288/288
f 289/289/289 288/288/288 290/290/290
f 293/293/293 292/292/292 291/291/291
f 293/293/293 294/294/294 292/292/292
f 297/297/297 296/296/296 295/295/295
f 296/296/296 298/298/298 295/295/295
f 296/296/296 299/299/299 298/298/298
f 302/302/302 301/301/301 300/300/300
f 300/300/300 301/301/301 303/303/303
f 302/302/302 304/304/304 301/301/301
f 307/307/307 306/306/306 305/305/305
f 307/307/307 308/308/308 306/306/306
f 311/311/311 310/310/310 309/309/309
f 309/309/309 310/310/310 312/312/312
f 311/311/311 313/313/313 310/310/310
f 311/311/311 314/314/314 313/313/313
f 317/317/317 316/316/316 315/315/315
f 317/317/317 318/318/318 316/316/316
f 321/321/321 320/320/320 319/319/319
f 321/321/321 322/322/322 320/320/320
f 325/325/325 324/324/324 323/323/323
f 325/325/325 326/326/326 324/324/324
f 329/329/329 328/328/328 327/327/327
f 329/329/329 330/330/330 328/328/328
f 333/333/333 332/332/332 331/331/331
f 333/333/333 334/334/334 332/332/332
f 337/337/337 336/336/336 335/335/335
f 337/337/337 338/338/338 336/336/336
f 341/341/341 340/340/340 339/339/339
f 341/341/341 342/342/342 340/340/340
f 345/345/345 344/344/344 343/343/343
f 346/346/346 344/344/344 345/345/345
f 347/347/347 344/344/344 346/346/346
f 347/347/347 348/348/348 344/344/344
