g default
v -0.45 0.7 0.35
v -0.45 0.4 0.35
v -0.45 0.4 -0.15
v -0.45 0.7 -0.15
v -0.35 0.4 0.35
v -0.35 0 0.35
v -0.35 0 -0.35
v -0.35 0.4 -0.15
v -0.35 0.5 -0.15
v -0.35 0.5 -0.35
v -0.25 0.7 -0.15
v -0.25 0.5 -0.15
v -0.25 0.5 -0.25
v -0.25 1.3 -0.25
v -0.25 1.3 0.05
v -0.25 0.7 0.05
v -0.15 1.3 0.15
v -0.15 0.7 0.15
v -0.15 0.7 0.05
v -0.15 1.3 0.05
v -0.15 1.3 -0.25
v -0.15 0.5 -0.25
v -0.15 0.5 -0.35
v -0.15 1.3 -0.35
v -0.05 0.5 0.35
v -0.05 0.3 0.35
v -0.05 0.3 0.25
v -0.05 0.5 0.25
v -0.05 0.8 0.25
v -0.05 0.7 0.25
v -0.05 0.7 0.15
v -0.05 0.8 0.15
v -0.05 1.4 0.05
v -0.05 1.3 0.05
v -0.05 1.3 -0.25
v -0.05 1.4 -0.25
v 0.05 0.4 -0.25
v 0.05 0.2 -0.25
v 0.05 0.2 -0.35
v 0.05 0.4 -0.35
v 0.05 0.9 0.25
v 0.05 0.8 0.25
v 0.05 0.8 0.15
v 0.05 0.9 0.15
v -0.15 0.2 -0.25
v -0.15 0.3 -0.25
v -0.15 0.2 -0.35
v -0.15 0.3 -0.35
v -0.15 0.3 0.35
v -0.15 0.5 0.35
v -0.15 0.3 0.25
v -0.15 0.5 0.25
v -0.05 0.3 -0.25
v -0.05 0.4 -0.25
v -0.05 0.3 -0.35
v -0.05 0.4 -0.35
v -0.05 0.6 0.35
v -0.05 0.7 0.35
v -0.05 0.6 0.25
v -0.05 0.7 0.25
v 0.15 0.6 0.25
v 0.15 0.9 0.25
v 0.15 0.6 0.15
v 0.15 0.9 0.15
v 0.25 1.3 0.05
v 0.25 1.4 0.05
v 0.25 1.3 -0.25
v 0.25 1.4 -0.25
v 0.35 0 0.35
v 0.35 0.1 0.25
v 0.35 0 -0.35
v 0.35 0.1 -0.25
v 0.35 0.5 0.25
v 0.35 0.5 -0.25
v 0.35 0.6 0.35
v 0.35 0.5 -0.05
v 0.35 0.6 0.15
v 0.35 0.7 0.05
v 0.35 0.7 -0.05
v 0.35 0.7 -0.25
v 0.35 0.7 -0.15
v 0.35 0.5 -0.15
v 0.35 1.3 0.15
v 0.35 1.3 0.05
v 0.35 1.3 -0.25
v 0.35 1.3 -0.35
v 0.45 0.1 0.25
v 0.45 0.5 0.25
v 0.45 0.1 -0.25
v 0.45 0.5 -0.05
v 0.45 0.5 -0.15
v 0.45 0.5 -0.25
v 0.45 0.7 -0.05
v 0.45 0.7 -0.15
v 0.45 1.3 0.05
v 0.45 0.7 0.05
v 0.45 0.7 -0.25
v 0.45 1.3 -0.25
v -0.35 0.4 0.35
v -0.45 0.4 0.35
v -0.45 0.7 0.35
v -0.15 0.5 0.35
v -0.15 0.3 0.35
v -0.35 0 0.35
v -0.05 0.3 0.35
v -0.05 0.5 0.35
v -0.05 0.6 0.35
v -0.05 0.7 0.35
v 0.35 0 0.35
v 0.35 0.6 0.35
v -0.05 0.3 0.25
v -0.15 0.3 0.25
v -0.15 0.5 0.25
v -0.05 0.5 0.25
v 0.05 0.8 0.25
v -0.05 0.7 0.25
v -0.05 0.8 0.25
v -0.05 0.6 0.25
v 0.15 0.6 0.25
v 0.05 0.9 0.25
v 0.15 0.9 0.25
v 0.45 0.1 0.25
v 0.35 0.1 0.25
v 0.35 0.5 0.25
v 0.45 0.5 0.25
v -0.05 0.7 0.15
v -0.15 0.7 0.15
v -0.15 1.3 0.15
v -0.05 0.8 0.15
v 0.05 0.8 0.15
v 0.05 0.9 0.15
v 0.15 0.9 0.15
v 0.35 1.3 0.15
v 0.35 0.6 0.15
v 0.15 0.6 0.15
v -0.15 0.7 0.05
v -0.25 0.7 0.05
v -0.25 1.3 0.05
v -0.15 1.3 0.05
v 0.25 1.3 0.05
v -0.05 1.3 0.05
v -0.05 1.4 0.05
v 0.25 1.4 0.05
v 0.45 0.7 0.05
v 0.35 0.7 0.05
v 0.35 1.3 0.05
v 0.45 1.3 0.05
v 0.45 0.5 -0.05
v 0.35 0.5 -0.05
v 0.35 0.7 -0.05
v 0.45 0.7 -0.05
v -0.45 0.4 -0.15
v -0.35 0.4 -0.15
v -0.45 0.7 -0.15
v -0.35 0.5 -0.15
v -0.25 0.5 -0.15
v -0.25 0.7 -0.15
v 0.35 0.5 -0.15
v 0.45 0.5 -0.15
v 0.35 0.7 -0.15
v 0.45 0.7 -0.15
v -0.25 0.5 -0.25
v -0.15 0.5 -0.25
v -0.25 1.3 -0.25
v -0.15 1.3 -0.25
v -0.15 0.2 -0.25
v -0.05 0.3 -0.25
v -0.15 0.3 -0.25
v 0.05 0.2 -0.25
v -0.05 0.4 -0.25
v 0.05 0.4 -0.25
v -0.05 1.3 -0.25
v 0.25 1.3 -0.25
v -0.05 1.4 -0.25
v 0.25 1.4 -0.25
v 0.35 0.1 -0.25
v 0.45 0.1 -0.25
v 0.35 0.5 -0.25
v 0.45 0.5 -0.25
v 0.35 0.7 -0.25
v 0.45 0.7 -0.25
v 0.35 1.3 -0.25
v 0.45 1.3 -0.25
v -0.35 0 -0.35
v -0.15 0.2 -0.35
v -0.35 0.5 -0.35
v -0.15 0.3 -0.35
v -0.15 0.5 -0.35
v -0.05 0.3 -0.35
v -0.15 1.3 -0.35
v -0.05 0.4 -0.35
v 0.05 0.2 -0.35
v 0.05 0.4 -0.35
v 0.35 0 -0.35
v 0.35 1.3 -0.35
v -0.35 0 -0.35
v -0.35 0 0.35
v 0.35 0 0.35
v 0.35 0 -0.35
v 0.35 0.1 -0.25
v 0.35 0.1 0.25
v 0.45 0.1 0.25
v 0.45 0.1 -0.25
v -0.15 0.3 -0.35
v -0.15 0.3 -0.25
v -0.05 0.3 -0.25
v -0.05 0.3 -0.35
v -0.45 0.4 -0.15
v -0.45 0.4 0.35
v -0.35 0.4 0.35
v -0.35 0.4 -0.15
v -0.05 0.4 -0.35
v -0.05 0.4 -0.25
v 0.05 0.4 -0.25
v 0.05 0.4 -0.35
v -0.15 0.5 0.25
v -0.15 0.5 0.35
v -0.05 0.5 0.35
v -0.05 0.5 0.25
v 0.35 0.7 -0.05
v 0.35 0.7 0.05
v 0.45 0.7 0.05
v 0.45 0.7 -0.05
v 0.35 0.7 -0.25
v 0.35 0.7 -0.15
v 0.45 0.7 -0.15
v 0.45 0.7 -0.25
v -0.15 0.2 -0.25
v -0.15 0.2 -0.35
v 0.05 0.2 -0.25
v 0.05 0.2 -0.35
v -0.15 0.3 0.35
v -0.15 0.3 0.25
v -0.05 0.3 0.35
v -0.05 0.3 0.25
v 0.35 0.5 0.25
v 0.35 0.5 -0.05
v 0.45 0.5 0.25
v 0.45 0.5 -0.05
v -0.35 0.5 -0.15
v -0.25 0.5 -0.25
v -0.25 0.5 -0.15
v -0.35 0.5 -0.35
v -0.15 0.5 -0.25
v -0.15 0.5 -0.35
v 0.35 0.5 -0.15
v 0.35 0.5 -0.25
v 0.45 0.5 -0.15
v 0.45 0.5 -0.25
v -0.05 0.6 0.35
v -0.05 0.6 0.25
v 0.35 0.6 0.35
v 0.15 0.6 0.25
v 0.15 0.6 0.15
v 0.35 0.6 0.15
v -0.45 0.7 0.35
v -0.05 0.7 0.25
v -0.05 0.7 0.35
v -0.15 0.7 0.15
v -0.05 0.7 0.15
v -0.25 0.7 0.05
v -0.15 0.7 0.05
v -0.45 0.7 -0.15
v -0.25 0.7 -0.15
v -0.05 0.8 0.25
v -0.05 0.8 0.15
v 0.05 0.8 0.25
v 0.05 0.8 0.15
v 0.05 0.9 0.25
v 0.05 0.9 0.15
v 0.15 0.9 0.25
v 0.15 0.9 0.15
v -0.15 1.3 0.15
v -0.15 1.3 0.05
v 0.35 1.3 0.15
v -0.05 1.3 0.05
v 0.25 1.3 0.05
v 0.35 1.3 0.05
v -0.25 1.3 -0.25
v -0.25 1.3 0.05
v -0.15 1.3 -0.25
v -0.05 1.3 -0.25
v 0.25 1.3 -0.25
v 0.45 1.3 0.05
v 0.35 1.3 -0.25
v 0.45 1.3 -0.25
v -0.15 1.3 -0.35
v 0.35 1.3 -0.35
v -0.05 1.4 0.05
v -0.05 1.4 -0.25
v 0.25 1.4 0.05
v 0.25 1.4 -0.25
vt 0.990234 0.5
vt 0.990234 0.5
vt 0.990234 0.5
vt 0.990234 0.5
vt 0.990234 0.5
vt 0.990234 0.5
vt 0.990234 0.5
vt 0.990234 0.5
vt 0.990234 0.5
vt 0.990234 0.5
vt 0.990234 0.5
vt 0.990234 0.5
vt 0.990234 0.5
vt 0.990234 0.5
vt 0.990234 0.5
vt 0.990234 0.5
vt 0.990234 0.5
vt 0.990234 0.5
vt 0.990234 0.5
vt 0.990234 0.5
vt 0.990234 0.5
vt 0.990234 0.5
vt 0.990234 0.5
vt 0.990234 0.5
vt 0.990234 0.5
vt 0.990234 0.5
vt 0.990234 0.5
vt 0.990234 0.5
vt 0.990234 0.5
vt 0.990234 0.5
vt 0.990234 0.5
vt 0.990234 0.5
vt 0.990234 0.5
vt 0.990234 0.5
vt 0.990234 0.5
vt 0.990234 0.5
vt 0.990234 0.5
vt 0.990234 0.5
vt 0.990234 0.5
vt 0.990234 0.5
vt 0.990234 0.5
vt 0.990234 0.5
vt 0.990234 0.5
vt 0.990234 0.5
vt 0.990234 0.5
vt 0.990234 0.5
vt 0.990234 0.5
vt 0.990234 0.5
vt 0.990234 0.5
vt 0.990234 0.5
vt 0.990234 0.5
vt 0.990234 0.5
vt 0.990234 0.5
vt 0.990234 0.5
vt 0.990234 0.5
vt 0.990234 0.5
vt 0.990234 0.5
vt 0.990234 0.5
vt 0.990234 0.5
vt 0.990234 0.5
vt 0.990234 0.5
vt 0.990234 0.5
vt 0.990234 0.5
vt 0.990234 0.5
vt 0.990234 0.5
vt 0.990234 0.5
vt 0.990234 0.5
vt 0.990234 0.5
vt 0.990234 0.5
vt 0.990234 0.5
vt 0.990234 0.5
vt 0.990234 0.5
vt 0.990234 0.5
vt 0.990234 0.5
vt 0.990234 0.5
vt 0.990234 0.5
vt 0.990234 0.5
vt 0.990234 0.5
vt 0.990234 0.5
vt 0.990234 0.5
vt 0.990234 0.5
vt 0.990234 0.5
vt 0.990234 0.5
vt 0.990234 0.5
vt 0.990234 0.5
vt 0.990234 0.5
vt 0.990234 0.5
vt 0.990234 0.5
vt 0.990234 0.5
vt 0.990234 0.5
vt 0.990234 0.5
vt 0.990234 0.5
vt 0.990234 0.5
vt 0.990234 0.5
vt 0.990234 0.5
vt 0.990234 0.5
vt 0.990234 0.5
vt 0.990234 0.5
vt 0.990234 0.5
vt 0.990234 0.5
vt 0.990234 0.5
vt 0.990234 0.5
vt 0.990234 0.5
vt 0.990234 0.5
vt 0.990234 0.5
vt 0.990234 0.5
vt 0.990234 0.5
vt 0.990234 0.5
vt 0.990234 0.5
vt 0.990234 0.5
vt 0.990234 0.5
vt 0.990234 0.5
vt 0.990234 0.5
vt 0.990234 0.5
vt 0.990234 0.5
vt 0.990234 0.5
vt 0.990234 0.5
vt 0.990234 0.5
vt 0.990234 0.5
vt 0.990234 0.5
vt 0.990234 0.5
vt 0.990234 0.5
vt 0.990234 0.5
vt 0.990234 0.5
vt 0.990234 0.5
vt 0.990234 0.5
vt 0.990234 0.5
vt 0.990234 0.5
vt 0.990234 0.5
vt 0.990234 0.5
vt 0.990234 0.5
vt 0.990234 0.5
vt 0.990234 0.5
vt 0.990234 0.5
vt 0.990234 0.5
vt 0.990234 0.5
vt 0.990234 0.5
vt 0.990234 0.5
vt 0.990234 0.5
vt 0.990234 0.5
vt 0.990234 0.5
vt 0.990234 0.5
vt 0.990234 0.5
vt 0.990234 0.5
vt 0.990234 0.5
vt 0.990234 0.5
vt 0.990234 0.5
vt 0.990234 0.5
vt 0.990234 0.5
vt 0.990234 0.5
vt 0.990234 0.5
vt 0.990234 0.5
vt 0.990234 0.5
vt 0.990234 0.5
vt 0.990234 0.5
vt 0.990234 0.5
vt 0.990234 0.5
vt 0.990234 0.5
vt 0.990234 0.5
vt 0.990234 0.5
vt 0.990234 0.5
vt 0.990234 0.5
vt 0.990234 0.5
vt 0.990234 0.5
vt 0.990234 0.5
vt 0.990234 0.5
vt 0.990234 0.5
vt 0.990234 0.5
vt 0.990234 0.5
vt 0.990234 0.5
vt 0.990234 0.5
vt 0.990234 0.5
vt 0.990234 0.5
vt 0.990234 0.5
vt 0.990234 0.5
vt 0.990234 0.5
vt 0.990234 0.5
vt 0.990234 0.5
vt 0.990234 0.5
vt 0.990234 0.5
vt 0.990234 0.5
vt 0.990234 0.5
vt 0.990234 0.5
vt 0.990234 0.5
vt 0.990234 0.5
vt 0.990234 0.5
vt 0.990234 0.5
vt 0.990234 0.5
vt 0.990234 0.5
vt 0.990234 0.5
vt 0.990234 0.5
vt 0.990234 0.5
vt 0.990234 0.5
vt 0.990234 0.5
vt 0.990234 0.5
vt 0.990234 0.5
vt 0.990234 0.5
vt 0.990234 0.5
vt 0.990234 0.5
vt 0.990234 0.5
vt 0.990234 0.5
vt 0.990234 0.5
vt 0.990234 0.5
vt 0.990234 0.5
vt 0.990234 0.5
vt 0.990234 0.5
vt 0.990234 0.5
vt 0.990234 0.5
vt 0.990234 0.5
vt 0.990234 0.5
vt 0.990234 0.5
vt 0.990234 0.5
vt 0.990234 0.5
vt 0.990234 0.5
vt 0.990234 0.5
vt 0.990234 0.5
vt 0.990234 0.5
vt 0.990234 0.5
vt 0.990234 0.5
vt 0.990234 0.5
vt 0.990234 0.5
vt 0.990234 0.5
vt 0.990234 0.5
vt 0.990234 0.5
vt 0.990234 0.5
vt 0.990234 0.5
vt 0.990234 0.5
vt 0.990234 0.5
vt 0.990234 0.5
vt 0.990234 0.5
vt 0.990234 0.5
vt 0.990234 0.5
vt 0.990234 0.5
vt 0.990234 0.5
vt 0.990234 0.5
vt 0.990234 0.5
vt 0.990234 0.5
vt 0.990234 0.5
vt 0.990234 0.5
vt 0.990234 0.5
vt 0.990234 0.5
vt 0.990234 0.5
vt 0.990234 0.5
vt 0.990234 0.5
vt 0.990234 0.5
vt 0.990234 0.5
vt 0.990234 0.5
vt 0.990234 0.5
vt 0.990234 0.5
vt 0.990234 0.5
vt 0.990234 0.5
vt 0.990234 0.5
vt 0.990234 0.5
vt 0.990234 0.5
vt 0.990234 0.5
vt 0.990234 0.5
vt 0.990234 0.5
vt 0.990234 0.5
vt 0.990234 0.5
vt 0.990234 0.5
vt 0.990234 0.5
vt 0.990234 0.5
vt 0.990234 0.5
vt 0.990234 0.5
vt 0.990234 0.5
vt 0.990234 0.5
vt 0.990234 0.5
vt 0.990234 0.5
vt 0.990234 0.5
vt 0.990234 0.5
vt 0.990234 0.5
vt 0.990234 0.5
vt 0.990234 0.5
vt 0.990234 0.5
vt 0.990234 0.5
vt 0.990234 0.5
vt 0.990234 0.5
vt 0.990234 0.5
vt 0.990234 0.5
vt 0.990234 0.5
vt 0.990234 0.5
vt 0.990234 0.5
vt 0.990234 0.5
vt 0.990234 0.5
vt 0.990234 0.5
vt 0.990234 0.5
vt 0.990234 0.5
vt 0.990234 0.5
vt 0.990234 0.5
vt 0.990234 0.5
vt 0.990234 0.5
vt 0.990234 0.5
vn -1 0 0
vn -1 0 0
vn -1 0 0
vn -1 0 0
vn -1 0 0
vn -1 0 0
vn -1 0 0
vn -1 0 0
vn -1 0 0
vn -1 0 0
vn -1 0 0
vn -1 0 0
vn -1 0 0
vn -1 0 0
vn -1 0 0
vn -1 0 0
vn -1 0 0
vn -1 0 0
vn -1 0 0
vn -1 0 0
vn -1 0 0
vn -1 0 0
vn -1 0 0
vn -1 0 0
vn -1 0 0
vn -1 0 0
vn -1 0 0
vn -1 0 0
vn -1 0 0
vn -1 0 0
vn -1 0 0
vn -1 0 0
vn -1 0 0
vn -1 0 0
vn -1 0 0
vn -1 0 0
vn -1 0 0
vn -1 0 0
vn -1 0 0
vn -1 0 0
vn -1 0 0
vn -1 0 0
vn -1 0 0
vn -1 0 0
vn 1 0 0
vn 1 0 0
vn 1 0 0
vn 1 0 0
vn 1 0 0
vn 1 0 0
vn 1 0 0
vn 1 0 0
vn 1 0 0
vn 1 0 0
vn 1 0 0
vn 1 0 0
vn 1 0 0
vn 1 0 0
vn 1 0 0
vn 1 0 0
vn 1 0 0
vn 1 0 0
vn 1 0 0
vn 1 0 0
vn 1 0 0
vn 1 0 0
vn 1 0 0
vn 1 0 0
vn 1 0 0
vn 1 0 0
vn 1 0 0
vn 1 0 0
vn 1 0 0
vn 1 0 0
vn 1 0 0
vn 1 0 0
vn 1 0 0
vn 1 0 0
vn 1 0 0
vn 1 0 0
vn 1 0 0
vn 1 0 0
vn 1 0 0
vn 1 0 0
vn 1 0 0
vn 1 0 0
vn 1 0 0
vn 1 0 0
vn 1 0 0
vn 1 0 0
vn 1 0 0
vn 1 0 0
vn 1 0 0
vn 1 0 0
vn 1 0 0
vn 1 0 0
vn 1 0 0
vn 1 0 0
vn 0 0 1
vn 0 0 1
vn 0 0 1
vn 0 0 1
vn 0 0 1
vn 0 0 1
vn 0 0 1
vn 0 0 1
vn 0 0 1
vn 0 0 1
vn 0 0 1
vn 0 0 1
vn 0 0 1
vn 0 0 1
vn 0 0 1
vn 0 0 1
vn 0 0 1
vn 0 0 1
vn 0 0 1
vn 0 0 1
vn 0 0 1
vn 0 0 1
vn 0 0 1
vn 0 0 1
vn 0 0 1
vn 0 0 1
vn 0 0 1
vn 0 0 1
vn 0 0 1
vn 0 0 1
vn 0 0 1
vn 0 0 1
vn 0 0 1
vn 0 0 1
vn 0 0 1
vn 0 0 1
vn 0 0 1
vn 0 0 1
vn 0 0 1
vn 0 0 1
vn 0 0 1
vn 0 0 1
vn 0 0 1
vn 0 0 1
vn 0 0 1
vn 0 0 1
vn 0 0 1
vn 0 0 1
vn 0 0 1
vn 0 0 1
vn 0 0 1
vn 0 0 1
vn 0 0 1
vn 0 0 -1
vn 0 0 -1
vn 0 0 -1
vn 0 0 -1
vn 0 0 -1
vn 0 0 -1
vn 0 0 -1
vn 0 0 -1
vn 0 0 -1
vn 0 0 -1
vn 0 0 -1
vn 0 0 -1
vn 0 0 -1
vn 0 0 -1
vn 0 0 -1
vn 0 0 -1
vn 0 0 -1
vn 0 0 -1
vn 0 0 -1
vn 0 0 -1
vn 0 0 -1
vn 0 0 -1
vn 0 0 -1
vn 0 0 -1
vn 0 0 -1
vn 0 0 -1
vn 0 0 -1
vn 0 0 -1
vn 0 0 -1
vn 0 0 -1
vn 0 0 -1
vn 0 0 -1
vn 0 0 -1
vn 0 0 -1
vn 0 0 -1
vn 0 0 -1
vn 0 0 -1
vn 0 0 -1
vn 0 0 -1
vn 0 0 -1
vn 0 0 -1
vn 0 0 -1
vn 0 0 -1
vn 0 0 -1
vn 0 -1 0
vn 0 -1 0
vn 0 -1 0
vn 0 -1 0
vn 0 -1 0
vn 0 -1 0
vn 0 -1 0
vn 0 -1 0
vn 0 -1 0
vn 0 -1 0
vn 0 -1 0
vn 0 -1 0
vn 0 -1 0
vn 0 -1 0
vn 0 -1 0
vn 0 -1 0
vn 0 -1 0
vn 0 -1 0
vn 0 -1 0
vn 0 -1 0
vn 0 -1 0
vn 0 -1 0
vn 0 -1 0
vn 0 -1 0
vn 0 -1 0
vn 0 -1 0
vn 0 -1 0
vn 0 -1 0
vn 0 -1 0
vn 0 -1 0
vn 0 -1 0
vn 0 -1 0
vn 0 1 0
vn 0 1 0
vn 0 1 0
vn 0 1 0
vn 0 1 0
vn 0 1 0
vn 0 1 0
vn 0 1 0
vn 0 1 0
vn 0 1 0
vn 0 1 0
vn 0 1 0
vn 0 1 0
vn 0 1 0
vn 0 1 0
vn 0 1 0
vn 0 1 0
vn 0 1 0
vn 0 1 0
vn 0 1 0
vn 0 1 0
vn 0 1 0
vn 0 1 0
vn 0 1 0
vn 0 1 0
vn 0 1 0
vn 0 1 0
vn 0 1 0
vn 0 1 0
vn 0 1 0
vn 0 1 0
vn 0 1 0
vn 0 1 0
vn 0 1 0
vn 0 1 0
vn 0 1 0
vn 0 1 0
vn 0 1 0
vn 0 1 0
vn 0 1 0
vn 0 1 0
vn 0 1 0
vn 0 1 0
vn 0 1 0
vn 0 1 0
vn 0 1 0
vn 0 1 0
vn 0 1 0
vn 0 1 0
vn 0 1 0
vn 0 1 0
vn 0 1 0
vn 0 1 0
vn 0 1 0
vn 0 1 0
vn 0 1 0
vn 0 1 0
vn 0 1 0
vn 0 1 0
vn 0 1 0
vn 0 1 0
vn 0 1 0
vn 0 1 0
vn 0 1 0
vn 0 1 0
g default_0
f 3/3/3 2/2/2 1/1/1
f 3/3/3 1/1/1 4/4/4
f 7/7/7 6/6/6 5/5/5
f 7/7/7 5/5/5 8/8/8
f 7/7/7 8/8/8 9/9/9
f 7/7/7 9/9/9 10/10/10
f 13/13/13 12/12/12 11/11/11
f 13/13/13 11/11/11 14/14/14
f 11/11/11 15/15/15 14/14/14
f 11/11/11 16/16/16 15/15/15
f 19/19/19 18/18/18 17/17/17
f 19/19/19 17/17/17 20/20/20
f 23/23/23 22/22/22 21/21/21
f 23/23/23 21/21/21 24/24/24
f 27/27/27 26/26/26 25/25/25
f 27/27/27 25/25/25 28/28/28
f 31/31/31 30/30/30 29/29/29
f 31/31/31 29/29/29 32/32/32
f 35/35/35 34/34/34 33/33/33
f 35/35/35 33/33/33 36/36/36
f 39/39/39 38/38/38 37/37/37
f 39/39/39 37/37/37 40/40/40
f 43/43/43 42/42/42 41/41/41
f 43/43/43 41/41/41 44/44/44
f 47/47/47 46/46/46 45/45/45
f 47/47/47 48/48/48 46/46/46
f 51/51/51 50/50/50 49/49/49
f 51/51/51 52/52/52 50/50/50
f 55/55/55 54/54/54 53/53/53
f 55/55/55 56/56/56 54/54/54
f 59/59/59 58/58/58 57/57/57
f 59/59/59 60/60/60 58/58/58
f 63/63/63 62/62/62 61/61/61
f 63/63/63 64/64/64 62/62/62
f 67/67/67 66/66/66 65/65/65
f 67/67/67 68/68/68 66/66/66
f 71/71/71 70/70/70 69/69/69
f 71/71/71 72/72/72 70/70/70
f 70/70/70 73/73/73 69/69/69
f 71/71/71 74/74/74 72/72/72
f 73/73/73 75/75/75 69/69/69
f 76/76/76 75/75/75 73/73/73
f 76/76/76 77/77/77 75/75/75
f 76/76/76 78/78/78 77/77/77
f 76/76/76 79/79/79 78/78/78
f 71/71/71 80/80/80 74/74/74
f 74/74/74 80/80/80 81/81/81
f 74/74/74 81/81/81 82/82/82
f 78/78/78 83/83/83 77/77/77
f 78/78/78 84/84/84 83/83/83
f 71/71/71 85/85/85 80/80/80
f 71/71/71 86/86/86 85/85/85
f 89/89/89 88/88/88 87/87/87
f 89/89/89 90/90/90 88/88/88
f 89/89/89 91/91/91 90/90/90
f 89/89/89 92/92/92 91/91/91
f 91/91/91 93/93/93 90/90/90
f 91/91/91 94/94/94 93/93/93
f 94/94/94 95/95/95 93/93/93
f 93/93/93 95/95/95 96/96/96
f 97/97/97 95/95/95 94/94/94
f 97/97/97 98/98/98 95/95/95
f 101/101/101 100/100/100 99/99/99
f 101/101/101 99/99/99 102/102/102
f 99/99/99 103/103/103 102/102/102
f 99/99/99 104/104/104 103/103/103
f 103/103/103 104/104/104 105/105/105
f 101/101/101 102/102/102 106/106/106
f 101/101/101 106/106/106 107/107/107
f 101/101/101 107/107/107 108/108/108
f 105/105/105 104/104/104 109/109/109
f 106/106/106 105/105/105 109/109/109
f 107/107/107 106/106/106 109/109/109
f 107/107/107 109/109/109 110/110/110
f 113/113/113 112/112/112 111/111/111
f 113/113/113 111/111/111 114/114/114
f 117/117/117 116/116/116 115/115/115
f 116/116/116 118/118/118 115/115/115
f 115/115/115 118/118/118 119/119/119
f 120/120/120 115/115/115 119/119/119
f 120/120/120 119/119/119 121/121/121
f 124/124/124 123/123/123 122/122/122
f 124/124/124 122/122/122 125/125/125
f 128/128/128 127/127/127 126/126/126
f 128/128/128 126/126/126 129/129/129
f 128/128/128 129/129/129 130/130/130
f 128/128/128 130/130/130 131/131/131
f 128/128/128 131/131/131 132/132/132
f 128/128/128 132/132/132 133/133/133
f 132/132/132 134/134/134 133/133/133
f 132/132/132 135/135/135 134/134/134
f 138/138/138 137/137/137 136/136/136
f 138/138/138 136/136/136 139/139/139
f 142/142/142 141/141/141 140/140/140
f 142/142/142 140/140/140 143/143/143
f 146/146/146 145/145/145 144/144/144
f 146/146/146 144/144/144 147/147/147
f 150/150/150 149/149/149 148/148/148
f 150/150/150 148/148/148 151/151/151
f 154/154/154 153/153/153 152/152/152
f 154/154/154 155/155/155 153/153/153
f 154/154/154 156/156/156 155/155/155
f 154/154/154 157/157/157 156/156/156
f 160/160/160 159/159/159 158/158/158
f 160/160/160 161/161/161 159/159/159
f 164/164/164 163/163/163 162/162/162
f 164/164/164 165/165/165 163/163/163
f 168/168/168 167/167/167 166/166/166
f 167/167/167 169/169/169 166/166/166
f 170/170/170 169/169/169 167/167/167
f 170/170/170 171/171/171 169/169/169
f 174/174/174 173/173/173 172/172/172
f 174/174/174 175/175/175 173/173/173
f 178/178/178 177/177/177 176/176/176
f 178/178/178 179/179/179 177/177/177
f 182/182/182 181/181/181 180/180/180
f 182/182/182 183/183/183 181/181/181
f 186/186/186 185/185/185 184/184/184
f 186/186/186 187/187/187 185/185/185
f 186/186/186 188/188/188 187/187/187
f 188/188/188 189/189/189 187/187/187
f 190/190/190 189/189/189 188/188/188
f 190/190/190 191/191/191 189/189/189
f 185/185/185 192/192/192 184/184/184
f 190/190/190 193/193/193 191/191/191
f 192/192/192 194/194/194 184/184/184
f 193/193/193 194/194/194 192/192/192
f 190/190/190 195/195/195 193/193/193
f 193/193/193 195/195/195 194/194/194
f 198/198/198 197/197/197 196/196/196
f 198/198/198 196/196/196 199/199/199
f 202/202/202 201/201/201 200/200/200
f 202/202/202 200/200/200 203/203/203
f 206/206/206 205/205/205 204/204/204
f 206/206/206 204/204/204 207/207/207
f 210/210/210 209/209/209 208/208/208
f 210/210/210 208/208/208 211/211/211
f 214/214/214 213/213/213 212/212/212
f 214/214/214 212/212/212 215/215/215
f 218/218/218 217/217/217 216/216/216
f 218/218/218 216/216/216 219/219/219
f 222/222/222 221/221/221 220/220/220
f 222/222/222 220/220/220 223/223/223
f 226/226/226 225/225/225 224/224/224
f 226/226/226 224/224/224 227/227/227
f 230/230/230 229/229/229 228/228/228
f 230/230/230 231/231/231 229/229/229
f 234/234/234 233/233/233 232/232/232
f 234/234/234 235/235/235 233/233/233
f 238/238/238 237/237/237 236/236/236
f 238/238/238 239/239/239 237/237/237
f 242/242/242 241/241/241 240/240/240
f 241/241/241 243/243/243 240/240/240
f 244/244/244 243/243/243 241/241/241
f 244/244/244 245/245/245 243/243/243
f 248/248/248 247/247/247 246/246/246
f 248/248/248 249/249/249 247/247/247
f 252/252/252 251/251/251 250/250/250
f 252/252/252 253/253/253 251/251/251
f 252/252/252 254/254/254 253/253/253
f 252/252/252 255/255/255 254/254/254
f 258/258/258 257/257/257 256/256/256
f 257/257/257 259/259/259 256/256/256
f 257/257/257 260/260/260 259/259/259
f 259/259/259 261/261/261 256/256/256
f 259/259/259 262/262/262 261/261/261
f 261/261/261 263/263/263 256/256/256
f 261/261/261 264/264/264 263/263/263
f 267/267/267 266/266/266 265/265/265
f 267/267/267 268/268/268 266/266/266
f 271/271/271 270/270/270 269/269/269
f 271/271/271 272/272/272 270/270/270
f 275/275/275 274/274/274 273/273/273
f 275/275/275 276/276/276 274/274/274
f 275/275/275 277/277/277 276/276/276
f 275/275/275 278/278/278 277/277/277
f 276/276/276 279/279/279 274/274/274
f 274/274/274 279/279/279 280/280/280
f 276/276/276 281/281/281 279/279/279
f 276/276/276 282/282/282 281/281/281
f 278/278/278 283/283/283 277/277/277
f 284/284/284 283/283/283 278/278/278
f 284/284/284 285/285/285 283/283/283
f 284/284/284 286/286/286 285/285/285
f 282/282/282 287/287/287 281/281/281
f 285/285/285 287/287/287 283/283/283
f 283/283/283 287/287/287 282/282/282
f 285/285/285 288/288/288 287/287/287
f 291/291/291 290/290/290 289/289/289
f 291/291/291 292/292/292 290/290/290
