g default
v -0.25 0.1 0.15
v -0.25 0 0.15
v -0.25 0 -0.15
v -0.25 0.1 -0.15
v -0.15 0.1 0.25
v -0.15 0 0.25
v -0.15 0 0.15
v -0.15 0.1 0.15
v -0.15 0.1 -0.15
v -0.15 0 -0.15
v -0.15 0 -0.25
v -0.15 0.1 -0.25
v -0.05 0.2 0.05
v -0.05 0.1 0.05
v -0.05 0.1 -0.05
v -0.05 0.2 -0.05
v -0.05 0.2 -0.05
v -0.05 0.1 -0.05
v -0.05 0.1 -0.15
v -0.05 0.2 -0.15
v 0.15 0 0.25
v 0.15 0.1 0.25
v 0.15 0 0.15
v 0.15 0.1 0.15
v 0.15 0 -0.15
v 0.15 0.1 -0.15
v 0.15 0 -0.25
v 0.15 0.1 -0.25
v 0.15 0.1 0.05
v 0.15 0.2 0.05
v 0.15 0.1 -0.05
v 0.15 0.2 -0.05
v 0.15 0.1 -0.05
v 0.15 0.2 -0.05
v 0.15 0.1 -0.15
v 0.15 0.2 -0.15
v 0.25 0 0.15
v 0.25 0.1 0.15
v 0.25 0 -0.15
v 0.25 0.1 -0.15
v 0.15 0 0.25
v -0.15 0 0.25
v -0.15 0.1 0.25
v 0.15 0.1 0.25
v -0.15 0 0.15
v -0.25 0 0.15
v -0.25 0.1 0.15
v -0.15 0.1 0.15
v 0.25 0 0.15
v 0.15 0 0.15
v 0.15 0.1 0.15
v 0.25 0.1 0.15
v 0.05 0.1 0.05
v -0.05 0.1 0.05
v -0.05 0.2 0.05
v 0.05 0.2 0.05
v 0.15 0.1 0.05
v 0.05 0.1 0.05
v 0.05 0.2 0.05
v 0.15 0.2 0.05
v -0.25 0 -0.15
v -0.15 0 -0.15
v -0.25 0.1 -0.15
v -0.15 0.1 -0.15
v -0.05 0.1 -0.15
v 0.05 0.1 -0.15
v -0.05 0.2 -0.15
v 0.05 0.2 -0.15
v 0.05 0.1 -0.15
v 0.15 0.1 -0.15
v 0.05 0.2 -0.15
v 0.15 0.2 -0.15
v 0.15 0 -0.15
v 0.25 0 -0.15
v 0.15 0.1 -0.15
v 0.25 0.1 -0.15
v -0.15 0 -0.25
v -0.05 0 -0.25
v -0.15 0.1 -0.25
v -0.05 0.1 -0.25
v -0.05 0 -0.25
v 0.15 0 -0.25
v -0.05 0.1 -0.25
v 0.15 0.1 -0.25
v -0.15 0 0.15
v -0.15 0 0.25
v 0.15 0 0.25
v -0.05 0 0.15
v 0.05 0 0.15
v 0.15 0 0.15
v -0.15 0 0.05
v -0.25 0 0.15
v -0.05 0 0.05
v 0.05 0 0.05
v 0.25 0 0.15
v 0.15 0 0.05
v -0.15 0 -0.05
v -0.25 0 -0.15
v -0.15 0 -0.15
v 0.15 0 -0.15
v 0.25 0 -0.15
v -0.05 0 -0.25
v -0.05 0 -0.15
v 0.15 0 -0.25
v -0.05 0 0.05
v -0.05 0 0.15
v 0.05 0 0.15
v 0.05 0 0.05
v -0.15 0 -0.05
v -0.15 0 0.05
v 0.15 0 0.05
v -0.05 0 -0.05
v -0.05 0 -0.15
v 0.15 0 -0.15
v -0.15 0 -0.25
v -0.15 0 -0.15
v -0.05 0 -0.25
v -0.15 0 -0.15
v -0.15 0 -0.05
v -0.05 0 -0.05
v -0.05 0 -0.15
v -0.15 0.1 0.25
v -0.15 0.1 0.15
v 0.15 0.1 0.25
v -0.05 0.1 0.15
v 0.05 0.1 0.15
v 0.15 0.1 0.15
v -0.15 0.1 0.05
v -0.25 0.1 0.15
v -0.05 0.1 0.05
v 0.05 0.1 0.05
v 0.25 0.1 0.15
v 0.15 0.1 0.05
v -0.15 0.1 -0.05
v 0.15 0.1 -0.05
v -0.25 0.1 -0.15
v -0.15 0.1 -0.15
v 0.15 0.1 -0.15
v 0.25 0.1 -0.15
v 0.05 0.1 -0.15
v -0.05 0.1 -0.25
v -0.05 0.1 -0.15
v 0.15 0.1 -0.25
v -0.05 0.1 0.15
v -0.05 0.1 0.05
v 0.05 0.1 0.15
v 0.05 0.1 0.05
v -0.15 0.1 0.05
v -0.15 0.1 -0.05
v -0.05 0.1 -0.05
v -0.15 0.1 -0.05
v -0.15 0.1 -0.15
v -0.05 0.1 -0.05
v -0.05 0.1 -0.15
v -0.15 0.1 -0.15
v -0.15 0.1 -0.25
v -0.05 0.1 -0.15
v -0.05 0.1 -0.25
v -0.05 0.2 0.05
v -0.05 0.2 -0.05
v 0.05 0.2 0.05
v 0.05 0.2 -0.05
v 0.05 0.2 0.05
v 0.05 0.2 -0.05
v 0.15 0.2 0.05
v 0.15 0.2 -0.05
v -0.05 0.2 -0.05
v -0.05 0.2 -0.15
v 0.05 0.2 -0.15
v 0.05 0.2 -0.05
v 0.05 0.2 -0.15
v 0.15 0.2 -0.05
v 0.15 0.2 -0.15
vt 0.00195312 0.5
vt 0.00195312 0.5
vt 0.00195312 0.5
vt 0.00195312 0.5
vt 0.00195312 0.5
vt 0.00195312 0.5
vt 0.00195312 0.5
vt 0.00195312 0.5
vt 0.00585938 0.5
vt 0.00585938 0.5
vt 0.00585938 0.5
vt 0.00585938 0.5
vt 0.0175781 0.5
vt 0.0175781 0.5
vt 0.0175781 0.5
vt 0.0175781 0.5
vt 0.0214844 0.5
vt 0.0214844 0.5
vt 0.0214844 0.5
vt 0.0214844 0.5
vt 0.00195312 0.5
vt 0.00195312 0.5
vt 0.00195312 0.5
vt 0.00195312 0.5
vt 0.00195312 0.5
vt 0.00195312 0.5
vt 0.00195312 0.5
vt 0.00195312 0.5
vt 0.0214844 0.5
vt 0.0214844 0.5
vt 0.0214844 0.5
vt 0.0214844 0.5
vt 0.0449219 0.5
vt 0.0449219 0.5
vt 0.0449219 0.5
vt 0.0449219 0.5
vt 0.00195312 0.5
vt 0.00195312 0.5
vt 0.00195312 0.5
vt 0.00195312 0.5
vt 0.00195312 0.5
vt 0.00195312 0.5
vt 0.00195312 0.5
vt 0.00195312 0.5
vt 0.00195312 0.5
vt 0.00195312 0.5
vt 0.00195312 0.5
vt 0.00195312 0.5
vt 0.00195312 0.5
vt 0.00195312 0.5
vt 0.00195312 0.5
vt 0.00195312 0.5
vt 0.0175781 0.5
vt 0.0175781 0.5
vt 0.0175781 0.5
vt 0.0175781 0.5
vt 0.0214844 0.5
vt 0.0214844 0.5
vt 0.0214844 0.5
vt 0.0214844 0.5
vt 0.00195312 0.5
vt 0.00195312 0.5
vt 0.00195312 0.5
vt 0.00195312 0.5
vt 0.0214844 0.5
vt 0.0214844 0.5
vt 0.0214844 0.5
vt 0.0214844 0.5
vt 0.0449219 0.5
vt 0.0449219 0.5
vt 0.0449219 0.5
vt 0.0449219 0.5
vt 0.00195312 0.5
vt 0.00195312 0.5
vt 0.00195312 0.5
vt 0.00195312 0.5
vt 0.00585938 0.5
vt 0.00585938 0.5
vt 0.00585938 0.5
vt 0.00585938 0.5
vt 0.00195312 0.5
vt 0.00195312 0.5
vt 0.00195312 0.5
vt 0.00195312 0.5
vt 0.00195312 0.5
vt 0.00195312 0.5
vt 0.00195312 0.5
vt 0.00195312 0.5
vt 0.00195312 0.5
vt 0.00195312 0.5
vt 0.00195312 0.5
vt 0.00195312 0.5
vt 0.00195312 0.5
vt 0.00195312 0.5
vt 0.00195312 0.5
vt 0.00195312 0.5
vt 0.00195312 0.5
vt 0.00195312 0.5
vt 0.00195312 0.5
vt 0.00195312 0.5
vt 0.00195312 0.5
vt 0.00195312 0.5
vt 0.00195312 0.5
vt 0.00195312 0.5
vt 0.00585938 0.5
vt 0.00585938 0.5
vt 0.00585938 0.5
vt 0.00585938 0.5
vt 0.00585938 0.5
vt 0.00585938 0.5
vt 0.00585938 0.5
vt 0.00585938 0.5
vt 0.00585938 0.5
vt 0.00585938 0.5
vt 0.00585938 0.5
vt 0.00585938 0.5
vt 0.00585938 0.5
vt 0.00976562 0.5
vt 0.00976562 0.5
vt 0.00976562 0.5
vt 0.00976562 0.5
vt 0.00195312 0.5
vt 0.00195312 0.5
vt 0.00195312 0.5
vt 0.00195312 0.5
vt 0.00195312 0.5
vt 0.00195312 0.5
vt 0.00195312 0.5
vt 0.00195312 0.5
vt 0.00195312 0.5
vt 0.00195312 0.5
vt 0.00195312 0.5
vt 0.00195312 0.5
vt 0.00195312 0.5
vt 0.00195312 0.5
vt 0.00195312 0.5
vt 0.00195312 0.5
vt 0.00195312 0.5
vt 0.00195312 0.5
vt 0.00195312 0.5
vt 0.00195312 0.5
vt 0.00195312 0.5
vt 0.00195312 0.5
vt 0.00585938 0.5
vt 0.00585938 0.5
vt 0.00585938 0.5
vt 0.00585938 0.5
vt 0.00585938 0.5
vt 0.00585938 0.5
vt 0.00585938 0.5
vt 0.00976562 0.5
vt 0.00976562 0.5
vt 0.00976562 0.5
vt 0.00976562 0.5
vt 0.00585938 0.5
vt 0.00585938 0.5
vt 0.00585938 0.5
vt 0.00585938 0.5
vt 0.0175781 0.5
vt 0.0175781 0.5
vt 0.0175781 0.5
vt 0.0175781 0.5
vt 0.0214844 0.5
vt 0.0214844 0.5
vt 0.0214844 0.5
vt 0.0214844 0.5
vt 0.0214844 0.5
vt 0.0214844 0.5
vt 0.0214844 0.5
vt 0.0449219 0.5
vt 0.0449219 0.5
vt 0.0449219 0.5
vt 0.0449219 0.5
vn -1 0 0
vn -1 0 0
vn -1 0 0
vn -1 0 0
vn -1 0 0
vn -1 0 0
vn -1 0 0
vn -1 0 0
vn -1 0 0
vn -1 0 0
vn -1 0 0
vn -1 0 0
vn -1 0 0
vn -1 0 0
vn -1 0 0
vn -1 0 0
vn -1 0 0
vn -1 0 0
vn -1 0 0
vn -1 0 0
vn 1 0 0
vn 1 0 0
vn 1 0 0
vn 1 0 0
vn 1 0 0
vn 1 0 0
vn 1 0 0
vn 1 0 0
vn 1 0 0
vn 1 0 0
vn 1 0 0
vn 1 0 0
vn 1 0 0
vn 1 0 0
vn 1 0 0
vn 1 0 0
vn 1 0 0
vn 1 0 0
vn 1 0 0
vn 1 0 0
vn 0 0 1
vn 0 0 1
vn 0 0 1
vn 0 0 1
vn 0 0 1
vn 0 0 1
vn 0 0 1
vn 0 0 1
vn 0 0 1
vn 0 0 1
vn 0 0 1
vn 0 0 1
vn 0 0 1
vn 0 0 1
vn 0 0 1
vn 0 0 1
vn 0 0 1
vn 0 0 1
vn 0 0 1
vn 0 0 1
vn 0 0 -1
vn 0 0 -1
vn 0 0 -1
vn 0 0 -1
vn 0 0 -1
vn 0 0 -1
vn 0 0 -1
vn 0 0 -1
vn 0 0 -1
vn 0 0 -1
vn 0 0 -1
vn 0 0 -1
vn 0 0 -1
vn 0 0 -1
vn 0 0 -1
vn 0 0 -1
vn 0 0 -1
vn 0 0 -1
vn 0 0 -1
vn 0 0 -1
vn 0 0 -1
vn 0 0 -1
vn 0 0 -1
vn 0 0 -1
vn 0 -1 0
vn 0 -1 0
vn 0 -1 0
vn 0 -1 0
vn 0 -1 0
vn 0 -1 0
vn 0 -1 0
vn 0 -1 0
vn 0 -1 0
vn 0 -1 0
vn 0 -1 0
vn 0 -1 0
vn 0 -1 0
vn 0 -1 0
vn 0 -1 0
vn 0 -1 0
vn 0 -1 0
vn 0 -1 0
vn 0 -1 0
vn 0 -1 0
vn 0 -1 0
vn 0 -1 0
vn 0 -1 0
vn 0 -1 0
vn 0 -1 0
vn 0 -1 0
vn 0 -1 0
vn 0 -1 0
vn 0 -1 0
vn 0 -1 0
vn 0 -1 0
vn 0 -1 0
vn 0 -1 0
vn 0 -1 0
vn 0 -1 0
vn 0 -1 0
vn 0 -1 0
vn 0 1 0
vn 0 1 0
vn 0 1 0
vn 0 1 0
vn 0 1 0
vn 0 1 0
vn 0 1 0
vn 0 1 0
vn 0 1 0
vn 0 1 0
vn 0 1 0
vn 0 1 0
vn 0 1 0
vn 0 1 0
vn 0 1 0
vn 0 1 0
vn 0 1 0
vn 0 1 0
vn 0 1 0
vn 0 1 0
vn 0 1 0
vn 0 1 0
vn 0 1 0
vn 0 1 0
vn 0 1 0
vn 0 1 0
vn 0 1 0
vn 0 1 0
vn 0 1 0
vn 0 1 0
vn 0 1 0
vn 0 1 0
vn 0 1 0
vn 0 1 0
vn 0 1 0
vn 0 1 0
vn 0 1 0
vn 0 1 0
vn 0 1 0
vn 0 1 0
vn 0 1 0
vn 0 1 0
vn 0 1 0
vn 0 1 0
vn 0 1 0
vn 0 1 0
vn 0 1 0
vn 0 1 0
vn 0 1 0
vn 0 1 0
vn 0 1 0
vn 0 1 0
g default_0
f 3/3/3 2/2/2 1/1/1
f 3/3/3 1/1/1 4/4/4
f 7/7/7 6/6/6 5/5/5
f 7/7/7 5/5/5 8/8/8
f 11/11/11 10/10/10 9/9/9
f 11/11/11 9/9/9 12/12/12
f 15/15/15 14/14/14 13/13/13
f 15/15/15 13/13/13 16/16/16
f 19/19/19 18/18/18 17/17/17
f 19/19/19 17/17/17 20/20/20
f 23/23/23 22/22/22 21/21/21
f 23/23/23 24/24/24 22/22/22
f 27/27/27 26/26/26 25/25/25
f 27/27/27 28/28/28 26/26/26
f 31/31/31 30/30/30 29/29/29
f 31/31/31 32/32/32 30/30/30
f 35/35/35 34/34/34 33/33/33
f 35/35/35 36/36/36 34/34/34
f 39/39/39 38/38/38 37/37/37
f 39/39/39 40/40/40 38/38/38
f 43/43/43 42/42/42 41/41/41
f 43/43/43 41/41/41 44/44/44
f 47/47/47 46/46/46 45/45/45
f 47/47/47 45/45/45 48/48/48
f 51/51/51 50/50/50 49/49/49
f 51/51/51 49/49/49 52/52/52
f 55/55/55 54/54/54 53/53/53
f 55/55/55 53/53/53 56/56/56
f 59/59/59 58/58/58 57/57/57
f 59/59/59 57/57/57 60/60/60
f 63/63/63 62/62/62 61/61/61
f 63/63/63 64/64/64 62/62/62
f 67/67/67 66/66/66 65/65/65
f 67/67/67 68/68/68 66/66/66
f 71/71/71 70/70/70 69/69/69
f 71/71/71 72/72/72 70/70/70
f 75/75/75 74/74/74 73/73/73
f 75/75/75 76/76/76 74/74/74
f 79/79/79 78/78/78 77/77/77
f 79/79/79 80/80/80 78/78/78
f 83/83/83 82/82/82 81/81/81
f 83/83/83 84/84/84 82/82/82
f 87/87/87 86/86/86 85/85/85
f 87/87/87 85/85/85 88/88/88
f 87/87/87 88/88/88 89/89/89
f 87/87/87 89/89/89 90/90/90
f 88/88/88 85/85/85 91/91/91
f 85/85/85 92/92/92 91/91/91
f 88/88/88 91/91/91 93/93/93
f 90/90/90 89/89/89 94/94/94
f 95/95/95 90/90/90 94/94/94
f 95/95/95 94/94/94 96/96/96
f 91/91/91 92/92/92 97/97/97
f 97/97/97 92/92/92 98/98/98
f 97/97/97 98/98/98 99/99/99
f 95/95/95 96/96/96 100/100/100
f 95/95/95 100/100/100 101/101/101
f 100/100/100 103/103/103 102/102/102
f 100/100/100 102/102/102 104/104/104
f 107/107/107 106/106/106 105/105/105
f 107/107/107 105/105/105 108/108/108
f 108/108/108 105/105/105 109/109/109
f 105/105/105 110/110/110 109/109/109
f 111/111/111 108/108/108 109/109/109
f 111/111/111 109/109/109 112/112/112
f 111/111/111 112/112/112 113/113/113
f 111/111/111 113/113/113 114/114/114
f 113/113/113 116/116/116 115/115/115
f 113/113/113 115/115/115 117/117/117
f 120/120/120 119/119/119 118/118/118
f 120/120/120 118/118/118 121/121/121
f 124/124/124 123/123/123 122/122/122
f 124/124/124 125/125/125 123/123/123
f 124/124/124 126/126/126 125/125/125
f 124/124/124 127/127/127 126/126/126
f 125/125/125 128/128/128 123/123/123
f 123/123/123 128/128/128 129/129/129
f 125/125/125 130/130/130 128/128/128
f 127/127/127 131/131/131 126/126/126
f 132/132/132 131/131/131 127/127/127
f 132/132/132 133/133/133 131/131/131
f 128/128/128 134/134/134 129/129/129
f 132/132/132 135/135/135 133/133/133
f 134/134/134 136/136/136 129/129/129
f 134/134/134 137/137/137 136/136/136
f 132/132/132 138/138/138 135/135/135
f 132/132/132 139/139/139 138/138/138
f 138/138/138 141/141/141 140/140/140
f 140/140/140 141/141/141 142/142/142
f 138/138/138 143/143/143 141/141/141
f 146/146/146 145/145/145 144/144/144
f 146/146/146 147/147/147 145/145/145
f 145/145/145 149/149/149 148/148/148
f 145/145/145 150/150/150 149/149/149
f 153/153/153 152/152/152 151/151/151
f 153/153/153 154/154/154 152/152/152
f 157/157/157 156/156/156 155/155/155
f 157/157/157 158/158/158 156/156/156
f 161/161/161 160/160/160 159/159/159
f 161/161/161 162/162/162 160/160/160
f 165/165/165 164/164/164 163/163/163
f 165/165/165 166/166/166 164/164/164
f 164/164/164 168/168/168 167/167/167
f 164/164/164 169/169/169 168/168/168
f 172/172/172 171/171/171 170/170/170
f 172/172/172 173/173/173 171/171/171
