g default
v -0.25 0.1 0.15
v -0.25 0 0.15
v -0.25 0 -0.15
v -0.25 0.1 -0.15
v -0.25 1 0.15
v -0.25 0.6 0.15
v -0.25 0.6 -0.15
v -0.25 1 -0.15
v -0.15 0.1 0.25
v -0.15 0 0.25
v -0.15 0 0.15
v -0.15 0.1 0.15
v -0.15 0.1 -0.15
v -0.15 0 -0.15
v -0.15 0 -0.25
v -0.15 0.1 -0.25
v -0.15 0.6 0.15
v -0.15 0.5 0.15
v -0.15 0.5 -0.15
v -0.15 0.6 -0.15
v -0.15 1 0.25
v -0.15 0.6 0.25
v -0.15 1 0.15
v -0.15 1 -0.15
v -0.15 0.6 -0.25
v -0.15 1 -0.25
v -0.05 0.5 0.05
v -0.05 0.1 0.05
v -0.05 0.1 -0.05
v -0.05 0.5 -0.05
v 0.15 1 0.15
v 0.15 0.9 0.15
v 0.15 0.9 -0.15
v 0.15 1 -0.15
v -0.15 0.9 0.15
v -0.15 1 0.15
v -0.15 0.9 -0.15
v -0.15 1 -0.15
v 0.05 0.1 0.05
v 0.05 0.5 0.05
v 0.05 0.1 -0.05
v 0.05 0.5 -0.05
v 0.15 0 0.25
v 0.15 0.1 0.25
v 0.15 0 0.15
v 0.15 0.1 0.15
v 0.15 0 -0.15
v 0.15 0.1 -0.15
v 0.15 0 -0.25
v 0.15 0.1 -0.25
v 0.15 0.5 0.15
v 0.15 0.6 0.15
v 0.15 0.5 -0.15
v 0.15 0.6 -0.15
v 0.15 0.6 0.25
v 0.15 1 0.25
v 0.15 1 0.15
v 0.15 1 -0.15
v 0.15 0.6 -0.25
v 0.15 1 -0.25
v 0.25 0 0.15
v 0.25 0.1 0.15
v 0.25 0 -0.15
v 0.25 0.1 -0.15
v 0.25 0.6 0.15
v 0.25 1 0.15
v 0.25 0.6 -0.15
v 0.25 1 -0.15
v 0.15 0 0.25
v -0.15 0 0.25
v -0.15 0.1 0.25
v 0.15 0.1 0.25
v 0.15 0.6 0.25
v -0.15 0.6 0.25
v -0.15 1 0.25
v 0.15 1 0.25
v -0.15 0 0.15
v -0.25 0 0.15
v -0.25 0.1 0.15
v -0.15 0.1 0.15
v -0.15 0.6 0.15
v -0.25 0.6 0.15
v -0.25 1 0.15
v -0.15 1 0.15
v 0.15 0.5 0.15
v -0.15 0.5 0.15
v 0.15 0.6 0.15
v 0.25 0.6 0.15
v 0.15 1 0.15
v 0.25 1 0.15
v 0.25 0 0.15
v 0.15 0 0.15
v 0.15 0.1 0.15
v 0.25 0.1 0.15
v 0.05 0.1 0.05
v -0.05 0.1 0.05
v -0.05 0.5 0.05
v 0.05 0.5 0.05
v 0.15 0.9 -0.15
v -0.15 0.9 -0.15
v -0.15 1 -0.15
v 0.15 1 -0.15
v -0.15 0.9 0.15
v 0.15 0.9 0.15
v -0.15 1 0.15
v 0.15 1 0.15
v -0.05 0.1 -0.05
v 0.05 0.1 -0.05
v -0.05 0.5 -0.05
v 0.05 0.5 -0.05
v -0.25 0 -0.15
v -0.15 0 -0.15
v -0.25 0.1 -0.15
v -0.15 0.1 -0.15
v -0.25 0.6 -0.15
v -0.15 0.6 -0.15
v -0.25 1 -0.15
v -0.15 1 -0.15
v -0.15 0.5 -0.15
v 0.15 0.5 -0.15
v 0.15 0.6 -0.15
v 0.25 0.6 -0.15
v 0.15 1 -0.15
v 0.25 1 -0.15
v 0.15 0 -0.15
v 0.25 0 -0.15
v 0.15 0.1 -0.15
v 0.25 0.1 -0.15
v -0.15 0 -0.25
v 0.15 0 -0.25
v -0.15 0.1 -0.25
v 0.15 0.1 -0.25
v -0.15 0.6 -0.25
v 0.15 0.6 -0.25
v -0.15 1 -0.25
v 0.15 1 -0.25
v -0.15 0 0.15
v -0.15 0 0.25
v 0.15 0 0.25
v 0.15 0 0.15
v -0.25 0 -0.15
v -0.25 0 0.15
v 0.25 0 0.15
v -0.15 0 -0.15
v 0.15 0 -0.15
v 0.25 0 -0.15
v -0.15 0 -0.25
v 0.15 0 -0.25
v -0.05 0.5 0.05
v -0.15 0.5 0.15
v 0.15 0.5 0.15
v 0.05 0.5 0.05
v -0.05 0.5 -0.05
v 0.05 0.5 -0.05
v -0.15 0.5 -0.15
v 0.15 0.5 -0.15
v -0.15 0.6 0.15
v -0.15 0.6 0.25
v 0.15 0.6 0.25
v 0.15 0.6 0.15
v -0.25 0.6 -0.15
v -0.25 0.6 0.15
v -0.15 0.6 -0.15
v 0.15 0.6 -0.15
v 0.25 0.6 0.15
v 0.25 0.6 -0.15
v -0.15 0.6 -0.25
v 0.15 0.6 -0.25
v -0.15 0.1 0.25
v -0.15 0.1 0.15
v 0.15 0.1 0.25
v 0.15 0.1 0.15
v -0.05 0.1 0.05
v -0.25 0.1 0.15
v 0.25 0.1 0.15
v 0.05 0.1 0.05
v -0.05 0.1 -0.05
v 0.05 0.1 -0.05
v -0.25 0.1 -0.15
v -0.15 0.1 -0.15
v 0.15 0.1 -0.15
v 0.25 0.1 -0.15
v -0.15 0.1 -0.25
v 0.15 0.1 -0.25
v -0.15 0.9 0.15
v -0.15 0.9 -0.15
v 0.15 0.9 0.15
v 0.15 0.9 -0.15
v -0.15 1 0.25
v -0.15 1 0.15
v 0.15 1 0.25
v 0.15 1 0.15
v -0.25 1 0.15
v -0.25 1 -0.15
v -0.15 1 -0.15
v 0.15 1 -0.15
v 0.25 1 0.15
v 0.25 1 -0.15
v -0.15 1 -0.25
v 0.15 1 -0.25
vt 0.958984 0.5
vt 0.958984 0.5
vt 0.958984 0.5
vt 0.958984 0.5
vt 0.958984 0.5
vt 0.958984 0.5
vt 0.958984 0.5
vt 0.958984 0.5
vt 0.958984 0.5
vt 0.958984 0.5
vt 0.958984 0.5
vt 0.958984 0.5
vt 0.958984 0.5
vt 0.958984 0.5
vt 0.958984 0.5
vt 0.958984 0.5
vt 0.958984 0.5
vt 0.958984 0.5
vt 0.958984 0.5
vt 0.958984 0.5
vt 0.958984 0.5
vt 0.958984 0.5
vt 0.958984 0.5
vt 0.958984 0.5
vt 0.958984 0.5
vt 0.958984 0.5
vt 0.958984 0.5
vt 0.958984 0.5
vt 0.958984 0.5
vt 0.958984 0.5
vt 0.958984 0.5
vt 0.958984 0.5
vt 0.958984 0.5
vt 0.958984 0.5
vt 0.958984 0.5
vt 0.958984 0.5
vt 0.958984 0.5
vt 0.958984 0.5
vt 0.958984 0.5
vt 0.958984 0.5
vt 0.958984 0.5
vt 0.958984 0.5
vt 0.958984 0.5
vt 0.958984 0.5
vt 0.958984 0.5
vt 0.958984 0.5
vt 0.958984 0.5
vt 0.958984 0.5
vt 0.958984 0.5
vt 0.958984 0.5
vt 0.958984 0.5
vt 0.958984 0.5
vt 0.958984 0.5
vt 0.958984 0.5
vt 0.958984 0.5
vt 0.958984 0.5
vt 0.958984 0.5
vt 0.958984 0.5
vt 0.958984 0.5
vt 0.958984 0.5
vt 0.958984 0.5
vt 0.958984 0.5
vt 0.958984 0.5
vt 0.958984 0.5
vt 0.958984 0.5
vt 0.958984 0.5
vt 0.958984 0.5
vt 0.958984 0.5
vt 0.958984 0.5
vt 0.958984 0.5
vt 0.958984 0.5
vt 0.958984 0.5
vt 0.958984 0.5
vt 0.958984 0.5
vt 0.958984 0.5
vt 0.958984 0.5
vt 0.958984 0.5
vt 0.958984 0.5
vt 0.958984 0.5
vt 0.958984 0.5
vt 0.958984 0.5
vt 0.958984 0.5
vt 0.958984 0.5
vt 0.958984 0.5
vt 0.958984 0.5
vt 0.958984 0.5
vt 0.958984 0.5
vt 0.958984 0.5
vt 0.958984 0.5
vt 0.958984 0.5
vt 0.958984 0.5
vt 0.958984 0.5
vt 0.958984 0.5
vt 0.958984 0.5
vt 0.958984 0.5
vt 0.958984 0.5
vt 0.958984 0.5
vt 0.958984 0.5
vt 0.958984 0.5
vt 0.958984 0.5
vt 0.958984 0.5
vt 0.958984 0.5
vt 0.958984 0.5
vt 0.958984 0.5
vt 0.958984 0.5
vt 0.958984 0.5
vt 0.958984 0.5
vt 0.958984 0.5
vt 0.958984 0.5
vt 0.958984 0.5
vt 0.958984 0.5
vt 0.958984 0.5
vt 0.958984 0.5
vt 0.958984 0.5
vt 0.958984 0.5
vt 0.958984 0.5
vt 0.958984 0.5
vt 0.958984 0.5
vt 0.958984 0.5
vt 0.958984 0.5
vt 0.958984 0.5
vt 0.958984 0.5
vt 0.958984 0.5
vt 0.958984 0.5
vt 0.958984 0.5
vt 0.958984 0.5
vt 0.958984 0.5
vt 0.958984 0.5
vt 0.958984 0.5
vt 0.958984 0.5
vt 0.958984 0.5
vt 0.958984 0.5
vt 0.958984 0.5
vt 0.958984 0.5
vt 0.958984 0.5
vt 0.958984 0.5
vt 0.958984 0.5
vt 0.958984 0.5
vt 0.958984 0.5
vt 0.958984 0.5
vt 0.958984 0.5
vt 0.958984 0.5
vt 0.958984 0.5
vt 0.958984 0.5
vt 0.958984 0.5
vt 0.958984 0.5
vt 0.958984 0.5
vt 0.958984 0.5
vt 0.958984 0.5
vt 0.958984 0.5
vt 0.958984 0.5
vt 0.958984 0.5
vt 0.958984 0.5
vt 0.958984 0.5
vt 0.958984 0.5
vt 0.958984 0.5
vt 0.958984 0.5
vt 0.958984 0.5
vt 0.958984 0.5
vt 0.958984 0.5
vt 0.958984 0.5
vt 0.958984 0.5
vt 0.958984 0.5
vt 0.958984 0.5
vt 0.958984 0.5
vt 0.958984 0.5
vt 0.958984 0.5
vt 0.958984 0.5
vt 0.958984 0.5
vt 0.958984 0.5
vt 0.958984 0.5
vt 0.958984 0.5
vt 0.958984 0.5
vt 0.958984 0.5
vt 0.958984 0.5
vt 0.958984 0.5
vt 0.958984 0.5
vt 0.958984 0.5
vt 0.958984 0.5
vt 0.958984 0.5
vt 0.958984 0.5
vt 0.958984 0.5
vt 0.958984 0.5
vt 0.958984 0.5
vt 0.560547 0.5
vt 0.560547 0.5
vt 0.560547 0.5
vt 0.560547 0.5
vt 0.958984 0.5
vt 0.958984 0.5
vt 0.958984 0.5
vt 0.958984 0.5
vt 0.958984 0.5
vt 0.958984 0.5
vt 0.958984 0.5
vt 0.958984 0.5
vt 0.958984 0.5
vt 0.958984 0.5
vt 0.958984 0.5
vt 0.958984 0.5
vn -1 0 0
vn -1 0 0
vn -1 0 0
vn -1 0 0
vn -1 0 0
vn -1 0 0
vn -1 0 0
vn -1 0 0
vn -1 0 0
vn -1 0 0
vn -1 0 0
vn -1 0 0
vn -1 0 0
vn -1 0 0
vn -1 0 0
vn -1 0 0
vn -1 0 0
vn -1 0 0
vn -1 0 0
vn -1 0 0
vn -1 0 0
vn -1 0 0
vn -1 0 0
vn -1 0 0
vn -1 0 0
vn -1 0 0
vn -1 0 0
vn -1 0 0
vn -1 0 0
vn -1 0 0
vn -1 0 0
vn -1 0 0
vn -1 0 0
vn -1 0 0
vn 1 0 0
vn 1 0 0
vn 1 0 0
vn 1 0 0
vn 1 0 0
vn 1 0 0
vn 1 0 0
vn 1 0 0
vn 1 0 0
vn 1 0 0
vn 1 0 0
vn 1 0 0
vn 1 0 0
vn 1 0 0
vn 1 0 0
vn 1 0 0
vn 1 0 0
vn 1 0 0
vn 1 0 0
vn 1 0 0
vn 1 0 0
vn 1 0 0
vn 1 0 0
vn 1 0 0
vn 1 0 0
vn 1 0 0
vn 1 0 0
vn 1 0 0
vn 1 0 0
vn 1 0 0
vn 1 0 0
vn 1 0 0
vn 1 0 0
vn 1 0 0
vn 0 0 1
vn 0 0 1
vn 0 0 1
vn 0 0 1
vn 0 0 1
vn 0 0 1
vn 0 0 1
vn 0 0 1
vn 0 0 1
vn 0 0 1
vn 0 0 1
vn 0 0 1
vn 0 0 1
vn 0 0 1
vn 0 0 1
vn 0 0 1
vn 0 0 1
vn 0 0 1
vn 0 0 1
vn 0 0 1
vn 0 0 1
vn 0 0 1
vn 0 0 1
vn 0 0 1
vn 0 0 1
vn 0 0 1
vn 0 0 1
vn 0 0 1
vn 0 0 1
vn 0 0 1
vn 0 0 1
vn 0 0 1
vn 0 0 1
vn 0 0 1
vn 0 0 -1
vn 0 0 -1
vn 0 0 -1
vn 0 0 -1
vn 0 0 -1
vn 0 0 -1
vn 0 0 -1
vn 0 0 -1
vn 0 0 -1
vn 0 0 -1
vn 0 0 -1
vn 0 0 -1
vn 0 0 -1
vn 0 0 -1
vn 0 0 -1
vn 0 0 -1
vn 0 0 -1
vn 0 0 -1
vn 0 0 -1
vn 0 0 -1
vn 0 0 -1
vn 0 0 -1
vn 0 0 -1
vn 0 0 -1
vn 0 0 -1
vn 0 0 -1
vn 0 0 -1
vn 0 0 -1
vn 0 0 -1
vn 0 0 -1
vn 0 0 -1
vn 0 0 -1
vn 0 0 -1
vn 0 0 -1
vn 0 -1 0
vn 0 -1 0
vn 0 -1 0
vn 0 -1 0
vn 0 -1 0
vn 0 -1 0
vn 0 -1 0
vn 0 -1 0
vn 0 -1 0
vn 0 -1 0
vn 0 -1 0
vn 0 -1 0
vn 0 -1 0
vn 0 -1 0
vn 0 -1 0
vn 0 -1 0
vn 0 -1 0
vn 0 -1 0
vn 0 -1 0
vn 0 -1 0
vn 0 -1 0
vn 0 -1 0
vn 0 -1 0
vn 0 -1 0
vn 0 -1 0
vn 0 -1 0
vn 0 -1 0
vn 0 -1 0
vn 0 -1 0
vn 0 -1 0
vn 0 -1 0
vn 0 -1 0
vn 0 1 0
vn 0 1 0
vn 0 1 0
vn 0 1 0
vn 0 1 0
vn 0 1 0
vn 0 1 0
vn 0 1 0
vn 0 1 0
vn 0 1 0
vn 0 1 0
vn 0 1 0
vn 0 1 0
vn 0 1 0
vn 0 1 0
vn 0 1 0
vn 0 1 0
vn 0 1 0
vn 0 1 0
vn 0 1 0
vn 0 1 0
vn 0 1 0
vn 0 1 0
vn 0 1 0
vn 0 1 0
vn 0 1 0
vn 0 1 0
vn 0 1 0
vn 0 1 0
vn 0 1 0
vn 0 1 0
vn 0 1 0
g default_0
f 3/3/3 2/2/2 1/1/1
f 3/3/3 1/1/1 4/4/4
f 7/7/7 6/6/6 5/5/5
f 7/7/7 5/5/5 8/8/8
f 11/11/11 10/10/10 9/9/9
f 11/11/11 9/9/9 12/12/12
f 15/15/15 14/14/14 13/13/13
f 15/15/15 13/13/13 16/16/16
f 19/19/19 18/18/18 17/17/17
f 19/19/19 17/17/17 20/20/20
f 17/17/17 22/22/22 21/21/21
f 17/17/17 21/21/21 23/23/23
f 25/25/25 20/20/20 24/24/24
f 25/25/25 24/24/24 26/26/26
f 29/29/29 28/28/28 27/27/27
f 29/29/29 27/27/27 30/30/30
f 33/33/33 32/32/32 31/31/31
f 33/33/33 31/31/31 34/34/34
f 37/37/37 36/36/36 35/35/35
f 37/37/37 38/38/38 36/36/36
f 41/41/41 40/40/40 39/39/39
f 41/41/41 42/42/42 40/40/40
f 45/45/45 44/44/44 43/43/43
f 45/45/45 46/46/46 44/44/44
f 49/49/49 48/48/48 47/47/47
f 49/49/49 50/50/50 48/48/48
f 53/53/53 52/52/52 51/51/51
f 53/53/53 54/54/54 52/52/52
f 52/52/52 56/56/56 55/55/55
f 52/52/52 57/57/57 56/56/56
f 59/59/59 58/58/58 54/54/54
f 59/59/59 60/60/60 58/58/58
f 63/63/63 62/62/62 61/61/61
f 63/63/63 64/64/64 62/62/62
f 67/67/67 66/66/66 65/65/65
f 67/67/67 68/68/68 66/66/66
f 71/71/71 70/70/70 69/69/69
f 71/71/71 69/69/69 72/72/72
f 75/75/75 74/74/74 73/73/73
f 75/75/75 73/73/73 76/76/76
f 79/79/79 78/78/78 77/77/77
f 79/79/79 77/77/77 80/80/80
f 83/83/83 82/82/82 81/81/81
f 83/83/83 81/81/81 84/84/84
f 81/81/81 86/86/86 85/85/85
f 81/81/81 85/85/85 87/87/87
f 89/89/89 87/87/87 88/88/88
f 89/89/89 88/88/88 90/90/90
f 93/93/93 92/92/92 91/91/91
f 93/93/93 91/91/91 94/94/94
f 97/97/97 96/96/96 95/95/95
f 97/97/97 95/95/95 98/98/98
f 101/101/101 100/100/100 99/99/99
f 101/101/101 99/99/99 102/102/102
f 105/105/105 104/104/104 103/103/103
f 105/105/105 106/106/106 104/104/104
f 109/109/109 108/108/108 107/107/107
f 109/109/109 110/110/110 108/108/108
f 113/113/113 112/112/112 111/111/111
f 113/113/113 114/114/114 112/112/112
f 117/117/117 116/116/116 115/115/115
f 117/117/117 118/118/118 116/116/116
f 116/116/116 120/120/120 119/119/119
f 116/116/116 121/121/121 120/120/120
f 123/123/123 122/122/122 121/121/121
f 123/123/123 124/124/124 122/122/122
f 127/127/127 126/126/126 125/125/125
f 127/127/127 128/128/128 126/126/126
f 131/131/131 130/130/130 129/129/129
f 131/131/131 132/132/132 130/130/130
f 135/135/135 134/134/134 133/133/133
f 135/135/135 136/136/136 134/134/134
f 139/139/139 138/138/138 137/137/137
f 139/139/139 137/137/137 140/140/140
f 140/140/140 137/137/137 141/141/141
f 137/137/137 142/142/142 141/141/141
f 143/143/143 140/140/140 141/141/141
f 143/143/143 141/141/141 144/144/144
f 143/143/143 144/144/144 145/145/145
f 143/143/143 145/145/145 146/146/146
f 145/145/145 144/144/144 147/147/147
f 145/145/145 147/147/147 148/148/148
f 151/151/151 150/150/150 149/149/149
f 151/151/151 149/149/149 152/152/152
f 149/149/149 150/150/150 153/153/153
f 151/151/151 152/152/152 154/154/154
f 153/153/153 150/150/150 155/155/155
f 154/154/154 153/153/153 155/155/155
f 151/151/151 154/154/154 156/156/156
f 154/154/154 155/155/155 156/156/156
f 159/159/159 158/158/158 157/157/157
f 159/159/159 157/157/157 160/160/160
f 157/157/157 162/162/162 161/161/161
f 157/157/157 161/161/161 163/163/163
f 165/165/165 160/160/160 164/164/164
f 165/165/165 164/164/164 166/166/166
f 164/164/164 163/163/163 167/167/167
f 164/164/164 167/167/167 168/168/168
f 171/171/171 170/170/170 169/169/169
f 171/171/171 172/172/172 170/170/170
f 172/172/172 173/173/173 170/170/170
f 170/170/170 173/173/173 174/174/174
f 175/175/175 173/173/173 172/172/172
f 175/175/175 176/176/176 173/173/173
f 173/173/173 177/177/177 174/174/174
f 175/175/175 178/178/178 176/176/176
f 177/177/177 179/179/179 174/174/174
f 178/178/178 179/179/179 177/177/177
f 178/178/178 180/180/180 179/179/179
f 175/175/175 181/181/181 178/178/178
f 178/178/178 181/181/181 180/180/180
f 175/175/175 182/182/182 181/181/181
f 181/181/181 183/183/183 180/180/180
f 181/181/181 184/184/184 183/183/183
f 187/187/187 186/186/186 185/185/185
f 187/187/187 188/188/188 186/186/186
f 191/191/191 190/190/190 189/189/189
f 191/191/191 192/192/192 190/190/190
f 190/190/190 194/194/194 193/193/193
f 190/190/190 195/195/195 194/194/194
f 197/197/197 196/196/196 192/192/192
f 197/197/197 198/198/198 196/196/196
f 196/196/196 199/199/199 195/195/195
f 196/196/196 200/200/200 199/199/199
