g default
v -0.3 0.4 0
v -0.3 0.2 0.3
v -0.3 0.2 -0.1
v -0.3 0.4 -0.1
v -0.3 0.5 0.3
v -0.3 0.5 0
v -0.2 0.2 0.3
v -0.2 0 0.3
v -0.2 0 -0.3
v -0.2 0.2 -0.1
v -0.2 0.4 -0.1
v -0.2 0.4 -0.2
v -0.2 0.4 -0.3
v -0.2 0.5 0
v -0.2 0.4 0
v -0.2 0.6 -0.1
v -0.2 0.6 0.1
v -0.2 0.6 0.3
v -0.2 0.5 0.3
v -0.2 0.6 -0.2
v -0.2 1.4 0.1
v -0.2 1.4 -0.1
v -0.1 0.6 -0.2
v -0.1 0.5 -0.2
v -0.1 0.5 -0.3
v -0.1 0.6 -0.3
v -0.1 1.3 -0.1
v -0.1 0.6 -0.1
v -0.1 1.3 -0.2
v -0.1 1.3 0.2
v -0.1 0.6 0.2
v -0.1 0.6 0.1
v -0.1 1.3 0.1
v -0.1 1.5 0.1
v -0.1 1.4 0.1
v -0.1 1.4 -0.1
v -0.1 1.5 -0.1
v 0 0.4 0.3
v 0 0.2 0.3
v 0 0.2 0.2
v 0 0.4 0.2
v 0 0.5 -0.2
v 0 0.2 -0.2
v 0 0.2 -0.3
v 0 0.5 -0.3
v -0.1 0.2 0.3
v -0.1 0.4 0.3
v -0.1 0.2 0.2
v -0.1 0.4 0.2
v -0.1 0.2 -0.2
v -0.1 0.4 -0.2
v -0.1 0.2 -0.3
v -0.1 0.4 -0.3
v 0.1 0 0.3
v 0.1 0.1 0.3
v 0.1 0 0.2
v 0.1 0.1 0.2
v 0.1 0 -0.2
v 0.1 0.1 -0.2
v 0.1 0 -0.3
v 0.1 0.1 -0.3
v 0.1 0.6 0.2
v 0.1 1.3 0.2
v 0.1 0.6 0.1
v 0.1 1.3 0.1
v 0.1 1.5 0.1
v 0.1 1.3 -0.1
v 0.1 1.5 -0.1
v 0.1 0.7 -0.1
v 0.1 0.7 -0.2
v 0.1 1.3 -0.2
v 0.2 0 0.2
v 0.2 0.1 0.2
v 0.2 0 -0.2
v 0.2 0.1 -0.2
v 0.2 0.1 0.3
v 0.2 0.6 0.3
v 0.2 0.6 0.2
v 0.2 0.6 -0.2
v 0.2 0.1 -0.3
v 0.2 0.6 -0.3
v 0.2 0.6 -0.1
v 0.2 0.7 -0.1
v 0.2 0.7 -0.2
v 0.2 0.8 0
v 0.2 1.1 0
v 0.2 0.8 -0.1
v 0.2 1.3 -0.1
v 0.2 1.3 0.1
v 0.2 1.1 0.1
v 0.3 0.1 0.2
v 0.3 0.6 0.2
v 0.3 0.1 -0.2
v 0.3 0.6 0.1
v 0.3 0.6 -0.1
v 0.3 0.6 -0.2
v 0.3 0.8 0
v 0.3 0.8 -0.1
v 0.3 1.1 0.1
v 0.3 1.1 0
v -0.2 0.2 0.3
v -0.3 0.2 0.3
v -0.3 0.5 0.3
v -0.2 0.5 0.3
v -0.1 0.2 0.3
v -0.2 0 0.3
v -0.2 0.6 0.3
v -0.1 0.4 0.3
v 0 0.2 0.3
v 0 0.4 0.3
v 0.1 0 0.3
v 0.1 0.1 0.3
v 0.2 0.1 0.3
v 0.2 0.6 0.3
v 0 0.2 0.2
v -0.1 0.2 0.2
v -0.1 0.4 0.2
v 0 0.4 0.2
v 0.1 0.6 0.2
v -0.1 0.6 0.2
v -0.1 1.3 0.2
v 0.1 1.3 0.2
v 0.2 0 0.2
v 0.1 0 0.2
v 0.1 0.1 0.2
v 0.2 0.1 0.2
v 0.3 0.1 0.2
v 0.2 0.6 0.2
v 0.3 0.6 0.2
v -0.1 0.6 0.1
v -0.2 0.6 0.1
v -0.2 1.4 0.1
v -0.1 1.3 0.1
v -0.1 1.4 0.1
v 0.1 1.3 0.1
v -0.1 1.5 0.1
v 0.1 1.5 0.1
v 0.2 1.1 0.1
v 0.1 0.6 0.1
v 0.2 1.3 0.1
v 0.3 0.6 0.1
v 0.3 1.1 0.1
v -0.3 0.4 0
v -0.2 0.4 0
v -0.3 0.5 0
v -0.2 0.5 0
v 0.2 0.8 0
v 0.3 0.8 0
v 0.2 1.1 0
v 0.3 1.1 0
v -0.3 0.2 -0.1
v -0.2 0.2 -0.1
v -0.3 0.4 -0.1
v -0.2 0.4 -0.1
v -0.2 0.6 -0.1
v -0.1 0.6 -0.1
v -0.2 1.4 -0.1
v -0.1 1.3 -0.1
v -0.1 1.4 -0.1
v 0.1 1.3 -0.1
v -0.1 1.5 -0.1
v 0.1 1.5 -0.1
v 0.1 0.7 -0.1
v 0.2 0.7 -0.1
v 0.2 0.8 -0.1
v 0.2 1.3 -0.1
v 0.3 0.6 -0.1
v 0.2 0.6 -0.1
v 0.3 0.8 -0.1
v -0.2 0.4 -0.2
v -0.1 0.4 -0.2
v -0.2 0.6 -0.2
v -0.1 0.5 -0.2
v -0.1 0.6 -0.2
v 0 0.2 -0.2
v -0.1 0.2 -0.2
v 0 0.5 -0.2
v 0.1 0.7 -0.2
v -0.1 1.3 -0.2
v 0.1 1.3 -0.2
v 0.2 0.6 -0.2
v 0.2 0.7 -0.2
v 0.2 0.1 -0.2
v 0.3 0.1 -0.2
v 0.3 0.6 -0.2
v 0.2 0 -0.2
v 0.1 0.1 -0.2
v 0.1 0 -0.2
v -0.2 0 -0.3
v -0.1 0.2 -0.3
v -0.2 0.4 -0.3
v -0.1 0.4 -0.3
v 0 0.2 -0.3
v 0.1 0 -0.3
v 0 0.5 -0.3
v 0.1 0.1 -0.3
v 0.2 0.1 -0.3
v 0.2 0.6 -0.3
v -0.1 0.6 -0.3
v -0.1 0.5 -0.3
v 0.1 0 0.2
v -0.2 0 0.3
v 0.1 0 0.3
v 0.1 0 -0.2
v 0.2 0 0.2
v 0.2 0 -0.2
v -0.2 0 -0.3
v 0.1 0 -0.3
v 0.1 0.1 0.2
v 0.1 0.1 0.3
v 0.2 0.1 0.3
v 0.2 0.1 0.2
v 0.2 0.1 -0.2
v 0.3 0.1 0.2
v 0.3 0.1 -0.2
v 0.1 0.1 -0.3
v 0.1 0.1 -0.2
v 0.2 0.1 -0.3
v -0.3 0.2 -0.1
v -0.3 0.2 0.3
v -0.2 0.2 0.3
v -0.2 0.2 -0.1
v -0.1 0.4 0.2
v -0.1 0.4 0.3
v 0 0.4 0.3
v 0 0.4 0.2
v -0.1 0.5 -0.3
v -0.1 0.5 -0.2
v 0 0.5 -0.2
v 0 0.5 -0.3
v -0.1 0.2 0.3
v -0.1 0.2 0.2
v 0 0.2 0.3
v 0 0.2 0.2
v -0.1 0.2 -0.2
v -0.1 0.2 -0.3
v 0 0.2 -0.2
v 0 0.2 -0.3
v -0.3 0.4 0
v -0.3 0.4 -0.1
v -0.2 0.4 0
v -0.2 0.4 -0.1
v -0.2 0.4 -0.2
v -0.2 0.4 -0.3
v -0.1 0.4 -0.2
v -0.1 0.4 -0.3
v -0.3 0.5 0.3
v -0.3 0.5 0
v -0.2 0.5 0.3
v -0.2 0.5 0
v -0.2 0.6 0.3
v -0.1 0.6 0.2
v 0.2 0.6 0.3
v 0.1 0.6 0.2
v 0.2 0.6 0.2
v -0.2 0.6 0.1
v -0.1 0.6 0.1
v 0.1 0.6 0.1
v 0.3 0.6 0.2
v 0.3 0.6 0.1
v -0.2 0.6 -0.1
v -0.2 0.6 -0.2
v -0.1 0.6 -0.1
v -0.1 0.6 -0.2
v -0.1 0.6 -0.3
v 0.2 0.6 -0.2
v 0.2 0.6 -0.3
v 0.2 0.6 -0.1
v 0.3 0.6 -0.1
v 0.3 0.6 -0.2
v 0.1 0.7 -0.1
v 0.1 0.7 -0.2
v 0.2 0.7 -0.1
v 0.2 0.7 -0.2
v 0.2 0.8 0
v 0.2 0.8 -0.1
v 0.3 0.8 0
v 0.3 0.8 -0.1
v 0.2 1.1 0.1
v 0.2 1.1 0
v 0.3 1.1 0.1
v 0.3 1.1 0
v -0.1 1.3 0.2
v -0.1 1.3 0.1
v 0.1 1.3 0.2
v 0.1 1.3 0.1
v 0.1 1.3 -0.1
v 0.2 1.3 0.1
v 0.2 1.3 -0.1
v -0.1 1.3 -0.1
v -0.1 1.3 -0.2
v 0.1 1.3 -0.2
v -0.2 1.4 0.1
v -0.2 1.4 -0.1
v -0.1 1.4 0.1
v -0.1 1.4 -0.1
v -0.1 1.5 0.1
v -0.1 1.5 -0.1
v 0.1 1.5 0.1
v 0.1 1.5 -0.1
vt 0.990234 0.5
vt 0.990234 0.5
vt 0.990234 0.5
vt 0.990234 0.5
vt 0.990234 0.5
vt 0.990234 0.5
vt 0.990234 0.5
vt 0.990234 0.5
vt 0.990234 0.5
vt 0.990234 0.5
vt 0.990234 0.5
vt 0.990234 0.5
vt 0.990234 0.5
vt 0.990234 0.5
vt 0.990234 0.5
vt 0.990234 0.5
vt 0.990234 0.5
vt 0.990234 0.5
vt 0.990234 0.5
vt 0.990234 0.5
vt 0.990234 0.5
vt 0.990234 0.5
vt 0.990234 0.5
vt 0.990234 0.5
vt 0.990234 0.5
vt 0.990234 0.5
vt 0.990234 0.5
vt 0.990234 0.5
vt 0.990234 0.5
vt 0.990234 0.5
vt 0.990234 0.5
vt 0.990234 0.5
vt 0.990234 0.5
vt 0.990234 0.5
vt 0.990234 0.5
vt 0.990234 0.5
vt 0.990234 0.5
vt 0.990234 0.5
vt 0.990234 0.5
vt 0.990234 0.5
vt 0.990234 0.5
vt 0.990234 0.5
vt 0.990234 0.5
vt 0.990234 0.5
vt 0.990234 0.5
vt 0.990234 0.5
vt 0.990234 0.5
vt 0.990234 0.5
vt 0.990234 0.5
vt 0.990234 0.5
vt 0.990234 0.5
vt 0.990234 0.5
vt 0.990234 0.5
vt 0.990234 0.5
vt 0.990234 0.5
vt 0.990234 0.5
vt 0.990234 0.5
vt 0.990234 0.5
vt 0.990234 0.5
vt 0.990234 0.5
vt 0.990234 0.5
vt 0.990234 0.5
vt 0.990234 0.5
vt 0.990234 0.5
vt 0.990234 0.5
vt 0.990234 0.5
vt 0.990234 0.5
vt 0.990234 0.5
vt 0.990234 0.5
vt 0.990234 0.5
vt 0.990234 0.5
vt 0.990234 0.5
vt 0.990234 0.5
vt 0.990234 0.5
vt 0.990234 0.5
vt 0.990234 0.5
vt 0.990234 0.5
vt 0.990234 0.5
vt 0.990234 0.5
vt 0.990234 0.5
vt 0.990234 0.5
vt 0.990234 0.5
vt 0.990234 0.5
vt 0.990234 0.5
vt 0.990234 0.5
vt 0.990234 0.5
vt 0.990234 0.5
vt 0.990234 0.5
vt 0.990234 0.5
vt 0.990234 0.5
vt 0.990234 0.5
vt 0.990234 0.5
vt 0.990234 0.5
vt 0.990234 0.5
vt 0.990234 0.5
vt 0.990234 0.5
vt 0.990234 0.5
vt 0.990234 0.5
vt 0.990234 0.5
vt 0.990234 0.5
vt 0.990234 0.5
vt 0.990234 0.5
vt 0.990234 0.5
vt 0.990234 0.5
vt 0.990234 0.5
vt 0.990234 0.5
vt 0.990234 0.5
vt 0.990234 0.5
vt 0.990234 0.5
vt 0.990234 0.5
vt 0.990234 0.5
vt 0.990234 0.5
vt 0.990234 0.5
vt 0.990234 0.5
vt 0.990234 0.5
vt 0.990234 0.5
vt 0.990234 0.5
vt 0.990234 0.5
vt 0.990234 0.5
vt 0.990234 0.5
vt 0.990234 0.5
vt 0.990234 0.5
vt 0.990234 0.5
vt 0.990234 0.5
vt 0.990234 0.5
vt 0.990234 0.5
vt 0.990234 0.5
vt 0.990234 0.5
vt 0.990234 0.5
vt 0.990234 0.5
vt 0.990234 0.5
vt 0.990234 0.5
vt 0.990234 0.5
vt 0.990234 0.5
vt 0.990234 0.5
vt 0.990234 0.5
vt 0.990234 0.5
vt 0.990234 0.5
vt 0.990234 0.5
vt 0.990234 0.5
vt 0.990234 0.5
vt 0.990234 0.5
vt 0.990234 0.5
vt 0.990234 0.5
vt 0.990234 0.5
vt 0.990234 0.5
vt 0.990234 0.5
vt 0.990234 0.5
vt 0.990234 0.5
vt 0.990234 0.5
vt 0.990234 0.5
vt 0.990234 0.5
vt 0.990234 0.5
vt 0.990234 0.5
vt 0.990234 0.5
vt 0.990234 0.5
vt 0.990234 0.5
vt 0.990234 0.5
vt 0.990234 0.5
vt 0.990234 0.5
vt 0.990234 0.5
vt 0.990234 0.5
vt 0.990234 0.5
vt 0.990234 0.5
vt 0.990234 0.5
vt 0.990234 0.5
vt 0.990234 0.5
vt 0.990234 0.5
vt 0.990234 0.5
vt 0.990234 0.5
vt 0.990234 0.5
vt 0.990234 0.5
vt 0.990234 0.5
vt 0.990234 0.5
vt 0.990234 0.5
vt 0.990234 0.5
vt 0.990234 0.5
vt 0.990234 0.5
vt 0.990234 0.5
vt 0.990234 0.5
vt 0.990234 0.5
vt 0.990234 0.5
vt 0.990234 0.5
vt 0.990234 0.5
vt 0.990234 0.5
vt 0.990234 0.5
vt 0.990234 0.5
vt 0.990234 0.5
vt 0.990234 0.5
vt 0.990234 0.5
vt 0.990234 0.5
vt 0.990234 0.5
vt 0.990234 0.5
vt 0.990234 0.5
vt 0.990234 0.5
vt 0.990234 0.5
vt 0.990234 0.5
vt 0.990234 0.5
vt 0.990234 0.5
vt 0.990234 0.5
vt 0.990234 0.5
vt 0.990234 0.5
vt 0.990234 0.5
vt 0.990234 0.5
vt 0.990234 0.5
vt 0.990234 0.5
vt 0.990234 0.5
vt 0.990234 0.5
vt 0.990234 0.5
vt 0.990234 0.5
vt 0.990234 0.5
vt 0.990234 0.5
vt 0.990234 0.5
vt 0.990234 0.5
vt 0.990234 0.5
vt 0.990234 0.5
vt 0.990234 0.5
vt 0.990234 0.5
vt 0.990234 0.5
vt 0.990234 0.5
vt 0.990234 0.5
vt 0.990234 0.5
vt 0.990234 0.5
vt 0.990234 0.5
vt 0.990234 0.5
vt 0.990234 0.5
vt 0.990234 0.5
vt 0.990234 0.5
vt 0.990234 0.5
vt 0.990234 0.5
vt 0.990234 0.5
vt 0.990234 0.5
vt 0.990234 0.5
vt 0.990234 0.5
vt 0.990234 0.5
vt 0.990234 0.5
vt 0.990234 0.5
vt 0.990234 0.5
vt 0.990234 0.5
vt 0.990234 0.5
vt 0.990234 0.5
vt 0.990234 0.5
vt 0.990234 0.5
vt 0.990234 0.5
vt 0.990234 0.5
vt 0.990234 0.5
vt 0.990234 0.5
vt 0.990234 0.5
vt 0.990234 0.5
vt 0.990234 0.5
vt 0.990234 0.5
vt 0.990234 0.5
vt 0.990234 0.5
vt 0.990234 0.5
vt 0.990234 0.5
vt 0.990234 0.5
vt 0.990234 0.5
vt 0.990234 0.5
vt 0.990234 0.5
vt 0.990234 0.5
vt 0.990234 0.5
vt 0.990234 0.5
vt 0.990234 0.5
vt 0.990234 0.5
vt 0.990234 0.5
vt 0.990234 0.5
vt 0.990234 0.5
vt 0.990234 0.5
vt 0.990234 0.5
vt 0.990234 0.5
vt 0.990234 0.5
vt 0.990234 0.5
vt 0.990234 0.5
vt 0.990234 0.5
vt 0.990234 0.5
vt 0.990234 0.5
vt 0.990234 0.5
vt 0.990234 0.5
vt 0.990234 0.5
vt 0.990234 0.5
vt 0.990234 0.5
vt 0.990234 0.5
vt 0.990234 0.5
vt 0.990234 0.5
vt 0.990234 0.5
vt 0.990234 0.5
vt 0.990234 0.5
vt 0.990234 0.5
vt 0.990234 0.5
vt 0.990234 0.5
vt 0.990234 0.5
vt 0.990234 0.5
vt 0.990234 0.5
vt 0.990234 0.5
vt 0.990234 0.5
vt 0.990234 0.5
vt 0.990234 0.5
vt 0.990234 0.5
vt 0.990234 0.5
vt 0.990234 0.5
vn -1 0 0
vn -1 0 0
vn -1 0 0
vn -1 0 0
vn -1 0 0
vn -1 0 0
vn -1 0 0
vn -1 0 0
vn -1 0 0
vn -1 0 0
vn -1 0 0
vn -1 0 0
vn -1 0 0
vn -1 0 0
vn -1 0 0
vn -1 0 0
vn -1 0 0
vn -1 0 0
vn -1 0 0
vn -1 0 0
vn -1 0 0
vn -1 0 0
vn -1 0 0
vn -1 0 0
vn -1 0 0
vn -1 0 0
vn -1 0 0
vn -1 0 0
vn -1 0 0
vn -1 0 0
vn -1 0 0
vn -1 0 0
vn -1 0 0
vn -1 0 0
vn -1 0 0
vn -1 0 0
vn -1 0 0
vn -1 0 0
vn -1 0 0
vn -1 0 0
vn -1 0 0
vn -1 0 0
vn -1 0 0
vn -1 0 0
vn -1 0 0
vn 1 0 0
vn 1 0 0
vn 1 0 0
vn 1 0 0
vn 1 0 0
vn 1 0 0
vn 1 0 0
vn 1 0 0
vn 1 0 0
vn 1 0 0
vn 1 0 0
vn 1 0 0
vn 1 0 0
vn 1 0 0
vn 1 0 0
vn 1 0 0
vn 1 0 0
vn 1 0 0
vn 1 0 0
vn 1 0 0
vn 1 0 0
vn 1 0 0
vn 1 0 0
vn 1 0 0
vn 1 0 0
vn 1 0 0
vn 1 0 0
vn 1 0 0
vn 1 0 0
vn 1 0 0
vn 1 0 0
vn 1 0 0
vn 1 0 0
vn 1 0 0
vn 1 0 0
vn 1 0 0
vn 1 0 0
vn 1 0 0
vn 1 0 0
vn 1 0 0
vn 1 0 0
vn 1 0 0
vn 1 0 0
vn 1 0 0
vn 1 0 0
vn 1 0 0
vn 1 0 0
vn 1 0 0
vn 1 0 0
vn 1 0 0
vn 1 0 0
vn 1 0 0
vn 1 0 0
vn 1 0 0
vn 1 0 0
vn 0 0 1
vn 0 0 1
vn 0 0 1
vn 0 0 1
vn 0 0 1
vn 0 0 1
vn 0 0 1
vn 0 0 1
vn 0 0 1
vn 0 0 1
vn 0 0 1
vn 0 0 1
vn 0 0 1
vn 0 0 1
vn 0 0 1
vn 0 0 1
vn 0 0 1
vn 0 0 1
vn 0 0 1
vn 0 0 1
vn 0 0 1
vn 0 0 1
vn 0 0 1
vn 0 0 1
vn 0 0 1
vn 0 0 1
vn 0 0 1
vn 0 0 1
vn 0 0 1
vn 0 0 1
vn 0 0 1
vn 0 0 1
vn 0 0 1
vn 0 0 1
vn 0 0 1
vn 0 0 1
vn 0 0 1
vn 0 0 1
vn 0 0 1
vn 0 0 1
vn 0 0 1
vn 0 0 1
vn 0 0 -1
vn 0 0 -1
vn 0 0 -1
vn 0 0 -1
vn 0 0 -1
vn 0 0 -1
vn 0 0 -1
vn 0 0 -1
vn 0 0 -1
vn 0 0 -1
vn 0 0 -1
vn 0 0 -1
vn 0 0 -1
vn 0 0 -1
vn 0 0 -1
vn 0 0 -1
vn 0 0 -1
vn 0 0 -1
vn 0 0 -1
vn 0 0 -1
vn 0 0 -1
vn 0 0 -1
vn 0 0 -1
vn 0 0 -1
vn 0 0 -1
vn 0 0 -1
vn 0 0 -1
vn 0 0 -1
vn 0 0 -1
vn 0 0 -1
vn 0 0 -1
vn 0 0 -1
vn 0 0 -1
vn 0 0 -1
vn 0 0 -1
vn 0 0 -1
vn 0 0 -1
vn 0 0 -1
vn 0 0 -1
vn 0 0 -1
vn 0 0 -1
vn 0 0 -1
vn 0 0 -1
vn 0 0 -1
vn 0 0 -1
vn 0 0 -1
vn 0 0 -1
vn 0 0 -1
vn 0 0 -1
vn 0 0 -1
vn 0 0 -1
vn 0 0 -1
vn 0 0 -1
vn 0 0 -1
vn 0 0 -1
vn 0 0 -1
vn 0 0 -1
vn 0 0 -1
vn 0 -1 0
vn 0 -1 0
vn 0 -1 0
vn 0 -1 0
vn 0 -1 0
vn 0 -1 0
vn 0 -1 0
vn 0 -1 0
vn 0 -1 0
vn 0 -1 0
vn 0 -1 0
vn 0 -1 0
vn 0 -1 0
vn 0 -1 0
vn 0 -1 0
vn 0 -1 0
vn 0 -1 0
vn 0 -1 0
vn 0 -1 0
vn 0 -1 0
vn 0 -1 0
vn 0 -1 0
vn 0 -1 0
vn 0 -1 0
vn 0 -1 0
vn 0 -1 0
vn 0 -1 0
vn 0 -1 0
vn 0 -1 0
vn 0 -1 0
vn 0 1 0
vn 0 1 0
vn 0 1 0
vn 0 1 0
vn 0 1 0
vn 0 1 0
vn 0 1 0
vn 0 1 0
vn 0 1 0
vn 0 1 0
vn 0 1 0
vn 0 1 0
vn 0 1 0
vn 0 1 0
vn 0 1 0
vn 0 1 0
vn 0 1 0
vn 0 1 0
vn 0 1 0
vn 0 1 0
vn 0 1 0
vn 0 1 0
vn 0 1 0
vn 0 1 0
vn 0 1 0
vn 0 1 0
vn 0 1 0
vn 0 1 0
vn 0 1 0
vn 0 1 0
vn 0 1 0
vn 0 1 0
vn 0 1 0
vn 0 1 0
vn 0 1 0
vn 0 1 0
vn 0 1 0
vn 0 1 0
vn 0 1 0
vn 0 1 0
vn 0 1 0
vn 0 1 0
vn 0 1 0
vn 0 1 0
vn 0 1 0
vn 0 1 0
vn 0 1 0
vn 0 1 0
vn 0 1 0
vn 0 1 0
vn 0 1 0
vn 0 1 0
vn 0 1 0
vn 0 1 0
vn 0 1 0
vn 0 1 0
vn 0 1 0
vn 0 1 0
vn 0 1 0
vn 0 1 0
vn 0 1 0
vn 0 1 0
vn 0 1 0
vn 0 1 0
vn 0 1 0
vn 0 1 0
vn 0 1 0
vn 0 1 0
vn 0 1 0
vn 0 1 0
g default_0
f 3/3/3 2/2/2 1/1/1
f 3/3/3 1/1/1 4/4/4
f 1/1/1 2/2/2 5/5/5
f 1/1/1 5/5/5 6/6/6
f 9/9/9 8/8/8 7/7/7
f 9/9/9 7/7/7 10/10/10
f 9/9/9 10/10/10 11/11/11
f 9/9/9 11/11/11 12/12/12
f 9/9/9 12/12/12 13/13/13
f 12/12/12 11/11/11 14/14/14
f 11/11/11 15/15/15 14/14/14
f 12/12/12 14/14/14 16/16/16
f 14/14/14 17/17/17 16/16/16
f 14/14/14 18/18/18 17/17/17
f 14/14/14 19/19/19 18/18/18
f 12/12/12 16/16/16 20/20/20
f 16/16/16 17/17/17 21/21/21
f 16/16/16 21/21/21 22/22/22
f 25/25/25 24/24/24 23/23/23
f 25/25/25 23/23/23 26/26/26
f 23/23/23 28/28/28 27/27/27
f 23/23/23 27/27/27 29/29/29
f 32/32/32 31/31/31 30/30/30
f 32/32/32 30/30/30 33/33/33
f 36/36/36 35/35/35 34/34/34
f 36/36/36 34/34/34 37/37/37
f 40/40/40 39/39/39 38/38/38
f 40/40/40 38/38/38 41/41/41
f 44/44/44 43/43/43 42/42/42
f 44/44/44 42/42/42 45/45/45
f 48/48/48 47/47/47 46/46/46
f 48/48/48 49/49/49 47/47/47
f 52/52/52 51/51/51 50/50/50
f 52/52/52 53/53/53 51/51/51
f 56/56/56 55/55/55 54/54/54
f 56/56/56 57/57/57 55/55/55
f 60/60/60 59/59/59 58/58/58
f 60/60/60 61/61/61 59/59/59
f 64/64/64 63/63/63 62/62/62
f 64/64/64 65/65/65 63/63/63
f 67/67/67 66/66/66 65/65/65
f 67/67/67 68/68/68 66/66/66
f 70/70/70 67/67/67 69/69/69
f 70/70/70 71/71/71 67/67/67
f 74/74/74 73/73/73 72/72/72
f 74/74/74 75/75/75 73/73/73
f 73/73/73 77/77/77 76/76/76
f 73/73/73 78/78/78 77/77/77
f 80/80/80 79/79/79 75/75/75
f 80/80/80 81/81/81 79/79/79
f 79/79/79 83/83/83 82/82/82
f 79/79/79 84/84/84 83/83/83
f 87/87/87 86/86/86 85/85/85
f 87/87/87 88/88/88 86/86/86
f 86/86/86 88/88/88 89/89/89
f 86/86/86 89/89/89 90/90/90
f 93/93/93 92/92/92 91/91/91
f 93/93/93 94/94/94 92/92/92
f 93/93/93 95/95/95 94/94/94
f 93/93/93 96/96/96 95/95/95
f 95/95/95 97/97/97 94/94/94
f 95/95/95 98/98/98 97/97/97
f 97/97/97 99/99/99 94/94/94
f 97/97/97 100/100/100 99/99/99
f 103/103/103 102/102/102 101/101/101
f 103/103/103 101/101/101 104/104/104
f 104/104/104 101/101/101 105/105/105
f 101/101/101 106/106/106 105/105/105
f 107/107/107 104/104/104 105/105/105
f 107/107/107 105/105/105 108/108/108
f 105/105/105 106/106/106 109/109/109
f 107/107/107 108/108/108 110/110/110
f 109/109/109 106/106/106 111/111/111
f 110/110/110 109/109/109 111/111/111
f 110/110/110 111/111/111 112/112/112
f 110/110/110 112/112/112 113/113/113
f 107/107/107 110/110/110 114/114/114
f 110/110/110 113/113/113 114/114/114
f 117/117/117 116/116/116 115/115/115
f 117/117/117 115/115/115 118/118/118
f 121/121/121 120/120/120 119/119/119
f 121/121/121 119/119/119 122/122/122
f 125/125/125 124/124/124 123/123/123
f 125/125/125 123/123/123 126/126/126
f 128/128/128 126/126/126 127/127/127
f 128/128/128 127/127/127 129/129/129
f 132/132/132 131/131/131 130/130/130
f 132/132/132 130/130/130 133/133/133
f 132/132/132 133/133/133 134/134/134
f 134/134/134 133/133/133 135/135/135
f 136/136/136 134/134/134 135/135/135
f 136/136/136 135/135/135 137/137/137
f 135/135/135 139/139/139 138/138/138
f 135/135/135 138/138/138 140/140/140
f 138/138/138 139/139/139 141/141/141
f 138/138/138 141/141/141 142/142/142
f 145/145/145 144/144/144 143/143/143
f 145/145/145 146/146/146 144/144/144
f 149/149/149 148/148/148 147/147/147
f 149/149/149 150/150/150 148/148/148
f 153/153/153 152/152/152 151/151/151
f 153/153/153 154/154/154 152/152/152
f 157/157/157 156/156/156 155/155/155
f 157/157/157 158/158/158 156/156/156
f 157/157/157 159/159/159 158/158/158
f 159/159/159 160/160/160 158/158/158
f 161/161/161 160/160/160 159/159/159
f 161/161/161 162/162/162 160/160/160
f 160/160/160 164/164/164 163/163/163
f 160/160/160 165/165/165 164/164/164
f 160/160/160 166/166/166 165/165/165
f 165/165/165 167/167/167 164/164/164
f 164/164/164 167/167/167 168/168/168
f 165/165/165 169/169/169 167/167/167
f 172/172/172 171/171/171 170/170/170
f 172/172/172 173/173/173 171/171/171
f 172/172/172 174/174/174 173/173/173
f 173/173/173 175/175/175 171/171/171
f 171/171/171 175/175/175 176/176/176
f 173/173/173 177/177/177 175/175/175
f 179/179/179 178/178/178 174/174/174
f 179/179/179 180/180/180 178/178/178
f 178/178/178 181/181/181 174/174/174
f 178/178/178 182/182/182 181/181/181
f 181/181/181 184/184/184 183/183/183
f 181/181/181 185/185/185 184/184/184
f 187/187/187 183/183/183 186/186/186
f 187/187/187 186/186/186 188/188/188
f 191/191/191 190/190/190 189/189/189
f 191/191/191 192/192/192 190/190/190
f 190/190/190 193/193/193 189/189/189
f 193/193/193 194/194/194 189/189/189
f 195/195/195 194/194/194 193/193/193
f 195/195/195 196/196/196 194/194/194
f 195/195/195 197/197/197 196/196/196
f 195/195/195 198/198/198 197/197/197
f 199/199/199 198/198/198 195/195/195
f 199/199/199 195/195/195 200/200/200
f 203/203/203 202/202/202 201/201/201
f 201/201/201 202/202/202 204/204/204
f 205/205/205 201/201/201 204/204/204
f 205/205/205 204/204/204 206/206/206
f 204/204/204 202/202/202 207/207/207
f 204/204/204 207/207/207 208/208/208
f 211/211/211 210/210/210 209/209/209
f 211/211/211 209/209/209 212/212/212
f 214/214/214 212/212/212 213/213/213
f 214/214/214 213/213/213 215/215/215
f 213/213/213 217/217/217 216/216/216
f 213/213/213 216/216/216 218/218/218
f 221/221/221 220/220/220 219/219/219
f 221/221/221 219/219/219 222/222/222
f 225/225/225 224/224/224 223/223/223
f 225/225/225 223/223/223 226/226/226
f 229/229/229 228/228/228 227/227/227
f 229/229/229 227/227/227 230/230/230
f 233/233/233 232/232/232 231/231/231
f 233/233/233 234/234/234 232/232/232
f 237/237/237 236/236/236 235/235/235
f 237/237/237 238/238/238 236/236/236
f 241/241/241 240/240/240 239/239/239
f 241/241/241 242/242/242 240/240/240
f 245/245/245 244/244/244 243/243/243
f 245/245/245 246/246/246 244/244/244
f 249/249/249 248/248/248 247/247/247
f 249/249/249 250/250/250 248/248/248
f 253/253/253 252/252/252 251/251/251
f 253/253/253 254/254/254 252/252/252
f 253/253/253 255/255/255 254/254/254
f 252/252/252 256/256/256 251/251/251
f 252/252/252 257/257/257 256/256/256
f 255/255/255 258/258/258 254/254/254
f 259/259/259 258/258/258 255/255/255
f 259/259/259 260/260/260 258/258/258
f 263/263/263 262/262/262 261/261/261
f 263/263/263 264/264/264 262/262/262
f 266/266/266 265/265/265 264/264/264
f 266/266/266 267/267/267 265/265/265
f 269/269/269 266/266/266 268/268/268
f 269/269/269 270/270/270 266/266/266
f 273/273/273 272/272/272 271/271/271
f 273/273/273 274/274/274 272/272/272
f 277/277/277 276/276/276 275/275/275
f 277/277/277 278/278/278 276/276/276
f 281/281/281 280/280/280 279/279/279
f 281/281/281 282/282/282 280/280/280
f 285/285/285 284/284/284 283/283/283
f 285/285/285 286/286/286 284/284/284
f 288/288/288 287/287/287 286/286/286
f 288/288/288 289/289/289 287/287/287
f 287/287/287 291/291/291 290/290/290
f 287/287/287 292/292/292 291/291/291
f 295/295/295 294/294/294 293/293/293
f 295/295/295 296/296/296 294/294/294
f 299/299/299 298/298/298 297/297/297
f 299/299/299 300/300/300 298/298/298
