g default
v -0.7 0.2 0.7
v -0.7 0 0.7
v -0.7 0 0.2
v -0.7 0.2 0.2
v -0.7 0.2 0.2
v -0.7 0 0.2
v -0.7 0 -0.1
v -0.7 0.2 -0.1
v -0.4 0.2 -0.1
v -0.4 0 -0.1
v -0.4 0 -0.6
v -0.4 0.2 -0.6
v -0.4 0.2 -0.6
v -0.4 0 -0.6
v -0.4 0 -0.7
v -0.4 0.2 -0.7
v 0.2 0.2 0.7
v 0.2 0 0.7
v 0.2 0 0.6
v 0.2 0.2 0.6
v -0.2 0 0.7
v -0.2 0.2 0.7
v -0.2 0 0.6
v -0.2 0.2 0.6
v 0.4 0 -0.1
v 0.4 0.2 -0.1
v 0.4 0 -0.6
v 0.4 0.2 -0.6
v 0.4 0 -0.6
v 0.4 0.2 -0.6
v 0.4 0 -0.7
v 0.4 0.2 -0.7
v 0.7 0 0.7
v 0.7 0.2 0.7
v 0.7 0 0.2
v 0.7 0.2 0.2
v 0.7 0 0.2
v 0.7 0.2 0.2
v 0.7 0 -0.1
v 0.7 0.2 -0.1
v -0.3 0 0.7
v -0.7 0 0.7
v -0.7 0.2 0.7
v -0.3 0.2 0.7
v -0.2 0 0.7
v -0.3 0 0.7
v -0.3 0.2 0.7
v -0.2 0.2 0.7
v 0.3 0 0.7
v 0.2 0 0.7
v 0.2 0.2 0.7
v 0.3 0.2 0.7
v 0.7 0 0.7
v 0.3 0 0.7
v 0.3 0.2 0.7
v 0.7 0.2 0.7
v 0.2 0 0.6
v -0.2 0 0.6
v -0.2 0.2 0.6
v 0.2 0.2 0.6
v -0.7 0 -0.1
v -0.4 0 -0.1
v -0.7 0.2 -0.1
v -0.4 0.2 -0.1
v 0.4 0 -0.1
v 0.7 0 -0.1
v 0.4 0.2 -0.1
v 0.7 0.2 -0.1
v -0.4 0 -0.7
v 0.4 0 -0.7
v -0.4 0.2 -0.7
v 0.4 0.2 -0.7
v -0.3 0 0.6
v -0.7 0 0.7
v -0.3 0 0.7
v -0.7 0 0.2
v -0.2 0 0.5
v -0.2 0 0.6
v 0.2 0 0.5
v -0.6 0 0.2
v 0.6 0 0.2
v 0.3 0 0.6
v 0.2 0 0.6
v 0.7 0 0.7
v 0.3 0 0.7
v 0.7 0 0.2
v -0.6 0 0.1
v -0.4 0 0.1
v 0.4 0 0.1
v 0.6 0 0.1
v -0.4 0 -0.1
v 0.4 0 -0.1
v -0.4 0 -0.6
v 0.4 0 -0.6
v -0.3 0 0.6
v -0.3 0 0.7
v -0.2 0 0.7
v -0.2 0 0.6
v -0.2 0 0.5
v 0.2 0 0.6
v 0.2 0 0.5
v 0.2 0 0.7
v 0.3 0 0.7
v 0.3 0 0.6
v -0.6 0 0.1
v -0.7 0 0.2
v -0.6 0 0.2
v -0.7 0 -0.1
v -0.4 0 0.1
v -0.4 0 -0.1
v 0.6 0 0.1
v 0.6 0 0.2
v 0.7 0 0.2
v 0.7 0 -0.1
v 0.4 0 -0.1
v 0.4 0 0.1
v -0.4 0 -0.7
v -0.4 0 -0.6
v 0.4 0 -0.6
v 0.4 0 -0.7
v -0.7 0.2 0.7
v -0.3 0.2 0.6
v -0.3 0.2 0.7
v -0.7 0.2 0.2
v -0.2 0.2 0.5
v -0.2 0.2 0.6
v 0.2 0.2 0.5
v -0.6 0.2 0.2
v 0.6 0.2 0.2
v 0.3 0.2 0.6
v 0.2 0.2 0.6
v 0.7 0.2 0.7
v 0.3 0.2 0.7
v 0.7 0.2 0.2
v -0.6 0.2 0.1
v -0.4 0.2 0.1
v 0.4 0.2 0.1
v 0.6 0.2 0.1
v -0.4 0.2 -0.1
v 0.4 0.2 -0.1
v -0.4 0.2 -0.6
v 0.4 0.2 -0.6
v -0.3 0.2 0.7
v -0.3 0.2 0.6
v -0.2 0.2 0.7
v -0.2 0.2 0.6
v -0.2 0.2 0.5
v 0.2 0.2 0.6
v 0.2 0.2 0.5
v 0.2 0.2 0.7
v 0.3 0.2 0.7
v 0.3 0.2 0.6
v -0.7 0.2 0.2
v -0.6 0.2 0.1
v -0.6 0.2 0.2
v -0.7 0.2 -0.1
v -0.4 0.2 0.1
v -0.4 0.2 -0.1
v 0.6 0.2 0.2
v 0.6 0.2 0.1
v 0.7 0.2 0.2
v 0.7 0.2 -0.1
v 0.4 0.2 -0.1
v 0.4 0.2 0.1
v -0.4 0.2 -0.6
v -0.4 0.2 -0.7
v 0.4 0.2 -0.6
v 0.4 0.2 -0.7
vt 0.611328 0.5
vt 0.611328 0.5
vt 0.611328 0.5
vt 0.611328 0.5
vt 0.634766 0.5
vt 0.634766 0.5
vt 0.634766 0.5
vt 0.634766 0.5
vt 0.611328 0.5
vt 0.611328 0.5
vt 0.611328 0.5
vt 0.611328 0.5
vt 0.634766 0.5
vt 0.634766 0.5
vt 0.634766 0.5
vt 0.634766 0.5
vt 0.634766 0.5
vt 0.634766 0.5
vt 0.634766 0.5
vt 0.634766 0.5
vt 0.634766 0.5
vt 0.634766 0.5
vt 0.634766 0.5
vt 0.634766 0.5
vt 0.611328 0.5
vt 0.611328 0.5
vt 0.611328 0.5
vt 0.611328 0.5
vt 0.634766 0.5
vt 0.634766 0.5
vt 0.634766 0.5
vt 0.634766 0.5
vt 0.611328 0.5
vt 0.611328 0.5
vt 0.611328 0.5
vt 0.611328 0.5
vt 0.634766 0.5
vt 0.634766 0.5
vt 0.634766 0.5
vt 0.634766 0.5
vt 0.611328 0.5
vt 0.611328 0.5
vt 0.611328 0.5
vt 0.611328 0.5
vt 0.634766 0.5
vt 0.634766 0.5
vt 0.634766 0.5
vt 0.634766 0.5
vt 0.634766 0.5
vt 0.634766 0.5
vt 0.634766 0.5
vt 0.634766 0.5
vt 0.611328 0.5
vt 0.611328 0.5
vt 0.611328 0.5
vt 0.611328 0.5
vt 0.634766 0.5
vt 0.634766 0.5
vt 0.634766 0.5
vt 0.634766 0.5
vt 0.634766 0.5
vt 0.634766 0.5
vt 0.634766 0.5
vt 0.634766 0.5
vt 0.634766 0.5
vt 0.634766 0.5
vt 0.634766 0.5
vt 0.634766 0.5
vt 0.634766 0.5
vt 0.634766 0.5
vt 0.634766 0.5
vt 0.634766 0.5
vt 0.611328 0.5
vt 0.611328 0.5
vt 0.611328 0.5
vt 0.611328 0.5
vt 0.611328 0.5
vt 0.611328 0.5
vt 0.611328 0.5
vt 0.611328 0.5
vt 0.611328 0.5
vt 0.611328 0.5
vt 0.611328 0.5
vt 0.611328 0.5
vt 0.611328 0.5
vt 0.611328 0.5
vt 0.611328 0.5
vt 0.611328 0.5
vt 0.611328 0.5
vt 0.611328 0.5
vt 0.611328 0.5
vt 0.611328 0.5
vt 0.611328 0.5
vt 0.611328 0.5
vt 0.634766 0.5
vt 0.634766 0.5
vt 0.634766 0.5
vt 0.634766 0.5
vt 0.634766 0.5
vt 0.634766 0.5
vt 0.634766 0.5
vt 0.634766 0.5
vt 0.634766 0.5
vt 0.634766 0.5
vt 0.634766 0.5
vt 0.634766 0.5
vt 0.634766 0.5
vt 0.634766 0.5
vt 0.634766 0.5
vt 0.634766 0.5
vt 0.634766 0.5
vt 0.634766 0.5
vt 0.634766 0.5
vt 0.634766 0.5
vt 0.634766 0.5
vt 0.634766 0.5
vt 0.634766 0.5
vt 0.634766 0.5
vt 0.634766 0.5
vt 0.634766 0.5
vt 0.611328 0.5
vt 0.611328 0.5
vt 0.611328 0.5
vt 0.611328 0.5
vt 0.611328 0.5
vt 0.611328 0.5
vt 0.611328 0.5
vt 0.611328 0.5
vt 0.611328 0.5
vt 0.611328 0.5
vt 0.611328 0.5
vt 0.611328 0.5
vt 0.611328 0.5
vt 0.611328 0.5
vt 0.611328 0.5
vt 0.611328 0.5
vt 0.611328 0.5
vt 0.611328 0.5
vt 0.611328 0.5
vt 0.611328 0.5
vt 0.611328 0.5
vt 0.611328 0.5
vt 0.634766 0.5
vt 0.634766 0.5
vt 0.634766 0.5
vt 0.634766 0.5
vt 0.634766 0.5
vt 0.634766 0.5
vt 0.634766 0.5
vt 0.634766 0.5
vt 0.634766 0.5
vt 0.634766 0.5
vt 0.634766 0.5
vt 0.634766 0.5
vt 0.634766 0.5
vt 0.634766 0.5
vt 0.634766 0.5
vt 0.634766 0.5
vt 0.634766 0.5
vt 0.634766 0.5
vt 0.634766 0.5
vt 0.634766 0.5
vt 0.634766 0.5
vt 0.634766 0.5
vt 0.634766 0.5
vt 0.634766 0.5
vt 0.634766 0.5
vt 0.634766 0.5
vn -1 0 0
vn -1 0 0
vn -1 0 0
vn -1 0 0
vn -1 0 0
vn -1 0 0
vn -1 0 0
vn -1 0 0
vn -1 0 0
vn -1 0 0
vn -1 0 0
vn -1 0 0
vn -1 0 0
vn -1 0 0
vn -1 0 0
vn -1 0 0
vn -1 0 0
vn -1 0 0
vn -1 0 0
vn -1 0 0
vn 1 0 0
vn 1 0 0
vn 1 0 0
vn 1 0 0
vn 1 0 0
vn 1 0 0
vn 1 0 0
vn 1 0 0
vn 1 0 0
vn 1 0 0
vn 1 0 0
vn 1 0 0
vn 1 0 0
vn 1 0 0
vn 1 0 0
vn 1 0 0
vn 1 0 0
vn 1 0 0
vn 1 0 0
vn 1 0 0
vn 0 0 1
vn 0 0 1
vn 0 0 1
vn 0 0 1
vn 0 0 1
vn 0 0 1
vn 0 0 1
vn 0 0 1
vn 0 0 1
vn 0 0 1
vn 0 0 1
vn 0 0 1
vn 0 0 1
vn 0 0 1
vn 0 0 1
vn 0 0 1
vn 0 0 1
vn 0 0 1
vn 0 0 1
vn 0 0 1
vn 0 0 -1
vn 0 0 -1
vn 0 0 -1
vn 0 0 -1
vn 0 0 -1
vn 0 0 -1
vn 0 0 -1
vn 0 0 -1
vn 0 0 -1
vn 0 0 -1
vn 0 0 -1
vn 0 0 -1
vn 0 -1 0
vn 0 -1 0
vn 0 -1 0
vn 0 -1 0
vn 0 -1 0
vn 0 -1 0
vn 0 -1 0
vn 0 -1 0
vn 0 -1 0
vn 0 -1 0
vn 0 -1 0
vn 0 -1 0
vn 0 -1 0
vn 0 -1 0
vn 0 -1 0
vn 0 -1 0
vn 0 -1 0
vn 0 -1 0
vn 0 -1 0
vn 0 -1 0
vn 0 -1 0
vn 0 -1 0
vn 0 -1 0
vn 0 -1 0
vn 0 -1 0
vn 0 -1 0
vn 0 -1 0
vn 0 -1 0
vn 0 -1 0
vn 0 -1 0
vn 0 -1 0
vn 0 -1 0
vn 0 -1 0
vn 0 -1 0
vn 0 -1 0
vn 0 -1 0
vn 0 -1 0
vn 0 -1 0
vn 0 -1 0
vn 0 -1 0
vn 0 -1 0
vn 0 -1 0
vn 0 -1 0
vn 0 -1 0
vn 0 -1 0
vn 0 -1 0
vn 0 -1 0
vn 0 -1 0
vn 0 1 0
vn 0 1 0
vn 0 1 0
vn 0 1 0
vn 0 1 0
vn 0 1 0
vn 0 1 0
vn 0 1 0
vn 0 1 0
vn 0 1 0
vn 0 1 0
vn 0 1 0
vn 0 1 0
vn 0 1 0
vn 0 1 0
vn 0 1 0
vn 0 1 0
vn 0 1 0
vn 0 1 0
vn 0 1 0
vn 0 1 0
vn 0 1 0
vn 0 1 0
vn 0 1 0
vn 0 1 0
vn 0 1 0
vn 0 1 0
vn 0 1 0
vn 0 1 0
vn 0 1 0
vn 0 1 0
vn 0 1 0
vn 0 1 0
vn 0 1 0
vn 0 1 0
vn 0 1 0
vn 0 1 0
vn 0 1 0
vn 0 1 0
vn 0 1 0
vn 0 1 0
vn 0 1 0
vn 0 1 0
vn 0 1 0
vn 0 1 0
vn 0 1 0
vn 0 1 0
vn 0 1 0
g default_0
f 3/3/3 2/2/2 1/1/1
f 3/3/3 1/1/1 4/4/4
f 7/7/7 6/6/6 5/5/5
f 7/7/7 5/5/5 8/8/8
f 11/11/11 10/10/10 9/9/9
f 11/11/11 9/9/9 12/12/12
f 15/15/15 14/14/14 13/13/13
f 15/15/15 13/13/13 16/16/16
f 19/19/19 18/18/18 17/17/17
f 19/19/19 17/17/17 20/20/20
f 23/23/23 22/22/22 21/21/21
f 23/23/23 24/24/24 22/22/22
f 27/27/27 26/26/26 25/25/25
f 27/27/27 28/28/28 26/26/26
f 31/31/31 30/30/30 29/29/29
f 31/31/31 32/32/32 30/30/30
f 35/35/35 34/34/34 33/33/33
f 35/35/35 36/36/36 34/34/34
f 39/39/39 38/38/38 37/37/37
f 39/39/39 40/40/40 38/38/38
f 43/43/43 42/42/42 41/41/41
f 43/43/43 41/41/41 44/44/44
f 47/47/47 46/46/46 45/45/45
f 47/47/47 45/45/45 48/48/48
f 51/51/51 50/50/50 49/49/49
f 51/51/51 49/49/49 52/52/52
f 55/55/55 54/54/54 53/53/53
f 55/55/55 53/53/53 56/56/56
f 59/59/59 58/58/58 57/57/57
f 59/59/59 57/57/57 60/60/60
f 63/63/63 62/62/62 61/61/61
f 63/63/63 64/64/64 62/62/62
f 67/67/67 66/66/66 65/65/65
f 67/67/67 68/68/68 66/66/66
f 71/71/71 70/70/70 69/69/69
f 71/71/71 72/72/72 70/70/70
f 75/75/75 74/74/74 73/73/73
f 73/73/73 74/74/74 76/76/76
f 77/77/77 73/73/73 76/76/76
f 78/78/78 73/73/73 77/77/77
f 79/79/79 77/77/77 76/76/76
f 79/79/79 76/76/76 80/80/80
f 79/79/79 80/80/80 81/81/81
f 82/82/82 79/79/79 81/81/81
f 82/82/82 83/83/83 79/79/79
f 84/84/84 82/82/82 81/81/81
f 84/84/84 85/85/85 82/82/82
f 84/84/84 81/81/81 86/86/86
f 81/81/81 80/80/80 87/87/87
f 81/81/81 87/87/87 88/88/88
f 81/81/81 88/88/88 89/89/89
f 81/81/81 89/89/89 90/90/90
f 89/89/89 88/88/88 91/91/91
f 89/89/89 91/91/91 92/92/92
f 92/92/92 91/91/91 93/93/93
f 92/92/92 93/93/93 94/94/94
f 97/97/97 96/96/96 95/95/95
f 97/97/97 95/95/95 98/98/98
f 100/100/100 98/98/98 99/99/99
f 100/100/100 99/99/99 101/101/101
f 103/103/103 102/102/102 100/100/100
f 103/103/103 100/100/100 104/104/104
f 107/107/107 106/106/106 105/105/105
f 105/105/105 106/106/106 108/108/108
f 109/109/109 105/105/105 108/108/108
f 109/109/109 108/108/108 110/110/110
f 113/113/113 112/112/112 111/111/111
f 113/113/113 111/111/111 114/114/114
f 111/111/111 115/115/115 114/114/114
f 111/111/111 116/116/116 115/115/115
f 119/119/119 118/118/118 117/117/117
f 119/119/119 117/117/117 120/120/120
f 123/123/123 122/122/122 121/121/121
f 122/122/122 124/124/124 121/121/121
f 125/125/125 124/124/124 122/122/122
f 126/126/126 125/125/125 122/122/122
f 127/127/127 124/124/124 125/125/125
f 127/127/127 128/128/128 124/124/124
f 127/127/127 129/129/129 128/128/128
f 130/130/130 129/129/129 127/127/127
f 130/130/130 127/127/127 131/131/131
f 132/132/132 129/129/129 130/130/130
f 132/132/132 130/130/130 133/133/133
f 132/132/132 134/134/134 129/129/129
f 129/129/129 135/135/135 128/128/128
f 129/129/129 136/136/136 135/135/135
f 129/129/129 137/137/137 136/136/136
f 129/129/129 138/138/138 137/137/137
f 137/137/137 139/139/139 136/136/136
f 137/137/137 140/140/140 139/139/139
f 140/140/140 141/141/141 139/139/139
f 140/140/140 142/142/142 141/141/141
f 145/145/145 144/144/144 143/143/143
f 145/145/145 146/146/146 144/144/144
f 148/148/148 147/147/147 146/146/146
f 148/148/148 149/149/149 147/147/147
f 151/151/151 148/148/148 150/150/150
f 151/151/151 152/152/152 148/148/148
f 155/155/155 154/154/154 153/153/153
f 154/154/154 156/156/156 153/153/153
f 157/157/157 156/156/156 154/154/154
f 157/157/157 158/158/158 156/156/156
f 161/161/161 160/160/160 159/159/159
f 161/161/161 162/162/162 160/160/160
f 160/160/160 162/162/162 163/163/163
f 160/160/160 163/163/163 164/164/164
f 167/167/167 166/166/166 165/165/165
f 167/167/167 168/168/168 166/166/166
