g default
v -0.5 0.2 -0.6
v -0.5 0 -0.6
v -0.5 0 -0.8
v -0.5 0.2 -0.8
v -0.5 0.2 -0.8
v -0.5 0 -0.8
v -0.5 0 -0.9
v -0.5 0.2 -0.9
v -0.4 0.2 -0.9
v -0.4 0 -0.9
v -0.4 0 -1
v -0.4 0.2 -1
v -0.3 0.2 -1
v -0.3 0 -1
v -0.3 0 -1.1
v -0.3 0.2 -1.1
v -0.2 0.2 -1.1
v -0.2 0 -1.1
v -0.2 0 -1.2
v -0.2 0.2 -1.2
v -0.1 0.2 -1.2
v -0.1 0 -1.2
v -0.1 0 -1.3
v -0.1 0.2 -1.3
v 0.1 0.1 1.1
v 0.1 0 1.2
v 0.1 0 1.1
v 0.1 0.2 1.2
v 0.1 0.2 1.1
v 0.1 0.1 1.1
v 0.1 0 1.1
v 0.1 0 0.9
v 0.1 0.1 0.9
v 0.1 0.1 0.9
v 0.1 0 0.9
v 0.1 0 -0.9
v 0.1 0.1 0.7
v 0.1 0.1 -0.7
v 0.1 0.1 -0.9
v 0.1 0.2 0.9
v 0.1 0.2 0.7
v 0.1 0.2 -0.7
v 0.1 0.2 -0.9
v 0.1 0.1 -0.9
v 0.1 0 -0.9
v 0.1 0 -1.1
v 0.1 0.1 -1.1
v 0.1 0.2 1.1
v 0.1 0.1 1.1
v 0.1 0.1 0.9
v 0.1 0.2 0.9
v 0.1 0.2 0.7
v 0.1 0.1 0.7
v 0.1 0.1 -0.7
v 0.1 0.2 -0.7
v 0.1 0.2 -0.9
v 0.1 0.1 -0.9
v 0.1 0.1 -1.1
v 0.1 0.2 -1.1
v 0.2 0.2 1.3
v 0.2 0 1.3
v 0.2 0 1.2
v 0.2 0.2 1.2
v -0.4 0 -0.6
v -0.4 0.2 -0.6
v -0.4 0 -0.7
v -0.4 0.2 -0.7
v -0.3 0 -0.7
v -0.3 0.2 -0.7
v -0.3 0 -0.8
v -0.3 0.2 -0.8
v -0.2 0 -0.8
v -0.2 0.2 -0.8
v -0.2 0 -0.9
v -0.2 0.2 -0.9
v -0.1 0 -0.9
v -0.1 0.2 -0.9
v -0.1 0 -1
v -0.1 0.2 -1
v 0 0 -1
v 0 0.2 -1
v 0 0 -1.1
v 0 0.2 -1.1
v 0.2 0 -1.2
v 0.2 0.2 -1.2
v 0.2 0 -1.3
v 0.2 0.2 -1.3
v 0.3 0 0.9
v 0.3 0.1 0.7
v 0.3 0 0.7
v 0.3 0.2 0.9
v 0.3 0.1 -0.7
v 0.3 0.1 -0.9
v 0.3 0 -0.9
v 0.3 0 -0.7
v 0.3 0.2 -0.9
v 0.3 0 0.7
v 0.3 0.1 0.7
v 0.3 0 -0.7
v 0.3 0.1 -0.7
v 0.3 0 -0.9
v 0.3 0.1 -0.9
v 0.3 0 -1.1
v 0.3 0.1 -1.1
v 0.3 0 -1.1
v 0.3 0.1 -1.1
v 0.3 0 -1.2
v 0.3 0.2 -1.2
v 0.3 0.2 -0.9
v 0.3 0.1 -0.9
v 0.3 0 1.1
v 0.3 0.2 1.1
v 0.3 0 0.9
v 0.3 0.2 0.9
v 0.4 0 1.2
v 0.4 0.2 1.2
v 0.4 0 1.1
v 0.4 0.2 1.1
v 0.5 0 1.3
v 0.5 0.2 1.3
v 0.5 0 1.2
v 0.5 0.2 1.2
v 0.5 0 1.3
v 0.2 0 1.3
v 0.2 0.2 1.3
v 0.5 0.2 1.3
v 0.2 0 1.2
v 0.1 0 1.2
v 0.1 0.2 1.2
v 0.2 0.2 1.2
v -0.4 0 -0.6
v -0.5 0 -0.6
v -0.5 0.2 -0.6
v -0.4 0.2 -0.6
v -0.3 0 -0.7
v -0.4 0 -0.7
v -0.4 0.2 -0.7
v -0.3 0.2 -0.7
v -0.2 0 -0.8
v -0.3 0 -0.8
v -0.3 0.2 -0.8
v -0.2 0.2 -0.8
v -0.1 0 -0.9
v -0.2 0 -0.9
v -0.2 0.2 -0.9
v -0.1 0.2 -0.9
v 0 0 -1
v -0.1 0 -1
v -0.1 0.2 -1
v 0 0.2 -1
v 0.1 0 -1.1
v 0 0 -1.1
v 0 0.2 -1.1
v 0.1 0.1 -1.1
v 0.1 0.2 -1.1
v 0.4 0 1.2
v 0.5 0 1.2
v 0.4 0.2 1.2
v 0.5 0.2 1.2
v 0.3 0 1.1
v 0.4 0 1.1
v 0.3 0.2 1.1
v 0.4 0.2 1.1
v -0.5 0 -0.9
v -0.4 0 -0.9
v -0.5 0.2 -0.9
v -0.4 0.2 -0.9
v -0.4 0 -1
v -0.3 0 -1
v -0.4 0.2 -1
v -0.3 0.2 -1
v -0.3 0 -1.1
v -0.2 0 -1.1
v -0.3 0.2 -1.1
v -0.2 0.2 -1.1
v -0.2 0 -1.2
v -0.1 0 -1.2
v -0.2 0.2 -1.2
v -0.1 0.2 -1.2
v 0.2 0 -1.2
v 0.3 0 -1.2
v 0.2 0.2 -1.2
v 0.3 0.2 -1.2
v -0.1 0 -1.3
v 0.2 0 -1.3
v -0.1 0.2 -1.3
v 0.2 0.2 -1.3
v 0.2 0 1.2
v 0.2 0 1.3
v 0.5 0 1.3
v 0.4 0 1.2
v 0.5 0 1.2
v 0.1 0 1.1
v 0.1 0 1.2
v 0.2 0 1.1
v 0.2 0 1.1
v 0.2 0 1.2
v 0.4 0 1.2
v 0.3 0 1.1
v 0.4 0 1.1
v 0.1 0 0.9
v 0.1 0 1.1
v 0.3 0 0.9
v 0.2 0 0.7
v 0.1 0 0.9
v 0.3 0 0.9
v 0.3 0 0.7
v 0.2 0 -0.7
v 0.1 0 -0.9
v 0.3 0 -0.7
v 0.2 0 -0.9
v 0.3 0 -0.9
v -0.4 0 -0.7
v -0.5 0 -0.6
v -0.4 0 -0.6
v -0.5 0 -0.8
v -0.3 0 -0.7
v -0.4 0 -0.8
v -0.3 0 -0.8
v -0.4 0 -0.9
v -0.2 0 -0.8
v -0.3 0 -0.9
v -0.2 0 -0.9
v 0.2 0 -0.7
v 0.2 0 0.7
v 0.3 0 0.7
v 0.3 0 -0.7
v -0.5 0 -0.9
v -0.5 0 -0.8
v -0.4 0 -0.8
v -0.4 0 -0.9
v -0.4 0 -1
v -0.4 0 -0.9
v -0.3 0 -0.9
v -0.3 0 -1
v -0.3 0 -1.1
v -0.2 0 -1
v -0.1 0 -1
v -0.2 0 -1.1
v -0.1 0 -1.1
v -0.2 0 -1.2
v 0 0 -1.1
v -0.1 0 -1.2
v 0 0 -1.2
v -0.1 0 -1.3
v 0.1 0 -1.2
v 0.2 0 -1.2
v 0.3 0 -1.1
v 0.2 0 -1.1
v 0.1 0 -1.1
v 0.2 0 -0.9
v 0.1 0 -0.9
v 0.3 0 -1.2
v 0.2 0 -1.3
v -0.3 0 -1
v -0.3 0 -0.9
v -0.2 0 -0.9
v -0.2 0 -1
v -0.2 0 -1
v -0.2 0 -0.9
v -0.1 0 -0.9
v -0.1 0 -1
v -0.1 0 -1.1
v 0 0 -1
v 0 0 -1.1
v 0 0 -1.2
v 0.1 0 -1.1
v 0.1 0 -1.2
v 0.2 0 -1.1
v 0.2 0 -0.9
v 0.3 0 -0.9
v 0.3 0 -1.1
v 0.2 0.2 1.3
v 0.2 0.2 1.2
v 0.5 0.2 1.3
v 0.4 0.2 1.2
v 0.5 0.2 1.2
v 0.1 0.2 1.2
v 0.1 0.2 1.1
v 0.2 0.2 1.1
v 0.2 0.2 1.2
v 0.2 0.2 1.1
v 0.4 0.2 1.2
v 0.3 0.2 1.1
v 0.4 0.2 1.1
v 0.2 0.2 0.9
v 0.3 0.2 0.9
v 0.1 0.2 1.1
v 0.1 0.2 0.9
v 0.2 0.2 1.1
v 0.2 0.2 0.9
v 0.1 0.2 0.9
v 0.1 0.2 0.7
v 0.2 0.2 0.9
v 0.3 0.2 0.9
v 0.2 0.2 0.7
v 0.2 0.2 -0.7
v 0.2 0.2 -0.9
v 0.1 0.2 -0.9
v 0.1 0.2 -0.7
v 0.3 0.2 -0.9
v -0.5 0.2 -0.6
v -0.4 0.2 -0.7
v -0.4 0.2 -0.6
v -0.5 0.2 -0.8
v -0.3 0.2 -0.7
v -0.4 0.2 -0.8
v -0.3 0.2 -0.8
v -0.4 0.2 -0.9
v -0.2 0.2 -0.8
v -0.3 0.2 -0.9
v -0.2 0.2 -0.9
v 0.1 0.2 0.7
v 0.1 0.2 -0.7
v 0.2 0.2 0.7
v 0.2 0.2 -0.7
v -0.5 0.2 -0.8
v -0.5 0.2 -0.9
v -0.4 0.2 -0.8
v -0.4 0.2 -0.9
v -0.4 0.2 -0.9
v -0.4 0.2 -1
v -0.3 0.2 -0.9
v -0.3 0.2 -1
v -0.3 0.2 -1.1
v -0.2 0.2 -1
v -0.1 0.2 -1
v -0.2 0.2 -1.1
v -0.1 0.2 -1.1
v -0.2 0.2 -1.2
v 0 0.2 -1.1
v -0.1 0.2 -1.2
v 0 0.2 -1.2
v -0.1 0.2 -1.3
v 0.1 0.2 -1.2
v 0.2 0.2 -1.2
v 0.2 0.2 -1.1
v 0.1 0.2 -1.1
v 0.3 0.2 -0.9
v 0.2 0.2 -0.9
v 0.3 0.2 -1.2
v 0.2 0.2 -1.3
v -0.3 0.2 -0.9
v -0.3 0.2 -1
v -0.2 0.2 -0.9
v -0.2 0.2 -1
v -0.2 0.2 -0.9
v -0.2 0.2 -1
v -0.1 0.2 -0.9
v -0.1 0.2 -1
v -0.1 0.2 -1.1
v 0 0.2 -1
v 0 0.2 -1.1
v 0 0.2 -1.2
v 0.1 0.2 -1.1
v 0.1 0.2 -1.2
v 0.1 0.2 -0.9
v 0.2 0.2 -0.9
v 0.2 0.2 -1.1
vt 0.970703 0.5
vt 0.970703 0.5
vt 0.970703 0.5
vt 0.970703 0.5
vt 0.974609 0.5
vt 0.974609 0.5
vt 0.974609 0.5
vt 0.974609 0.5
vt 0.978516 0.5
vt 0.978516 0.5
vt 0.978516 0.5
vt 0.978516 0.5
vt 0.978516 0.5
vt 0.978516 0.5
vt 0.978516 0.5
vt 0.978516 0.5
vt 0.978516 0.5
vt 0.978516 0.5
vt 0.978516 0.5
vt 0.978516 0.5
vt 0.978516 0.5
vt 0.978516 0.5
vt 0.978516 0.5
vt 0.978516 0.5
vt 0.970703 0.5
vt 0.970703 0.5
vt 0.970703 0.5
vt 0.970703 0.5
vt 0.970703 0.5
vt 0.978516 0.5
vt 0.978516 0.5
vt 0.978516 0.5
vt 0.978516 0.5
vt 0.853516 0.5
vt 0.853516 0.5
vt 0.853516 0.5
vt 0.853516 0.5
vt 0.853516 0.5
vt 0.853516 0.5
vt 0.853516 0.5
vt 0.853516 0.5
vt 0.853516 0.5
vt 0.853516 0.5
vt 0.978516 0.5
vt 0.978516 0.5
vt 0.978516 0.5
vt 0.978516 0.5
vt 0.982422 0.5
vt 0.982422 0.5
vt 0.982422 0.5
vt 0.982422 0.5
vt 0.861328 0.5
vt 0.861328 0.5
vt 0.861328 0.5
vt 0.861328 0.5
vt 0.982422 0.5
vt 0.982422 0.5
vt 0.982422 0.5
vt 0.982422 0.5
vt 0.970703 0.5
vt 0.970703 0.5
vt 0.970703 0.5
vt 0.970703 0.5
vt 0.970703 0.5
vt 0.970703 0.5
vt 0.970703 0.5
vt 0.970703 0.5
vt 0.970703 0.5
vt 0.970703 0.5
vt 0.970703 0.5
vt 0.970703 0.5
vt 0.970703 0.5
vt 0.970703 0.5
vt 0.970703 0.5
vt 0.970703 0.5
vt 0.982422 0.5
vt 0.982422 0.5
vt 0.982422 0.5
vt 0.982422 0.5
vt 0.982422 0.5
vt 0.982422 0.5
vt 0.982422 0.5
vt 0.982422 0.5
vt 0.978516 0.5
vt 0.978516 0.5
vt 0.978516 0.5
vt 0.978516 0.5
vt 0.853516 0.5
vt 0.853516 0.5
vt 0.853516 0.5
vt 0.853516 0.5
vt 0.853516 0.5
vt 0.853516 0.5
vt 0.853516 0.5
vt 0.853516 0.5
vt 0.853516 0.5
vt 0.861328 0.5
vt 0.861328 0.5
vt 0.861328 0.5
vt 0.861328 0.5
vt 0.982422 0.5
vt 0.982422 0.5
vt 0.982422 0.5
vt 0.982422 0.5
vt 0.978516 0.5
vt 0.978516 0.5
vt 0.978516 0.5
vt 0.978516 0.5
vt 0.978516 0.5
vt 0.978516 0.5
vt 0.978516 0.5
vt 0.978516 0.5
vt 0.978516 0.5
vt 0.978516 0.5
vt 0.978516 0.5
vt 0.978516 0.5
vt 0.978516 0.5
vt 0.978516 0.5
vt 0.970703 0.5
vt 0.970703 0.5
vt 0.970703 0.5
vt 0.970703 0.5
vt 0.970703 0.5
vt 0.970703 0.5
vt 0.970703 0.5
vt 0.970703 0.5
vt 0.970703 0.5
vt 0.970703 0.5
vt 0.970703 0.5
vt 0.970703 0.5
vt 0.970703 0.5
vt 0.970703 0.5
vt 0.970703 0.5
vt 0.970703 0.5
vt 0.970703 0.5
vt 0.970703 0.5
vt 0.970703 0.5
vt 0.970703 0.5
vt 0.970703 0.5
vt 0.970703 0.5
vt 0.970703 0.5
vt 0.970703 0.5
vt 0.982422 0.5
vt 0.982422 0.5
vt 0.982422 0.5
vt 0.982422 0.5
vt 0.982422 0.5
vt 0.982422 0.5
vt 0.982422 0.5
vt 0.982422 0.5
vt 0.982422 0.5
vt 0.982422 0.5
vt 0.982422 0.5
vt 0.982422 0.5
vt 0.982422 0.5
vt 0.970703 0.5
vt 0.970703 0.5
vt 0.970703 0.5
vt 0.970703 0.5
vt 0.978516 0.5
vt 0.978516 0.5
vt 0.978516 0.5
vt 0.978516 0.5
vt 0.974609 0.5
vt 0.974609 0.5
vt 0.974609 0.5
vt 0.974609 0.5
vt 0.978516 0.5
vt 0.978516 0.5
vt 0.978516 0.5
vt 0.978516 0.5
vt 0.978516 0.5
vt 0.978516 0.5
vt 0.978516 0.5
vt 0.978516 0.5
vt 0.978516 0.5
vt 0.978516 0.5
vt 0.978516 0.5
vt 0.978516 0.5
vt 0.978516 0.5
vt 0.978516 0.5
vt 0.978516 0.5
vt 0.978516 0.5
vt 0.978516 0.5
vt 0.978516 0.5
vt 0.978516 0.5
vt 0.978516 0.5
vt 0.970703 0.5
vt 0.970703 0.5
vt 0.970703 0.5
vt 0.970703 0.5
vt 0.970703 0.5
vt 0.970703 0.5
vt 0.970703 0.5
vt 0.970703 0.5
vt 0.978516 0.5
vt 0.978516 0.5
vt 0.978516 0.5
vt 0.978516 0.5
vt 0.978516 0.5
vt 0.978516 0.5
vt 0.978516 0.5
vt 0.978516 0.5
vt 0.853516 0.5
vt 0.853516 0.5
vt 0.853516 0.5
vt 0.853516 0.5
vt 0.853516 0.5
vt 0.853516 0.5
vt 0.853516 0.5
vt 0.853516 0.5
vt 0.853516 0.5
vt 0.970703 0.5
vt 0.970703 0.5
vt 0.970703 0.5
vt 0.970703 0.5
vt 0.970703 0.5
vt 0.970703 0.5
vt 0.970703 0.5
vt 0.970703 0.5
vt 0.970703 0.5
vt 0.970703 0.5
vt 0.970703 0.5
vt 0.861328 0.5
vt 0.861328 0.5
vt 0.861328 0.5
vt 0.861328 0.5
vt 0.974609 0.5
vt 0.974609 0.5
vt 0.974609 0.5
vt 0.974609 0.5
vt 0.978516 0.5
vt 0.978516 0.5
vt 0.978516 0.5
vt 0.978516 0.5
vt 0.978516 0.5
vt 0.978516 0.5
vt 0.978516 0.5
vt 0.978516 0.5
vt 0.978516 0.5
vt 0.978516 0.5
vt 0.978516 0.5
vt 0.978516 0.5
vt 0.978516 0.5
vt 0.978516 0.5
vt 0.978516 0.5
vt 0.978516 0.5
vt 0.978516 0.5
vt 0.978516 0.5
vt 0.978516 0.5
vt 0.978516 0.5
vt 0.978516 0.5
vt 0.978516 0.5
vt 0.978516 0.5
vt 0.974609 0.5
vt 0.974609 0.5
vt 0.974609 0.5
vt 0.974609 0.5
vt 0.982422 0.5
vt 0.982422 0.5
vt 0.982422 0.5
vt 0.982422 0.5
vt 0.982422 0.5
vt 0.982422 0.5
vt 0.982422 0.5
vt 0.982422 0.5
vt 0.982422 0.5
vt 0.982422 0.5
vt 0.982422 0.5
vt 0.982422 0.5
vt 0.982422 0.5
vt 0.982422 0.5
vt 0.970703 0.5
vt 0.970703 0.5
vt 0.970703 0.5
vt 0.970703 0.5
vt 0.970703 0.5
vt 0.970703 0.5
vt 0.970703 0.5
vt 0.970703 0.5
vt 0.978516 0.5
vt 0.978516 0.5
vt 0.978516 0.5
vt 0.978516 0.5
vt 0.978516 0.5
vt 0.978516 0.5
vt 0.978516 0.5
vt 0.982422 0.5
vt 0.982422 0.5
vt 0.982422 0.5
vt 0.982422 0.5
vt 0.853516 0.5
vt 0.853516 0.5
vt 0.853516 0.5
vt 0.853516 0.5
vt 0.853516 0.5
vt 0.853516 0.5
vt 0.853516 0.5
vt 0.853516 0.5
vt 0.853516 0.5
vt 0.853516 0.5
vt 0.970703 0.5
vt 0.970703 0.5
vt 0.970703 0.5
vt 0.970703 0.5
vt 0.970703 0.5
vt 0.970703 0.5
vt 0.970703 0.5
vt 0.970703 0.5
vt 0.970703 0.5
vt 0.970703 0.5
vt 0.970703 0.5
vt 0.861328 0.5
vt 0.861328 0.5
vt 0.861328 0.5
vt 0.861328 0.5
vt 0.974609 0.5
vt 0.974609 0.5
vt 0.974609 0.5
vt 0.974609 0.5
vt 0.978516 0.5
vt 0.978516 0.5
vt 0.978516 0.5
vt 0.978516 0.5
vt 0.978516 0.5
vt 0.978516 0.5
vt 0.978516 0.5
vt 0.978516 0.5
vt 0.978516 0.5
vt 0.978516 0.5
vt 0.978516 0.5
vt 0.978516 0.5
vt 0.978516 0.5
vt 0.978516 0.5
vt 0.978516 0.5
vt 0.978516 0.5
vt 0.978516 0.5
vt 0.978516 0.5
vt 0.978516 0.5
vt 0.978516 0.5
vt 0.978516 0.5
vt 0.978516 0.5
vt 0.974609 0.5
vt 0.974609 0.5
vt 0.974609 0.5
vt 0.974609 0.5
vt 0.982422 0.5
vt 0.982422 0.5
vt 0.982422 0.5
vt 0.982422 0.5
vt 0.982422 0.5
vt 0.982422 0.5
vt 0.982422 0.5
vt 0.982422 0.5
vt 0.982422 0.5
vt 0.982422 0.5
vt 0.982422 0.5
vt 0.982422 0.5
vt 0.982422 0.5
vn -1 0 0
vn -1 0 0
vn -1 0 0
vn -1 0 0
vn -1 0 0
vn -1 0 0
vn -1 0 0
vn -1 0 0
vn -1 0 0
vn -1 0 0
vn -1 0 0
vn -1 0 0
vn -1 0 0
vn -1 0 0
vn -1 0 0
vn -1 0 0
vn -1 0 0
vn -1 0 0
vn -1 0 0
vn -1 0 0
vn -1 0 0
vn -1 0 0
vn -1 0 0
vn -1 0 0
vn -1 0 0
vn -1 0 0
vn -1 0 0
vn -1 0 0
vn -1 0 0
vn -1 0 0
vn -1 0 0
vn -1 0 0
vn -1 0 0
vn -1 0 0
vn -1 0 0
vn -1 0 0
vn -1 0 0
vn -1 0 0
vn -1 0 0
vn -1 0 0
vn -1 0 0
vn -1 0 0
vn -1 0 0
vn -1 0 0
vn -1 0 0
vn -1 0 0
vn -1 0 0
vn -1 0 0
vn -1 0 0
vn -1 0 0
vn -1 0 0
vn -1 0 0
vn -1 0 0
vn -1 0 0
vn -1 0 0
vn -1 0 0
vn -1 0 0
vn -1 0 0
vn -1 0 0
vn -1 0 0
vn -1 0 0
vn -1 0 0
vn -1 0 0
vn 1 0 0
vn 1 0 0
vn 1 0 0
vn 1 0 0
vn 1 0 0
vn 1 0 0
vn 1 0 0
vn 1 0 0
vn 1 0 0
vn 1 0 0
vn 1 0 0
vn 1 0 0
vn 1 0 0
vn 1 0 0
vn 1 0 0
vn 1 0 0
vn 1 0 0
vn 1 0 0
vn 1 0 0
vn 1 0 0
vn 1 0 0
vn 1 0 0
vn 1 0 0
vn 1 0 0
vn 1 0 0
vn 1 0 0
vn 1 0 0
vn 1 0 0
vn 1 0 0
vn 1 0 0
vn 1 0 0
vn 1 0 0
vn 1 0 0
vn 1 0 0
vn 1 0 0
vn 1 0 0
vn 1 0 0
vn 1 0 0
vn 1 0 0
vn 1 0 0
vn 1 0 0
vn 1 0 0
vn 1 0 0
vn 1 0 0
vn 1 0 0
vn 1 0 0
vn 1 0 0
vn 1 0 0
vn 1 0 0
vn 1 0 0
vn 1 0 0
vn 1 0 0
vn 1 0 0
vn 1 0 0
vn 1 0 0
vn 1 0 0
vn 1 0 0
vn 1 0 0
vn 1 0 0
vn 0 0 1
vn 0 0 1
vn 0 0 1
vn 0 0 1
vn 0 0 1
vn 0 0 1
vn 0 0 1
vn 0 0 1
vn 0 0 1
vn 0 0 1
vn 0 0 1
vn 0 0 1
vn 0 0 1
vn 0 0 1
vn 0 0 1
vn 0 0 1
vn 0 0 1
vn 0 0 1
vn 0 0 1
vn 0 0 1
vn 0 0 1
vn 0 0 1
vn 0 0 1
vn 0 0 1
vn 0 0 1
vn 0 0 1
vn 0 0 1
vn 0 0 1
vn 0 0 1
vn 0 0 1
vn 0 0 1
vn 0 0 1
vn 0 0 1
vn 0 0 -1
vn 0 0 -1
vn 0 0 -1
vn 0 0 -1
vn 0 0 -1
vn 0 0 -1
vn 0 0 -1
vn 0 0 -1
vn 0 0 -1
vn 0 0 -1
vn 0 0 -1
vn 0 0 -1
vn 0 0 -1
vn 0 0 -1
vn 0 0 -1
vn 0 0 -1
vn 0 0 -1
vn 0 0 -1
vn 0 0 -1
vn 0 0 -1
vn 0 0 -1
vn 0 0 -1
vn 0 0 -1
vn 0 0 -1
vn 0 0 -1
vn 0 0 -1
vn 0 0 -1
vn 0 0 -1
vn 0 0 -1
vn 0 0 -1
vn 0 0 -1
vn 0 0 -1
vn 0 -1 0
vn 0 -1 0
vn 0 -1 0
vn 0 -1 0
vn 0 -1 0
vn 0 -1 0
vn 0 -1 0
vn 0 -1 0
vn 0 -1 0
vn 0 -1 0
vn 0 -1 0
vn 0 -1 0
vn 0 -1 0
vn 0 -1 0
vn 0 -1 0
vn 0 -1 0
vn 0 -1 0
vn 0 -1 0
vn 0 -1 0
vn 0 -1 0
vn 0 -1 0
vn 0 -1 0
vn 0 -1 0
vn 0 -1 0
vn 0 -1 0
vn 0 -1 0
vn 0 -1 0
vn 0 -1 0
vn 0 -1 0
vn 0 -1 0
vn 0 -1 0
vn 0 -1 0
vn 0 -1 0
vn 0 -1 0
vn 0 -1 0
vn 0 -1 0
vn 0 -1 0
vn 0 -1 0
vn 0 -1 0
vn 0 -1 0
vn 0 -1 0
vn 0 -1 0
vn 0 -1 0
vn 0 -1 0
vn 0 -1 0
vn 0 -1 0
vn 0 -1 0
vn 0 -1 0
vn 0 -1 0
vn 0 -1 0
vn 0 -1 0
vn 0 -1 0
vn 0 -1 0
vn 0 -1 0
vn 0 -1 0
vn 0 -1 0
vn 0 -1 0
vn 0 -1 0
vn 0 -1 0
vn 0 -1 0
vn 0 -1 0
vn 0 -1 0
vn 0 -1 0
vn 0 -1 0
vn 0 -1 0
vn 0 -1 0
vn 0 -1 0
vn 0 -1 0
vn 0 -1 0
vn 0 -1 0
vn 0 -1 0
vn 0 -1 0
vn 0 -1 0
vn 0 -1 0
vn 0 -1 0
vn 0 -1 0
vn 0 -1 0
vn 0 -1 0
vn 0 -1 0
vn 0 -1 0
vn 0 -1 0
vn 0 -1 0
vn 0 -1 0
vn 0 -1 0
vn 0 -1 0
vn 0 1 0
vn 0 1 0
vn 0 1 0
vn 0 1 0
vn 0 1 0
vn 0 1 0
vn 0 1 0
vn 0 1 0
vn 0 1 0
vn 0 1 0
vn 0 1 0
vn 0 1 0
vn 0 1 0
vn 0 1 0
vn 0 1 0
vn 0 1 0
vn 0 1 0
vn 0 1 0
vn 0 1 0
vn 0 1 0
vn 0 1 0
vn 0 1 0
vn 0 1 0
vn 0 1 0
vn 0 1 0
vn 0 1 0
vn 0 1 0
vn 0 1 0
vn 0 1 0
vn 0 1 0
vn 0 1 0
vn 0 1 0
vn 0 1 0
vn 0 1 0
vn 0 1 0
vn 0 1 0
vn 0 1 0
vn 0 1 0
vn 0 1 0
vn 0 1 0
vn 0 1 0
vn 0 1 0
vn 0 1 0
vn 0 1 0
vn 0 1 0
vn 0 1 0
vn 0 1 0
vn 0 1 0
vn 0 1 0
vn 0 1 0
vn 0 1 0
vn 0 1 0
vn 0 1 0
vn 0 1 0
vn 0 1 0
vn 0 1 0
vn 0 1 0
vn 0 1 0
vn 0 1 0
vn 0 1 0
vn 0 1 0
vn 0 1 0
vn 0 1 0
vn 0 1 0
vn 0 1 0
vn 0 1 0
vn 0 1 0
vn 0 1 0
vn 0 1 0
vn 0 1 0
vn 0 1 0
vn 0 1 0
vn 0 1 0
vn 0 1 0
vn 0 1 0
vn 0 1 0
vn 0 1 0
vn 0 1 0
vn 0 1 0
vn 0 1 0
vn 0 1 0
vn 0 1 0
vn 0 1 0
vn 0 1 0
vn 0 1 0
vn 0 1 0
vn 0 1 0
g default_0
f 3/3/3 2/2/2 1/1/1
f 3/3/3 1/1/1 4/4/4
f 7/7/7 6/6/6 5/5/5
f 7/7/7 5/5/5 8/8/8
f 11/11/11 10/10/10 9/9/9
f 11/11/11 9/9/9 12/12/12
f 15/15/15 14/14/14 13/13/13
f 15/15/15 13/13/13 16/16/16
f 19/19/19 18/18/18 17/17/17
f 19/19/19 17/17/17 20/20/20
f 23/23/23 22/22/22 21/21/21
f 23/23/23 21/21/21 24/24/24
f 27/27/27 26/26/26 25/25/25
f 25/25/25 26/26/26 28/28/28
f 25/25/25 28/28/28 29/29/29
f 32/32/32 31/31/31 30/30/30
f 32/32/32 30/30/30 33/33/33
f 36/36/36 35/35/35 34/34/34
f 36/36/36 34/34/34 37/37/37
f 36/36/36 37/37/37 38/38/38
f 36/36/36 38/38/38 39/39/39
f 37/37/37 34/34/34 40/40/40
f 37/37/37 40/40/40 41/41/41
f 39/39/39 38/38/38 42/42/42
f 39/39/39 42/42/42 43/43/43
f 46/46/46 45/45/45 44/44/44
f 46/46/46 44/44/44 47/47/47
f 50/50/50 49/49/49 48/48/48
f 50/50/50 48/48/48 51/51/51
f 54/54/54 53/53/53 52/52/52
f 54/54/54 52/52/52 55/55/55
f 58/58/58 57/57/57 56/56/56
f 58/58/58 56/56/56 59/59/59
f 62/62/62 61/61/61 60/60/60
f 62/62/62 60/60/60 63/63/63
f 66/66/66 65/65/65 64/64/64
f 66/66/66 67/67/67 65/65/65
f 70/70/70 69/69/69 68/68/68
f 70/70/70 71/71/71 69/69/69
f 74/74/74 73/73/73 72/72/72
f 74/74/74 75/75/75 73/73/73
f 78/78/78 77/77/77 76/76/76
f 78/78/78 79/79/79 77/77/77
f 82/82/82 81/81/81 80/80/80
f 82/82/82 83/83/83 81/81/81
f 86/86/86 85/85/85 84/84/84
f 86/86/86 87/87/87 85/85/85
f 90/90/90 89/89/89 88/88/88
f 89/89/89 91/91/91 88/88/88
f 92/92/92 91/91/91 89/89/89
f 93/93/93 91/91/91 92/92/92
f 94/94/94 93/93/93 92/92/92
f 94/94/94 92/92/92 95/95/95
f 93/93/93 96/96/96 91/91/91
f 99/99/99 98/98/98 97/97/97
f 99/99/99 100/100/100 98/98/98
f 103/103/103 102/102/102 101/101/101
f 103/103/103 104/104/104 102/102/102
f 107/107/107 106/106/106 105/105/105
f 107/107/107 108/108/108 106/106/106
f 106/106/106 108/108/108 109/109/109
f 106/106/106 109/109/109 110/110/110
f 113/113/113 112/112/112 111/111/111
f 113/113/113 114/114/114 112/112/112
f 117/117/117 116/116/116 115/115/115
f 117/117/117 118/118/118 116/116/116
f 121/121/121 120/120/120 119/119/119
f 121/121/121 122/122/122 120/120/120
f 125/125/125 124/124/124 123/123/123
f 125/125/125 123/123/123 126/126/126
f 129/129/129 128/128/128 127/127/127
f 129/129/129 127/127/127 130/130/130
f 133/133/133 132/132/132 131/131/131
f 133/133/133 131/131/131 134/134/134
f 137/137/137 136/136/136 135/135/135
f 137/137/137 135/135/135 138/138/138
f 141/141/141 140/140/140 139/139/139
f 141/141/141 139/139/139 142/142/142
f 145/145/145 144/144/144 143/143/143
f 145/145/145 143/143/143 146/146/146
f 149/149/149 148/148/148 147/147/147
f 149/149/149 147/147/147 150/150/150
f 153/153/153 152/152/152 151/151/151
f 153/153/153 151/151/151 154/154/154
f 153/153/153 154/154/154 155/155/155
f 158/158/158 157/157/157 156/156/156
f 158/158/158 159/159/159 157/157/157
f 162/162/162 161/161/161 160/160/160
f 162/162/162 163/163/163 161/161/161
f 166/166/166 165/165/165 164/164/164
f 166/166/166 167/167/167 165/165/165
f 170/170/170 169/169/169 168/168/168
f 170/170/170 171/171/171 169/169/169
f 174/174/174 173/173/173 172/172/172
f 174/174/174 175/175/175 173/173/173
f 178/178/178 177/177/177 176/176/176
f 178/178/178 179/179/179 177/177/177
f 182/182/182 181/181/181 180/180/180
f 182/182/182 183/183/183 181/181/181
f 186/186/186 185/185/185 184/184/184
f 186/186/186 187/187/187 185/185/185
f 190/190/190 189/189/189 188/188/188
f 190/190/190 188/188/188 191/191/191
f 190/190/190 191/191/191 192/192/192
f 188/188/188 194/194/194 193/193/193
f 188/188/188 193/193/193 195/195/195
f 198/198/198 197/197/197 196/196/196
f 198/198/198 196/196/196 199/199/199
f 198/198/198 199/199/199 200/200/200
f 199/199/199 196/196/196 201/201/201
f 196/196/196 202/202/202 201/201/201
f 199/199/199 201/201/201 203/203/203
f 206/206/206 205/205/205 204/204/204
f 206/206/206 204/204/204 207/207/207
f 204/204/204 205/205/205 208/208/208
f 208/208/208 205/205/205 209/209/209
f 210/210/210 208/208/208 209/209/209
f 210/210/210 209/209/209 211/211/211
f 210/210/210 211/211/211 212/212/212
f 215/215/215 214/214/214 213/213/213
f 213/213/213 214/214/214 216/216/216
f 217/217/217 213/213/213 216/216/216
f 217/217/217 216/216/216 218/218/218
f 217/217/217 218/218/218 219/219/219
f 219/219/219 218/218/218 220/220/220
f 221/221/221 219/219/219 220/220/220
f 221/221/221 220/220/220 222/222/222
f 221/221/221 222/222/222 223/223/223
f 226/226/226 225/225/225 224/224/224
f 226/226/226 224/224/224 227/227/227
f 230/230/230 229/229/229 228/228/228
f 230/230/230 228/228/228 231/231/231
f 234/234/234 233/233/233 232/232/232
f 234/234/234 232/232/232 235/235/235
f 237/237/237 235/235/235 236/236/236
f 238/238/238 237/237/237 236/236/236
f 238/238/238 236/236/236 239/239/239
f 238/238/238 239/239/239 240/240/240
f 240/240/240 239/239/239 241/241/241
f 242/242/242 240/240/240 241/241/241
f 242/242/242 241/241/241 243/243/243
f 242/242/242 243/243/243 244/244/244
f 244/244/244 243/243/243 245/245/245
f 246/246/246 244/244/244 245/245/245
f 247/247/247 246/246/246 245/245/245
f 248/248/248 246/246/246 247/247/247
f 248/248/248 249/249/249 246/246/246
f 249/249/249 250/250/250 246/246/246
f 251/251/251 250/250/250 249/249/249
f 251/251/251 252/252/252 250/250/250
f 248/248/248 247/247/247 253/253/253
f 247/247/247 245/245/245 254/254/254
f 257/257/257 256/256/256 255/255/255
f 257/257/257 255/255/255 258/258/258
f 261/261/261 260/260/260 259/259/259
f 261/261/261 259/259/259 262/262/262
f 264/264/264 262/262/262 263/263/263
f 264/264/264 263/263/263 265/265/265
f 267/267/267 265/265/265 266/266/266
f 267/267/267 266/266/266 268/268/268
f 271/271/271 270/270/270 269/269/269
f 271/271/271 269/269/269 272/272/272
f 275/275/275 274/274/274 273/273/273
f 275/275/275 276/276/276 274/274/274
f 275/275/275 277/277/277 276/276/276
f 274/274/274 279/279/279 278/278/278
f 274/274/274 280/280/280 279/279/279
f 283/283/283 282/282/282 281/281/281
f 283/283/283 284/284/284 282/282/282
f 283/283/283 285/285/285 284/284/284
f 284/284/284 286/286/286 282/282/282
f 284/284/284 287/287/287 286/286/286
f 290/290/290 289/289/289 288/288/288
f 290/290/290 291/291/291 289/289/289
f 294/294/294 293/293/293 292/292/292
f 295/295/295 293/293/293 294/294/294
f 295/295/295 296/296/296 293/293/293
f 295/295/295 297/297/297 296/296/296
f 295/295/295 298/298/298 297/297/297
f 297/297/297 298/298/298 299/299/299
f 297/297/297 299/299/299 300/300/300
f 295/295/295 301/301/301 298/298/298
f 304/304/304 303/303/303 302/302/302
f 303/303/303 305/305/305 302/302/302
f 306/306/306 305/305/305 303/303/303
f 306/306/306 307/307/307 305/305/305
f 306/306/306 308/308/308 307/307/307
f 308/308/308 309/309/309 307/307/307
f 310/310/310 309/309/309 308/308/308
f 310/310/310 311/311/311 309/309/309
f 310/310/310 312/312/312 311/311/311
f 315/315/315 314/314/314 313/313/313
f 315/315/315 316/316/316 314/314/314
f 319/319/319 318/318/318 317/317/317
f 319/319/319 320/320/320 318/318/318
f 323/323/323 322/322/322 321/321/321
f 323/323/323 324/324/324 322/322/322
f 326/326/326 325/325/325 324/324/324
f 327/327/327 325/325/325 326/326/326
f 327/327/327 328/328/328 325/325/325
f 327/327/327 329/329/329 328/328/328
f 329/329/329 330/330/330 328/328/328
f 331/331/331 330/330/330 329/329/329
f 331/331/331 332/332/332 330/330/330
f 331/331/331 333/333/333 332/332/332
f 333/333/333 334/334/334 332/332/332
f 335/335/335 334/334/334 333/333/333
f 336/336/336 334/334/334 335/335/335
f 337/337/337 336/336/336 335/335/335
f 337/337/337 335/335/335 338/338/338
f 339/339/339 336/336/336 337/337/337
f 339/339/339 337/337/337 340/340/340
f 339/339/339 341/341/341 336/336/336
f 336/336/336 342/342/342 334/334/334
f 345/345/345 344/344/344 343/343/343
f 345/345/345 346/346/346 344/344/344
f 349/349/349 348/348/348 347/347/347
f 349/349/349 350/350/350 348/348/348
f 352/352/352 351/351/351 350/350/350
f 352/352/352 353/353/353 351/351/351
f 355/355/355 354/354/354 353/353/353
f 355/355/355 356/356/356 354/354/354
f 358/358/358 355/355/355 357/357/357
f 358/358/358 359/359/359 355/355/355
