g default
v -0.25 0.1 0.15
v -0.25 0 0.15
v -0.25 0 -0.15
v -0.25 0.1 -0.15
v -0.25 0.3 -0.15
v -0.25 0.1 0.25
v -0.25 0.1 -0.25
v -0.25 0.3 -0.25
v -0.25 0.4 0.25
v -0.25 0.4 -0.15
v -0.25 0.3 -0.25
v -0.25 0.1 -0.25
v -0.25 0.1 -0.35
v -0.25 0.3 -0.35
v -0.15 0.1 0.25
v -0.15 0 0.25
v -0.15 0 0.15
v -0.15 0.1 0.15
v -0.15 0.4 0.35
v -0.15 0.1 0.35
v -0.15 0.4 0.25
v -0.15 0.1 -0.15
v -0.15 0 -0.15
v -0.15 0 -0.25
v -0.15 0.1 -0.25
v -0.15 0.1 -0.25
v -0.15 0 -0.25
v -0.15 0 -0.35
v -0.15 0.1 -0.35
v -0.15 0.4 -0.15
v -0.15 0.3 -0.15
v -0.15 0.3 -0.25
v -0.15 0.4 -0.25
v -0.15 0.4 -0.25
v -0.15 0.3 -0.25
v -0.15 0.3 -0.35
v -0.15 0.4 -0.35
v -0.05 0.5 0.15
v -0.05 0.4 0.15
v -0.05 0.4 -0.15
v -0.05 0.5 -0.15
v 0.05 0 0.05
v 0.05 0.1 -0.05
v 0.05 0 -0.25
v 0.05 0.1 -0.25
v 0.05 0.2 0.05
v 0.05 0.2 -0.05
v 0.05 0 -0.25
v 0.05 0.1 -0.25
v 0.05 0 -0.35
v 0.05 0.1 -0.35
v 0.05 0.3 -0.15
v 0.05 0.4 -0.15
v 0.05 0.3 -0.25
v 0.05 0.4 -0.25
v 0.05 0.3 -0.25
v 0.05 0.4 -0.25
v 0.05 0.3 -0.35
v 0.05 0.4 -0.35
v 0.15 0 0.25
v 0.15 0.1 0.25
v 0.15 0 0.05
v 0.15 0.1 0.05
v 0.15 0.1 0.35
v 0.15 0.4 0.35
v 0.15 0.4 0.25
v 0.15 0.1 -0.05
v 0.15 0.2 -0.05
v 0.15 0.1 -0.25
v 0.15 0.3 -0.15
v 0.15 0.3 -0.25
v 0.15 0.5 -0.05
v 0.15 0.5 -0.15
v 0.15 0.1 -0.25
v 0.15 0.3 -0.25
v 0.15 0.1 -0.35
v 0.15 0.3 -0.35
v 0.25 0.1 0.25
v 0.25 0.2 0.05
v 0.25 0.1 0.05
v 0.25 0.4 0.25
v 0.25 0.2 -0.05
v 0.25 0.4 0.15
v 0.25 0.5 0.15
v 0.25 0.5 -0.05
v 0.15 0.1 0.35
v -0.15 0.1 0.35
v -0.15 0.4 0.35
v 0.15 0.4 0.35
v -0.15 0.1 0.25
v -0.25 0.1 0.25
v -0.25 0.4 0.25
v -0.15 0.4 0.25
v 0.15 0 0.25
v -0.15 0 0.25
v 0.15 0.1 0.25
v 0.25 0.1 0.25
v 0.15 0.4 0.25
v 0.25 0.4 0.25
v -0.15 0 0.15
v -0.25 0 0.15
v -0.25 0.1 0.15
v -0.15 0.1 0.15
v 0.25 0.4 0.15
v -0.05 0.4 0.15
v -0.05 0.5 0.15
v 0.25 0.5 0.15
v 0.15 0.1 -0.05
v 0.05 0.1 -0.05
v 0.05 0.2 -0.05
v 0.15 0.2 -0.05
v 0.05 0 0.05
v 0.15 0 0.05
v 0.05 0.2 0.05
v 0.15 0.1 0.05
v 0.25 0.1 0.05
v 0.25 0.2 0.05
v 0.15 0.2 -0.05
v 0.25 0.2 -0.05
v 0.15 0.5 -0.05
v 0.25 0.5 -0.05
v -0.25 0 -0.15
v -0.15 0 -0.15
v -0.25 0.1 -0.15
v -0.15 0.1 -0.15
v -0.25 0.3 -0.15
v -0.15 0.3 -0.15
v -0.25 0.4 -0.15
v -0.15 0.4 -0.15
v -0.05 0.4 -0.15
v 0.05 0.4 -0.15
v -0.05 0.5 -0.15
v 0.15 0.5 -0.15
v 0.15 0.3 -0.15
v 0.05 0.3 -0.15
v -0.25 0.1 -0.35
v -0.15 0.1 -0.35
v -0.25 0.3 -0.35
v -0.15 0.3 -0.35
v 0.05 0 -0.35
v -0.15 0 -0.35
v -0.15 0.4 -0.35
v 0.05 0.1 -0.35
v 0.05 0.3 -0.35
v 0.05 0.4 -0.35
v 0.15 0.1 -0.35
v 0.15 0.3 -0.35
v -0.15 0 0.15
v -0.15 0 0.25
v 0.15 0 0.25
v 0.05 0 0.05
v -0.25 0 0.15
v 0.15 0 0.05
v -0.25 0 -0.15
v -0.15 0 -0.15
v -0.15 0 -0.25
v 0.05 0 -0.25
v -0.15 0 -0.35
v -0.15 0 -0.25
v 0.05 0 -0.25
v 0.05 0 -0.35
v -0.15 0.1 0.25
v -0.15 0.1 0.35
v 0.15 0.1 0.35
v 0.15 0.1 0.25
v -0.25 0.1 0.15
v -0.25 0.1 0.25
v -0.15 0.1 0.15
v 0.15 0.1 0.05
v 0.25 0.1 0.25
v 0.25 0.1 0.05
v -0.25 0.1 -0.25
v -0.25 0.1 -0.15
v -0.15 0.1 -0.15
v -0.15 0.1 -0.25
v 0.05 0.1 -0.25
v 0.05 0.1 -0.05
v 0.15 0.1 -0.05
v 0.15 0.1 -0.25
v -0.25 0.1 -0.35
v -0.25 0.1 -0.25
v -0.15 0.1 -0.25
v -0.15 0.1 -0.35
v 0.05 0.1 -0.35
v 0.05 0.1 -0.25
v 0.15 0.1 -0.25
v 0.15 0.1 -0.35
v 0.05 0.2 -0.05
v 0.05 0.2 0.05
v 0.25 0.2 0.05
v 0.15 0.2 -0.05
v 0.25 0.2 -0.05
v -0.25 0.3 -0.15
v -0.25 0.3 -0.25
v -0.15 0.3 -0.15
v -0.15 0.3 -0.25
v 0.05 0.3 -0.15
v 0.05 0.3 -0.25
v 0.15 0.3 -0.15
v 0.15 0.3 -0.25
v -0.25 0.3 -0.25
v -0.25 0.3 -0.35
v -0.15 0.3 -0.25
v -0.15 0.3 -0.35
v 0.05 0.3 -0.25
v 0.05 0.3 -0.35
v 0.15 0.3 -0.25
v 0.15 0.3 -0.35
v -0.15 0.4 0.35
v -0.15 0.4 0.25
v 0.15 0.4 0.35
v 0.15 0.4 0.25
v -0.05 0.4 0.15
v -0.25 0.4 0.25
v 0.25 0.4 0.25
v 0.25 0.4 0.15
v -0.25 0.4 -0.15
v -0.15 0.4 -0.15
v -0.05 0.4 -0.15
v -0.15 0.4 -0.25
v 0.05 0.4 -0.15
v 0.05 0.4 -0.25
v -0.15 0.4 -0.25
v -0.15 0.4 -0.35
v 0.05 0.4 -0.25
v 0.05 0.4 -0.35
v -0.05 0.5 0.15
v 0.15 0.5 -0.05
v 0.25 0.5 0.15
v 0.25 0.5 -0.05
v -0.05 0.5 -0.15
v 0.15 0.5 -0.15
vt 0.419922 0.5
vt 0.419922 0.5
vt 0.419922 0.5
vt 0.419922 0.5
vt 0.419922 0.5
vt 0.419922 0.5
vt 0.419922 0.5
vt 0.419922 0.5
vt 0.419922 0.5
vt 0.419922 0.5
vt 0.958984 0.5
vt 0.958984 0.5
vt 0.958984 0.5
vt 0.958984 0.5
vt 0.419922 0.5
vt 0.419922 0.5
vt 0.419922 0.5
vt 0.419922 0.5
vt 0.419922 0.5
vt 0.419922 0.5
vt 0.419922 0.5
vt 0.419922 0.5
vt 0.419922 0.5
vt 0.419922 0.5
vt 0.419922 0.5
vt 0.958984 0.5
vt 0.958984 0.5
vt 0.958984 0.5
vt 0.958984 0.5
vt 0.419922 0.5
vt 0.419922 0.5
vt 0.419922 0.5
vt 0.419922 0.5
vt 0.958984 0.5
vt 0.958984 0.5
vt 0.958984 0.5
vt 0.958984 0.5
vt 0.419922 0.5
vt 0.419922 0.5
vt 0.419922 0.5
vt 0.419922 0.5
vt 0.419922 0.5
vt 0.419922 0.5
vt 0.419922 0.5
vt 0.419922 0.5
vt 0.419922 0.5
vt 0.419922 0.5
vt 0.958984 0.5
vt 0.958984 0.5
vt 0.958984 0.5
vt 0.958984 0.5
vt 0.419922 0.5
vt 0.419922 0.5
vt 0.419922 0.5
vt 0.419922 0.5
vt 0.958984 0.5
vt 0.958984 0.5
vt 0.958984 0.5
vt 0.958984 0.5
vt 0.419922 0.5
vt 0.419922 0.5
vt 0.419922 0.5
vt 0.419922 0.5
vt 0.419922 0.5
vt 0.419922 0.5
vt 0.419922 0.5
vt 0.419922 0.5
vt 0.419922 0.5
vt 0.419922 0.5
vt 0.419922 0.5
vt 0.419922 0.5
vt 0.419922 0.5
vt 0.419922 0.5
vt 0.958984 0.5
vt 0.958984 0.5
vt 0.958984 0.5
vt 0.958984 0.5
vt 0.419922 0.5
vt 0.419922 0.5
vt 0.419922 0.5
vt 0.419922 0.5
vt 0.419922 0.5
vt 0.419922 0.5
vt 0.419922 0.5
vt 0.419922 0.5
vt 0.419922 0.5
vt 0.419922 0.5
vt 0.419922 0.5
vt 0.419922 0.5
vt 0.419922 0.5
vt 0.419922 0.5
vt 0.419922 0.5
vt 0.419922 0.5
vt 0.419922 0.5
vt 0.419922 0.5
vt 0.419922 0.5
vt 0.419922 0.5
vt 0.419922 0.5
vt 0.419922 0.5
vt 0.419922 0.5
vt 0.419922 0.5
vt 0.419922 0.5
vt 0.419922 0.5
vt 0.419922 0.5
vt 0.419922 0.5
vt 0.419922 0.5
vt 0.419922 0.5
vt 0.419922 0.5
vt 0.419922 0.5
vt 0.419922 0.5
vt 0.419922 0.5
vt 0.419922 0.5
vt 0.419922 0.5
vt 0.419922 0.5
vt 0.419922 0.5
vt 0.419922 0.5
vt 0.419922 0.5
vt 0.419922 0.5
vt 0.419922 0.5
vt 0.419922 0.5
vt 0.419922 0.5
vt 0.419922 0.5
vt 0.419922 0.5
vt 0.419922 0.5
vt 0.419922 0.5
vt 0.419922 0.5
vt 0.419922 0.5
vt 0.419922 0.5
vt 0.419922 0.5
vt 0.419922 0.5
vt 0.419922 0.5
vt 0.419922 0.5
vt 0.419922 0.5
vt 0.419922 0.5
vt 0.419922 0.5
vt 0.958984 0.5
vt 0.958984 0.5
vt 0.958984 0.5
vt 0.958984 0.5
vt 0.958984 0.5
vt 0.958984 0.5
vt 0.958984 0.5
vt 0.958984 0.5
vt 0.958984 0.5
vt 0.958984 0.5
vt 0.958984 0.5
vt 0.958984 0.5
vt 0.419922 0.5
vt 0.419922 0.5
vt 0.419922 0.5
vt 0.419922 0.5
vt 0.419922 0.5
vt 0.419922 0.5
vt 0.419922 0.5
vt 0.419922 0.5
vt 0.419922 0.5
vt 0.419922 0.5
vt 0.958984 0.5
vt 0.958984 0.5
vt 0.958984 0.5
vt 0.958984 0.5
vt 0.419922 0.5
vt 0.419922 0.5
vt 0.419922 0.5
vt 0.419922 0.5
vt 0.419922 0.5
vt 0.419922 0.5
vt 0.419922 0.5
vt 0.419922 0.5
vt 0.419922 0.5
vt 0.419922 0.5
vt 0.419922 0.5
vt 0.419922 0.5
vt 0.419922 0.5
vt 0.419922 0.5
vt 0.419922 0.5
vt 0.419922 0.5
vt 0.419922 0.5
vt 0.419922 0.5
vt 0.958984 0.5
vt 0.958984 0.5
vt 0.958984 0.5
vt 0.958984 0.5
vt 0.958984 0.5
vt 0.958984 0.5
vt 0.958984 0.5
vt 0.958984 0.5
vt 0.419922 0.5
vt 0.419922 0.5
vt 0.419922 0.5
vt 0.419922 0.5
vt 0.419922 0.5
vt 0.419922 0.5
vt 0.419922 0.5
vt 0.419922 0.5
vt 0.419922 0.5
vt 0.419922 0.5
vt 0.419922 0.5
vt 0.419922 0.5
vt 0.419922 0.5
vt 0.958984 0.5
vt 0.958984 0.5
vt 0.958984 0.5
vt 0.958984 0.5
vt 0.958984 0.5
vt 0.958984 0.5
vt 0.958984 0.5
vt 0.958984 0.5
vt 0.419922 0.5
vt 0.419922 0.5
vt 0.419922 0.5
vt 0.419922 0.5
vt 0.419922 0.5
vt 0.419922 0.5
vt 0.419922 0.5
vt 0.419922 0.5
vt 0.419922 0.5
vt 0.419922 0.5
vt 0.419922 0.5
vt 0.419922 0.5
vt 0.419922 0.5
vt 0.419922 0.5
vt 0.958984 0.5
vt 0.958984 0.5
vt 0.958984 0.5
vt 0.958984 0.5
vt 0.419922 0.5
vt 0.419922 0.5
vt 0.419922 0.5
vt 0.419922 0.5
vt 0.419922 0.5
vt 0.419922 0.5
vn -1 0 0
vn -1 0 0
vn -1 0 0
vn -1 0 0
vn -1 0 0
vn -1 0 0
vn -1 0 0
vn -1 0 0
vn -1 0 0
vn -1 0 0
vn -1 0 0
vn -1 0 0
vn -1 0 0
vn -1 0 0
vn -1 0 0
vn -1 0 0
vn -1 0 0
vn -1 0 0
vn -1 0 0
vn -1 0 0
vn -1 0 0
vn -1 0 0
vn -1 0 0
vn -1 0 0
vn -1 0 0
vn -1 0 0
vn -1 0 0
vn -1 0 0
vn -1 0 0
vn -1 0 0
vn -1 0 0
vn -1 0 0
vn -1 0 0
vn -1 0 0
vn -1 0 0
vn -1 0 0
vn -1 0 0
vn -1 0 0
vn -1 0 0
vn -1 0 0
vn -1 0 0
vn 1 0 0
vn 1 0 0
vn 1 0 0
vn 1 0 0
vn 1 0 0
vn 1 0 0
vn 1 0 0
vn 1 0 0
vn 1 0 0
vn 1 0 0
vn 1 0 0
vn 1 0 0
vn 1 0 0
vn 1 0 0
vn 1 0 0
vn 1 0 0
vn 1 0 0
vn 1 0 0
vn 1 0 0
vn 1 0 0
vn 1 0 0
vn 1 0 0
vn 1 0 0
vn 1 0 0
vn 1 0 0
vn 1 0 0
vn 1 0 0
vn 1 0 0
vn 1 0 0
vn 1 0 0
vn 1 0 0
vn 1 0 0
vn 1 0 0
vn 1 0 0
vn 1 0 0
vn 1 0 0
vn 1 0 0
vn 1 0 0
vn 1 0 0
vn 1 0 0
vn 1 0 0
vn 1 0 0
vn 1 0 0
vn 1 0 0
vn 0 0 1
vn 0 0 1
vn 0 0 1
vn 0 0 1
vn 0 0 1
vn 0 0 1
vn 0 0 1
vn 0 0 1
vn 0 0 1
vn 0 0 1
vn 0 0 1
vn 0 0 1
vn 0 0 1
vn 0 0 1
vn 0 0 1
vn 0 0 1
vn 0 0 1
vn 0 0 1
vn 0 0 1
vn 0 0 1
vn 0 0 1
vn 0 0 1
vn 0 0 1
vn 0 0 1
vn 0 0 1
vn 0 0 1
vn 0 0 -1
vn 0 0 -1
vn 0 0 -1
vn 0 0 -1
vn 0 0 -1
vn 0 0 -1
vn 0 0 -1
vn 0 0 -1
vn 0 0 -1
vn 0 0 -1
vn 0 0 -1
vn 0 0 -1
vn 0 0 -1
vn 0 0 -1
vn 0 0 -1
vn 0 0 -1
vn 0 0 -1
vn 0 0 -1
vn 0 0 -1
vn 0 0 -1
vn 0 0 -1
vn 0 0 -1
vn 0 0 -1
vn 0 0 -1
vn 0 0 -1
vn 0 0 -1
vn 0 0 -1
vn 0 0 -1
vn 0 0 -1
vn 0 0 -1
vn 0 0 -1
vn 0 0 -1
vn 0 0 -1
vn 0 0 -1
vn 0 0 -1
vn 0 0 -1
vn 0 -1 0
vn 0 -1 0
vn 0 -1 0
vn 0 -1 0
vn 0 -1 0
vn 0 -1 0
vn 0 -1 0
vn 0 -1 0
vn 0 -1 0
vn 0 -1 0
vn 0 -1 0
vn 0 -1 0
vn 0 -1 0
vn 0 -1 0
vn 0 -1 0
vn 0 -1 0
vn 0 -1 0
vn 0 -1 0
vn 0 -1 0
vn 0 -1 0
vn 0 -1 0
vn 0 -1 0
vn 0 -1 0
vn 0 -1 0
vn 0 -1 0
vn 0 -1 0
vn 0 -1 0
vn 0 -1 0
vn 0 -1 0
vn 0 -1 0
vn 0 -1 0
vn 0 -1 0
vn 0 -1 0
vn 0 -1 0
vn 0 -1 0
vn 0 -1 0
vn 0 -1 0
vn 0 -1 0
vn 0 -1 0
vn 0 -1 0
vn 0 -1 0
vn 0 -1 0
vn 0 -1 0
vn 0 -1 0
vn 0 -1 0
vn 0 1 0
vn 0 1 0
vn 0 1 0
vn 0 1 0
vn 0 1 0
vn 0 1 0
vn 0 1 0
vn 0 1 0
vn 0 1 0
vn 0 1 0
vn 0 1 0
vn 0 1 0
vn 0 1 0
vn 0 1 0
vn 0 1 0
vn 0 1 0
vn 0 1 0
vn 0 1 0
vn 0 1 0
vn 0 1 0
vn 0 1 0
vn 0 1 0
vn 0 1 0
vn 0 1 0
vn 0 1 0
vn 0 1 0
vn 0 1 0
vn 0 1 0
vn 0 1 0
vn 0 1 0
vn 0 1 0
vn 0 1 0
vn 0 1 0
vn 0 1 0
vn 0 1 0
vn 0 1 0
vn 0 1 0
vn 0 1 0
vn 0 1 0
vn 0 1 0
g default_0
f 3/3/3 2/2/2 1/1/1
f 3/3/3 1/1/1 4/4/4
f 4/4/4 1/1/1 5/5/5
f 1/1/1 6/6/6 5/5/5
f 7/7/7 4/4/4 5/5/5
f 7/7/7 5/5/5 8/8/8
f 5/5/5 6/6/6 9/9/9
f 5/5/5 9/9/9 10/10/10
f 13/13/13 12/12/12 11/11/11
f 13/13/13 11/11/11 14/14/14
f 17/17/17 16/16/16 15/15/15
f 17/17/17 15/15/15 18/18/18
f 15/15/15 20/20/20 19/19/19
f 15/15/15 19/19/19 21/21/21
f 24/24/24 23/23/23 22/22/22
f 24/24/24 22/22/22 25/25/25
f 28/28/28 27/27/27 26/26/26
f 28/28/28 26/26/26 29/29/29
f 32/32/32 31/31/31 30/30/30
f 32/32/32 30/30/30 33/33/33
f 36/36/36 35/35/35 34/34/34
f 36/36/36 34/34/34 37/37/37
f 40/40/40 39/39/39 38/38/38
f 40/40/40 38/38/38 41/41/41
f 44/44/44 43/43/43 42/42/42
f 44/44/44 45/45/45 43/43/43
f 43/43/43 46/46/46 42/42/42
f 43/43/43 47/47/47 46/46/46
f 50/50/50 49/49/49 48/48/48
f 50/50/50 51/51/51 49/49/49
f 54/54/54 53/53/53 52/52/52
f 54/54/54 55/55/55 53/53/53
f 58/58/58 57/57/57 56/56/56
f 58/58/58 59/59/59 57/57/57
f 62/62/62 61/61/61 60/60/60
f 62/62/62 63/63/63 61/61/61
f 61/61/61 65/65/65 64/64/64
f 61/61/61 66/66/66 65/65/65
f 69/69/69 68/68/68 67/67/67
f 69/69/69 70/70/70 68/68/68
f 69/69/69 71/71/71 70/70/70
f 70/70/70 72/72/72 68/68/68
f 70/70/70 73/73/73 72/72/72
f 76/76/76 75/75/75 74/74/74
f 76/76/76 77/77/77 75/75/75
f 80/80/80 79/79/79 78/78/78
f 79/79/79 81/81/81 78/78/78
f 82/82/82 81/81/81 79/79/79
f 82/82/82 83/83/83 81/81/81
f 82/82/82 84/84/84 83/83/83
f 82/82/82 85/85/85 84/84/84
f 88/88/88 87/87/87 86/86/86
f 88/88/88 86/86/86 89/89/89
f 92/92/92 91/91/91 90/90/90
f 92/92/92 90/90/90 93/93/93
f 90/90/90 95/95/95 94/94/94
f 90/90/90 94/94/94 96/96/96
f 98/98/98 96/96/96 97/97/97
f 98/98/98 97/97/97 99/99/99
f 102/102/102 101/101/101 100/100/100
f 102/102/102 100/100/100 103/103/103
f 106/106/106 105/105/105 104/104/104
f 106/106/106 104/104/104 107/107/107
f 110/110/110 109/109/109 108/108/108
f 110/110/110 108/108/108 111/111/111
f 114/114/114 113/113/113 112/112/112
f 114/114/114 115/115/115 113/113/113
f 114/114/114 116/116/116 115/115/115
f 114/114/114 117/117/117 116/116/116
f 120/120/120 119/119/119 118/118/118
f 120/120/120 121/121/121 119/119/119
f 124/124/124 123/123/123 122/122/122
f 124/124/124 125/125/125 123/123/123
f 128/128/128 127/127/127 126/126/126
f 128/128/128 129/129/129 127/127/127
f 132/132/132 131/131/131 130/130/130
f 132/132/132 133/133/133 131/131/131
f 131/131/131 133/133/133 134/134/134
f 131/131/131 134/134/134 135/135/135
f 138/138/138 137/137/137 136/136/136
f 138/138/138 139/139/139 137/137/137
f 139/139/139 140/140/140 137/137/137
f 137/137/137 140/140/140 141/141/141
f 142/142/142 140/140/140 139/139/139
f 142/142/142 143/143/143 140/140/140
f 142/142/142 144/144/144 143/143/143
f 142/142/142 145/145/145 144/144/144
f 144/144/144 146/146/146 143/143/143
f 144/144/144 147/147/147 146/146/146
f 150/150/150 149/149/149 148/148/148
f 150/150/150 148/148/148 151/151/151
f 148/148/148 152/152/152 151/151/151
f 150/150/150 151/151/151 153/153/153
f 151/151/151 152/152/152 154/154/154
f 151/151/151 154/154/154 155/155/155
f 151/151/151 155/155/155 156/156/156
f 151/151/151 156/156/156 157/157/157
f 160/160/160 159/159/159 158/158/158
f 160/160/160 158/158/158 161/161/161
f 164/164/164 163/163/163 162/162/162
f 164/164/164 162/162/162 165/165/165
f 162/162/162 167/167/167 166/166/166
f 162/162/162 166/166/166 168/168/168
f 170/170/170 165/165/165 169/169/169
f 170/170/170 169/169/169 171/171/171
f 174/174/174 173/173/173 172/172/172
f 174/174/174 172/172/172 175/175/175
f 178/178/178 177/177/177 176/176/176
f 178/178/178 176/176/176 179/179/179
f 182/182/182 181/181/181 180/180/180
f 182/182/182 180/180/180 183/183/183
f 186/186/186 185/185/185 184/184/184
f 186/186/186 184/184/184 187/187/187
f 190/190/190 189/189/189 188/188/188
f 190/190/190 188/188/188 191/191/191
f 190/190/190 191/191/191 192/192/192
f 195/195/195 194/194/194 193/193/193
f 195/195/195 196/196/196 194/194/194
f 199/199/199 198/198/198 197/197/197
f 199/199/199 200/200/200 198/198/198
f 203/203/203 202/202/202 201/201/201
f 203/203/203 204/204/204 202/202/202
f 207/207/207 206/206/206 205/205/205
f 207/207/207 208/208/208 206/206/206
f 211/211/211 210/210/210 209/209/209
f 211/211/211 212/212/212 210/210/210
f 212/212/212 213/213/213 210/210/210
f 210/210/210 213/213/213 214/214/214
f 215/215/215 213/213/213 212/212/212
f 215/215/215 216/216/216 213/213/213
f 213/213/213 217/217/217 214/214/214
f 213/213/213 218/218/218 217/217/217
f 213/213/213 219/219/219 218/218/218
f 219/219/219 220/220/220 218/218/218
f 221/221/221 220/220/220 219/219/219
f 221/221/221 222/222/222 220/220/220
f 225/225/225 224/224/224 223/223/223
f 225/225/225 226/226/226 224/224/224
f 229/229/229 228/228/228 227/227/227
f 229/229/229 230/230/230 228/228/228
f 228/228/228 231/231/231 227/227/227
f 228/228/228 232/232/232 231/231/231
