g default
v -0.45 0.5 0.25
v -0.45 0.1 0.25
v -0.45 0.1 -0.25
v -0.45 0.5 -0.05
v -0.45 0.5 -0.15
v -0.45 0.5 -0.25
v -0.45 0.7 -0.05
v -0.45 0.7 -0.15
v -0.45 1.3 0.05
v -0.45 0.7 0.05
v -0.45 0.7 -0.25
v -0.45 1.3 -0.25
v -0.35 0.1 0.25
v -0.35 0 0.35
v -0.35 0 -0.35
v -0.35 0.1 -0.25
v -0.35 0.5 0.25
v -0.35 0.5 -0.25
v -0.35 0.6 0.35
v -0.35 0.5 -0.05
v -0.35 0.6 0.15
v -0.35 0.7 0.05
v -0.35 0.7 -0.05
v -0.35 0.7 -0.25
v -0.35 0.7 -0.15
v -0.35 0.5 -0.15
v -0.35 1.3 0.15
v -0.35 1.3 0.05
v -0.35 1.3 -0.25
v -0.35 1.3 -0.35
v -0.25 1.4 0.05
v -0.25 1.3 0.05
v -0.25 1.3 -0.25
v -0.25 1.4 -0.25
v -0.15 0.9 0.25
v -0.15 0.6 0.25
v -0.15 0.6 0.15
v -0.15 0.9 0.15
v 0.05 0.4 -0.25
v 0.05 0.3 -0.25
v 0.05 0.3 -0.35
v 0.05 0.4 -0.35
v 0.05 0.7 0.35
v 0.05 0.6 0.35
v 0.05 0.6 0.25
v 0.05 0.7 0.25
v 0.15 0.3 -0.25
v 0.15 0.2 -0.25
v 0.15 0.2 -0.35
v 0.15 0.3 -0.35
v 0.15 0.5 0.35
v 0.15 0.3 0.35
v 0.15 0.3 0.25
v 0.15 0.5 0.25
v -0.05 0.2 -0.25
v -0.05 0.4 -0.25
v -0.05 0.2 -0.35
v -0.05 0.4 -0.35
v -0.05 0.8 0.25
v -0.05 0.9 0.25
v -0.05 0.8 0.15
v -0.05 0.9 0.15
v 0.05 0.3 0.35
v 0.05 0.5 0.35
v 0.05 0.3 0.25
v 0.05 0.5 0.25
v 0.05 0.7 0.25
v 0.05 0.8 0.25
v 0.05 0.7 0.15
v 0.05 0.8 0.15
v 0.05 1.3 0.05
v 0.05 1.4 0.05
v 0.05 1.3 -0.25
v 0.05 1.4 -0.25
v 0.15 0.7 0.15
v 0.15 1.3 0.15
v 0.15 0.7 0.05
v 0.15 1.3 0.05
v 0.15 0.5 -0.25
v 0.15 1.3 -0.25
v 0.15 0.5 -0.35
v 0.15 1.3 -0.35
v 0.25 0.5 -0.15
v 0.25 0.7 -0.15
v 0.25 0.5 -0.25
v 0.25 1.3 -0.25
v 0.25 1.3 0.05
v 0.25 0.7 0.05
v 0.35 0 0.35
v 0.35 0.4 0.35
v 0.35 0 -0.35
v 0.35 0.4 -0.15
v 0.35 0.5 -0.15
v 0.35 0.5 -0.35
v 0.45 0.4 0.35
v 0.45 0.7 0.35
v 0.45 0.4 -0.15
v 0.45 0.7 -0.15
v 0.05 0.3 0.35
v -0.35 0 0.35
v -0.35 0.6 0.35
v 0.05 0.5 0.35
v 0.05 0.6 0.35
v 0.15 0.3 0.35
v 0.15 0.5 0.35
v 0.05 0.7 0.35
v 0.35 0 0.35
v 0.35 0.4 0.35
v 0.45 0.4 0.35
v 0.45 0.7 0.35
v -0.35 0.1 0.25
v -0.45 0.1 0.25
v -0.45 0.5 0.25
v -0.35 0.5 0.25
v -0.05 0.8 0.25
v -0.15 0.6 0.25
v -0.15 0.9 0.25
v -0.05 0.9 0.25
v 0.05 0.6 0.25
v 0.05 0.7 0.25
v 0.05 0.8 0.25
v 0.15 0.3 0.25
v 0.05 0.3 0.25
v 0.05 0.5 0.25
v 0.15 0.5 0.25
v -0.15 0.6 0.15
v -0.35 0.6 0.15
v -0.35 1.3 0.15
v -0.15 0.9 0.15
v -0.05 0.9 0.15
v 0.15 1.3 0.15
v 0.05 0.8 0.15
v -0.05 0.8 0.15
v 0.15 0.7 0.15
v 0.05 0.7 0.15
v -0.35 0.7 0.05
v -0.45 0.7 0.05
v -0.45 1.3 0.05
v -0.35 1.3 0.05
v 0.05 1.3 0.05
v -0.25 1.3 0.05
v -0.25 1.4 0.05
v 0.05 1.4 0.05
v 0.25 0.7 0.05
v 0.15 0.7 0.05
v 0.15 1.3 0.05
v 0.25 1.3 0.05
v -0.35 0.5 -0.05
v -0.45 0.5 -0.05
v -0.45 0.7 -0.05
v -0.35 0.7 -0.05
v -0.45 0.5 -0.15
v -0.35 0.5 -0.15
v -0.45 0.7 -0.15
v -0.35 0.7 -0.15
v 0.25 0.5 -0.15
v 0.35 0.5 -0.15
v 0.25 0.7 -0.15
v 0.45 0.7 -0.15
v 0.45 0.4 -0.15
v 0.35 0.4 -0.15
v -0.45 0.1 -0.25
v -0.35 0.1 -0.25
v -0.45 0.5 -0.25
v -0.35 0.5 -0.25
v -0.45 0.7 -0.25
v -0.35 0.7 -0.25
v -0.45 1.3 -0.25
v -0.35 1.3 -0.25
v -0.05 0.2 -0.25
v 0.05 0.3 -0.25
v -0.05 0.4 -0.25
v 0.05 0.4 -0.25
v 0.15 0.2 -0.25
v 0.15 0.3 -0.25
v -0.25 1.3 -0.25
v 0.05 1.3 -0.25
v -0.25 1.4 -0.25
v 0.05 1.4 -0.25
v 0.15 0.5 -0.25
v 0.25 0.5 -0.25
v 0.15 1.3 -0.25
v 0.25 1.3 -0.25
v -0.35 0 -0.35
v -0.05 0.2 -0.35
v -0.35 1.3 -0.35
v -0.05 0.4 -0.35
v 0.05 0.4 -0.35
v 0.15 0.2 -0.35
v 0.15 0.5 -0.35
v 0.15 0.3 -0.35
v 0.05 0.3 -0.35
v 0.15 1.3 -0.35
v 0.35 0 -0.35
v 0.35 0.5 -0.35
v -0.35 0 -0.35
v -0.35 0 0.35
v 0.35 0 0.35
v 0.35 0 -0.35
v -0.45 0.1 -0.25
v -0.45 0.1 0.25
v -0.35 0.1 0.25
v -0.35 0.1 -0.25
v 0.05 0.3 -0.35
v 0.05 0.3 -0.25
v 0.15 0.3 -0.25
v 0.15 0.3 -0.35
v 0.35 0.4 -0.15
v 0.35 0.4 0.35
v 0.45 0.4 0.35
v 0.45 0.4 -0.15
v -0.05 0.4 -0.35
v -0.05 0.4 -0.25
v 0.05 0.4 -0.25
v 0.05 0.4 -0.35
v 0.05 0.5 0.25
v 0.05 0.5 0.35
v 0.15 0.5 0.35
v 0.15 0.5 0.25
v -0.45 0.7 -0.05
v -0.45 0.7 0.05
v -0.35 0.7 0.05
v -0.35 0.7 -0.05
v -0.45 0.7 -0.25
v -0.45 0.7 -0.15
v -0.35 0.7 -0.15
v -0.35 0.7 -0.25
v -0.05 0.2 -0.25
v -0.05 0.2 -0.35
v 0.15 0.2 -0.25
v 0.15 0.2 -0.35
v 0.05 0.3 0.35
v 0.05 0.3 0.25
v 0.15 0.3 0.35
v 0.15 0.3 0.25
v -0.45 0.5 0.25
v -0.45 0.5 -0.05
v -0.35 0.5 0.25
v -0.35 0.5 -0.05
v -0.45 0.5 -0.15
v -0.45 0.5 -0.25
v -0.35 0.5 -0.15
v -0.35 0.5 -0.25
v 0.25 0.5 -0.15
v 0.25 0.5 -0.25
v 0.35 0.5 -0.15
v 0.35 0.5 -0.35
v 0.15 0.5 -0.35
v 0.15 0.5 -0.25
v -0.35 0.6 0.35
v -0.15 0.6 0.25
v 0.05 0.6 0.35
v 0.05 0.6 0.25
v -0.35 0.6 0.15
v -0.15 0.6 0.15
v 0.05 0.7 0.35
v 0.05 0.7 0.25
v 0.45 0.7 0.35
v 0.05 0.7 0.15
v 0.15 0.7 0.15
v 0.15 0.7 0.05
v 0.25 0.7 0.05
v 0.25 0.7 -0.15
v 0.45 0.7 -0.15
v -0.05 0.8 0.25
v -0.05 0.8 0.15
v 0.05 0.8 0.25
v 0.05 0.8 0.15
v -0.15 0.9 0.25
v -0.15 0.9 0.15
v -0.05 0.9 0.25
v -0.05 0.9 0.15
v -0.35 1.3 0.15
v -0.35 1.3 0.05
v 0.15 1.3 0.15
v -0.25 1.3 0.05
v 0.05 1.3 0.05
v 0.15 1.3 0.05
v -0.45 1.3 -0.25
v -0.45 1.3 0.05
v -0.35 1.3 -0.25
v -0.25 1.3 -0.25
v 0.05 1.3 -0.25
v 0.25 1.3 0.05
v 0.15 1.3 -0.25
v 0.25 1.3 -0.25
v -0.35 1.3 -0.35
v 0.15 1.3 -0.35
v -0.25 1.4 0.05
v -0.25 1.4 -0.25
v 0.05 1.4 0.05
v 0.05 1.4 -0.25
vt 0.990234 0.5
vt 0.990234 0.5
vt 0.990234 0.5
vt 0.990234 0.5
vt 0.990234 0.5
vt 0.990234 0.5
vt 0.990234 0.5
vt 0.990234 0.5
vt 0.990234 0.5
vt 0.990234 0.5
vt 0.990234 0.5
vt 0.990234 0.5
vt 0.990234 0.5
vt 0.990234 0.5
vt 0.990234 0.5
vt 0.990234 0.5
vt 0.990234 0.5
vt 0.990234 0.5
vt 0.990234 0.5
vt 0.990234 0.5
vt 0.990234 0.5
vt 0.990234 0.5
vt 0.990234 0.5
vt 0.990234 0.5
vt 0.990234 0.5
vt 0.990234 0.5
vt 0.990234 0.5
vt 0.990234 0.5
vt 0.990234 0.5
vt 0.990234 0.5
vt 0.990234 0.5
vt 0.990234 0.5
vt 0.990234 0.5
vt 0.990234 0.5
vt 0.990234 0.5
vt 0.990234 0.5
vt 0.990234 0.5
vt 0.990234 0.5
vt 0.990234 0.5
vt 0.990234 0.5
vt 0.990234 0.5
vt 0.990234 0.5
vt 0.990234 0.5
vt 0.990234 0.5
vt 0.990234 0.5
vt 0.990234 0.5
vt 0.990234 0.5
vt 0.990234 0.5
vt 0.990234 0.5
vt 0.990234 0.5
vt 0.990234 0.5
vt 0.990234 0.5
vt 0.990234 0.5
vt 0.990234 0.5
vt 0.990234 0.5
vt 0.990234 0.5
vt 0.990234 0.5
vt 0.990234 0.5
vt 0.990234 0.5
vt 0.990234 0.5
vt 0.990234 0.5
vt 0.990234 0.5
vt 0.990234 0.5
vt 0.990234 0.5
vt 0.990234 0.5
vt 0.990234 0.5
vt 0.990234 0.5
vt 0.990234 0.5
vt 0.990234 0.5
vt 0.990234 0.5
vt 0.990234 0.5
vt 0.990234 0.5
vt 0.990234 0.5
vt 0.990234 0.5
vt 0.990234 0.5
vt 0.990234 0.5
vt 0.990234 0.5
vt 0.990234 0.5
vt 0.990234 0.5
vt 0.990234 0.5
vt 0.990234 0.5
vt 0.990234 0.5
vt 0.990234 0.5
vt 0.990234 0.5
vt 0.990234 0.5
vt 0.990234 0.5
vt 0.990234 0.5
vt 0.990234 0.5
vt 0.990234 0.5
vt 0.990234 0.5
vt 0.990234 0.5
vt 0.990234 0.5
vt 0.990234 0.5
vt 0.990234 0.5
vt 0.990234 0.5
vt 0.990234 0.5
vt 0.990234 0.5
vt 0.990234 0.5
vt 0.990234 0.5
vt 0.990234 0.5
vt 0.990234 0.5
vt 0.990234 0.5
vt 0.990234 0.5
vt 0.990234 0.5
vt 0.990234 0.5
vt 0.990234 0.5
vt 0.990234 0.5
vt 0.990234 0.5
vt 0.990234 0.5
vt 0.990234 0.5
vt 0.990234 0.5
vt 0.990234 0.5
vt 0.990234 0.5
vt 0.990234 0.5
vt 0.990234 0.5
vt 0.990234 0.5
vt 0.990234 0.5
vt 0.990234 0.5
vt 0.990234 0.5
vt 0.990234 0.5
vt 0.990234 0.5
vt 0.990234 0.5
vt 0.990234 0.5
vt 0.990234 0.5
vt 0.990234 0.5
vt 0.990234 0.5
vt 0.990234 0.5
vt 0.990234 0.5
vt 0.990234 0.5
vt 0.990234 0.5
vt 0.990234 0.5
vt 0.990234 0.5
vt 0.990234 0.5
vt 0.990234 0.5
vt 0.990234 0.5
vt 0.990234 0.5
vt 0.990234 0.5
vt 0.990234 0.5
vt 0.990234 0.5
vt 0.990234 0.5
vt 0.990234 0.5
vt 0.990234 0.5
vt 0.990234 0.5
vt 0.990234 0.5
vt 0.990234 0.5
vt 0.990234 0.5
vt 0.990234 0.5
vt 0.990234 0.5
vt 0.990234 0.5
vt 0.990234 0.5
vt 0.990234 0.5
vt 0.990234 0.5
vt 0.990234 0.5
vt 0.990234 0.5
vt 0.990234 0.5
vt 0.990234 0.5
vt 0.990234 0.5
vt 0.990234 0.5
vt 0.990234 0.5
vt 0.990234 0.5
vt 0.990234 0.5
vt 0.990234 0.5
vt 0.990234 0.5
vt 0.990234 0.5
vt 0.990234 0.5
vt 0.990234 0.5
vt 0.990234 0.5
vt 0.990234 0.5
vt 0.990234 0.5
vt 0.990234 0.5
vt 0.990234 0.5
vt 0.990234 0.5
vt 0.990234 0.5
vt 0.990234 0.5
vt 0.990234 0.5
vt 0.990234 0.5
vt 0.990234 0.5
vt 0.990234 0.5
vt 0.990234 0.5
vt 0.990234 0.5
vt 0.990234 0.5
vt 0.990234 0.5
vt 0.990234 0.5
vt 0.990234 0.5
vt 0.990234 0.5
vt 0.990234 0.5
vt 0.990234 0.5
vt 0.990234 0.5
vt 0.990234 0.5
vt 0.990234 0.5
vt 0.990234 0.5
vt 0.990234 0.5
vt 0.990234 0.5
vt 0.990234 0.5
vt 0.990234 0.5
vt 0.990234 0.5
vt 0.990234 0.5
vt 0.990234 0.5
vt 0.990234 0.5
vt 0.990234 0.5
vt 0.990234 0.5
vt 0.990234 0.5
vt 0.990234 0.5
vt 0.990234 0.5
vt 0.990234 0.5
vt 0.990234 0.5
vt 0.990234 0.5
vt 0.990234 0.5
vt 0.990234 0.5
vt 0.990234 0.5
vt 0.990234 0.5
vt 0.990234 0.5
vt 0.990234 0.5
vt 0.990234 0.5
vt 0.990234 0.5
vt 0.990234 0.5
vt 0.990234 0.5
vt 0.990234 0.5
vt 0.990234 0.5
vt 0.990234 0.5
vt 0.990234 0.5
vt 0.990234 0.5
vt 0.990234 0.5
vt 0.990234 0.5
vt 0.990234 0.5
vt 0.990234 0.5
vt 0.990234 0.5
vt 0.990234 0.5
vt 0.990234 0.5
vt 0.990234 0.5
vt 0.990234 0.5
vt 0.990234 0.5
vt 0.990234 0.5
vt 0.990234 0.5
vt 0.990234 0.5
vt 0.990234 0.5
vt 0.990234 0.5
vt 0.990234 0.5
vt 0.990234 0.5
vt 0.990234 0.5
vt 0.990234 0.5
vt 0.990234 0.5
vt 0.990234 0.5
vt 0.990234 0.5
vt 0.990234 0.5
vt 0.990234 0.5
vt 0.990234 0.5
vt 0.990234 0.5
vt 0.990234 0.5
vt 0.990234 0.5
vt 0.990234 0.5
vt 0.990234 0.5
vt 0.990234 0.5
vt 0.990234 0.5
vt 0.990234 0.5
vt 0.990234 0.5
vt 0.990234 0.5
vt 0.990234 0.5
vt 0.990234 0.5
vt 0.990234 0.5
vt 0.990234 0.5
vt 0.990234 0.5
vt 0.990234 0.5
vt 0.990234 0.5
vt 0.990234 0.5
vt 0.990234 0.5
vt 0.990234 0.5
vt 0.990234 0.5
vt 0.990234 0.5
vt 0.990234 0.5
vt 0.990234 0.5
vt 0.990234 0.5
vt 0.990234 0.5
vt 0.990234 0.5
vt 0.990234 0.5
vt 0.990234 0.5
vt 0.990234 0.5
vt 0.990234 0.5
vt 0.990234 0.5
vt 0.990234 0.5
vt 0.990234 0.5
vt 0.990234 0.5
vt 0.990234 0.5
vt 0.990234 0.5
vt 0.990234 0.5
vt 0.990234 0.5
vt 0.990234 0.5
vt 0.990234 0.5
vt 0.990234 0.5
vt 0.990234 0.5
vt 0.990234 0.5
vt 0.990234 0.5
vn -1 0 0
vn -1 0 0
vn -1 0 0
vn -1 0 0
vn -1 0 0
vn -1 0 0
vn -1 0 0
vn -1 0 0
vn -1 0 0
vn -1 0 0
vn -1 0 0
vn -1 0 0
vn -1 0 0
vn -1 0 0
vn -1 0 0
vn -1 0 0
vn -1 0 0
vn -1 0 0
vn -1 0 0
vn -1 0 0
vn -1 0 0
vn -1 0 0
vn -1 0 0
vn -1 0 0
vn -1 0 0
vn -1 0 0
vn -1 0 0
vn -1 0 0
vn -1 0 0
vn -1 0 0
vn -1 0 0
vn -1 0 0
vn -1 0 0
vn -1 0 0
vn -1 0 0
vn -1 0 0
vn -1 0 0
vn -1 0 0
vn -1 0 0
vn -1 0 0
vn -1 0 0
vn -1 0 0
vn -1 0 0
vn -1 0 0
vn -1 0 0
vn -1 0 0
vn -1 0 0
vn -1 0 0
vn -1 0 0
vn -1 0 0
vn -1 0 0
vn -1 0 0
vn -1 0 0
vn -1 0 0
vn 1 0 0
vn 1 0 0
vn 1 0 0
vn 1 0 0
vn 1 0 0
vn 1 0 0
vn 1 0 0
vn 1 0 0
vn 1 0 0
vn 1 0 0
vn 1 0 0
vn 1 0 0
vn 1 0 0
vn 1 0 0
vn 1 0 0
vn 1 0 0
vn 1 0 0
vn 1 0 0
vn 1 0 0
vn 1 0 0
vn 1 0 0
vn 1 0 0
vn 1 0 0
vn 1 0 0
vn 1 0 0
vn 1 0 0
vn 1 0 0
vn 1 0 0
vn 1 0 0
vn 1 0 0
vn 1 0 0
vn 1 0 0
vn 1 0 0
vn 1 0 0
vn 1 0 0
vn 1 0 0
vn 1 0 0
vn 1 0 0
vn 1 0 0
vn 1 0 0
vn 1 0 0
vn 1 0 0
vn 1 0 0
vn 1 0 0
vn 0 0 1
vn 0 0 1
vn 0 0 1
vn 0 0 1
vn 0 0 1
vn 0 0 1
vn 0 0 1
vn 0 0 1
vn 0 0 1
vn 0 0 1
vn 0 0 1
vn 0 0 1
vn 0 0 1
vn 0 0 1
vn 0 0 1
vn 0 0 1
vn 0 0 1
vn 0 0 1
vn 0 0 1
vn 0 0 1
vn 0 0 1
vn 0 0 1
vn 0 0 1
vn 0 0 1
vn 0 0 1
vn 0 0 1
vn 0 0 1
vn 0 0 1
vn 0 0 1
vn 0 0 1
vn 0 0 1
vn 0 0 1
vn 0 0 1
vn 0 0 1
vn 0 0 1
vn 0 0 1
vn 0 0 1
vn 0 0 1
vn 0 0 1
vn 0 0 1
vn 0 0 1
vn 0 0 1
vn 0 0 1
vn 0 0 1
vn 0 0 1
vn 0 0 1
vn 0 0 1
vn 0 0 1
vn 0 0 1
vn 0 0 1
vn 0 0 1
vn 0 0 1
vn 0 0 1
vn 0 0 -1
vn 0 0 -1
vn 0 0 -1
vn 0 0 -1
vn 0 0 -1
vn 0 0 -1
vn 0 0 -1
vn 0 0 -1
vn 0 0 -1
vn 0 0 -1
vn 0 0 -1
vn 0 0 -1
vn 0 0 -1
vn 0 0 -1
vn 0 0 -1
vn 0 0 -1
vn 0 0 -1
vn 0 0 -1
vn 0 0 -1
vn 0 0 -1
vn 0 0 -1
vn 0 0 -1
vn 0 0 -1
vn 0 0 -1
vn 0 0 -1
vn 0 0 -1
vn 0 0 -1
vn 0 0 -1
vn 0 0 -1
vn 0 0 -1
vn 0 0 -1
vn 0 0 -1
vn 0 0 -1
vn 0 0 -1
vn 0 0 -1
vn 0 0 -1
vn 0 0 -1
vn 0 0 -1
vn 0 0 -1
vn 0 0 -1
vn 0 0 -1
vn 0 0 -1
vn 0 0 -1
vn 0 0 -1
vn 0 -1 0
vn 0 -1 0
vn 0 -1 0
vn 0 -1 0
vn 0 -1 0
vn 0 -1 0
vn 0 -1 0
vn 0 -1 0
vn 0 -1 0
vn 0 -1 0
vn 0 -1 0
vn 0 -1 0
vn 0 -1 0
vn 0 -1 0
vn 0 -1 0
vn 0 -1 0
vn 0 -1 0
vn 0 -1 0
vn 0 -1 0
vn 0 -1 0
vn 0 -1 0
vn 0 -1 0
vn 0 -1 0
vn 0 -1 0
vn 0 -1 0
vn 0 -1 0
vn 0 -1 0
vn 0 -1 0
vn 0 -1 0
vn 0 -1 0
vn 0 -1 0
vn 0 -1 0
vn 0 1 0
vn 0 1 0
vn 0 1 0
vn 0 1 0
vn 0 1 0
vn 0 1 0
vn 0 1 0
vn 0 1 0
vn 0 1 0
vn 0 1 0
vn 0 1 0
vn 0 1 0
vn 0 1 0
vn 0 1 0
vn 0 1 0
vn 0 1 0
vn 0 1 0
vn 0 1 0
vn 0 1 0
vn 0 1 0
vn 0 1 0
vn 0 1 0
vn 0 1 0
vn 0 1 0
vn 0 1 0
vn 0 1 0
vn 0 1 0
vn 0 1 0
vn 0 1 0
vn 0 1 0
vn 0 1 0
vn 0 1 0
vn 0 1 0
vn 0 1 0
vn 0 1 0
vn 0 1 0
vn 0 1 0
vn 0 1 0
vn 0 1 0
vn 0 1 0
vn 0 1 0
vn 0 1 0
vn 0 1 0
vn 0 1 0
vn 0 1 0
vn 0 1 0
vn 0 1 0
vn 0 1 0
vn 0 1 0
vn 0 1 0
vn 0 1 0
vn 0 1 0
vn 0 1 0
vn 0 1 0
vn 0 1 0
vn 0 1 0
vn 0 1 0
vn 0 1 0
vn 0 1 0
vn 0 1 0
vn 0 1 0
vn 0 1 0
vn 0 1 0
vn 0 1 0
vn 0 1 0
g default_0
f 3/3/3 2/2/2 1/1/1
f 3/3/3 1/1/1 4/4/4
f 3/3/3 4/4/4 5/5/5
f 3/3/3 5/5/5 6/6/6
f 5/5/5 4/4/4 7/7/7
f 5/5/5 7/7/7 8/8/8
f 8/8/8 7/7/7 9/9/9
f 7/7/7 10/10/10 9/9/9
f 11/11/11 8/8/8 9/9/9
f 11/11/11 9/9/9 12/12/12
f 15/15/15 14/14/14 13/13/13
f 15/15/15 13/13/13 16/16/16
f 13/13/13 14/14/14 17/17/17
f 15/15/15 16/16/16 18/18/18
f 17/17/17 14/14/14 19/19/19
f 20/20/20 17/17/17 19/19/19
f 20/20/20 19/19/19 21/21/21
f 20/20/20 21/21/21 22/22/22
f 20/20/20 22/22/22 23/23/23
f 15/15/15 18/18/18 24/24/24
f 18/18/18 25/25/25 24/24/24
f 18/18/18 26/26/26 25/25/25
f 22/22/22 21/21/21 27/27/27
f 22/22/22 27/27/27 28/28/28
f 15/15/15 24/24/24 29/29/29
f 15/15/15 29/29/29 30/30/30
f 33/33/33 32/32/32 31/31/31
f 33/33/33 31/31/31 34/34/34
f 37/37/37 36/36/36 35/35/35
f 37/37/37 35/35/35 38/38/38
f 41/41/41 40/40/40 39/39/39
f 41/41/41 39/39/39 42/42/42
f 45/45/45 44/44/44 43/43/43
f 45/45/45 43/43/43 46/46/46
f 49/49/49 48/48/48 47/47/47
f 49/49/49 47/47/47 50/50/50
f 53/53/53 52/52/52 51/51/51
f 53/53/53 51/51/51 54/54/54
f 57/57/57 56/56/56 55/55/55
f 57/57/57 58/58/58 56/56/56
f 61/61/61 60/60/60 59/59/59
f 61/61/61 62/62/62 60/60/60
f 65/65/65 64/64/64 63/63/63
f 65/65/65 66/66/66 64/64/64
f 69/69/69 68/68/68 67/67/67
f 69/69/69 70/70/70 68/68/68
f 73/73/73 72/72/72 71/71/71
f 73/73/73 74/74/74 72/72/72
f 77/77/77 76/76/76 75/75/75
f 77/77/77 78/78/78 76/76/76
f 81/81/81 80/80/80 79/79/79
f 81/81/81 82/82/82 80/80/80
f 85/85/85 84/84/84 83/83/83
f 85/85/85 86/86/86 84/84/84
f 84/84/84 86/86/86 87/87/87
f 84/84/84 87/87/87 88/88/88
f 91/91/91 90/90/90 89/89/89
f 91/91/91 92/92/92 90/90/90
f 91/91/91 93/93/93 92/92/92
f 91/91/91 94/94/94 93/93/93
f 97/97/97 96/96/96 95/95/95
f 97/97/97 98/98/98 96/96/96
f 101/101/101 100/100/100 99/99/99
f 101/101/101 99/99/99 102/102/102
f 101/101/101 102/102/102 103/103/103
f 99/99/99 100/100/100 104/104/104
f 103/103/103 102/102/102 105/105/105
f 106/106/106 103/103/103 105/105/105
f 104/104/104 100/100/100 107/107/107
f 105/105/105 104/104/104 107/107/107
f 105/105/105 107/107/107 108/108/108
f 105/105/105 108/108/108 109/109/109
f 106/106/106 105/105/105 110/110/110
f 105/105/105 109/109/109 110/110/110
f 113/113/113 112/112/112 111/111/111
f 113/113/113 111/111/111 114/114/114
f 117/117/117 116/116/116 115/115/115
f 117/117/117 115/115/115 118/118/118
f 115/115/115 116/116/116 119/119/119
f 115/115/115 119/119/119 120/120/120
f 115/115/115 120/120/120 121/121/121
f 124/124/124 123/123/123 122/122/122
f 124/124/124 122/122/122 125/125/125
f 128/128/128 127/127/127 126/126/126
f 128/128/128 126/126/126 129/129/129
f 128/128/128 129/129/129 130/130/130
f 128/128/128 130/130/130 131/131/131
f 130/130/130 132/132/132 131/131/131
f 130/130/130 133/133/133 132/132/132
f 132/132/132 134/134/134 131/131/131
f 132/132/132 135/135/135 134/134/134
f 138/138/138 137/137/137 136/136/136
f 138/138/138 136/136/136 139/139/139
f 142/142/142 141/141/141 140/140/140
f 142/142/142 140/140/140 143/143/143
f 146/146/146 145/145/145 144/144/144
f 146/146/146 144/144/144 147/147/147
f 150/150/150 149/149/149 148/148/148
f 150/150/150 148/148/148 151/151/151
f 154/154/154 153/153/153 152/152/152
f 154/154/154 155/155/155 153/153/153
f 158/158/158 157/157/157 156/156/156
f 158/158/158 159/159/159 157/157/157
f 157/157/157 159/159/159 160/160/160
f 157/157/157 160/160/160 161/161/161
f 164/164/164 163/163/163 162/162/162
f 164/164/164 165/165/165 163/163/163
f 168/168/168 167/167/167 166/166/166
f 168/168/168 169/169/169 167/167/167
f 172/172/172 171/171/171 170/170/170
f 172/172/172 173/173/173 171/171/171
f 171/171/171 174/174/174 170/170/170
f 171/171/171 175/175/175 174/174/174
f 178/178/178 177/177/177 176/176/176
f 178/178/178 179/179/179 177/177/177
f 182/182/182 181/181/181 180/180/180
f 182/182/182 183/183/183 181/181/181
f 186/186/186 185/185/185 184/184/184
f 186/186/186 187/187/187 185/185/185
f 186/186/186 188/188/188 187/187/187
f 185/185/185 189/189/189 184/184/184
f 186/186/186 190/190/190 188/188/188
f 188/188/188 190/190/190 191/191/191
f 188/188/188 191/191/191 192/192/192
f 186/186/186 193/193/193 190/190/190
f 189/189/189 194/194/194 184/184/184
f 191/191/191 194/194/194 189/189/189
f 190/190/190 194/194/194 191/191/191
f 190/190/190 195/195/195 194/194/194
f 198/198/198 197/197/197 196/196/196
f 198/198/198 196/196/196 199/199/199
f 202/202/202 201/201/201 200/200/200
f 202/202/202 200/200/200 203/203/203
f 206/206/206 205/205/205 204/204/204
f 206/206/206 204/204/204 207/207/207
f 210/210/210 209/209/209 208/208/208
f 210/210/210 208/208/208 211/211/211
f 214/214/214 213/213/213 212/212/212
f 214/214/214 212/212/212 215/215/215
f 218/218/218 217/217/217 216/216/216
f 218/218/218 216/216/216 219/219/219
f 222/222/222 221/221/221 220/220/220
f 222/222/222 220/220/220 223/223/223
f 226/226/226 225/225/225 224/224/224
f 226/226/226 224/224/224 227/227/227
f 230/230/230 229/229/229 228/228/228
f 230/230/230 231/231/231 229/229/229
f 234/234/234 233/233/233 232/232/232
f 234/234/234 235/235/235 233/233/233
f 238/238/238 237/237/237 236/236/236
f 238/238/238 239/239/239 237/237/237
f 242/242/242 241/241/241 240/240/240
f 242/242/242 243/243/243 241/241/241
f 246/246/246 245/245/245 244/244/244
f 246/246/246 247/247/247 245/245/245
f 245/245/245 247/247/247 248/248/248
f 245/245/245 248/248/248 249/249/249
f 252/252/252 251/251/251 250/250/250
f 252/252/252 253/253/253 251/251/251
f 251/251/251 254/254/254 250/250/250
f 251/251/251 255/255/255 254/254/254
f 258/258/258 257/257/257 256/256/256
f 258/258/258 259/259/259 257/257/257
f 258/258/258 260/260/260 259/259/259
f 258/258/258 261/261/261 260/260/260
f 258/258/258 262/262/262 261/261/261
f 258/258/258 263/263/263 262/262/262
f 258/258/258 264/264/264 263/263/263
f 267/267/267 266/266/266 265/265/265
f 267/267/267 268/268/268 266/266/266
f 271/271/271 270/270/270 269/269/269
f 271/271/271 272/272/272 270/270/270
f 275/275/275 274/274/274 273/273/273
f 275/275/275 276/276/276 274/274/274
f 275/275/275 277/277/277 276/276/276
f 275/275/275 278/278/278 277/277/277
f 276/276/276 279/279/279 274/274/274
f 274/274/274 279/279/279 280/280/280
f 276/276/276 281/281/281 279/279/279
f 276/276/276 282/282/282 281/281/281
f 278/278/278 283/283/283 277/277/277
f 284/284/284 283/283/283 278/278/278
f 284/284/284 285/285/285 283/283/283
f 284/284/284 286/286/286 285/285/285
f 282/282/282 287/287/287 281/281/281
f 285/285/285 287/287/287 283/283/283
f 283/283/283 287/287/287 282/282/282
f 285/285/285 288/288/288 287/287/287
f 291/291/291 290/290/290 289/289/289
f 291/291/291 292/292/292 290/290/290
