g default
v -0.6 0.1 0.15
v -0.6 0 0.15
v -0.6 0 0.05
v -0.6 0.1 0.05
v -0.6 0.1 -0.05
v -0.6 0 -0.05
v -0.6 0 -0.15
v -0.6 0.1 -0.15
v -0.5 0.1 0.05
v -0.5 0 0.05
v -0.5 0 -0.05
v -0.5 0.1 -0.05
v 0.4 0.1 0.15
v 0.4 0 0.15
v 0.4 0 0.05
v 0.4 0.1 0.05
v 0.4 0.1 -0.05
v 0.4 0 -0.05
v 0.4 0 -0.15
v 0.4 0.1 -0.15
v -0.4 0 0.15
v -0.4 0.1 0.15
v -0.4 0 0.05
v -0.4 0.1 0.05
v -0.4 0 -0.05
v -0.4 0.1 -0.05
v -0.4 0 -0.15
v -0.4 0.1 -0.15
v 0.5 0 0.15
v 0.5 0.1 0.15
v 0.5 0 0.05
v 0.5 0.1 0.05
v 0.5 0 -0.05
v 0.5 0.1 -0.05
v 0.5 0 -0.15
v 0.5 0.1 -0.15
v 0.6 0 0.05
v 0.6 0.1 0.05
v 0.6 0 -0.05
v 0.6 0.1 -0.05
v -0.4 0 0.15
v -0.6 0 0.15
v -0.6 0.1 0.15
v -0.4 0.1 0.15
v 0.5 0 0.15
v 0.4 0 0.15
v 0.4 0.1 0.15
v 0.5 0.1 0.15
v 0.4 0 0.05
v -0.4 0 0.05
v -0.4 0.1 0.05
v 0.4 0.1 0.05
v 0.6 0 0.05
v 0.5 0 0.05
v 0.5 0.1 0.05
v 0.6 0.1 0.05
v -0.5 0 -0.05
v -0.6 0 -0.05
v -0.6 0.1 -0.05
v -0.5 0.1 -0.05
v -0.6 0 0.05
v -0.5 0 0.05
v -0.6 0.1 0.05
v -0.5 0.1 0.05
v -0.4 0 -0.05
v 0.4 0 -0.05
v -0.4 0.1 -0.05
v 0.4 0.1 -0.05
v 0.5 0 -0.05
v 0.6 0 -0.05
v 0.5 0.1 -0.05
v 0.6 0.1 -0.05
v -0.6 0 -0.15
v -0.4 0 -0.15
v -0.6 0.1 -0.15
v -0.4 0.1 -0.15
v 0.4 0 -0.15
v 0.5 0 -0.15
v 0.4 0.1 -0.15
v 0.5 0.1 -0.15
v -0.6 0 0.05
v -0.6 0 0.15
v -0.4 0 0.15
v -0.5 0 0.05
v -0.4 0 0.05
v 0.4 0 0.05
v 0.4 0 0.15
v 0.5 0 0.15
v 0.5 0 0.05
v 0.4 0 -0.05
v 0.6 0 0.05
v 0.5 0 -0.05
v 0.6 0 -0.05
v 0.4 0 -0.15
v 0.5 0 -0.15
v -0.5 0 -0.05
v -0.5 0 0.05
v -0.4 0 0.05
v 0.4 0 0.05
v -0.4 0 -0.05
v 0.4 0 -0.05
v -0.6 0 -0.15
v -0.5 0 -0.05
v -0.4 0 -0.05
v -0.6 0 -0.05
v -0.4 0 -0.15
v -0.6 0.1 0.15
v -0.6 0.1 0.05
v -0.4 0.1 0.15
v -0.5 0.1 0.05
v -0.4 0.1 0.05
v 0.4 0.1 0.15
v 0.4 0.1 0.05
v 0.5 0.1 0.15
v 0.5 0.1 0.05
v 0.4 0.1 -0.05
v 0.6 0.1 0.05
v 0.5 0.1 -0.05
v 0.6 0.1 -0.05
v 0.4 0.1 -0.15
v 0.5 0.1 -0.15
v -0.5 0.1 0.05
v -0.5 0.1 -0.05
v -0.4 0.1 0.05
v 0.4 0.1 0.05
v -0.4 0.1 -0.05
v 0.4 0.1 -0.05
v -0.5 0.1 -0.05
v -0.6 0.1 -0.15
v -0.4 0.1 -0.05
v -0.6 0.1 -0.05
v -0.4 0.1 -0.15
vt 0.0605469 0.5
vt 0.0605469 0.5
vt 0.0605469 0.5
vt 0.0605469 0.5
vt 0.0605469 0.5
vt 0.0605469 0.5
vt 0.0605469 0.5
vt 0.0605469 0.5
vt 0.0292969 0.5
vt 0.0292969 0.5
vt 0.0292969 0.5
vt 0.0292969 0.5
vt 0.0605469 0.5
vt 0.0605469 0.5
vt 0.0605469 0.5
vt 0.0605469 0.5
vt 0.0605469 0.5
vt 0.0605469 0.5
vt 0.0605469 0.5
vt 0.0605469 0.5
vt 0.0605469 0.5
vt 0.0605469 0.5
vt 0.0605469 0.5
vt 0.0605469 0.5
vt 0.0605469 0.5
vt 0.0605469 0.5
vt 0.0605469 0.5
vt 0.0605469 0.5
vt 0.0605469 0.5
vt 0.0605469 0.5
vt 0.0605469 0.5
vt 0.0605469 0.5
vt 0.0605469 0.5
vt 0.0605469 0.5
vt 0.0605469 0.5
vt 0.0605469 0.5
vt 0.0605469 0.5
vt 0.0605469 0.5
vt 0.0605469 0.5
vt 0.0605469 0.5
vt 0.0605469 0.5
vt 0.0605469 0.5
vt 0.0605469 0.5
vt 0.0605469 0.5
vt 0.0605469 0.5
vt 0.0605469 0.5
vt 0.0605469 0.5
vt 0.0605469 0.5
vt 0.0292969 0.5
vt 0.0292969 0.5
vt 0.0292969 0.5
vt 0.0292969 0.5
vt 0.0605469 0.5
vt 0.0605469 0.5
vt 0.0605469 0.5
vt 0.0605469 0.5
vt 0.0605469 0.5
vt 0.0605469 0.5
vt 0.0605469 0.5
vt 0.0605469 0.5
vt 0.0605469 0.5
vt 0.0605469 0.5
vt 0.0605469 0.5
vt 0.0605469 0.5
vt 0.0292969 0.5
vt 0.0292969 0.5
vt 0.0292969 0.5
vt 0.0292969 0.5
vt 0.0605469 0.5
vt 0.0605469 0.5
vt 0.0605469 0.5
vt 0.0605469 0.5
vt 0.0605469 0.5
vt 0.0605469 0.5
vt 0.0605469 0.5
vt 0.0605469 0.5
vt 0.0605469 0.5
vt 0.0605469 0.5
vt 0.0605469 0.5
vt 0.0605469 0.5
vt 0.0605469 0.5
vt 0.0605469 0.5
vt 0.0605469 0.5
vt 0.0605469 0.5
vt 0.0605469 0.5
vt 0.0605469 0.5
vt 0.0605469 0.5
vt 0.0605469 0.5
vt 0.0605469 0.5
vt 0.0605469 0.5
vt 0.0605469 0.5
vt 0.0605469 0.5
vt 0.0605469 0.5
vt 0.0605469 0.5
vt 0.0605469 0.5
vt 0.0292969 0.5
vt 0.0292969 0.5
vt 0.0292969 0.5
vt 0.0292969 0.5
vt 0.0292969 0.5
vt 0.0292969 0.5
vt 0.0605469 0.5
vt 0.0605469 0.5
vt 0.0605469 0.5
vt 0.0605469 0.5
vt 0.0605469 0.5
vt 0.0605469 0.5
vt 0.0605469 0.5
vt 0.0605469 0.5
vt 0.0605469 0.5
vt 0.0605469 0.5
vt 0.0605469 0.5
vt 0.0605469 0.5
vt 0.0605469 0.5
vt 0.0605469 0.5
vt 0.0605469 0.5
vt 0.0605469 0.5
vt 0.0605469 0.5
vt 0.0605469 0.5
vt 0.0605469 0.5
vt 0.0605469 0.5
vt 0.0292969 0.5
vt 0.0292969 0.5
vt 0.0292969 0.5
vt 0.0292969 0.5
vt 0.0292969 0.5
vt 0.0292969 0.5
vt 0.0605469 0.5
vt 0.0605469 0.5
vt 0.0605469 0.5
vt 0.0605469 0.5
vt 0.0605469 0.5
vn -1 0 0
vn -1 0 0
vn -1 0 0
vn -1 0 0
vn -1 0 0
vn -1 0 0
vn -1 0 0
vn -1 0 0
vn -1 0 0
vn -1 0 0
vn -1 0 0
vn -1 0 0
vn -1 0 0
vn -1 0 0
vn -1 0 0
vn -1 0 0
vn -1 0 0
vn -1 0 0
vn -1 0 0
vn -1 0 0
vn 1 0 0
vn 1 0 0
vn 1 0 0
vn 1 0 0
vn 1 0 0
vn 1 0 0
vn 1 0 0
vn 1 0 0
vn 1 0 0
vn 1 0 0
vn 1 0 0
vn 1 0 0
vn 1 0 0
vn 1 0 0
vn 1 0 0
vn 1 0 0
vn 1 0 0
vn 1 0 0
vn 1 0 0
vn 1 0 0
vn 0 0 1
vn 0 0 1
vn 0 0 1
vn 0 0 1
vn 0 0 1
vn 0 0 1
vn 0 0 1
vn 0 0 1
vn 0 0 1
vn 0 0 1
vn 0 0 1
vn 0 0 1
vn 0 0 1
vn 0 0 1
vn 0 0 1
vn 0 0 1
vn 0 0 1
vn 0 0 1
vn 0 0 1
vn 0 0 1
vn 0 0 -1
vn 0 0 -1
vn 0 0 -1
vn 0 0 -1
vn 0 0 -1
vn 0 0 -1
vn 0 0 -1
vn 0 0 -1
vn 0 0 -1
vn 0 0 -1
vn 0 0 -1
vn 0 0 -1
vn 0 0 -1
vn 0 0 -1
vn 0 0 -1
vn 0 0 -1
vn 0 0 -1
vn 0 0 -1
vn 0 0 -1
vn 0 0 -1
vn 0 -1 0
vn 0 -1 0
vn 0 -1 0
vn 0 -1 0
vn 0 -1 0
vn 0 -1 0
vn 0 -1 0
vn 0 -1 0
vn 0 -1 0
vn 0 -1 0
vn 0 -1 0
vn 0 -1 0
vn 0 -1 0
vn 0 -1 0
vn 0 -1 0
vn 0 -1 0
vn 0 -1 0
vn 0 -1 0
vn 0 -1 0
vn 0 -1 0
vn 0 -1 0
vn 0 -1 0
vn 0 -1 0
vn 0 -1 0
vn 0 -1 0
vn 0 -1 0
vn 0 1 0
vn 0 1 0
vn 0 1 0
vn 0 1 0
vn 0 1 0
vn 0 1 0
vn 0 1 0
vn 0 1 0
vn 0 1 0
vn 0 1 0
vn 0 1 0
vn 0 1 0
vn 0 1 0
vn 0 1 0
vn 0 1 0
vn 0 1 0
vn 0 1 0
vn 0 1 0
vn 0 1 0
vn 0 1 0
vn 0 1 0
vn 0 1 0
vn 0 1 0
vn 0 1 0
vn 0 1 0
vn 0 1 0
g default_0
f 3/3/3 2/2/2 1/1/1
f 3/3/3 1/1/1 4/4/4
f 7/7/7 6/6/6 5/5/5
f 7/7/7 5/5/5 8/8/8
f 11/11/11 10/10/10 9/9/9
f 11/11/11 9/9/9 12/12/12
f 15/15/15 14/14/14 13/13/13
f 15/15/15 13/13/13 16/16/16
f 19/19/19 18/18/18 17/17/17
f 19/19/19 17/17/17 20/20/20
f 23/23/23 22/22/22 21/21/21
f 23/23/23 24/24/24 22/22/22
f 27/27/27 26/26/26 25/25/25
f 27/27/27 28/28/28 26/26/26
f 31/31/31 30/30/30 29/29/29
f 31/31/31 32/32/32 30/30/30
f 35/35/35 34/34/34 33/33/33
f 35/35/35 36/36/36 34/34/34
f 39/39/39 38/38/38 37/37/37
f 39/39/39 40/40/40 38/38/38
f 43/43/43 42/42/42 41/41/41
f 43/43/43 41/41/41 44/44/44
f 47/47/47 46/46/46 45/45/45
f 47/47/47 45/45/45 48/48/48
f 51/51/51 50/50/50 49/49/49
f 51/51/51 49/49/49 52/52/52
f 55/55/55 54/54/54 53/53/53
f 55/55/55 53/53/53 56/56/56
f 59/59/59 58/58/58 57/57/57
f 59/59/59 57/57/57 60/60/60
f 63/63/63 62/62/62 61/61/61
f 63/63/63 64/64/64 62/62/62
f 67/67/67 66/66/66 65/65/65
f 67/67/67 68/68/68 66/66/66
f 71/71/71 70/70/70 69/69/69
f 71/71/71 72/72/72 70/70/70
f 75/75/75 74/74/74 73/73/73
f 75/75/75 76/76/76 74/74/74
f 79/79/79 78/78/78 77/77/77
f 79/79/79 80/80/80 78/78/78
f 83/83/83 82/82/82 81/81/81
f 83/83/83 81/81/81 84/84/84
f 83/83/83 84/84/84 85/85/85
f 88/88/88 87/87/87 86/86/86
f 88/88/88 86/86/86 89/89/89
f 89/89/89 86/86/86 90/90/90
f 91/91/91 89/89/89 90/90/90
f 91/91/91 90/90/90 92/92/92
f 91/91/91 92/92/92 93/93/93
f 92/92/92 90/90/90 94/94/94
f 92/92/92 94/94/94 95/95/95
f 98/98/98 97/97/97 96/96/96
f 99/99/99 98/98/98 96/96/96
f 99/99/99 96/96/96 100/100/100
f 99/99/99 100/100/100 101/101/101
f 104/104/104 103/103/103 102/102/102
f 103/103/103 105/105/105 102/102/102
f 104/104/104 102/102/102 106/106/106
f 109/109/109 108/108/108 107/107/107
f 109/109/109 110/110/110 108/108/108
f 109/109/109 111/111/111 110/110/110
f 114/114/114 113/113/113 112/112/112
f 114/114/114 115/115/115 113/113/113
f 115/115/115 116/116/116 113/113/113
f 117/117/117 116/116/116 115/115/115
f 117/117/117 118/118/118 116/116/116
f 117/117/117 119/119/119 118/118/118
f 118/118/118 120/120/120 116/116/116
f 118/118/118 121/121/121 120/120/120
f 124/124/124 123/123/123 122/122/122
f 125/125/125 123/123/123 124/124/124
f 125/125/125 126/126/126 123/123/123
f 125/125/125 127/127/127 126/126/126
f 130/130/130 129/129/129 128/128/128
f 128/128/128 129/129/129 131/131/131
f 130/130/130 132/132/132 129/129/129
