g default
v -0.8 3.8 0.8
v -0.8 3.3 0.8
v -0.8 3.3 -0.8
v -0.8 3.8 0.6
v -0.8 3.8 -0.6
v -0.8 3.8 -0.8
v -0.8 4 0.6
v -0.8 4 -0.6
v -0.7 3.3 0.7
v -0.7 3.2 0.7
v -0.7 3.2 -0.7
v -0.7 3.3 -0.7
v -0.6 3.2 0.6
v -0.6 3 0.6
v -0.6 3 -0.6
v -0.6 3.2 -0.6
v -0.6 4 0.8
v -0.6 3.8 0.8
v -0.6 3.8 0.6
v -0.6 4 0.6
v -0.6 4 -0.6
v -0.6 3.8 -0.6
v -0.6 3.8 -0.8
v -0.6 4 -0.8
v -0.5 0.5 0.5
v -0.5 0 0.5
v -0.5 0 -0.5
v -0.5 0.5 -0.5
v -0.5 3 0.5
v -0.5 2.7 0.5
v -0.5 2.7 -0.5
v -0.5 3 -0.5
v -0.4 0.6 0.4
v -0.4 0.5 0.4
v -0.4 0.5 -0.4
v -0.4 0.6 -0.4
v -0.4 2.7 0.4
v -0.4 2.4 0.4
v -0.4 2.4 -0.4
v -0.4 2.7 -0.4
v -0.3 2.4 0.3
v -0.3 0.6 0.3
v -0.3 0.6 -0.3
v -0.3 2.4 -0.3
v 0.3 0.6 0.3
v 0.3 2.4 0.3
v 0.3 0.6 -0.3
v 0.3 2.4 -0.3
v 0.4 0.5 0.4
v 0.4 0.6 0.4
v 0.4 0.5 -0.4
v 0.4 0.6 -0.4
v 0.4 2.4 0.4
v 0.4 2.7 0.4
v 0.4 2.4 -0.4
v 0.4 2.7 -0.4
v 0.5 0 0.5
v 0.5 0.5 0.5
v 0.5 0 -0.5
v 0.5 0.5 -0.5
v 0.5 2.7 0.5
v 0.5 3 0.5
v 0.5 2.7 -0.5
v 0.5 3 -0.5
v 0.6 3 0.6
v 0.6 3.2 0.6
v 0.6 3 -0.6
v 0.6 3.2 -0.6
v 0.6 3.8 0.8
v 0.6 4 0.8
v 0.6 3.8 0.6
v 0.6 4 0.6
v 0.6 3.8 -0.6
v 0.6 4 -0.6
v 0.6 3.8 -0.8
v 0.6 4 -0.8
v 0.7 3.2 0.7
v 0.7 3.3 0.7
v 0.7 3.2 -0.7
v 0.7 3.3 -0.7
v 0.8 3.3 0.8
v 0.8 3.8 0.8
v 0.8 3.3 -0.8
v 0.8 3.8 0.6
v 0.8 3.8 -0.6
v 0.8 3.8 -0.8
v 0.8 4 0.6
v 0.8 4 -0.6
v -0.6 3.8 0.8
v -0.8 3.3 0.8
v -0.8 3.8 0.8
v 0.6 3.8 0.8
v -0.6 4 0.8
v 0.6 4 0.8
v 0.8 3.3 0.8
v 0.8 3.8 0.8
v 0.7 3.2 0.7
v -0.7 3.2 0.7
v -0.7 3.3 0.7
v 0.7 3.3 0.7
v -0.6 3.8 0.6
v -0.8 3.8 0.6
v -0.8 4 0.6
v -0.6 4 0.6
v 0.6 3 0.6
v -0.6 3 0.6
v -0.6 3.2 0.6
v 0.6 3.2 0.6
v 0.8 3.8 0.6
v 0.6 3.8 0.6
v 0.6 4 0.6
v 0.8 4 0.6
v 0.5 0 0.5
v -0.5 0 0.5
v -0.5 0.5 0.5
v 0.5 0.5 0.5
v 0.5 2.7 0.5
v -0.5 2.7 0.5
v -0.5 3 0.5
v 0.5 3 0.5
v 0.4 0.5 0.4
v -0.4 0.5 0.4
v -0.4 0.6 0.4
v 0.4 0.6 0.4
v 0.4 2.4 0.4
v -0.4 2.4 0.4
v -0.4 2.7 0.4
v 0.4 2.7 0.4
v 0.3 0.6 0.3
v -0.3 0.6 0.3
v -0.3 2.4 0.3
v 0.3 2.4 0.3
v -0.3 0.6 -0.3
v 0.3 0.6 -0.3
v -0.3 2.4 -0.3
v 0.3 2.4 -0.3
v -0.4 0.5 -0.4
v 0.4 0.5 -0.4
v -0.4 0.6 -0.4
v 0.4 0.6 -0.4
v -0.4 2.4 -0.4
v 0.4 2.4 -0.4
v -0.4 2.7 -0.4
v 0.4 2.7 -0.4
v -0.5 0 -0.5
v 0.5 0 -0.5
v -0.5 0.5 -0.5
v 0.5 0.5 -0.5
v -0.5 2.7 -0.5
v 0.5 2.7 -0.5
v -0.5 3 -0.5
v 0.5 3 -0.5
v -0.8 3.8 -0.6
v -0.6 3.8 -0.6
v -0.8 4 -0.6
v -0.6 4 -0.6
v -0.6 3 -0.6
v 0.6 3 -0.6
v -0.6 3.2 -0.6
v 0.6 3.2 -0.6
v 0.6 3.8 -0.6
v 0.8 3.8 -0.6
v 0.6 4 -0.6
v 0.8 4 -0.6
v -0.7 3.2 -0.7
v 0.7 3.2 -0.7
v -0.7 3.3 -0.7
v 0.7 3.3 -0.7
v -0.8 3.3 -0.8
v -0.6 3.8 -0.8
v -0.8 3.8 -0.8
v 0.6 3.8 -0.8
v -0.6 4 -0.8
v 0.6 4 -0.8
v 0.8 3.3 -0.8
v 0.8 3.8 -0.8
v -0.5 0 -0.5
v -0.5 0 0.5
v 0.5 0 0.5
v 0.5 0 -0.5
v -0.3 2.4 0.3
v -0.4 2.4 0.4
v 0.4 2.4 0.4
v 0.3 2.4 0.3
v -0.3 2.4 -0.3
v 0.3 2.4 -0.3
v -0.4 2.4 -0.4
v 0.4 2.4 -0.4
v -0.4 2.7 0.4
v -0.5 2.7 0.5
v 0.5 2.7 0.5
v 0.4 2.7 0.4
v -0.4 2.7 -0.4
v 0.4 2.7 -0.4
v -0.5 2.7 -0.5
v 0.5 2.7 -0.5
v -0.5 3 0.5
v -0.6 3 0.6
v 0.6 3 0.6
v 0.5 3 0.5
v -0.5 3 -0.5
v 0.5 3 -0.5
v -0.6 3 -0.6
v 0.6 3 -0.6
v -0.6 3.2 0.6
v -0.7 3.2 0.7
v 0.7 3.2 0.7
v 0.6 3.2 0.6
v -0.6 3.2 -0.6
v 0.6 3.2 -0.6
v -0.7 3.2 -0.7
v 0.7 3.2 -0.7
v -0.7 3.3 0.7
v -0.8 3.3 0.8
v 0.8 3.3 0.8
v 0.7 3.3 0.7
v -0.7 3.3 -0.7
v 0.7 3.3 -0.7
v -0.8 3.3 -0.8
v 0.8 3.3 -0.8
v -0.5 0.5 0.5
v -0.4 0.5 0.4
v 0.5 0.5 0.5
v 0.4 0.5 0.4
v -0.4 0.5 -0.4
v 0.4 0.5 -0.4
v -0.5 0.5 -0.5
v 0.5 0.5 -0.5
v -0.4 0.6 0.4
v -0.3 0.6 0.3
v 0.4 0.6 0.4
v 0.3 0.6 0.3
v -0.3 0.6 -0.3
v 0.3 0.6 -0.3
v -0.4 0.6 -0.4
v 0.4 0.6 -0.4
v -0.8 3.8 0.8
v -0.8 3.8 0.6
v -0.6 3.8 0.8
v -0.6 3.8 0.6
v 0.6 3.8 0.8
v 0.6 3.8 0.6
v 0.8 3.8 0.8
v 0.8 3.8 0.6
v -0.8 3.8 -0.6
v -0.8 3.8 -0.8
v -0.6 3.8 -0.6
v -0.6 3.8 -0.8
v 0.6 3.8 -0.6
v 0.6 3.8 -0.8
v 0.8 3.8 -0.6
v 0.8 3.8 -0.8
v -0.6 4 0.8
v -0.6 4 0.6
v 0.6 4 0.8
v 0.6 4 0.6
v -0.8 4 -0.6
v -0.8 4 0.6
v 0.8 4 0.6
v -0.6 4 -0.6
v 0.6 4 -0.6
v 0.8 4 -0.6
v -0.6 4 -0.8
v 0.6 4 -0.8
vt 0.982422 0.5
vt 0.982422 0.5
vt 0.982422 0.5
vt 0.982422 0.5
vt 0.982422 0.5
vt 0.982422 0.5
vt 0.982422 0.5
vt 0.982422 0.5
vt 0.982422 0.5
vt 0.982422 0.5
vt 0.982422 0.5
vt 0.982422 0.5
vt 0.982422 0.5
vt 0.982422 0.5
vt 0.982422 0.5
vt 0.982422 0.5
vt 0.982422 0.5
vt 0.982422 0.5
vt 0.982422 0.5
vt 0.982422 0.5
vt 0.982422 0.5
vt 0.982422 0.5
vt 0.982422 0.5
vt 0.982422 0.5
vt 0.982422 0.5
vt 0.982422 0.5
vt 0.982422 0.5
vt 0.982422 0.5
vt 0.982422 0.5
vt 0.982422 0.5
vt 0.982422 0.5
vt 0.982422 0.5
vt 0.982422 0.5
vt 0.982422 0.5
vt 0.982422 0.5
vt 0.982422 0.5
vt 0.982422 0.5
vt 0.982422 0.5
vt 0.982422 0.5
vt 0.982422 0.5
vt 0.982422 0.5
vt 0.982422 0.5
vt 0.982422 0.5
vt 0.982422 0.5
vt 0.982422 0.5
vt 0.982422 0.5
vt 0.982422 0.5
vt 0.982422 0.5
vt 0.982422 0.5
vt 0.982422 0.5
vt 0.982422 0.5
vt 0.982422 0.5
vt 0.982422 0.5
vt 0.982422 0.5
vt 0.982422 0.5
vt 0.982422 0.5
vt 0.982422 0.5
vt 0.982422 0.5
vt 0.982422 0.5
vt 0.982422 0.5
vt 0.982422 0.5
vt 0.982422 0.5
vt 0.982422 0.5
vt 0.982422 0.5
vt 0.982422 0.5
vt 0.982422 0.5
vt 0.982422 0.5
vt 0.982422 0.5
vt 0.982422 0.5
vt 0.982422 0.5
vt 0.982422 0.5
vt 0.982422 0.5
vt 0.982422 0.5
vt 0.982422 0.5
vt 0.982422 0.5
vt 0.982422 0.5
vt 0.982422 0.5
vt 0.982422 0.5
vt 0.982422 0.5
vt 0.982422 0.5
vt 0.982422 0.5
vt 0.982422 0.5
vt 0.982422 0.5
vt 0.982422 0.5
vt 0.982422 0.5
vt 0.982422 0.5
vt 0.982422 0.5
vt 0.982422 0.5
vt 0.982422 0.5
vt 0.982422 0.5
vt 0.982422 0.5
vt 0.982422 0.5
vt 0.982422 0.5
vt 0.982422 0.5
vt 0.982422 0.5
vt 0.982422 0.5
vt 0.982422 0.5
vt 0.982422 0.5
vt 0.982422 0.5
vt 0.982422 0.5
vt 0.982422 0.5
vt 0.982422 0.5
vt 0.982422 0.5
vt 0.982422 0.5
vt 0.982422 0.5
vt 0.982422 0.5
vt 0.982422 0.5
vt 0.982422 0.5
vt 0.982422 0.5
vt 0.982422 0.5
vt 0.982422 0.5
vt 0.982422 0.5
vt 0.982422 0.5
vt 0.982422 0.5
vt 0.982422 0.5
vt 0.982422 0.5
vt 0.982422 0.5
vt 0.982422 0.5
vt 0.982422 0.5
vt 0.982422 0.5
vt 0.982422 0.5
vt 0.982422 0.5
vt 0.982422 0.5
vt 0.982422 0.5
vt 0.982422 0.5
vt 0.982422 0.5
vt 0.982422 0.5
vt 0.982422 0.5
vt 0.982422 0.5
vt 0.982422 0.5
vt 0.982422 0.5
vt 0.982422 0.5
vt 0.982422 0.5
vt 0.982422 0.5
vt 0.982422 0.5
vt 0.982422 0.5
vt 0.982422 0.5
vt 0.982422 0.5
vt 0.982422 0.5
vt 0.982422 0.5
vt 0.982422 0.5
vt 0.982422 0.5
vt 0.982422 0.5
vt 0.982422 0.5
vt 0.982422 0.5
vt 0.982422 0.5
vt 0.982422 0.5
vt 0.982422 0.5
vt 0.982422 0.5
vt 0.982422 0.5
vt 0.982422 0.5
vt 0.982422 0.5
vt 0.982422 0.5
vt 0.982422 0.5
vt 0.982422 0.5
vt 0.982422 0.5
vt 0.982422 0.5
vt 0.982422 0.5
vt 0.982422 0.5
vt 0.982422 0.5
vt 0.982422 0.5
vt 0.982422 0.5
vt 0.982422 0.5
vt 0.982422 0.5
vt 0.982422 0.5
vt 0.982422 0.5
vt 0.982422 0.5
vt 0.982422 0.5
vt 0.982422 0.5
vt 0.982422 0.5
vt 0.982422 0.5
vt 0.982422 0.5
vt 0.982422 0.5
vt 0.982422 0.5
vt 0.982422 0.5
vt 0.982422 0.5
vt 0.982422 0.5
vt 0.982422 0.5
vt 0.982422 0.5
vt 0.982422 0.5
vt 0.982422 0.5
vt 0.982422 0.5
vt 0.982422 0.5
vt 0.982422 0.5
vt 0.982422 0.5
vt 0.982422 0.5
vt 0.982422 0.5
vt 0.982422 0.5
vt 0.982422 0.5
vt 0.982422 0.5
vt 0.982422 0.5
vt 0.982422 0.5
vt 0.982422 0.5
vt 0.982422 0.5
vt 0.982422 0.5
vt 0.982422 0.5
vt 0.982422 0.5
vt 0.982422 0.5
vt 0.982422 0.5
vt 0.982422 0.5
vt 0.982422 0.5
vt 0.982422 0.5
vt 0.982422 0.5
vt 0.982422 0.5
vt 0.982422 0.5
vt 0.982422 0.5
vt 0.982422 0.5
vt 0.982422 0.5
vt 0.982422 0.5
vt 0.982422 0.5
vt 0.982422 0.5
vt 0.982422 0.5
vt 0.982422 0.5
vt 0.982422 0.5
vt 0.982422 0.5
vt 0.982422 0.5
vt 0.982422 0.5
vt 0.982422 0.5
vt 0.982422 0.5
vt 0.982422 0.5
vt 0.982422 0.5
vt 0.982422 0.5
vt 0.982422 0.5
vt 0.982422 0.5
vt 0.982422 0.5
vt 0.982422 0.5
vt 0.982422 0.5
vt 0.982422 0.5
vt 0.982422 0.5
vt 0.982422 0.5
vt 0.982422 0.5
vt 0.982422 0.5
vt 0.982422 0.5
vt 0.982422 0.5
vt 0.982422 0.5
vt 0.982422 0.5
vt 0.982422 0.5
vt 0.982422 0.5
vt 0.982422 0.5
vt 0.982422 0.5
vt 0.982422 0.5
vt 0.982422 0.5
vt 0.982422 0.5
vt 0.982422 0.5
vt 0.982422 0.5
vt 0.982422 0.5
vt 0.982422 0.5
vt 0.982422 0.5
vt 0.982422 0.5
vt 0.982422 0.5
vt 0.982422 0.5
vt 0.982422 0.5
vt 0.982422 0.5
vt 0.982422 0.5
vt 0.982422 0.5
vt 0.982422 0.5
vt 0.982422 0.5
vt 0.982422 0.5
vt 0.982422 0.5
vt 0.982422 0.5
vt 0.982422 0.5
vt 0.982422 0.5
vt 0.982422 0.5
vt 0.982422 0.5
vn -1 0 0
vn -1 0 0
vn -1 0 0
vn -1 0 0
vn -1 0 0
vn -1 0 0
vn -1 0 0
vn -1 0 0
vn -1 0 0
vn -1 0 0
vn -1 0 0
vn -1 0 0
vn -1 0 0
vn -1 0 0
vn -1 0 0
vn -1 0 0
vn -1 0 0
vn -1 0 0
vn -1 0 0
vn -1 0 0
vn -1 0 0
vn -1 0 0
vn -1 0 0
vn -1 0 0
vn -1 0 0
vn -1 0 0
vn -1 0 0
vn -1 0 0
vn -1 0 0
vn -1 0 0
vn -1 0 0
vn -1 0 0
vn -1 0 0
vn -1 0 0
vn -1 0 0
vn -1 0 0
vn -1 0 0
vn -1 0 0
vn -1 0 0
vn -1 0 0
vn -1 0 0
vn -1 0 0
vn -1 0 0
vn -1 0 0
vn 1 0 0
vn 1 0 0
vn 1 0 0
vn 1 0 0
vn 1 0 0
vn 1 0 0
vn 1 0 0
vn 1 0 0
vn 1 0 0
vn 1 0 0
vn 1 0 0
vn 1 0 0
vn 1 0 0
vn 1 0 0
vn 1 0 0
vn 1 0 0
vn 1 0 0
vn 1 0 0
vn 1 0 0
vn 1 0 0
vn 1 0 0
vn 1 0 0
vn 1 0 0
vn 1 0 0
vn 1 0 0
vn 1 0 0
vn 1 0 0
vn 1 0 0
vn 1 0 0
vn 1 0 0
vn 1 0 0
vn 1 0 0
vn 1 0 0
vn 1 0 0
vn 1 0 0
vn 1 0 0
vn 1 0 0
vn 1 0 0
vn 1 0 0
vn 1 0 0
vn 1 0 0
vn 1 0 0
vn 1 0 0
vn 1 0 0
vn 0 0 1
vn 0 0 1
vn 0 0 1
vn 0 0 1
vn 0 0 1
vn 0 0 1
vn 0 0 1
vn 0 0 1
vn 0 0 1
vn 0 0 1
vn 0 0 1
vn 0 0 1
vn 0 0 1
vn 0 0 1
vn 0 0 1
vn 0 0 1
vn 0 0 1
vn 0 0 1
vn 0 0 1
vn 0 0 1
vn 0 0 1
vn 0 0 1
vn 0 0 1
vn 0 0 1
vn 0 0 1
vn 0 0 1
vn 0 0 1
vn 0 0 1
vn 0 0 1
vn 0 0 1
vn 0 0 1
vn 0 0 1
vn 0 0 1
vn 0 0 1
vn 0 0 1
vn 0 0 1
vn 0 0 1
vn 0 0 1
vn 0 0 1
vn 0 0 1
vn 0 0 1
vn 0 0 1
vn 0 0 1
vn 0 0 1
vn 0 0 -1
vn 0 0 -1
vn 0 0 -1
vn 0 0 -1
vn 0 0 -1
vn 0 0 -1
vn 0 0 -1
vn 0 0 -1
vn 0 0 -1
vn 0 0 -1
vn 0 0 -1
vn 0 0 -1
vn 0 0 -1
vn 0 0 -1
vn 0 0 -1
vn 0 0 -1
vn 0 0 -1
vn 0 0 -1
vn 0 0 -1
vn 0 0 -1
vn 0 0 -1
vn 0 0 -1
vn 0 0 -1
vn 0 0 -1
vn 0 0 -1
vn 0 0 -1
vn 0 0 -1
vn 0 0 -1
vn 0 0 -1
vn 0 0 -1
vn 0 0 -1
vn 0 0 -1
vn 0 0 -1
vn 0 0 -1
vn 0 0 -1
vn 0 0 -1
vn 0 0 -1
vn 0 0 -1
vn 0 0 -1
vn 0 0 -1
vn 0 0 -1
vn 0 0 -1
vn 0 0 -1
vn 0 0 -1
vn 0 -1 0
vn 0 -1 0
vn 0 -1 0
vn 0 -1 0
vn 0 -1 0
vn 0 -1 0
vn 0 -1 0
vn 0 -1 0
vn 0 -1 0
vn 0 -1 0
vn 0 -1 0
vn 0 -1 0
vn 0 -1 0
vn 0 -1 0
vn 0 -1 0
vn 0 -1 0
vn 0 -1 0
vn 0 -1 0
vn 0 -1 0
vn 0 -1 0
vn 0 -1 0
vn 0 -1 0
vn 0 -1 0
vn 0 -1 0
vn 0 -1 0
vn 0 -1 0
vn 0 -1 0
vn 0 -1 0
vn 0 -1 0
vn 0 -1 0
vn 0 -1 0
vn 0 -1 0
vn 0 -1 0
vn 0 -1 0
vn 0 -1 0
vn 0 -1 0
vn 0 -1 0
vn 0 -1 0
vn 0 -1 0
vn 0 -1 0
vn 0 -1 0
vn 0 -1 0
vn 0 -1 0
vn 0 -1 0
vn 0 1 0
vn 0 1 0
vn 0 1 0
vn 0 1 0
vn 0 1 0
vn 0 1 0
vn 0 1 0
vn 0 1 0
vn 0 1 0
vn 0 1 0
vn 0 1 0
vn 0 1 0
vn 0 1 0
vn 0 1 0
vn 0 1 0
vn 0 1 0
vn 0 1 0
vn 0 1 0
vn 0 1 0
vn 0 1 0
vn 0 1 0
vn 0 1 0
vn 0 1 0
vn 0 1 0
vn 0 1 0
vn 0 1 0
vn 0 1 0
vn 0 1 0
vn 0 1 0
vn 0 1 0
vn 0 1 0
vn 0 1 0
vn 0 1 0
vn 0 1 0
vn 0 1 0
vn 0 1 0
vn 0 1 0
vn 0 1 0
vn 0 1 0
vn 0 1 0
vn 0 1 0
vn 0 1 0
vn 0 1 0
vn 0 1 0
g default_0
f 3/3/3 2/2/2 1/1/1
f 3/3/3 1/1/1 4/4/4
f 3/3/3 4/4/4 5/5/5
f 3/3/3 5/5/5 6/6/6
f 5/5/5 4/4/4 7/7/7
f 5/5/5 7/7/7 8/8/8
f 11/11/11 10/10/10 9/9/9
f 11/11/11 9/9/9 12/12/12
f 15/15/15 14/14/14 13/13/13
f 15/15/15 13/13/13 16/16/16
f 19/19/19 18/18/18 17/17/17
f 19/19/19 17/17/17 20/20/20
f 23/23/23 22/22/22 21/21/21
f 23/23/23 21/21/21 24/24/24
f 27/27/27 26/26/26 25/25/25
f 27/27/27 25/25/25 28/28/28
f 31/31/31 30/30/30 29/29/29
f 31/31/31 29/29/29 32/32/32
f 35/35/35 34/34/34 33/33/33
f 35/35/35 33/33/33 36/36/36
f 39/39/39 38/38/38 37/37/37
f 39/39/39 37/37/37 40/40/40
f 43/43/43 42/42/42 41/41/41
f 43/43/43 41/41/41 44/44/44
f 47/47/47 46/46/46 45/45/45
f 47/47/47 48/48/48 46/46/46
f 51/51/51 50/50/50 49/49/49
f 51/51/51 52/52/52 50/50/50
f 55/55/55 54/54/54 53/53/53
f 55/55/55 56/56/56 54/54/54
f 59/59/59 58/58/58 57/57/57
f 59/59/59 60/60/60 58/58/58
f 63/63/63 62/62/62 61/61/61
f 63/63/63 64/64/64 62/62/62
f 67/67/67 66/66/66 65/65/65
f 67/67/67 68/68/68 66/66/66
f 71/71/71 70/70/70 69/69/69
f 71/71/71 72/72/72 70/70/70
f 75/75/75 74/74/74 73/73/73
f 75/75/75 76/76/76 74/74/74
f 79/79/79 78/78/78 77/77/77
f 79/79/79 80/80/80 78/78/78
f 83/83/83 82/82/82 81/81/81
f 83/83/83 84/84/84 82/82/82
f 83/83/83 85/85/85 84/84/84
f 83/83/83 86/86/86 85/85/85
f 85/85/85 87/87/87 84/84/84
f 85/85/85 88/88/88 87/87/87
f 91/91/91 90/90/90 89/89/89
f 89/89/89 90/90/90 92/92/92
f 93/93/93 89/89/89 92/92/92
f 93/93/93 92/92/92 94/94/94
f 92/92/92 90/90/90 95/95/95
f 92/92/92 95/95/95 96/96/96
f 99/99/99 98/98/98 97/97/97
f 99/99/99 97/97/97 100/100/100
f 103/103/103 102/102/102 101/101/101
f 103/103/103 101/101/101 104/104/104
f 107/107/107 106/106/106 105/105/105
f 107/107/107 105/105/105 108/108/108
f 111/111/111 110/110/110 109/109/109
f 111/111/111 109/109/109 112/112/112
f 115/115/115 114/114/114 113/113/113
f 115/115/115 113/113/113 116/116/116
f 119/119/119 118/118/118 117/117/117
f 119/119/119 117/117/117 120/120/120
f 123/123/123 122/122/122 121/121/121
f 123/123/123 121/121/121 124/124/124
f 127/127/127 126/126/126 125/125/125
f 127/127/127 125/125/125 128/128/128
f 131/131/131 130/130/130 129/129/129
f 131/131/131 129/129/129 132/132/132
f 135/135/135 134/134/134 133/133/133
f 135/135/135 136/136/136 134/134/134
f 139/139/139 138/138/138 137/137/137
f 139/139/139 140/140/140 138/138/138
f 143/143/143 142/142/142 141/141/141
f 143/143/143 144/144/144 142/142/142
f 147/147/147 146/146/146 145/145/145
f 147/147/147 148/148/148 146/146/146
f 151/151/151 150/150/150 149/149/149
f 151/151/151 152/152/152 150/150/150
f 155/155/155 154/154/154 153/153/153
f 155/155/155 156/156/156 154/154/154
f 159/159/159 158/158/158 157/157/157
f 159/159/159 160/160/160 158/158/158
f 163/163/163 162/162/162 161/161/161
f 163/163/163 164/164/164 162/162/162
f 167/167/167 166/166/166 165/165/165
f 167/167/167 168/168/168 166/166/166
f 171/171/171 170/170/170 169/169/169
f 170/170/170 172/172/172 169/169/169
f 173/173/173 172/172/172 170/170/170
f 173/173/173 174/174/174 172/172/172
f 172/172/172 175/175/175 169/169/169
f 172/172/172 176/176/176 175/175/175
f 179/179/179 178/178/178 177/177/177
f 179/179/179 177/177/177 180/180/180
f 183/183/183 182/182/182 181/181/181
f 183/183/183 181/181/181 184/184/184
f 181/181/181 182/182/182 185/185/185
f 183/183/183 184/184/184 186/186/186
f 185/185/185 182/182/182 187/187/187
f 186/186/186 185/185/185 187/187/187
f 183/183/183 186/186/186 188/188/188
f 186/186/186 187/187/187 188/188/188
f 191/191/191 190/190/190 189/189/189
f 191/191/191 189/189/189 192/192/192
f 189/189/189 190/190/190 193/193/193
f 191/191/191 192/192/192 194/194/194
f 193/193/193 190/190/190 195/195/195
f 194/194/194 193/193/193 195/195/195
f 191/191/191 194/194/194 196/196/196
f 194/194/194 195/195/195 196/196/196
f 199/199/199 198/198/198 197/197/197
f 199/199/199 197/197/197 200/200/200
f 197/197/197 198/198/198 201/201/201
f 199/199/199 200/200/200 202/202/202
f 201/201/201 198/198/198 203/203/203
f 202/202/202 201/201/201 203/203/203
f 199/199/199 202/202/202 204/204/204
f 202/202/202 203/203/203 204/204/204
f 207/207/207 206/206/206 205/205/205
f 207/207/207 205/205/205 208/208/208
f 205/205/205 206/206/206 209/209/209
f 207/207/207 208/208/208 210/210/210
f 209/209/209 206/206/206 211/211/211
f 210/210/210 209/209/209 211/211/211
f 207/207/207 210/210/210 212/212/212
f 210/210/210 211/211/211 212/212/212
f 215/215/215 214/214/214 213/213/213
f 215/215/215 213/213/213 216/216/216
f 213/213/213 214/214/214 217/217/217
f 215/215/215 216/216/216 218/218/218
f 217/217/217 214/214/214 219/219/219
f 218/218/218 217/217/217 219/219/219
f 215/215/215 218/218/218 220/220/220
f 218/218/218 219/219/219 220/220/220
f 223/223/223 222/222/222 221/221/221
f 223/223/223 224/224/224 222/222/222
f 222/222/222 225/225/225 221/221/221
f 223/223/223 226/226/226 224/224/224
f 225/225/225 227/227/227 221/221/221
f 226/226/226 227/227/227 225/225/225
f 223/223/223 228/228/228 226/226/226
f 226/226/226 228/228/228 227/227/227
f 231/231/231 230/230/230 229/229/229
f 231/231/231 232/232/232 230/230/230
f 230/230/230 233/233/233 229/229/229
f 231/231/231 234/234/234 232/232/232
f 233/233/233 235/235/235 229/229/229
f 234/234/234 235/235/235 233/233/233
f 231/231/231 236/236/236 234/234/234
f 234/234/234 236/236/236 235/235/235
f 239/239/239 238/238/238 237/237/237
f 239/239/239 240/240/240 238/238/238
f 243/243/243 242/242/242 241/241/241
f 243/243/243 244/244/244 242/242/242
f 247/247/247 246/246/246 245/245/245
f 247/247/247 248/248/248 246/246/246
f 251/251/251 250/250/250 249/249/249
f 251/251/251 252/252/252 250/250/250
f 255/255/255 254/254/254 253/253/253
f 255/255/255 256/256/256 254/254/254
f 256/256/256 257/257/257 254/254/254
f 254/254/254 257/257/257 258/258/258
f 259/259/259 257/257/257 256/256/256
f 259/259/259 260/260/260 257/257/257
f 259/259/259 261/261/261 260/260/260
f 259/259/259 262/262/262 261/261/261
f 261/261/261 263/263/263 260/260/260
f 261/261/261 264/264/264 263/263/263
