g default
v -0.15 0.1 0.1
v -0.15 0 0.3
v -0.15 0 0
v -0.15 0.1 0
v -0.15 0.2 0.3
v -0.15 0.2 0.1
v -0.15 0.1 0
v -0.15 0 0
v -0.15 0 -0.3
v -0.15 0.1 -0.1
v -0.15 0.2 -0.1
v -0.15 0.2 -0.3
v -0.05 0.3 -0.2
v -0.05 0.2 -0.2
v -0.05 0.2 -0.3
v -0.05 0.3 -0.3
v 0.05 0.4 -0.1
v 0.05 0.3 -0.1
v 0.05 0.3 -0.2
v 0.05 0.3 -0.3
v 0.05 0.4 -0.3
v -0.05 0 0.2
v -0.05 0.1 0.2
v -0.05 0 0
v -0.05 0.1 0.1
v -0.05 0.1 0
v -0.05 0 0
v -0.05 0.1 0
v -0.05 0 -0.3
v -0.05 0.1 -0.1
v -0.05 0.1 -0.2
v -0.05 0.1 -0.3
v -0.05 0.2 -0.1
v -0.05 0.2 -0.2
v 0.05 0 0.3
v 0.05 0.1 0.2
v 0.05 0 0.2
v 0.05 0.2 0.3
v 0.05 0.1 0.1
v 0.05 0.2 0.1
v 0.05 0.1 -0.2
v 0.05 0.2 -0.2
v 0.05 0.1 -0.3
v 0.05 0.2 -0.3
v 0.15 0.2 -0.2
v 0.15 0.3 -0.2
v 0.15 0.2 -0.3
v 0.15 0.4 -0.3
v 0.15 0.4 -0.1
v 0.15 0.3 -0.1
v -0.05 0 0.3
v -0.15 0 0.3
v -0.15 0.2 0.3
v -0.05 0.2 0.3
v 0.05 0 0.3
v -0.05 0 0.3
v -0.05 0.2 0.3
v 0.05 0.2 0.3
v -0.05 0.1 -0.1
v -0.15 0.1 -0.1
v -0.15 0.2 -0.1
v -0.05 0.2 -0.1
v 0.15 0.3 -0.1
v 0.05 0.3 -0.1
v 0.05 0.4 -0.1
v 0.15 0.4 -0.1
v 0.05 0.1 -0.2
v -0.05 0.1 -0.2
v -0.05 0.2 -0.2
v -0.05 0.3 -0.2
v 0.05 0.2 -0.2
v 0.05 0.3 -0.2
v 0.15 0.2 -0.2
v 0.15 0.3 -0.2
v -0.05 0 0.2
v 0.05 0 0.2
v -0.05 0.1 0.2
v 0.05 0.1 0.2
v -0.15 0.1 0.1
v -0.05 0.1 0.1
v -0.15 0.2 0.1
v -0.05 0.2 0.1
v -0.05 0.1 0.1
v 0.05 0.1 0.1
v -0.05 0.2 0.1
v 0.05 0.2 0.1
v -0.15 0 -0.3
v -0.05 0 -0.3
v -0.15 0.2 -0.3
v -0.05 0.1 -0.3
v -0.05 0.2 -0.3
v 0.05 0.1 -0.3
v -0.05 0.3 -0.3
v 0.05 0.2 -0.3
v 0.05 0.3 -0.3
v 0.15 0.2 -0.3
v 0.05 0.4 -0.3
v 0.15 0.4 -0.3
v -0.05 0 0.2
v -0.15 0 0.3
v -0.05 0 0.3
v -0.15 0 0
v -0.05 0 0
v -0.05 0 0.2
v -0.05 0 0.3
v 0.05 0 0.3
v 0.05 0 0.2
v -0.15 0 -0.3
v -0.15 0 0
v -0.05 0 0
v -0.05 0 -0.3
v -0.05 0.1 0.1
v -0.05 0.1 0.2
v 0.05 0.1 0.2
v 0.05 0.1 0.1
v -0.05 0.1 -0.3
v -0.05 0.1 -0.2
v 0.05 0.1 -0.2
v 0.05 0.1 -0.3
v 0.05 0.2 -0.3
v 0.05 0.2 -0.2
v 0.15 0.2 -0.2
v 0.15 0.2 -0.3
v 0.05 0.3 -0.2
v 0.05 0.3 -0.1
v 0.15 0.3 -0.1
v 0.15 0.3 -0.2
v -0.15 0.1 0.1
v -0.15 0.1 0
v -0.05 0.1 0.1
v -0.05 0.1 0
v -0.15 0.1 0
v -0.15 0.1 -0.1
v -0.05 0.1 0
v -0.05 0.1 -0.1
v -0.15 0.2 0.3
v -0.15 0.2 0.1
v -0.05 0.2 0.3
v -0.05 0.2 0.1
v -0.05 0.2 0.3
v -0.05 0.2 0.1
v 0.05 0.2 0.3
v 0.05 0.2 0.1
v -0.15 0.2 -0.1
v -0.05 0.2 -0.2
v -0.05 0.2 -0.1
v -0.15 0.2 -0.3
v -0.05 0.2 -0.3
v -0.05 0.3 -0.2
v -0.05 0.3 -0.3
v 0.05 0.3 -0.2
v 0.05 0.3 -0.3
v 0.05 0.4 -0.1
v 0.05 0.4 -0.3
v 0.15 0.4 -0.1
v 0.15 0.4 -0.3
vt 0.990234 0.5
vt 0.990234 0.5
vt 0.990234 0.5
vt 0.990234 0.5
vt 0.990234 0.5
vt 0.990234 0.5
vt 0.158203 0.5
vt 0.158203 0.5
vt 0.158203 0.5
vt 0.158203 0.5
vt 0.158203 0.5
vt 0.158203 0.5
vt 0.158203 0.5
vt 0.158203 0.5
vt 0.158203 0.5
vt 0.158203 0.5
vt 0.158203 0.5
vt 0.158203 0.5
vt 0.158203 0.5
vt 0.158203 0.5
vt 0.158203 0.5
vt 0.990234 0.5
vt 0.990234 0.5
vt 0.990234 0.5
vt 0.990234 0.5
vt 0.990234 0.5
vt 0.158203 0.5
vt 0.158203 0.5
vt 0.158203 0.5
vt 0.158203 0.5
vt 0.158203 0.5
vt 0.158203 0.5
vt 0.158203 0.5
vt 0.158203 0.5
vt 0.158203 0.5
vt 0.158203 0.5
vt 0.158203 0.5
vt 0.158203 0.5
vt 0.158203 0.5
vt 0.158203 0.5
vt 0.158203 0.5
vt 0.158203 0.5
vt 0.158203 0.5
vt 0.158203 0.5
vt 0.158203 0.5
vt 0.158203 0.5
vt 0.158203 0.5
vt 0.158203 0.5
vt 0.158203 0.5
vt 0.158203 0.5
vt 0.990234 0.5
vt 0.990234 0.5
vt 0.990234 0.5
vt 0.990234 0.5
vt 0.158203 0.5
vt 0.158203 0.5
vt 0.158203 0.5
vt 0.158203 0.5
vt 0.158203 0.5
vt 0.158203 0.5
vt 0.158203 0.5
vt 0.158203 0.5
vt 0.158203 0.5
vt 0.158203 0.5
vt 0.158203 0.5
vt 0.158203 0.5
vt 0.158203 0.5
vt 0.158203 0.5
vt 0.158203 0.5
vt 0.158203 0.5
vt 0.158203 0.5
vt 0.158203 0.5
vt 0.158203 0.5
vt 0.158203 0.5
vt 0.158203 0.5
vt 0.158203 0.5
vt 0.158203 0.5
vt 0.158203 0.5
vt 0.990234 0.5
vt 0.990234 0.5
vt 0.990234 0.5
vt 0.990234 0.5
vt 0.158203 0.5
vt 0.158203 0.5
vt 0.158203 0.5
vt 0.158203 0.5
vt 0.158203 0.5
vt 0.158203 0.5
vt 0.158203 0.5
vt 0.158203 0.5
vt 0.158203 0.5
vt 0.158203 0.5
vt 0.158203 0.5
vt 0.158203 0.5
vt 0.158203 0.5
vt 0.158203 0.5
vt 0.158203 0.5
vt 0.158203 0.5
vt 0.990234 0.5
vt 0.990234 0.5
vt 0.990234 0.5
vt 0.990234 0.5
vt 0.990234 0.5
vt 0.158203 0.5
vt 0.158203 0.5
vt 0.158203 0.5
vt 0.158203 0.5
vt 0.158203 0.5
vt 0.158203 0.5
vt 0.158203 0.5
vt 0.158203 0.5
vt 0.158203 0.5
vt 0.158203 0.5
vt 0.158203 0.5
vt 0.158203 0.5
vt 0.158203 0.5
vt 0.158203 0.5
vt 0.158203 0.5
vt 0.158203 0.5
vt 0.158203 0.5
vt 0.158203 0.5
vt 0.158203 0.5
vt 0.158203 0.5
vt 0.158203 0.5
vt 0.158203 0.5
vt 0.158203 0.5
vt 0.158203 0.5
vt 0.990234 0.5
vt 0.990234 0.5
vt 0.990234 0.5
vt 0.990234 0.5
vt 0.158203 0.5
vt 0.158203 0.5
vt 0.158203 0.5
vt 0.158203 0.5
vt 0.990234 0.5
vt 0.990234 0.5
vt 0.990234 0.5
vt 0.990234 0.5
vt 0.158203 0.5
vt 0.158203 0.5
vt 0.158203 0.5
vt 0.158203 0.5
vt 0.158203 0.5
vt 0.158203 0.5
vt 0.158203 0.5
vt 0.158203 0.5
vt 0.158203 0.5
vt 0.158203 0.5
vt 0.158203 0.5
vt 0.158203 0.5
vt 0.158203 0.5
vt 0.158203 0.5
vt 0.158203 0.5
vt 0.158203 0.5
vt 0.158203 0.5
vn -1 0 0
vn -1 0 0
vn -1 0 0
vn -1 0 0
vn -1 0 0
vn -1 0 0
vn -1 0 0
vn -1 0 0
vn -1 0 0
vn -1 0 0
vn -1 0 0
vn -1 0 0
vn -1 0 0
vn -1 0 0
vn -1 0 0
vn -1 0 0
vn -1 0 0
vn -1 0 0
vn -1 0 0
vn -1 0 0
vn -1 0 0
vn 1 0 0
vn 1 0 0
vn 1 0 0
vn 1 0 0
vn 1 0 0
vn 1 0 0
vn 1 0 0
vn 1 0 0
vn 1 0 0
vn 1 0 0
vn 1 0 0
vn 1 0 0
vn 1 0 0
vn 1 0 0
vn 1 0 0
vn 1 0 0
vn 1 0 0
vn 1 0 0
vn 1 0 0
vn 1 0 0
vn 1 0 0
vn 1 0 0
vn 1 0 0
vn 1 0 0
vn 1 0 0
vn 1 0 0
vn 1 0 0
vn 1 0 0
vn 1 0 0
vn 0 0 1
vn 0 0 1
vn 0 0 1
vn 0 0 1
vn 0 0 1
vn 0 0 1
vn 0 0 1
vn 0 0 1
vn 0 0 1
vn 0 0 1
vn 0 0 1
vn 0 0 1
vn 0 0 1
vn 0 0 1
vn 0 0 1
vn 0 0 1
vn 0 0 1
vn 0 0 1
vn 0 0 1
vn 0 0 1
vn 0 0 1
vn 0 0 1
vn 0 0 1
vn 0 0 1
vn 0 0 -1
vn 0 0 -1
vn 0 0 -1
vn 0 0 -1
vn 0 0 -1
vn 0 0 -1
vn 0 0 -1
vn 0 0 -1
vn 0 0 -1
vn 0 0 -1
vn 0 0 -1
vn 0 0 -1
vn 0 0 -1
vn 0 0 -1
vn 0 0 -1
vn 0 0 -1
vn 0 0 -1
vn 0 0 -1
vn 0 0 -1
vn 0 0 -1
vn 0 0 -1
vn 0 0 -1
vn 0 0 -1
vn 0 0 -1
vn 0 -1 0
vn 0 -1 0
vn 0 -1 0
vn 0 -1 0
vn 0 -1 0
vn 0 -1 0
vn 0 -1 0
vn 0 -1 0
vn 0 -1 0
vn 0 -1 0
vn 0 -1 0
vn 0 -1 0
vn 0 -1 0
vn 0 -1 0
vn 0 -1 0
vn 0 -1 0
vn 0 -1 0
vn 0 -1 0
vn 0 -1 0
vn 0 -1 0
vn 0 -1 0
vn 0 -1 0
vn 0 -1 0
vn 0 -1 0
vn 0 -1 0
vn 0 -1 0
vn 0 -1 0
vn 0 -1 0
vn 0 -1 0
vn 0 1 0
vn 0 1 0
vn 0 1 0
vn 0 1 0
vn 0 1 0
vn 0 1 0
vn 0 1 0
vn 0 1 0
vn 0 1 0
vn 0 1 0
vn 0 1 0
vn 0 1 0
vn 0 1 0
vn 0 1 0
vn 0 1 0
vn 0 1 0
vn 0 1 0
vn 0 1 0
vn 0 1 0
vn 0 1 0
vn 0 1 0
vn 0 1 0
vn 0 1 0
vn 0 1 0
vn 0 1 0
vn 0 1 0
vn 0 1 0
vn 0 1 0
vn 0 1 0
g default_0
f 3/3/3 2/2/2 1/1/1
f 3/3/3 1/1/1 4/4/4
f 1/1/1 2/2/2 5/5/5
f 1/1/1 5/5/5 6/6/6
f 9/9/9 8/8/8 7/7/7
f 9/9/9 7/7/7 10/10/10
f 9/9/9 10/10/10 11/11/11
f 9/9/9 11/11/11 12/12/12
f 15/15/15 14/14/14 13/13/13
f 15/15/15 13/13/13 16/16/16
f 19/19/19 18/18/18 17/17/17
f 20/20/20 19/19/19 17/17/17
f 20/20/20 17/17/17 21/21/21
f 24/24/24 23/23/23 22/22/22
f 24/24/24 25/25/25 23/23/23
f 24/24/24 26/26/26 25/25/25
f 29/29/29 28/28/28 27/27/27
f 29/29/29 30/30/30 28/28/28
f 29/29/29 31/31/31 30/30/30
f 29/29/29 32/32/32 31/31/31
f 31/31/31 33/33/33 30/30/30
f 31/31/31 34/34/34 33/33/33
f 37/37/37 36/36/36 35/35/35
f 36/36/36 38/38/38 35/35/35
f 39/39/39 38/38/38 36/36/36
f 39/39/39 40/40/40 38/38/38
f 43/43/43 42/42/42 41/41/41
f 43/43/43 44/44/44 42/42/42
f 47/47/47 46/46/46 45/45/45
f 47/47/47 48/48/48 46/46/46
f 46/46/46 48/48/48 49/49/49
f 46/46/46 49/49/49 50/50/50
f 53/53/53 52/52/52 51/51/51
f 53/53/53 51/51/51 54/54/54
f 57/57/57 56/56/56 55/55/55
f 57/57/57 55/55/55 58/58/58
f 61/61/61 60/60/60 59/59/59
f 61/61/61 59/59/59 62/62/62
f 65/65/65 64/64/64 63/63/63
f 65/65/65 63/63/63 66/66/66
f 69/69/69 68/68/68 67/67/67
f 70/70/70 69/69/69 67/67/67
f 70/70/70 67/67/67 71/71/71
f 70/70/70 71/71/71 72/72/72
f 72/72/72 71/71/71 73/73/73
f 72/72/72 73/73/73 74/74/74
f 77/77/77 76/76/76 75/75/75
f 77/77/77 78/78/78 76/76/76
f 81/81/81 80/80/80 79/79/79
f 81/81/81 82/82/82 80/80/80
f 85/85/85 84/84/84 83/83/83
f 85/85/85 86/86/86 84/84/84
f 89/89/89 88/88/88 87/87/87
f 89/89/89 90/90/90 88/88/88
f 89/89/89 91/91/91 90/90/90
f 91/91/91 92/92/92 90/90/90
f 93/93/93 92/92/92 91/91/91
f 93/93/93 94/94/94 92/92/92
f 93/93/93 95/95/95 94/94/94
f 95/95/95 96/96/96 94/94/94
f 97/97/97 96/96/96 95/95/95
f 97/97/97 98/98/98 96/96/96
f 101/101/101 100/100/100 99/99/99
f 99/99/99 100/100/100 102/102/102
f 99/99/99 102/102/102 103/103/103
f 106/106/106 105/105/105 104/104/104
f 106/106/106 104/104/104 107/107/107
f 110/110/110 109/109/109 108/108/108
f 110/110/110 108/108/108 111/111/111
f 114/114/114 113/113/113 112/112/112
f 114/114/114 112/112/112 115/115/115
f 118/118/118 117/117/117 116/116/116
f 118/118/118 116/116/116 119/119/119
f 122/122/122 121/121/121 120/120/120
f 122/122/122 120/120/120 123/123/123
f 126/126/126 125/125/125 124/124/124
f 126/126/126 124/124/124 127/127/127
f 130/130/130 129/129/129 128/128/128
f 130/130/130 131/131/131 129/129/129
f 134/134/134 133/133/133 132/132/132
f 134/134/134 135/135/135 133/133/133
f 138/138/138 137/137/137 136/136/136
f 138/138/138 139/139/139 137/137/137
f 142/142/142 141/141/141 140/140/140
f 142/142/142 143/143/143 141/141/141
f 146/146/146 145/145/145 144/144/144
f 145/145/145 147/147/147 144/144/144
f 145/145/145 148/148/148 147/147/147
f 151/151/151 150/150/150 149/149/149
f 151/151/151 152/152/152 150/150/150
f 155/155/155 154/154/154 153/153/153
f 155/155/155 156/156/156 154/154/154
