g default
v -2 0.1 0
v -2 0 0
v -2 0 -0.1
v -2 0.1 -0.1
v -1.8 0.1 0.1
v -1.8 0 0.1
v -1.8 0 0
v -1.8 0.1 0
v -1.6 0.1 0.2
v -1.6 0 0.2
v -1.6 0 0.1
v -1.6 0.1 0.1
v -1.4 0.1 0.3
v -1.4 0 0.3
v -1.4 0 0.2
v -1.4 0.1 0.2
v -1 0.1 -0.1
v -1 0 -0.1
v -1 0 -0.3
v -1 0.1 -0.3
v -0.9 0.1 0.1
v -0.9 0 0.1
v -0.9 0 0
v -0.9 0.1 0
v -1.2 0 0.1
v -1.2 0.1 0.1
v -1.2 0 0
v -1.2 0.1 0
v -0.9 0 -0.1
v -0.9 0.1 -0.1
v -0.9 0 -0.3
v -0.9 0.1 -0.3
v -0.8 0 0.1
v -0.8 0.1 0.1
v -0.8 0 0
v -0.8 0.1 0
v -0.7 0 0.2
v -0.7 0.1 0.2
v -0.7 0 0.1
v -0.7 0.1 0.1
v -0.5 0 0.3
v -0.5 0.1 0.3
v -0.5 0 0.2
v -0.5 0.1 0.2
v 2 0 0
v 2 0.1 0
v 2 0 -0.1
v 2 0.1 -0.1
v -0.5 0 0.3
v -1.4 0 0.3
v -1.4 0.1 0.3
v -0.5 0.1 0.3
v -1.4 0 0.2
v -1.6 0 0.2
v -1.6 0.1 0.2
v -1.4 0.1 0.2
v -1.6 0 0.1
v -1.8 0 0.1
v -1.8 0.1 0.1
v -1.6 0.1 0.1
v -1.8 0 0
v -2 0 0
v -2 0.1 0
v -1.8 0.1 0
v -0.9 0 0
v -1.2 0 0
v -1.2 0.1 0
v -0.9 0.1 0
v 1.8 0 0
v -0.8 0 0
v -0.8 0.1 0
v 1.8 0.1 0
v 2 0 0
v 1.8 0 0
v 1.8 0.1 0
v 2 0.1 0
v -0.7 0 0.2
v -0.5 0 0.2
v -0.7 0.1 0.2
v -0.5 0.1 0.2
v -1.2 0 0.1
v -0.9 0 0.1
v -1.2 0.1 0.1
v -0.9 0.1 0.1
v -0.8 0 0.1
v -0.7 0 0.1
v -0.8 0.1 0.1
v -0.7 0.1 0.1
v -2 0 -0.1
v -1.3 0 -0.1
v -2 0.1 -0.1
v -1.3 0.1 -0.1
v -1.3 0 -0.1
v -1 0 -0.1
v -1.3 0.1 -0.1
v -1 0.1 -0.1
v -0.9 0 -0.1
v -0.8 0 -0.1
v -0.9 0.1 -0.1
v -0.8 0.1 -0.1
v -0.8 0 -0.1
v 1.8 0 -0.1
v -0.8 0.1 -0.1
v 1.8 0.1 -0.1
v 1.8 0 -0.1
v 2 0 -0.1
v 1.8 0.1 -0.1
v 2 0.1 -0.1
v -1 0 -0.3
v -0.9 0 -0.3
v -1 0.1 -0.3
v -0.9 0.1 -0.3
v -1.4 0 0.2
v -1.4 0 0.3
v -0.5 0 0.3
v -0.7 0 0.2
v -0.5 0 0.2
v -1.6 0 0.1
v -1.6 0 0.2
v -1.2 0 0.1
v -0.9 0 0.1
v -0.8 0 0.1
v -0.7 0 0.1
v -1.8 0 0
v -1.8 0 0.1
v -1.3 0 0
v -1.2 0 0
v -0.9 0 0
v -0.8 0 0
v -0.9 0 -0.1
v -0.8 0 -0.1
v -1 0 -0.3
v -1 0 -0.1
v -0.9 0 -0.3
v -2 0 -0.1
v -2 0 0
v -1.8 0 0
v -1.3 0 0
v -1.3 0 -0.1
v -1.3 0 -0.1
v -1.3 0 0
v -1.2 0 0
v -0.9 0 0
v -1 0 -0.1
v -0.9 0 -0.1
v -0.8 0 -0.1
v -0.8 0 0
v 1.8 0 0
v 1.8 0 -0.1
v 1.8 0 -0.1
v 1.8 0 0
v 2 0 0
v 2 0 -0.1
v -1.4 0.1 0.3
v -1.4 0.1 0.2
v -0.5 0.1 0.3
v -0.7 0.1 0.2
v -0.5 0.1 0.2
v -1.6 0.1 0.1
v -1.6 0.1 0.2
v -1.2 0.1 0.1
v -0.9 0.1 0.1
v -0.8 0.1 0.1
v -0.7 0.1 0.1
v -1.8 0.1 0
v -1.8 0.1 0.1
v -1.3 0.1 0
v -1.2 0.1 0
v -0.9 0.1 0
v -0.8 0.1 0
v -0.9 0.1 -0.1
v -0.8 0.1 -0.1
v -1 0.1 -0.1
v -1 0.1 -0.3
v -0.9 0.1 -0.3
v -2 0.1 0
v -2 0.1 -0.1
v -1.8 0.1 0
v -1.3 0.1 0
v -1.3 0.1 -0.1
v -1.3 0.1 0
v -1.3 0.1 -0.1
v -1.2 0.1 0
v -0.9 0.1 0
v -1 0.1 -0.1
v -0.9 0.1 -0.1
v -0.8 0.1 0
v -0.8 0.1 -0.1
v 1.8 0.1 0
v 1.8 0.1 -0.1
v 1.8 0.1 0
v 1.8 0.1 -0.1
v 2 0.1 0
v 2 0.1 -0.1
vt 0.962891 0.5
vt 0.962891 0.5
vt 0.962891 0.5
vt 0.962891 0.5
vt 0.970703 0.5
vt 0.970703 0.5
vt 0.970703 0.5
vt 0.970703 0.5
vt 0.970703 0.5
vt 0.970703 0.5
vt 0.970703 0.5
vt 0.970703 0.5
vt 0.970703 0.5
vt 0.970703 0.5
vt 0.970703 0.5
vt 0.970703 0.5
vt 0.970703 0.5
vt 0.970703 0.5
vt 0.970703 0.5
vt 0.970703 0.5
vt 0.970703 0.5
vt 0.970703 0.5
vt 0.970703 0.5
vt 0.970703 0.5
vt 0.970703 0.5
vt 0.970703 0.5
vt 0.970703 0.5
vt 0.970703 0.5
vt 0.970703 0.5
vt 0.970703 0.5
vt 0.970703 0.5
vt 0.970703 0.5
vt 0.970703 0.5
vt 0.970703 0.5
vt 0.970703 0.5
vt 0.970703 0.5
vt 0.970703 0.5
vt 0.970703 0.5
vt 0.970703 0.5
vt 0.970703 0.5
vt 0.970703 0.5
vt 0.970703 0.5
vt 0.970703 0.5
vt 0.970703 0.5
vt 0.970703 0.5
vt 0.970703 0.5
vt 0.970703 0.5
vt 0.970703 0.5
vt 0.970703 0.5
vt 0.970703 0.5
vt 0.970703 0.5
vt 0.970703 0.5
vt 0.970703 0.5
vt 0.970703 0.5
vt 0.970703 0.5
vt 0.970703 0.5
vt 0.970703 0.5
vt 0.970703 0.5
vt 0.970703 0.5
vt 0.970703 0.5
vt 0.962891 0.5
vt 0.962891 0.5
vt 0.962891 0.5
vt 0.962891 0.5
vt 0.986328 0.5
vt 0.986328 0.5
vt 0.986328 0.5
vt 0.986328 0.5
vt 0.986328 0.5
vt 0.986328 0.5
vt 0.986328 0.5
vt 0.986328 0.5
vt 0.970703 0.5
vt 0.970703 0.5
vt 0.970703 0.5
vt 0.970703 0.5
vt 0.970703 0.5
vt 0.970703 0.5
vt 0.970703 0.5
vt 0.970703 0.5
vt 0.970703 0.5
vt 0.970703 0.5
vt 0.970703 0.5
vt 0.970703 0.5
vt 0.970703 0.5
vt 0.970703 0.5
vt 0.970703 0.5
vt 0.970703 0.5
vt 0.962891 0.5
vt 0.962891 0.5
vt 0.962891 0.5
vt 0.962891 0.5
vt 0.986328 0.5
vt 0.986328 0.5
vt 0.986328 0.5
vt 0.986328 0.5
vt 0.970703 0.5
vt 0.970703 0.5
vt 0.970703 0.5
vt 0.970703 0.5
vt 0.986328 0.5
vt 0.986328 0.5
vt 0.986328 0.5
vt 0.986328 0.5
vt 0.970703 0.5
vt 0.970703 0.5
vt 0.970703 0.5
vt 0.970703 0.5
vt 0.970703 0.5
vt 0.970703 0.5
vt 0.970703 0.5
vt 0.970703 0.5
vt 0.970703 0.5
vt 0.970703 0.5
vt 0.970703 0.5
vt 0.970703 0.5
vt 0.970703 0.5
vt 0.970703 0.5
vt 0.970703 0.5
vt 0.970703 0.5
vt 0.970703 0.5
vt 0.970703 0.5
vt 0.970703 0.5
vt 0.970703 0.5
vt 0.970703 0.5
vt 0.970703 0.5
vt 0.970703 0.5
vt 0.970703 0.5
vt 0.970703 0.5
vt 0.970703 0.5
vt 0.970703 0.5
vt 0.970703 0.5
vt 0.970703 0.5
vt 0.970703 0.5
vt 0.962891 0.5
vt 0.962891 0.5
vt 0.962891 0.5
vt 0.962891 0.5
vt 0.962891 0.5
vt 0.986328 0.5
vt 0.986328 0.5
vt 0.986328 0.5
vt 0.986328 0.5
vt 0.986328 0.5
vt 0.986328 0.5
vt 0.986328 0.5
vt 0.986328 0.5
vt 0.986328 0.5
vt 0.986328 0.5
vt 0.970703 0.5
vt 0.970703 0.5
vt 0.970703 0.5
vt 0.970703 0.5
vt 0.970703 0.5
vt 0.970703 0.5
vt 0.970703 0.5
vt 0.970703 0.5
vt 0.970703 0.5
vt 0.970703 0.5
vt 0.970703 0.5
vt 0.970703 0.5
vt 0.970703 0.5
vt 0.970703 0.5
vt 0.970703 0.5
vt 0.970703 0.5
vt 0.970703 0.5
vt 0.970703 0.5
vt 0.970703 0.5
vt 0.970703 0.5
vt 0.970703 0.5
vt 0.970703 0.5
vt 0.970703 0.5
vt 0.970703 0.5
vt 0.970703 0.5
vt 0.970703 0.5
vt 0.962891 0.5
vt 0.962891 0.5
vt 0.962891 0.5
vt 0.962891 0.5
vt 0.962891 0.5
vt 0.986328 0.5
vt 0.986328 0.5
vt 0.986328 0.5
vt 0.986328 0.5
vt 0.986328 0.5
vt 0.986328 0.5
vt 0.986328 0.5
vt 0.986328 0.5
vt 0.986328 0.5
vt 0.986328 0.5
vt 0.970703 0.5
vt 0.970703 0.5
vt 0.970703 0.5
vt 0.970703 0.5
vn -1 0 0
vn -1 0 0
vn -1 0 0
vn -1 0 0
vn -1 0 0
vn -1 0 0
vn -1 0 0
vn -1 0 0
vn -1 0 0
vn -1 0 0
vn -1 0 0
vn -1 0 0
vn -1 0 0
vn -1 0 0
vn -1 0 0
vn -1 0 0
vn -1 0 0
vn -1 0 0
vn -1 0 0
vn -1 0 0
vn -1 0 0
vn -1 0 0
vn -1 0 0
vn -1 0 0
vn 1 0 0
vn 1 0 0
vn 1 0 0
vn 1 0 0
vn 1 0 0
vn 1 0 0
vn 1 0 0
vn 1 0 0
vn 1 0 0
vn 1 0 0
vn 1 0 0
vn 1 0 0
vn 1 0 0
vn 1 0 0
vn 1 0 0
vn 1 0 0
vn 1 0 0
vn 1 0 0
vn 1 0 0
vn 1 0 0
vn 1 0 0
vn 1 0 0
vn 1 0 0
vn 1 0 0
vn 0 0 1
vn 0 0 1
vn 0 0 1
vn 0 0 1
vn 0 0 1
vn 0 0 1
vn 0 0 1
vn 0 0 1
vn 0 0 1
vn 0 0 1
vn 0 0 1
vn 0 0 1
vn 0 0 1
vn 0 0 1
vn 0 0 1
vn 0 0 1
vn 0 0 1
vn 0 0 1
vn 0 0 1
vn 0 0 1
vn 0 0 1
vn 0 0 1
vn 0 0 1
vn 0 0 1
vn 0 0 1
vn 0 0 1
vn 0 0 1
vn 0 0 1
vn 0 0 -1
vn 0 0 -1
vn 0 0 -1
vn 0 0 -1
vn 0 0 -1
vn 0 0 -1
vn 0 0 -1
vn 0 0 -1
vn 0 0 -1
vn 0 0 -1
vn 0 0 -1
vn 0 0 -1
vn 0 0 -1
vn 0 0 -1
vn 0 0 -1
vn 0 0 -1
vn 0 0 -1
vn 0 0 -1
vn 0 0 -1
vn 0 0 -1
vn 0 0 -1
vn 0 0 -1
vn 0 0 -1
vn 0 0 -1
vn 0 0 -1
vn 0 0 -1
vn 0 0 -1
vn 0 0 -1
vn 0 0 -1
vn 0 0 -1
vn 0 0 -1
vn 0 0 -1
vn 0 0 -1
vn 0 0 -1
vn 0 0 -1
vn 0 0 -1
vn 0 -1 0
vn 0 -1 0
vn 0 -1 0
vn 0 -1 0
vn 0 -1 0
vn 0 -1 0
vn 0 -1 0
vn 0 -1 0
vn 0 -1 0
vn 0 -1 0
vn 0 -1 0
vn 0 -1 0
vn 0 -1 0
vn 0 -1 0
vn 0 -1 0
vn 0 -1 0
vn 0 -1 0
vn 0 -1 0
vn 0 -1 0
vn 0 -1 0
vn 0 -1 0
vn 0 -1 0
vn 0 -1 0
vn 0 -1 0
vn 0 -1 0
vn 0 -1 0
vn 0 -1 0
vn 0 -1 0
vn 0 -1 0
vn 0 -1 0
vn 0 -1 0
vn 0 -1 0
vn 0 -1 0
vn 0 -1 0
vn 0 -1 0
vn 0 -1 0
vn 0 -1 0
vn 0 -1 0
vn 0 -1 0
vn 0 -1 0
vn 0 -1 0
vn 0 1 0
vn 0 1 0
vn 0 1 0
vn 0 1 0
vn 0 1 0
vn 0 1 0
vn 0 1 0
vn 0 1 0
vn 0 1 0
vn 0 1 0
vn 0 1 0
vn 0 1 0
vn 0 1 0
vn 0 1 0
vn 0 1 0
vn 0 1 0
vn 0 1 0
vn 0 1 0
vn 0 1 0
vn 0 1 0
vn 0 1 0
vn 0 1 0
vn 0 1 0
vn 0 1 0
vn 0 1 0
vn 0 1 0
vn 0 1 0
vn 0 1 0
vn 0 1 0
vn 0 1 0
vn 0 1 0
vn 0 1 0
vn 0 1 0
vn 0 1 0
vn 0 1 0
vn 0 1 0
vn 0 1 0
vn 0 1 0
vn 0 1 0
vn 0 1 0
vn 0 1 0
g default_0
f 3/3/3 2/2/2 1/1/1
f 3/3/3 1/1/1 4/4/4
f 7/7/7 6/6/6 5/5/5
f 7/7/7 5/5/5 8/8/8
f 11/11/11 10/10/10 9/9/9
f 11/11/11 9/9/9 12/12/12
f 15/15/15 14/14/14 13/13/13
f 15/15/15 13/13/13 16/16/16
f 19/19/19 18/18/18 17/17/17
f 19/19/19 17/17/17 20/20/20
f 23/23/23 22/22/22 21/21/21
f 23/23/23 21/21/21 24/24/24
f 27/27/27 26/26/26 25/25/25
f 27/27/27 28/28/28 26/26/26
f 31/31/31 30/30/30 29/29/29
f 31/31/31 32/32/32 30/30/30
f 35/35/35 34/34/34 33/33/33
f 35/35/35 36/36/36 34/34/34
f 39/39/39 38/38/38 37/37/37
f 39/39/39 40/40/40 38/38/38
f 43/43/43 42/42/42 41/41/41
f 43/43/43 44/44/44 42/42/42
f 47/47/47 46/46/46 45/45/45
f 47/47/47 48/48/48 46/46/46
f 51/51/51 50/50/50 49/49/49
f 51/51/51 49/49/49 52/52/52
f 55/55/55 54/54/54 53/53/53
f 55/55/55 53/53/53 56/56/56
f 59/59/59 58/58/58 57/57/57
f 59/59/59 57/57/57 60/60/60
f 63/63/63 62/62/62 61/61/61
f 63/63/63 61/61/61 64/64/64
f 67/67/67 66/66/66 65/65/65
f 67/67/67 65/65/65 68/68/68
f 71/71/71 70/70/70 69/69/69
f 71/71/71 69/69/69 72/72/72
f 75/75/75 74/74/74 73/73/73
f 75/75/75 73/73/73 76/76/76
f 79/79/79 78/78/78 77/77/77
f 79/79/79 80/80/80 78/78/78
f 83/83/83 82/82/82 81/81/81
f 83/83/83 84/84/84 82/82/82
f 87/87/87 86/86/86 85/85/85
f 87/87/87 88/88/88 86/86/86
f 91/91/91 90/90/90 89/89/89
f 91/91/91 92/92/92 90/90/90
f 95/95/95 94/94/94 93/93/93
f 95/95/95 96/96/96 94/94/94
f 99/99/99 98/98/98 97/97/97
f 99/99/99 100/100/100 98/98/98
f 103/103/103 102/102/102 101/101/101
f 103/103/103 104/104/104 102/102/102
f 107/107/107 106/106/106 105/105/105
f 107/107/107 108/108/108 106/106/106
f 111/111/111 110/110/110 109/109/109
f 111/111/111 112/112/112 110/110/110
f 115/115/115 114/114/114 113/113/113
f 115/115/115 113/113/113 116/116/116
f 115/115/115 116/116/116 117/117/117
f 116/116/116 113/113/113 118/118/118
f 113/113/113 119/119/119 118/118/118
f 116/116/116 118/118/118 120/120/120
f 116/116/116 120/120/120 121/121/121
f 116/116/116 121/121/121 122/122/122
f 116/116/116 122/122/122 123/123/123
f 120/120/120 118/118/118 124/124/124
f 118/118/118 125/125/125 124/124/124
f 120/120/120 124/124/124 126/126/126
f 120/120/120 126/126/126 127/127/127
f 122/122/122 121/121/121 128/128/128
f 122/122/122 128/128/128 129/129/129
f 129/129/129 128/128/128 130/130/130
f 129/129/129 130/130/130 131/131/131
f 130/130/130 133/133/133 132/132/132
f 130/130/130 132/132/132 134/134/134
f 137/137/137 136/136/136 135/135/135
f 138/138/138 137/137/137 135/135/135
f 138/138/138 135/135/135 139/139/139
f 142/142/142 141/141/141 140/140/140
f 143/143/143 142/142/142 140/140/140
f 143/143/143 140/140/140 144/144/144
f 143/143/143 144/144/144 145/145/145
f 148/148/148 147/147/147 146/146/146
f 148/148/148 146/146/146 149/149/149
f 152/152/152 151/151/151 150/150/150
f 152/152/152 150/150/150 153/153/153
f 156/156/156 155/155/155 154/154/154
f 156/156/156 157/157/157 155/155/155
f 156/156/156 158/158/158 157/157/157
f 157/157/157 159/159/159 155/155/155
f 155/155/155 159/159/159 160/160/160
f 157/157/157 161/161/161 159/159/159
f 157/157/157 162/162/162 161/161/161
f 157/157/157 163/163/163 162/162/162
f 157/157/157 164/164/164 163/163/163
f 161/161/161 165/165/165 159/159/159
f 159/159/159 165/165/165 166/166/166
f 161/161/161 167/167/167 165/165/165
f 161/161/161 168/168/168 167/167/167
f 163/163/163 169/169/169 162/162/162
f 163/163/163 170/170/170 169/169/169
f 170/170/170 171/171/171 169/169/169
f 170/170/170 172/172/172 171/171/171
f 171/171/171 174/174/174 173/173/173
f 171/171/171 175/175/175 174/174/174
f 178/178/178 177/177/177 176/176/176
f 179/179/179 177/177/177 178/178/178
f 179/179/179 180/180/180 177/177/177
f 183/183/183 182/182/182 181/181/181
f 184/184/184 182/182/182 183/183/183
f 184/184/184 185/185/185 182/182/182
f 184/184/184 186/186/186 185/185/185
f 189/189/189 188/188/188 187/187/187
f 189/189/189 190/190/190 188/188/188
f 193/193/193 192/192/192 191/191/191
f 193/193/193 194/194/194 192/192/192
