g default
v -0.55 0.1 0.25
v -0.55 0 0.25
v -0.55 0 -0.25
v -0.55 0.1 -0.25
v -0.45 0.1 0.35
v -0.45 0 0.35
v -0.45 0 0.25
v -0.45 0.1 0.25
v -0.45 0.1 -0.25
v -0.45 0 -0.25
v -0.45 0 -0.35
v -0.45 0.1 -0.35
v -0.35 0.1 0.45
v -0.35 0 0.45
v -0.35 0 0.35
v -0.35 0.1 0.35
v -0.35 0.1 -0.35
v -0.35 0 -0.35
v -0.35 0 -0.45
v -0.35 0.1 -0.45
v -0.25 0.1 0.55
v -0.25 0 0.55
v -0.25 0 0.45
v -0.25 0.1 0.45
v -0.25 0.1 -0.45
v -0.25 0 -0.45
v -0.25 0 -0.55
v -0.25 0.1 -0.55
v 0.25 0 0.55
v 0.25 0.1 0.55
v 0.25 0 0.45
v 0.25 0.1 0.45
v 0.25 0 -0.45
v 0.25 0.1 -0.45
v 0.25 0 -0.55
v 0.25 0.1 -0.55
v 0.35 0 0.45
v 0.35 0.1 0.45
v 0.35 0 0.35
v 0.35 0.1 0.35
v 0.35 0 -0.35
v 0.35 0.1 -0.35
v 0.35 0 -0.45
v 0.35 0.1 -0.45
v 0.45 0 0.35
v 0.45 0.1 0.35
v 0.45 0 0.25
v 0.45 0.1 0.25
v 0.45 0 -0.25
v 0.45 0.1 -0.25
v 0.45 0 -0.35
v 0.45 0.1 -0.35
v 0.55 0 0.25
v 0.55 0.1 0.25
v 0.55 0 -0.25
v 0.55 0.1 -0.25
v 0.25 0 0.55
v -0.25 0 0.55
v -0.25 0.1 0.55
v 0.25 0.1 0.55
v -0.25 0 0.45
v -0.35 0 0.45
v -0.35 0.1 0.45
v -0.25 0.1 0.45
v 0.35 0 0.45
v 0.25 0 0.45
v 0.25 0.1 0.45
v 0.35 0.1 0.45
v -0.35 0 0.35
v -0.45 0 0.35
v -0.45 0.1 0.35
v -0.35 0.1 0.35
v 0.45 0 0.35
v 0.35 0 0.35
v 0.35 0.1 0.35
v 0.45 0.1 0.35
v -0.45 0 0.25
v -0.55 0 0.25
v -0.55 0.1 0.25
v -0.45 0.1 0.25
v 0.55 0 0.25
v 0.45 0 0.25
v 0.45 0.1 0.25
v 0.55 0.1 0.25
v -0.55 0 -0.25
v -0.45 0 -0.25
v -0.55 0.1 -0.25
v -0.45 0.1 -0.25
v 0.45 0 -0.25
v 0.55 0 -0.25
v 0.45 0.1 -0.25
v 0.55 0.1 -0.25
v -0.45 0 -0.35
v -0.35 0 -0.35
v -0.45 0.1 -0.35
v -0.35 0.1 -0.35
v 0.35 0 -0.35
v 0.45 0 -0.35
v 0.35 0.1 -0.35
v 0.45 0.1 -0.35
v -0.35 0 -0.45
v -0.25 0 -0.45
v -0.35 0.1 -0.45
v -0.25 0.1 -0.45
v 0.25 0 -0.45
v 0.35 0 -0.45
v 0.25 0.1 -0.45
v 0.35 0.1 -0.45
v -0.25 0 -0.55
v 0.25 0 -0.55
v -0.25 0.1 -0.55
v 0.25 0.1 -0.55
v -0.25 0 0.45
v -0.25 0 0.55
v 0.25 0 0.55
v 0.25 0 0.45
v -0.35 0 0.35
v -0.35 0 0.45
v 0.35 0 0.45
v -0.15 0 0.35
v 0.15 0 0.35
v 0.35 0 0.35
v -0.45 0 0.25
v -0.45 0 0.35
v -0.25 0 0.25
v -0.15 0 0.25
v 0.15 0 0.25
v 0.45 0 0.35
v 0.25 0 0.25
v 0.45 0 0.25
v -0.35 0 0.15
v -0.55 0 0.25
v -0.25 0 0.15
v -0.15 0 0.15
v 0.15 0 0.15
v 0.25 0 0.15
v 0.55 0 0.25
v 0.35 0 0.15
v -0.35 0 -0.15
v -0.25 0 -0.15
v -0.15 0 -0.15
v 0.15 0 -0.15
v 0.25 0 -0.15
v 0.35 0 -0.15
v -0.55 0 -0.25
v -0.45 0 -0.25
v -0.25 0 -0.25
v -0.15 0 -0.25
v 0.15 0 -0.25
v 0.25 0 -0.25
v 0.45 0 -0.25
v 0.55 0 -0.25
v -0.45 0 -0.35
v -0.35 0 -0.35
v -0.15 0 -0.35
v 0.15 0 -0.35
v 0.35 0 -0.35
v 0.45 0 -0.35
v -0.35 0 -0.45
v -0.25 0 -0.45
v 0.25 0 -0.45
v 0.35 0 -0.45
v -0.25 0 -0.55
v 0.25 0 -0.55
v -0.15 0 0.25
v -0.15 0 0.35
v 0.15 0 0.35
v 0.15 0 0.25
v -0.25 0 0.15
v -0.25 0 0.25
v -0.15 0 0.15
v 0.15 0 0.15
v 0.25 0 0.25
v 0.25 0 0.15
v -0.35 0 -0.15
v -0.35 0 0.15
v -0.25 0 -0.15
v 0.25 0 -0.15
v 0.35 0 0.15
v 0.35 0 -0.15
v -0.25 0 -0.25
v -0.15 0 -0.15
v -0.15 0 -0.25
v 0.15 0 -0.25
v 0.15 0 -0.15
v 0.25 0 -0.25
v -0.15 0 -0.35
v 0.15 0 -0.35
v -0.25 0.1 0.55
v -0.25 0.1 0.45
v 0.25 0.1 0.55
v 0.25 0.1 0.45
v -0.35 0.1 0.35
v -0.35 0.1 0.45
v 0.35 0.1 0.45
v -0.15 0.1 0.35
v 0.15 0.1 0.35
v 0.35 0.1 0.35
v -0.45 0.1 0.25
v -0.45 0.1 0.35
v -0.25 0.1 0.25
v -0.15 0.1 0.25
v 0.15 0.1 0.25
v 0.45 0.1 0.35
v 0.25 0.1 0.25
v 0.45 0.1 0.25
v -0.35 0.1 0.15
v -0.55 0.1 0.25
v -0.25 0.1 0.15
v -0.15 0.1 0.15
v 0.15 0.1 0.15
v 0.25 0.1 0.15
v 0.55 0.1 0.25
v 0.35 0.1 0.15
v -0.35 0.1 -0.15
v -0.25 0.1 -0.15
v -0.15 0.1 -0.15
v 0.15 0.1 -0.15
v 0.25 0.1 -0.15
v 0.35 0.1 -0.15
v -0.55 0.1 -0.25
v -0.45 0.1 -0.25
v -0.25 0.1 -0.25
v -0.15 0.1 -0.25
v 0.15 0.1 -0.25
v 0.25 0.1 -0.25
v 0.45 0.1 -0.25
v 0.55 0.1 -0.25
v -0.45 0.1 -0.35
v -0.35 0.1 -0.35
v -0.15 0.1 -0.35
v 0.15 0.1 -0.35
v 0.35 0.1 -0.35
v 0.45 0.1 -0.35
v -0.35 0.1 -0.45
v -0.25 0.1 -0.45
v 0.25 0.1 -0.45
v 0.35 0.1 -0.45
v -0.25 0.1 -0.55
v 0.25 0.1 -0.55
v -0.15 0.1 0.35
v -0.15 0.1 0.25
v 0.15 0.1 0.35
v 0.15 0.1 0.25
v -0.25 0.1 0.25
v -0.25 0.1 0.15
v -0.15 0.1 0.15
v 0.15 0.1 0.15
v 0.25 0.1 0.25
v 0.25 0.1 0.15
v -0.35 0.1 0.15
v -0.35 0.1 -0.15
v -0.25 0.1 -0.15
v 0.25 0.1 -0.15
v 0.35 0.1 0.15
v 0.35 0.1 -0.15
v -0.25 0.1 -0.25
v -0.15 0.1 -0.15
v -0.15 0.1 -0.25
v 0.15 0.1 -0.15
v 0.15 0.1 -0.25
v 0.25 0.1 -0.25
v -0.15 0.1 -0.35
v 0.15 0.1 -0.35
vt 0.962891 0.5
vt 0.962891 0.5
vt 0.962891 0.5
vt 0.962891 0.5
vt 0.962891 0.5
vt 0.962891 0.5
vt 0.962891 0.5
vt 0.962891 0.5
vt 0.962891 0.5
vt 0.962891 0.5
vt 0.962891 0.5
vt 0.962891 0.5
vt 0.962891 0.5
vt 0.962891 0.5
vt 0.962891 0.5
vt 0.962891 0.5
vt 0.962891 0.5
vt 0.962891 0.5
vt 0.962891 0.5
vt 0.962891 0.5
vt 0.962891 0.5
vt 0.962891 0.5
vt 0.962891 0.5
vt 0.962891 0.5
vt 0.962891 0.5
vt 0.962891 0.5
vt 0.962891 0.5
vt 0.962891 0.5
vt 0.962891 0.5
vt 0.962891 0.5
vt 0.962891 0.5
vt 0.962891 0.5
vt 0.962891 0.5
vt 0.962891 0.5
vt 0.962891 0.5
vt 0.962891 0.5
vt 0.962891 0.5
vt 0.962891 0.5
vt 0.962891 0.5
vt 0.962891 0.5
vt 0.962891 0.5
vt 0.962891 0.5
vt 0.962891 0.5
vt 0.962891 0.5
vt 0.962891 0.5
vt 0.962891 0.5
vt 0.962891 0.5
vt 0.962891 0.5
vt 0.962891 0.5
vt 0.962891 0.5
vt 0.962891 0.5
vt 0.962891 0.5
vt 0.962891 0.5
vt 0.962891 0.5
vt 0.962891 0.5
vt 0.962891 0.5
vt 0.962891 0.5
vt 0.962891 0.5
vt 0.962891 0.5
vt 0.962891 0.5
vt 0.962891 0.5
vt 0.962891 0.5
vt 0.962891 0.5
vt 0.962891 0.5
vt 0.962891 0.5
vt 0.962891 0.5
vt 0.962891 0.5
vt 0.962891 0.5
vt 0.962891 0.5
vt 0.962891 0.5
vt 0.962891 0.5
vt 0.962891 0.5
vt 0.962891 0.5
vt 0.962891 0.5
vt 0.962891 0.5
vt 0.962891 0.5
vt 0.962891 0.5
vt 0.962891 0.5
vt 0.962891 0.5
vt 0.962891 0.5
vt 0.962891 0.5
vt 0.962891 0.5
vt 0.962891 0.5
vt 0.962891 0.5
vt 0.962891 0.5
vt 0.962891 0.5
vt 0.962891 0.5
vt 0.962891 0.5
vt 0.962891 0.5
vt 0.962891 0.5
vt 0.962891 0.5
vt 0.962891 0.5
vt 0.962891 0.5
vt 0.962891 0.5
vt 0.962891 0.5
vt 0.962891 0.5
vt 0.962891 0.5
vt 0.962891 0.5
vt 0.962891 0.5
vt 0.962891 0.5
vt 0.962891 0.5
vt 0.962891 0.5
vt 0.962891 0.5
vt 0.962891 0.5
vt 0.962891 0.5
vt 0.962891 0.5
vt 0.962891 0.5
vt 0.962891 0.5
vt 0.962891 0.5
vt 0.962891 0.5
vt 0.962891 0.5
vt 0.962891 0.5
vt 0.962891 0.5
vt 0.962891 0.5
vt 0.962891 0.5
vt 0.962891 0.5
vt 0.962891 0.5
vt 0.962891 0.5
vt 0.962891 0.5
vt 0.962891 0.5
vt 0.962891 0.5
vt 0.962891 0.5
vt 0.962891 0.5
vt 0.962891 0.5
vt 0.962891 0.5
vt 0.962891 0.5
vt 0.962891 0.5
vt 0.962891 0.5
vt 0.962891 0.5
vt 0.962891 0.5
vt 0.962891 0.5
vt 0.962891 0.5
vt 0.962891 0.5
vt 0.962891 0.5
vt 0.962891 0.5
vt 0.962891 0.5
vt 0.962891 0.5
vt 0.962891 0.5
vt 0.962891 0.5
vt 0.962891 0.5
vt 0.962891 0.5
vt 0.962891 0.5
vt 0.962891 0.5
vt 0.962891 0.5
vt 0.962891 0.5
vt 0.962891 0.5
vt 0.962891 0.5
vt 0.962891 0.5
vt 0.962891 0.5
vt 0.962891 0.5
vt 0.962891 0.5
vt 0.962891 0.5
vt 0.962891 0.5
vt 0.962891 0.5
vt 0.962891 0.5
vt 0.962891 0.5
vt 0.962891 0.5
vt 0.962891 0.5
vt 0.962891 0.5
vt 0.962891 0.5
vt 0.962891 0.5
vt 0.962891 0.5
vt 0.962891 0.5
vt 0.962891 0.5
vt 0.966797 0.5
vt 0.966797 0.5
vt 0.966797 0.5
vt 0.966797 0.5
vt 0.966797 0.5
vt 0.966797 0.5
vt 0.966797 0.5
vt 0.966797 0.5
vt 0.966797 0.5
vt 0.966797 0.5
vt 0.966797 0.5
vt 0.966797 0.5
vt 0.966797 0.5
vt 0.966797 0.5
vt 0.966797 0.5
vt 0.966797 0.5
vt 0.966797 0.5
vt 0.966797 0.5
vt 0.966797 0.5
vt 0.966797 0.5
vt 0.966797 0.5
vt 0.966797 0.5
vt 0.966797 0.5
vt 0.966797 0.5
vt 0.962891 0.5
vt 0.962891 0.5
vt 0.962891 0.5
vt 0.962891 0.5
vt 0.962891 0.5
vt 0.962891 0.5
vt 0.962891 0.5
vt 0.962891 0.5
vt 0.962891 0.5
vt 0.962891 0.5
vt 0.962891 0.5
vt 0.962891 0.5
vt 0.962891 0.5
vt 0.962891 0.5
vt 0.962891 0.5
vt 0.962891 0.5
vt 0.962891 0.5
vt 0.962891 0.5
vt 0.962891 0.5
vt 0.962891 0.5
vt 0.962891 0.5
vt 0.962891 0.5
vt 0.962891 0.5
vt 0.962891 0.5
vt 0.962891 0.5
vt 0.962891 0.5
vt 0.962891 0.5
vt 0.962891 0.5
vt 0.962891 0.5
vt 0.962891 0.5
vt 0.962891 0.5
vt 0.962891 0.5
vt 0.962891 0.5
vt 0.962891 0.5
vt 0.962891 0.5
vt 0.962891 0.5
vt 0.962891 0.5
vt 0.962891 0.5
vt 0.962891 0.5
vt 0.962891 0.5
vt 0.962891 0.5
vt 0.962891 0.5
vt 0.962891 0.5
vt 0.962891 0.5
vt 0.962891 0.5
vt 0.962891 0.5
vt 0.962891 0.5
vt 0.962891 0.5
vt 0.962891 0.5
vt 0.962891 0.5
vt 0.962891 0.5
vt 0.962891 0.5
vt 0.966797 0.5
vt 0.966797 0.5
vt 0.966797 0.5
vt 0.966797 0.5
vt 0.966797 0.5
vt 0.966797 0.5
vt 0.966797 0.5
vt 0.966797 0.5
vt 0.966797 0.5
vt 0.966797 0.5
vt 0.966797 0.5
vt 0.966797 0.5
vt 0.966797 0.5
vt 0.966797 0.5
vt 0.966797 0.5
vt 0.966797 0.5
vt 0.966797 0.5
vt 0.966797 0.5
vt 0.966797 0.5
vt 0.966797 0.5
vt 0.966797 0.5
vt 0.966797 0.5
vt 0.966797 0.5
vt 0.966797 0.5
vn -1 0 0
vn -1 0 0
vn -1 0 0
vn -1 0 0
vn -1 0 0
vn -1 0 0
vn -1 0 0
vn -1 0 0
vn -1 0 0
vn -1 0 0
vn -1 0 0
vn -1 0 0
vn -1 0 0
vn -1 0 0
vn -1 0 0
vn -1 0 0
vn -1 0 0
vn -1 0 0
vn -1 0 0
vn -1 0 0
vn -1 0 0
vn -1 0 0
vn -1 0 0
vn -1 0 0
vn -1 0 0
vn -1 0 0
vn -1 0 0
vn -1 0 0
vn 1 0 0
vn 1 0 0
vn 1 0 0
vn 1 0 0
vn 1 0 0
vn 1 0 0
vn 1 0 0
vn 1 0 0
vn 1 0 0
vn 1 0 0
vn 1 0 0
vn 1 0 0
vn 1 0 0
vn 1 0 0
vn 1 0 0
vn 1 0 0
vn 1 0 0
vn 1 0 0
vn 1 0 0
vn 1 0 0
vn 1 0 0
vn 1 0 0
vn 1 0 0
vn 1 0 0
vn 1 0 0
vn 1 0 0
vn 1 0 0
vn 1 0 0
vn 0 0 1
vn 0 0 1
vn 0 0 1
vn 0 0 1
vn 0 0 1
vn 0 0 1
vn 0 0 1
vn 0 0 1
vn 0 0 1
vn 0 0 1
vn 0 0 1
vn 0 0 1
vn 0 0 1
vn 0 0 1
vn 0 0 1
vn 0 0 1
vn 0 0 1
vn 0 0 1
vn 0 0 1
vn 0 0 1
vn 0 0 1
vn 0 0 1
vn 0 0 1
vn 0 0 1
vn 0 0 1
vn 0 0 1
vn 0 0 1
vn 0 0 1
vn 0 0 -1
vn 0 0 -1
vn 0 0 -1
vn 0 0 -1
vn 0 0 -1
vn 0 0 -1
vn 0 0 -1
vn 0 0 -1
vn 0 0 -1
vn 0 0 -1
vn 0 0 -1
vn 0 0 -1
vn 0 0 -1
vn 0 0 -1
vn 0 0 -1
vn 0 0 -1
vn 0 0 -1
vn 0 0 -1
vn 0 0 -1
vn 0 0 -1
vn 0 0 -1
vn 0 0 -1
vn 0 0 -1
vn 0 0 -1
vn 0 0 -1
vn 0 0 -1
vn 0 0 -1
vn 0 0 -1
vn 0 -1 0
vn 0 -1 0
vn 0 -1 0
vn 0 -1 0
vn 0 -1 0
vn 0 -1 0
vn 0 -1 0
vn 0 -1 0
vn 0 -1 0
vn 0 -1 0
vn 0 -1 0
vn 0 -1 0
vn 0 -1 0
vn 0 -1 0
vn 0 -1 0
vn 0 -1 0
vn 0 -1 0
vn 0 -1 0
vn 0 -1 0
vn 0 -1 0
vn 0 -1 0
vn 0 -1 0
vn 0 -1 0
vn 0 -1 0
vn 0 -1 0
vn 0 -1 0
vn 0 -1 0
vn 0 -1 0
vn 0 -1 0
vn 0 -1 0
vn 0 -1 0
vn 0 -1 0
vn 0 -1 0
vn 0 -1 0
vn 0 -1 0
vn 0 -1 0
vn 0 -1 0
vn 0 -1 0
vn 0 -1 0
vn 0 -1 0
vn 0 -1 0
vn 0 -1 0
vn 0 -1 0
vn 0 -1 0
vn 0 -1 0
vn 0 -1 0
vn 0 -1 0
vn 0 -1 0
vn 0 -1 0
vn 0 -1 0
vn 0 -1 0
vn 0 -1 0
vn 0 -1 0
vn 0 -1 0
vn 0 -1 0
vn 0 -1 0
vn 0 -1 0
vn 0 -1 0
vn 0 -1 0
vn 0 -1 0
vn 0 -1 0
vn 0 -1 0
vn 0 -1 0
vn 0 -1 0
vn 0 -1 0
vn 0 -1 0
vn 0 -1 0
vn 0 -1 0
vn 0 -1 0
vn 0 -1 0
vn 0 -1 0
vn 0 -1 0
vn 0 -1 0
vn 0 -1 0
vn 0 -1 0
vn 0 -1 0
vn 0 1 0
vn 0 1 0
vn 0 1 0
vn 0 1 0
vn 0 1 0
vn 0 1 0
vn 0 1 0
vn 0 1 0
vn 0 1 0
vn 0 1 0
vn 0 1 0
vn 0 1 0
vn 0 1 0
vn 0 1 0
vn 0 1 0
vn 0 1 0
vn 0 1 0
vn 0 1 0
vn 0 1 0
vn 0 1 0
vn 0 1 0
vn 0 1 0
vn 0 1 0
vn 0 1 0
vn 0 1 0
vn 0 1 0
vn 0 1 0
vn 0 1 0
vn 0 1 0
vn 0 1 0
vn 0 1 0
vn 0 1 0
vn 0 1 0
vn 0 1 0
vn 0 1 0
vn 0 1 0
vn 0 1 0
vn 0 1 0
vn 0 1 0
vn 0 1 0
vn 0 1 0
vn 0 1 0
vn 0 1 0
vn 0 1 0
vn 0 1 0
vn 0 1 0
vn 0 1 0
vn 0 1 0
vn 0 1 0
vn 0 1 0
vn 0 1 0
vn 0 1 0
vn 0 1 0
vn 0 1 0
vn 0 1 0
vn 0 1 0
vn 0 1 0
vn 0 1 0
vn 0 1 0
vn 0 1 0
vn 0 1 0
vn 0 1 0
vn 0 1 0
vn 0 1 0
vn 0 1 0
vn 0 1 0
vn 0 1 0
vn 0 1 0
vn 0 1 0
vn 0 1 0
vn 0 1 0
vn 0 1 0
vn 0 1 0
vn 0 1 0
vn 0 1 0
vn 0 1 0
g default_0
f 3/3/3 2/2/2 1/1/1
f 3/3/3 1/1/1 4/4/4
f 7/7/7 6/6/6 5/5/5
f 7/7/7 5/5/5 8/8/8
f 11/11/11 10/10/10 9/9/9
f 11/11/11 9/9/9 12/12/12
f 15/15/15 14/14/14 13/13/13
f 15/15/15 13/13/13 16/16/16
f 19/19/19 18/18/18 17/17/17
f 19/19/19 17/17/17 20/20/20
f 23/23/23 22/22/22 21/21/21
f 23/23/23 21/21/21 24/24/24
f 27/27/27 26/26/26 25/25/25
f 27/27/27 25/25/25 28/28/28
f 31/31/31 30/30/30 29/29/29
f 31/31/31 32/32/32 30/30/30
f 35/35/35 34/34/34 33/33/33
f 35/35/35 36/36/36 34/34/34
f 39/39/39 38/38/38 37/37/37
f 39/39/39 40/40/40 38/38/38
f 43/43/43 42/42/42 41/41/41
f 43/43/43 44/44/44 42/42/42
f 47/47/47 46/46/46 45/45/45
f 47/47/47 48/48/48 46/46/46
f 51/51/51 50/50/50 49/49/49
f 51/51/51 52/52/52 50/50/50
f 55/55/55 54/54/54 53/53/53
f 55/55/55 56/56/56 54/54/54
f 59/59/59 58/58/58 57/57/57
f 59/59/59 57/57/57 60/60/60
f 63/63/63 62/62/62 61/61/61
f 63/63/63 61/61/61 64/64/64
f 67/67/67 66/66/66 65/65/65
f 67/67/67 65/65/65 68/68/68
f 71/71/71 70/70/70 69/69/69
f 71/71/71 69/69/69 72/72/72
f 75/75/75 74/74/74 73/73/73
f 75/75/75 73/73/73 76/76/76
f 79/79/79 78/78/78 77/77/77
f 79/79/79 77/77/77 80/80/80
f 83/83/83 82/82/82 81/81/81
f 83/83/83 81/81/81 84/84/84
f 87/87/87 86/86/86 85/85/85
f 87/87/87 88/88/88 86/86/86
f 91/91/91 90/90/90 89/89/89
f 91/91/91 92/92/92 90/90/90
f 95/95/95 94/94/94 93/93/93
f 95/95/95 96/96/96 94/94/94
f 99/99/99 98/98/98 97/97/97
f 99/99/99 100/100/100 98/98/98
f 103/103/103 102/102/102 101/101/101
f 103/103/103 104/104/104 102/102/102
f 107/107/107 106/106/106 105/105/105
f 107/107/107 108/108/108 106/106/106
f 111/111/111 110/110/110 109/109/109
f 111/111/111 112/112/112 110/110/110
f 115/115/115 114/114/114 113/113/113
f 115/115/115 113/113/113 116/116/116
f 116/116/116 113/113/113 117/117/117
f 113/113/113 118/118/118 117/117/117
f 119/119/119 116/116/116 117/117/117
f 119/119/119 117/117/117 120/120/120
f 119/119/119 120/120/120 121/121/121
f 119/119/119 121/121/121 122/122/122
f 120/120/120 117/117/117 123/123/123
f 117/117/117 124/124/124 123/123/123
f 120/120/120 123/123/123 125/125/125
f 120/120/120 125/125/125 126/126/126
f 122/122/122 121/121/121 127/127/127
f 128/128/128 122/122/122 127/127/127
f 128/128/128 127/127/127 129/129/129
f 128/128/128 129/129/129 130/130/130
f 125/125/125 123/123/123 131/131/131
f 123/123/123 132/132/132 131/131/131
f 125/125/125 131/131/131 133/133/133
f 127/127/127 126/126/126 134/134/134
f 127/127/127 134/134/134 135/135/135
f 130/130/130 129/129/129 136/136/136
f 137/137/137 130/130/130 136/136/136
f 137/137/137 136/136/136 138/138/138
f 131/131/131 132/132/132 139/139/139
f 135/135/135 134/134/134 140/140/140
f 134/134/134 133/133/133 140/140/140
f 136/136/136 135/135/135 140/140/140
f 136/136/136 140/140/140 141/141/141
f 136/136/136 141/141/141 142/142/142
f 136/136/136 142/142/142 143/143/143
f 137/137/137 138/138/138 144/144/144
f 139/139/139 132/132/132 145/145/145
f 140/140/140 139/139/139 145/145/145
f 140/140/140 145/145/145 146/146/146
f 140/140/140 146/146/146 147/147/147
f 142/142/142 141/141/141 148/148/148
f 142/142/142 148/148/148 149/149/149
f 144/144/144 143/143/143 150/150/150
f 137/137/137 144/144/144 151/151/151
f 144/144/144 150/150/150 151/151/151
f 137/137/137 151/151/151 152/152/152
f 148/148/148 147/147/147 153/153/153
f 147/147/147 146/146/146 153/153/153
f 148/148/148 153/153/153 154/154/154
f 148/148/148 154/154/154 155/155/155
f 150/150/150 149/149/149 156/156/156
f 151/151/151 150/150/150 156/156/156
f 151/151/151 156/156/156 157/157/157
f 151/151/151 157/157/157 158/158/158
f 155/155/155 154/154/154 159/159/159
f 157/157/157 156/156/156 159/159/159
f 156/156/156 155/155/155 159/159/159
f 157/157/157 159/159/159 160/160/160
f 157/157/157 160/160/160 161/161/161
f 157/157/157 161/161/161 162/162/162
f 161/161/161 160/160/160 163/163/163
f 161/161/161 163/163/163 164/164/164
f 167/167/167 166/166/166 165/165/165
f 167/167/167 165/165/165 168/168/168
f 165/165/165 170/170/170 169/169/169
f 165/165/165 169/169/169 171/171/171
f 173/173/173 168/168/168 172/172/172
f 173/173/173 172/172/172 174/174/174
f 169/169/169 176/176/176 175/175/175
f 169/169/169 175/175/175 177/177/177
f 179/179/179 174/174/174 178/178/178
f 179/179/179 178/178/178 180/180/180
f 182/182/182 177/177/177 181/181/181
f 182/182/182 181/181/181 183/183/183
f 178/178/178 185/185/185 184/184/184
f 178/178/178 184/184/184 186/186/186
f 184/184/184 183/183/183 187/187/187
f 184/184/184 187/187/187 188/188/188
f 191/191/191 190/190/190 189/189/189
f 191/191/191 192/192/192 190/190/190
f 192/192/192 193/193/193 190/190/190
f 190/190/190 193/193/193 194/194/194
f 195/195/195 193/193/193 192/192/192
f 195/195/195 196/196/196 193/193/193
f 195/195/195 197/197/197 196/196/196
f 195/195/195 198/198/198 197/197/197
f 196/196/196 199/199/199 193/193/193
f 193/193/193 199/199/199 200/200/200
f 196/196/196 201/201/201 199/199/199
f 196/196/196 202/202/202 201/201/201
f 198/198/198 203/203/203 197/197/197
f 204/204/204 203/203/203 198/198/198
f 204/204/204 205/205/205 203/203/203
f 204/204/204 206/206/206 205/205/205
f 201/201/201 207/207/207 199/199/199
f 199/199/199 207/207/207 208/208/208
f 201/201/201 209/209/209 207/207/207
f 203/203/203 210/210/210 202/202/202
f 203/203/203 211/211/211 210/210/210
f 206/206/206 212/212/212 205/205/205
f 213/213/213 212/212/212 206/206/206
f 213/213/213 214/214/214 212/212/212
f 207/207/207 215/215/215 208/208/208
f 211/211/211 216/216/216 210/210/210
f 210/210/210 216/216/216 209/209/209
f 212/212/212 216/216/216 211/211/211
f 212/212/212 217/217/217 216/216/216
f 212/212/212 218/218/218 217/217/217
f 212/212/212 219/219/219 218/218/218
f 213/213/213 220/220/220 214/214/214
f 215/215/215 221/221/221 208/208/208
f 216/216/216 221/221/221 215/215/215
f 216/216/216 222/222/222 221/221/221
f 216/216/216 223/223/223 222/222/222
f 218/218/218 224/224/224 217/217/217
f 218/218/218 225/225/225 224/224/224
f 220/220/220 226/226/226 219/219/219
f 213/213/213 227/227/227 220/220/220
f 220/220/220 227/227/227 226/226/226
f 213/213/213 228/228/228 227/227/227
f 224/224/224 229/229/229 223/223/223
f 223/223/223 229/229/229 222/222/222
f 224/224/224 230/230/230 229/229/229
f 224/224/224 231/231/231 230/230/230
f 226/226/226 232/232/232 225/225/225
f 227/227/227 232/232/232 226/226/226
f 227/227/227 233/233/233 232/232/232
f 227/227/227 234/234/234 233/233/233
f 231/231/231 235/235/235 230/230/230
f 233/233/233 235/235/235 232/232/232
f 232/232/232 235/235/235 231/231/231
f 233/233/233 236/236/236 235/235/235
f 233/233/233 237/237/237 236/236/236
f 233/233/233 238/238/238 237/237/237
f 237/237/237 239/239/239 236/236/236
f 237/237/237 240/240/240 239/239/239
f 243/243/243 242/242/242 241/241/241
f 243/243/243 244/244/244 242/242/242
f 242/242/242 246/246/246 245/245/245
f 242/242/242 247/247/247 246/246/246
f 249/249/249 248/248/248 244/244/244
f 249/249/249 250/250/250 248/248/248
f 246/246/246 252/252/252 251/251/251
f 246/246/246 253/253/253 252/252/252
f 255/255/255 254/254/254 250/250/250
f 255/255/255 256/256/256 254/254/254
f 258/258/258 257/257/257 253/253/253
f 258/258/258 259/259/259 257/257/257
f 254/254/254 261/261/261 260/260/260
f 254/254/254 262/262/262 261/261/261
f 261/261/261 263/263/263 259/259/259
f 261/261/261 264/264/264 263/263/263
