# MagicaVoxel @ Ephtracy

# group
o 

# material
mtllib Sword.mtl
usemtl palette

# normals
vn 0 0 1
vn 0 0 -1
vn 1 0 0
vn -1 0 0
vn 0 -1 0
vn 0 1 0

# texcoords
vt 0.791016 0.5
vt 0.798828 0.5
vt 0.802734 0.5
vt 0.884766 0.5
vt 0.888672 0.5
vt 0.892578 0.5
vt 0.896484 0.5

# verts
v 0.3 0.7 0.5
v -0.2 0.7 0.5
v 0.3 0.8 0.5
v 0.2 0.8 0.5
v -0.1 0.8 0.5
v -0.2 0.8 0.5
v 0.2 0.9 0.5
v -0.1 0.9 0.5
v 0.4 0.7 0.4
v 0.3 0.7 0.4
v -0.2 0.7 0.4
v -0.3 0.7 0.4
v 0.4 0.8 0.4
v 0.3 0.8 0.4
v 0.2 0.8 0.4
v -0.1 0.8 0.4
v -0.2 0.8 0.4
v -0.3 0.8 0.4
v 0.3 0.9 0.4
v 0.2 0.9 0.4
v -0.1 0.9 0.4
v -0.2 0.9 0.4
v 0.2 0 0.3
v -0.1 0 0.3
v 0.2 0.1 0.3
v 0.1 0.1 0.3
v 0 0.1 0.3
v -0.1 0.1 0.3
v 0.2 0.2 0.3
v 0.1 0.2 0.3
v 0 0.2 0.3
v -0.1 0.2 0.3
v 0.2 0.3 0.3
v 0.1 0.3 0.3
v 0 0.3 0.3
v -0.1 0.3 0.3
v 0.2 0.4 0.3
v 0.1 0.4 0.3
v 0 0.4 0.3
v -0.1 0.4 0.3
v 0.2 0.5 0.3
v 0.1 0.5 0.3
v 0 0.5 0.3
v -0.1 0.5 0.3
v 0.2 0.6 0.3
v 0.1 0.6 0.3
v 0 0.6 0.3
v -0.1 0.6 0.3
v 0.2 0.7 0.3
v -0.1 0.7 0.3
v 0.4 0.8 0.3
v 0.3 0.8 0.3
v -0.2 0.8 0.3
v -0.3 0.8 0.3
v 0.4 0.9 0.3
v 0.3 0.9 0.3
v 0.1 0.9 0.3
v 0 0.9 0.3
v -0.2 0.9 0.3
v -0.3 0.9 0.3
v 0.1 1.7 0.3
v 0 1.7 0.3
v 0.1 3.9 0.3
v 0 3.9 0.3
v 0.2 0.9 0.2
v 0.1 0.9 0.2
v 0 0.9 0.2
v -0.1 0.9 0.2
v 0.2 1.3 0.2
v 0.1 1.3 0.2
v 0 1.4 0.2
v -0.1 1.4 0.2
v 0.1 1.7 0.2
v 0 1.7 0.2
v 0.2 3.9 0.2
v 0.1 3.9 0.2
v 0 3.9 0.2
v -0.1 3.9 0.2
v 0.1 4 0.2
v 0 4 0.2
v 0.2 0.9 0.1
v 0.1 0.9 0.1
v 0 0.9 0.1
v -0.1 0.9 0.1
v 0.1 1.2 0.1
v 0 1.2 0.1
v 0.2 1.3 0.1
v 0.1 1.3 0.1
v 0 1.4 0.1
v -0.1 1.4 0.1
v 0.2 3.9 0.1
v 0.1 3.9 0.1
v 0 3.9 0.1
v -0.1 3.9 0.1
v 0.1 4 0.1
v 0 4 0.1
v 0.2 0 0
v -0.1 0 0
v 0.2 0.1 0
v 0.1 0.1 0
v 0 0.1 0
v -0.1 0.1 0
v 0.2 0.2 0
v 0.1 0.2 0
v 0 0.2 0
v -0.1 0.2 0
v 0.2 0.3 0
v 0.1 0.3 0
v 0 0.3 0
v -0.1 0.3 0
v 0.2 0.4 0
v 0.1 0.4 0
v 0 0.4 0
v -0.1 0.4 0
v 0.2 0.5 0
v 0.1 0.5 0
v 0 0.5 0
v -0.1 0.5 0
v 0.2 0.6 0
v 0.1 0.6 0
v 0 0.6 0
v -0.1 0.6 0
v 0.2 0.7 0
v -0.1 0.7 0
v 0.4 0.8 0
v 0.3 0.8 0
v -0.2 0.8 0
v -0.3 0.8 0
v 0.4 0.9 0
v 0.3 0.9 0
v 0.1 0.9 0
v 0 0.9 0
v -0.2 0.9 0
v -0.3 0.9 0
v 0.1 1.2 0
v 0 1.2 0
v 0.1 3.9 0
v 0 3.9 0
v 0.4 0.7 -0.1
v 0.3 0.7 -0.1
v -0.2 0.7 -0.1
v -0.3 0.7 -0.1
v 0.4 0.8 -0.1
v 0.3 0.8 -0.1
v 0.2 0.8 -0.1
v -0.1 0.8 -0.1
v -0.2 0.8 -0.1
v -0.3 0.8 -0.1
v 0.3 0.9 -0.1
v 0.2 0.9 -0.1
v -0.1 0.9 -0.1
v -0.2 0.9 -0.1
v 0.3 0.7 -0.2
v -0.2 0.7 -0.2
v 0.3 0.8 -0.2
v 0.2 0.8 -0.2
v -0.1 0.8 -0.2
v -0.2 0.8 -0.2
v 0.2 0.9 -0.2
v -0.1 0.9 -0.2
v 0.4 0.7 0.4
v 0.4 0.8 0.4
v 0.4 0.8 0.3
v 0.4 0.9 0.3
v 0.4 0.8 0
v 0.4 0.9 0
v 0.4 0.7 -0.1
v 0.4 0.8 -0.1
v 0.3 0.7 0.5
v 0.3 0.8 0.5
v 0.3 0.7 0.4
v 0.3 0.8 0.4
v 0.3 0.9 0.4
v 0.3 0.8 0.3
v 0.3 0.9 0.3
v 0.3 0.8 0
v 0.3 0.9 0
v 0.3 0.7 -0.1
v 0.3 0.8 -0.1
v 0.3 0.9 -0.1
v 0.3 0.7 -0.2
v 0.3 0.8 -0.2
v 0.2 0.8 0.5
v 0.2 0.9 0.5
v 0.2 0.8 0.4
v 0.2 0.9 0.4
v 0.2 0 0.3
v 0.2 0.1 0.3
v 0.2 0.2 0.3
v 0.2 0.3 0.3
v 0.2 0.4 0.3
v 0.2 0.5 0.3
v 0.2 0.6 0.3
v 0.2 0.7 0.3
v 0.2 0.1 0.2
v 0.2 0.2 0.2
v 0.2 0.3 0.2
v 0.2 0.4 0.2
v 0.2 0.5 0.2
v 0.2 0.6 0.2
v 0.2 0.9 0.2
v 0.2 1.3 0.2
v 0.2 3.9 0.2
v 0.2 0.1 0.1
v 0.2 0.2 0.1
v 0.2 0.3 0.1
v 0.2 0.4 0.1
v 0.2 0.5 0.1
v 0.2 0.6 0.1
v 0.2 0.9 0.1
v 0.2 1.3 0.1
v 0.2 3.9 0.1
v 0.2 0 0
v 0.2 0.1 0
v 0.2 0.2 0
v 0.2 0.3 0
v 0.2 0.4 0
v 0.2 0.5 0
v 0.2 0.6 0
v 0.2 0.7 0
v 0.2 0.8 -0.1
v 0.2 0.9 -0.1
v 0.2 0.8 -0.2
v 0.2 0.9 -0.2
v 0.1 0.9 0.3
v 0.1 1.7 0.3
v 0.1 3.9 0.3
v 0.1 0.9 0.2
v 0.1 1.3 0.2
v 0.1 1.7 0.2
v 0.1 3.9 0.2
v 0.1 4 0.2
v 0.1 0.9 0.1
v 0.1 1.2 0.1
v 0.1 1.3 0.1
v 0.1 3.9 0.1
v 0.1 4 0.1
v 0.1 0.9 0
v 0.1 1.2 0
v 0.1 3.9 0
v 0 0.9 0.3
v 0 1.7 0.3
v 0 3.9 0.3
v 0 0.9 0.2
v 0 1.4 0.2
v 0 1.7 0.2
v 0 3.9 0.2
v 0 4 0.2
v 0 0.9 0.1
v 0 1.2 0.1
v 0 1.4 0.1
v 0 3.9 0.1
v 0 4 0.1
v 0 0.9 0
v 0 1.2 0
v 0 3.9 0
v -0.1 0.8 0.5
v -0.1 0.9 0.5
v -0.1 0.8 0.4
v -0.1 0.9 0.4
v -0.1 0 0.3
v -0.1 0.1 0.3
v -0.1 0.2 0.3
v -0.1 0.3 0.3
v -0.1 0.4 0.3
v -0.1 0.5 0.3
v -0.1 0.6 0.3
v -0.1 0.7 0.3
v -0.1 0.1 0.2
v -0.1 0.2 0.2
v -0.1 0.3 0.2
v -0.1 0.4 0.2
v -0.1 0.5 0.2
v -0.1 0.6 0.2
v -0.1 0.9 0.2
v -0.1 1.4 0.2
v -0.1 3.9 0.2
v -0.1 0.1 0.1
v -0.1 0.2 0.1
v -0.1 0.3 0.1
v -0.1 0.4 0.1
v -0.1 0.5 0.1
v -0.1 0.6 0.1
v -0.1 0.9 0.1
v -0.1 1.4 0.1
v -0.1 3.9 0.1
v -0.1 0 0
v -0.1 0.1 0
v -0.1 0.2 0
v -0.1 0.3 0
v -0.1 0.4 0
v -0.1 0.5 0
v -0.1 0.6 0
v -0.1 0.7 0
v -0.1 0.8 -0.1
v -0.1 0.9 -0.1
v -0.1 0.8 -0.2
v -0.1 0.9 -0.2
v -0.2 0.7 0.5
v -0.2 0.8 0.5
v -0.2 0.7 0.4
v -0.2 0.8 0.4
v -0.2 0.9 0.4
v -0.2 0.8 0.3
v -0.2 0.9 0.3
v -0.2 0.8 0
v -0.2 0.9 0
v -0.2 0.7 -0.1
v -0.2 0.8 -0.1
v -0.2 0.9 -0.1
v -0.2 0.7 -0.2
v -0.2 0.8 -0.2
v -0.3 0.7 0.4
v -0.3 0.8 0.4
v -0.3 0.8 0.3
v -0.3 0.9 0.3
v -0.3 0.8 0
v -0.3 0.9 0
v -0.3 0.7 -0.1
v -0.3 0.8 -0.1
v 0.2 0 0.3
v 0.2 0 0
v -0.1 0 0.3
v -0.1 0 0
v 0.4 0.7 0.4
v 0.4 0.7 -0.1
v 0.3 0.7 0.5
v 0.3 0.7 0.4
v 0.3 0.7 0.3
v 0.3 0.7 0
v 0.3 0.7 -0.1
v 0.3 0.7 -0.2
v 0.2 0.7 0.4
v 0.2 0.7 0.3
v 0.2 0.7 0
v 0.2 0.7 -0.1
v -0.1 0.7 0.4
v -0.1 0.7 0.3
v -0.1 0.7 0
v -0.1 0.7 -0.1
v -0.2 0.7 0.5
v -0.2 0.7 0.4
v -0.2 0.7 0.3
v -0.2 0.7 0
v -0.2 0.7 -0.1
v -0.2 0.7 -0.2
v -0.3 0.7 0.4
v -0.3 0.7 -0.1
v 0.4 0.8 0.4
v 0.4 0.8 0.3
v 0.4 0.8 0
v 0.4 0.8 -0.1
v 0.3 0.8 0.5
v 0.3 0.8 0.4
v 0.3 0.8 0.3
v 0.3 0.8 0
v 0.3 0.8 -0.1
v 0.3 0.8 -0.2
v 0.2 0.8 0.5
v 0.2 0.8 0.4
v 0.2 0.8 -0.1
v 0.2 0.8 -0.2
v -0.1 0.8 0.5
v -0.1 0.8 0.4
v -0.1 0.8 -0.1
v -0.1 0.8 -0.2
v -0.2 0.8 0.5
v -0.2 0.8 0.4
v -0.2 0.8 0.3
v -0.2 0.8 0
v -0.2 0.8 -0.1
v -0.2 0.8 -0.2
v -0.3 0.8 0.4
v -0.3 0.8 0.3
v -0.3 0.8 0
v -0.3 0.8 -0.1
v 0.4 0.9 0.3
v 0.4 0.9 0
v 0.3 0.9 0.4
v 0.3 0.9 0.3
v 0.3 0.9 0
v 0.3 0.9 -0.1
v 0.2 0.9 0.5
v 0.2 0.9 0.4
v 0.2 0.9 0.2
v 0.2 0.9 0.1
v 0.2 0.9 -0.1
v 0.2 0.9 -0.2
v 0.1 0.9 0.3
v 0.1 0.9 0.2
v 0.1 0.9 0.1
v 0.1 0.9 0
v 0 0.9 0.3
v 0 0.9 0.2
v 0 0.9 0.1
v 0 0.9 0
v -0.1 0.9 0.5
v -0.1 0.9 0.4
v -0.1 0.9 0.2
v -0.1 0.9 0.1
v -0.1 0.9 -0.1
v -0.1 0.9 -0.2
v -0.2 0.9 0.4
v -0.2 0.9 0.3
v -0.2 0.9 0
v -0.2 0.9 -0.1
v -0.3 0.9 0.3
v -0.3 0.9 0
v 0.2 3.9 0.2
v 0.2 3.9 0.1
v 0.1 3.9 0.3
v 0.1 3.9 0.2
v 0.1 3.9 0.1
v 0.1 3.9 0
v 0 3.9 0.3
v 0 3.9 0.2
v 0 3.9 0.1
v 0 3.9 0
v -0.1 3.9 0.2
v -0.1 3.9 0.1
v 0.1 4 0.2
v 0.1 4 0.1
v 0 4 0.2
v 0 4 0.1

# faces
f 3/6/1 2/6/1 1/6/1
f 4/6/1 2/6/1 3/6/1
f 5/6/1 2/6/1 4/6/1
f 6/6/1 2/6/1 5/6/1
f 7/6/1 5/6/1 4/6/1
f 8/6/1 5/6/1 7/6/1
f 13/6/1 10/6/1 9/6/1
f 14/6/1 10/6/1 13/6/1
f 17/6/1 12/6/1 11/6/1
f 18/6/1 12/6/1 17/6/1
f 19/6/1 15/6/1 14/6/1
f 20/6/1 15/6/1 19/6/1
f 21/6/1 17/6/1 16/6/1
f 22/6/1 17/6/1 21/6/1
f 25/3/1 24/3/1 23/3/1
f 26/3/1 24/3/1 25/3/1
f 27/3/1 24/3/1 26/3/1
f 28/3/1 24/3/1 27/3/1
f 29/2/1 26/2/1 25/2/1
f 30/1/1 27/1/1 26/1/1
f 30/2/1 26/2/1 29/2/1
f 31/2/1 28/2/1 27/2/1
f 31/1/1 27/1/1 30/1/1
f 32/2/1 28/2/1 31/2/1
f 33/3/1 30/3/1 29/3/1
f 33/3/1 31/3/1 30/3/1
f 33/3/1 32/3/1 31/3/1
f 34/3/1 32/3/1 33/3/1
f 35/3/1 32/3/1 34/3/1
f 36/3/1 32/3/1 35/3/1
f 37/2/1 34/2/1 33/2/1
f 38/1/1 35/1/1 34/1/1
f 38/2/1 34/2/1 37/2/1
f 39/2/1 36/2/1 35/2/1
f 39/1/1 35/1/1 38/1/1
f 40/2/1 36/2/1 39/2/1
f 41/3/1 38/3/1 37/3/1
f 41/3/1 39/3/1 38/3/1
f 41/3/1 40/3/1 39/3/1
f 42/3/1 40/3/1 41/3/1
f 43/3/1 40/3/1 42/3/1
f 44/3/1 40/3/1 43/3/1
f 45/2/1 42/2/1 41/2/1
f 46/1/1 43/1/1 42/1/1
f 46/2/1 42/2/1 45/2/1
f 47/2/1 44/2/1 43/2/1
f 47/1/1 43/1/1 46/1/1
f 48/2/1 44/2/1 47/2/1
f 49/3/1 46/3/1 45/3/1
f 49/3/1 47/3/1 46/3/1
f 49/3/1 48/3/1 47/3/1
f 50/3/1 48/3/1 49/3/1
f 55/6/1 52/6/1 51/6/1
f 56/6/1 52/6/1 55/6/1
f 59/6/1 54/6/1 53/6/1
f 60/6/1 54/6/1 59/6/1
f 61/5/1 58/5/1 57/5/1
f 62/5/1 58/5/1 61/5/1
f 63/4/1 62/4/1 61/4/1
f 64/4/1 62/4/1 63/4/1
f 69/5/1 66/5/1 65/5/1
f 70/5/1 66/5/1 69/5/1
f 71/5/1 68/5/1 67/5/1
f 72/5/1 68/5/1 71/5/1
f 73/4/1 70/4/1 69/4/1
f 74/4/1 72/4/1 71/4/1
f 75/4/1 73/4/1 69/4/1
f 76/4/1 73/4/1 75/4/1
f 77/4/1 72/4/1 74/4/1
f 78/4/1 72/4/1 77/4/1
f 79/4/1 77/4/1 76/4/1
f 80/4/1 77/4/1 79/4/1
f 81/5/2 82/5/2 85/5/2
f 83/5/2 84/5/2 86/5/2
f 81/5/2 85/5/2 87/5/2
f 87/5/2 85/5/2 88/5/2
f 86/5/2 84/5/2 89/5/2
f 89/5/2 84/5/2 90/5/2
f 87/4/2 88/4/2 91/4/2
f 91/4/2 88/4/2 92/4/2
f 89/4/2 90/4/2 93/4/2
f 93/4/2 90/4/2 94/4/2
f 92/4/2 93/4/2 95/4/2
f 95/4/2 93/4/2 96/4/2
f 97/3/2 98/3/2 99/3/2
f 99/3/2 98/3/2 100/3/2
f 100/3/2 98/3/2 101/3/2
f 101/3/2 98/3/2 102/3/2
f 99/2/2 100/2/2 103/2/2
f 100/1/2 101/1/2 104/1/2
f 103/2/2 100/2/2 104/2/2
f 101/2/2 102/2/2 105/2/2
f 104/1/2 101/1/2 105/1/2
f 105/2/2 102/2/2 106/2/2
f 103/3/2 104/3/2 107/3/2
f 104/3/2 105/3/2 107/3/2
f 105/3/2 106/3/2 107/3/2
f 107/3/2 106/3/2 108/3/2
f 108/3/2 106/3/2 109/3/2
f 109/3/2 106/3/2 110/3/2
f 107/2/2 108/2/2 111/2/2
f 108/1/2 109/1/2 112/1/2
f 111/2/2 108/2/2 112/2/2
f 109/2/2 110/2/2 113/2/2
f 112/1/2 109/1/2 113/1/2
f 113/2/2 110/2/2 114/2/2
f 111/3/2 112/3/2 115/3/2
f 112/3/2 113/3/2 115/3/2
f 113/3/2 114/3/2 115/3/2
f 115/3/2 114/3/2 116/3/2
f 116/3/2 114/3/2 117/3/2
f 117/3/2 114/3/2 118/3/2
f 115/2/2 116/2/2 119/2/2
f 116/1/2 117/1/2 120/1/2
f 119/2/2 116/2/2 120/2/2
f 117/2/2 118/2/2 121/2/2
f 120/1/2 117/1/2 121/1/2
f 121/2/2 118/2/2 122/2/2
f 119/3/2 120/3/2 123/3/2
f 120/3/2 121/3/2 123/3/2
f 121/3/2 122/3/2 123/3/2
f 123/3/2 122/3/2 124/3/2
f 125/6/2 126/6/2 129/6/2
f 129/6/2 126/6/2 130/6/2
f 127/6/2 128/6/2 133/6/2
f 133/6/2 128/6/2 134/6/2
f 131/5/2 132/5/2 135/5/2
f 135/5/2 132/5/2 136/5/2
f 135/4/2 136/4/2 137/4/2
f 137/4/2 136/4/2 138/4/2
f 139/6/2 140/6/2 143/6/2
f 143/6/2 140/6/2 144/6/2
f 141/6/2 142/6/2 147/6/2
f 147/6/2 142/6/2 148/6/2
f 144/6/2 145/6/2 149/6/2
f 149/6/2 145/6/2 150/6/2
f 146/6/2 147/6/2 151/6/2
f 151/6/2 147/6/2 152/6/2
f 153/6/2 154/6/2 155/6/2
f 155/6/2 154/6/2 156/6/2
f 156/6/2 154/6/2 157/6/2
f 157/6/2 154/6/2 158/6/2
f 156/6/2 157/6/2 159/6/2
f 159/6/2 157/6/2 160/6/2
f 163/6/3 162/6/3 161/6/3
f 165/6/3 163/6/3 161/6/3
f 165/6/3 164/6/3 163/6/3
f 166/6/3 164/6/3 165/6/3
f 167/6/3 165/6/3 161/6/3
f 168/6/3 165/6/3 167/6/3
f 171/6/3 170/6/3 169/6/3
f 172/6/3 170/6/3 171/6/3
f 174/6/3 173/6/3 172/6/3
f 175/6/3 173/6/3 174/6/3
f 179/6/3 177/6/3 176/6/3
f 180/6/3 177/6/3 179/6/3
f 181/6/3 179/6/3 178/6/3
f 182/6/3 179/6/3 181/6/3
f 185/6/3 184/6/3 183/6/3
f 186/6/3 184/6/3 185/6/3
f 195/3/3 188/3/3 187/3/3
f 195/2/3 189/2/3 188/2/3
f 196/3/3 190/3/3 189/3/3
f 196/2/3 189/2/3 195/2/3
f 197/2/3 191/2/3 190/2/3
f 197/3/3 190/3/3 196/3/3
f 198/3/3 192/3/3 191/3/3
f 198/2/3 191/2/3 197/2/3
f 199/2/3 193/2/3 192/2/3
f 199/3/3 192/3/3 198/3/3
f 200/3/3 194/3/3 193/3/3
f 200/2/3 193/2/3 199/2/3
f 204/3/3 195/3/3 187/3/3
f 204/1/3 196/1/3 195/1/3
f 205/3/3 197/3/3 196/3/3
f 205/1/3 196/1/3 204/1/3
f 206/1/3 198/1/3 197/1/3
f 206/3/3 197/3/3 205/3/3
f 207/3/3 199/3/3 198/3/3
f 207/1/3 198/1/3 206/1/3
f 208/1/3 200/1/3 199/1/3
f 208/3/3 199/3/3 207/3/3
f 209/3/3 194/3/3 200/3/3
f 209/1/3 200/1/3 208/1/3
f 210/5/3 202/5/3 201/5/3
f 211/4/3 203/4/3 202/4/3
f 211/5/3 202/5/3 210/5/3
f 212/4/3 203/4/3 211/4/3
f 213/3/3 204/3/3 187/3/3
f 214/2/3 205/2/3 204/2/3
f 214/3/3 204/3/3 213/3/3
f 215/3/3 206/3/3 205/3/3
f 215/2/3 205/2/3 214/2/3
f 216/2/3 207/2/3 206/2/3
f 216/3/3 206/3/3 215/3/3
f 217/3/3 208/3/3 207/3/3
f 217/2/3 207/2/3 216/2/3
f 218/2/3 209/2/3 208/2/3
f 218/3/3 208/3/3 217/3/3
f 219/3/3 194/3/3 209/3/3
f 219/2/3 209/2/3 218/2/3
f 220/3/3 194/3/3 219/3/3
f 223/6/3 222/6/3 221/6/3
f 224/6/3 222/6/3 223/6/3
f 228/5/3 226/5/3 225/5/3
f 229/5/3 226/5/3 228/5/3
f 230/4/3 227/4/3 226/4/3
f 230/5/3 226/5/3 229/5/3
f 231/4/3 227/4/3 230/4/3
f 236/4/3 232/4/3 231/4/3
f 237/4/3 232/4/3 236/4/3
f 238/5/3 234/5/3 233/5/3
f 239/4/3 235/4/3 234/4/3
f 239/5/3 234/5/3 238/5/3
f 239/4/3 236/4/3 235/4/3
f 240/4/3 236/4/3 239/4/3
f 241/5/4 242/5/4 244/5/4
f 244/5/4 242/5/4 245/5/4
f 242/4/4 243/4/4 246/4/4
f 245/5/4 242/5/4 246/5/4
f 246/4/4 243/4/4 247/4/4
f 247/4/4 248/4/4 252/4/4
f 252/4/4 248/4/4 253/4/4
f 249/5/4 250/5/4 254/5/4
f 250/4/4 251/4/4 255/4/4
f 254/5/4 250/5/4 255/5/4
f 251/4/4 252/4/4 255/4/4
f 255/4/4 252/4/4 256/4/4
f 257/6/4 258/6/4 259/6/4
f 259/6/4 258/6/4 260/6/4
f 261/3/4 262/3/4 269/3/4
f 262/2/4 263/2/4 269/2/4
f 263/3/4 264/3/4 270/3/4
f 269/2/4 263/2/4 270/2/4
f 264/2/4 265/2/4 271/2/4
f 270/3/4 264/3/4 271/3/4
f 265/3/4 266/3/4 272/3/4
f 271/2/4 265/2/4 272/2/4
f 266/2/4 267/2/4 273/2/4
f 272/3/4 266/3/4 273/3/4
f 267/3/4 268/3/4 274/3/4
f 273/2/4 267/2/4 274/2/4
f 261/3/4 269/3/4 278/3/4
f 269/1/4 270/1/4 278/1/4
f 270/3/4 271/3/4 279/3/4
f 278/1/4 270/1/4 279/1/4
f 271/1/4 272/1/4 280/1/4
f 279/3/4 271/3/4 280/3/4
f 272/3/4 273/3/4 281/3/4
f 280/1/4 272/1/4 281/1/4
f 273/1/4 274/1/4 282/1/4
f 281/3/4 273/3/4 282/3/4
f 274/3/4 268/3/4 283/3/4
f 282/1/4 274/1/4 283/1/4
f 275/5/4 276/5/4 284/5/4
f 276/4/4 277/4/4 285/4/4
f 284/5/4 276/5/4 285/5/4
f 285/4/4 277/4/4 286/4/4
f 261/3/4 278/3/4 287/3/4
f 278/2/4 279/2/4 288/2/4
f 287/3/4 278/3/4 288/3/4
f 279/3/4 280/3/4 289/3/4
f 288/2/4 279/2/4 289/2/4
f 280/2/4 281/2/4 290/2/4
f 289/3/4 280/3/4 290/3/4
f 281/3/4 282/3/4 291/3/4
f 290/2/4 281/2/4 291/2/4
f 282/2/4 283/2/4 292/2/4
f 291/3/4 282/3/4 292/3/4
f 283/3/4 268/3/4 293/3/4
f 292/2/4 283/2/4 293/2/4
f 293/3/4 268/3/4 294/3/4
f 295/6/4 296/6/4 297/6/4
f 297/6/4 296/6/4 298/6/4
f 299/6/4 300/6/4 301/6/4
f 301/6/4 300/6/4 302/6/4
f 302/6/4 303/6/4 304/6/4
f 304/6/4 303/6/4 305/6/4
f 306/6/4 307/6/4 309/6/4
f 309/6/4 307/6/4 310/6/4
f 308/6/4 309/6/4 311/6/4
f 311/6/4 309/6/4 312/6/4
f 313/6/4 314/6/4 315/6/4
f 313/6/4 315/6/4 317/6/4
f 315/6/4 316/6/4 317/6/4
f 317/6/4 316/6/4 318/6/4
f 313/6/4 317/6/4 319/6/4
f 319/6/4 317/6/4 320/6/4
f 323/3/5 322/3/5 321/3/5
f 324/3/5 322/3/5 323/3/5
f 328/6/5 326/6/5 325/6/5
f 329/6/5 326/6/5 328/6/5
f 330/6/5 326/6/5 329/6/5
f 331/6/5 326/6/5 330/6/5
f 333/6/5 328/6/5 327/6/5
f 333/6/5 329/6/5 328/6/5
f 334/7/5 330/7/5 329/7/5
f 334/6/5 329/6/5 333/6/5
f 335/6/5 332/6/5 331/6/5
f 335/7/5 330/7/5 334/7/5
f 335/6/5 331/6/5 330/6/5
f 336/6/5 332/6/5 335/6/5
f 337/7/5 334/7/5 333/7/5
f 337/6/5 333/6/5 327/6/5
f 338/7/5 334/7/5 337/7/5
f 339/7/5 336/7/5 335/7/5
f 340/6/5 332/6/5 336/6/5
f 340/7/5 336/7/5 339/7/5
f 341/6/5 338/6/5 337/6/5
f 341/6/5 337/6/5 327/6/5
f 342/6/5 338/6/5 341/6/5
f 343/7/5 339/7/5 338/7/5
f 343/6/5 338/6/5 342/6/5
f 344/6/5 340/6/5 339/6/5
f 344/7/5 339/7/5 343/7/5
f 345/6/5 332/6/5 340/6/5
f 345/6/5 340/6/5 344/6/5
f 346/6/5 332/6/5 345/6/5
f 347/6/5 344/6/5 343/6/5
f 347/6/5 345/6/5 344/6/5
f 347/6/5 343/6/5 342/6/5
f 348/6/5 345/6/5 347/6/5
f 349/6/6 350/6/6 354/6/6
f 354/6/6 350/6/6 355/6/6
f 351/6/6 352/6/6 356/6/6
f 356/6/6 352/6/6 357/6/6
f 353/6/6 354/6/6 359/6/6
f 359/6/6 354/6/6 360/6/6
f 357/6/6 358/6/6 361/6/6
f 361/6/6 358/6/6 362/6/6
f 363/6/6 364/6/6 367/6/6
f 367/6/6 364/6/6 368/6/6
f 365/6/6 366/6/6 371/6/6
f 371/6/6 366/6/6 372/6/6
f 368/6/6 369/6/6 373/6/6
f 373/6/6 369/6/6 374/6/6
f 370/6/6 371/6/6 375/6/6
f 375/6/6 371/6/6 376/6/6
f 377/6/6 378/6/6 380/6/6
f 380/6/6 378/6/6 381/6/6
f 379/6/6 380/6/6 384/6/6
f 381/6/6 382/6/6 384/6/6
f 380/6/6 381/6/6 384/6/6
f 384/6/6 382/6/6 385/6/6
f 385/6/6 382/6/6 386/6/6
f 386/6/6 382/6/6 387/6/6
f 383/6/6 384/6/6 389/6/6
f 384/6/6 385/6/6 389/6/6
f 389/6/6 385/6/6 390/6/6
f 387/6/6 388/6/6 391/6/6
f 386/6/6 387/6/6 391/6/6
f 391/6/6 388/6/6 392/6/6
f 383/6/6 389/6/6 393/6/6
f 392/6/6 388/6/6 396/6/6
f 393/6/6 394/6/6 397/6/6
f 383/6/6 393/6/6 397/6/6
f 397/6/6 394/6/6 398/6/6
f 398/6/6 394/6/6 399/6/6
f 395/6/6 396/6/6 400/6/6
f 396/6/6 388/6/6 401/6/6
f 400/6/6 396/6/6 401/6/6
f 401/6/6 388/6/6 402/6/6
f 398/6/6 399/6/6 403/6/6
f 399/6/6 400/6/6 403/6/6
f 400/6/6 401/6/6 403/6/6
f 403/6/6 401/6/6 404/6/6
f 404/6/6 401/6/6 405/6/6
f 405/6/6 401/6/6 406/6/6
f 404/6/6 405/6/6 407/6/6
f 407/6/6 405/6/6 408/6/6
f 409/4/6 410/4/6 412/4/6
f 412/4/6 410/4/6 413/4/6
f 411/4/6 412/4/6 415/4/6
f 415/4/6 412/4/6 416/4/6
f 413/4/6 414/4/6 417/4/6
f 417/4/6 414/4/6 418/4/6
f 416/4/6 417/4/6 419/4/6
f 419/4/6 417/4/6 420/4/6
f 421/4/6 422/4/6 423/4/6
f 423/4/6 422/4/6 424/4/6
