g default
v 0.125 0.275 0.025
v 0.125 0.25 0.025
v 0.125 0.25 -0.025
v 0.125 0.275 -0.025
v 0.125 0.425 0.025
v 0.125 0.275 0.025
v 0.125 0.275 -0.025
v 0.125 0.425 -0.025
v 0.15 0.25 0.025
v 0.15 0.225 0.025
v 0.15 0.225 -0.025
v 0.15 0.25 -0.025
v 0.175 0.225 0.025
v 0.175 0.275 0.025
v 0.175 0.225 -0.025
v 0.175 0.275 -0.025
v 0.175 0.275 0.025
v 0.175 0.425 0.025
v 0.175 0.275 -0.025
v 0.175 0.425 -0.025
v 0.15 0.25 0.025
v 0.125 0.25 0.025
v 0.125 0.275 0.025
v 0.175 0.275 0.025
v 0.175 0.225 0.025
v 0.15 0.225 0.025
v 0.175 0.275 0.025
v 0.125 0.275 0.025
v 0.125 0.425 0.025
v 0.175 0.425 0.025
v 0.125 0.25 -0.025
v 0.15 0.25 -0.025
v 0.125 0.275 -0.025
v 0.175 0.275 -0.025
v 0.175 0.225 -0.025
v 0.15 0.225 -0.025
v 0.125 0.275 -0.025
v 0.175 0.275 -0.025
v 0.125 0.425 -0.025
v 0.175 0.425 -0.025
v 0.15 0.225 -0.025
v 0.15 0.225 0.025
v 0.175 0.225 0.025
v 0.175 0.225 -0.025
v 0.125 0.25 -0.025
v 0.125 0.25 0.025
v 0.15 0.25 0.025
v 0.15 0.25 -0.025
v 0.125 0.425 0.025
v 0.125 0.425 -0.025
v 0.175 0.425 0.025
v 0.175 0.425 -0.025
vt 0.0332031 0.5
vt 0.0332031 0.5
vt 0.0332031 0.5
vt 0.0332031 0.5
vt 0.548828 0.5
vt 0.548828 0.5
vt 0.548828 0.5
vt 0.548828 0.5
vt 0.0332031 0.5
vt 0.0332031 0.5
vt 0.0332031 0.5
vt 0.0332031 0.5
vt 0.0332031 0.5
vt 0.0332031 0.5
vt 0.0332031 0.5
vt 0.0332031 0.5
vt 0.548828 0.5
vt 0.548828 0.5
vt 0.548828 0.5
vt 0.548828 0.5
vt 0.0332031 0.5
vt 0.0332031 0.5
vt 0.0332031 0.5
vt 0.0332031 0.5
vt 0.0332031 0.5
vt 0.0332031 0.5
vt 0.548828 0.5
vt 0.548828 0.5
vt 0.548828 0.5
vt 0.548828 0.5
vt 0.0332031 0.5
vt 0.0332031 0.5
vt 0.0332031 0.5
vt 0.0332031 0.5
vt 0.0332031 0.5
vt 0.0332031 0.5
vt 0.548828 0.5
vt 0.548828 0.5
vt 0.548828 0.5
vt 0.548828 0.5
vt 0.0332031 0.5
vt 0.0332031 0.5
vt 0.0332031 0.5
vt 0.0332031 0.5
vt 0.0332031 0.5
vt 0.0332031 0.5
vt 0.0332031 0.5
vt 0.0332031 0.5
vt 0.548828 0.5
vt 0.548828 0.5
vt 0.548828 0.5
vt 0.548828 0.5
vn -1 0 0
vn -1 0 0
vn -1 0 0
vn -1 0 0
vn -1 0 0
vn -1 0 0
vn -1 0 0
vn -1 0 0
vn -1 0 0
vn -1 0 0
vn -1 0 0
vn -1 0 0
vn 1 0 0
vn 1 0 0
vn 1 0 0
vn 1 0 0
vn 1 0 0
vn 1 0 0
vn 1 0 0
vn 1 0 0
vn 0 0 1
vn 0 0 1
vn 0 0 1
vn 0 0 1
vn 0 0 1
vn 0 0 1
vn 0 0 1
vn 0 0 1
vn 0 0 1
vn 0 0 1
vn 0 0 -1
vn 0 0 -1
vn 0 0 -1
vn 0 0 -1
vn 0 0 -1
vn 0 0 -1
vn 0 0 -1
vn 0 0 -1
vn 0 0 -1
vn 0 0 -1
vn 0 -1 0
vn 0 -1 0
vn 0 -1 0
vn 0 -1 0
vn 0 -1 0
vn 0 -1 0
vn 0 -1 0
vn 0 -1 0
vn 0 1 0
vn 0 1 0
vn 0 1 0
vn 0 1 0
g default_0
f 3/3/3 2/2/2 1/1/1
f 3/3/3 1/1/1 4/4/4
f 7/7/7 6/6/6 5/5/5
f 7/7/7 5/5/5 8/8/8
f 11/11/11 10/10/10 9/9/9
f 11/11/11 9/9/9 12/12/12
f 15/15/15 14/14/14 13/13/13
f 15/15/15 16/16/16 14/14/14
f 19/19/19 18/18/18 17/17/17
f 19/19/19 20/20/20 18/18/18
f 23/23/23 22/22/22 21/21/21
f 23/23/23 21/21/21 24/24/24
f 21/21/21 25/25/25 24/24/24
f 21/21/21 26/26/26 25/25/25
f 29/29/29 28/28/28 27/27/27
f 29/29/29 27/27/27 30/30/30
f 33/33/33 32/32/32 31/31/31
f 33/33/33 34/34/34 32/32/32
f 32/32/32 34/34/34 35/35/35
f 32/32/32 35/35/35 36/36/36
f 39/39/39 38/38/38 37/37/37
f 39/39/39 40/40/40 38/38/38
f 43/43/43 42/42/42 41/41/41
f 43/43/43 41/41/41 44/44/44
f 47/47/47 46/46/46 45/45/45
f 47/47/47 45/45/45 48/48/48
f 51/51/51 50/50/50 49/49/49
f 51/51/51 52/52/52 50/50/50
