g default
v -0.125 0.15 0
v -0.125 0.1 0
v -0.125 0.1 -0.025
v -0.125 0.15 -0.025
v -0.125 0.25 0
v -0.125 0.15 0
v -0.125 0.15 -0.025
v -0.125 0.25 -0.025
v -0.1 0.1 0
v -0.1 0.075 0
v -0.1 0.075 -0.025
v -0.1 0.1 -0.025
v -0.1 0.275 0
v -0.1 0.25 0
v -0.1 0.25 -0.025
v -0.1 0.275 -0.025
v -0.075 0.075 0
v -0.075 0.05 0
v -0.075 0.05 -0.025
v -0.075 0.075 -0.025
v -0.05 0.05 0
v -0.05 0.025 0
v -0.05 0.025 -0.025
v -0.05 0.05 -0.025
v -0.025 0.025 0
v -0.025 0 0
v -0.025 0 -0.025
v -0.025 0.025 -0.025
v 0.025 0 0
v 0.025 0.025 0
v 0.025 0 -0.025
v 0.025 0.025 -0.025
v 0.05 0.025 0
v 0.05 0.05 0
v 0.05 0.025 -0.025
v 0.05 0.05 -0.025
v 0.075 0.05 0
v 0.075 0.075 0
v 0.075 0.05 -0.025
v 0.075 0.075 -0.025
v 0.1 0.075 0
v 0.1 0.1 0
v 0.1 0.075 -0.025
v 0.1 0.1 -0.025
v 0.1 0.25 0
v 0.1 0.275 0
v 0.1 0.25 -0.025
v 0.1 0.275 -0.025
v 0.125 0.1 0
v 0.125 0.15 0
v 0.125 0.1 -0.025
v 0.125 0.15 -0.025
v 0.125 0.15 0
v 0.125 0.25 0
v 0.125 0.15 -0.025
v 0.125 0.25 -0.025
v -0.1 0.1 0
v -0.125 0.1 0
v -0.125 0.15 0
v 0 0.15 0
v -0.075 0.075 0
v -0.1 0.075 0
v -0.05 0.05 0
v -0.075 0.05 0
v -0.025 0.025 0
v -0.05 0.025 0
v 0 0 0
v -0.025 0 0
v 0.1 0.25 0
v 0 0.275 0
v 0.1 0.275 0
v 0.125 0.15 0
v 0.125 0.25 0
v -0.1 0.25 0
v -0.125 0.15 0
v -0.125 0.25 0
v 0 0.15 0
v -0.1 0.275 0
v 0 0.275 0
v 0.025 0 0
v 0 0 0
v 0.025 0.025 0
v 0.05 0.025 0
v 0.05 0.05 0
v 0.075 0.05 0
v 0.075 0.075 0
v 0.1 0.075 0
v 0.1 0.1 0
v 0.125 0.1 0
v 0.125 0.15 0
v -0.125 0.1 -0.025
v -0.1 0.1 -0.025
v -0.125 0.15 -0.025
v 0 0.15 -0.025
v -0.075 0.075 -0.025
v -0.1 0.075 -0.025
v -0.05 0.05 -0.025
v -0.075 0.05 -0.025
v -0.025 0.025 -0.025
v -0.05 0.025 -0.025
v 0 0 -0.025
v -0.025 0 -0.025
v 0.1 0.25 -0.025
v 0 0.275 -0.025
v 0.1 0.275 -0.025
v 0.125 0.15 -0.025
v 0.125 0.25 -0.025
v -0.125 0.15 -0.025
v -0.1 0.25 -0.025
v -0.125 0.25 -0.025
v 0 0.15 -0.025
v -0.1 0.275 -0.025
v 0 0.275 -0.025
v 0 0 -0.025
v 0.025 0 -0.025
v 0.025 0.025 -0.025
v 0.05 0.025 -0.025
v 0.05 0.05 -0.025
v 0.075 0.05 -0.025
v 0.075 0.075 -0.025
v 0.1 0.075 -0.025
v 0.1 0.1 -0.025
v 0.125 0.1 -0.025
v 0.125 0.15 -0.025
v -0.025 0 -0.025
v -0.025 0 0
v 0 0 0
v 0 0 -0.025
v 0 0 -0.025
v 0 0 0
v 0.025 0 0
v 0.025 0 -0.025
v -0.05 0.025 -0.025
v -0.05 0.025 0
v -0.025 0.025 0
v -0.025 0.025 -0.025
v 0.025 0.025 -0.025
v 0.025 0.025 0
v 0.05 0.025 0
v 0.05 0.025 -0.025
v -0.075 0.05 -0.025
v -0.075 0.05 0
v -0.05 0.05 0
v -0.05 0.05 -0.025
v 0.05 0.05 -0.025
v 0.05 0.05 0
v 0.075 0.05 0
v 0.075 0.05 -0.025
v -0.1 0.075 -0.025
v -0.1 0.075 0
v -0.075 0.075 0
v -0.075 0.075 -0.025
v 0.075 0.075 -0.025
v 0.075 0.075 0
v 0.1 0.075 0
v 0.1 0.075 -0.025
v -0.125 0.1 -0.025
v -0.125 0.1 0
v -0.1 0.1 0
v -0.1 0.1 -0.025
v 0.1 0.1 -0.025
v 0.1 0.1 0
v 0.125 0.1 0
v 0.125 0.1 -0.025
v -0.125 0.25 0
v -0.125 0.25 -0.025
v -0.1 0.25 0
v -0.1 0.25 -0.025
v 0.1 0.25 0
v 0.1 0.25 -0.025
v 0.125 0.25 0
v 0.125 0.25 -0.025
v -0.1 0.275 0
v -0.1 0.275 -0.025
v 0 0.275 0
v 0 0.275 -0.025
v 0 0.275 0
v 0 0.275 -0.025
v 0.1 0.275 0
v 0.1 0.275 -0.025
vt 0.494141 0.5
vt 0.494141 0.5
vt 0.494141 0.5
vt 0.494141 0.5
vt 0.0175781 0.5
vt 0.0175781 0.5
vt 0.0175781 0.5
vt 0.0175781 0.5
vt 0.494141 0.5
vt 0.494141 0.5
vt 0.494141 0.5
vt 0.494141 0.5
vt 0.0175781 0.5
vt 0.0175781 0.5
vt 0.0175781 0.5
vt 0.0175781 0.5
vt 0.494141 0.5
vt 0.494141 0.5
vt 0.494141 0.5
vt 0.494141 0.5
vt 0.494141 0.5
vt 0.494141 0.5
vt 0.494141 0.5
vt 0.494141 0.5
vt 0.494141 0.5
vt 0.494141 0.5
vt 0.494141 0.5
vt 0.494141 0.5
vt 0.0175781 0.5
vt 0.0175781 0.5
vt 0.0175781 0.5
vt 0.0175781 0.5
vt 0.0175781 0.5
vt 0.0175781 0.5
vt 0.0175781 0.5
vt 0.0175781 0.5
vt 0.0175781 0.5
vt 0.0175781 0.5
vt 0.0175781 0.5
vt 0.0175781 0.5
vt 0.0175781 0.5
vt 0.0175781 0.5
vt 0.0175781 0.5
vt 0.0175781 0.5
vt 0.494141 0.5
vt 0.494141 0.5
vt 0.494141 0.5
vt 0.494141 0.5
vt 0.0175781 0.5
vt 0.0175781 0.5
vt 0.0175781 0.5
vt 0.0175781 0.5
vt 0.494141 0.5
vt 0.494141 0.5
vt 0.494141 0.5
vt 0.494141 0.5
vt 0.494141 0.5
vt 0.494141 0.5
vt 0.494141 0.5
vt 0.494141 0.5
vt 0.494141 0.5
vt 0.494141 0.5
vt 0.494141 0.5
vt 0.494141 0.5
vt 0.494141 0.5
vt 0.494141 0.5
vt 0.494141 0.5
vt 0.494141 0.5
vt 0.494141 0.5
vt 0.494141 0.5
vt 0.494141 0.5
vt 0.494141 0.5
vt 0.494141 0.5
vt 0.0175781 0.5
vt 0.0175781 0.5
vt 0.0175781 0.5
vt 0.0175781 0.5
vt 0.0175781 0.5
vt 0.0175781 0.5
vt 0.0175781 0.5
vt 0.0175781 0.5
vt 0.0175781 0.5
vt 0.0175781 0.5
vt 0.0175781 0.5
vt 0.0175781 0.5
vt 0.0175781 0.5
vt 0.0175781 0.5
vt 0.0175781 0.5
vt 0.0175781 0.5
vt 0.0175781 0.5
vt 0.494141 0.5
vt 0.494141 0.5
vt 0.494141 0.5
vt 0.494141 0.5
vt 0.494141 0.5
vt 0.494141 0.5
vt 0.494141 0.5
vt 0.494141 0.5
vt 0.494141 0.5
vt 0.494141 0.5
vt 0.494141 0.5
vt 0.494141 0.5
vt 0.494141 0.5
vt 0.494141 0.5
vt 0.494141 0.5
vt 0.494141 0.5
vt 0.494141 0.5
vt 0.0175781 0.5
vt 0.0175781 0.5
vt 0.0175781 0.5
vt 0.0175781 0.5
vt 0.0175781 0.5
vt 0.0175781 0.5
vt 0.0175781 0.5
vt 0.0175781 0.5
vt 0.0175781 0.5
vt 0.0175781 0.5
vt 0.0175781 0.5
vt 0.0175781 0.5
vt 0.0175781 0.5
vt 0.0175781 0.5
vt 0.0175781 0.5
vt 0.0175781 0.5
vt 0.0175781 0.5
vt 0.494141 0.5
vt 0.494141 0.5
vt 0.494141 0.5
vt 0.494141 0.5
vt 0.0175781 0.5
vt 0.0175781 0.5
vt 0.0175781 0.5
vt 0.0175781 0.5
vt 0.494141 0.5
vt 0.494141 0.5
vt 0.494141 0.5
vt 0.494141 0.5
vt 0.0175781 0.5
vt 0.0175781 0.5
vt 0.0175781 0.5
vt 0.0175781 0.5
vt 0.494141 0.5
vt 0.494141 0.5
vt 0.494141 0.5
vt 0.494141 0.5
vt 0.0175781 0.5
vt 0.0175781 0.5
vt 0.0175781 0.5
vt 0.0175781 0.5
vt 0.494141 0.5
vt 0.494141 0.5
vt 0.494141 0.5
vt 0.494141 0.5
vt 0.0175781 0.5
vt 0.0175781 0.5
vt 0.0175781 0.5
vt 0.0175781 0.5
vt 0.494141 0.5
vt 0.494141 0.5
vt 0.494141 0.5
vt 0.494141 0.5
vt 0.0175781 0.5
vt 0.0175781 0.5
vt 0.0175781 0.5
vt 0.0175781 0.5
vt 0.0175781 0.5
vt 0.0175781 0.5
vt 0.0175781 0.5
vt 0.0175781 0.5
vt 0.494141 0.5
vt 0.494141 0.5
vt 0.494141 0.5
vt 0.494141 0.5
vt 0.0175781 0.5
vt 0.0175781 0.5
vt 0.0175781 0.5
vt 0.0175781 0.5
vt 0.494141 0.5
vt 0.494141 0.5
vt 0.494141 0.5
vt 0.494141 0.5
vn -1 0 0
vn -1 0 0
vn -1 0 0
vn -1 0 0
vn -1 0 0
vn -1 0 0
vn -1 0 0
vn -1 0 0
vn -1 0 0
vn -1 0 0
vn -1 0 0
vn -1 0 0
vn -1 0 0
vn -1 0 0
vn -1 0 0
vn -1 0 0
vn -1 0 0
vn -1 0 0
vn -1 0 0
vn -1 0 0
vn -1 0 0
vn -1 0 0
vn -1 0 0
vn -1 0 0
vn -1 0 0
vn -1 0 0
vn -1 0 0
vn -1 0 0
vn 1 0 0
vn 1 0 0
vn 1 0 0
vn 1 0 0
vn 1 0 0
vn 1 0 0
vn 1 0 0
vn 1 0 0
vn 1 0 0
vn 1 0 0
vn 1 0 0
vn 1 0 0
vn 1 0 0
vn 1 0 0
vn 1 0 0
vn 1 0 0
vn 1 0 0
vn 1 0 0
vn 1 0 0
vn 1 0 0
vn 1 0 0
vn 1 0 0
vn 1 0 0
vn 1 0 0
vn 1 0 0
vn 1 0 0
vn 1 0 0
vn 1 0 0
vn 0 0 1
vn 0 0 1
vn 0 0 1
vn 0 0 1
vn 0 0 1
vn 0 0 1
vn 0 0 1
vn 0 0 1
vn 0 0 1
vn 0 0 1
vn 0 0 1
vn 0 0 1
vn 0 0 1
vn 0 0 1
vn 0 0 1
vn 0 0 1
vn 0 0 1
vn 0 0 1
vn 0 0 1
vn 0 0 1
vn 0 0 1
vn 0 0 1
vn 0 0 1
vn 0 0 1
vn 0 0 1
vn 0 0 1
vn 0 0 1
vn 0 0 1
vn 0 0 1
vn 0 0 1
vn 0 0 1
vn 0 0 1
vn 0 0 1
vn 0 0 1
vn 0 0 -1
vn 0 0 -1
vn 0 0 -1
vn 0 0 -1
vn 0 0 -1
vn 0 0 -1
vn 0 0 -1
vn 0 0 -1
vn 0 0 -1
vn 0 0 -1
vn 0 0 -1
vn 0 0 -1
vn 0 0 -1
vn 0 0 -1
vn 0 0 -1
vn 0 0 -1
vn 0 0 -1
vn 0 0 -1
vn 0 0 -1
vn 0 0 -1
vn 0 0 -1
vn 0 0 -1
vn 0 0 -1
vn 0 0 -1
vn 0 0 -1
vn 0 0 -1
vn 0 0 -1
vn 0 0 -1
vn 0 0 -1
vn 0 0 -1
vn 0 0 -1
vn 0 0 -1
vn 0 0 -1
vn 0 0 -1
vn 0 -1 0
vn 0 -1 0
vn 0 -1 0
vn 0 -1 0
vn 0 -1 0
vn 0 -1 0
vn 0 -1 0
vn 0 -1 0
vn 0 -1 0
vn 0 -1 0
vn 0 -1 0
vn 0 -1 0
vn 0 -1 0
vn 0 -1 0
vn 0 -1 0
vn 0 -1 0
vn 0 -1 0
vn 0 -1 0
vn 0 -1 0
vn 0 -1 0
vn 0 -1 0
vn 0 -1 0
vn 0 -1 0
vn 0 -1 0
vn 0 -1 0
vn 0 -1 0
vn 0 -1 0
vn 0 -1 0
vn 0 -1 0
vn 0 -1 0
vn 0 -1 0
vn 0 -1 0
vn 0 -1 0
vn 0 -1 0
vn 0 -1 0
vn 0 -1 0
vn 0 -1 0
vn 0 -1 0
vn 0 -1 0
vn 0 -1 0
vn 0 1 0
vn 0 1 0
vn 0 1 0
vn 0 1 0
vn 0 1 0
vn 0 1 0
vn 0 1 0
vn 0 1 0
vn 0 1 0
vn 0 1 0
vn 0 1 0
vn 0 1 0
vn 0 1 0
vn 0 1 0
vn 0 1 0
vn 0 1 0
g default_0
f 3/3/3 2/2/2 1/1/1
f 3/3/3 1/1/1 4/4/4
f 7/7/7 6/6/6 5/5/5
f 7/7/7 5/5/5 8/8/8
f 11/11/11 10/10/10 9/9/9
f 11/11/11 9/9/9 12/12/12
f 15/15/15 14/14/14 13/13/13
f 15/15/15 13/13/13 16/16/16
f 19/19/19 18/18/18 17/17/17
f 19/19/19 17/17/17 20/20/20
f 23/23/23 22/22/22 21/21/21
f 23/23/23 21/21/21 24/24/24
f 27/27/27 26/26/26 25/25/25
f 27/27/27 25/25/25 28/28/28
f 31/31/31 30/30/30 29/29/29
f 31/31/31 32/32/32 30/30/30
f 35/35/35 34/34/34 33/33/33
f 35/35/35 36/36/36 34/34/34
f 39/39/39 38/38/38 37/37/37
f 39/39/39 40/40/40 38/38/38
f 43/43/43 42/42/42 41/41/41
f 43/43/43 44/44/44 42/42/42
f 47/47/47 46/46/46 45/45/45
f 47/47/47 48/48/48 46/46/46
f 51/51/51 50/50/50 49/49/49
f 51/51/51 52/52/52 50/50/50
f 55/55/55 54/54/54 53/53/53
f 55/55/55 56/56/56 54/54/54
f 59/59/59 58/58/58 57/57/57
f 59/59/59 57/57/57 60/60/60
f 57/57/57 61/61/61 60/60/60
f 57/57/57 62/62/62 61/61/61
f 61/61/61 63/63/63 60/60/60
f 61/61/61 64/64/64 63/63/63
f 63/63/63 65/65/65 60/60/60
f 63/63/63 66/66/66 65/65/65
f 65/65/65 67/67/67 60/60/60
f 65/65/65 68/68/68 67/67/67
f 70/70/70 60/60/60 69/69/69
f 70/70/70 69/69/69 71/71/71
f 69/69/69 60/60/60 72/72/72
f 69/69/69 72/72/72 73/73/73
f 76/76/76 75/75/75 74/74/74
f 74/74/74 75/75/75 77/77/77
f 78/78/78 74/74/74 77/77/77
f 78/78/78 77/77/77 79/79/79
f 77/77/77 81/81/81 80/80/80
f 77/77/77 80/80/80 82/82/82
f 77/77/77 82/82/82 83/83/83
f 77/77/77 83/83/83 84/84/84
f 77/77/77 84/84/84 85/85/85
f 77/77/77 85/85/85 86/86/86
f 77/77/77 86/86/86 87/87/87
f 77/77/77 87/87/87 88/88/88
f 77/77/77 88/88/88 89/89/89
f 77/77/77 89/89/89 90/90/90
f 93/93/93 92/92/92 91/91/91
f 93/93/93 94/94/94 92/92/92
f 92/92/92 94/94/94 95/95/95
f 92/92/92 95/95/95 96/96/96
f 95/95/95 94/94/94 97/97/97
f 95/95/95 97/97/97 98/98/98
f 97/97/97 94/94/94 99/99/99
f 97/97/97 99/99/99 100/100/100
f 99/99/99 94/94/94 101/101/101
f 99/99/99 101/101/101 102/102/102
f 104/104/104 103/103/103 94/94/94
f 104/104/104 105/105/105 103/103/103
f 103/103/103 106/106/106 94/94/94
f 103/103/103 107/107/107 106/106/106
f 110/110/110 109/109/109 108/108/108
f 109/109/109 111/111/111 108/108/108
f 112/112/112 111/111/111 109/109/109
f 112/112/112 113/113/113 111/111/111
f 111/111/111 115/115/115 114/114/114
f 111/111/111 116/116/116 115/115/115
f 111/111/111 117/117/117 116/116/116
f 111/111/111 118/118/118 117/117/117
f 111/111/111 119/119/119 118/118/118
f 111/111/111 120/120/120 119/119/119
f 111/111/111 121/121/121 120/120/120
f 111/111/111 122/122/122 121/121/121
f 111/111/111 123/123/123 122/122/122
f 111/111/111 124/124/124 123/123/123
f 127/127/127 126/126/126 125/125/125
f 127/127/127 125/125/125 128/128/128
f 131/131/131 130/130/130 129/129/129
f 131/131/131 129/129/129 132/132/132
f 135/135/135 134/134/134 133/133/133
f 135/135/135 133/133/133 136/136/136
f 139/139/139 138/138/138 137/137/137
f 139/139/139 137/137/137 140/140/140
f 143/143/143 142/142/142 141/141/141
f 143/143/143 141/141/141 144/144/144
f 147/147/147 146/146/146 145/145/145
f 147/147/147 145/145/145 148/148/148
f 151/151/151 150/150/150 149/149/149
f 151/151/151 149/149/149 152/152/152
f 155/155/155 154/154/154 153/153/153
f 155/155/155 153/153/153 156/156/156
f 159/159/159 158/158/158 157/157/157
f 159/159/159 157/157/157 160/160/160
f 163/163/163 162/162/162 161/161/161
f 163/163/163 161/161/161 164/164/164
f 167/167/167 166/166/166 165/165/165
f 167/167/167 168/168/168 166/166/166
f 171/171/171 170/170/170 169/169/169
f 171/171/171 172/172/172 170/170/170
f 175/175/175 174/174/174 173/173/173
f 175/175/175 176/176/176 174/174/174
f 179/179/179 178/178/178 177/177/177
f 179/179/179 180/180/180 178/178/178
