g default
v -0.1 0.4 0.05
v -0.1 0.2 0.05
v -0.1 0.2 -0.05
v -0.1 0.4 0
v -0.1 0.425 0
v -0.1 0.425 -0.05
v -0.1 0.425 0.05
v -0.1 0.4 0.05
v -0.1 0.4 0
v -0.1 0.425 0
v 0.1 0.2 0.05
v 0.1 0.375 0.025
v 0.1 0.2 -0.05
v 0.1 0.375 -0.025
v 0.1 0.4 0.05
v 0.1 0.4 0.025
v 0.1 0.4 -0.025
v 0.1 0.425 -0.05
v 0.1 0.425 0
v 0.1 0.4 0
v 0.1 0.375 0.025
v 0.1 0.4 0.025
v 0.1 0.375 -0.025
v 0.1 0.4 0
v 0.1 0.4 -0.025
v 0.1 0.4 0.025
v 0.1 0.425 0.05
v 0.1 0.4 0
v 0.1 0.4 0.05
v 0.1 0.425 0
v -0.075 0.375 0.05
v -0.1 0.2 0.05
v -0.1 0.4 0.05
v -0.075 0.4 0.05
v -0.05 0.35 0.05
v -0.05 0.375 0.05
v -0.025 0.3 0.05
v -0.025 0.35 0.05
v 0.025 0.3 0.05
v 0.1 0.2 0.05
v 0.05 0.35 0.05
v 0.025 0.35 0.05
v -0.025 0.375 0.05
v -0.05 0.4 0.05
v -0.075 0.425 0.05
v 0.025 0.375 0.05
v 0.05 0.375 0.05
v 0.05 0.4 0.05
v 0.075 0.375 0.05
v 0.075 0.4 0.05
v 0.075 0.425 0.05
v 0.1 0.4 0.05
v -0.075 0.4 0.05
v -0.1 0.4 0.05
v -0.1 0.425 0.05
v -0.075 0.425 0.05
v -0.05 0.375 0.05
v -0.075 0.375 0.05
v -0.05 0.4 0.05
v -0.025 0.35 0.05
v -0.05 0.35 0.05
v -0.025 0.375 0.05
v 0.025 0.3 0.05
v -0.025 0.3 0.05
v -0.025 0.35 0.05
v 0.025 0.35 0.05
v 0.05 0.35 0.05
v 0.025 0.35 0.05
v 0.025 0.375 0.05
v 0.05 0.375 0.05
v 0.075 0.375 0.05
v 0.05 0.4 0.05
v 0.075 0.4 0.05
v 0.1 0.4 0.05
v 0.075 0.425 0.05
v 0.1 0.425 0.05
v -0.1 0.2 -0.05
v -0.025 0.4 -0.05
v -0.1 0.425 -0.05
v -0.025 0.425 -0.05
v 0.025 0.4 -0.05
v 0.1 0.2 -0.05
v 0.025 0.425 -0.05
v 0.1 0.425 -0.05
v -0.025 0.4 -0.05
v 0.025 0.4 -0.05
v -0.025 0.425 -0.05
v 0.025 0.425 -0.05
v -0.1 0.2 -0.05
v -0.1 0.2 0.05
v 0.1 0.2 0.05
v 0.1 0.2 -0.05
v -0.1 0.425 0.05
v -0.1 0.425 0
v -0.075 0.425 0.05
v -0.075 0.425 0
v -0.075 0.425 -0.025
v -0.025 0.425 0
v -0.025 0.425 -0.025
v -0.025 0.425 -0.05
v 0.025 0.425 -0.025
v 0.025 0.425 -0.05
v 0.025 0.425 0
v 0.075 0.425 0
v 0.075 0.425 -0.025
v 0.075 0.425 0.05
v 0.1 0.425 0.05
v 0.1 0.425 0
v -0.075 0.425 0.05
v -0.075 0.425 0
v 0.075 0.425 0.05
v -0.025 0.425 0
v 0.025 0.425 0
v 0.075 0.425 0
v -0.025 0.425 -0.025
v 0.025 0.425 -0.025
v -0.1 0.425 0
v -0.075 0.425 -0.025
v -0.1 0.425 -0.05
v -0.025 0.425 -0.05
v 0.075 0.425 -0.025
v 0.1 0.425 0
v 0.025 0.425 -0.05
v 0.1 0.425 -0.05
vt 0.548828 0.5
vt 0.548828 0.5
vt 0.548828 0.5
vt 0.548828 0.5
vt 0.548828 0.5
vt 0.548828 0.5
vt 0.994141 0.5
vt 0.994141 0.5
vt 0.994141 0.5
vt 0.994141 0.5
vt 0.548828 0.5
vt 0.548828 0.5
vt 0.548828 0.5
vt 0.548828 0.5
vt 0.548828 0.5
vt 0.548828 0.5
vt 0.548828 0.5
vt 0.548828 0.5
vt 0.548828 0.5
vt 0.548828 0.5
vt 0.958984 0.5
vt 0.958984 0.5
vt 0.958984 0.5
vt 0.958984 0.5
vt 0.958984 0.5
vt 0.994141 0.5
vt 0.994141 0.5
vt 0.994141 0.5
vt 0.994141 0.5
vt 0.994141 0.5
vt 0.548828 0.5
vt 0.548828 0.5
vt 0.548828 0.5
vt 0.548828 0.5
vt 0.548828 0.5
vt 0.548828 0.5
vt 0.548828 0.5
vt 0.548828 0.5
vt 0.548828 0.5
vt 0.548828 0.5
vt 0.548828 0.5
vt 0.548828 0.5
vt 0.548828 0.5
vt 0.548828 0.5
vt 0.548828 0.5
vt 0.548828 0.5
vt 0.548828 0.5
vt 0.548828 0.5
vt 0.548828 0.5
vt 0.548828 0.5
vt 0.548828 0.5
vt 0.548828 0.5
vt 0.994141 0.5
vt 0.994141 0.5
vt 0.994141 0.5
vt 0.994141 0.5
vt 0.994141 0.5
vt 0.994141 0.5
vt 0.994141 0.5
vt 0.994141 0.5
vt 0.994141 0.5
vt 0.994141 0.5
vt 0.162109 0.5
vt 0.162109 0.5
vt 0.162109 0.5
vt 0.162109 0.5
vt 0.994141 0.5
vt 0.994141 0.5
vt 0.994141 0.5
vt 0.994141 0.5
vt 0.994141 0.5
vt 0.994141 0.5
vt 0.994141 0.5
vt 0.994141 0.5
vt 0.994141 0.5
vt 0.994141 0.5
vt 0.548828 0.5
vt 0.548828 0.5
vt 0.548828 0.5
vt 0.548828 0.5
vt 0.548828 0.5
vt 0.548828 0.5
vt 0.548828 0.5
vt 0.548828 0.5
vt 0.994141 0.5
vt 0.994141 0.5
vt 0.994141 0.5
vt 0.994141 0.5
vt 0.548828 0.5
vt 0.548828 0.5
vt 0.548828 0.5
vt 0.548828 0.5
vt 0.994141 0.5
vt 0.994141 0.5
vt 0.994141 0.5
vt 0.994141 0.5
vt 0.994141 0.5
vt 0.994141 0.5
vt 0.994141 0.5
vt 0.994141 0.5
vt 0.994141 0.5
vt 0.994141 0.5
vt 0.994141 0.5
vt 0.994141 0.5
vt 0.994141 0.5
vt 0.994141 0.5
vt 0.994141 0.5
vt 0.994141 0.5
vt 0.548828 0.5
vt 0.548828 0.5
vt 0.548828 0.5
vt 0.548828 0.5
vt 0.548828 0.5
vt 0.548828 0.5
vt 0.548828 0.5
vt 0.548828 0.5
vt 0.548828 0.5
vt 0.548828 0.5
vt 0.548828 0.5
vt 0.548828 0.5
vt 0.548828 0.5
vt 0.548828 0.5
vt 0.548828 0.5
vt 0.548828 0.5
vn -1 0 0
vn -1 0 0
vn -1 0 0
vn -1 0 0
vn -1 0 0
vn -1 0 0
vn -1 0 0
vn -1 0 0
vn -1 0 0
vn -1 0 0
vn 1 0 0
vn 1 0 0
vn 1 0 0
vn 1 0 0
vn 1 0 0
vn 1 0 0
vn 1 0 0
vn 1 0 0
vn 1 0 0
vn 1 0 0
vn 1 0 0
vn 1 0 0
vn 1 0 0
vn 1 0 0
vn 1 0 0
vn 1 0 0
vn 1 0 0
vn 1 0 0
vn 1 0 0
vn 1 0 0
vn 0 0 1
vn 0 0 1
vn 0 0 1
vn 0 0 1
vn 0 0 1
vn 0 0 1
vn 0 0 1
vn 0 0 1
vn 0 0 1
vn 0 0 1
vn 0 0 1
vn 0 0 1
vn 0 0 1
vn 0 0 1
vn 0 0 1
vn 0 0 1
vn 0 0 1
vn 0 0 1
vn 0 0 1
vn 0 0 1
vn 0 0 1
vn 0 0 1
vn 0 0 1
vn 0 0 1
vn 0 0 1
vn 0 0 1
vn 0 0 1
vn 0 0 1
vn 0 0 1
vn 0 0 1
vn 0 0 1
vn 0 0 1
vn 0 0 1
vn 0 0 1
vn 0 0 1
vn 0 0 1
vn 0 0 1
vn 0 0 1
vn 0 0 1
vn 0 0 1
vn 0 0 1
vn 0 0 1
vn 0 0 1
vn 0 0 1
vn 0 0 1
vn 0 0 1
vn 0 0 -1
vn 0 0 -1
vn 0 0 -1
vn 0 0 -1
vn 0 0 -1
vn 0 0 -1
vn 0 0 -1
vn 0 0 -1
vn 0 0 -1
vn 0 0 -1
vn 0 0 -1
vn 0 0 -1
vn 0 -1 0
vn 0 -1 0
vn 0 -1 0
vn 0 -1 0
vn 0 1 0
vn 0 1 0
vn 0 1 0
vn 0 1 0
vn 0 1 0
vn 0 1 0
vn 0 1 0
vn 0 1 0
vn 0 1 0
vn 0 1 0
vn 0 1 0
vn 0 1 0
vn 0 1 0
vn 0 1 0
vn 0 1 0
vn 0 1 0
vn 0 1 0
vn 0 1 0
vn 0 1 0
vn 0 1 0
vn 0 1 0
vn 0 1 0
vn 0 1 0
vn 0 1 0
vn 0 1 0
vn 0 1 0
vn 0 1 0
vn 0 1 0
vn 0 1 0
vn 0 1 0
vn 0 1 0
vn 0 1 0
g default_0
f 3/3/3 2/2/2 1/1/1
f 3/3/3 1/1/1 4/4/4
f 3/3/3 4/4/4 5/5/5
f 3/3/3 5/5/5 6/6/6
f 9/9/9 8/8/8 7/7/7
f 9/9/9 7/7/7 10/10/10
f 13/13/13 12/12/12 11/11/11
f 13/13/13 14/14/14 12/12/12
f 12/12/12 15/15/15 11/11/11
f 12/12/12 16/16/16 15/15/15
f 13/13/13 17/17/17 14/14/14
f 13/13/13 18/18/18 17/17/17
f 17/17/17 18/18/18 19/19/19
f 17/17/17 19/19/19 20/20/20
f 23/23/23 22/22/22 21/21/21
f 23/23/23 24/24/24 22/22/22
f 23/23/23 25/25/25 24/24/24
f 28/28/28 27/27/27 26/26/26
f 26/26/26 27/27/27 29/29/29
f 28/28/28 30/30/30 27/27/27
f 33/33/33 32/32/32 31/31/31
f 33/33/33 31/31/31 34/34/34
f 31/31/31 32/32/32 35/35/35
f 31/31/31 35/35/35 36/36/36
f 35/35/35 32/32/32 37/37/37
f 35/35/35 37/37/37 38/38/38
f 37/37/37 32/32/32 39/39/39
f 39/39/39 32/32/32 40/40/40
f 41/41/41 39/39/39 40/40/40
f 42/42/42 39/39/39 41/41/41
f 43/43/43 38/38/38 42/42/42
f 44/44/44 36/36/36 43/43/43
f 45/45/45 34/34/34 44/44/44
f 44/44/44 43/43/43 46/46/46
f 43/43/43 42/42/42 46/46/46
f 44/44/44 46/46/46 47/47/47
f 45/45/45 44/44/44 48/48/48
f 44/44/44 47/47/47 48/48/48
f 47/47/47 41/41/41 49/49/49
f 49/49/49 41/41/41 40/40/40
f 45/45/45 48/48/48 50/50/50
f 50/50/50 49/49/49 40/40/40
f 45/45/45 50/50/50 51/51/51
f 50/50/50 40/40/40 52/52/52
f 55/55/55 54/54/54 53/53/53
f 55/55/55 53/53/53 56/56/56
f 53/53/53 58/58/58 57/57/57
f 53/53/53 57/57/57 59/59/59
f 57/57/57 61/61/61 60/60/60
f 57/57/57 60/60/60 62/62/62
f 65/65/65 64/64/64 63/63/63
f 65/65/65 63/63/63 66/66/66
f 69/69/69 68/68/68 67/67/67
f 69/69/69 67/67/67 70/70/70
f 72/72/72 70/70/70 71/71/71
f 72/72/72 71/71/71 73/73/73
f 75/75/75 73/73/73 74/74/74
f 75/75/75 74/74/74 76/76/76
f 79/79/79 78/78/78 77/77/77
f 79/79/79 80/80/80 78/78/78
f 78/78/78 81/81/81 77/77/77
f 81/81/81 82/82/82 77/77/77
f 83/83/83 82/82/82 81/81/81
f 83/83/83 84/84/84 82/82/82
f 87/87/87 86/86/86 85/85/85
f 87/87/87 88/88/88 86/86/86
f 91/91/91 90/90/90 89/89/89
f 91/91/91 89/89/89 92/92/92
f 95/95/95 94/94/94 93/93/93
f 95/95/95 96/96/96 94/94/94
f 98/98/98 97/97/97 96/96/96
f 98/98/98 99/99/99 97/97/97
f 101/101/101 100/100/100 99/99/99
f 101/101/101 102/102/102 100/100/100
f 104/104/104 101/101/101 103/103/103
f 104/104/104 105/105/105 101/101/101
f 107/107/107 104/104/104 106/106/106
f 107/107/107 108/108/108 104/104/104
f 111/111/111 110/110/110 109/109/109
f 111/111/111 112/112/112 110/110/110
f 111/111/111 113/113/113 112/112/112
f 111/111/111 114/114/114 113/113/113
f 113/113/113 115/115/115 112/112/112
f 113/113/113 116/116/116 115/115/115
f 110/110/110 118/118/118 117/117/117
f 118/118/118 119/119/119 117/117/117
f 115/115/115 119/119/119 118/118/118
f 115/115/115 120/120/120 119/119/119
f 122/122/122 121/121/121 114/114/114
f 121/121/121 123/123/123 116/116/116
f 122/122/122 124/124/124 121/121/121
f 121/121/121 124/124/124 123/123/123
