g default
v 0.0125 0.025 0.025
v 0.0125 0 0.025
v 0.0125 0 -0.025
v 0.0125 0.025 0
v 0.0125 0.025 -0.025
v 0.0125 0.05 0.025
v 0.0125 0.025 0.05
v 0.0125 0.05 0
v 0.0125 0.075 0.05
v 0.0125 0.1 0.025
v 0.0125 0.1 0.075
v 0.0125 0.075 0.1
v 0.0125 0.3 0.075
v 0.0125 0.325 0.1
v 0.0125 0.3 0.025
v 0.0125 0.325 0.05
v 0.0125 0.35 0.025
v 0.0125 0.375 0.05
v 0.0125 0.35 0
v 0.0125 0.375 0.025
v 0.0125 0.375 0
v 0.0125 0.4 0.025
v 0.0125 0.375 -0.025
v 0.0125 0.4 -0.025
v 0.0125 0.05 0
v 0.0125 0.025 0
v 0.0125 0.025 -0.025
v 0.0125 0.35 0
v 0.0125 0.375 0
v 0.0125 0.375 -0.025
v 0.0375 0 0.025
v 0.0375 0.025 0.025
v 0.0375 0 -0.025
v 0.0375 0.025 0
v 0.0375 0.025 -0.025
v 0.0375 0.05 0.025
v 0.0375 0.025 0.05
v 0.0375 0.05 0
v 0.0375 0.075 0.05
v 0.0375 0.1 0.025
v 0.0375 0.1 0.075
v 0.0375 0.075 0.1
v 0.0375 0.3 0.075
v 0.0375 0.325 0.1
v 0.0375 0.3 0.025
v 0.0375 0.325 0.05
v 0.0375 0.35 0.025
v 0.0375 0.375 0.05
v 0.0375 0.35 0
v 0.0375 0.375 0.025
v 0.0375 0.375 0
v 0.0375 0.4 0.025
v 0.0375 0.375 -0.025
v 0.0375 0.4 -0.025
v 0.0375 0.025 0
v 0.0375 0.05 0
v 0.0375 0.025 -0.025
v 0.0375 0.35 0
v 0.0375 0.375 0
v 0.0375 0.375 -0.025
v 0.0375 0.075 0.1
v 0.0125 0.075 0.1
v 0.0125 0.325 0.1
v 0.0375 0.325 0.1
v 0.0375 0.025 0.05
v 0.0125 0.025 0.05
v 0.0125 0.075 0.05
v 0.0375 0.075 0.05
v 0.0375 0.325 0.05
v 0.0125 0.325 0.05
v 0.0125 0.375 0.05
v 0.0375 0.375 0.05
v 0.0375 0 0.025
v 0.0125 0 0.025
v 0.0125 0.025 0.025
v 0.0375 0.025 0.025
v 0.0375 0.375 0.025
v 0.0125 0.375 0.025
v 0.0125 0.4 0.025
v 0.0375 0.4 0.025
v 0.0375 0.05 0
v 0.0125 0.05 0
v 0.0125 0.35 0
v 0.0375 0.35 0
v 0.0125 0.1 0.075
v 0.0375 0.1 0.075
v 0.0125 0.3 0.075
v 0.0375 0.3 0.075
v 0.0125 0.05 0.025
v 0.0375 0.05 0.025
v 0.0125 0.1 0.025
v 0.0375 0.1 0.025
v 0.0125 0.3 0.025
v 0.0375 0.3 0.025
v 0.0125 0.35 0.025
v 0.0375 0.35 0.025
v 0.0125 0 -0.025
v 0.0375 0 -0.025
v 0.0125 0.025 -0.025
v 0.0375 0.025 -0.025
v 0.0125 0.025 -0.025
v 0.0375 0.025 -0.025
v 0.0125 0.375 -0.025
v 0.0375 0.375 -0.025
v 0.0125 0.375 -0.025
v 0.0375 0.375 -0.025
v 0.0125 0.4 -0.025
v 0.0375 0.4 -0.025
v 0.0125 0 -0.025
v 0.0125 0 0.025
v 0.0375 0 0.025
v 0.0375 0 -0.025
v 0.0125 0.025 0.025
v 0.0125 0.025 0.05
v 0.0375 0.025 0.05
v 0.0375 0.025 0.025
v 0.0125 0.075 0.05
v 0.0125 0.075 0.1
v 0.0375 0.075 0.1
v 0.0375 0.075 0.05
v 0.0125 0.3 0.025
v 0.0125 0.3 0.075
v 0.0375 0.3 0.075
v 0.0375 0.3 0.025
v 0.0125 0.35 0
v 0.0125 0.35 0.025
v 0.0375 0.35 0.025
v 0.0375 0.35 0
v 0.0125 0.05 0.025
v 0.0125 0.05 0
v 0.0375 0.05 0.025
v 0.0375 0.05 0
v 0.0125 0.1 0.075
v 0.0125 0.1 0.025
v 0.0375 0.1 0.075
v 0.0375 0.1 0.025
v 0.0125 0.325 0.1
v 0.0125 0.325 0.05
v 0.0375 0.325 0.1
v 0.0375 0.325 0.05
v 0.0125 0.375 0.05
v 0.0125 0.375 0.025
v 0.0375 0.375 0.05
v 0.0375 0.375 0.025
v 0.0125 0.4 0.025
v 0.0125 0.4 -0.025
v 0.0375 0.4 0.025
v 0.0375 0.4 -0.025
vt 0.373047 0.5
vt 0.373047 0.5
vt 0.373047 0.5
vt 0.373047 0.5
vt 0.373047 0.5
vt 0.373047 0.5
vt 0.373047 0.5
vt 0.373047 0.5
vt 0.373047 0.5
vt 0.373047 0.5
vt 0.373047 0.5
vt 0.373047 0.5
vt 0.373047 0.5
vt 0.373047 0.5
vt 0.373047 0.5
vt 0.373047 0.5
vt 0.373047 0.5
vt 0.373047 0.5
vt 0.373047 0.5
vt 0.373047 0.5
vt 0.373047 0.5
vt 0.373047 0.5
vt 0.373047 0.5
vt 0.373047 0.5
vt 0.958984 0.5
vt 0.958984 0.5
vt 0.958984 0.5
vt 0.958984 0.5
vt 0.958984 0.5
vt 0.958984 0.5
vt 0.373047 0.5
vt 0.373047 0.5
vt 0.373047 0.5
vt 0.373047 0.5
vt 0.373047 0.5
vt 0.373047 0.5
vt 0.373047 0.5
vt 0.373047 0.5
vt 0.373047 0.5
vt 0.373047 0.5
vt 0.373047 0.5
vt 0.373047 0.5
vt 0.373047 0.5
vt 0.373047 0.5
vt 0.373047 0.5
vt 0.373047 0.5
vt 0.373047 0.5
vt 0.373047 0.5
vt 0.373047 0.5
vt 0.373047 0.5
vt 0.373047 0.5
vt 0.373047 0.5
vt 0.373047 0.5
vt 0.373047 0.5
vt 0.958984 0.5
vt 0.958984 0.5
vt 0.958984 0.5
vt 0.958984 0.5
vt 0.958984 0.5
vt 0.958984 0.5
vt 0.373047 0.5
vt 0.373047 0.5
vt 0.373047 0.5
vt 0.373047 0.5
vt 0.373047 0.5
vt 0.373047 0.5
vt 0.373047 0.5
vt 0.373047 0.5
vt 0.373047 0.5
vt 0.373047 0.5
vt 0.373047 0.5
vt 0.373047 0.5
vt 0.373047 0.5
vt 0.373047 0.5
vt 0.373047 0.5
vt 0.373047 0.5
vt 0.373047 0.5
vt 0.373047 0.5
vt 0.373047 0.5
vt 0.373047 0.5
vt 0.958984 0.5
vt 0.958984 0.5
vt 0.958984 0.5
vt 0.958984 0.5
vt 0.373047 0.5
vt 0.373047 0.5
vt 0.373047 0.5
vt 0.373047 0.5
vt 0.373047 0.5
vt 0.373047 0.5
vt 0.373047 0.5
vt 0.373047 0.5
vt 0.373047 0.5
vt 0.373047 0.5
vt 0.373047 0.5
vt 0.373047 0.5
vt 0.373047 0.5
vt 0.373047 0.5
vt 0.373047 0.5
vt 0.373047 0.5
vt 0.958984 0.5
vt 0.958984 0.5
vt 0.958984 0.5
vt 0.958984 0.5
vt 0.373047 0.5
vt 0.373047 0.5
vt 0.373047 0.5
vt 0.373047 0.5
vt 0.373047 0.5
vt 0.373047 0.5
vt 0.373047 0.5
vt 0.373047 0.5
vt 0.373047 0.5
vt 0.373047 0.5
vt 0.373047 0.5
vt 0.373047 0.5
vt 0.373047 0.5
vt 0.373047 0.5
vt 0.373047 0.5
vt 0.373047 0.5
vt 0.373047 0.5
vt 0.373047 0.5
vt 0.373047 0.5
vt 0.373047 0.5
vt 0.373047 0.5
vt 0.373047 0.5
vt 0.373047 0.5
vt 0.373047 0.5
vt 0.373047 0.5
vt 0.373047 0.5
vt 0.373047 0.5
vt 0.373047 0.5
vt 0.373047 0.5
vt 0.373047 0.5
vt 0.373047 0.5
vt 0.373047 0.5
vt 0.373047 0.5
vt 0.373047 0.5
vt 0.373047 0.5
vt 0.373047 0.5
vt 0.373047 0.5
vt 0.373047 0.5
vt 0.373047 0.5
vt 0.373047 0.5
vt 0.373047 0.5
vt 0.373047 0.5
vt 0.373047 0.5
vt 0.373047 0.5
vn -1 0 0
vn -1 0 0
vn -1 0 0
vn -1 0 0
vn -1 0 0
vn -1 0 0
vn -1 0 0
vn -1 0 0
vn -1 0 0
vn -1 0 0
vn -1 0 0
vn -1 0 0
vn -1 0 0
vn -1 0 0
vn -1 0 0
vn -1 0 0
vn -1 0 0
vn -1 0 0
vn -1 0 0
vn -1 0 0
vn -1 0 0
vn -1 0 0
vn -1 0 0
vn -1 0 0
vn -1 0 0
vn -1 0 0
vn -1 0 0
vn -1 0 0
vn -1 0 0
vn -1 0 0
vn 1 0 0
vn 1 0 0
vn 1 0 0
vn 1 0 0
vn 1 0 0
vn 1 0 0
vn 1 0 0
vn 1 0 0
vn 1 0 0
vn 1 0 0
vn 1 0 0
vn 1 0 0
vn 1 0 0
vn 1 0 0
vn 1 0 0
vn 1 0 0
vn 1 0 0
vn 1 0 0
vn 1 0 0
vn 1 0 0
vn 1 0 0
vn 1 0 0
vn 1 0 0
vn 1 0 0
vn 1 0 0
vn 1 0 0
vn 1 0 0
vn 1 0 0
vn 1 0 0
vn 1 0 0
vn 0 0 1
vn 0 0 1
vn 0 0 1
vn 0 0 1
vn 0 0 1
vn 0 0 1
vn 0 0 1
vn 0 0 1
vn 0 0 1
vn 0 0 1
vn 0 0 1
vn 0 0 1
vn 0 0 1
vn 0 0 1
vn 0 0 1
vn 0 0 1
vn 0 0 1
vn 0 0 1
vn 0 0 1
vn 0 0 1
vn 0 0 1
vn 0 0 1
vn 0 0 1
vn 0 0 1
vn 0 0 -1
vn 0 0 -1
vn 0 0 -1
vn 0 0 -1
vn 0 0 -1
vn 0 0 -1
vn 0 0 -1
vn 0 0 -1
vn 0 0 -1
vn 0 0 -1
vn 0 0 -1
vn 0 0 -1
vn 0 0 -1
vn 0 0 -1
vn 0 0 -1
vn 0 0 -1
vn 0 0 -1
vn 0 0 -1
vn 0 0 -1
vn 0 0 -1
vn 0 0 -1
vn 0 0 -1
vn 0 0 -1
vn 0 0 -1
vn 0 -1 0
vn 0 -1 0
vn 0 -1 0
vn 0 -1 0
vn 0 -1 0
vn 0 -1 0
vn 0 -1 0
vn 0 -1 0
vn 0 -1 0
vn 0 -1 0
vn 0 -1 0
vn 0 -1 0
vn 0 -1 0
vn 0 -1 0
vn 0 -1 0
vn 0 -1 0
vn 0 -1 0
vn 0 -1 0
vn 0 -1 0
vn 0 -1 0
vn 0 1 0
vn 0 1 0
vn 0 1 0
vn 0 1 0
vn 0 1 0
vn 0 1 0
vn 0 1 0
vn 0 1 0
vn 0 1 0
vn 0 1 0
vn 0 1 0
vn 0 1 0
vn 0 1 0
vn 0 1 0
vn 0 1 0
vn 0 1 0
vn 0 1 0
vn 0 1 0
vn 0 1 0
vn 0 1 0
g default_0
f 3/3/3 2/2/2 1/1/1
f 3/3/3 1/1/1 4/4/4
f 3/3/3 4/4/4 5/5/5
f 4/4/4 1/1/1 6/6/6
f 1/1/1 7/7/7 6/6/6
f 4/4/4 6/6/6 8/8/8
f 6/6/6 7/7/7 9/9/9
f 6/6/6 9/9/9 10/10/10
f 9/9/9 11/11/11 10/10/10
f 9/9/9 12/12/12 11/11/11
f 11/11/11 12/12/12 13/13/13
f 13/13/13 12/12/12 14/14/14
f 15/15/15 13/13/13 14/14/14
f 15/15/15 14/14/14 16/16/16
f 15/15/15 16/16/16 17/17/17
f 17/17/17 16/16/16 18/18/18
f 19/19/19 17/17/17 18/18/18
f 19/19/19 18/18/18 20/20/20
f 19/19/19 20/20/20 21/21/21
f 21/21/21 20/20/20 22/22/22
f 23/23/23 21/21/21 22/22/22
f 23/23/23 22/22/22 24/24/24
f 27/27/27 26/26/26 25/25/25
f 27/27/27 25/25/25 28/28/28
f 27/27/27 28/28/28 29/29/29
f 27/27/27 29/29/29 30/30/30
f 33/33/33 32/32/32 31/31/31
f 33/33/33 34/34/34 32/32/32
f 33/33/33 35/35/35 34/34/34
f 34/34/34 36/36/36 32/32/32
f 32/32/32 36/36/36 37/37/37
f 34/34/34 38/38/38 36/36/36
f 36/36/36 39/39/39 37/37/37
f 36/36/36 40/40/40 39/39/39
f 39/39/39 40/40/40 41/41/41
f 39/39/39 41/41/41 42/42/42
f 41/41/41 43/43/43 42/42/42
f 43/43/43 44/44/44 42/42/42
f 45/45/45 44/44/44 43/43/43
f 45/45/45 46/46/46 44/44/44
f 45/45/45 47/47/47 46/46/46
f 47/47/47 48/48/48 46/46/46
f 49/49/49 48/48/48 47/47/47
f 49/49/49 50/50/50 48/48/48
f 49/49/49 51/51/51 50/50/50
f 51/51/51 52/52/52 50/50/50
f 53/53/53 52/52/52 51/51/51
f 53/53/53 54/54/54 52/52/52
f 57/57/57 56/56/56 55/55/55
f 57/57/57 58/58/58 56/56/56
f 57/57/57 59/59/59 58/58/58
f 57/57/57 60/60/60 59/59/59
f 63/63/63 62/62/62 61/61/61
f 63/63/63 61/61/61 64/64/64
f 67/67/67 66/66/66 65/65/65
f 67/67/67 65/65/65 68/68/68
f 71/71/71 70/70/70 69/69/69
f 71/71/71 69/69/69 72/72/72
f 75/75/75 74/74/74 73/73/73
f 75/75/75 73/73/73 76/76/76
f 79/79/79 78/78/78 77/77/77
f 79/79/79 77/77/77 80/80/80
f 83/83/83 82/82/82 81/81/81
f 83/83/83 81/81/81 84/84/84
f 87/87/87 86/86/86 85/85/85
f 87/87/87 88/88/88 86/86/86
f 91/91/91 90/90/90 89/89/89
f 91/91/91 92/92/92 90/90/90
f 95/95/95 94/94/94 93/93/93
f 95/95/95 96/96/96 94/94/94
f 99/99/99 98/98/98 97/97/97
f 99/99/99 100/100/100 98/98/98
f 103/103/103 102/102/102 101/101/101
f 103/103/103 104/104/104 102/102/102
f 107/107/107 106/106/106 105/105/105
f 107/107/107 108/108/108 106/106/106
f 111/111/111 110/110/110 109/109/109
f 111/111/111 109/109/109 112/112/112
f 115/115/115 114/114/114 113/113/113
f 115/115/115 113/113/113 116/116/116
f 119/119/119 118/118/118 117/117/117
f 119/119/119 117/117/117 120/120/120
f 123/123/123 122/122/122 121/121/121
f 123/123/123 121/121/121 124/124/124
f 127/127/127 126/126/126 125/125/125
f 127/127/127 125/125/125 128/128/128
f 131/131/131 130/130/130 129/129/129
f 131/131/131 132/132/132 130/130/130
f 135/135/135 134/134/134 133/133/133
f 135/135/135 136/136/136 134/134/134
f 139/139/139 138/138/138 137/137/137
f 139/139/139 140/140/140 138/138/138
f 143/143/143 142/142/142 141/141/141
f 143/143/143 144/144/144 142/142/142
f 147/147/147 146/146/146 145/145/145
f 147/147/147 148/148/148 146/146/146
