g default
v 0.0125 0.05 0.025
v 0.0125 0 0.025
v 0.0125 0 -0.025
v 0.0125 0.05 0
v 0.0125 0.225 0
v 0.0125 0.225 -0.025
v 0.0375 0 0.025
v 0.0375 0.05 0.025
v 0.0375 0 -0.025
v 0.0375 0.05 0
v 0.0375 0.225 0
v 0.0375 0.225 -0.025
v 0.0375 0 0.025
v 0.0125 0 0.025
v 0.0125 0.05 0.025
v 0.0375 0.05 0.025
v 0.0375 0.05 0
v 0.0125 0.05 0
v 0.0125 0.225 0
v 0.0375 0.225 0
v 0.0125 0 -0.025
v 0.0375 0 -0.025
v 0.0125 0.225 -0.025
v 0.0375 0.225 -0.025
v 0.0125 0 -0.025
v 0.0125 0 0.025
v 0.0375 0 0.025
v 0.0375 0 -0.025
v 0.0125 0.05 0.025
v 0.0125 0.05 0
v 0.0375 0.05 0.025
v 0.0375 0.05 0
v 0.0125 0.225 0
v 0.0125 0.225 -0.025
v 0.0375 0.225 0
v 0.0375 0.225 -0.025
vt 0.966797 0.5
vt 0.966797 0.5
vt 0.966797 0.5
vt 0.966797 0.5
vt 0.966797 0.5
vt 0.966797 0.5
vt 0.966797 0.5
vt 0.966797 0.5
vt 0.966797 0.5
vt 0.966797 0.5
vt 0.966797 0.5
vt 0.966797 0.5
vt 0.966797 0.5
vt 0.966797 0.5
vt 0.966797 0.5
vt 0.966797 0.5
vt 0.966797 0.5
vt 0.966797 0.5
vt 0.966797 0.5
vt 0.966797 0.5
vt 0.966797 0.5
vt 0.966797 0.5
vt 0.966797 0.5
vt 0.966797 0.5
vt 0.966797 0.5
vt 0.966797 0.5
vt 0.966797 0.5
vt 0.966797 0.5
vt 0.966797 0.5
vt 0.966797 0.5
vt 0.966797 0.5
vt 0.966797 0.5
vt 0.966797 0.5
vt 0.966797 0.5
vt 0.966797 0.5
vt 0.966797 0.5
vn -1 0 0
vn -1 0 0
vn -1 0 0
vn -1 0 0
vn -1 0 0
vn -1 0 0
vn 1 0 0
vn 1 0 0
vn 1 0 0
vn 1 0 0
vn 1 0 0
vn 1 0 0
vn 0 0 1
vn 0 0 1
vn 0 0 1
vn 0 0 1
vn 0 0 1
vn 0 0 1
vn 0 0 1
vn 0 0 1
vn 0 0 -1
vn 0 0 -1
vn 0 0 -1
vn 0 0 -1
vn 0 -1 0
vn 0 -1 0
vn 0 -1 0
vn 0 -1 0
vn 0 1 0
vn 0 1 0
vn 0 1 0
vn 0 1 0
vn 0 1 0
vn 0 1 0
vn 0 1 0
vn 0 1 0
g default_0
f 3/3/3 2/2/2 1/1/1
f 3/3/3 1/1/1 4/4/4
f 3/3/3 4/4/4 5/5/5
f 3/3/3 5/5/5 6/6/6
f 9/9/9 8/8/8 7/7/7
f 9/9/9 10/10/10 8/8/8
f 9/9/9 11/11/11 10/10/10
f 9/9/9 12/12/12 11/11/11
f 15/15/15 14/14/14 13/13/13
f 15/15/15 13/13/13 16/16/16
f 19/19/19 18/18/18 17/17/17
f 19/19/19 17/17/17 20/20/20
f 23/23/23 22/22/22 21/21/21
f 23/23/23 24/24/24 22/22/22
f 27/27/27 26/26/26 25/25/25
f 27/27/27 25/25/25 28/28/28
f 31/31/31 30/30/30 29/29/29
f 31/31/31 32/32/32 30/30/30
f 35/35/35 34/34/34 33/33/33
f 35/35/35 36/36/36 34/34/34
