g default
v -0.4 0.6 0.1
v -0.4 0.45 0.1
v -0.4 0.45 -0.475
v -0.4 0.6 -0.475
v -0.375 0.45 0.075
v -0.375 0.3 0.075
v -0.375 0.3 -0.45
v -0.375 0.45 -0.45
v -0.375 1.525 0.075
v -0.375 0.6 0.075
v -0.375 0.6 -0.45
v -0.375 1.525 -0.45
v -0.35 0.3 0.05
v -0.35 0.275 0.05
v -0.35 0.275 -0.425
v -0.35 0.3 -0.425
v -0.15 0.45 0.1
v -0.15 0.425 0.125
v -0.15 0.425 0.075
v -0.15 0.45 0.075
v -0.15 0.6 0.1
v -0.15 0.625 0.125
v -0.15 0.6 0.075
v -0.15 0.625 0.075
v 0.125 0.6 0.125
v 0.125 0.45 0.125
v 0.125 0.45 0.1
v 0.125 0.6 0.1
v -0.125 0.45 0.125
v -0.125 0.5 0.125
v -0.125 0.45 0.1
v -0.125 0.5 0.1
v -0.125 0.55 0.125
v -0.125 0.6 0.125
v -0.125 0.55 0.1
v -0.125 0.6 0.1
v -0.05 0.5 0.125
v -0.05 0.55 0.125
v -0.05 0.5 0.1
v -0.05 0.55 0.1
v 0.15 0.425 0.125
v 0.15 0.45 0.1
v 0.15 0.425 0.075
v 0.15 0.45 0.075
v 0.15 0.6 0.1
v 0.15 0.625 0.125
v 0.15 0.6 0.075
v 0.15 0.625 0.075
v 0.35 0.275 0.05
v 0.35 0.3 0.05
v 0.35 0.275 -0.425
v 0.35 0.3 -0.425
v 0.375 0.3 0.075
v 0.375 0.45 0.075
v 0.375 0.3 -0.45
v 0.375 0.45 -0.45
v 0.375 0.6 0.075
v 0.375 1.525 0.075
v 0.375 0.6 -0.45
v 0.375 1.525 -0.45
v 0.4 0.45 0.1
v 0.4 0.6 0.1
v 0.4 0.45 -0.475
v 0.4 0.6 -0.475
v -0.125 0.45 0.125
v -0.15 0.425 0.125
v -0.15 0.625 0.125
v -0.125 0.5 0.125
v -0.125 0.55 0.125
v -0.125 0.6 0.125
v -0.05 0.5 0.125
v -0.05 0.55 0.125
v 0.125 0.45 0.125
v 0.125 0.6 0.125
v 0.15 0.425 0.125
v 0.15 0.625 0.125
v -0.15 0.45 0.1
v -0.4 0.45 0.1
v -0.4 0.6 0.1
v -0.15 0.6 0.1
v -0.05 0.5 0.1
v -0.125 0.45 0.1
v -0.125 0.5 0.1
v 0.125 0.45 0.1
v -0.05 0.55 0.1
v 0.125 0.6 0.1
v -0.125 0.6 0.1
v -0.125 0.55 0.1
v 0.4 0.45 0.1
v 0.15 0.45 0.1
v 0.15 0.6 0.1
v 0.4 0.6 0.1
v -0.15 0.425 0.075
v -0.375 0.3 0.075
v -0.375 0.45 0.075
v -0.15 0.45 0.075
v 0.15 0.425 0.075
v 0.375 0.3 0.075
v 0.15 0.45 0.075
v 0.375 0.45 0.075
v -0.15 0.6 0.075
v -0.375 0.6 0.075
v -0.375 1.525 0.075
v -0.15 0.625 0.075
v 0.15 0.625 0.075
v 0.375 1.525 0.075
v 0.375 0.6 0.075
v 0.15 0.6 0.075
v 0.35 0.275 0.05
v -0.35 0.275 0.05
v -0.35 0.3 0.05
v 0.35 0.3 0.05
v -0.35 0.275 -0.425
v 0.35 0.275 -0.425
v -0.35 0.3 -0.425
v 0.35 0.3 -0.425
v -0.375 0.3 -0.45
v 0.375 0.3 -0.45
v -0.375 0.45 -0.45
v 0.375 0.45 -0.45
v -0.375 0.6 -0.45
v 0.375 0.6 -0.45
v -0.375 1.525 -0.45
v 0.375 1.525 -0.45
v -0.4 0.45 -0.475
v 0.4 0.45 -0.475
v -0.4 0.6 -0.475
v 0.4 0.6 -0.475
v -0.35 0.275 -0.425
v -0.35 0.275 0.05
v 0.35 0.275 0.05
v 0.35 0.275 -0.425
v -0.35 0.3 0.05
v -0.375 0.3 0.075
v 0.375 0.3 0.075
v 0.35 0.3 0.05
v -0.35 0.3 -0.425
v 0.35 0.3 -0.425
v -0.375 0.3 -0.45
v 0.375 0.3 -0.45
v -0.15 0.425 0.075
v -0.15 0.425 0.125
v 0.15 0.425 0.125
v 0.15 0.425 0.075
v -0.375 0.45 0.075
v -0.4 0.45 0.1
v -0.15 0.45 0.1
v -0.15 0.45 0.075
v -0.375 0.45 -0.45
v -0.4 0.45 -0.475
v 0.375 0.45 -0.45
v 0.4 0.45 -0.475
v 0.4 0.45 0.1
v 0.375 0.45 0.075
v 0.15 0.45 0.075
v 0.15 0.45 0.1
v -0.125 0.5 0.1
v -0.125 0.5 0.125
v -0.05 0.5 0.125
v -0.05 0.5 0.1
v -0.125 0.6 0.1
v -0.125 0.6 0.125
v 0.125 0.6 0.125
v 0.125 0.6 0.1
v -0.125 0.45 0.125
v -0.125 0.45 0.1
v 0.125 0.45 0.125
v 0.125 0.45 0.1
v -0.125 0.55 0.125
v -0.125 0.55 0.1
v -0.05 0.55 0.125
v -0.05 0.55 0.1
v -0.4 0.6 0.1
v -0.375 0.6 0.075
v -0.15 0.6 0.1
v -0.15 0.6 0.075
v -0.375 0.6 -0.45
v -0.4 0.6 -0.475
v 0.375 0.6 -0.45
v 0.4 0.6 -0.475
v 0.4 0.6 0.1
v 0.375 0.6 0.075
v 0.15 0.6 0.075
v 0.15 0.6 0.1
v -0.15 0.625 0.125
v -0.15 0.625 0.075
v 0.15 0.625 0.125
v 0.15 0.625 0.075
v -0.375 1.525 0.075
v -0.375 1.525 -0.45
v 0.375 1.525 0.075
v 0.375 1.525 -0.45
vt 0.787109 0.5
vt 0.787109 0.5
vt 0.787109 0.5
vt 0.787109 0.5
vt 0.810547 0.5
vt 0.810547 0.5
vt 0.810547 0.5
vt 0.810547 0.5
vt 0.525391 0.5
vt 0.525391 0.5
vt 0.525391 0.5
vt 0.525391 0.5
vt 0.810547 0.5
vt 0.810547 0.5
vt 0.810547 0.5
vt 0.810547 0.5
vt 0.431641 0.5
vt 0.431641 0.5
vt 0.431641 0.5
vt 0.431641 0.5
vt 0.431641 0.5
vt 0.431641 0.5
vt 0.431641 0.5
vt 0.431641 0.5
vt 0.431641 0.5
vt 0.431641 0.5
vt 0.431641 0.5
vt 0.431641 0.5
vt 0.431641 0.5
vt 0.431641 0.5
vt 0.431641 0.5
vt 0.431641 0.5
vt 0.431641 0.5
vt 0.431641 0.5
vt 0.431641 0.5
vt 0.431641 0.5
vt 0.431641 0.5
vt 0.431641 0.5
vt 0.431641 0.5
vt 0.431641 0.5
vt 0.431641 0.5
vt 0.431641 0.5
vt 0.431641 0.5
vt 0.431641 0.5
vt 0.431641 0.5
vt 0.431641 0.5
vt 0.431641 0.5
vt 0.431641 0.5
vt 0.810547 0.5
vt 0.810547 0.5
vt 0.810547 0.5
vt 0.810547 0.5
vt 0.810547 0.5
vt 0.810547 0.5
vt 0.810547 0.5
vt 0.810547 0.5
vt 0.525391 0.5
vt 0.525391 0.5
vt 0.525391 0.5
vt 0.525391 0.5
vt 0.787109 0.5
vt 0.787109 0.5
vt 0.787109 0.5
vt 0.787109 0.5
vt 0.431641 0.5
vt 0.431641 0.5
vt 0.431641 0.5
vt 0.431641 0.5
vt 0.431641 0.5
vt 0.431641 0.5
vt 0.431641 0.5
vt 0.431641 0.5
vt 0.431641 0.5
vt 0.431641 0.5
vt 0.431641 0.5
vt 0.431641 0.5
vt 0.787109 0.5
vt 0.787109 0.5
vt 0.787109 0.5
vt 0.787109 0.5
vt 0.787109 0.5
vt 0.787109 0.5
vt 0.787109 0.5
vt 0.787109 0.5
vt 0.787109 0.5
vt 0.787109 0.5
vt 0.787109 0.5
vt 0.787109 0.5
vt 0.787109 0.5
vt 0.787109 0.5
vt 0.787109 0.5
vt 0.787109 0.5
vt 0.810547 0.5
vt 0.810547 0.5
vt 0.810547 0.5
vt 0.810547 0.5
vt 0.810547 0.5
vt 0.810547 0.5
vt 0.810547 0.5
vt 0.810547 0.5
vt 0.525391 0.5
vt 0.525391 0.5
vt 0.525391 0.5
vt 0.525391 0.5
vt 0.525391 0.5
vt 0.525391 0.5
vt 0.525391 0.5
vt 0.525391 0.5
vt 0.810547 0.5
vt 0.810547 0.5
vt 0.810547 0.5
vt 0.810547 0.5
vt 0.810547 0.5
vt 0.810547 0.5
vt 0.810547 0.5
vt 0.810547 0.5
vt 0.810547 0.5
vt 0.810547 0.5
vt 0.810547 0.5
vt 0.810547 0.5
vt 0.525391 0.5
vt 0.525391 0.5
vt 0.525391 0.5
vt 0.525391 0.5
vt 0.787109 0.5
vt 0.787109 0.5
vt 0.787109 0.5
vt 0.787109 0.5
vt 0.810547 0.5
vt 0.810547 0.5
vt 0.810547 0.5
vt 0.810547 0.5
vt 0.810547 0.5
vt 0.810547 0.5
vt 0.810547 0.5
vt 0.810547 0.5
vt 0.810547 0.5
vt 0.810547 0.5
vt 0.810547 0.5
vt 0.810547 0.5
vt 0.431641 0.5
vt 0.431641 0.5
vt 0.431641 0.5
vt 0.431641 0.5
vt 0.787109 0.5
vt 0.787109 0.5
vt 0.787109 0.5
vt 0.787109 0.5
vt 0.787109 0.5
vt 0.787109 0.5
vt 0.787109 0.5
vt 0.787109 0.5
vt 0.787109 0.5
vt 0.787109 0.5
vt 0.787109 0.5
vt 0.787109 0.5
vt 0.431641 0.5
vt 0.431641 0.5
vt 0.431641 0.5
vt 0.431641 0.5
vt 0.431641 0.5
vt 0.431641 0.5
vt 0.431641 0.5
vt 0.431641 0.5
vt 0.431641 0.5
vt 0.431641 0.5
vt 0.431641 0.5
vt 0.431641 0.5
vt 0.431641 0.5
vt 0.431641 0.5
vt 0.431641 0.5
vt 0.431641 0.5
vt 0.787109 0.5
vt 0.787109 0.5
vt 0.787109 0.5
vt 0.787109 0.5
vt 0.787109 0.5
vt 0.787109 0.5
vt 0.787109 0.5
vt 0.787109 0.5
vt 0.787109 0.5
vt 0.787109 0.5
vt 0.787109 0.5
vt 0.787109 0.5
vt 0.431641 0.5
vt 0.431641 0.5
vt 0.431641 0.5
vt 0.431641 0.5
vt 0.525391 0.5
vt 0.525391 0.5
vt 0.525391 0.5
vt 0.525391 0.5
vn -1 0 0
vn -1 0 0
vn -1 0 0
vn -1 0 0
vn -1 0 0
vn -1 0 0
vn -1 0 0
vn -1 0 0
vn -1 0 0
vn -1 0 0
vn -1 0 0
vn -1 0 0
vn -1 0 0
vn -1 0 0
vn -1 0 0
vn -1 0 0
vn -1 0 0
vn -1 0 0
vn -1 0 0
vn -1 0 0
vn -1 0 0
vn -1 0 0
vn -1 0 0
vn -1 0 0
vn -1 0 0
vn -1 0 0
vn -1 0 0
vn -1 0 0
vn 1 0 0
vn 1 0 0
vn 1 0 0
vn 1 0 0
vn 1 0 0
vn 1 0 0
vn 1 0 0
vn 1 0 0
vn 1 0 0
vn 1 0 0
vn 1 0 0
vn 1 0 0
vn 1 0 0
vn 1 0 0
vn 1 0 0
vn 1 0 0
vn 1 0 0
vn 1 0 0
vn 1 0 0
vn 1 0 0
vn 1 0 0
vn 1 0 0
vn 1 0 0
vn 1 0 0
vn 1 0 0
vn 1 0 0
vn 1 0 0
vn 1 0 0
vn 1 0 0
vn 1 0 0
vn 1 0 0
vn 1 0 0
vn 1 0 0
vn 1 0 0
vn 1 0 0
vn 1 0 0
vn 0 0 1
vn 0 0 1
vn 0 0 1
vn 0 0 1
vn 0 0 1
vn 0 0 1
vn 0 0 1
vn 0 0 1
vn 0 0 1
vn 0 0 1
vn 0 0 1
vn 0 0 1
vn 0 0 1
vn 0 0 1
vn 0 0 1
vn 0 0 1
vn 0 0 1
vn 0 0 1
vn 0 0 1
vn 0 0 1
vn 0 0 1
vn 0 0 1
vn 0 0 1
vn 0 0 1
vn 0 0 1
vn 0 0 1
vn 0 0 1
vn 0 0 1
vn 0 0 1
vn 0 0 1
vn 0 0 1
vn 0 0 1
vn 0 0 1
vn 0 0 1
vn 0 0 1
vn 0 0 1
vn 0 0 1
vn 0 0 1
vn 0 0 1
vn 0 0 1
vn 0 0 1
vn 0 0 1
vn 0 0 1
vn 0 0 1
vn 0 0 1
vn 0 0 1
vn 0 0 1
vn 0 0 1
vn 0 0 -1
vn 0 0 -1
vn 0 0 -1
vn 0 0 -1
vn 0 0 -1
vn 0 0 -1
vn 0 0 -1
vn 0 0 -1
vn 0 0 -1
vn 0 0 -1
vn 0 0 -1
vn 0 0 -1
vn 0 0 -1
vn 0 0 -1
vn 0 0 -1
vn 0 0 -1
vn 0 -1 0
vn 0 -1 0
vn 0 -1 0
vn 0 -1 0
vn 0 -1 0
vn 0 -1 0
vn 0 -1 0
vn 0 -1 0
vn 0 -1 0
vn 0 -1 0
vn 0 -1 0
vn 0 -1 0
vn 0 -1 0
vn 0 -1 0
vn 0 -1 0
vn 0 -1 0
vn 0 -1 0
vn 0 -1 0
vn 0 -1 0
vn 0 -1 0
vn 0 -1 0
vn 0 -1 0
vn 0 -1 0
vn 0 -1 0
vn 0 -1 0
vn 0 -1 0
vn 0 -1 0
vn 0 -1 0
vn 0 -1 0
vn 0 -1 0
vn 0 -1 0
vn 0 -1 0
vn 0 -1 0
vn 0 -1 0
vn 0 -1 0
vn 0 -1 0
vn 0 1 0
vn 0 1 0
vn 0 1 0
vn 0 1 0
vn 0 1 0
vn 0 1 0
vn 0 1 0
vn 0 1 0
vn 0 1 0
vn 0 1 0
vn 0 1 0
vn 0 1 0
vn 0 1 0
vn 0 1 0
vn 0 1 0
vn 0 1 0
vn 0 1 0
vn 0 1 0
vn 0 1 0
vn 0 1 0
vn 0 1 0
vn 0 1 0
vn 0 1 0
vn 0 1 0
vn 0 1 0
vn 0 1 0
vn 0 1 0
vn 0 1 0
g default_0
f 3/3/3 2/2/2 1/1/1
f 3/3/3 1/1/1 4/4/4
f 7/7/7 6/6/6 5/5/5
f 7/7/7 5/5/5 8/8/8
f 11/11/11 10/10/10 9/9/9
f 11/11/11 9/9/9 12/12/12
f 15/15/15 14/14/14 13/13/13
f 15/15/15 13/13/13 16/16/16
f 19/19/19 18/18/18 17/17/17
f 19/19/19 17/17/17 20/20/20
f 17/17/17 18/18/18 21/21/21
f 21/21/21 18/18/18 22/22/22
f 23/23/23 21/21/21 22/22/22
f 23/23/23 22/22/22 24/24/24
f 27/27/27 26/26/26 25/25/25
f 27/27/27 25/25/25 28/28/28
f 31/31/31 30/30/30 29/29/29
f 31/31/31 32/32/32 30/30/30
f 35/35/35 34/34/34 33/33/33
f 35/35/35 36/36/36 34/34/34
f 39/39/39 38/38/38 37/37/37
f 39/39/39 40/40/40 38/38/38
f 43/43/43 42/42/42 41/41/41
f 43/43/43 44/44/44 42/42/42
f 42/42/42 45/45/45 41/41/41
f 45/45/45 46/46/46 41/41/41
f 47/47/47 46/46/46 45/45/45
f 47/47/47 48/48/48 46/46/46
f 51/51/51 50/50/50 49/49/49
f 51/51/51 52/52/52 50/50/50
f 55/55/55 54/54/54 53/53/53
f 55/55/55 56/56/56 54/54/54
f 59/59/59 58/58/58 57/57/57
f 59/59/59 60/60/60 58/58/58
f 63/63/63 62/62/62 61/61/61
f 63/63/63 64/64/64 62/62/62
f 67/67/67 66/66/66 65/65/65
f 67/67/67 65/65/65 68/68/68
f 67/67/67 68/68/68 69/69/69
f 67/67/67 69/69/69 70/70/70
f 69/69/69 68/68/68 71/71/71
f 69/69/69 71/71/71 72/72/72
f 65/65/65 66/66/66 73/73/73
f 67/67/67 70/70/70 74/74/74
f 73/73/73 66/66/66 75/75/75
f 74/74/74 73/73/73 75/75/75
f 67/67/67 74/74/74 76/76/76
f 74/74/74 75/75/75 76/76/76
f 79/79/79 78/78/78 77/77/77
f 79/79/79 77/77/77 80/80/80
f 83/83/83 82/82/82 81/81/81
f 81/81/81 82/82/82 84/84/84
f 85/85/85 81/81/81 84/84/84
f 85/85/85 84/84/84 86/86/86
f 87/87/87 85/85/85 86/86/86
f 87/87/87 88/88/88 85/85/85
f 91/91/91 90/90/90 89/89/89
f 91/91/91 89/89/89 92/92/92
f 95/95/95 94/94/94 93/93/93
f 95/95/95 93/93/93 96/96/96
f 93/93/93 94/94/94 97/97/97
f 97/97/97 94/94/94 98/98/98
f 99/99/99 97/97/97 98/98/98
f 99/99/99 98/98/98 100/100/100
f 103/103/103 102/102/102 101/101/101
f 103/103/103 101/101/101 104/104/104
f 103/103/103 104/104/104 105/105/105
f 103/103/103 105/105/105 106/106/106
f 105/105/105 107/107/107 106/106/106
f 105/105/105 108/108/108 107/107/107
f 111/111/111 110/110/110 109/109/109
f 111/111/111 109/109/109 112/112/112
f 115/115/115 114/114/114 113/113/113
f 115/115/115 116/116/116 114/114/114
f 119/119/119 118/118/118 117/117/117
f 119/119/119 120/120/120 118/118/118
f 123/123/123 122/122/122 121/121/121
f 123/123/123 124/124/124 122/122/122
f 127/127/127 126/126/126 125/125/125
f 127/127/127 128/128/128 126/126/126
f 131/131/131 130/130/130 129/129/129
f 131/131/131 129/129/129 132/132/132
f 135/135/135 134/134/134 133/133/133
f 135/135/135 133/133/133 136/136/136
f 133/133/133 134/134/134 137/137/137
f 135/135/135 136/136/136 138/138/138
f 137/137/137 134/134/134 139/139/139
f 138/138/138 137/137/137 139/139/139
f 135/135/135 138/138/138 140/140/140
f 138/138/138 139/139/139 140/140/140
f 143/143/143 142/142/142 141/141/141
f 143/143/143 141/141/141 144/144/144
f 147/147/147 146/146/146 145/145/145
f 147/147/147 145/145/145 148/148/148
f 145/145/145 146/146/146 149/149/149
f 149/149/149 146/146/146 150/150/150
f 151/151/151 149/149/149 150/150/150
f 151/151/151 150/150/150 152/152/152
f 153/153/153 151/151/151 152/152/152
f 153/153/153 154/154/154 151/151/151
f 153/153/153 155/155/155 154/154/154
f 153/153/153 156/156/156 155/155/155
f 159/159/159 158/158/158 157/157/157
f 159/159/159 157/157/157 160/160/160
f 163/163/163 162/162/162 161/161/161
f 163/163/163 161/161/161 164/164/164
f 167/167/167 166/166/166 165/165/165
f 167/167/167 168/168/168 166/166/166
f 171/171/171 170/170/170 169/169/169
f 171/171/171 172/172/172 170/170/170
f 175/175/175 174/174/174 173/173/173
f 175/175/175 176/176/176 174/174/174
f 174/174/174 177/177/177 173/173/173
f 177/177/177 178/178/178 173/173/173
f 179/179/179 178/178/178 177/177/177
f 179/179/179 180/180/180 178/178/178
f 181/181/181 180/180/180 179/179/179
f 181/181/181 179/179/179 182/182/182
f 181/181/181 182/182/182 183/183/183
f 181/181/181 183/183/183 184/184/184
f 187/187/187 186/186/186 185/185/185
f 187/187/187 188/188/188 186/186/186
f 191/191/191 190/190/190 189/189/189
f 191/191/191 192/192/192 190/190/190
