g lycan__1__body
v -0.35 1.275 0.05
v -0.35 1.35 0
v -0.35 1.3 0
v -0.35 1.45 0
v -0.35 1.475 0.05
v -0.35 1.45 -0.05
v -0.35 1.45 -0.075
v -0.35 1.35 -0.075
v -0.35 1.35 -0.05
v -0.35 1.3 -0.075
v -0.35 1.3 -0.05
v -0.35 1.45 -0.15
v -0.35 1.45 -0.175
v -0.35 1.275 -0.25
v -0.35 1.3 -0.175
v -0.35 1.35 -0.175
v -0.35 1.475 -0.25
v -0.35 1.3 0
v -0.35 1.35 0
v -0.35 1.3 -0.05
v -0.35 1.35 -0.05
v -0.35 1.3 -0.075
v -0.35 1.35 -0.075
v -0.35 1.3 -0.175
v -0.35 1.35 -0.15
v -0.35 1.35 -0.175
v -0.35 1.35 0
v -0.35 1.45 0
v -0.35 1.35 -0.05
v -0.35 1.45 -0.05
v -0.35 1.35 -0.075
v -0.35 1.45 -0.075
v -0.35 1.35 -0.15
v -0.35 1.45 -0.15
v -0.35 1.35 -0.15
v -0.35 1.45 -0.15
v -0.35 1.35 -0.175
v -0.35 1.45 -0.175
v -0.35 1.475 0.1
v -0.35 1.475 0.05
v -0.35 1.275 0.05
v -0.35 1.275 0.1
v -0.35 1.55 0.05
v -0.35 1.475 -0.25
v -0.35 1.55 -0.05
v -0.35 1.55 -0.15
v -0.35 1.55 -0.25
v -0.35 1.575 -0.05
v -0.35 1.575 -0.15
v -0.35 1.275 -0.25
v -0.35 1.45 -0.3
v -0.35 1.35 -0.3
v -0.35 1.275 -0.3
v -0.35 1.35 -0.475
v -0.35 1.45 -0.475
v -0.35 1.475 -0.3
v -0.625 1.475 0.05
v -0.725 1.475 0.05
v -0.725 1.55 0.05
v -0.625 1.5 0.05
v -0.575 1.5 0.05
v -0.35 1.55 0.05
v -0.35 1.475 0.05
v -0.575 1.475 0.05
v -0.725 1.275 0.05
v -0.8 1.475 0.05
v -0.8 1.275 0.05
v -0.725 1.275 -0.3
v -0.725 1.275 -0.25
v -0.35 1.275 -0.25
v -0.35 1.275 -0.3
v -0.8 1.275 -0.25
v -0.725 1.275 0.05
v -0.8 1.275 0.05
v -0.725 1.275 0.1
v -0.35 1.275 0.1
v -0.35 1.275 0.05
v -0.8 1.475 0.05
v -0.8 1.275 0.05
v -0.8 1.275 -0.25
v -0.8 1.475 -0.25
v -0.725 1.475 0.1
v -0.725 1.275 0.1
v -0.725 1.275 0.05
v -0.725 1.475 0.05
v -0.725 1.55 0.05
v -0.725 1.475 -0.25
v -0.725 1.55 -0.25
v -0.725 1.275 -0.25
v -0.725 1.275 -0.3
v -0.725 1.475 -0.3
v -0.675 1.475 -0.3
v -0.675 1.325 -0.3
v -0.675 1.325 -0.325
v -0.675 1.5 -0.325
v -0.675 1.5 -0.25
v -0.675 1.475 -0.25
v -0.675 1.575 -0.05
v -0.675 1.55 -0.05
v -0.675 1.55 -0.15
v -0.675 1.575 -0.15
v -0.625 1.475 0.1
v -0.625 1.3 0.125
v -0.625 1.3 0.1
v -0.625 1.5 0.125
v -0.625 1.475 0.05
v -0.625 1.5 0.05
v -0.55 1.475 -0.3
v -0.55 1.325 -0.3
v -0.55 1.325 -0.325
v -0.55 1.5 -0.325
v -0.55 1.5 -0.25
v -0.55 1.475 -0.25
v -0.5 1.475 0.1
v -0.5 1.3 0.125
v -0.5 1.3 0.1
v -0.5 1.5 0.125
v -0.5 1.475 0.075
v -0.5 1.5 0.075
v -0.45 1.45 -0.3
v -0.45 1.35 -0.3
v -0.45 1.35 -0.475
v -0.45 1.45 -0.475
v -0.6 1.325 -0.3
v -0.6 1.475 -0.3
v -0.6 1.325 -0.325
v -0.6 1.5 -0.325
v -0.6 1.5 -0.25
v -0.6 1.475 -0.25
v -0.575 1.3 0.125
v -0.575 1.475 0.1
v -0.575 1.3 0.1
v -0.575 1.5 0.125
v -0.575 1.475 0.05
v -0.575 1.5 0.05
v -0.475 1.325 -0.3
v -0.475 1.475 -0.3
v -0.475 1.325 -0.325
v -0.475 1.5 -0.325
v -0.475 1.5 -0.25
v -0.475 1.475 -0.25
v -0.45 1.3 0.125
v -0.45 1.475 0.1
v -0.45 1.3 0.1
v -0.45 1.5 0.125
v -0.45 1.475 0.075
v -0.45 1.5 0.075
v -0.575 1.3 0.125
v -0.625 1.3 0.125
v -0.625 1.5 0.125
v -0.575 1.5 0.125
v -0.45 1.3 0.125
v -0.5 1.3 0.125
v -0.5 1.5 0.125
v -0.45 1.5 0.125
v -0.625 1.3 0.1
v -0.725 1.275 0.1
v -0.725 1.475 0.1
v -0.625 1.475 0.1
v -0.575 1.3 0.1
v -0.5 1.3 0.1
v -0.575 1.475 0.1
v -0.5 1.475 0.1
v -0.45 1.3 0.1
v -0.35 1.275 0.1
v -0.45 1.475 0.1
v -0.35 1.475 0.1
v -0.35 1.55 -0.05
v -0.675 1.55 -0.05
v -0.675 1.575 -0.05
v -0.35 1.575 -0.05
v -0.5 1.475 0.075
v -0.45 1.475 0.075
v -0.5 1.5 0.075
v -0.45 1.5 0.075
v -0.675 1.55 -0.15
v -0.35 1.55 -0.15
v -0.675 1.575 -0.15
v -0.35 1.575 -0.15
v -0.8 1.275 -0.25
v -0.725 1.275 -0.25
v -0.8 1.475 -0.25
v -0.725 1.475 -0.25
v -0.675 1.475 -0.25
v -0.725 1.55 -0.25
v -0.675 1.5 -0.25
v -0.6 1.5 -0.25
v -0.55 1.5 -0.25
v -0.55 1.475 -0.25
v -0.6 1.475 -0.25
v -0.475 1.5 -0.25
v -0.35 1.55 -0.25
v -0.35 1.475 -0.25
v -0.475 1.475 -0.25
v -0.725 1.275 -0.3
v -0.675 1.325 -0.3
v -0.725 1.475 -0.3
v -0.675 1.475 -0.3
v -0.6 1.325 -0.3
v -0.55 1.325 -0.3
v -0.6 1.475 -0.3
v -0.55 1.475 -0.3
v -0.475 1.325 -0.3
v -0.35 1.275 -0.3
v -0.45 1.35 -0.3
v -0.475 1.475 -0.3
v -0.45 1.45 -0.3
v -0.35 1.35 -0.3
v -0.35 1.45 -0.3
v -0.35 1.475 -0.3
v -0.675 1.325 -0.325
v -0.6 1.325 -0.325
v -0.675 1.5 -0.325
v -0.6 1.5 -0.325
v -0.55 1.325 -0.325
v -0.475 1.325 -0.325
v -0.55 1.5 -0.325
v -0.475 1.5 -0.325
v -0.45 1.35 -0.475
v -0.35 1.35 -0.475
v -0.45 1.45 -0.475
v -0.35 1.45 -0.475
v -0.7 1.275 0.025
v -0.725 1.275 0.05
v -0.35 1.275 0.05
v -0.5 1.275 0.025
v -0.7 1.275 -0.2
v -0.5 1.275 -0.2
v -0.725 1.275 -0.25
v -0.35 1.275 -0.25
v -0.625 1.3 0.1
v -0.625 1.3 0.125
v -0.575 1.3 0.125
v -0.575 1.3 0.1
v -0.5 1.3 0.1
v -0.5 1.3 0.125
v -0.45 1.3 0.125
v -0.45 1.3 0.1
v -0.675 1.325 -0.325
v -0.675 1.325 -0.3
v -0.6 1.325 -0.3
v -0.6 1.325 -0.325
v -0.55 1.325 -0.325
v -0.55 1.325 -0.3
v -0.475 1.325 -0.3
v -0.475 1.325 -0.325
v -0.45 1.35 -0.475
v -0.45 1.35 -0.3
v -0.35 1.35 -0.3
v -0.35 1.35 -0.475
v -0.45 1.45 -0.3
v -0.45 1.45 -0.475
v -0.35 1.45 -0.3
v -0.35 1.45 -0.475
v -0.575 1.475 0.1
v -0.5 1.475 0.075
v -0.5 1.475 0.1
v -0.575 1.475 0.05
v -0.45 1.475 0.075
v -0.35 1.475 0.05
v -0.35 1.475 0.1
v -0.45 1.475 0.1
v -0.725 1.475 0.1
v -0.725 1.475 0.05
v -0.625 1.475 0.1
v -0.625 1.475 0.05
v -0.8 1.475 0.05
v -0.8 1.475 -0.25
v -0.725 1.475 -0.25
v -0.725 1.475 -0.3
v -0.675 1.475 -0.25
v -0.675 1.475 -0.3
v -0.6 1.475 -0.25
v -0.6 1.475 -0.3
v -0.55 1.475 -0.25
v -0.55 1.475 -0.3
v -0.475 1.475 -0.25
v -0.475 1.475 -0.3
v -0.35 1.475 -0.25
v -0.35 1.475 -0.3
v -0.5 1.5 0.125
v -0.5 1.5 0.075
v -0.45 1.5 0.125
v -0.45 1.5 0.075
v -0.625 1.5 0.125
v -0.625 1.5 0.05
v -0.575 1.5 0.125
v -0.575 1.5 0.05
v -0.675 1.5 -0.25
v -0.675 1.5 -0.325
v -0.6 1.5 -0.25
v -0.6 1.5 -0.325
v -0.55 1.5 -0.25
v -0.55 1.5 -0.325
v -0.475 1.5 -0.25
v -0.475 1.5 -0.325
v -0.725 1.55 0.05
v -0.675 1.55 -0.05
v -0.35 1.55 0.05
v -0.35 1.55 -0.05
v -0.675 1.55 -0.15
v -0.725 1.55 -0.25
v -0.35 1.55 -0.15
v -0.35 1.55 -0.25
v -0.675 1.575 -0.05
v -0.675 1.575 -0.15
v -0.35 1.575 -0.05
v -0.35 1.575 -0.15
v -0.5 1.275 0.025
v -0.5 1.05 0.025
v -0.7 1.05 0.025
v -0.7 1.275 0.025
v -0.7 0.9375 0.025
v -0.5 0.9375 0.025
v -0.7 1.275 -0.2
v -0.7 1.05 -0.2
v -0.5 1.05 -0.2
v -0.5 1.275 -0.2
v -0.5 0.9375 -0.2
v -0.7 0.9375 -0.2
v -0.7 1.275 -0.2
v -0.7 1.275 0.025
v -0.7 1.05 0.025
v -0.7 1.05 -0.2
v -0.7 0.9375 0.025
v -0.7 0.9375 -0.2
v -0.5 1.05 -0.2
v -0.5 1.05 0.025
v -0.5 1.275 0.025
v -0.5 1.275 -0.2
v -0.5 0.9375 -0.2
v -0.5 0.9375 0.025
v -0.7 0.9375 0.025
v -0.5 0.9375 0.025
v -0.5 0.9375 -0.2
v -0.7 0.9375 -0.2
vt 0.978516 0.5
vt 0.978516 0.5
vt 0.978516 0.5
vt 0.978516 0.5
vt 0.978516 0.5
vt 0.978516 0.5
vt 0.978516 0.5
vt 0.978516 0.5
vt 0.978516 0.5
vt 0.978516 0.5
vt 0.978516 0.5
vt 0.978516 0.5
vt 0.978516 0.5
vt 0.978516 0.5
vt 0.978516 0.5
vt 0.978516 0.5
vt 0.978516 0.5
vt 0.990234 0.5
vt 0.990234 0.5
vt 0.990234 0.5
vt 0.990234 0.5
vt 0.990234 0.5
vt 0.990234 0.5
vt 0.990234 0.5
vt 0.990234 0.5
vt 0.990234 0.5
vt 0.970703 0.5
vt 0.970703 0.5
vt 0.970703 0.5
vt 0.970703 0.5
vt 0.849609 0.5
vt 0.849609 0.5
vt 0.849609 0.5
vt 0.849609 0.5
vt 0.970703 0.5
vt 0.970703 0.5
vt 0.970703 0.5
vt 0.970703 0.5
vt 0.990234 0.5
vt 0.990234 0.5
vt 0.990234 0.5
vt 0.990234 0.5
vt 0.990234 0.5
vt 0.990234 0.5
vt 0.990234 0.5
vt 0.990234 0.5
vt 0.990234 0.5
vt 0.990234 0.5
vt 0.990234 0.5
vt 0.990234 0.5
vt 0.990234 0.5
vt 0.990234 0.5
vt 0.990234 0.5
vt 0.990234 0.5
vt 0.990234 0.5
vt 0.990234 0.5
vt 0.990234 0.5
vt 0.990234 0.5
vt 0.990234 0.5
vt 0.990234 0.5
vt 0.990234 0.5
vt 0.990234 0.5
vt 0.990234 0.5
vt 0.990234 0.5
vt 0.990234 0.5
vt 0.990234 0.5
vt 0.990234 0.5
vt 0.990234 0.5
vt 0.990234 0.5
vt 0.990234 0.5
vt 0.990234 0.5
vt 0.990234 0.5
vt 0.990234 0.5
vt 0.990234 0.5
vt 0.990234 0.5
vt 0.990234 0.5
vt 0.990234 0.5
vt 0.990234 0.5
vt 0.990234 0.5
vt 0.990234 0.5
vt 0.990234 0.5
vt 0.990234 0.5
vt 0.990234 0.5
vt 0.990234 0.5
vt 0.990234 0.5
vt 0.990234 0.5
vt 0.990234 0.5
vt 0.990234 0.5
vt 0.990234 0.5
vt 0.990234 0.5
vt 0.990234 0.5
vt 0.990234 0.5
vt 0.990234 0.5
vt 0.990234 0.5
vt 0.990234 0.5
vt 0.990234 0.5
vt 0.990234 0.5
vt 0.990234 0.5
vt 0.990234 0.5
vt 0.990234 0.5
vt 0.990234 0.5
vt 0.990234 0.5
vt 0.990234 0.5
vt 0.990234 0.5
vt 0.990234 0.5
vt 0.990234 0.5
vt 0.990234 0.5
vt 0.990234 0.5
vt 0.990234 0.5
vt 0.990234 0.5
vt 0.990234 0.5
vt 0.990234 0.5
vt 0.990234 0.5
vt 0.990234 0.5
vt 0.990234 0.5
vt 0.990234 0.5
vt 0.990234 0.5
vt 0.990234 0.5
vt 0.990234 0.5
vt 0.990234 0.5
vt 0.990234 0.5
vt 0.990234 0.5
vt 0.990234 0.5
vt 0.990234 0.5
vt 0.990234 0.5
vt 0.990234 0.5
vt 0.990234 0.5
vt 0.990234 0.5
vt 0.990234 0.5
vt 0.990234 0.5
vt 0.990234 0.5
vt 0.990234 0.5
vt 0.990234 0.5
vt 0.990234 0.5
vt 0.990234 0.5
vt 0.990234 0.5
vt 0.990234 0.5
vt 0.990234 0.5
vt 0.990234 0.5
vt 0.990234 0.5
vt 0.990234 0.5
vt 0.990234 0.5
vt 0.990234 0.5
vt 0.990234 0.5
vt 0.990234 0.5
vt 0.990234 0.5
vt 0.990234 0.5
vt 0.990234 0.5
vt 0.990234 0.5
vt 0.990234 0.5
vt 0.990234 0.5
vt 0.990234 0.5
vt 0.990234 0.5
vt 0.990234 0.5
vt 0.990234 0.5
vt 0.990234 0.5
vt 0.990234 0.5
vt 0.990234 0.5
vt 0.990234 0.5
vt 0.990234 0.5
vt 0.990234 0.5
vt 0.990234 0.5
vt 0.990234 0.5
vt 0.990234 0.5
vt 0.990234 0.5
vt 0.990234 0.5
vt 0.990234 0.5
vt 0.990234 0.5
vt 0.990234 0.5
vt 0.990234 0.5
vt 0.990234 0.5
vt 0.990234 0.5
vt 0.990234 0.5
vt 0.990234 0.5
vt 0.990234 0.5
vt 0.990234 0.5
vt 0.990234 0.5
vt 0.990234 0.5
vt 0.990234 0.5
vt 0.990234 0.5
vt 0.990234 0.5
vt 0.990234 0.5
vt 0.990234 0.5
vt 0.990234 0.5
vt 0.990234 0.5
vt 0.990234 0.5
vt 0.990234 0.5
vt 0.990234 0.5
vt 0.990234 0.5
vt 0.990234 0.5
vt 0.990234 0.5
vt 0.990234 0.5
vt 0.990234 0.5
vt 0.990234 0.5
vt 0.990234 0.5
vt 0.990234 0.5
vt 0.990234 0.5
vt 0.990234 0.5
vt 0.990234 0.5
vt 0.990234 0.5
vt 0.990234 0.5
vt 0.990234 0.5
vt 0.990234 0.5
vt 0.990234 0.5
vt 0.990234 0.5
vt 0.990234 0.5
vt 0.990234 0.5
vt 0.990234 0.5
vt 0.990234 0.5
vt 0.990234 0.5
vt 0.990234 0.5
vt 0.990234 0.5
vt 0.990234 0.5
vt 0.990234 0.5
vt 0.990234 0.5
vt 0.990234 0.5
vt 0.990234 0.5
vt 0.990234 0.5
vt 0.990234 0.5
vt 0.990234 0.5
vt 0.990234 0.5
vt 0.990234 0.5
vt 0.978516 0.5
vt 0.978516 0.5
vt 0.978516 0.5
vt 0.978516 0.5
vt 0.978516 0.5
vt 0.978516 0.5
vt 0.978516 0.5
vt 0.978516 0.5
vt 0.990234 0.5
vt 0.990234 0.5
vt 0.990234 0.5
vt 0.990234 0.5
vt 0.990234 0.5
vt 0.990234 0.5
vt 0.990234 0.5
vt 0.990234 0.5
vt 0.990234 0.5
vt 0.990234 0.5
vt 0.990234 0.5
vt 0.990234 0.5
vt 0.990234 0.5
vt 0.990234 0.5
vt 0.990234 0.5
vt 0.990234 0.5
vt 0.990234 0.5
vt 0.990234 0.5
vt 0.990234 0.5
vt 0.990234 0.5
vt 0.990234 0.5
vt 0.990234 0.5
vt 0.990234 0.5
vt 0.990234 0.5
vt 0.990234 0.5
vt 0.990234 0.5
vt 0.990234 0.5
vt 0.990234 0.5
vt 0.990234 0.5
vt 0.990234 0.5
vt 0.990234 0.5
vt 0.990234 0.5
vt 0.990234 0.5
vt 0.990234 0.5
vt 0.990234 0.5
vt 0.990234 0.5
vt 0.990234 0.5
vt 0.990234 0.5
vt 0.990234 0.5
vt 0.990234 0.5
vt 0.990234 0.5
vt 0.990234 0.5
vt 0.990234 0.5
vt 0.990234 0.5
vt 0.990234 0.5
vt 0.990234 0.5
vt 0.990234 0.5
vt 0.990234 0.5
vt 0.990234 0.5
vt 0.990234 0.5
vt 0.990234 0.5
vt 0.990234 0.5
vt 0.990234 0.5
vt 0.990234 0.5
vt 0.990234 0.5
vt 0.990234 0.5
vt 0.990234 0.5
vt 0.990234 0.5
vt 0.990234 0.5
vt 0.990234 0.5
vt 0.990234 0.5
vt 0.990234 0.5
vt 0.990234 0.5
vt 0.990234 0.5
vt 0.990234 0.5
vt 0.990234 0.5
vt 0.990234 0.5
vt 0.990234 0.5
vt 0.990234 0.5
vt 0.990234 0.5
vt 0.990234 0.5
vt 0.990234 0.5
vt 0.990234 0.5
vt 0.990234 0.5
vt 0.990234 0.5
vt 0.990234 0.5
vt 0.990234 0.5
vt 0.990234 0.5
vt 0.978516 0.5
vt 0.978516 0.5
vt 0.978516 0.5
vt 0.978516 0.5
vt 0.978516 0.5
vt 0.978516 0.5
vt 0.978516 0.5
vt 0.978516 0.5
vt 0.978516 0.5
vt 0.978516 0.5
vt 0.978516 0.5
vt 0.978516 0.5
vt 0.978516 0.5
vt 0.978516 0.5
vt 0.978516 0.5
vt 0.978516 0.5
vt 0.978516 0.5
vt 0.978516 0.5
vt 0.978516 0.5
vt 0.978516 0.5
vt 0.978516 0.5
vt 0.978516 0.5
vt 0.978516 0.5
vt 0.978516 0.5
vt 0.978516 0.5
vt 0.978516 0.5
vt 0.978516 0.5
vt 0.978516 0.5
vn 1 0 0
vn 1 0 0
vn 1 0 0
vn 1 0 0
vn 1 0 0
vn 1 0 0
vn 1 0 0
vn 1 0 0
vn 1 0 0
vn 1 0 0
vn 1 0 0
vn 1 0 0
vn 1 0 0
vn 1 0 0
vn 1 0 0
vn 1 0 0
vn 1 0 0
vn 1 0 0
vn 1 0 0
vn 1 0 0
vn 1 0 0
vn 1 0 0
vn 1 0 0
vn 1 0 0
vn 1 0 0
vn 1 0 0
vn 1 0 0
vn 1 0 0
vn 1 0 0
vn 1 0 0
vn 1 0 0
vn 1 0 0
vn 1 0 0
vn 1 0 0
vn 1 0 0
vn 1 0 0
vn 1 0 0
vn 1 0 0
vn 1 0 0
vn 1 0 0
vn 1 0 0
vn 1 0 0
vn 1 0 0
vn 1 0 0
vn 1 0 0
vn 1 0 0
vn 1 0 0
vn 1 0 0
vn 1 0 0
vn 1 0 0
vn 1 0 0
vn 1 0 0
vn 1 0 0
vn 1 0 0
vn 1 0 0
vn 1 0 0
vn 0 0 1
vn 0 0 1
vn 0 0 1
vn 0 0 1
vn 0 0 1
vn 0 0 1
vn 0 0 1
vn 0 0 1
vn 0 0 1
vn 0 0 1
vn 0 0 1
vn 0 -1 0
vn 0 -1 0
vn 0 -1 0
vn 0 -1 0
vn 0 -1 0
vn 0 -1 0
vn 0 -1 0
vn 0 -1 0
vn 0 -1 0
vn 0 -1 0
vn -1 0 0
vn -1 0 0
vn -1 0 0
vn -1 0 0
vn -1 0 0
vn -1 0 0
vn -1 0 0
vn -1 0 0
vn -1 0 0
vn -1 0 0
vn -1 0 0
vn -1 0 0
vn -1 0 0
vn -1 0 0
vn -1 0 0
vn -1 0 0
vn -1 0 0
vn -1 0 0
vn -1 0 0
vn -1 0 0
vn -1 0 0
vn -1 0 0
vn -1 0 0
vn -1 0 0
vn -1 0 0
vn -1 0 0
vn -1 0 0
vn -1 0 0
vn -1 0 0
vn -1 0 0
vn -1 0 0
vn -1 0 0
vn -1 0 0
vn -1 0 0
vn -1 0 0
vn -1 0 0
vn -1 0 0
vn -1 0 0
vn -1 0 0
vn -1 0 0
vn -1 0 0
vn -1 0 0
vn -1 0 0
vn -1 0 0
vn -1 0 0
vn -1 0 0
vn 1 0 0
vn 1 0 0
vn 1 0 0
vn 1 0 0
vn 1 0 0
vn 1 0 0
vn 1 0 0
vn 1 0 0
vn 1 0 0
vn 1 0 0
vn 1 0 0
vn 1 0 0
vn 1 0 0
vn 1 0 0
vn 1 0 0
vn 1 0 0
vn 1 0 0
vn 1 0 0
vn 1 0 0
vn 1 0 0
vn 1 0 0
vn 1 0 0
vn 1 0 0
vn 1 0 0
vn 0 0 1
vn 0 0 1
vn 0 0 1
vn 0 0 1
vn 0 0 1
vn 0 0 1
vn 0 0 1
vn 0 0 1
vn 0 0 1
vn 0 0 1
vn 0 0 1
vn 0 0 1
vn 0 0 1
vn 0 0 1
vn 0 0 1
vn 0 0 1
vn 0 0 1
vn 0 0 1
vn 0 0 1
vn 0 0 1
vn 0 0 1
vn 0 0 1
vn 0 0 1
vn 0 0 1
vn 0 0 -1
vn 0 0 -1
vn 0 0 -1
vn 0 0 -1
vn 0 0 -1
vn 0 0 -1
vn 0 0 -1
vn 0 0 -1
vn 0 0 -1
vn 0 0 -1
vn 0 0 -1
vn 0 0 -1
vn 0 0 -1
vn 0 0 -1
vn 0 0 -1
vn 0 0 -1
vn 0 0 -1
vn 0 0 -1
vn 0 0 -1
vn 0 0 -1
vn 0 0 -1
vn 0 0 -1
vn 0 0 -1
vn 0 0 -1
vn 0 0 -1
vn 0 0 -1
vn 0 0 -1
vn 0 0 -1
vn 0 0 -1
vn 0 0 -1
vn 0 0 -1
vn 0 0 -1
vn 0 0 -1
vn 0 0 -1
vn 0 0 -1
vn 0 0 -1
vn 0 0 -1
vn 0 0 -1
vn 0 0 -1
vn 0 0 -1
vn 0 0 -1
vn 0 0 -1
vn 0 0 -1
vn 0 0 -1
vn 0 0 -1
vn 0 0 -1
vn 0 0 -1
vn 0 0 -1
vn 0 0 -1
vn 0 0 -1
vn 0 0 -1
vn 0 -1 0
vn 0 -1 0
vn 0 -1 0
vn 0 -1 0
vn 0 -1 0
vn 0 -1 0
vn 0 -1 0
vn 0 -1 0
vn 0 -1 0
vn 0 -1 0
vn 0 -1 0
vn 0 -1 0
vn 0 -1 0
vn 0 -1 0
vn 0 -1 0
vn 0 -1 0
vn 0 -1 0
vn 0 -1 0
vn 0 -1 0
vn 0 -1 0
vn 0 -1 0
vn 0 -1 0
vn 0 -1 0
vn 0 -1 0
vn 0 -1 0
vn 0 -1 0
vn 0 -1 0
vn 0 -1 0
vn 0 1 0
vn 0 1 0
vn 0 1 0
vn 0 1 0
vn 0 1 0
vn 0 1 0
vn 0 1 0
vn 0 1 0
vn 0 1 0
vn 0 1 0
vn 0 1 0
vn 0 1 0
vn 0 1 0
vn 0 1 0
vn 0 1 0
vn 0 1 0
vn 0 1 0
vn 0 1 0
vn 0 1 0
vn 0 1 0
vn 0 1 0
vn 0 1 0
vn 0 1 0
vn 0 1 0
vn 0 1 0
vn 0 1 0
vn 0 1 0
vn 0 1 0
vn 0 1 0
vn 0 1 0
vn 0 1 0
vn 0 1 0
vn 0 1 0
vn 0 1 0
vn 0 1 0
vn 0 1 0
vn 0 1 0
vn 0 1 0
vn 0 1 0
vn 0 1 0
vn 0 1 0
vn 0 1 0
vn 0 1 0
vn 0 1 0
vn 0 1 0
vn 0 1 0
vn 0 1 0
vn 0 1 0
vn 0 1 0
vn 0 1 0
vn 0 1 0
vn 0 1 0
vn 0 1 0
vn 0 1 0
vn 0 1 0
vn 0 1 0
vn 0 1 0
vn 0 1 0
vn 0 0 1
vn 0 0 1
vn 0 0 1
vn 0 0 1
vn 0 0 1
vn 0 0 1
vn 0 0 -1
vn 0 0 -1
vn 0 0 -1
vn 0 0 -1
vn 0 0 -1
vn 0 0 -1
vn -1 0 0
vn -1 0 0
vn -1 0 0
vn -1 0 0
vn -1 0 0
vn -1 0 0
vn 1 0 0
vn 1 0 0
vn 1 0 0
vn 1 0 0
vn 1 0 0
vn 1 0 0
vn 0 -1 0
vn 0 -1 0
vn 0 -1 0
vn 0 -1 0
g lycan__1__body_0
f 3/3/3 2/2/2 1/1/1
f 2/2/2 4/4/4 1/1/1
f 4/4/4 5/5/5 1/1/1
f 6/6/6 5/5/5 4/4/4
f 7/7/7 5/5/5 6/6/6
f 8/8/8 7/7/7 6/6/6
f 8/8/8 6/6/6 9/9/9
f 10/10/10 8/8/8 9/9/9
f 10/10/10 9/9/9 11/11/11
f 12/12/12 5/5/5 7/7/7
f 13/13/13 5/5/5 12/12/12
f 14/14/14 3/3/3 1/1/1
f 14/14/14 11/11/11 3/3/3
f 14/14/14 10/10/10 11/11/11
f 14/14/14 15/15/15 10/10/10
f 14/14/14 16/16/16 15/15/15
f 14/14/14 13/13/13 16/16/16
f 13/13/13 17/17/17 5/5/5
f 14/14/14 17/17/17 13/13/13
f 20/20/20 19/19/19 18/18/18
f 20/20/20 21/21/21 19/19/19
f 24/24/24 23/23/23 22/22/22
f 24/24/24 25/25/25 23/23/23
f 24/24/24 26/26/26 25/25/25
f 29/29/29 28/28/28 27/27/27
f 29/29/29 30/30/30 28/28/28
f 33/33/33 32/32/32 31/31/31
f 33/33/33 34/34/34 32/32/32
f 37/37/37 36/36/36 35/35/35
f 37/37/37 38/38/38 36/36/36
f 41/41/41 40/40/40 39/39/39
f 41/41/41 39/39/39 42/42/42
f 44/44/44 43/43/43 40/40/40
f 44/44/44 45/45/45 43/43/43
f 44/44/44 46/46/46 45/45/45
f 44/44/44 47/47/47 46/46/46
f 46/46/46 48/48/48 45/45/45
f 46/46/46 49/49/49 48/48/48
f 51/51/51 44/44/44 50/50/50
f 52/52/52 51/51/51 50/50/50
f 53/53/53 52/52/52 50/50/50
f 54/54/54 51/51/51 52/52/52
f 54/54/54 55/55/55 51/51/51
f 51/51/51 56/56/56 44/44/44
f 59/59/59 58/58/58 57/57/57
f 59/59/59 57/57/57 60/60/60
f 59/59/59 60/60/60 61/61/61
f 59/59/59 61/61/61 62/62/62
f 61/61/61 63/63/63 62/62/62
f 61/61/61 64/64/64 63/63/63
f 66/66/66 65/65/65 58/58/58
f 66/66/66 67/67/67 65/65/65
f 70/70/70 69/69/69 68/68/68
f 70/70/70 68/68/68 71/71/71
f 73/73/73 72/72/72 69/69/69
f 73/73/73 74/74/74 72/72/72
f 76/76/76 75/75/75 73/73/73
f 76/76/76 73/73/73 77/77/77
f 80/80/80 79/79/79 78/78/78
f 80/80/80 78/78/78 81/81/81
f 84/84/84 83/83/83 82/82/82
f 84/84/84 82/82/82 85/85/85
f 87/87/87 85/85/85 86/86/86
f 87/87/87 86/86/86 88/88/88
f 90/90/90 89/89/89 87/87/87
f 90/90/90 87/87/87 91/91/91
f 94/94/94 93/93/93 92/92/92
f 94/94/94 92/92/92 95/95/95
f 92/92/92 96/96/96 95/95/95
f 92/92/92 97/97/97 96/96/96
f 100/100/100 99/99/99 98/98/98
f 100/100/100 98/98/98 101/101/101
f 104/104/104 103/103/103 102/102/102
f 102/102/102 103/103/103 105/105/105
f 106/106/106 102/102/102 105/105/105
f 106/106/106 105/105/105 107/107/107
f 110/110/110 109/109/109 108/108/108
f 110/110/110 108/108/108 111/111/111
f 108/108/108 112/112/112 111/111/111
f 108/108/108 113/113/113 112/112/112
f 116/116/116 115/115/115 114/114/114
f 114/114/114 115/115/115 117/117/117
f 118/118/118 114/114/114 117/117/117
f 118/118/118 117/117/117 119/119/119
f 122/122/122 121/121/121 120/120/120
f 122/122/122 120/120/120 123/123/123
f 126/126/126 125/125/125 124/124/124
f 126/126/126 127/127/127 125/125/125
f 125/125/125 127/127/127 128/128/128
f 125/125/125 128/128/128 129/129/129
f 132/132/132 131/131/131 130/130/130
f 131/131/131 133/133/133 130/130/130
f 134/134/134 133/133/133 131/131/131
f 134/134/134 135/135/135 133/133/133
f 138/138/138 137/137/137 136/136/136
f 138/138/138 139/139/139 137/137/137
f 137/137/137 139/139/139 140/140/140
f 137/137/137 140/140/140 141/141/141
f 144/144/144 143/143/143 142/142/142
f 143/143/143 145/145/145 142/142/142
f 146/146/146 145/145/145 143/143/143
f 146/146/146 147/147/147 145/145/145
f 150/150/150 149/149/149 148/148/148
f 150/150/150 148/148/148 151/151/151
f 154/154/154 153/153/153 152/152/152
f 154/154/154 152/152/152 155/155/155
f 158/158/158 157/157/157 156/156/156
f 158/158/158 156/156/156 159/159/159
f 156/156/156 157/157/157 160/160/160
f 160/160/160 157/157/157 161/161/161
f 162/162/162 160/160/160 161/161/161
f 162/162/162 161/161/161 163/163/163
f 161/161/161 157/157/157 164/164/164
f 164/164/164 157/157/157 165/165/165
f 166/166/166 164/164/164 165/165/165
f 166/166/166 165/165/165 167/167/167
f 170/170/170 169/169/169 168/168/168
f 170/170/170 168/168/168 171/171/171
f 174/174/174 173/173/173 172/172/172
f 174/174/174 175/175/175 173/173/173
f 178/178/178 177/177/177 176/176/176
f 178/178/178 179/179/179 177/177/177
f 182/182/182 181/181/181 180/180/180
f 182/182/182 183/183/183 181/181/181
f 185/185/185 184/184/184 183/183/183
f 185/185/185 186/186/186 184/184/184
f 185/185/185 187/187/187 186/186/186
f 185/185/185 188/188/188 187/187/187
f 187/187/187 188/188/188 189/189/189
f 187/187/187 189/189/189 190/190/190
f 185/185/185 191/191/191 188/188/188
f 185/185/185 192/192/192 191/191/191
f 191/191/191 192/192/192 193/193/193
f 191/191/191 193/193/193 194/194/194
f 197/197/197 196/196/196 195/195/195
f 197/197/197 198/198/198 196/196/196
f 196/196/196 199/199/199 195/195/195
f 199/199/199 200/200/200 195/195/195
f 201/201/201 200/200/200 199/199/199
f 201/201/201 202/202/202 200/200/200
f 200/200/200 203/203/203 195/195/195
f 203/203/203 204/204/204 195/195/195
f 205/205/205 204/204/204 203/203/203
f 206/206/206 205/205/205 203/203/203
f 206/206/206 207/207/207 205/205/205
f 205/205/205 208/208/208 204/204/204
f 206/206/206 209/209/209 207/207/207
f 206/206/206 210/210/210 209/209/209
f 213/213/213 212/212/212 211/211/211
f 213/213/213 214/214/214 212/212/212
f 217/217/217 216/216/216 215/215/215
f 217/217/217 218/218/218 216/216/216
f 221/221/221 220/220/220 219/219/219
f 221/221/221 222/222/222 220/220/220
f 225/225/225 224/224/224 223/223/223
f 225/225/225 223/223/223 226/226/226
f 223/223/223 224/224/224 227/227/227
f 225/225/225 226/226/226 228/228/228
f 227/227/227 224/224/224 229/229/229
f 228/228/228 227/227/227 229/229/229
f 225/225/225 228/228/228 230/230/230
f 228/228/228 229/229/229 230/230/230
f 233/233/233 232/232/232 231/231/231
f 233/233/233 231/231/231 234/234/234
f 237/237/237 236/236/236 235/235/235
f 237/237/237 235/235/235 238/238/238
f 241/241/241 240/240/240 239/239/239
f 241/241/241 239/239/239 242/242/242
f 245/245/245 244/244/244 243/243/243
f 245/245/245 243/243/243 246/246/246
f 249/249/249 248/248/248 247/247/247
f 249/249/249 247/247/247 250/250/250
f 253/253/253 252/252/252 251/251/251
f 253/253/253 254/254/254 252/252/252
f 257/257/257 256/256/256 255/255/255
f 256/256/256 258/258/258 255/255/255
f 259/259/259 258/258/258 256/256/256
f 259/259/259 260/260/260 258/258/258
f 261/261/261 260/260/260 259/259/259
f 261/261/261 259/259/259 262/262/262
f 265/265/265 264/264/264 263/263/263
f 265/265/265 266/266/266 264/264/264
f 264/264/264 268/268/268 267/267/267
f 264/264/264 269/269/269 268/268/268
f 271/271/271 270/270/270 269/269/269
f 271/271/271 272/272/272 270/270/270
f 275/275/275 274/274/274 273/273/273
f 275/275/275 276/276/276 274/274/274
f 279/279/279 278/278/278 277/277/277
f 279/279/279 280/280/280 278/278/278
f 283/283/283 282/282/282 281/281/281
f 283/283/283 284/284/284 282/282/282
f 287/287/287 286/286/286 285/285/285
f 287/287/287 288/288/288 286/286/286
f 291/291/291 290/290/290 289/289/289
f 291/291/291 292/292/292 290/290/290
f 295/295/295 294/294/294 293/293/293
f 295/295/295 296/296/296 294/294/294
f 299/299/299 298/298/298 297/297/297
f 299/299/299 300/300/300 298/298/298
f 298/298/298 301/301/301 297/297/297
f 301/301/301 302/302/302 297/297/297
f 303/303/303 302/302/302 301/301/301
f 303/303/303 304/304/304 302/302/302
f 307/307/307 306/306/306 305/305/305
f 307/307/307 308/308/308 306/306/306
g lycan__1__body_1
f 311/311/311 310/310/310 309/309/309
f 312/312/312 311/311/311 309/309/309
f 311/311/311 313/313/313 310/310/310
f 313/313/313 314/314/314 310/310/310
f 317/317/317 316/316/316 315/315/315
f 318/318/318 317/317/317 315/315/315
f 317/317/317 319/319/319 316/316/316
f 319/319/319 320/320/320 316/316/316
f 323/323/323 322/322/322 321/321/321
f 324/324/324 323/323/323 321/321/321
f 325/325/325 323/323/323 324/324/324
f 326/326/326 325/325/325 324/324/324
f 329/329/329 328/328/328 327/327/327
f 330/330/330 329/329/329 327/327/327
f 327/327/327 328/328/328 331/331/331
f 328/328/328 332/332/332 331/331/331
g lycan__1__body_2
f 335/335/335 334/334/334 333/333/333
f 336/336/336 335/335/335 333/333/333
