g lycan__1__body_003
v -0.8 0.25 0
v -0.8 0.55 0
v -0.8 0.55 0.025
v -0.8 0.25 0.025
v -0.8 0.55 -0.1
v -0.8 0.55 -0.075
v -0.8 0.25 -0.1
v -0.8 0.25 -0.075
v -0.7 0.25 -0.075
v -0.8 0.25 -0.075
v -0.75 0.3 -0.075
v -0.7 0.3 -0.075
v -0.8 0.55 -0.075
v -0.75 0.5 -0.075
v -0.725 0.5 -0.075
v -0.725 0.55 -0.075
v -0.8 0.55 -0.175
v -0.8 0.25 -0.175
v -0.8 0.25 -0.2
v -0.8 0.55 -0.2
v -0.75 0.3 0.025
v -0.75 0.5 0.025
v -0.75 0.3 0
v -0.75 0.5 0
v -0.75 0.3 -0.075
v -0.75 0.5 -0.075
v -0.75 0.3 -0.1
v -0.75 0.5 -0.1
v -0.75 0.3 -0.175
v -0.75 0.5 -0.175
v -0.75 0.3 -0.2
v -0.75 0.5 -0.2
v -0.7 0.25 0.025
v -0.7 0.3 0.025
v -0.7 0.25 0
v -0.7 0.3 0
v -0.7 0.25 -0.075
v -0.7 0.3 -0.075
v -0.7 0.25 -0.1
v -0.7 0.3 -0.1
v -0.7 0.25 -0.175
v -0.7 0.3 -0.175
v -0.7 0.25 -0.2
v -0.7 0.3 -0.2
v -0.75 0.3 0.025
v -0.8 0.25 0.025
v -0.8 0.55 0.025
v -0.75 0.5 0.025
v -0.725 0.5 0.025
v -0.725 0.55 0.025
v -0.7 0.25 0.025
v -0.7 0.3 0.025
v -0.75 0.3 -0.175
v -0.8 0.25 -0.175
v -0.8 0.55 -0.175
v -0.75 0.5 -0.175
v -0.725 0.5 -0.175
v -0.725 0.55 -0.175
v -0.7 0.25 -0.175
v -0.7 0.3 -0.175
v -0.8 0.25 0
v -0.75 0.3 0
v -0.8 0.55 0
v -0.75 0.5 0
v -0.725 0.5 0
v -0.725 0.55 0
v -0.7 0.25 0
v -0.7 0.3 0
v -0.8 0.25 -0.1
v -0.75 0.3 -0.1
v -0.8 0.55 -0.1
v -0.75 0.5 -0.1
v -0.725 0.5 -0.1
v -0.725 0.55 -0.1
v -0.7 0.25 -0.1
v -0.7 0.3 -0.1
v -0.8 0.25 -0.2
v -0.75 0.3 -0.2
v -0.8 0.55 -0.2
v -0.75 0.5 -0.2
v -0.725 0.5 -0.2
v -0.725 0.55 -0.2
v -0.7 0.25 -0.2
v -0.7 0.3 -0.2
v -0.8 0.25 0
v -0.8 0.25 0.025
v -0.7 0.25 0.025
v -0.7 0.25 0
v -0.8 0.25 -0.1
v -0.8 0.25 -0.075
v -0.7 0.25 -0.075
v -0.7 0.25 -0.1
v -0.8 0.25 -0.2
v -0.8 0.25 -0.175
v -0.7 0.25 -0.175
v -0.7 0.25 -0.2
v -0.75 0.5 0
v -0.75 0.5 0.025
v -0.725 0.5 0.025
v -0.725 0.5 0
v -0.75 0.5 -0.1
v -0.75 0.5 -0.075
v -0.725 0.5 -0.075
v -0.725 0.5 -0.1
v -0.75 0.5 -0.2
v -0.75 0.5 -0.175
v -0.725 0.5 -0.175
v -0.725 0.5 -0.2
v -0.75 0.3 0.025
v -0.75 0.3 0
v -0.7 0.3 0.025
v -0.7 0.3 0
v -0.75 0.3 -0.075
v -0.75 0.3 -0.1
v -0.7 0.3 -0.075
v -0.7 0.3 -0.1
v -0.75 0.3 -0.175
v -0.75 0.3 -0.2
v -0.7 0.3 -0.175
v -0.7 0.3 -0.2
v -0.8 0.55 0.025
v -0.8 0.55 0
v -0.725 0.55 0.025
v -0.725 0.55 0
v -0.8 0.55 -0.075
v -0.8 0.55 -0.1
v -0.725 0.55 -0.075
v -0.725 0.55 -0.1
v -0.8 0.55 -0.175
v -0.8 0.55 -0.2
v -0.725 0.55 -0.175
v -0.725 0.55 -0.2
v -0.725 0.5 0
v -0.725 0.5 0.025
v -0.725 0.475 -0.225
v -0.725 0.5 -0.075
v -0.725 0.55 0
v -0.725 0.55 -0.075
v -0.725 0.475 0.05
v -0.725 0.5 -0.1
v -0.725 0.5 -0.175
v -0.725 0.5 -0.2
v -0.725 0.55 0.025
v -0.725 0.55 -0.1
v -0.725 0.55 -0.175
v -0.725 0.55 -0.2
v -0.725 0.575 0.05
v -0.725 0.575 -0.225
v -0.725 0.675 0.05
v -0.725 0.6 0.05
v -0.725 0.6 -0.225
v -0.725 0.675 -0.225
v -0.7 0.575 -0.2
v -0.5 0.575 -0.2
v -0.7 0.6 -0.2
v -0.5 0.6 -0.2
v -0.7 0.825 0.025
v -0.5 0.825 0.025
v -0.45 0.825 0.075
v -0.75 0.825 0.075
v -0.7 0.825 -0.2
v -0.5 0.825 -0.2
v -0.75 0.825 -0.25
v -0.45 0.825 -0.25
v -0.75 0.825 0.075
v -0.75 0.775 0.075
v -0.75 0.775 -0.25
v -0.75 0.825 -0.25
v -0.725 0.775 0.05
v -0.725 0.7 0.05
v -0.725 0.7 -0.225
v -0.725 0.775 -0.225
v -0.7 0.6 0.025
v -0.7 0.575 0.025
v -0.7 0.575 -0.2
v -0.7 0.6 -0.2
v -0.7 0.7 0.025
v -0.7 0.675 0.025
v -0.7 0.675 -0.2
v -0.7 0.7 -0.2
v -0.5 0.575 0.025
v -0.5 0.6 0.025
v -0.5 0.575 -0.2
v -0.5 0.6 -0.2
v -0.5 0.675 0.025
v -0.5 0.7 0.025
v -0.5 0.675 -0.2
v -0.5 0.7 -0.2
v -0.475 0.475 0.05
v -0.475 0.575 0.05
v -0.475 0.475 -0.225
v -0.475 0.575 -0.225
v -0.475 0.6 0.05
v -0.475 0.675 0.05
v -0.475 0.6 -0.225
v -0.475 0.675 -0.225
v -0.475 0.7 0.05
v -0.475 0.775 0.05
v -0.475 0.7 -0.225
v -0.475 0.775 -0.225
v -0.45 0.775 0.075
v -0.45 0.825 0.075
v -0.45 0.775 -0.25
v -0.45 0.825 -0.25
v -0.45 0.775 0.075
v -0.75 0.775 0.075
v -0.75 0.825 0.075
v -0.45 0.825 0.075
v -0.475 0.475 0.05
v -0.725 0.475 0.05
v -0.725 0.575 0.05
v -0.475 0.575 0.05
v -0.475 0.6 0.05
v -0.725 0.6 0.05
v -0.725 0.675 0.05
v -0.475 0.675 0.05
v -0.475 0.7 0.05
v -0.725 0.7 0.05
v -0.725 0.775 0.05
v -0.475 0.775 0.05
v -0.5 0.575 0.025
v -0.7 0.575 0.025
v -0.7 0.6 0.025
v -0.5 0.6 0.025
v -0.5 0.675 0.025
v -0.7 0.675 0.025
v -0.7 0.7 0.025
v -0.5 0.7 0.025
v -0.7 0.675 -0.2
v -0.5 0.675 -0.2
v -0.7 0.7 -0.2
v -0.5 0.7 -0.2
v -0.725 0.475 -0.225
v -0.475 0.475 -0.225
v -0.725 0.575 -0.225
v -0.475 0.575 -0.225
v -0.725 0.6 -0.225
v -0.475 0.6 -0.225
v -0.725 0.675 -0.225
v -0.475 0.675 -0.225
v -0.725 0.7 -0.225
v -0.475 0.7 -0.225
v -0.725 0.775 -0.225
v -0.475 0.775 -0.225
v -0.75 0.775 -0.25
v -0.45 0.775 -0.25
v -0.75 0.825 -0.25
v -0.45 0.825 -0.25
v -0.725 0.475 -0.225
v -0.725 0.475 0.05
v -0.475 0.475 0.05
v -0.475 0.475 -0.225
v -0.7 0.6 0.025
v -0.725 0.6 0.05
v -0.475 0.6 0.05
v -0.5 0.6 0.025
v -0.7 0.6 -0.2
v -0.5 0.6 -0.2
v -0.725 0.6 -0.225
v -0.475 0.6 -0.225
v -0.7 0.7 0.025
v -0.725 0.7 0.05
v -0.475 0.7 0.05
v -0.5 0.7 0.025
v -0.7 0.7 -0.2
v -0.5 0.7 -0.2
v -0.725 0.7 -0.225
v -0.475 0.7 -0.225
v -0.725 0.775 0.05
v -0.75 0.775 0.075
v -0.45 0.775 0.075
v -0.475 0.775 0.05
v -0.725 0.775 -0.225
v -0.475 0.775 -0.225
v -0.75 0.775 -0.25
v -0.45 0.775 -0.25
v -0.725 0.575 0.05
v -0.7 0.575 0.025
v -0.475 0.575 0.05
v -0.5 0.575 0.025
v -0.7 0.575 -0.2
v -0.5 0.575 -0.2
v -0.725 0.575 -0.225
v -0.475 0.575 -0.225
v -0.725 0.675 0.05
v -0.7 0.675 0.025
v -0.475 0.675 0.05
v -0.5 0.675 0.025
v -0.7 0.675 -0.2
v -0.5 0.675 -0.2
v -0.725 0.675 -0.225
v -0.475 0.675 -0.225
v -0.5 0.9375 0.025
v -0.5 0.825 0.025
v -0.7 0.825 0.025
v -0.7 0.9375 0.025
v -0.7 0.9375 -0.2
v -0.7 0.825 -0.2
v -0.5 0.825 -0.2
v -0.5 0.9375 -0.2
v -0.7 0.9375 -0.2
v -0.7 0.9375 0.025
v -0.7 0.825 0.025
v -0.7 0.825 -0.2
v -0.5 0.825 -0.2
v -0.5 0.825 0.025
v -0.5 0.9375 0.025
v -0.5 0.9375 -0.2
v -0.7 0.9375 0.025
v -0.7 0.9375 -0.2
v -0.5 0.9375 -0.2
v -0.5 0.9375 0.025
vt 0.970703 0.5
vt 0.970703 0.5
vt 0.970703 0.5
vt 0.970703 0.5
vt 0.970703 0.5
vt 0.970703 0.5
vt 0.970703 0.5
vt 0.970703 0.5
vt 0.970703 0.5
vt 0.970703 0.5
vt 0.970703 0.5
vt 0.970703 0.5
vt 0.970703 0.5
vt 0.970703 0.5
vt 0.970703 0.5
vt 0.970703 0.5
vt 0.970703 0.5
vt 0.970703 0.5
vt 0.970703 0.5
vt 0.970703 0.5
vt 0.970703 0.5
vt 0.970703 0.5
vt 0.970703 0.5
vt 0.970703 0.5
vt 0.970703 0.5
vt 0.970703 0.5
vt 0.970703 0.5
vt 0.970703 0.5
vt 0.970703 0.5
vt 0.970703 0.5
vt 0.970703 0.5
vt 0.970703 0.5
vt 0.970703 0.5
vt 0.970703 0.5
vt 0.970703 0.5
vt 0.970703 0.5
vt 0.970703 0.5
vt 0.970703 0.5
vt 0.970703 0.5
vt 0.970703 0.5
vt 0.970703 0.5
vt 0.970703 0.5
vt 0.970703 0.5
vt 0.970703 0.5
vt 0.970703 0.5
vt 0.970703 0.5
vt 0.970703 0.5
vt 0.970703 0.5
vt 0.970703 0.5
vt 0.970703 0.5
vt 0.970703 0.5
vt 0.970703 0.5
vt 0.970703 0.5
vt 0.970703 0.5
vt 0.970703 0.5
vt 0.970703 0.5
vt 0.970703 0.5
vt 0.970703 0.5
vt 0.970703 0.5
vt 0.970703 0.5
vt 0.970703 0.5
vt 0.970703 0.5
vt 0.970703 0.5
vt 0.970703 0.5
vt 0.970703 0.5
vt 0.970703 0.5
vt 0.970703 0.5
vt 0.970703 0.5
vt 0.970703 0.5
vt 0.970703 0.5
vt 0.970703 0.5
vt 0.970703 0.5
vt 0.970703 0.5
vt 0.970703 0.5
vt 0.970703 0.5
vt 0.970703 0.5
vt 0.970703 0.5
vt 0.970703 0.5
vt 0.970703 0.5
vt 0.970703 0.5
vt 0.970703 0.5
vt 0.970703 0.5
vt 0.970703 0.5
vt 0.970703 0.5
vt 0.970703 0.5
vt 0.970703 0.5
vt 0.970703 0.5
vt 0.970703 0.5
vt 0.970703 0.5
vt 0.970703 0.5
vt 0.970703 0.5
vt 0.970703 0.5
vt 0.970703 0.5
vt 0.970703 0.5
vt 0.970703 0.5
vt 0.970703 0.5
vt 0.970703 0.5
vt 0.970703 0.5
vt 0.970703 0.5
vt 0.970703 0.5
vt 0.970703 0.5
vt 0.970703 0.5
vt 0.970703 0.5
vt 0.970703 0.5
vt 0.970703 0.5
vt 0.970703 0.5
vt 0.970703 0.5
vt 0.970703 0.5
vt 0.970703 0.5
vt 0.970703 0.5
vt 0.970703 0.5
vt 0.970703 0.5
vt 0.970703 0.5
vt 0.970703 0.5
vt 0.970703 0.5
vt 0.970703 0.5
vt 0.970703 0.5
vt 0.970703 0.5
vt 0.970703 0.5
vt 0.970703 0.5
vt 0.970703 0.5
vt 0.970703 0.5
vt 0.970703 0.5
vt 0.970703 0.5
vt 0.970703 0.5
vt 0.970703 0.5
vt 0.970703 0.5
vt 0.970703 0.5
vt 0.970703 0.5
vt 0.970703 0.5
vt 0.970703 0.5
vt 0.970703 0.5
vt 0.990234 0.5
vt 0.990234 0.5
vt 0.990234 0.5
vt 0.990234 0.5
vt 0.990234 0.5
vt 0.990234 0.5
vt 0.990234 0.5
vt 0.990234 0.5
vt 0.990234 0.5
vt 0.990234 0.5
vt 0.990234 0.5
vt 0.990234 0.5
vt 0.990234 0.5
vt 0.990234 0.5
vt 0.990234 0.5
vt 0.990234 0.5
vt 0.990234 0.5
vt 0.990234 0.5
vt 0.990234 0.5
vt 0.990234 0.5
vt 0.990234 0.5
vt 0.990234 0.5
vt 0.990234 0.5
vt 0.990234 0.5
vt 0.990234 0.5
vt 0.990234 0.5
vt 0.990234 0.5
vt 0.990234 0.5
vt 0.990234 0.5
vt 0.990234 0.5
vt 0.990234 0.5
vt 0.990234 0.5
vt 0.990234 0.5
vt 0.990234 0.5
vt 0.990234 0.5
vt 0.990234 0.5
vt 0.990234 0.5
vt 0.990234 0.5
vt 0.990234 0.5
vt 0.990234 0.5
vt 0.990234 0.5
vt 0.990234 0.5
vt 0.990234 0.5
vt 0.990234 0.5
vt 0.990234 0.5
vt 0.990234 0.5
vt 0.990234 0.5
vt 0.990234 0.5
vt 0.990234 0.5
vt 0.990234 0.5
vt 0.990234 0.5
vt 0.990234 0.5
vt 0.990234 0.5
vt 0.990234 0.5
vt 0.990234 0.5
vt 0.990234 0.5
vt 0.990234 0.5
vt 0.990234 0.5
vt 0.990234 0.5
vt 0.990234 0.5
vt 0.990234 0.5
vt 0.990234 0.5
vt 0.990234 0.5
vt 0.990234 0.5
vt 0.990234 0.5
vt 0.990234 0.5
vt 0.990234 0.5
vt 0.990234 0.5
vt 0.990234 0.5
vt 0.990234 0.5
vt 0.990234 0.5
vt 0.990234 0.5
vt 0.990234 0.5
vt 0.990234 0.5
vt 0.990234 0.5
vt 0.990234 0.5
vt 0.990234 0.5
vt 0.990234 0.5
vt 0.990234 0.5
vt 0.990234 0.5
vt 0.990234 0.5
vt 0.990234 0.5
vt 0.990234 0.5
vt 0.990234 0.5
vt 0.990234 0.5
vt 0.990234 0.5
vt 0.990234 0.5
vt 0.990234 0.5
vt 0.990234 0.5
vt 0.990234 0.5
vt 0.990234 0.5
vt 0.990234 0.5
vt 0.990234 0.5
vt 0.990234 0.5
vt 0.990234 0.5
vt 0.990234 0.5
vt 0.990234 0.5
vt 0.990234 0.5
vt 0.990234 0.5
vt 0.990234 0.5
vt 0.990234 0.5
vt 0.990234 0.5
vt 0.990234 0.5
vt 0.990234 0.5
vt 0.990234 0.5
vt 0.990234 0.5
vt 0.990234 0.5
vt 0.990234 0.5
vt 0.990234 0.5
vt 0.990234 0.5
vt 0.990234 0.5
vt 0.990234 0.5
vt 0.990234 0.5
vt 0.990234 0.5
vt 0.990234 0.5
vt 0.990234 0.5
vt 0.990234 0.5
vt 0.990234 0.5
vt 0.990234 0.5
vt 0.990234 0.5
vt 0.990234 0.5
vt 0.990234 0.5
vt 0.990234 0.5
vt 0.990234 0.5
vt 0.990234 0.5
vt 0.990234 0.5
vt 0.990234 0.5
vt 0.990234 0.5
vt 0.990234 0.5
vt 0.990234 0.5
vt 0.990234 0.5
vt 0.990234 0.5
vt 0.990234 0.5
vt 0.990234 0.5
vt 0.990234 0.5
vt 0.990234 0.5
vt 0.990234 0.5
vt 0.990234 0.5
vt 0.990234 0.5
vt 0.990234 0.5
vt 0.990234 0.5
vt 0.990234 0.5
vt 0.990234 0.5
vt 0.990234 0.5
vt 0.990234 0.5
vt 0.990234 0.5
vt 0.990234 0.5
vt 0.990234 0.5
vt 0.990234 0.5
vt 0.990234 0.5
vt 0.990234 0.5
vt 0.990234 0.5
vt 0.990234 0.5
vt 0.990234 0.5
vt 0.990234 0.5
vt 0.990234 0.5
vt 0.990234 0.5
vt 0.990234 0.5
vt 0.990234 0.5
vt 0.990234 0.5
vt 0.978516 0.5
vt 0.978516 0.5
vt 0.978516 0.5
vt 0.978516 0.5
vt 0.978516 0.5
vt 0.978516 0.5
vt 0.978516 0.5
vt 0.978516 0.5
vt 0.978516 0.5
vt 0.978516 0.5
vt 0.978516 0.5
vt 0.978516 0.5
vt 0.978516 0.5
vt 0.978516 0.5
vt 0.978516 0.5
vt 0.978516 0.5
vt 0.978516 0.5
vt 0.978516 0.5
vt 0.978516 0.5
vt 0.978516 0.5
vn -1 0 0
vn -1 0 0
vn -1 0 0
vn -1 0 0
vn -1 0 0
vn -1 0 0
vn -1 0 0
vn -1 0 0
vn 0 0 1
vn 0 0 1
vn 0 0 1
vn 0 0 1
vn 0 0 1
vn 0 0 1
vn 0 0 1
vn 0 0 1
vn -1 0 0
vn -1 0 0
vn -1 0 0
vn -1 0 0
vn 1 0 0
vn 1 0 0
vn 1 0 0
vn 1 0 0
vn 1 0 0
vn 1 0 0
vn 1 0 0
vn 1 0 0
vn 1 0 0
vn 1 0 0
vn 1 0 0
vn 1 0 0
vn 1 0 0
vn 1 0 0
vn 1 0 0
vn 1 0 0
vn 1 0 0
vn 1 0 0
vn 1 0 0
vn 1 0 0
vn 1 0 0
vn 1 0 0
vn 1 0 0
vn 1 0 0
vn 0 0 1
vn 0 0 1
vn 0 0 1
vn 0 0 1
vn 0 0 1
vn 0 0 1
vn 0 0 1
vn 0 0 1
vn 0 0 1
vn 0 0 1
vn 0 0 1
vn 0 0 1
vn 0 0 1
vn 0 0 1
vn 0 0 1
vn 0 0 1
vn 0 0 -1
vn 0 0 -1
vn 0 0 -1
vn 0 0 -1
vn 0 0 -1
vn 0 0 -1
vn 0 0 -1
vn 0 0 -1
vn 0 0 -1
vn 0 0 -1
vn 0 0 -1
vn 0 0 -1
vn 0 0 -1
vn 0 0 -1
vn 0 0 -1
vn 0 0 -1
vn 0 0 -1
vn 0 0 -1
vn 0 0 -1
vn 0 0 -1
vn 0 0 -1
vn 0 0 -1
vn 0 0 -1
vn 0 0 -1
vn 0 -1 0
vn 0 -1 0
vn 0 -1 0
vn 0 -1 0
vn 0 -1 0
vn 0 -1 0
vn 0 -1 0
vn 0 -1 0
vn 0 -1 0
vn 0 -1 0
vn 0 -1 0
vn 0 -1 0
vn 0 -1 0
vn 0 -1 0
vn 0 -1 0
vn 0 -1 0
vn 0 -1 0
vn 0 -1 0
vn 0 -1 0
vn 0 -1 0
vn 0 -1 0
vn 0 -1 0
vn 0 -1 0
vn 0 -1 0
vn 0 1 0
vn 0 1 0
vn 0 1 0
vn 0 1 0
vn 0 1 0
vn 0 1 0
vn 0 1 0
vn 0 1 0
vn 0 1 0
vn 0 1 0
vn 0 1 0
vn 0 1 0
vn 0 1 0
vn 0 1 0
vn 0 1 0
vn 0 1 0
vn 0 1 0
vn 0 1 0
vn 0 1 0
vn 0 1 0
vn 0 1 0
vn 0 1 0
vn 0 1 0
vn 0 1 0
vn -1 0 0
vn -1 0 0
vn -1 0 0
vn -1 0 0
vn -1 0 0
vn -1 0 0
vn -1 0 0
vn -1 0 0
vn -1 0 0
vn -1 0 0
vn -1 0 0
vn -1 0 0
vn -1 0 0
vn -1 0 0
vn -1 0 0
vn -1 0 0
vn -1 0 0
vn -1 0 0
vn -1 0 0
vn -1 0 0
vn 0 0 -1
vn 0 0 -1
vn 0 0 -1
vn 0 0 -1
vn 0 1 0
vn 0 1 0
vn 0 1 0
vn 0 1 0
vn 0 1 0
vn 0 1 0
vn 0 1 0
vn 0 1 0
vn -1 0 0
vn -1 0 0
vn -1 0 0
vn -1 0 0
vn -1 0 0
vn -1 0 0
vn -1 0 0
vn -1 0 0
vn -1 0 0
vn -1 0 0
vn -1 0 0
vn -1 0 0
vn -1 0 0
vn -1 0 0
vn -1 0 0
vn -1 0 0
vn 1 0 0
vn 1 0 0
vn 1 0 0
vn 1 0 0
vn 1 0 0
vn 1 0 0
vn 1 0 0
vn 1 0 0
vn 1 0 0
vn 1 0 0
vn 1 0 0
vn 1 0 0
vn 1 0 0
vn 1 0 0
vn 1 0 0
vn 1 0 0
vn 1 0 0
vn 1 0 0
vn 1 0 0
vn 1 0 0
vn 1 0 0
vn 1 0 0
vn 1 0 0
vn 1 0 0
vn 0 0 1
vn 0 0 1
vn 0 0 1
vn 0 0 1
vn 0 0 1
vn 0 0 1
vn 0 0 1
vn 0 0 1
vn 0 0 1
vn 0 0 1
vn 0 0 1
vn 0 0 1
vn 0 0 1
vn 0 0 1
vn 0 0 1
vn 0 0 1
vn 0 0 1
vn 0 0 1
vn 0 0 1
vn 0 0 1
vn 0 0 1
vn 0 0 1
vn 0 0 1
vn 0 0 1
vn 0 0 -1
vn 0 0 -1
vn 0 0 -1
vn 0 0 -1
vn 0 0 -1
vn 0 0 -1
vn 0 0 -1
vn 0 0 -1
vn 0 0 -1
vn 0 0 -1
vn 0 0 -1
vn 0 0 -1
vn 0 0 -1
vn 0 0 -1
vn 0 0 -1
vn 0 0 -1
vn 0 0 -1
vn 0 0 -1
vn 0 0 -1
vn 0 0 -1
vn 0 -1 0
vn 0 -1 0
vn 0 -1 0
vn 0 -1 0
vn 0 -1 0
vn 0 -1 0
vn 0 -1 0
vn 0 -1 0
vn 0 -1 0
vn 0 -1 0
vn 0 -1 0
vn 0 -1 0
vn 0 -1 0
vn 0 -1 0
vn 0 -1 0
vn 0 -1 0
vn 0 -1 0
vn 0 -1 0
vn 0 -1 0
vn 0 -1 0
vn 0 -1 0
vn 0 -1 0
vn 0 -1 0
vn 0 -1 0
vn 0 -1 0
vn 0 -1 0
vn 0 -1 0
vn 0 -1 0
vn 0 1 0
vn 0 1 0
vn 0 1 0
vn 0 1 0
vn 0 1 0
vn 0 1 0
vn 0 1 0
vn 0 1 0
vn 0 1 0
vn 0 1 0
vn 0 1 0
vn 0 1 0
vn 0 1 0
vn 0 1 0
vn 0 1 0
vn 0 1 0
vn 0 0 1
vn 0 0 1
vn 0 0 1
vn 0 0 1
vn 0 0 -1
vn 0 0 -1
vn 0 0 -1
vn 0 0 -1
vn -1 0 0
vn -1 0 0
vn -1 0 0
vn -1 0 0
vn 1 0 0
vn 1 0 0
vn 1 0 0
vn 1 0 0
vn 0 1 0
vn 0 1 0
vn 0 1 0
vn 0 1 0
g lycan__1__body_003_0
f 3/3/3 2/2/2 1/1/1
f 1/1/1 4/4/4 3/3/3
f 7/7/7 6/6/6 5/5/5
f 7/7/7 8/8/8 6/6/6
f 11/11/11 10/10/10 9/9/9
f 11/11/11 9/9/9 12/12/12
f 13/13/13 10/10/10 11/11/11
f 13/13/13 11/11/11 14/14/14
f 13/13/13 14/14/14 15/15/15
f 13/13/13 15/15/15 16/16/16
f 19/19/19 18/18/18 17/17/17
f 19/19/19 17/17/17 20/20/20
f 23/23/23 22/22/22 21/21/21
f 23/23/23 24/24/24 22/22/22
f 27/27/27 26/26/26 25/25/25
f 27/27/27 28/28/28 26/26/26
f 31/31/31 30/30/30 29/29/29
f 31/31/31 32/32/32 30/30/30
f 35/35/35 34/34/34 33/33/33
f 35/35/35 36/36/36 34/34/34
f 39/39/39 38/38/38 37/37/37
f 39/39/39 40/40/40 38/38/38
f 43/43/43 42/42/42 41/41/41
f 43/43/43 44/44/44 42/42/42
f 47/47/47 46/46/46 45/45/45
f 47/47/47 45/45/45 48/48/48
f 47/47/47 48/48/48 49/49/49
f 47/47/47 49/49/49 50/50/50
f 45/45/45 46/46/46 51/51/51
f 45/45/45 51/51/51 52/52/52
f 55/55/55 54/54/54 53/53/53
f 55/55/55 53/53/53 56/56/56
f 55/55/55 56/56/56 57/57/57
f 55/55/55 57/57/57 58/58/58
f 53/53/53 54/54/54 59/59/59
f 53/53/53 59/59/59 60/60/60
f 63/63/63 62/62/62 61/61/61
f 63/63/63 64/64/64 62/62/62
f 63/63/63 65/65/65 64/64/64
f 63/63/63 66/66/66 65/65/65
f 62/62/62 67/67/67 61/61/61
f 62/62/62 68/68/68 67/67/67
f 71/71/71 70/70/70 69/69/69
f 71/71/71 72/72/72 70/70/70
f 71/71/71 73/73/73 72/72/72
f 71/71/71 74/74/74 73/73/73
f 70/70/70 75/75/75 69/69/69
f 70/70/70 76/76/76 75/75/75
f 79/79/79 78/78/78 77/77/77
f 79/79/79 80/80/80 78/78/78
f 79/79/79 81/81/81 80/80/80
f 79/79/79 82/82/82 81/81/81
f 78/78/78 83/83/83 77/77/77
f 78/78/78 84/84/84 83/83/83
f 87/87/87 86/86/86 85/85/85
f 87/87/87 85/85/85 88/88/88
f 91/91/91 90/90/90 89/89/89
f 91/91/91 89/89/89 92/92/92
f 95/95/95 94/94/94 93/93/93
f 95/95/95 93/93/93 96/96/96
f 99/99/99 98/98/98 97/97/97
f 99/99/99 97/97/97 100/100/100
f 103/103/103 102/102/102 101/101/101
f 103/103/103 101/101/101 104/104/104
f 107/107/107 106/106/106 105/105/105
f 107/107/107 105/105/105 108/108/108
f 111/111/111 110/110/110 109/109/109
f 111/111/111 112/112/112 110/110/110
f 115/115/115 114/114/114 113/113/113
f 115/115/115 116/116/116 114/114/114
f 119/119/119 118/118/118 117/117/117
f 119/119/119 120/120/120 118/118/118
f 123/123/123 122/122/122 121/121/121
f 123/123/123 124/124/124 122/122/122
f 127/127/127 126/126/126 125/125/125
f 127/127/127 128/128/128 126/126/126
f 131/131/131 130/130/130 129/129/129
f 131/131/131 132/132/132 130/130/130
g lycan__1__body_003_1
f 135/135/135 134/134/134 133/133/133
f 135/135/135 133/133/133 136/136/136
f 136/136/136 133/133/133 137/137/137
f 136/136/136 137/137/137 138/138/138
f 135/135/135 139/139/139 134/134/134
f 135/135/135 136/136/136 140/140/140
f 135/135/135 140/140/140 141/141/141
f 135/135/135 141/141/141 142/142/142
f 134/134/134 139/139/139 143/143/143
f 141/141/141 140/140/140 144/144/144
f 141/141/141 144/144/144 145/145/145
f 135/135/135 142/142/142 146/146/146
f 145/145/145 144/144/144 147/147/147
f 146/146/146 145/145/145 147/147/147
f 138/138/138 137/137/137 147/147/147
f 143/143/143 139/139/139 147/147/147
f 144/144/144 138/138/138 147/147/147
f 137/137/137 143/143/143 147/147/147
f 135/135/135 146/146/146 148/148/148
f 146/146/146 147/147/147 148/148/148
f 151/151/151 150/150/150 149/149/149
f 151/151/151 149/149/149 152/152/152
f 155/155/155 154/154/154 153/153/153
f 155/155/155 156/156/156 154/154/154
f 159/159/159 158/158/158 157/157/157
f 159/159/159 157/157/157 160/160/160
f 157/157/157 161/161/161 160/160/160
f 159/159/159 162/162/162 158/158/158
f 161/161/161 163/163/163 160/160/160
f 162/162/162 163/163/163 161/161/161
f 159/159/159 164/164/164 162/162/162
f 162/162/162 164/164/164 163/163/163
f 167/167/167 166/166/166 165/165/165
f 167/167/167 165/165/165 168/168/168
f 171/171/171 170/170/170 169/169/169
f 171/171/171 169/169/169 172/172/172
f 175/175/175 174/174/174 173/173/173
f 175/175/175 173/173/173 176/176/176
f 179/179/179 178/178/178 177/177/177
f 179/179/179 177/177/177 180/180/180
f 183/183/183 182/182/182 181/181/181
f 183/183/183 184/184/184 182/182/182
f 187/187/187 186/186/186 185/185/185
f 187/187/187 188/188/188 186/186/186
f 191/191/191 190/190/190 189/189/189
f 191/191/191 192/192/192 190/190/190
f 195/195/195 194/194/194 193/193/193
f 195/195/195 196/196/196 194/194/194
f 199/199/199 198/198/198 197/197/197
f 199/199/199 200/200/200 198/198/198
f 203/203/203 202/202/202 201/201/201
f 203/203/203 204/204/204 202/202/202
f 207/207/207 206/206/206 205/205/205
f 207/207/207 205/205/205 208/208/208
f 211/211/211 210/210/210 209/209/209
f 211/211/211 209/209/209 212/212/212
f 215/215/215 214/214/214 213/213/213
f 215/215/215 213/213/213 216/216/216
f 219/219/219 218/218/218 217/217/217
f 219/219/219 217/217/217 220/220/220
f 223/223/223 222/222/222 221/221/221
f 223/223/223 221/221/221 224/224/224
f 227/227/227 226/226/226 225/225/225
f 227/227/227 225/225/225 228/228/228
f 231/231/231 230/230/230 229/229/229
f 231/231/231 232/232/232 230/230/230
f 235/235/235 234/234/234 233/233/233
f 235/235/235 236/236/236 234/234/234
f 239/239/239 238/238/238 237/237/237
f 239/239/239 240/240/240 238/238/238
f 243/243/243 242/242/242 241/241/241
f 243/243/243 244/244/244 242/242/242
f 247/247/247 246/246/246 245/245/245
f 247/247/247 248/248/248 246/246/246
f 251/251/251 250/250/250 249/249/249
f 251/251/251 249/249/249 252/252/252
f 255/255/255 254/254/254 253/253/253
f 255/255/255 253/253/253 256/256/256
f 253/253/253 254/254/254 257/257/257
f 255/255/255 256/256/256 258/258/258
f 257/257/257 254/254/254 259/259/259
f 258/258/258 257/257/257 259/259/259
f 255/255/255 258/258/258 260/260/260
f 258/258/258 259/259/259 260/260/260
f 263/263/263 262/262/262 261/261/261
f 263/263/263 261/261/261 264/264/264
f 261/261/261 262/262/262 265/265/265
f 263/263/263 264/264/264 266/266/266
f 265/265/265 262/262/262 267/267/267
f 266/266/266 265/265/265 267/267/267
f 263/263/263 266/266/266 268/268/268
f 266/266/266 267/267/267 268/268/268
f 271/271/271 270/270/270 269/269/269
f 271/271/271 269/269/269 272/272/272
f 269/269/269 270/270/270 273/273/273
f 271/271/271 272/272/272 274/274/274
f 273/273/273 270/270/270 275/275/275
f 274/274/274 273/273/273 275/275/275
f 271/271/271 274/274/274 276/276/276
f 274/274/274 275/275/275 276/276/276
f 279/279/279 278/278/278 277/277/277
f 279/279/279 280/280/280 278/278/278
f 278/278/278 281/281/281 277/277/277
f 279/279/279 282/282/282 280/280/280
f 281/281/281 283/283/283 277/277/277
f 282/282/282 283/283/283 281/281/281
f 279/279/279 284/284/284 282/282/282
f 282/282/282 284/284/284 283/283/283
f 287/287/287 286/286/286 285/285/285
f 287/287/287 288/288/288 286/286/286
f 286/286/286 289/289/289 285/285/285
f 287/287/287 290/290/290 288/288/288
f 289/289/289 291/291/291 285/285/285
f 290/290/290 291/291/291 289/289/289
f 287/287/287 292/292/292 290/290/290
f 290/290/290 292/292/292 291/291/291
g lycan__1__body_003_2
f 295/295/295 294/294/294 293/293/293
f 296/296/296 295/295/295 293/293/293
f 299/299/299 298/298/298 297/297/297
f 300/300/300 299/299/299 297/297/297
f 303/303/303 302/302/302 301/301/301
f 304/304/304 303/303/303 301/301/301
f 307/307/307 306/306/306 305/305/305
f 308/308/308 307/307/307 305/305/305
g lycan__1__body_003_3
f 311/311/311 310/310/310 309/309/309
f 312/312/312 311/311/311 309/309/309
