g lycan__1__body_004
v 0.725 0.5 0
v 0.725 0.55 0
v 0.725 0.5 -0.075
v 0.725 0.475 -0.225
v 0.725 0.5 0.025
v 0.725 0.475 0.05
v 0.725 0.5 -0.1
v 0.725 0.5 -0.175
v 0.725 0.5 -0.2
v 0.725 0.55 0.025
v 0.725 0.55 -0.075
v 0.725 0.55 -0.1
v 0.725 0.55 -0.175
v 0.725 0.55 -0.2
v 0.725 0.575 0.05
v 0.725 0.575 -0.225
v 0.725 0.775 0.05
v 0.725 0.775 -0.225
v 0.725 0.7 -0.225
v 0.725 0.7 0.05
v 0.5 0.6 -0.2
v 0.475 0.6 0.05
v 0.5 0.6 0.025
v 0.475 0.6 -0.225
v 0.725 0.6 0.05
v 0.7 0.6 0.025
v 0.7 0.6 -0.2
v 0.725 0.6 -0.225
v 0.7 0.675 0.025
v 0.7 0.675 -0.2
v 0.725 0.675 0.05
v 0.5 0.675 0.025
v 0.475 0.675 0.05
v 0.5 0.675 -0.2
v 0.475 0.675 -0.225
v 0.725 0.675 -0.225
v 0.7 0.825 -0.2
v 0.75 0.825 -0.25
v 0.75 0.825 0.075
v 0.7 0.825 0.025
v 0.5 0.825 0.025
v 0.45 0.825 0.075
v 0.5 0.825 -0.2
v 0.45 0.825 -0.25
v 0.45 0.825 0.075
v 0.45 0.775 0.075
v 0.45 0.775 -0.25
v 0.45 0.825 -0.25
v 0.475 0.575 0.05
v 0.475 0.475 0.05
v 0.475 0.475 -0.225
v 0.475 0.575 -0.225
v 0.475 0.675 0.05
v 0.475 0.6 0.05
v 0.475 0.6 -0.225
v 0.475 0.675 -0.225
v 0.475 0.775 0.05
v 0.475 0.7 0.05
v 0.475 0.7 -0.225
v 0.475 0.775 -0.225
v 0.5 0.6 0.025
v 0.5 0.575 0.025
v 0.5 0.575 -0.2
v 0.5 0.6 -0.2
v 0.5 0.7 0.025
v 0.5 0.675 0.025
v 0.5 0.675 -0.2
v 0.5 0.7 -0.2
v 0.7 0.575 0.025
v 0.7 0.6 0.025
v 0.7 0.575 -0.2
v 0.7 0.6 -0.2
v 0.7 0.675 0.025
v 0.7 0.7 0.025
v 0.7 0.675 -0.2
v 0.7 0.7 -0.2
v 0.725 0.6 0.05
v 0.725 0.675 0.05
v 0.725 0.6 -0.225
v 0.725 0.675 -0.225
v 0.75 0.775 0.075
v 0.75 0.825 0.075
v 0.75 0.775 -0.25
v 0.75 0.825 -0.25
v 0.75 0.775 0.075
v 0.45 0.775 0.075
v 0.45 0.825 0.075
v 0.75 0.825 0.075
v 0.725 0.475 0.05
v 0.475 0.475 0.05
v 0.475 0.575 0.05
v 0.725 0.575 0.05
v 0.725 0.6 0.05
v 0.475 0.6 0.05
v 0.475 0.675 0.05
v 0.725 0.675 0.05
v 0.725 0.7 0.05
v 0.475 0.7 0.05
v 0.475 0.775 0.05
v 0.725 0.775 0.05
v 0.7 0.575 0.025
v 0.5 0.575 0.025
v 0.5 0.6 0.025
v 0.7 0.6 0.025
v 0.7 0.675 0.025
v 0.5 0.675 0.025
v 0.5 0.7 0.025
v 0.7 0.7 0.025
v 0.5 0.575 -0.2
v 0.7 0.575 -0.2
v 0.5 0.6 -0.2
v 0.7 0.6 -0.2
v 0.5 0.675 -0.2
v 0.7 0.675 -0.2
v 0.5 0.7 -0.2
v 0.7 0.7 -0.2
v 0.475 0.475 -0.225
v 0.725 0.475 -0.225
v 0.475 0.575 -0.225
v 0.725 0.575 -0.225
v 0.475 0.6 -0.225
v 0.725 0.6 -0.225
v 0.475 0.675 -0.225
v 0.725 0.675 -0.225
v 0.475 0.7 -0.225
v 0.725 0.7 -0.225
v 0.475 0.775 -0.225
v 0.725 0.775 -0.225
v 0.45 0.775 -0.25
v 0.75 0.775 -0.25
v 0.45 0.825 -0.25
v 0.75 0.825 -0.25
v 0.475 0.475 -0.225
v 0.475 0.475 0.05
v 0.725 0.475 0.05
v 0.725 0.475 -0.225
v 0.5 0.7 0.025
v 0.475 0.7 0.05
v 0.725 0.7 0.05
v 0.7 0.7 0.025
v 0.5 0.7 -0.2
v 0.7 0.7 -0.2
v 0.475 0.7 -0.225
v 0.725 0.7 -0.225
v 0.475 0.775 0.05
v 0.45 0.775 0.075
v 0.75 0.775 0.075
v 0.725 0.775 0.05
v 0.475 0.775 -0.225
v 0.725 0.775 -0.225
v 0.45 0.775 -0.25
v 0.75 0.775 -0.25
v 0.475 0.575 0.05
v 0.5 0.575 0.025
v 0.725 0.575 0.05
v 0.7 0.575 0.025
v 0.5 0.575 -0.2
v 0.7 0.575 -0.2
v 0.475 0.575 -0.225
v 0.725 0.575 -0.225
v 0.8 0.55 0.025
v 0.75 0.5 0.025
v 0.725 0.55 0.025
v 0.725 0.5 0.025
v 0.8 0.25 0.025
v 0.75 0.3 0.025
v 0.7 0.25 0.025
v 0.7 0.3 0.025
v 0.75 0.3 -0.1
v 0.8 0.25 -0.1
v 0.75 0.5 -0.1
v 0.8 0.55 -0.1
v 0.7 0.25 -0.1
v 0.7 0.3 -0.1
v 0.725 0.55 -0.1
v 0.725 0.5 -0.1
v 0.7 0.3 -0.175
v 0.7 0.3 -0.2
v 0.75 0.3 -0.175
v 0.75 0.3 -0.2
v 0.7 0.3 0.025
v 0.7 0.25 0.025
v 0.7 0.25 0
v 0.7 0.3 0
v 0.7 0.3 -0.075
v 0.7 0.25 -0.075
v 0.7 0.25 -0.1
v 0.7 0.3 -0.1
v 0.7 0.3 -0.175
v 0.7 0.25 -0.175
v 0.7 0.25 -0.2
v 0.7 0.3 -0.2
v 0.75 0.5 0.025
v 0.75 0.3 0.025
v 0.75 0.3 0
v 0.75 0.5 0
v 0.75 0.5 -0.075
v 0.75 0.3 -0.075
v 0.75 0.3 -0.1
v 0.75 0.5 -0.1
v 0.75 0.5 -0.175
v 0.75 0.3 -0.175
v 0.75 0.3 -0.2
v 0.75 0.5 -0.2
v 0.8 0.25 0.025
v 0.8 0.55 0.025
v 0.8 0.25 0
v 0.8 0.55 0
v 0.8 0.25 -0.075
v 0.8 0.55 -0.075
v 0.8 0.25 -0.1
v 0.8 0.55 -0.1
v 0.8 0.25 -0.175
v 0.8 0.55 -0.175
v 0.8 0.25 -0.2
v 0.8 0.55 -0.2
v 0.75 0.3 -0.075
v 0.7 0.25 -0.075
v 0.7 0.3 -0.075
v 0.8 0.25 -0.075
v 0.75 0.5 -0.075
v 0.8 0.55 -0.075
v 0.725 0.55 -0.075
v 0.725 0.5 -0.075
v 0.75 0.3 -0.175
v 0.7 0.25 -0.175
v 0.7 0.3 -0.175
v 0.8 0.25 -0.175
v 0.75 0.5 -0.175
v 0.8 0.55 -0.175
v 0.725 0.55 -0.175
v 0.725 0.5 -0.175
v 0.7 0.25 0
v 0.75 0.3 0
v 0.7 0.3 0
v 0.8 0.25 0
v 0.75 0.5 0
v 0.8 0.55 0
v 0.725 0.55 0
v 0.725 0.5 0
v 0.7 0.25 -0.2
v 0.75 0.3 -0.2
v 0.7 0.3 -0.2
v 0.8 0.25 -0.2
v 0.75 0.5 -0.2
v 0.8 0.55 -0.2
v 0.725 0.55 -0.2
v 0.725 0.5 -0.2
v 0.7 0.25 0
v 0.7 0.25 0.025
v 0.8 0.25 0.025
v 0.8 0.25 0
v 0.7 0.25 -0.1
v 0.7 0.25 -0.075
v 0.8 0.25 -0.075
v 0.8 0.25 -0.1
v 0.7 0.25 -0.2
v 0.7 0.25 -0.175
v 0.8 0.25 -0.175
v 0.8 0.25 -0.2
v 0.725 0.5 0
v 0.725 0.5 0.025
v 0.75 0.5 0.025
v 0.75 0.5 0
v 0.725 0.5 -0.1
v 0.725 0.5 -0.075
v 0.75 0.5 -0.075
v 0.75 0.5 -0.1
v 0.725 0.5 -0.2
v 0.725 0.5 -0.175
v 0.75 0.5 -0.175
v 0.75 0.5 -0.2
v 0.7 0.3 0.025
v 0.7 0.3 0
v 0.75 0.3 0.025
v 0.75 0.3 0
v 0.7 0.3 -0.075
v 0.7 0.3 -0.1
v 0.75 0.3 -0.075
v 0.75 0.3 -0.1
v 0.725 0.55 0.025
v 0.725 0.55 0
v 0.8 0.55 0.025
v 0.8 0.55 0
v 0.725 0.55 -0.075
v 0.725 0.55 -0.1
v 0.8 0.55 -0.075
v 0.8 0.55 -0.1
v 0.725 0.55 -0.175
v 0.725 0.55 -0.2
v 0.8 0.55 -0.175
v 0.8 0.55 -0.2
v 0.7 0.9375 0.025
v 0.7 0.825 0.025
v 0.5 0.825 0.025
v 0.5 0.9375 0.025
v 0.7 0.825 -0.2
v 0.7 0.825 0.025
v 0.7 0.9375 0.025
v 0.7 0.9375 -0.2
v 0.5 0.9375 -0.2
v 0.5 0.9375 0.025
v 0.5 0.825 0.025
v 0.5 0.825 -0.2
v 0.5 0.9375 -0.2
v 0.5 0.825 -0.2
v 0.7 0.825 -0.2
v 0.7 0.9375 -0.2
v 0.5 0.9375 0.025
v 0.5 0.9375 -0.2
v 0.7 0.9375 -0.2
v 0.7 0.9375 0.025
vt 0.990234 0.5
vt 0.990234 0.5
vt 0.990234 0.5
vt 0.990234 0.5
vt 0.990234 0.5
vt 0.990234 0.5
vt 0.990234 0.5
vt 0.990234 0.5
vt 0.990234 0.5
vt 0.990234 0.5
vt 0.990234 0.5
vt 0.990234 0.5
vt 0.990234 0.5
vt 0.990234 0.5
vt 0.990234 0.5
vt 0.990234 0.5
vt 0.990234 0.5
vt 0.990234 0.5
vt 0.990234 0.5
vt 0.990234 0.5
vt 0.990234 0.5
vt 0.990234 0.5
vt 0.990234 0.5
vt 0.990234 0.5
vt 0.990234 0.5
vt 0.990234 0.5
vt 0.990234 0.5
vt 0.990234 0.5
vt 0.990234 0.5
vt 0.990234 0.5
vt 0.990234 0.5
vt 0.990234 0.5
vt 0.990234 0.5
vt 0.990234 0.5
vt 0.990234 0.5
vt 0.990234 0.5
vt 0.990234 0.5
vt 0.990234 0.5
vt 0.990234 0.5
vt 0.990234 0.5
vt 0.990234 0.5
vt 0.990234 0.5
vt 0.990234 0.5
vt 0.990234 0.5
vt 0.990234 0.5
vt 0.990234 0.5
vt 0.990234 0.5
vt 0.990234 0.5
vt 0.990234 0.5
vt 0.990234 0.5
vt 0.990234 0.5
vt 0.990234 0.5
vt 0.990234 0.5
vt 0.990234 0.5
vt 0.990234 0.5
vt 0.990234 0.5
vt 0.990234 0.5
vt 0.990234 0.5
vt 0.990234 0.5
vt 0.990234 0.5
vt 0.990234 0.5
vt 0.990234 0.5
vt 0.990234 0.5
vt 0.990234 0.5
vt 0.990234 0.5
vt 0.990234 0.5
vt 0.990234 0.5
vt 0.990234 0.5
vt 0.990234 0.5
vt 0.990234 0.5
vt 0.990234 0.5
vt 0.990234 0.5
vt 0.990234 0.5
vt 0.990234 0.5
vt 0.990234 0.5
vt 0.990234 0.5
vt 0.990234 0.5
vt 0.990234 0.5
vt 0.990234 0.5
vt 0.990234 0.5
vt 0.990234 0.5
vt 0.990234 0.5
vt 0.990234 0.5
vt 0.990234 0.5
vt 0.990234 0.5
vt 0.990234 0.5
vt 0.990234 0.5
vt 0.990234 0.5
vt 0.990234 0.5
vt 0.990234 0.5
vt 0.990234 0.5
vt 0.990234 0.5
vt 0.990234 0.5
vt 0.990234 0.5
vt 0.990234 0.5
vt 0.990234 0.5
vt 0.990234 0.5
vt 0.990234 0.5
vt 0.990234 0.5
vt 0.990234 0.5
vt 0.990234 0.5
vt 0.990234 0.5
vt 0.990234 0.5
vt 0.990234 0.5
vt 0.990234 0.5
vt 0.990234 0.5
vt 0.990234 0.5
vt 0.990234 0.5
vt 0.990234 0.5
vt 0.990234 0.5
vt 0.990234 0.5
vt 0.990234 0.5
vt 0.990234 0.5
vt 0.990234 0.5
vt 0.990234 0.5
vt 0.990234 0.5
vt 0.990234 0.5
vt 0.990234 0.5
vt 0.990234 0.5
vt 0.990234 0.5
vt 0.990234 0.5
vt 0.990234 0.5
vt 0.990234 0.5
vt 0.990234 0.5
vt 0.990234 0.5
vt 0.990234 0.5
vt 0.990234 0.5
vt 0.990234 0.5
vt 0.990234 0.5
vt 0.990234 0.5
vt 0.990234 0.5
vt 0.990234 0.5
vt 0.990234 0.5
vt 0.990234 0.5
vt 0.990234 0.5
vt 0.990234 0.5
vt 0.990234 0.5
vt 0.990234 0.5
vt 0.990234 0.5
vt 0.990234 0.5
vt 0.990234 0.5
vt 0.990234 0.5
vt 0.990234 0.5
vt 0.990234 0.5
vt 0.990234 0.5
vt 0.990234 0.5
vt 0.990234 0.5
vt 0.990234 0.5
vt 0.990234 0.5
vt 0.990234 0.5
vt 0.990234 0.5
vt 0.990234 0.5
vt 0.990234 0.5
vt 0.990234 0.5
vt 0.990234 0.5
vt 0.990234 0.5
vt 0.990234 0.5
vt 0.990234 0.5
vt 0.990234 0.5
vt 0.990234 0.5
vt 0.970703 0.5
vt 0.970703 0.5
vt 0.970703 0.5
vt 0.970703 0.5
vt 0.970703 0.5
vt 0.970703 0.5
vt 0.970703 0.5
vt 0.970703 0.5
vt 0.970703 0.5
vt 0.970703 0.5
vt 0.970703 0.5
vt 0.970703 0.5
vt 0.970703 0.5
vt 0.970703 0.5
vt 0.970703 0.5
vt 0.970703 0.5
vt 0.970703 0.5
vt 0.970703 0.5
vt 0.970703 0.5
vt 0.970703 0.5
vt 0.970703 0.5
vt 0.970703 0.5
vt 0.970703 0.5
vt 0.970703 0.5
vt 0.970703 0.5
vt 0.970703 0.5
vt 0.970703 0.5
vt 0.970703 0.5
vt 0.970703 0.5
vt 0.970703 0.5
vt 0.970703 0.5
vt 0.970703 0.5
vt 0.970703 0.5
vt 0.970703 0.5
vt 0.970703 0.5
vt 0.970703 0.5
vt 0.970703 0.5
vt 0.970703 0.5
vt 0.970703 0.5
vt 0.970703 0.5
vt 0.970703 0.5
vt 0.970703 0.5
vt 0.970703 0.5
vt 0.970703 0.5
vt 0.970703 0.5
vt 0.970703 0.5
vt 0.970703 0.5
vt 0.970703 0.5
vt 0.970703 0.5
vt 0.970703 0.5
vt 0.970703 0.5
vt 0.970703 0.5
vt 0.970703 0.5
vt 0.970703 0.5
vt 0.970703 0.5
vt 0.970703 0.5
vt 0.970703 0.5
vt 0.970703 0.5
vt 0.970703 0.5
vt 0.970703 0.5
vt 0.970703 0.5
vt 0.970703 0.5
vt 0.970703 0.5
vt 0.970703 0.5
vt 0.970703 0.5
vt 0.970703 0.5
vt 0.970703 0.5
vt 0.970703 0.5
vt 0.970703 0.5
vt 0.970703 0.5
vt 0.970703 0.5
vt 0.970703 0.5
vt 0.970703 0.5
vt 0.970703 0.5
vt 0.970703 0.5
vt 0.970703 0.5
vt 0.970703 0.5
vt 0.970703 0.5
vt 0.970703 0.5
vt 0.970703 0.5
vt 0.970703 0.5
vt 0.970703 0.5
vt 0.970703 0.5
vt 0.970703 0.5
vt 0.970703 0.5
vt 0.970703 0.5
vt 0.970703 0.5
vt 0.970703 0.5
vt 0.970703 0.5
vt 0.970703 0.5
vt 0.970703 0.5
vt 0.970703 0.5
vt 0.970703 0.5
vt 0.970703 0.5
vt 0.970703 0.5
vt 0.970703 0.5
vt 0.970703 0.5
vt 0.970703 0.5
vt 0.970703 0.5
vt 0.970703 0.5
vt 0.970703 0.5
vt 0.970703 0.5
vt 0.970703 0.5
vt 0.970703 0.5
vt 0.970703 0.5
vt 0.970703 0.5
vt 0.970703 0.5
vt 0.970703 0.5
vt 0.970703 0.5
vt 0.970703 0.5
vt 0.970703 0.5
vt 0.970703 0.5
vt 0.970703 0.5
vt 0.970703 0.5
vt 0.970703 0.5
vt 0.970703 0.5
vt 0.970703 0.5
vt 0.970703 0.5
vt 0.970703 0.5
vt 0.970703 0.5
vt 0.970703 0.5
vt 0.970703 0.5
vt 0.970703 0.5
vt 0.970703 0.5
vt 0.970703 0.5
vt 0.970703 0.5
vt 0.970703 0.5
vt 0.970703 0.5
vt 0.970703 0.5
vt 0.970703 0.5
vt 0.970703 0.5
vt 0.970703 0.5
vt 0.978516 0.5
vt 0.978516 0.5
vt 0.978516 0.5
vt 0.978516 0.5
vt 0.978516 0.5
vt 0.978516 0.5
vt 0.978516 0.5
vt 0.978516 0.5
vt 0.978516 0.5
vt 0.978516 0.5
vt 0.978516 0.5
vt 0.978516 0.5
vt 0.978516 0.5
vt 0.978516 0.5
vt 0.978516 0.5
vt 0.978516 0.5
vt 0.978516 0.5
vt 0.978516 0.5
vt 0.978516 0.5
vt 0.978516 0.5
vn 1 0 0
vn 1 0 0
vn 1 0 0
vn 1 0 0
vn 1 0 0
vn 1 0 0
vn 1 0 0
vn 1 0 0
vn 1 0 0
vn 1 0 0
vn 1 0 0
vn 1 0 0
vn 1 0 0
vn 1 0 0
vn 1 0 0
vn 1 0 0
vn 1 0 0
vn 1 0 0
vn 1 0 0
vn 1 0 0
vn 0 -1 0
vn 0 -1 0
vn 0 -1 0
vn 0 -1 0
vn 0 -1 0
vn 0 -1 0
vn 0 -1 0
vn 0 -1 0
vn 0 1 0
vn 0 1 0
vn 0 1 0
vn 0 1 0
vn 0 1 0
vn 0 1 0
vn 0 1 0
vn 0 1 0
vn 0 1 0
vn 0 1 0
vn 0 1 0
vn 0 1 0
vn 0 1 0
vn 0 1 0
vn 0 1 0
vn 0 1 0
vn -1 0 0
vn -1 0 0
vn -1 0 0
vn -1 0 0
vn -1 0 0
vn -1 0 0
vn -1 0 0
vn -1 0 0
vn -1 0 0
vn -1 0 0
vn -1 0 0
vn -1 0 0
vn -1 0 0
vn -1 0 0
vn -1 0 0
vn -1 0 0
vn -1 0 0
vn -1 0 0
vn -1 0 0
vn -1 0 0
vn -1 0 0
vn -1 0 0
vn -1 0 0
vn -1 0 0
vn 1 0 0
vn 1 0 0
vn 1 0 0
vn 1 0 0
vn 1 0 0
vn 1 0 0
vn 1 0 0
vn 1 0 0
vn 1 0 0
vn 1 0 0
vn 1 0 0
vn 1 0 0
vn 1 0 0
vn 1 0 0
vn 1 0 0
vn 1 0 0
vn 0 0 1
vn 0 0 1
vn 0 0 1
vn 0 0 1
vn 0 0 1
vn 0 0 1
vn 0 0 1
vn 0 0 1
vn 0 0 1
vn 0 0 1
vn 0 0 1
vn 0 0 1
vn 0 0 1
vn 0 0 1
vn 0 0 1
vn 0 0 1
vn 0 0 1
vn 0 0 1
vn 0 0 1
vn 0 0 1
vn 0 0 1
vn 0 0 1
vn 0 0 1
vn 0 0 1
vn 0 0 -1
vn 0 0 -1
vn 0 0 -1
vn 0 0 -1
vn 0 0 -1
vn 0 0 -1
vn 0 0 -1
vn 0 0 -1
vn 0 0 -1
vn 0 0 -1
vn 0 0 -1
vn 0 0 -1
vn 0 0 -1
vn 0 0 -1
vn 0 0 -1
vn 0 0 -1
vn 0 0 -1
vn 0 0 -1
vn 0 0 -1
vn 0 0 -1
vn 0 0 -1
vn 0 0 -1
vn 0 0 -1
vn 0 0 -1
vn 0 -1 0
vn 0 -1 0
vn 0 -1 0
vn 0 -1 0
vn 0 -1 0
vn 0 -1 0
vn 0 -1 0
vn 0 -1 0
vn 0 -1 0
vn 0 -1 0
vn 0 -1 0
vn 0 -1 0
vn 0 -1 0
vn 0 -1 0
vn 0 -1 0
vn 0 -1 0
vn 0 -1 0
vn 0 -1 0
vn 0 -1 0
vn 0 -1 0
vn 0 1 0
vn 0 1 0
vn 0 1 0
vn 0 1 0
vn 0 1 0
vn 0 1 0
vn 0 1 0
vn 0 1 0
vn 0 0 1
vn 0 0 1
vn 0 0 1
vn 0 0 1
vn 0 0 1
vn 0 0 1
vn 0 0 1
vn 0 0 1
vn 0 0 -1
vn 0 0 -1
vn 0 0 -1
vn 0 0 -1
vn 0 0 -1
vn 0 0 -1
vn 0 0 -1
vn 0 0 -1
vn 0 1 0
vn 0 1 0
vn 0 1 0
vn 0 1 0
vn -1 0 0
vn -1 0 0
vn -1 0 0
vn -1 0 0
vn -1 0 0
vn -1 0 0
vn -1 0 0
vn -1 0 0
vn -1 0 0
vn -1 0 0
vn -1 0 0
vn -1 0 0
vn -1 0 0
vn -1 0 0
vn -1 0 0
vn -1 0 0
vn -1 0 0
vn -1 0 0
vn -1 0 0
vn -1 0 0
vn -1 0 0
vn -1 0 0
vn -1 0 0
vn -1 0 0
vn 1 0 0
vn 1 0 0
vn 1 0 0
vn 1 0 0
vn 1 0 0
vn 1 0 0
vn 1 0 0
vn 1 0 0
vn 1 0 0
vn 1 0 0
vn 1 0 0
vn 1 0 0
vn 0 0 1
vn 0 0 1
vn 0 0 1
vn 0 0 1
vn 0 0 1
vn 0 0 1
vn 0 0 1
vn 0 0 1
vn 0 0 1
vn 0 0 1
vn 0 0 1
vn 0 0 1
vn 0 0 1
vn 0 0 1
vn 0 0 1
vn 0 0 1
vn 0 0 -1
vn 0 0 -1
vn 0 0 -1
vn 0 0 -1
vn 0 0 -1
vn 0 0 -1
vn 0 0 -1
vn 0 0 -1
vn 0 0 -1
vn 0 0 -1
vn 0 0 -1
vn 0 0 -1
vn 0 0 -1
vn 0 0 -1
vn 0 0 -1
vn 0 0 -1
vn 0 -1 0
vn 0 -1 0
vn 0 -1 0
vn 0 -1 0
vn 0 -1 0
vn 0 -1 0
vn 0 -1 0
vn 0 -1 0
vn 0 -1 0
vn 0 -1 0
vn 0 -1 0
vn 0 -1 0
vn 0 -1 0
vn 0 -1 0
vn 0 -1 0
vn 0 -1 0
vn 0 -1 0
vn 0 -1 0
vn 0 -1 0
vn 0 -1 0
vn 0 -1 0
vn 0 -1 0
vn 0 -1 0
vn 0 -1 0
vn 0 1 0
vn 0 1 0
vn 0 1 0
vn 0 1 0
vn 0 1 0
vn 0 1 0
vn 0 1 0
vn 0 1 0
vn 0 1 0
vn 0 1 0
vn 0 1 0
vn 0 1 0
vn 0 1 0
vn 0 1 0
vn 0 1 0
vn 0 1 0
vn 0 1 0
vn 0 1 0
vn 0 1 0
vn 0 1 0
vn 0 0 1
vn 0 0 1
vn 0 0 1
vn 0 0 1
vn 1 0 0
vn 1 0 0
vn 1 0 0
vn 1 0 0
vn -1 0 0
vn -1 0 0
vn -1 0 0
vn -1 0 0
vn 0 0 -1
vn 0 0 -1
vn 0 0 -1
vn 0 0 -1
vn 0 1 0
vn 0 1 0
vn 0 1 0
vn 0 1 0
g lycan__1__body_004_0
f 3/3/3 2/2/2 1/1/1
f 4/4/4 3/3/3 1/1/1
f 4/4/4 1/1/1 5/5/5
f 4/4/4 5/5/5 6/6/6
f 4/4/4 7/7/7 3/3/3
f 4/4/4 8/8/8 7/7/7
f 4/4/4 9/9/9 8/8/8
f 5/5/5 10/10/10 6/6/6
f 3/3/3 11/11/11 2/2/2
f 8/8/8 12/12/12 7/7/7
f 8/8/8 13/13/13 12/12/12
f 4/4/4 14/14/14 9/9/9
f 13/13/13 15/15/15 12/12/12
f 14/14/14 15/15/15 13/13/13
f 11/11/11 15/15/15 2/2/2
f 10/10/10 15/15/15 6/6/6
f 12/12/12 15/15/15 11/11/11
f 2/2/2 15/15/15 10/10/10
f 14/14/14 16/16/16 15/15/15
f 4/4/4 16/16/16 14/14/14
f 19/19/19 18/18/18 17/17/17
f 19/19/19 17/17/17 20/20/20
f 23/23/23 22/22/22 21/21/21
f 21/21/21 22/22/22 24/24/24
f 25/25/25 22/22/22 23/23/23
f 25/25/25 23/23/23 26/26/26
f 25/25/25 26/26/26 27/27/27
f 27/27/27 21/21/21 24/24/24
f 25/25/25 27/27/27 28/28/28
f 27/27/27 24/24/24 28/28/28
f 31/31/31 30/30/30 29/29/29
f 31/31/31 29/29/29 32/32/32
f 31/31/31 32/32/32 33/33/33
f 32/32/32 34/34/34 33/33/33
f 30/30/30 35/35/35 34/34/34
f 34/34/34 35/35/35 33/33/33
f 31/31/31 36/36/36 30/30/30
f 30/30/30 36/36/36 35/35/35
f 39/39/39 38/38/38 37/37/37
f 39/39/39 37/37/37 40/40/40
f 39/39/39 40/40/40 41/41/41
f 39/39/39 41/41/41 42/42/42
f 41/41/41 43/43/43 42/42/42
f 37/37/37 44/44/44 43/43/43
f 43/43/43 44/44/44 42/42/42
f 37/37/37 38/38/38 44/44/44
f 47/47/47 46/46/46 45/45/45
f 47/47/47 45/45/45 48/48/48
f 51/51/51 50/50/50 49/49/49
f 51/51/51 49/49/49 52/52/52
f 55/55/55 54/54/54 53/53/53
f 55/55/55 53/53/53 56/56/56
f 59/59/59 58/58/58 57/57/57
f 59/59/59 57/57/57 60/60/60
f 63/63/63 62/62/62 61/61/61
f 63/63/63 61/61/61 64/64/64
f 67/67/67 66/66/66 65/65/65
f 67/67/67 65/65/65 68/68/68
f 71/71/71 70/70/70 69/69/69
f 71/71/71 72/72/72 70/70/70
f 75/75/75 74/74/74 73/73/73
f 75/75/75 76/76/76 74/74/74
f 79/79/79 78/78/78 77/77/77
f 79/79/79 80/80/80 78/78/78
f 83/83/83 82/82/82 81/81/81
f 83/83/83 84/84/84 82/82/82
f 87/87/87 86/86/86 85/85/85
f 87/87/87 85/85/85 88/88/88
f 91/91/91 90/90/90 89/89/89
f 91/91/91 89/89/89 92/92/92
f 95/95/95 94/94/94 93/93/93
f 95/95/95 93/93/93 96/96/96
f 99/99/99 98/98/98 97/97/97
f 99/99/99 97/97/97 100/100/100
f 103/103/103 102/102/102 101/101/101
f 103/103/103 101/101/101 104/104/104
f 107/107/107 106/106/106 105/105/105
f 107/107/107 105/105/105 108/108/108
f 111/111/111 110/110/110 109/109/109
f 111/111/111 112/112/112 110/110/110
f 115/115/115 114/114/114 113/113/113
f 115/115/115 116/116/116 114/114/114
f 119/119/119 118/118/118 117/117/117
f 119/119/119 120/120/120 118/118/118
f 123/123/123 122/122/122 121/121/121
f 123/123/123 124/124/124 122/122/122
f 127/127/127 126/126/126 125/125/125
f 127/127/127 128/128/128 126/126/126
f 131/131/131 130/130/130 129/129/129
f 131/131/131 132/132/132 130/130/130
f 135/135/135 134/134/134 133/133/133
f 135/135/135 133/133/133 136/136/136
f 139/139/139 138/138/138 137/137/137
f 139/139/139 137/137/137 140/140/140
f 137/137/137 138/138/138 141/141/141
f 139/139/139 140/140/140 142/142/142
f 142/142/142 141/141/141 143/143/143
f 141/141/141 138/138/138 143/143/143
f 139/139/139 142/142/142 144/144/144
f 142/142/142 143/143/143 144/144/144
f 147/147/147 146/146/146 145/145/145
f 147/147/147 145/145/145 148/148/148
f 145/145/145 146/146/146 149/149/149
f 147/147/147 148/148/148 150/150/150
f 150/150/150 149/149/149 151/151/151
f 149/149/149 146/146/146 151/151/151
f 147/147/147 150/150/150 152/152/152
f 150/150/150 151/151/151 152/152/152
f 155/155/155 154/154/154 153/153/153
f 155/155/155 156/156/156 154/154/154
f 154/154/154 157/157/157 153/153/153
f 155/155/155 158/158/158 156/156/156
f 158/158/158 159/159/159 157/157/157
f 157/157/157 159/159/159 153/153/153
f 155/155/155 160/160/160 158/158/158
f 158/158/158 160/160/160 159/159/159
g lycan__1__body_004_1
f 163/163/163 162/162/162 161/161/161
f 163/163/163 164/164/164 162/162/162
f 162/162/162 165/165/165 161/161/161
f 162/162/162 166/166/166 165/165/165
f 166/166/166 167/167/167 165/165/165
f 168/168/168 167/167/167 166/166/166
f 171/171/171 170/170/170 169/169/169
f 171/171/171 172/172/172 170/170/170
f 169/169/169 170/170/170 173/173/173
f 174/174/174 169/169/169 173/173/173
f 175/175/175 172/172/172 171/171/171
f 175/175/175 171/171/171 176/176/176
f 179/179/179 178/178/178 177/177/177
f 179/179/179 180/180/180 178/178/178
f 183/183/183 182/182/182 181/181/181
f 183/183/183 181/181/181 184/184/184
f 187/187/187 186/186/186 185/185/185
f 187/187/187 185/185/185 188/188/188
f 191/191/191 190/190/190 189/189/189
f 191/191/191 189/189/189 192/192/192
f 195/195/195 194/194/194 193/193/193
f 195/195/195 193/193/193 196/196/196
f 199/199/199 198/198/198 197/197/197
f 199/199/199 197/197/197 200/200/200
f 203/203/203 202/202/202 201/201/201
f 203/203/203 201/201/201 204/204/204
f 207/207/207 206/206/206 205/205/205
f 207/207/207 208/208/208 206/206/206
f 211/211/211 210/210/210 209/209/209
f 211/211/211 212/212/212 210/210/210
f 215/215/215 214/214/214 213/213/213
f 215/215/215 216/216/216 214/214/214
f 219/219/219 218/218/218 217/217/217
f 217/217/217 218/218/218 220/220/220
f 221/221/221 217/217/217 220/220/220
f 221/221/221 220/220/220 222/222/222
f 223/223/223 221/221/221 222/222/222
f 223/223/223 224/224/224 221/221/221
f 227/227/227 226/226/226 225/225/225
f 225/225/225 226/226/226 228/228/228
f 229/229/229 225/225/225 228/228/228
f 229/229/229 228/228/228 230/230/230
f 231/231/231 229/229/229 230/230/230
f 231/231/231 232/232/232 229/229/229
f 235/235/235 234/234/234 233/233/233
f 234/234/234 236/236/236 233/233/233
f 237/237/237 236/236/236 234/234/234
f 237/237/237 238/238/238 236/236/236
f 239/239/239 238/238/238 237/237/237
f 239/239/239 237/237/237 240/240/240
f 243/243/243 242/242/242 241/241/241
f 242/242/242 244/244/244 241/241/241
f 245/245/245 244/244/244 242/242/242
f 245/245/245 246/246/246 244/244/244
f 247/247/247 246/246/246 245/245/245
f 247/247/247 245/245/245 248/248/248
f 251/251/251 250/250/250 249/249/249
f 251/251/251 249/249/249 252/252/252
f 255/255/255 254/254/254 253/253/253
f 255/255/255 253/253/253 256/256/256
f 259/259/259 258/258/258 257/257/257
f 259/259/259 257/257/257 260/260/260
f 263/263/263 262/262/262 261/261/261
f 263/263/263 261/261/261 264/264/264
f 267/267/267 266/266/266 265/265/265
f 267/267/267 265/265/265 268/268/268
f 271/271/271 270/270/270 269/269/269
f 271/271/271 269/269/269 272/272/272
f 275/275/275 274/274/274 273/273/273
f 275/275/275 276/276/276 274/274/274
f 279/279/279 278/278/278 277/277/277
f 279/279/279 280/280/280 278/278/278
f 283/283/283 282/282/282 281/281/281
f 283/283/283 284/284/284 282/282/282
f 287/287/287 286/286/286 285/285/285
f 287/287/287 288/288/288 286/286/286
f 291/291/291 290/290/290 289/289/289
f 291/291/291 292/292/292 290/290/290
g lycan__1__body_004_2
f 295/295/295 294/294/294 293/293/293
f 296/296/296 295/295/295 293/293/293
f 299/299/299 298/298/298 297/297/297
f 300/300/300 299/299/299 297/297/297
f 303/303/303 302/302/302 301/301/301
f 304/304/304 303/303/303 301/301/301
f 307/307/307 306/306/306 305/305/305
f 308/308/308 307/307/307 305/305/305
g lycan__1__body_004_3
f 311/311/311 310/310/310 309/309/309
f 312/312/312 311/311/311 309/309/309
