g ogre_head_001
v -0.0375 -0.0598485 0.06117423
v -0.0375 -0.0848485 0.06117423
v -0.0375 -0.0848485 -0.06382578
v -0.0375 -0.0598485 -0.06382578
v 0.0375 -0.0848485 0.06117423
v 0.0375 -0.0598485 0.06117423
v 0.0375 -0.0848485 -0.06382578
v 0.0375 -0.0598485 -0.06382578
v 0.0375 -0.0848485 0.06117423
v -0.0375 -0.0848485 0.06117423
v -0.0375 -0.0598485 0.06117423
v 0.0375 -0.0598485 0.06117423
v -0.0375 -0.0848485 -0.06382578
v 0.0375 -0.0848485 -0.06382578
v -0.0375 -0.0598485 -0.06382578
v 0.0375 -0.0598485 -0.06382578
v -0.0125 -0.0848485 0.03617423
v -0.0375 -0.0848485 0.06117423
v 0.0375 -0.0848485 0.06117423
v 0.0125 -0.0848485 0.03617423
v -0.0125 -0.0848485 0.01117423
v 0.0125 -0.0848485 0.01117423
v -0.0125 -0.0848485 -0.01382578
v 0.0125 -0.0848485 -0.01382578
v -0.0125 -0.0848485 -0.03882578
v 0.0125 -0.0848485 -0.03882578
v -0.0375 -0.0848485 -0.06382578
v 0.0375 -0.0848485 -0.06382578
v -0.0125 -0.0848485 0.01117423
v -0.0125 -0.0848485 0.03617423
v 0.0125 -0.0848485 0.03617423
v 0.0125 -0.0848485 0.01117423
v -0.0125 -0.0848485 -0.03882578
v -0.0125 -0.0848485 -0.01382578
v 0.0125 -0.0848485 -0.01382578
v 0.0125 -0.0848485 -0.03882578
v -0.0375 -0.0598485 0.06117423
v -0.0125 -0.0598485 0.03617423
v 0.0375 -0.0598485 0.06117423
v 0.0125 -0.0598485 0.03617423
v -0.0125 -0.0598485 -0.03882578
v 0.0125 -0.0598485 -0.03882578
v -0.0375 -0.0598485 -0.06382578
v 0.0375 -0.0598485 -0.06382578
v -0.0125 -0.0848485 0.01117423
v -0.0125 -0.1598485 0.01117423
v -0.0125 -0.1598485 -0.01382578
v -0.0125 -0.0848485 -0.01382578
v 0.0125 -0.1598485 0.01117423
v 0.0125 -0.0848485 0.01117423
v 0.0125 -0.1598485 -0.01382578
v 0.0125 -0.0848485 -0.01382578
v 0.0125 -0.1598485 0.01117423
v -0.0125 -0.1598485 0.01117423
v -0.0125 -0.0848485 0.01117423
v 0.0125 -0.0848485 0.01117423
v -0.0125 -0.1598485 -0.01382578
v 0.0125 -0.1598485 -0.01382578
v -0.0125 -0.0848485 -0.01382578
v 0.0125 -0.0848485 -0.01382578
v -0.0125 -0.1598485 -0.01382578
v -0.0125 -0.1598485 0.01117423
v 0.0125 -0.1598485 0.01117423
v 0.0125 -0.1598485 -0.01382578
v -0.0125 0.1401515 -0.01382578
v -0.0125 -0.0598485 0.03617423
v -0.0125 -0.0598485 -0.03882578
v -0.0125 0.1401515 -0.03882578
v -0.0125 0.1651515 0.01117423
v -0.0125 0.1651515 -0.01382578
v -0.0125 0.1901515 0.03617423
v -0.0125 0.1901515 0.01117423
v 0.0125 -0.0598485 0.03617423
v 0.0125 0.1401515 -0.01382578
v 0.0125 -0.0598485 -0.03882578
v 0.0125 0.1401515 -0.03882578
v 0.0125 0.1651515 0.01117423
v 0.0125 0.1651515 -0.01382578
v 0.0125 0.1901515 0.03617423
v 0.0125 0.1901515 0.01117423
v 0.0125 -0.0598485 0.03617423
v -0.0125 -0.0598485 0.03617423
v -0.0125 0.1901515 0.03617423
v 0.0125 0.1901515 0.03617423
v -0.0125 0.1651515 0.01117423
v 0.0125 0.1651515 0.01117423
v -0.0125 0.1901515 0.01117423
v 0.0125 0.1901515 0.01117423
v -0.0125 0.1401515 -0.01382578
v 0.0125 0.1401515 -0.01382578
v -0.0125 0.1651515 -0.01382578
v 0.0125 0.1651515 -0.01382578
v -0.0125 -0.0598485 -0.03882578
v 0.0125 -0.0598485 -0.03882578
v -0.0125 0.1401515 -0.03882578
v 0.0125 0.1401515 -0.03882578
v -0.0125 0.1401515 -0.01382578
v -0.0125 0.1401515 -0.03882578
v 0.0125 0.1401515 -0.01382578
v 0.0125 0.1401515 -0.03882578
v -0.0125 0.1651515 0.01117423
v -0.0125 0.1651515 -0.01382578
v 0.0125 0.1651515 0.01117423
v 0.0125 0.1651515 -0.01382578
v -0.0125 0.1901515 0.03617423
v -0.0125 0.1901515 0.01117423
v 0.0125 0.1901515 0.03617423
v 0.0125 0.1901515 0.01117423
vt 0.181641 0.5
vt 0.181641 0.5
vt 0.181641 0.5
vt 0.181641 0.5
vt 0.181641 0.5
vt 0.181641 0.5
vt 0.181641 0.5
vt 0.181641 0.5
vt 0.181641 0.5
vt 0.181641 0.5
vt 0.181641 0.5
vt 0.181641 0.5
vt 0.181641 0.5
vt 0.181641 0.5
vt 0.181641 0.5
vt 0.181641 0.5
vt 0.181641 0.5
vt 0.181641 0.5
vt 0.181641 0.5
vt 0.181641 0.5
vt 0.181641 0.5
vt 0.181641 0.5
vt 0.181641 0.5
vt 0.181641 0.5
vt 0.181641 0.5
vt 0.181641 0.5
vt 0.181641 0.5
vt 0.181641 0.5
vt 0.962891 0.5
vt 0.962891 0.5
vt 0.962891 0.5
vt 0.962891 0.5
vt 0.962891 0.5
vt 0.962891 0.5
vt 0.962891 0.5
vt 0.962891 0.5
vt 0.181641 0.5
vt 0.181641 0.5
vt 0.181641 0.5
vt 0.181641 0.5
vt 0.181641 0.5
vt 0.181641 0.5
vt 0.181641 0.5
vt 0.181641 0.5
vt 0.853516 0.5
vt 0.853516 0.5
vt 0.853516 0.5
vt 0.853516 0.5
vt 0.853516 0.5
vt 0.853516 0.5
vt 0.853516 0.5
vt 0.853516 0.5
vt 0.853516 0.5
vt 0.853516 0.5
vt 0.853516 0.5
vt 0.853516 0.5
vt 0.853516 0.5
vt 0.853516 0.5
vt 0.853516 0.5
vt 0.853516 0.5
vt 0.853516 0.5
vt 0.853516 0.5
vt 0.853516 0.5
vt 0.853516 0.5
vt 0.962891 0.5
vt 0.962891 0.5
vt 0.962891 0.5
vt 0.962891 0.5
vt 0.962891 0.5
vt 0.962891 0.5
vt 0.962891 0.5
vt 0.962891 0.5
vt 0.962891 0.5
vt 0.962891 0.5
vt 0.962891 0.5
vt 0.962891 0.5
vt 0.962891 0.5
vt 0.962891 0.5
vt 0.962891 0.5
vt 0.962891 0.5
vt 0.962891 0.5
vt 0.962891 0.5
vt 0.962891 0.5
vt 0.962891 0.5
vt 0.962891 0.5
vt 0.962891 0.5
vt 0.962891 0.5
vt 0.962891 0.5
vt 0.962891 0.5
vt 0.962891 0.5
vt 0.962891 0.5
vt 0.962891 0.5
vt 0.962891 0.5
vt 0.962891 0.5
vt 0.962891 0.5
vt 0.962891 0.5
vt 0.962891 0.5
vt 0.962891 0.5
vt 0.962891 0.5
vt 0.962891 0.5
vt 0.962891 0.5
vt 0.962891 0.5
vt 0.962891 0.5
vt 0.962891 0.5
vt 0.962891 0.5
vt 0.962891 0.5
vt 0.962891 0.5
vt 0.962891 0.5
vn -1 0 0
vn -1 0 0
vn -1 0 0
vn -1 0 0
vn 1 0 0
vn 1 0 0
vn 1 0 0
vn 1 0 0
vn 0 0 1
vn 0 0 1
vn 0 0 1
vn 0 0 1
vn 0 0 -1
vn 0 0 -1
vn 0 0 -1
vn 0 0 -1
vn 0 -1 0
vn 0 -1 0
vn 0 -1 0
vn 0 -1 0
vn 0 -1 0
vn 0 -1 0
vn 0 -1 0
vn 0 -1 0
vn 0 -1 0
vn 0 -1 0
vn 0 -1 0
vn 0 -1 0
vn 0 -1 0
vn 0 -1 0
vn 0 -1 0
vn 0 -1 0
vn 0 -1 0
vn 0 -1 0
vn 0 -1 0
vn 0 -1 0
vn 0 1 0
vn 0 1 0
vn 0 1 0
vn 0 1 0
vn 0 1 0
vn 0 1 0
vn 0 1 0
vn 0 1 0
vn -1 0 0
vn -1 0 0
vn -1 0 0
vn -1 0 0
vn 1 0 0
vn 1 0 0
vn 1 0 0
vn 1 0 0
vn 0 0 1
vn 0 0 1
vn 0 0 1
vn 0 0 1
vn 0 0 -1
vn 0 0 -1
vn 0 0 -1
vn 0 0 -1
vn 0 -1 0
vn 0 -1 0
vn 0 -1 0
vn 0 -1 0
vn -1 0 0
vn -1 0 0
vn -1 0 0
vn -1 0 0
vn -1 0 0
vn -1 0 0
vn -1 0 0
vn -1 0 0
vn 1 0 0
vn 1 0 0
vn 1 0 0
vn 1 0 0
vn 1 0 0
vn 1 0 0
vn 1 0 0
vn 1 0 0
vn 0 0 1
vn 0 0 1
vn 0 0 1
vn 0 0 1
vn 0 0 -1
vn 0 0 -1
vn 0 0 -1
vn 0 0 -1
vn 0 0 -1
vn 0 0 -1
vn 0 0 -1
vn 0 0 -1
vn 0 0 -1
vn 0 0 -1
vn 0 0 -1
vn 0 0 -1
vn 0 1 0
vn 0 1 0
vn 0 1 0
vn 0 1 0
vn 0 1 0
vn 0 1 0
vn 0 1 0
vn 0 1 0
vn 0 1 0
vn 0 1 0
vn 0 1 0
vn 0 1 0
g ogre_head_001_0
f 3/3/3 2/2/2 1/1/1
f 1/1/1 4/4/4 3/3/3
f 7/7/7 6/6/6 5/5/5
f 7/7/7 8/8/8 6/6/6
f 11/11/11 10/10/10 9/9/9
f 11/11/11 9/9/9 12/12/12
f 15/15/15 14/14/14 13/13/13
f 15/15/15 16/16/16 14/14/14
f 19/19/19 18/18/18 17/17/17
f 19/19/19 17/17/17 20/20/20
f 17/17/17 18/18/18 21/21/21
f 19/19/19 20/20/20 22/22/22
f 21/21/21 18/18/18 23/23/23
f 19/19/19 22/22/22 24/24/24
f 23/23/23 18/18/18 25/25/25
f 19/19/19 24/24/24 26/26/26
f 25/25/25 18/18/18 27/27/27
f 26/26/26 25/25/25 27/27/27
f 19/19/19 26/26/26 28/28/28
f 26/26/26 27/27/27 28/28/28
f 31/31/31 30/30/30 29/29/29
f 31/31/31 29/29/29 32/32/32
f 35/35/35 34/34/34 33/33/33
f 35/35/35 33/33/33 36/36/36
f 39/39/39 38/38/38 37/37/37
f 39/39/39 40/40/40 38/38/38
f 38/38/38 41/41/41 37/37/37
f 39/39/39 42/42/42 40/40/40
f 41/41/41 43/43/43 37/37/37
f 42/42/42 43/43/43 41/41/41
f 39/39/39 44/44/44 42/42/42
f 42/42/42 44/44/44 43/43/43
g ogre_head_001_1
f 47/47/47 46/46/46 45/45/45
f 47/47/47 45/45/45 48/48/48
f 51/51/51 50/50/50 49/49/49
f 51/51/51 52/52/52 50/50/50
f 55/55/55 54/54/54 53/53/53
f 55/55/55 53/53/53 56/56/56
f 59/59/59 58/58/58 57/57/57
f 59/59/59 60/60/60 58/58/58
f 63/63/63 62/62/62 61/61/61
f 63/63/63 61/61/61 64/64/64
g ogre_head_001_2
f 67/67/67 66/66/66 65/65/65
f 67/67/67 65/65/65 68/68/68
f 65/65/65 66/66/66 69/69/69
f 65/65/65 69/69/69 70/70/70
f 69/69/69 66/66/66 71/71/71
f 69/69/69 71/71/71 72/72/72
f 75/75/75 74/74/74 73/73/73
f 75/75/75 76/76/76 74/74/74
f 74/74/74 77/77/77 73/73/73
f 74/74/74 78/78/78 77/77/77
f 77/77/77 79/79/79 73/73/73
f 77/77/77 80/80/80 79/79/79
f 83/83/83 82/82/82 81/81/81
f 83/83/83 81/81/81 84/84/84
f 87/87/87 86/86/86 85/85/85
f 87/87/87 88/88/88 86/86/86
f 91/91/91 90/90/90 89/89/89
f 91/91/91 92/92/92 90/90/90
f 95/95/95 94/94/94 93/93/93
f 95/95/95 96/96/96 94/94/94
f 99/99/99 98/98/98 97/97/97
f 99/99/99 100/100/100 98/98/98
f 103/103/103 102/102/102 101/101/101
f 103/103/103 104/104/104 102/102/102
f 107/107/107 106/106/106 105/105/105
f 107/107/107 108/108/108 106/106/106
