g R_leg_001
v -0.075 0.125 -0.025
v -0.075 0 -0.025
v -0.025 0 -0.025
v -0.025 0.125 -0.025
v -0.025 0.125 0.025
v -0.025 0.025 0.025
v -0.075 0.025 0.025
v -0.075 0.125 0.025
v -0.025 0.025 0.075
v -0.025 0 0.075
v -0.075 0 0.075
v -0.075 0.025 0.075
v -0.025 0 -0.025
v -0.025 0 0.075
v -0.025 0.025 0.025
v -0.025 0.125 -0.025
v -0.025 0.125 0.025
v -0.025 0.025 0.075
v -0.025 0.025 0.075
v -0.075 0.025 0.075
v -0.075 0.025 0.025
v -0.025 0.025 0.025
v -0.025 0 -0.025
v -0.075 0 -0.025
v -0.075 0 0.075
v -0.025 0 0.075
v -0.075 0.025 0.075
v -0.075 0 0.075
v -0.075 0 -0.025
v -0.075 0.025 0.025
v -0.075 0.125 -0.025
v -0.075 0.125 0.025
v -0.025 0.125 0.025
v -0.075 0.125 0.025
v -0.075 0.125 -0.025
v -0.025 0.125 -0.025
vt 0.580078 0.5
vt 0.580078 0.5
vt 0.580078 0.5
vt 0.580078 0.5
vt 0.580078 0.5
vt 0.580078 0.5
vt 0.580078 0.5
vt 0.580078 0.5
vt 0.580078 0.5
vt 0.580078 0.5
vt 0.580078 0.5
vt 0.580078 0.5
vt 0.580078 0.5
vt 0.580078 0.5
vt 0.580078 0.5
vt 0.580078 0.5
vt 0.580078 0.5
vt 0.580078 0.5
vt 0.580078 0.5
vt 0.580078 0.5
vt 0.580078 0.5
vt 0.580078 0.5
vt 0.580078 0.5
vt 0.580078 0.5
vt 0.580078 0.5
vt 0.580078 0.5
vt 0.580078 0.5
vt 0.580078 0.5
vt 0.580078 0.5
vt 0.580078 0.5
vt 0.580078 0.5
vt 0.580078 0.5
vt 0.580078 0.5
vt 0.580078 0.5
vt 0.580078 0.5
vt 0.580078 0.5
vn 0 0 -1
vn 0 0 -1
vn 0 0 -1
vn 0 0 -1
vn 0 0 1
vn 0 0 1
vn 0 0 1
vn 0 0 1
vn 0 0 1
vn 0 0 1
vn 0 0 1
vn 0 0 1
vn 1 0 0
vn 1 0 0
vn 1 0 0
vn 1 0 0
vn 1 0 0
vn 1 0 0
vn 0 1 0
vn 0 1 0
vn 0 1 0
vn 0 1 0
vn 0 -1 0
vn 0 -1 0
vn 0 -1 0
vn 0 -1 0
vn -1 0 0
vn -1 0 0
vn -1 0 0
vn -1 0 0
vn -1 0 0
vn -1 0 0
vn 0 1 0
vn 0 1 0
vn 0 1 0
vn 0 1 0
g R_leg_001_0
f 3/3/3 2/2/2 1/1/1
f 4/4/4 3/3/3 1/1/1
f 7/7/7 6/6/6 5/5/5
f 8/8/8 7/7/7 5/5/5
f 11/11/11 10/10/10 9/9/9
f 12/12/12 11/11/11 9/9/9
f 15/15/15 14/14/14 13/13/13
f 13/13/13 16/16/16 15/15/15
f 16/16/16 17/17/17 15/15/15
f 14/14/14 15/15/15 18/18/18
f 21/21/21 20/20/20 19/19/19
f 22/22/22 21/21/21 19/19/19
f 25/25/25 24/24/24 23/23/23
f 26/26/26 25/25/25 23/23/23
f 29/29/29 28/28/28 27/27/27
f 27/27/27 30/30/30 29/29/29
f 30/30/30 31/31/31 29/29/29
f 30/30/30 32/32/32 31/31/31
g R_leg_001_1
f 35/35/35 34/34/34 33/33/33
f 36/36/36 35/35/35 33/33/33
