g Skel_L_leg_001
v 0.075 0.025 -0.025
v 0.075 0.05 -0.025
v 0.05 0.05 -0.025
v 0.05 0.025 -0.025
v 0.05 0.05 0.025
v 0.05 0.025 0.025
v 0.05 0.025 -0.025
v 0.05 0.05 -0.025
v 0.075 0.025 0.025
v 0.075 0.05 0.025
v 0.075 0.025 -0.025
v 0.075 0.05 -0.025
v 0.075 0.025 0.025
v 0.05 0.025 0.025
v 0.05 0.05 0.025
v 0.075 0.05 0.025
v 0.05 0.025 0.075
v 0.05 0 0.075
v 0.05 0 -0.025
v 0.05 0.025 0.025
v 0.05 0.025 -0.025
v 0.05 0.125 -0.025
v 0.05 0.05 -0.025
v 0.075 0.05 -0.025
v 0.075 0.125 -0.025
v 0.075 0 0.075
v 0.075 0.025 0.075
v 0.075 0 -0.025
v 0.075 0.025 0.025
v 0.075 0.025 -0.025
v 0.05 0.125 0.025
v 0.075 0.125 0.025
v 0.075 0.05 0.025
v 0.05 0.05 0.025
v 0.075 0.05 -0.025
v 0.075 0.05 0.025
v 0.075 0.125 0.025
v 0.075 0.125 -0.025
v 0.075 0 0.075
v 0.05 0 0.075
v 0.05 0.025 0.075
v 0.075 0.025 0.075
v 0.05 0 -0.025
v 0.075 0 -0.025
v 0.05 0.025 -0.025
v 0.075 0.025 -0.025
v 0.05 0 -0.025
v 0.05 0 0.075
v 0.075 0 0.075
v 0.075 0 -0.025
v 0.05 0.025 0.075
v 0.05 0.025 0.025
v 0.075 0.025 0.075
v 0.075 0.025 0.025
v 0.05 0.125 -0.025
v 0.05 0.125 0.025
v 0.05 0.05 0.025
v 0.05 0.05 -0.025
v 0.075 0.125 -0.025
v 0.075 0.125 0.025
v 0.05 0.125 0.025
v 0.05 0.125 -0.025
vt 0.181641 0.5
vt 0.181641 0.5
vt 0.181641 0.5
vt 0.181641 0.5
vt 0.181641 0.5
vt 0.181641 0.5
vt 0.181641 0.5
vt 0.181641 0.5
vt 0.181641 0.5
vt 0.181641 0.5
vt 0.181641 0.5
vt 0.181641 0.5
vt 0.181641 0.5
vt 0.181641 0.5
vt 0.181641 0.5
vt 0.181641 0.5
vt 0.962891 0.5
vt 0.962891 0.5
vt 0.962891 0.5
vt 0.962891 0.5
vt 0.962891 0.5
vt 0.962891 0.5
vt 0.962891 0.5
vt 0.962891 0.5
vt 0.962891 0.5
vt 0.962891 0.5
vt 0.962891 0.5
vt 0.962891 0.5
vt 0.962891 0.5
vt 0.962891 0.5
vt 0.962891 0.5
vt 0.962891 0.5
vt 0.962891 0.5
vt 0.962891 0.5
vt 0.962891 0.5
vt 0.962891 0.5
vt 0.962891 0.5
vt 0.962891 0.5
vt 0.962891 0.5
vt 0.962891 0.5
vt 0.962891 0.5
vt 0.962891 0.5
vt 0.962891 0.5
vt 0.962891 0.5
vt 0.962891 0.5
vt 0.962891 0.5
vt 0.962891 0.5
vt 0.962891 0.5
vt 0.962891 0.5
vt 0.962891 0.5
vt 0.962891 0.5
vt 0.962891 0.5
vt 0.962891 0.5
vt 0.962891 0.5
vt 0.962891 0.5
vt 0.962891 0.5
vt 0.962891 0.5
vt 0.962891 0.5
vt 0.962891 0.5
vt 0.962891 0.5
vt 0.962891 0.5
vt 0.962891 0.5
vn 0 0 -1
vn 0 0 -1
vn 0 0 -1
vn 0 0 -1
vn -1 0 0
vn -1 0 0
vn -1 0 0
vn -1 0 0
vn 1 0 0
vn 1 0 0
vn 1 0 0
vn 1 0 0
vn 0 0 1
vn 0 0 1
vn 0 0 1
vn 0 0 1
vn -1 0 0
vn -1 0 0
vn -1 0 0
vn -1 0 0
vn -1 0 0
vn 0 0 -1
vn 0 0 -1
vn 0 0 -1
vn 0 0 -1
vn 1 0 0
vn 1 0 0
vn 1 0 0
vn 1 0 0
vn 1 0 0
vn 0 0 1
vn 0 0 1
vn 0 0 1
vn 0 0 1
vn 1 0 0
vn 1 0 0
vn 1 0 0
vn 1 0 0
vn 0 0 1
vn 0 0 1
vn 0 0 1
vn 0 0 1
vn 0 0 -1
vn 0 0 -1
vn 0 0 -1
vn 0 0 -1
vn 0 -1 0
vn 0 -1 0
vn 0 -1 0
vn 0 -1 0
vn 0 1 0
vn 0 1 0
vn 0 1 0
vn 0 1 0
vn -1 0 0
vn -1 0 0
vn -1 0 0
vn -1 0 0
vn 0 1 0
vn 0 1 0
vn 0 1 0
vn 0 1 0
g Skel_L_leg_001_0
f 3/3/3 2/2/2 1/1/1
f 3/3/3 1/1/1 4/4/4
f 7/7/7 6/6/6 5/5/5
f 7/7/7 5/5/5 8/8/8
f 11/11/11 10/10/10 9/9/9
f 11/11/11 12/12/12 10/10/10
f 15/15/15 14/14/14 13/13/13
f 15/15/15 13/13/13 16/16/16
g Skel_L_leg_001_1
f 19/19/19 18/18/18 17/17/17
f 19/19/19 17/17/17 20/20/20
f 19/19/19 20/20/20 21/21/21
f 24/24/24 23/23/23 22/22/22
f 25/25/25 24/24/24 22/22/22
f 28/28/28 27/27/27 26/26/26
f 28/28/28 29/29/29 27/27/27
f 28/28/28 30/30/30 29/29/29
f 33/33/33 32/32/32 31/31/31
f 34/34/34 33/33/33 31/31/31
f 37/37/37 36/36/36 35/35/35
f 38/38/38 37/37/37 35/35/35
f 41/41/41 40/40/40 39/39/39
f 41/41/41 39/39/39 42/42/42
f 45/45/45 44/44/44 43/43/43
f 45/45/45 46/46/46 44/44/44
f 49/49/49 48/48/48 47/47/47
f 49/49/49 47/47/47 50/50/50
f 53/53/53 52/52/52 51/51/51
f 53/53/53 54/54/54 52/52/52
f 57/57/57 56/56/56 55/55/55
f 58/58/58 57/57/57 55/55/55
g Skel_L_leg_001_2
f 61/61/61 60/60/60 59/59/59
f 62/62/62 61/61/61 59/59/59
