g Skel_torso
v 0.075 0.35 -0.025
v 0.075 0.35 0.05
v 0.075 0.375 0.05
v 0.075 0.375 -0.025
v -0.025 0.325 0.05
v -0.025 0.3 0.05
v -0.075 0.3 0.05
v -0.075 0.325 0.05
v -0.05 0.375 0
v -0.025 0.375 0
v -0.025 0.35 0
v -0.05 0.35 0
v 0.025 0.325 0.025
v 0.025 0.325 0.05
v 0.025 0.3 0.05
v 0.025 0.3 0.025
v 0.025 0.325 0.025
v 0.025 0.3 0.025
v 0.05 0.3 0.025
v 0.05 0.325 0.025
v 0.025 0.375 0.025
v 0.025 0.35 0.025
v 0.05 0.35 0.025
v 0.05 0.375 0.025
v -0.05 0.325 0.025
v -0.05 0.3 0.025
v -0.025 0.3 0.025
v -0.025 0.325 0.025
v -0.075 0.325 -0.025
v -0.075 0.325 0.05
v -0.075 0.3 0.05
v -0.075 0.3 -0.025
v 0.025 0.375 0.05
v 0.025 0.375 0.025
v 0.05 0.375 0.025
v 0.075 0.375 0.05
v 0.05 0.375 0
v 0.075 0.375 -0.025
v 0.025 0.375 0
v 0.025 0.375 -0.025
v 0.075 0.375 0.05
v 0.075 0.35 0.05
v 0.025 0.35 0.05
v 0.025 0.375 0.05
v 0.05 0.325 0
v 0.05 0.325 0.025
v 0.05 0.3 0.025
v 0.05 0.3 0
v -0.025 0.35 0.05
v -0.025 0.35 0.025
v -0.05 0.35 0.025
v -0.075 0.35 0.05
v -0.05 0.35 0
v -0.075 0.35 -0.025
v -0.025 0.35 0
v -0.025 0.35 -0.025
v -0.025 0.375 0.025
v -0.025 0.35 0.025
v -0.025 0.35 0
v -0.025 0.375 0
v -0.025 0.4 0.025
v -0.025 0.375 -0.025
v -0.025 0.4 -0.025
v -0.025 0.35 -0.025
v -0.025 0.325 -0.025
v -0.025 0.325 0
v -0.025 0.325 0.025
v -0.025 0.3 0
v -0.025 0.3 0.025
v -0.1 0.425 0.025
v 0.1 0.425 0.025
v 0.1 0.4 0.025
v 0.025 0.4 0.025
v -0.025 0.4 0.025
v 0.025 0.375 0.025
v 0.025 0.35 0.025
v 0.025 0.325 0.025
v 0.025 0.3 0.025
v -0.1 0.4 0.025
v -0.025 0.3 0.025
v -0.025 0.375 0.025
v -0.025 0.35 0.025
v -0.025 0.325 0.025
v 0.075 0.3 -0.025
v 0.025 0.3 -0.025
v 0.05 0.3 0
v 0.075 0.3 0.05
v 0.05 0.3 0.025
v 0.025 0.3 0.025
v 0.025 0.3 0.05
v 0.025 0.3 0
v 0.025 0.3 -0.025
v 0.075 0.3 -0.025
v 0.075 0.325 -0.025
v 0.025 0.325 -0.025
v -0.025 0.3 -0.025
v 0.025 0.35 -0.025
v 0.025 0.375 -0.025
v 0.025 0.4 -0.025
v -0.025 0.4 -0.025
v -0.1 0.425 -0.025
v 0.1 0.425 -0.025
v 0.1 0.4 -0.025
v -0.025 0.325 -0.025
v -0.075 0.3 -0.025
v -0.075 0.325 -0.025
v -0.025 0.35 -0.025
v -0.025 0.375 -0.025
v -0.075 0.35 -0.025
v -0.075 0.375 -0.025
v -0.1 0.4 -0.025
v 0.075 0.375 -0.025
v 0.075 0.35 -0.025
v 0.1 0.4 -0.025
v 0.025 0.4 -0.025
v 0.025 0.4 0.025
v 0.1 0.4 0.025
v -0.025 0.325 0
v -0.025 0.3 0
v -0.05 0.3 0
v -0.05 0.325 0
v 0.1 0.425 0.025
v -0.1 0.425 0.025
v -0.1 0.425 -0.025
v 0.1 0.425 -0.025
v 0.075 0.3 -0.025
v 0.075 0.3 0.05
v 0.075 0.325 0.05
v 0.075 0.325 -0.025
v -0.075 0.375 -0.025
v -0.025 0.375 -0.025
v -0.05 0.375 0
v -0.075 0.375 0.05
v -0.05 0.375 0.025
v -0.025 0.375 0.025
v -0.025 0.375 0.05
v -0.025 0.375 0
v -0.05 0.3 0
v -0.05 0.3 0.025
v -0.05 0.325 0.025
v -0.05 0.325 0
v 0.1 0.4 -0.025
v 0.1 0.4 0.025
v 0.1 0.425 0.025
v 0.1 0.425 -0.025
v -0.05 0.375 0.025
v -0.05 0.35 0.025
v -0.025 0.35 0.025
v -0.025 0.375 0.025
v -0.025 0.3 0.025
v -0.025 0.3 0.05
v -0.025 0.325 0.05
v -0.025 0.325 0.025
v 0.025 0.375 0.025
v 0.025 0.375 0.05
v 0.025 0.35 0.05
v 0.025 0.35 0.025
v -0.1 0.425 0.025
v -0.1 0.4 0.025
v -0.1 0.4 -0.025
v -0.1 0.425 -0.025
v 0.025 0.4 -0.025
v 0.025 0.375 -0.025
v 0.025 0.375 0
v 0.025 0.375 0.025
v 0.025 0.4 0.025
v 0.025 0.35 0.025
v 0.025 0.35 0
v 0.025 0.35 -0.025
v 0.025 0.325 0.025
v 0.025 0.325 0
v 0.025 0.325 -0.025
v 0.025 0.3 0.025
v 0.025 0.3 0
v 0.05 0.375 0
v 0.05 0.375 0.025
v 0.05 0.35 0.025
v 0.05 0.35 0
v 0.075 0.325 0.05
v 0.075 0.3 0.05
v 0.025 0.3 0.05
v 0.025 0.325 0.05
v -0.025 0.3 0.05
v -0.025 0.3 0.025
v -0.05 0.3 0.025
v -0.075 0.3 0.05
v -0.05 0.3 0
v -0.075 0.3 -0.025
v -0.025 0.3 0
v -0.025 0.3 -0.025
v 0.075 0.35 -0.025
v 0.025 0.35 -0.025
v 0.05 0.35 0
v 0.075 0.35 0.05
v 0.05 0.35 0.025
v 0.025 0.35 0.025
v 0.025 0.35 0.05
v 0.025 0.35 0
v 0.05 0.325 0
v 0.05 0.3 0
v 0.025 0.3 0
v 0.025 0.325 0
v -0.05 0.35 0
v -0.05 0.35 0.025
v -0.05 0.375 0.025
v -0.05 0.375 0
v -0.075 0.325 -0.025
v -0.025 0.325 -0.025
v -0.05 0.325 0
v -0.075 0.325 0.05
v -0.05 0.325 0.025
v -0.025 0.325 0.025
v -0.025 0.325 0.05
v -0.025 0.325 0
v -0.075 0.375 -0.025
v -0.075 0.375 0.05
v -0.075 0.35 0.05
v -0.075 0.35 -0.025
v 0.025 0.325 0.05
v 0.025 0.325 0.025
v 0.05 0.325 0.025
v 0.075 0.325 0.05
v 0.05 0.325 0
v 0.075 0.325 -0.025
v 0.025 0.325 0
v 0.025 0.325 -0.025
v -0.025 0.4 -0.025
v -0.1 0.4 -0.025
v -0.1 0.4 0.025
v -0.025 0.4 0.025
v -0.025 0.35 0.025
v -0.025 0.35 0.05
v -0.025 0.375 0.05
v -0.025 0.375 0.025
v -0.025 0.375 0.05
v -0.025 0.35 0.05
v -0.075 0.35 0.05
v -0.075 0.375 0.05
v 0.05 0.375 0
v 0.05 0.35 0
v 0.025 0.35 0
v 0.025 0.375 0
v 0.025 0.3 -0.025
vt 0.962891 0.5
vt 0.962891 0.5
vt 0.962891 0.5
vt 0.962891 0.5
vt 0.962891 0.5
vt 0.962891 0.5
vt 0.962891 0.5
vt 0.962891 0.5
vt 0.962891 0.5
vt 0.962891 0.5
vt 0.962891 0.5
vt 0.962891 0.5
vt 0.962891 0.5
vt 0.962891 0.5
vt 0.962891 0.5
vt 0.962891 0.5
vt 0.962891 0.5
vt 0.962891 0.5
vt 0.962891 0.5
vt 0.962891 0.5
vt 0.962891 0.5
vt 0.962891 0.5
vt 0.962891 0.5
vt 0.962891 0.5
vt 0.962891 0.5
vt 0.962891 0.5
vt 0.962891 0.5
vt 0.962891 0.5
vt 0.962891 0.5
vt 0.962891 0.5
vt 0.962891 0.5
vt 0.962891 0.5
vt 0.962891 0.5
vt 0.962891 0.5
vt 0.962891 0.5
vt 0.962891 0.5
vt 0.962891 0.5
vt 0.962891 0.5
vt 0.962891 0.5
vt 0.962891 0.5
vt 0.962891 0.5
vt 0.962891 0.5
vt 0.962891 0.5
vt 0.962891 0.5
vt 0.962891 0.5
vt 0.962891 0.5
vt 0.962891 0.5
vt 0.962891 0.5
vt 0.962891 0.5
vt 0.962891 0.5
vt 0.962891 0.5
vt 0.962891 0.5
vt 0.962891 0.5
vt 0.962891 0.5
vt 0.962891 0.5
vt 0.962891 0.5
vt 0.962891 0.5
vt 0.962891 0.5
vt 0.962891 0.5
vt 0.962891 0.5
vt 0.962891 0.5
vt 0.962891 0.5
vt 0.962891 0.5
vt 0.962891 0.5
vt 0.962891 0.5
vt 0.962891 0.5
vt 0.962891 0.5
vt 0.962891 0.5
vt 0.962891 0.5
vt 0.962891 0.5
vt 0.962891 0.5
vt 0.962891 0.5
vt 0.962891 0.5
vt 0.962891 0.5
vt 0.962891 0.5
vt 0.962891 0.5
vt 0.962891 0.5
vt 0.962891 0.5
vt 0.962891 0.5
vt 0.962891 0.5
vt 0.962891 0.5
vt 0.962891 0.5
vt 0.962891 0.5
vt 0.962891 0.5
vt 0.962891 0.5
vt 0.962891 0.5
vt 0.962891 0.5
vt 0.962891 0.5
vt 0.962891 0.5
vt 0.962891 0.5
vt 0.962891 0.5
vt 0.962891 0.5
vt 0.962891 0.5
vt 0.962891 0.5
vt 0.962891 0.5
vt 0.962891 0.5
vt 0.962891 0.5
vt 0.962891 0.5
vt 0.962891 0.5
vt 0.962891 0.5
vt 0.962891 0.5
vt 0.962891 0.5
vt 0.962891 0.5
vt 0.962891 0.5
vt 0.962891 0.5
vt 0.962891 0.5
vt 0.962891 0.5
vt 0.962891 0.5
vt 0.962891 0.5
vt 0.962891 0.5
vt 0.962891 0.5
vt 0.962891 0.5
vt 0.962891 0.5
vt 0.962891 0.5
vt 0.962891 0.5
vt 0.962891 0.5
vt 0.962891 0.5
vt 0.962891 0.5
vt 0.962891 0.5
vt 0.962891 0.5
vt 0.962891 0.5
vt 0.962891 0.5
vt 0.962891 0.5
vt 0.962891 0.5
vt 0.962891 0.5
vt 0.962891 0.5
vt 0.962891 0.5
vt 0.962891 0.5
vt 0.962891 0.5
vt 0.962891 0.5
vt 0.962891 0.5
vt 0.962891 0.5
vt 0.962891 0.5
vt 0.962891 0.5
vt 0.962891 0.5
vt 0.962891 0.5
vt 0.962891 0.5
vt 0.962891 0.5
vt 0.962891 0.5
vt 0.962891 0.5
vt 0.962891 0.5
vt 0.962891 0.5
vt 0.962891 0.5
vt 0.962891 0.5
vt 0.962891 0.5
vt 0.962891 0.5
vt 0.962891 0.5
vt 0.962891 0.5
vt 0.962891 0.5
vt 0.962891 0.5
vt 0.962891 0.5
vt 0.962891 0.5
vt 0.962891 0.5
vt 0.962891 0.5
vt 0.962891 0.5
vt 0.962891 0.5
vt 0.962891 0.5
vt 0.962891 0.5
vt 0.962891 0.5
vt 0.962891 0.5
vt 0.962891 0.5
vt 0.962891 0.5
vt 0.962891 0.5
vt 0.962891 0.5
vt 0.962891 0.5
vt 0.962891 0.5
vt 0.962891 0.5
vt 0.962891 0.5
vt 0.962891 0.5
vt 0.962891 0.5
vt 0.962891 0.5
vt 0.962891 0.5
vt 0.962891 0.5
vt 0.962891 0.5
vt 0.962891 0.5
vt 0.962891 0.5
vt 0.962891 0.5
vt 0.962891 0.5
vt 0.962891 0.5
vt 0.962891 0.5
vt 0.962891 0.5
vt 0.962891 0.5
vt 0.962891 0.5
vt 0.962891 0.5
vt 0.962891 0.5
vt 0.962891 0.5
vt 0.962891 0.5
vt 0.962891 0.5
vt 0.962891 0.5
vt 0.962891 0.5
vt 0.962891 0.5
vt 0.962891 0.5
vt 0.962891 0.5
vt 0.962891 0.5
vt 0.962891 0.5
vt 0.962891 0.5
vt 0.962891 0.5
vt 0.962891 0.5
vt 0.962891 0.5
vt 0.962891 0.5
vt 0.962891 0.5
vt 0.962891 0.5
vt 0.962891 0.5
vt 0.962891 0.5
vt 0.962891 0.5
vt 0.962891 0.5
vt 0.962891 0.5
vt 0.962891 0.5
vt 0.962891 0.5
vt 0.962891 0.5
vt 0.962891 0.5
vt 0.962891 0.5
vt 0.962891 0.5
vt 0.962891 0.5
vt 0.962891 0.5
vt 0.962891 0.5
vt 0.962891 0.5
vt 0.962891 0.5
vt 0.962891 0.5
vt 0.962891 0.5
vt 0.962891 0.5
vt 0.962891 0.5
vt 0.962891 0.5
vt 0.962891 0.5
vt 0.962891 0.5
vt 0.962891 0.5
vt 0.962891 0.5
vt 0.962891 0.5
vt 0.962891 0.5
vt 0.962891 0.5
vt 0.962891 0.5
vt 0.962891 0.5
vt 0.962891 0.5
vt 0.962891 0.5
vt 0.962891 0.5
vt 0.962891 0.5
vt 0.962891 0.5
vt 0.962891 0.5
vt 0.962891 0.5
vt 0.962891 0.5
vt 0.962891 0.5
vt 0.962891 0.5
vt 0 0
vn 1 0 0
vn 1 0 0
vn 1 0 0
vn 1 0 0
vn 0 0 1
vn 0 0 1
vn 0 0 1
vn 0 0 1
vn 0 0 1
vn 0 0 1
vn 0 0 1
vn 0 0 1
vn -1 0 0
vn -1 0 0
vn -1 0 0
vn -1 0 0
vn 0 0 -1
vn 0 0 -1
vn 0 0 -1
vn 0 0 -1
vn 0 0 -1
vn 0 0 -1
vn 0 0 -1
vn 0 0 -1
vn 0 0 -1
vn 0 0 -1
vn 0 0 -1
vn 0 0 -1
vn -1 0 0
vn -1 0 0
vn -1 0 0
vn -1 0 0
vn 0 1 0
vn 0 1 0
vn 0 1 0
vn 0 1 0
vn 0 1 0
vn 0 1 0
vn 0 1 0
vn 0 1 0
vn 0 0 1
vn 0 0 1
vn 0 0 1
vn 0 0 1
vn -1 0 0
vn -1 0 0
vn -1 0 0
vn -1 0 0
vn 0 -1 0
vn 0 -1 0
vn 0 -1 0
vn 0 -1 0
vn 0 -1 0
vn 0 -1 0
vn 0 -1 0
vn 0 -1 0
vn -1 0 0
vn -1 0 0
vn -1 0 0
vn -1 0 0
vn -1 0 0
vn -1 0 0
vn -1 0 0
vn -1 0 0
vn -1 0 0
vn -1 0 0
vn -1 0 0
vn -1 0 0
vn -1 0 0
vn 0 0 1
vn 0 0 1
vn 0 0 1
vn 0 0 1
vn 0 0 1
vn 0 0 1
vn 0 0 1
vn 0 0 1
vn 0 0 1
vn 0 0 1
vn 0 0 1
vn 0 0 1
vn 0 0 1
vn 0 0 1
vn 0 -1 0
vn 0 -1 0
vn 0 -1 0
vn 0 -1 0
vn 0 -1 0
vn 0 -1 0
vn 0 -1 0
vn 0 -1 0
vn 0 0 -1
vn 0 0 -1
vn 0 0 -1
vn 0 0 -1
vn 0 0 -1
vn 0 0 -1
vn 0 0 -1
vn 0 0 -1
vn 0 0 -1
vn 0 0 -1
vn 0 0 -1
vn 0 0 -1
vn 0 0 -1
vn 0 0 -1
vn 0 0 -1
vn 0 0 -1
vn 0 0 -1
vn 0 0 -1
vn 0 0 -1
vn 0 0 -1
vn 0 0 -1
vn 0 0 -1
vn 0 -1 0
vn 0 -1 0
vn 0 -1 0
vn 0 -1 0
vn 0 0 1
vn 0 0 1
vn 0 0 1
vn 0 0 1
vn 0 1 0
vn 0 1 0
vn 0 1 0
vn 0 1 0
vn 1 0 0
vn 1 0 0
vn 1 0 0
vn 1 0 0
vn 0 1 0
vn 0 1 0
vn 0 1 0
vn 0 1 0
vn 0 1 0
vn 0 1 0
vn 0 1 0
vn 0 1 0
vn 1 0 0
vn 1 0 0
vn 1 0 0
vn 1 0 0
vn 1 0 0
vn 1 0 0
vn 1 0 0
vn 1 0 0
vn 0 0 -1
vn 0 0 -1
vn 0 0 -1
vn 0 0 -1
vn 1 0 0
vn 1 0 0
vn 1 0 0
vn 1 0 0
vn -1 0 0
vn -1 0 0
vn -1 0 0
vn -1 0 0
vn -1 0 0
vn -1 0 0
vn -1 0 0
vn -1 0 0
vn 1 0 0
vn 1 0 0
vn 1 0 0
vn 1 0 0
vn 1 0 0
vn 1 0 0
vn 1 0 0
vn 1 0 0
vn 1 0 0
vn 1 0 0
vn 1 0 0
vn 1 0 0
vn 1 0 0
vn -1 0 0
vn -1 0 0
vn -1 0 0
vn -1 0 0
vn 0 0 1
vn 0 0 1
vn 0 0 1
vn 0 0 1
vn 0 -1 0
vn 0 -1 0
vn 0 -1 0
vn 0 -1 0
vn 0 -1 0
vn 0 -1 0
vn 0 -1 0
vn 0 -1 0
vn 0 -1 0
vn 0 -1 0
vn 0 -1 0
vn 0 -1 0
vn 0 -1 0
vn 0 -1 0
vn 0 -1 0
vn 0 -1 0
vn 0 0 1
vn 0 0 1
vn 0 0 1
vn 0 0 1
vn 1 0 0
vn 1 0 0
vn 1 0 0
vn 1 0 0
vn 0 1 0
vn 0 1 0
vn 0 1 0
vn 0 1 0
vn 0 1 0
vn 0 1 0
vn 0 1 0
vn 0 1 0
vn -1 0 0
vn -1 0 0
vn -1 0 0
vn -1 0 0
vn 0 1 0
vn 0 1 0
vn 0 1 0
vn 0 1 0
vn 0 1 0
vn 0 1 0
vn 0 1 0
vn 0 1 0
vn 0 -1 0
vn 0 -1 0
vn 0 -1 0
vn 0 -1 0
vn 1 0 0
vn 1 0 0
vn 1 0 0
vn 1 0 0
vn 0 0 1
vn 0 0 1
vn 0 0 1
vn 0 0 1
vn 0 0 1
vn 0 0 1
vn 0 0 1
vn 0 0 1
vn 0 -1 0
g Skel_torso_0
f 3/3/3 2/2/2 1/1/1
f 4/4/4 3/3/3 1/1/1
f 7/7/7 6/6/6 5/5/5
f 8/8/8 7/7/7 5/5/5
f 11/11/11 10/10/10 9/9/9
f 12/12/12 11/11/11 9/9/9
f 15/15/15 14/14/14 13/13/13
f 16/16/16 15/15/15 13/13/13
f 19/19/19 18/18/18 17/17/17
f 20/20/20 19/19/19 17/17/17
f 23/23/23 22/22/22 21/21/21
f 24/24/24 23/23/23 21/21/21
f 27/27/27 26/26/26 25/25/25
f 28/28/28 27/27/27 25/25/25
f 31/31/31 30/30/30 29/29/29
f 32/32/32 31/31/31 29/29/29
f 35/35/35 34/34/34 33/33/33
f 35/35/35 33/33/33 36/36/36
f 37/37/37 35/35/35 36/36/36
f 37/37/37 36/36/36 38/38/38
f 39/39/39 37/37/37 38/38/38
f 38/38/38 40/40/40 39/39/39
f 43/43/43 42/42/42 41/41/41
f 44/44/44 43/43/43 41/41/41
f 47/47/47 46/46/46 45/45/45
f 48/48/48 47/47/47 45/45/45
f 51/51/51 50/50/50 49/49/49
f 51/51/51 49/49/49 52/52/52
f 53/53/53 51/51/51 52/52/52
f 53/53/53 52/52/52 54/54/54
f 55/55/55 53/53/53 54/54/54
f 54/54/54 56/56/56 55/55/55
f 59/59/59 58/58/58 57/57/57
f 57/57/57 60/60/60 59/59/59
f 57/57/57 61/61/61 60/60/60
f 61/61/61 62/62/62 60/60/60
f 61/61/61 63/63/63 62/62/62
f 58/58/58 59/59/59 64/64/64
f 58/58/58 64/64/64 65/65/65
f 58/58/58 65/65/65 66/66/66
f 67/67/67 58/58/58 66/66/66
f 67/67/67 66/66/66 68/68/68
f 68/68/68 69/69/69 67/67/67
f 72/72/72 71/71/71 70/70/70
f 70/70/70 73/73/73 72/72/72
f 70/70/70 74/74/74 73/73/73
f 74/74/74 75/75/75 73/73/73
f 74/74/74 76/76/76 75/75/75
f 74/74/74 77/77/77 76/76/76
f 74/74/74 78/78/78 77/77/77
f 70/70/70 79/79/79 74/74/74
f 80/80/80 78/78/78 74/74/74
f 74/74/74 81/81/81 80/80/80
f 81/81/81 82/82/82 80/80/80
f 82/82/82 83/83/83 80/80/80
f 86/86/86 85/85/85 84/84/84
f 84/84/84 87/87/87 86/86/86
f 87/87/87 88/88/88 86/86/86
f 87/87/87 89/89/89 88/88/88
f 87/87/87 90/90/90 89/89/89
f 85/85/85 86/86/86 91/91/91
f 94/94/94 93/93/93 92/92/92
f 92/92/92 95/95/95 94/94/94
f 92/92/92 96/96/96 95/95/95
f 96/96/96 97/97/97 95/95/95
f 96/96/96 98/98/98 97/97/97
f 96/96/96 99/99/99 98/98/98
f 99/99/99 96/96/96 100/100/100
f 99/99/99 100/100/100 101/101/101
f 99/99/99 101/101/101 102/102/102
f 102/102/102 103/103/103 99/99/99
f 96/96/96 104/104/104 100/100/100
f 104/104/104 96/96/96 105/105/105
f 105/105/105 106/106/106 104/104/104
f 104/104/104 107/107/107 100/100/100
f 107/107/107 108/108/108 100/100/100
f 108/108/108 107/107/107 109/109/109
f 109/109/109 110/110/110 108/108/108
f 100/100/100 111/111/111 101/101/101
f 97/97/97 98/98/98 112/112/112
f 112/112/112 113/113/113 97/97/97
f 116/116/116 115/115/115 114/114/114
f 117/117/117 116/116/116 114/114/114
f 120/120/120 119/119/119 118/118/118
f 121/121/121 120/120/120 118/118/118
f 124/124/124 123/123/123 122/122/122
f 125/125/125 124/124/124 122/122/122
f 128/128/128 127/127/127 126/126/126
f 129/129/129 128/128/128 126/126/126
f 132/132/132 131/131/131 130/130/130
f 130/130/130 133/133/133 132/132/132
f 133/133/133 134/134/134 132/132/132
f 133/133/133 135/135/135 134/134/134
f 133/133/133 136/136/136 135/135/135
f 131/131/131 132/132/132 137/137/137
f 140/140/140 139/139/139 138/138/138
f 141/141/141 140/140/140 138/138/138
f 144/144/144 143/143/143 142/142/142
f 145/145/145 144/144/144 142/142/142
f 148/148/148 147/147/147 146/146/146
f 149/149/149 148/148/148 146/146/146
f 152/152/152 151/151/151 150/150/150
f 153/153/153 152/152/152 150/150/150
f 156/156/156 155/155/155 154/154/154
f 157/157/157 156/156/156 154/154/154
f 160/160/160 159/159/159 158/158/158
f 161/161/161 160/160/160 158/158/158
f 164/164/164 163/163/163 162/162/162
f 162/162/162 165/165/165 164/164/164
f 162/162/162 166/166/166 165/165/165
f 164/164/164 165/165/165 167/167/167
f 168/168/168 164/164/164 167/167/167
f 169/169/169 168/168/168 167/167/167
f 169/169/169 167/167/167 170/170/170
f 169/169/169 170/170/170 171/171/171
f 171/171/171 172/172/172 169/169/169
f 171/171/171 170/170/170 173/173/173
f 173/173/173 174/174/174 171/171/171
f 177/177/177 176/176/176 175/175/175
f 178/178/178 177/177/177 175/175/175
f 181/181/181 180/180/180 179/179/179
f 182/182/182 181/181/181 179/179/179
f 185/185/185 184/184/184 183/183/183
f 185/185/185 183/183/183 186/186/186
f 187/187/187 185/185/185 186/186/186
f 187/187/187 186/186/186 188/188/188
f 189/189/189 187/187/187 188/188/188
f 188/188/188 190/190/190 189/189/189
f 193/193/193 192/192/192 191/191/191
f 191/191/191 194/194/194 193/193/193
f 194/194/194 195/195/195 193/193/193
f 194/194/194 196/196/196 195/195/195
f 194/194/194 197/197/197 196/196/196
f 192/192/192 193/193/193 198/198/198
f 201/201/201 200/200/200 199/199/199
f 202/202/202 201/201/201 199/199/199
f 205/205/205 204/204/204 203/203/203
f 206/206/206 205/205/205 203/203/203
f 209/209/209 208/208/208 207/207/207
f 207/207/207 210/210/210 209/209/209
f 210/210/210 211/211/211 209/209/209
f 210/210/210 212/212/212 211/211/211
f 210/210/210 213/213/213 212/212/212
f 208/208/208 209/209/209 214/214/214
f 217/217/217 216/216/216 215/215/215
f 218/218/218 217/217/217 215/215/215
f 221/221/221 220/220/220 219/219/219
f 221/221/221 219/219/219 222/222/222
f 223/223/223 221/221/221 222/222/222
f 223/223/223 222/222/222 224/224/224
f 225/225/225 223/223/223 224/224/224
f 224/224/224 226/226/226 225/225/225
f 229/229/229 228/228/228 227/227/227
f 230/230/230 229/229/229 227/227/227
f 233/233/233 232/232/232 231/231/231
f 234/234/234 233/233/233 231/231/231
f 237/237/237 236/236/236 235/235/235
f 238/238/238 237/237/237 235/235/235
f 241/241/241 240/240/240 239/239/239
f 242/242/242 241/241/241 239/239/239
g Skel_torso_1
f 190/190/190 243/243/243 89/89/89
f 89/89/89 189/189/189 190/190/190
f 89/89/89 184/184/184 189/189/189
