g Skel_R_arm_001
v -0.125 0.425 0.025
v -0.125 0.3 0.025
v -0.125 0.3 -0.025
v -0.125 0.425 -0.025
v -0.1 0.3 0.025
v -0.1 0.425 0.025
v -0.1 0.3 -0.025
v -0.1 0.425 -0.025
v -0.1 0.3 0.025
v -0.125 0.3 0.025
v -0.125 0.425 0.025
v -0.1 0.425 0.025
v -0.125 0.3 -0.025
v -0.1 0.3 -0.025
v -0.125 0.425 -0.025
v -0.1 0.425 -0.025
v -0.125 0.425 0.025
v -0.125 0.425 -0.025
v -0.1 0.425 0.025
v -0.1 0.425 -0.025
v -0.125 0.3 -0.025
v -0.125 0.3 0.025
v -0.1 0.3 0.025
v -0.1 0.3 -0.025
vt 0.962891 0.5
vt 0.962891 0.5
vt 0.962891 0.5
vt 0.962891 0.5
vt 0.962891 0.5
vt 0.962891 0.5
vt 0.962891 0.5
vt 0.962891 0.5
vt 0.962891 0.5
vt 0.962891 0.5
vt 0.962891 0.5
vt 0.962891 0.5
vt 0.962891 0.5
vt 0.962891 0.5
vt 0.962891 0.5
vt 0.962891 0.5
vt 0.962891 0.5
vt 0.962891 0.5
vt 0.962891 0.5
vt 0.962891 0.5
vt 0.962891 0.5
vt 0.962891 0.5
vt 0.962891 0.5
vt 0.962891 0.5
vn -1 0 0
vn -1 0 0
vn -1 0 0
vn -1 0 0
vn 1 0 0
vn 1 0 0
vn 1 0 0
vn 1 0 0
vn 0 0 1
vn 0 0 1
vn 0 0 1
vn 0 0 1
vn 0 0 -1
vn 0 0 -1
vn 0 0 -1
vn 0 0 -1
vn 0 1 0
vn 0 1 0
vn 0 1 0
vn 0 1 0
vn 0 -1 0
vn 0 -1 0
vn 0 -1 0
vn 0 -1 0
g Skel_R_arm_001_0
f 3/3/3 2/2/2 1/1/1
f 3/3/3 1/1/1 4/4/4
f 7/7/7 6/6/6 5/5/5
f 7/7/7 8/8/8 6/6/6
f 11/11/11 10/10/10 9/9/9
f 11/11/11 9/9/9 12/12/12
f 15/15/15 14/14/14 13/13/13
f 15/15/15 16/16/16 14/14/14
f 19/19/19 18/18/18 17/17/17
f 19/19/19 20/20/20 18/18/18
g Skel_R_arm_001_1
f 23/23/23 22/22/22 21/21/21
f 24/24/24 23/23/23 21/21/21
