g sword.swordr
v -3.5 -0.1 7.1
v -3.5 -0.1 4.5
v -3.5 0.1 4.5
v -3.5 0.1 7.1
v -3.3 -0.1 7.5
v -3.3 -0.1 7.1
v -3.3 0.1 7.1
v -3.3 0.1 7.5
v -3.3 -0.1 4.3
v -3.3 -0.1 3.3
v -3.3 0.1 3.3
v -3.3 0.1 4.3
v -3.9 -0.1 4.5
v -3.9 -0.1 4.3
v -3.9 0.1 4.3
v -3.9 0.1 4.5
v -3.1 0.1 7.1
v -3.1 -0.1 7.1
v -3.1 -0.1 7.5
v -3.1 0.1 7.5
v -3.1 0.1 3.3
v -3.1 -0.1 3.3
v -3.1 -0.1 4.3
v -3.1 0.1 4.3
v -2.5 0.1 4.3
v -2.5 -0.1 4.3
v -2.5 -0.1 4.5
v -2.5 0.1 4.5
v -2.9 0.1 4.5
v -2.9 -0.1 4.5
v -2.9 -0.1 7.1
v -2.9 0.1 7.1
v -3.1 0.1 4.3
v -3.1 -0.1 4.3
v -2.5 -0.1 4.3
v -2.5 0.1 4.3
v -3.9 0.1 4.3
v -3.9 -0.1 4.3
v -3.3 -0.1 4.3
v -3.3 0.1 4.3
v -3.3 0.1 3.3
v -3.3 -0.1 3.3
v -3.1 -0.1 3.3
v -3.1 0.1 3.3
v -3.1 -0.1 7.5
v -3.3 -0.1 7.5
v -3.3 0.1 7.5
v -3.1 0.1 7.5
v -2.5 -0.1 4.5
v -2.9 -0.1 4.5
v -2.9 0.1 4.5
v -2.5 0.1 4.5
v -3.5 -0.1 4.5
v -3.9 -0.1 4.5
v -3.9 0.1 4.5
v -3.5 0.1 4.5
v -2.9 -0.1 7.1
v -3.1 -0.1 7.1
v -3.1 0.1 7.1
v -2.9 0.1 7.1
v -3.3 -0.1 7.1
v -3.5 -0.1 7.1
v -3.5 0.1 7.1
v -3.3 0.1 7.1
v -2.5 -0.1 4.3
v -3.1 -0.1 4.3
v -2.9 -0.1 4.5
v -2.9 -0.1 4.5
v -2.5 -0.1 4.5
v -3.1 -0.1 4.3
v -3.5 -0.1 4.5
v -2.9 -0.1 4.5
v -3.3 -0.1 4.3
v -3.1 -0.1 4.3
v -2.9 -0.1 4.5
v -3.5 -0.1 4.5
v -3.1 -0.1 7.1
v -3.1 -0.1 7.1
v -3.3 -0.1 7.1
v -3.1 -0.1 7.1
v -2.9 -0.1 7.1
v -3.3 -0.1 7.1
v -3.5 -0.1 7.1
v -3.3 -0.1 4.3
v -3.9 -0.1 4.3
v -3.5 -0.1 4.5
v -3.5 -0.1 4.5
v -3.9 -0.1 4.5
v -3.1 -0.1 3.3
v -3.3 -0.1 4.3
v -3.1 -0.1 4.3
v -3.3 -0.1 3.3
v -3.1 -0.1 7.1
v -3.3 -0.1 7.1
v -3.3 -0.1 7.5
v -3.1 -0.1 7.5
v -2.9 0.1 4.5
v -3.1 0.1 4.3
v -2.5 0.1 4.3
v -2.5 0.1 4.5
v -2.9 0.1 4.5
v -2.9 0.1 4.5
v -3.5 0.1 4.5
v -3.1 0.1 4.3
v -3.1 0.1 4.3
v -3.3 0.1 4.3
v -3.1 0.1 7.1
v -3.5 0.1 4.5
v -2.9 0.1 4.5
v -3.3 0.1 7.1
v -3.1 0.1 7.1
v -2.9 0.1 7.1
v -3.1 0.1 7.1
v -3.5 0.1 7.1
v -3.3 0.1 7.1
v -3.5 0.1 4.5
v -3.9 0.1 4.3
v -3.3 0.1 4.3
v -3.9 0.1 4.5
v -3.5 0.1 4.5
v -3.1 0.1 4.3
v -3.3 0.1 4.3
v -3.1 0.1 3.3
v -3.3 0.1 3.3
v -3.3 0.1 7.5
v -3.3 0.1 7.1
v -3.1 0.1 7.1
v -3.1 0.1 7.5
vt 0.7501768 0.333569
vt 0.8749116 0.333569
vt 0.8749116 0.6661953
vt 0.7500884 0.666431
vt 0.7501768 0.333569
vt 0.8749116 0.333569
vt 0.8749116 0.6661953
vt 0.7500884 0.666431
vt 0.125171 0.3335765
vt 0.2811645 0.3335765
vt 0.2811645 0.6661803
vt 0.1250855 0.6664235
vt 0.3751768 0.333569
vt 0.4999116 0.333569
vt 0.4999116 0.6661953
vt 0.3750884 0.666431
vt 0.8749116 0.6661953
vt 0.8749116 0.333569
vt 0.7501768 0.333569
vt 0.7500884 0.666431
vt 0.2811645 0.6661803
vt 0.2811645 0.3335765
vt 0.125171 0.3335765
vt 0.1250855 0.6664235
vt 0.4999116 0.6661953
vt 0.4999116 0.333569
vt 0.3751768 0.333569
vt 0.3750884 0.666431
vt 0.8749116 0.6661953
vt 0.8749116 0.333569
vt 0.7501768 0.333569
vt 0.7500884 0.666431
vt 0.4999116 0.6661953
vt 0.4999116 0.333569
vt 0.3751768 0.333569
vt 0.3750884 0.666431
vt 0.4999116 0.6661953
vt 0.4999116 0.333569
vt 0.3751768 0.333569
vt 0.3750884 0.666431
vt 0.4999116 0.6661953
vt 0.4999116 0.333569
vt 0.3751768 0.333569
vt 0.3750884 0.666431
vt 0.7501768 0.333569
vt 0.8749116 0.333569
vt 0.8749116 0.6661953
vt 0.7500884 0.666431
vt 0.3751768 0.333569
vt 0.4999116 0.333569
vt 0.4999116 0.6661953
vt 0.3750884 0.666431
vt 0.3751768 0.333569
vt 0.4999116 0.333569
vt 0.4999116 0.6661953
vt 0.3750884 0.666431
vt 0.7501768 0.333569
vt 0.8749116 0.333569
vt 0.8749116 0.6661953
vt 0.7500884 0.666431
vt 0.7501768 0.333569
vt 0.8749116 0.333569
vt 0.8749116 0.6661953
vt 0.7500884 0.666431
vt 0.375125 0.3335333
vt 0.4999 0.3335333
vt 0.4583083 0.6662667
vt 0.4998232 0.666431
vt 0.3750884 0.666431
vt 0.4166917 0.3337333
vt 0.499875 0.6664667
vt 0.3751 0.6664667
vt 0.4375 0.3336667
vt 0.3751875 0.3336667
vt 0.7501 0.3335333
vt 0.874875 0.3335333
vt 0.7916917 0.6662667
vt 0.7501875 0.6663333
vt 0.8125 0.6663333
vt 0.8748232 0.666431
vt 0.7500884 0.666431
vt 0.7501768 0.666431
vt 0.8749116 0.666431
vt 0.3751 0.3335333
vt 0.499875 0.3335333
vt 0.4166917 0.6662667
vt 0.3751768 0.666431
vt 0.4999116 0.666431
vt 0.281079 0.6664235
vt 0.1250855 0.3338197
vt 0.1250855 0.6664235
vt 0.2811645 0.3335765
vt 0.7501768 0.333569
vt 0.8749116 0.333569
vt 0.8749116 0.6661953
vt 0.7500884 0.666431
vt 0.4583083 0.6662667
vt 0.4999 0.3335333
vt 0.375125 0.3335333
vt 0.3750884 0.666431
vt 0.4998232 0.666431
vt 0.3751 0.6664667
vt 0.499875 0.6664667
vt 0.4166917 0.3337333
vt 0.3751875 0.3336667
vt 0.4375 0.3336667
vt 0.7916917 0.6662667
vt 0.874875 0.3335333
vt 0.7501 0.3335333
vt 0.8125 0.6663333
vt 0.7501875 0.6663333
vt 0.7500884 0.666431
vt 0.8748232 0.666431
vt 0.8749116 0.666431
vt 0.7501768 0.666431
vt 0.4166917 0.6662667
vt 0.499875 0.3335333
vt 0.3751 0.3335333
vt 0.4999116 0.666431
vt 0.3751768 0.666431
vt 0.1250855 0.6664235
vt 0.1250855 0.3338197
vt 0.281079 0.6664235
vt 0.2811645 0.3335765
vt 0.8749116 0.6661953
vt 0.8749116 0.333569
vt 0.7501768 0.333569
vt 0.7500884 0.666431
vn -1 0 0
vn -1 0 0
vn -1 0 0
vn -1 0 0
vn -1 0 0
vn -1 0 0
vn -1 0 0
vn -1 0 0
vn -1 0 0
vn -1 0 0
vn -1 0 0
vn -1 0 0
vn -1 0 0
vn -1 0 0
vn -1 0 0
vn -1 0 0
vn 1 0 0
vn 1 0 0
vn 1 0 0
vn 1 0 0
vn 1 0 0
vn 1 0 0
vn 1 0 0
vn 1 0 0
vn 1 0 0
vn 1 0 0
vn 1 0 0
vn 1 0 0
vn 1 0 0
vn 1 0 0
vn 1 0 0
vn 1 0 0
vn 0 0 -1
vn 0 0 -1
vn 0 0 -1
vn 0 0 -1
vn 0 0 -1
vn 0 0 -1
vn 0 0 -1
vn 0 0 -1
vn 0 0 -1
vn 0 0 -1
vn 0 0 -1
vn 0 0 -1
vn 0 0 1
vn 0 0 1
vn 0 0 1
vn 0 0 1
vn 0 0 1
vn 0 0 1
vn 0 0 1
vn 0 0 1
vn 0 0 1
vn 0 0 1
vn 0 0 1
vn 0 0 1
vn 0 0 1
vn 0 0 1
vn 0 0 1
vn 0 0 1
vn 0 0 1
vn 0 0 1
vn 0 0 1
vn 0 0 1
vn 0 -1 0
vn 0 -1 0
vn 0 -1 0
vn 0 -1 0
vn 0 -1 0
vn 0 -1 0
vn 0 -1 0
vn 0 -1 0
vn 0 -1 0
vn 0 -1 0
vn 0 -1 0
vn 0 -1 0
vn 0 -1 0
vn 0 -1 0
vn 0 -1 0
vn 0 -1 0
vn 0 -1 0
vn 0 -1 0
vn 0 -1 0
vn 0 -1 0
vn 0 -1 0
vn 0 -1 0
vn 0 -1 0
vn 0 -1 0
vn 0 -1 0
vn 0 -1 0
vn 0 -1 0
vn 0 -1 0
vn 0 -1 0
vn 0 -1 0
vn 0 -1 0
vn 0 -1 0
vn 0 1 0
vn 0 1 0
vn 0 1 0
vn 0 1 0
vn 0 1 0
vn 0 1 0
vn 0 1 0
vn 0 1 0
vn 0 1 0
vn 0 1 0
vn 0 1 0
vn 0 1 0
vn 0 1 0
vn 0 1 0
vn 0 1 0
vn 0 1 0
vn 0 1 0
vn 0 1 0
vn 0 1 0
vn 0 1 0
vn 0 1 0
vn 0 1 0
vn 0 1 0
vn 0 1 0
vn 0 1 0
vn 0 1 0
vn 0 1 0
vn 0 1 0
vn 0 1 0
vn 0 1 0
vn 0 1 0
vn 0 1 0
g sword.swordr_0
f 3/3/3 2/2/2 1/1/1
f 4/4/4 3/3/3 1/1/1
f 7/7/7 6/6/6 5/5/5
f 8/8/8 7/7/7 5/5/5
f 11/11/11 10/10/10 9/9/9
f 12/12/12 11/11/11 9/9/9
f 15/15/15 14/14/14 13/13/13
f 16/16/16 15/15/15 13/13/13
f 19/19/19 18/18/18 17/17/17
f 19/19/19 17/17/17 20/20/20
f 23/23/23 22/22/22 21/21/21
f 23/23/23 21/21/21 24/24/24
f 27/27/27 26/26/26 25/25/25
f 27/27/27 25/25/25 28/28/28
f 31/31/31 30/30/30 29/29/29
f 31/31/31 29/29/29 32/32/32
f 35/35/35 34/34/34 33/33/33
f 35/35/35 33/33/33 36/36/36
f 39/39/39 38/38/38 37/37/37
f 39/39/39 37/37/37 40/40/40
f 43/43/43 42/42/42 41/41/41
f 43/43/43 41/41/41 44/44/44
f 47/47/47 46/46/46 45/45/45
f 48/48/48 47/47/47 45/45/45
f 51/51/51 50/50/50 49/49/49
f 52/52/52 51/51/51 49/49/49
f 55/55/55 54/54/54 53/53/53
f 56/56/56 55/55/55 53/53/53
f 59/59/59 58/58/58 57/57/57
f 60/60/60 59/59/59 57/57/57
f 63/63/63 62/62/62 61/61/61
f 64/64/64 63/63/63 61/61/61
f 67/67/67 66/66/66 65/65/65
f 69/69/69 68/68/68 65/65/65
f 72/72/72 71/71/71 70/70/70
f 74/74/74 71/71/71 73/73/73
f 77/77/77 76/76/76 75/75/75
f 79/79/79 76/76/76 78/78/78
f 81/81/81 80/80/80 75/75/75
f 83/83/83 76/76/76 82/82/82
f 86/86/86 85/85/85 84/84/84
f 88/88/88 85/85/85 87/87/87
f 91/91/91 90/90/90 89/89/89
f 90/90/90 92/92/92 89/89/89
f 95/95/95 94/94/94 93/93/93
f 96/96/96 95/95/95 93/93/93
f 99/99/99 98/98/98 97/97/97
f 99/99/99 101/101/101 100/100/100
f 104/104/104 103/103/103 102/102/102
f 106/106/106 103/103/103 105/105/105
f 109/109/109 108/108/108 107/107/107
f 111/111/111 108/108/108 110/110/110
f 109/109/109 113/113/113 112/112/112
f 115/115/115 108/108/108 114/114/114
f 118/118/118 117/117/117 116/116/116
f 120/120/120 117/117/117 119/119/119
f 123/123/123 122/122/122 121/121/121
f 123/123/123 124/124/124 122/122/122
f 127/127/127 126/126/126 125/125/125
f 127/127/127 125/125/125 128/128/128
