g torso
v 0.1 0.228125 -0.025
v 0.1 0.228125 -0.05
v 0.1 0.2 -0.05
v 0.1 0.2 -0.025
v 0.1 0.25625 -0.025
v 0.1 0.25625 -0.05
v 0.1 0.284375 -0.025
v 0.1 0.284375 -0.05
v 0.1 0.228125 0
v 0.1 0.2 0
v 0.1 0.228125 0.025
v 0.1 0.2 0.025
v 0.1 0.228125 0.05
v 0.1 0.2 0.05
v 0.1 0.284375 0
v 0.1 0.25625 0
v 0.1 0.284375 0.025
v 0.1 0.25625 0.025
v 0.1 0.284375 0.05
v 0.1 0.25625 0.05
v -0.075 0.228125 0.05
v -0.075 0.2 0.05
v -0.1 0.2 0.05
v -0.1 0.228125 0.05
v -0.075 0.25625 0.05
v -0.1 0.25625 0.05
v -0.075 0.284375 0.05
v -0.1 0.284375 0.05
v -0.05 0.228125 0.05
v -0.05 0.2 0.05
v -0.025 0.228125 0.05
v -0.025 0.2 0.05
v 0 0.228125 0.05
v 0 0.2 0.05
v 0.025 0.228125 0.05
v 0.025 0.2 0.05
v 0.05 0.228125 0.05
v 0.05 0.2 0.05
v 0.075 0.228125 0.05
v 0.075 0.2 0.05
v 0.1 0.228125 0.05
v 0.1 0.2 0.05
v 0.1 0.25625 0.05
v 0.075 0.25625 0.05
v 0.1 0.284375 0.05
v 0.075 0.284375 0.05
v 0.05 0.25625 0.05
v 0.05 0.284375 0.05
v 0.025 0.25625 0.05
v 0 0.25625 0.05
v -0.025 0.25625 0.05
v -0.05 0.25625 0.05
v -0.05 0.284375 0.05
v -0.075 0.2 0.025
v -0.1 0.2 0.025
v -0.1 0.2 0.05
v -0.075 0.2 0.05
v -0.075 0.2 0
v -0.1 0.2 0
v -0.075 0.2 -0.025
v -0.1 0.2 -0.025
v -0.075 0.2 -0.05
v -0.1 0.2 -0.05
v -0.05 0.2 0.025
v -0.05 0.2 0.05
v -0.025 0.2 0.025
v -0.025 0.2 0.05
v 0 0.2 0.025
v 0 0.2 0.05
v 0.025 0.2 0.025
v 0.025 0.2 0.05
v 0.05 0.2 0.025
v 0.05 0.2 0.05
v 0.075 0.2 0.025
v 0.075 0.2 0.05
v 0.1 0.2 0.025
v 0.1 0.2 0.05
v 0.1 0.2 0
v 0.075 0.2 0
v 0.1 0.2 -0.025
v 0.075 0.2 -0.025
v 0.1 0.2 -0.05
v 0.075 0.2 -0.05
v 0.05 0.2 -0.025
v 0.05 0.2 -0.05
v 0.025 0.2 -0.025
v 0.025 0.2 -0.05
v 0 0.2 -0.025
v 0 0.2 -0.05
v -0.025 0.2 -0.025
v -0.025 0.2 -0.05
v -0.05 0.2 -0.025
v -0.05 0.2 -0.05
v 0.05 0.2 0
v 0.025 0.2 0
v 0 0.2 0
v -0.025 0.2 0
v -0.05 0.2 0
v -0.075 0.2 -0.05
v -0.075 0.228125 -0.05
v -0.1 0.228125 -0.05
v -0.1 0.2 -0.05
v -0.1 0.25625 -0.05
v -0.075 0.25625 -0.05
v -0.1 0.284375 -0.05
v -0.075 0.284375 -0.05
v -0.05 0.2 -0.05
v -0.05 0.228125 -0.05
v -0.025 0.2 -0.05
v -0.025 0.228125 -0.05
v 0 0.2 -0.05
v 0 0.228125 -0.05
v 0.025 0.2 -0.05
v 0.025 0.228125 -0.05
v 0.05 0.2 -0.05
v 0.05 0.228125 -0.05
v 0.075 0.2 -0.05
v 0.075 0.228125 -0.05
v 0.1 0.2 -0.05
v 0.1 0.228125 -0.05
v 0.075 0.25625 -0.05
v 0.1 0.25625 -0.05
v 0.05 0.25625 -0.05
v 0.025 0.25625 -0.05
v 0 0.25625 -0.05
v -0.025 0.25625 -0.05
v -0.05 0.25625 -0.05
v 0.075 0.284375 -0.05
v 0.1 0.284375 -0.05
v 0.05 0.284375 -0.05
v 0.025 0.284375 -0.05
v 0 0.284375 -0.05
v -0.025 0.284375 -0.05
v -0.05 0.284375 -0.05
v -0.1 0.2 -0.025
v -0.1 0.2 -0.05
v -0.1 0.228125 -0.05
v -0.1 0.228125 -0.025
v -0.1 0.25625 -0.05
v -0.1 0.25625 -0.025
v -0.1 0.284375 -0.05
v -0.1 0.284375 -0.025
v -0.1 0.2 0
v -0.1 0.228125 0
v -0.1 0.2 0.025
v -0.1 0.228125 0.025
v -0.1 0.2 0.05
v -0.1 0.228125 0.05
v -0.1 0.25625 0.025
v -0.1 0.25625 0.05
v -0.1 0.25625 0
v -0.1 0.284375 0.025
v -0.1 0.284375 0.05
v -0.1 0.284375 0
v 0.1 0.3125 -0.025
v 0.1 0.3125 -0.05
v 0.1 0.3125 0
v 0.1 0.3125 0.025
v 0.1 0.3125 0.05
v -0.075 0.3125 -0.05
v -0.1 0.3125 -0.05
v -0.05 0.3125 -0.05
v -0.025 0.3125 -0.05
v 0 0.3125 -0.05
v 0.025 0.3125 -0.05
v 0.05 0.3125 -0.05
v 0.075 0.3125 -0.05
v 0.1 0.3125 -0.05
v -0.1 0.3125 -0.05
v -0.1 0.3125 -0.025
v -0.1 0.3125 0
v -0.1 0.3125 0.025
v -0.1 0.3125 0.05
v -0.075 0.3125 0.05
v -0.1 0.3125 0.05
v -0.05 0.3125 0.05
v 0.1 0.3125 0.05
v 0.075 0.3125 0.05
v 0.05 0.3125 0.05
v 0.025 0.3125 0.05
v 0.025 0.284375 0.05
v 0 0.284375 0.05
v 0 0.3125 0.05
v -0.025 0.284375 0.05
v -0.025 0.3125 0.05
v -0.1 0.3125 -0.025
v -0.1 0.3125 -0.05
v -0.075 0.3125 -0.05
v -0.05 0.3125 -0.05
v -0.025 0.3125 -0.05
v 0 0.3125 -0.05
v 0.025 0.3125 -0.05
v 0.05 0.3125 -0.05
v 0.075 0.3125 -0.05
v 0.1 0.3125 -0.05
v 0.1 0.3125 -0.025
v -0.1 0.3125 0
v 0.1 0.3125 0
v -0.1 0.3125 0.025
v 0.1 0.3125 0.025
v -0.1 0.3125 0.05
v 0.1 0.3125 0.05
v -0.075 0.3125 0.05
v -0.05 0.3125 0.05
v -0.025 0.3125 0.05
v 0 0.3125 0.05
v 0.025 0.3125 0.05
v 0.05 0.3125 0.05
v 0.075 0.3125 0.05
vt 0.649414 0.5
vt 0.64502 0.5
vt 0.654297 0.5
vt 0.654297 0.5
vt 0.644531 0.5
vt 0.635742 0.5
vt 0.639648 0.5
vt 0.626465 0.5
vt 0.653809 0.5
vt 0.654297 0.5
vt 0.658203 0.5
vt 0.654297 0.5
vt 0.662598 0.5
vt 0.654297 0.5
vt 0.652832 0.5
vt 0.65332 0.5
vt 0.666016 0.5
vt 0.662109 0.5
vt 0.679199 0.5
vt 0.670899 0.5
vt 0.647217 0.5
vt 0.654297 0.5
vt 0.654297 0.5
vt 0.64502 0.5
vt 0.640137 0.5
vt 0.635742 0.5
vt 0.633057 0.5
vt 0.626465 0.5
vt 0.649414 0.5
vt 0.654297 0.5
vt 0.651611 0.5
vt 0.654297 0.5
vt 0.653809 0.5
vt 0.654297 0.5
vt 0.656006 0.5
vt 0.654297 0.5
vt 0.658203 0.5
vt 0.654297 0.5
vt 0.660401 0.5
vt 0.654297 0.5
vt 0.662598 0.5
vt 0.654297 0.5
vt 0.670899 0.5
vt 0.666504 0.5
vt 0.679199 0.5
vt 0.672607 0.5
vt 0.662109 0.5
vt 0.666016 0.5
vt 0.657715 0.5
vt 0.65332 0.5
vt 0.648926 0.5
vt 0.644531 0.5
vt 0.639648 0.5
vt 0.654297 0.5
vt 0.654297 0.5
vt 0.654297 0.5
vt 0.654297 0.5
vt 0.654297 0.5
vt 0.654297 0.5
vt 0.654297 0.5
vt 0.654297 0.5
vt 0.654297 0.5
vt 0.654297 0.5
vt 0.654297 0.5
vt 0.654297 0.5
vt 0.654297 0.5
vt 0.654297 0.5
vt 0.654297 0.5
vt 0.654297 0.5
vt 0.654297 0.5
vt 0.654297 0.5
vt 0.654297 0.5
vt 0.654297 0.5
vt 0.654297 0.5
vt 0.654297 0.5
vt 0.654297 0.5
vt 0.654297 0.5
vt 0.654297 0.5
vt 0.654297 0.5
vt 0.654297 0.5
vt 0.654297 0.5
vt 0.654297 0.5
vt 0.654297 0.5
vt 0.654297 0.5
vt 0.654297 0.5
vt 0.654297 0.5
vt 0.654297 0.5
vt 0.654297 0.5
vt 0.654297 0.5
vt 0.654297 0.5
vt 0.654297 0.5
vt 0.654297 0.5
vt 0.654297 0.5
vt 0.654297 0.5
vt 0.654297 0.5
vt 0.654297 0.5
vt 0.654297 0.5
vt 0.654297 0.5
vt 0.654297 0.5
vt 0.64502 0.5
vt 0.64502 0.5
vt 0.654297 0.5
vt 0.635742 0.5
vt 0.635742 0.5
vt 0.626465 0.5
vt 0.626465 0.5
vt 0.654297 0.5
vt 0.64502 0.5
vt 0.654297 0.5
vt 0.64502 0.5
vt 0.654297 0.5
vt 0.64502 0.5
vt 0.654297 0.5
vt 0.64502 0.5
vt 0.654297 0.5
vt 0.64502 0.5
vt 0.654297 0.5
vt 0.64502 0.5
vt 0.654297 0.5
vt 0.64502 0.5
vt 0.635742 0.5
vt 0.635742 0.5
vt 0.635742 0.5
vt 0.635742 0.5
vt 0.635742 0.5
vt 0.635742 0.5
vt 0.635742 0.5
vt 0.626465 0.5
vt 0.626465 0.5
vt 0.626465 0.5
vt 0.626465 0.5
vt 0.626465 0.5
vt 0.626465 0.5
vt 0.626465 0.5
vt 0.654297 0.5
vt 0.654297 0.5
vt 0.64502 0.5
vt 0.64502 0.5
vt 0.635742 0.5
vt 0.635742 0.5
vt 0.626465 0.5
vt 0.626465 0.5
vt 0.654297 0.5
vt 0.64502 0.5
vt 0.654297 0.5
vt 0.64502 0.5
vt 0.654297 0.5
vt 0.64502 0.5
vt 0.635742 0.5
vt 0.635742 0.5
vt 0.635742 0.5
vt 0.626465 0.5
vt 0.626465 0.5
vt 0.626465 0.5
vt 0.634766 0.5
vt 0.617188 0.5
vt 0.652344 0.5
vt 0.669922 0.5
vt 0.6875 0.5
vt 0.617188 0.5
vt 0.617188 0.5
vt 0.617188 0.5
vt 0.617188 0.5
vt 0.617188 0.5
vt 0.617188 0.5
vt 0.617188 0.5
vt 0.617188 0.5
vt 0.617188 0.5
vt 0.617188 0.5
vt 0.617188 0.5
vt 0.617188 0.5
vt 0.617188 0.5
vt 0.617188 0.5
vt 0.625977 0.5
vt 0.617188 0.5
vt 0.634766 0.5
vt 0.6875 0.5
vt 0.678711 0.5
vt 0.669922 0.5
vt 0.661133 0.5
vt 0.659424 0.5
vt 0.652832 0.5
vt 0.652344 0.5
vt 0.64624 0.5
vt 0.643555 0.5
vt 0.617188 0.5
vt 0.617188 0.5
vt 0.617188 0.5
vt 0.617188 0.5
vt 0.617188 0.5
vt 0.617188 0.5
vt 0.617188 0.5
vt 0.617188 0.5
vt 0.617188 0.5
vt 0.617188 0.5
vt 0.634766 0.5
vt 0.617188 0.5
vt 0.652344 0.5
vt 0.617188 0.5
vt 0.669922 0.5
vt 0.617188 0.5
vt 0.6875 0.5
vt 0.625977 0.5
vt 0.634766 0.5
vt 0.643555 0.5
vt 0.652344 0.5
vt 0.661133 0.5
vt 0.669922 0.5
vt 0.678711 0.5
vn 1 0 0
vn 1 0 0
vn 1 0 0
vn 1 0 0
vn 1 0 0
vn 1 0 0
vn 1 0 0
vn 1 0 0
vn 1 0 0
vn 1 0 0
vn 1 0 0
vn 1 0 0
vn 1 0 0
vn 1 0 0
vn 1 0 0
vn 1 0 0
vn 1 0 0
vn 1 0 0
vn 1 0 0
vn 1 0 0
vn 0 0 1
vn 0 0 1
vn 0 0 1
vn 0 0 1
vn 0 0 1
vn 0 0 1
vn 0 0 1
vn 0 0 1
vn 0 0 1
vn 0 0 1
vn 0 0 1
vn 0 0 1
vn 0 0 1
vn 0 0 1
vn 0 0 1
vn 0 0 1
vn 0 0 1
vn 0 0 1
vn 0 0 1
vn 0 0 1
vn 0 0 1
vn 0 0 1
vn 0 0 1
vn 0 0 1
vn 0 0 1
vn 0 0 1
vn 0 0 1
vn 0 0 1
vn 0 0 1
vn 0 0 1
vn 0 0 1
vn 0 0 1
vn 0 0 1
vn 0 -1 0
vn 0 -1 0
vn 0 -1 0
vn 0 -1 0
vn 0 -1 0
vn 0 -1 0
vn 0 -1 0
vn 0 -1 0
vn 0 -1 0
vn 0 -1 0
vn 0 -1 0
vn 0 -1 0
vn 0 -1 0
vn 0 -1 0
vn 0 -1 0
vn 0 -1 0
vn 0 -1 0
vn 0 -1 0
vn 0 -1 0
vn 0 -1 0
vn 0 -1 0
vn 0 -1 0
vn 0 -1 0
vn 0 -1 0
vn 0 -1 0
vn 0 -1 0
vn 0 -1 0
vn 0 -1 0
vn 0 -1 0
vn 0 -1 0
vn 0 -1 0
vn 0 -1 0
vn 0 -1 0
vn 0 -1 0
vn 0 -1 0
vn 0 -1 0
vn 0 -1 0
vn 0 -1 0
vn 0 -1 0
vn 0 -1 0
vn 0 -1 0
vn 0 -1 0
vn 0 -1 0
vn 0 -1 0
vn 0 -1 0
vn 0 0 -1
vn 0 0 -1
vn 0 0 -1
vn 0 0 -1
vn 0 0 -1
vn 0 0 -1
vn 0 0 -1
vn 0 0 -1
vn 0 0 -1
vn 0 0 -1
vn 0 0 -1
vn 0 0 -1
vn 0 0 -1
vn 0 0 -1
vn 0 0 -1
vn 0 0 -1
vn 0 0 -1
vn 0 0 -1
vn 0 0 -1
vn 0 0 -1
vn 0 0 -1
vn 0 0 -1
vn 0 0 -1
vn 0 0 -1
vn 0 0 -1
vn 0 0 -1
vn 0 0 -1
vn 0 0 -1
vn 0 0 -1
vn 0 0 -1
vn 0 0 -1
vn 0 0 -1
vn 0 0 -1
vn 0 0 -1
vn 0 0 -1
vn 0 0 -1
vn -1 0 0
vn -1 0 0
vn -1 0 0
vn -1 0 0
vn -1 0 0
vn -1 0 0
vn -1 0 0
vn -1 0 0
vn -1 0 0
vn -1 0 0
vn -1 0 0
vn -1 0 0
vn -1 0 0
vn -1 0 0
vn -1 0 0
vn -1 0 0
vn -1 0 0
vn -1 0 0
vn -1 0 0
vn -1 0 0
vn 1 0 0
vn 1 0 0
vn 1 0 0
vn 1 0 0
vn 1 0 0
vn 0 0 -1
vn 0 0 -1
vn 0 0 -1
vn 0 0 -1
vn 0 0 -1
vn 0 0 -1
vn 0 0 -1
vn 0 0 -1
vn 0 0 -1
vn -1 0 0
vn -1 0 0
vn -1 0 0
vn -1 0 0
vn -1 0 0
vn 0 0 1
vn 0 0 1
vn 0 0 1
vn 0 0 1
vn 0 0 1
vn 0 0 1
vn 0 0 1
vn 0 0 1
vn 0 0 1
vn 0 0 1
vn 0 0 1
vn 0 0 1
vn 0 1 0
vn 0 1 0
vn 0 1 0
vn 0 1 0
vn 0 1 0
vn 0 1 0
vn 0 1 0
vn 0 1 0
vn 0 1 0
vn 0 1 0
vn 0 1 0
vn 0 1 0
vn 0 1 0
vn 0 1 0
vn 0 1 0
vn 0 1 0
vn 0 1 0
vn 0 1 0
vn 0 1 0
vn 0 1 0
vn 0 1 0
vn 0 1 0
vn 0 1 0
vn 0 1 0
g torso_0
f 3/3/3 2/2/2 1/1/1
f 4/4/4 3/3/3 1/1/1
f 1/1/1 2/2/2 5/5/5
f 2/2/2 6/6/6 5/5/5
f 5/5/5 6/6/6 7/7/7
f 6/6/6 8/8/8 7/7/7
f 4/4/4 1/1/1 9/9/9
f 10/10/10 4/4/4 9/9/9
f 10/10/10 9/9/9 11/11/11
f 12/12/12 10/10/10 11/11/11
f 12/12/12 11/11/11 13/13/13
f 14/14/14 12/12/12 13/13/13
f 5/5/5 7/7/7 15/15/15
f 16/16/16 5/5/5 15/15/15
f 1/1/1 5/5/5 16/16/16
f 9/9/9 1/1/1 16/16/16
f 16/16/16 15/15/15 17/17/17
f 18/18/18 16/16/16 17/17/17
f 9/9/9 16/16/16 18/18/18
f 11/11/11 9/9/9 18/18/18
f 18/18/18 17/17/17 19/19/19
f 20/20/20 18/18/18 19/19/19
f 11/11/11 18/18/18 20/20/20
f 13/13/13 11/11/11 20/20/20
f 23/23/23 22/22/22 21/21/21
f 24/24/24 23/23/23 21/21/21
f 24/24/24 21/21/21 25/25/25
f 26/26/26 24/24/24 25/25/25
f 26/26/26 25/25/25 27/27/27
f 28/28/28 26/26/26 27/27/27
f 21/21/21 22/22/22 29/29/29
f 22/22/22 30/30/30 29/29/29
f 29/29/29 30/30/30 31/31/31
f 30/30/30 32/32/32 31/31/31
f 31/31/31 32/32/32 33/33/33
f 32/32/32 34/34/34 33/33/33
f 33/33/33 34/34/34 35/35/35
f 34/34/34 36/36/36 35/35/35
f 35/35/35 36/36/36 37/37/37
f 36/36/36 38/38/38 37/37/37
f 37/37/37 38/38/38 39/39/39
f 38/38/38 40/40/40 39/39/39
f 39/39/39 40/40/40 41/41/41
f 40/40/40 42/42/42 41/41/41
f 39/39/39 41/41/41 43/43/43
f 44/44/44 39/39/39 43/43/43
f 37/37/37 39/39/39 44/44/44
f 44/44/44 43/43/43 45/45/45
f 46/46/46 44/44/44 45/45/45
f 47/47/47 44/44/44 46/46/46
f 47/47/47 37/37/37 44/44/44
f 35/35/35 37/37/37 47/47/47
f 48/48/48 47/47/47 46/46/46
f 49/49/49 35/35/35 47/47/47
f 33/33/33 35/35/35 49/49/49
f 50/50/50 33/33/33 49/49/49
f 31/31/31 33/33/33 50/50/50
f 51/51/51 31/31/31 50/50/50
f 29/29/29 31/31/31 51/51/51
f 52/52/52 29/29/29 51/51/51
f 21/21/21 29/29/29 52/52/52
f 25/25/25 21/21/21 52/52/52
f 25/25/25 52/52/52 53/53/53
f 27/27/27 25/25/25 53/53/53
f 56/56/56 55/55/55 54/54/54
f 57/57/57 56/56/56 54/54/54
f 54/54/54 55/55/55 58/58/58
f 55/55/55 59/59/59 58/58/58
f 58/58/58 59/59/59 60/60/60
f 59/59/59 61/61/61 60/60/60
f 60/60/60 61/61/61 62/62/62
f 61/61/61 63/63/63 62/62/62
f 57/57/57 54/54/54 64/64/64
f 65/65/65 57/57/57 64/64/64
f 65/65/65 64/64/64 66/66/66
f 67/67/67 65/65/65 66/66/66
f 67/67/67 66/66/66 68/68/68
f 69/69/69 67/67/67 68/68/68
f 69/69/69 68/68/68 70/70/70
f 71/71/71 69/69/69 70/70/70
f 71/71/71 70/70/70 72/72/72
f 73/73/73 71/71/71 72/72/72
f 73/73/73 72/72/72 74/74/74
f 75/75/75 73/73/73 74/74/74
f 75/75/75 74/74/74 76/76/76
f 77/77/77 75/75/75 76/76/76
f 76/76/76 74/74/74 78/78/78
f 74/74/74 79/79/79 78/78/78
f 74/74/74 72/72/72 79/79/79
f 78/78/78 79/79/79 80/80/80
f 79/79/79 81/81/81 80/80/80
f 80/80/80 81/81/81 82/82/82
f 81/81/81 83/83/83 82/82/82
f 81/81/81 84/84/84 83/83/83
f 84/84/84 85/85/85 83/83/83
f 84/84/84 86/86/86 85/85/85
f 86/86/86 87/87/87 85/85/85
f 86/86/86 88/88/88 87/87/87
f 88/88/88 89/89/89 87/87/87
f 88/88/88 90/90/90 89/89/89
f 90/90/90 91/91/91 89/89/89
f 90/90/90 92/92/92 91/91/91
f 92/92/92 93/93/93 91/91/91
f 92/92/92 60/60/60 93/93/93
f 60/60/60 62/62/62 93/93/93
f 94/94/94 84/84/84 81/81/81
f 79/79/79 94/94/94 81/81/81
f 95/95/95 86/86/86 84/84/84
f 94/94/94 95/95/95 84/84/84
f 96/96/96 88/88/88 86/86/86
f 95/95/95 96/96/96 86/86/86
f 97/97/97 90/90/90 88/88/88
f 96/96/96 97/97/97 88/88/88
f 98/98/98 92/92/92 90/90/90
f 97/97/97 98/98/98 90/90/90
f 58/58/58 60/60/60 92/92/92
f 98/98/98 58/58/58 92/92/92
f 72/72/72 94/94/94 79/79/79
f 70/70/70 95/95/95 94/94/94
f 72/72/72 70/70/70 94/94/94
f 68/68/68 96/96/96 95/95/95
f 70/70/70 68/68/68 95/95/95
f 66/66/66 97/97/97 96/96/96
f 68/68/68 66/66/66 96/96/96
f 64/64/64 98/98/98 97/97/97
f 66/66/66 64/64/64 97/97/97
f 54/54/54 58/58/58 98/98/98
f 64/64/64 54/54/54 98/98/98
f 101/101/101 100/100/100 99/99/99
f 102/102/102 101/101/101 99/99/99
f 101/101/101 103/103/103 100/100/100
f 103/103/103 104/104/104 100/100/100
f 103/103/103 105/105/105 104/104/104
f 105/105/105 106/106/106 104/104/104
f 99/99/99 100/100/100 107/107/107
f 100/100/100 108/108/108 107/107/107
f 100/100/100 104/104/104 108/108/108
f 107/107/107 108/108/108 109/109/109
f 108/108/108 110/110/110 109/109/109
f 109/109/109 110/110/110 111/111/111
f 110/110/110 112/112/112 111/111/111
f 111/111/111 112/112/112 113/113/113
f 112/112/112 114/114/114 113/113/113
f 113/113/113 114/114/114 115/115/115
f 114/114/114 116/116/116 115/115/115
f 115/115/115 116/116/116 117/117/117
f 116/116/116 118/118/118 117/117/117
f 117/117/117 118/118/118 119/119/119
f 118/118/118 120/120/120 119/119/119
f 118/118/118 121/121/121 120/120/120
f 121/121/121 122/122/122 120/120/120
f 123/123/123 121/121/121 118/118/118
f 116/116/116 123/123/123 118/118/118
f 124/124/124 123/123/123 116/116/116
f 114/114/114 124/124/124 116/116/116
f 125/125/125 124/124/124 114/114/114
f 112/112/112 125/125/125 114/114/114
f 126/126/126 125/125/125 112/112/112
f 110/110/110 126/126/126 112/112/112
f 127/127/127 126/126/126 110/110/110
f 108/108/108 127/127/127 110/110/110
f 104/104/104 127/127/127 108/108/108
f 121/121/121 128/128/128 122/122/122
f 128/128/128 129/129/129 122/122/122
f 130/130/130 128/128/128 121/121/121
f 123/123/123 130/130/130 121/121/121
f 131/131/131 130/130/130 123/123/123
f 124/124/124 131/131/131 123/123/123
f 132/132/132 131/131/131 124/124/124
f 125/125/125 132/132/132 124/124/124
f 133/133/133 132/132/132 125/125/125
f 126/126/126 133/133/133 125/125/125
f 134/134/134 133/133/133 126/126/126
f 127/127/127 134/134/134 126/126/126
f 106/106/106 134/134/134 127/127/127
f 104/104/104 106/106/106 127/127/127
f 137/137/137 136/136/136 135/135/135
f 138/138/138 137/137/137 135/135/135
f 139/139/139 137/137/137 138/138/138
f 140/140/140 139/139/139 138/138/138
f 141/141/141 139/139/139 140/140/140
f 142/142/142 141/141/141 140/140/140
f 138/138/138 135/135/135 143/143/143
f 144/144/144 138/138/138 143/143/143
f 140/140/140 138/138/138 144/144/144
f 144/144/144 143/143/143 145/145/145
f 146/146/146 144/144/144 145/145/145
f 146/146/146 145/145/145 147/147/147
f 148/148/148 146/146/146 147/147/147
f 149/149/149 146/146/146 148/148/148
f 150/150/150 149/149/149 148/148/148
f 151/151/151 144/144/144 146/146/146
f 149/149/149 151/151/151 146/146/146
f 151/151/151 140/140/140 144/144/144
f 142/142/142 140/140/140 151/151/151
f 152/152/152 149/149/149 150/150/150
f 153/153/153 152/152/152 150/150/150
f 154/154/154 151/151/151 149/149/149
f 152/152/152 154/154/154 149/149/149
f 154/154/154 142/142/142 151/151/151
g torso_1
f 8/8/8 156/156/156 155/155/155
f 7/7/7 8/8/8 155/155/155
f 7/7/7 155/155/155 157/157/157
f 15/15/15 7/7/7 157/157/157
f 15/15/15 157/157/157 158/158/158
f 17/17/17 15/15/15 158/158/158
f 17/17/17 158/158/158 159/159/159
f 19/19/19 17/17/17 159/159/159
f 161/161/161 160/160/160 106/106/106
f 105/105/105 161/161/161 106/106/106
f 106/106/106 160/160/160 134/134/134
f 160/160/160 162/162/162 134/134/134
f 134/134/134 162/162/162 133/133/133
f 162/162/162 163/163/163 133/133/133
f 133/133/133 163/163/163 132/132/132
f 163/163/163 164/164/164 132/132/132
f 132/132/132 164/164/164 131/131/131
f 164/164/164 165/165/165 131/131/131
f 131/131/131 165/165/165 130/130/130
f 165/165/165 166/166/166 130/130/130
f 130/130/130 166/166/166 128/128/128
f 166/166/166 167/167/167 128/128/128
f 128/128/128 167/167/167 129/129/129
f 167/167/167 168/168/168 129/129/129
f 169/169/169 141/141/141 142/142/142
f 170/170/170 169/169/169 142/142/142
f 170/170/170 142/142/142 154/154/154
f 171/171/171 170/170/170 154/154/154
f 171/171/171 154/154/154 152/152/152
f 172/172/172 171/171/171 152/152/152
f 172/172/172 152/152/152 153/153/153
f 173/173/173 172/172/172 153/153/153
f 28/28/28 27/27/27 174/174/174
f 175/175/175 28/28/28 174/174/174
f 174/174/174 27/27/27 176/176/176
f 27/27/27 53/53/53 176/176/176
f 46/46/46 45/45/45 177/177/177
f 178/178/178 46/46/46 177/177/177
f 48/48/48 46/46/46 178/178/178
f 179/179/179 48/48/48 178/178/178
f 182/182/182 181/181/181 180/180/180
f 183/183/183 182/182/182 180/180/180
f 184/184/184 182/182/182 183/183/183
f 185/185/185 184/184/184 183/183/183
g torso_2
f 181/181/181 48/48/48 179/179/179
f 180/180/180 181/181/181 179/179/179
f 181/181/181 49/49/49 48/48/48
f 49/49/49 47/47/47 48/48/48
f 50/50/50 49/49/49 181/181/181
f 182/182/182 50/50/50 181/181/181
f 51/51/51 50/50/50 182/182/182
f 184/184/184 51/51/51 182/182/182
f 52/52/52 51/51/51 184/184/184
f 53/53/53 52/52/52 184/184/184
f 53/53/53 184/184/184 185/185/185
f 176/176/176 53/53/53 185/185/185
g torso_3
f 188/188/188 187/187/187 186/186/186
f 186/186/186 189/189/189 188/188/188
f 186/186/186 190/190/190 189/189/189
f 186/186/186 191/191/191 190/190/190
f 186/186/186 192/192/192 191/191/191
f 186/186/186 193/193/193 192/192/192
f 186/186/186 194/194/194 193/193/193
f 186/186/186 195/195/195 194/194/194
f 186/186/186 196/196/196 195/195/195
f 186/186/186 197/197/197 196/196/196
f 197/197/197 198/198/198 196/196/196
f 197/197/197 199/199/199 198/198/198
f 199/199/199 200/200/200 198/198/198
f 199/199/199 201/201/201 200/200/200
f 201/201/201 202/202/202 200/200/200
f 201/201/201 203/203/203 202/202/202
f 203/203/203 204/204/204 202/202/202
f 204/204/204 205/205/205 202/202/202
f 205/205/205 206/206/206 202/202/202
f 206/206/206 207/207/207 202/202/202
f 207/207/207 208/208/208 202/202/202
f 208/208/208 209/209/209 202/202/202
