g wall_corner
v -1.489898 0.2 3.000001
v -1.489898 0.2 -1
v -1.458257 0.4 -1
v -1.458257 0.4 3.000001
v -1.5 0 -1
v -1.5 0 3.000001
v -1.399999 0.6 3.000001
v -1.399999 0.6 -1
v -1.299999 0.8 -1
v -1.299999 0.8 3.000002
v -0.9999993 1 -1
v -0.9999993 1 3.000002
v -1.489898 -0.2 3.000001
v -1.489898 -0.2 -1
v -1.458257 -0.4 -1
v -1.458257 -0.4 3.000001
v -1.399999 -0.6 3.000001
v -1.399999 -0.6 -1
v -1.299999 -0.8 -1
v -1.299999 -0.8 3.000002
v -0.9999993 -1 -1
v -0.9999993 -1 3.000002
v 3 0.8 -1.300001
v 3 1 -1.000001
v -0.9999993 1 -1
v -0.9999993 0.8 -1.300001
v 3 0.6 -1.4
v -0.9999993 0.6 -1.4
v -0.9999993 0.4 -1.458258
v 3 0.4 -1.458258
v 3 0.2 -1.489898
v -0.9999993 0.2 -1.489898
v 3 0 -1.5
v -0.9999993 0 -1.5
v -0.9999993 -0.2 -1.489898
v 3 -0.2 -1.489898
v -0.9999993 -0.4 -1.458258
v 3 -0.4 -1.458258
v 3 -0.6 -1.4
v -0.9999993 -0.6 -1.4
v -0.9999993 -0.8 -1.300001
v 3 -0.8 -1.300001
v -0.9999993 -1 -1
v 3 -1 -1.000001
v -1.254293 0.6 -1.279844
v -1.204293 0.8 -1.229845
v -1.299999 0.8 -1
v -1.399999 0.6 -1
v -1.283422 0.4 -1.308973
v -1.458257 0.4 -1
v -1.299242 0.2 -1.324793
v -1.489898 0.2 -1
v -1.304294 0 -1.329844
v -1.5 0 -1
v -0.9999993 0 -1.5
v -0.9999993 0.2 -1.489898
v -0.9999993 0.4 -1.458258
v -0.9999993 0.6 -1.4
v -0.9999993 0.8 -1.300001
v -0.9999993 1 -1
v -0.9999993 1 -1
v -1.489898 -0.2 -1
v -1.299242 -0.2 -1.324793
v -1.458257 -0.4 -1
v -1.283422 -0.4 -1.308973
v -1.399999 -0.6 -1
v -1.254293 -0.6 -1.279844
v -1.299999 -0.8 -1
v -1.204293 -0.8 -1.229845
v -0.9999993 -0.2 -1.489898
v -0.9999993 -0.4 -1.458258
v -0.9999993 -0.6 -1.4
v -0.9999993 -0.8 -1.300001
v -0.9999993 -1 -1
v -0.9999993 -1 -1
v -0.9999993 1 -1
v 3 1 -1.000001
v -0.9999993 1 3.000002
v 3 1.75 3
v -0.9999993 -1 -1
v -0.9999993 -1 3.000002
v 3 -1 -1.000001
v 3 -1.75 3
v -1.440053 0.1950954 -0.9866233
v -1.440096 0.1948182 3.000001
v -1.409366 0.3890582 3.000001
v -1.409231 0.3896693 -0.9872347
v -1.449936 0 3.000001
v -1.449919 0 -0.9864411
v -1.35287 0.58278 -0.9885877
v -1.353258 0.5816799 3.000001
v -1.261217 0.7657626 3.000002
v -1.260038 0.7669174 -0.9911784
v -0.9826524 0.9510682 3.002483
v -0.986966 0.949805 -0.9870111
v -1.440053 -0.1950954 -0.9866233
v -1.440096 -0.1948182 3.000001
v -1.409366 -0.3890582 3.000001
v -1.409231 -0.3896693 -0.9872347
v -1.35287 -0.58278 -0.9885877
v -1.353258 -0.5816799 3.000001
v -1.261217 -0.7657626 3.000002
v -1.260038 -0.7669174 -0.9911784
v -0.9826524 -0.9510682 3.002483
v -0.986966 -0.949805 -0.9870111
v 3.002481 0.9510682 -0.9826538
v 3 0.7657626 -1.261218
v -0.9923364 0.7668359 -1.260036
v -0.986966 0.949805 -0.9870111
v -0.9895875 0.5828723 -1.352835
v 3 0.5816799 -1.353259
v 3 0.3890583 -1.409367
v -0.9880314 0.3897189 -1.409225
v -0.9873349 0.195119 -1.440056
v 3 0.1948182 -1.440096
v -0.9871309 0 -1.449923
v 3 0 -1.449937
v 3 -0.1948182 -1.440096
v -0.9873349 -0.195119 -1.440056
v 3 -0.3890583 -1.409367
v -0.9880314 -0.3897189 -1.409225
v -0.9895875 -0.5828723 -1.352835
v 3 -0.5816799 -1.353259
v 3 -0.7657626 -1.261218
v -0.9923364 -0.7668359 -1.260036
v 3.002481 -0.9510682 -0.9826538
v -0.986966 -0.949805 -0.9870111
v -1.174408 0.766888 -1.198141
v -1.219424 0.5838119 -1.243552
v -1.35287 0.58278 -0.9885877
v -1.260038 0.7669174 -0.9911784
v -1.409231 0.3896693 -0.9872347
v -1.24767 0.3907206 -1.272106
v -1.440053 0.1950954 -0.9866233
v -1.26315 0.1956864 -1.287713
v -1.449919 0 -0.9864411
v -1.268108 0 -1.292706
v -0.9873349 0.195119 -1.440056
v -0.9871309 0 -1.449923
v -0.9880314 0.3897189 -1.409225
v -0.9895875 0.5828723 -1.352835
v -0.9923364 0.7668359 -1.260036
v -0.986966 0.949805 -0.9870111
v -0.986966 0.949805 -0.9870111
v -1.26315 -0.1956864 -1.287713
v -1.440053 -0.1950954 -0.9866233
v -1.24767 -0.3907206 -1.272106
v -1.409231 -0.3896693 -0.9872347
v -1.219424 -0.5838119 -1.243552
v -1.35287 -0.58278 -0.9885877
v -1.174408 -0.766888 -1.198141
v -1.260038 -0.7669174 -0.9911784
v -0.9880314 -0.3897189 -1.409225
v -0.9873349 -0.195119 -1.440056
v -0.9895875 -0.5828723 -1.352835
v -0.9923364 -0.7668359 -1.260036
v -0.986966 -0.949805 -0.9870111
v -0.986966 -0.949805 -0.9870111
v 3.002481 0.9510682 -0.9826538
v -0.986966 0.949805 -0.9870111
v -0.9826524 0.9510682 3.002483
v 3.009061 1.70167 3.009061
v -0.9826524 -0.9510682 3.002483
v -0.986966 -0.949805 -0.9870111
v 3.002481 -0.9510682 -0.9826538
v 3.009061 -1.70167 3.009062
vt 0.5131075 0.5119842
vt 0.9782202 0.5119843
vt 0.9782201 0.4884385
vt 0.5131075 0.4884393
vt 0.9782201 0.5352696
vt 0.5131075 0.5352696
vt 0.5131074 0.464217
vt 0.9782201 0.4642163
vt 0.9782201 0.4382157
vt 0.5131074 0.4382163
vt 0.9782199 0.3962911
vt 0.5131072 0.3962917
vt 0.5131075 0.5585549
vt 0.9782201 0.5585551
vt 0.9782202 0.5821
vt 0.5131074 0.5821007
vt 0.5131074 0.6063231
vt 0.9782202 0.6063223
vt 0.9782202 0.632323
vt 0.5131075 0.6323236
vt 0.9782202 0.6742477
vt 0.5131075 0.6742483
vt 0.9804248 0.7333695
vt 0.9804248 0.6914446
vt 0.5153126 0.6914452
vt 0.5153126 0.7333699
vt 0.9804249 0.7593702
vt 0.5153127 0.7593708
vt 0.5153127 0.7835926
vt 0.9804249 0.7835922
vt 0.9804249 0.8071371
vt 0.5153127 0.807138
vt 0.9804249 0.8304232
vt 0.5153127 0.8304232
vt 0.5153127 0.8537092
vt 0.9804249 0.8537084
vt 0.5153127 0.8772541
vt 0.9804249 0.8772537
vt 0.9804251 0.9014755
vt 0.5153127 0.9014761
vt 0.5153127 0.9274768
vt 0.9804251 0.9274764
vt 0.5153127 0.9694019
vt 0.9804251 0.9694012
vt 0.605401 0.2752329
vt 0.6046258 0.2998042
vt 0.6338077 0.3039719
vt 0.6419323 0.2786473
vt 0.6061161 0.2519445
vt 0.6470579 0.2546066
vt 0.6068175 0.2290729
vt 0.6501526 0.2310506
vt 0.6075129 0.2063425
vt 0.6515933 0.2076943
vt 0.5674495 0.2051139
vt 0.5674495 0.2285253
vt 0.5690845 0.2522431
vt 0.5727022 0.2765728
vt 0.5791512 0.3023831
vt 0.6145729 0.3420817
vt 0.5947869 0.3421601
vt 0.6515865 0.1842936
vt 0.6082118 0.1836123
vt 0.6499411 0.1605923
vt 0.608913 0.1607407
vt 0.6462981 0.1362826
vt 0.6096262 0.1374521
vt 0.6397405 0.1105079
vt 0.6103582 0.1128795
vt 0.5688841 0.1817465
vt 0.5719693 0.1581734
vt 0.577071 0.1341111
vt 0.5850893 0.1087445
vt 0.6228771 0.07129106
vt 0.6031331 0.07000032
vt 0.0144577 0.4808931
vt 0.4795714 0.4808933
vt 0.01445788 0.01577902
vt 0.4876085 0.007742464
vt 0.4814768 0.5140162
vt 0.01636276 0.5140163
vt 0.4814767 0.9791301
vt 0.008325845 0.9871669
vt 0.9782202 0.5119843
vt 0.5131075 0.5119842
vt 0.5131075 0.4884393
vt 0.9782201 0.4884385
vt 0.5131075 0.5352696
vt 0.9782201 0.5352696
vt 0.9782201 0.4642163
vt 0.5131074 0.464217
vt 0.5131074 0.4382163
vt 0.9782201 0.4382157
vt 0.5131072 0.3962917
vt 0.9782199 0.3962911
vt 0.9782201 0.5585551
vt 0.5131075 0.5585549
vt 0.5131074 0.5821007
vt 0.9782202 0.5821
vt 0.9782202 0.6063223
vt 0.5131074 0.6063231
vt 0.5131075 0.6323236
vt 0.9782202 0.632323
vt 0.5131075 0.6742483
vt 0.9782202 0.6742477
vt 0.9804248 0.6914446
vt 0.9804248 0.7333695
vt 0.5153126 0.7333699
vt 0.5153126 0.6914452
vt 0.5153127 0.7593708
vt 0.9804249 0.7593702
vt 0.9804249 0.7835922
vt 0.5153127 0.7835926
vt 0.5153127 0.807138
vt 0.9804249 0.8071371
vt 0.5153127 0.8304232
vt 0.9804249 0.8304232
vt 0.9804249 0.8537084
vt 0.5153127 0.8537092
vt 0.9804249 0.8772537
vt 0.5153127 0.8772541
vt 0.5153127 0.9014761
vt 0.9804251 0.9014755
vt 0.9804251 0.9274764
vt 0.5153127 0.9274768
vt 0.9804251 0.9694012
vt 0.5153127 0.9694019
vt 0.6046258 0.2998042
vt 0.605401 0.2752329
vt 0.6419323 0.2786473
vt 0.6338077 0.3039719
vt 0.6470579 0.2546066
vt 0.6061161 0.2519445
vt 0.6501526 0.2310506
vt 0.6068175 0.2290729
vt 0.6515933 0.2076943
vt 0.6075129 0.2063425
vt 0.5674495 0.2285253
vt 0.5674495 0.2051139
vt 0.5690845 0.2522431
vt 0.5727022 0.2765728
vt 0.5791512 0.3023831
vt 0.6145729 0.3420817
vt 0.5947869 0.3421601
vt 0.6082118 0.1836123
vt 0.6515865 0.1842936
vt 0.608913 0.1607407
vt 0.6499411 0.1605923
vt 0.6096262 0.1374521
vt 0.6462981 0.1362826
vt 0.6103582 0.1128795
vt 0.6397405 0.1105079
vt 0.5719693 0.1581734
vt 0.5688841 0.1817465
vt 0.577071 0.1341111
vt 0.5850893 0.1087445
vt 0.6228771 0.07129106
vt 0.6031331 0.07000032
vt 0.4795714 0.4808933
vt 0.0144577 0.4808931
vt 0.01445788 0.01577902
vt 0.4876085 0.007742464
vt 0.01636276 0.5140163
vt 0.4814768 0.5140162
vt 0.4814767 0.9791301
vt 0.008325845 0.9871669
vn -0.9946295 0.1034991 0
vn -0.961492 0.09460801 -0.2580357
vn -0.948219 0.1998066 -0.2468971
vn -0.9758596 0.2183991 0
vn -0.9652488 0 -0.2613326
vn -1 0 0
vn -0.9310389 0.36492 0
vn -0.9158757 0.334641 -0.2217817
vn -0.7593865 0.6286715 -0.1676437
vn -0.7496779 0.6618029 0
vn -0.2437894 0.9389006 -0.2429654
vn -0.3337602 0.9414486 -0.04773656
vn -0.9946295 -0.1034991 0
vn -0.961492 -0.09460801 -0.2580357
vn -0.948219 -0.1998066 -0.2468971
vn -0.9758596 -0.2183991 0
vn -0.9310389 -0.36492 0
vn -0.9158757 -0.334641 -0.2217817
vn -0.7593865 -0.6286715 -0.1676437
vn -0.7496779 -0.6618029 0
vn -0.2437894 -0.9389006 -0.2429654
vn -0.3337602 -0.9414486 -0.04773656
vn 0 0.6618024 -0.7496783
vn -0.04773657 0.9414486 -0.33376
vn -0.2437894 0.9389006 -0.2429654
vn -0.1459738 0.6317496 -0.7613041
vn 0 0.3649191 -0.9310393
vn -0.2031666 0.3342163 -0.9203385
vn -0.2323448 0.1995974 -0.9519331
vn 0 0.2183988 -0.9758596
vn 0 0.1034988 -0.9946295
vn -0.2451613 0.09448767 -0.9648668
vn 0 0 -1
vn -0.2488856 0 -0.9685328
vn -0.2451613 -0.09448767 -0.9648668
vn 0 -0.1034988 -0.9946295
vn -0.2323448 -0.1995974 -0.9519331
vn 0 -0.2183988 -0.9758596
vn 0 -0.3649191 -0.9310393
vn -0.2031666 -0.3342163 -0.9203385
vn -0.1459738 -0.6317496 -0.7613041
vn 0 -0.6618024 -0.7496783
vn -0.2437894 -0.9389006 -0.2429654
vn -0.04773655 -0.9414486 -0.33376
vn -0.6595494 0.3061986 -0.6864672
vn -0.5461127 0.6050759 -0.5793481
vn -0.7593865 0.6286715 -0.1676437
vn -0.9158757 0.334641 -0.2217817
vn -0.6850753 0.1778077 -0.7064391
vn -0.948219 0.1998066 -0.2468971
vn -0.6950762 0.08307344 -0.7141203
vn -0.961492 0.09460801 -0.2580357
vn -0.6978607 0 -0.7162336
vn -0.9652488 0 -0.2613326
vn -0.2488856 0 -0.9685328
vn -0.2451613 0.09448767 -0.9648668
vn -0.2323448 0.1995974 -0.9519331
vn -0.2031666 0.3342163 -0.9203385
vn -0.1459738 0.6317496 -0.7613041
vn -0.2437894 0.9389006 -0.2429654
vn -0.2437894 0.9389006 -0.2429654
vn -0.961492 -0.09460801 -0.2580357
vn -0.6950762 -0.08307344 -0.7141203
vn -0.948219 -0.1998066 -0.2468971
vn -0.6850753 -0.1778077 -0.7064391
vn -0.9158757 -0.334641 -0.2217817
vn -0.6595494 -0.3061986 -0.6864672
vn -0.7593865 -0.6286715 -0.1676437
vn -0.5461127 -0.6050759 -0.5793481
vn -0.2451613 -0.09448767 -0.9648668
vn -0.2323448 -0.1995974 -0.9519331
vn -0.2031666 -0.3342163 -0.9203385
vn -0.1459738 -0.6317496 -0.7613041
vn -0.2437894 -0.9389006 -0.2429654
vn -0.2437894 -0.9389006 -0.2429654
vn -0.2437894 0.9389006 -0.2429654
vn -0.04773657 0.9414486 -0.33376
vn -0.3337602 0.9414486 -0.04773656
vn -0.1812368 0.9665953 -0.1812366
vn -0.2437894 -0.9389006 -0.2429654
vn -0.3337602 -0.9414486 -0.04773656
vn -0.04773655 -0.9414486 -0.33376
vn -0.1812367 -0.9665953 -0.1812366
vn 0.9615003 -0.09451727 0.2580379
vn 0.9946231 -0.1035617 5.23679E-06
vn 0.9758213 -0.21857 3.818702E-06
vn 0.9482278 -0.1996863 0.2469604
vn 1 0 5.754338E-06
vn 0.9652565 0 0.2613041
vn 0.9159448 -0.3344303 0.2218142
vn 0.9306946 -0.3657971 2.585113E-05
vn 0.7489433 -0.6626341 -8.21025E-05
vn 0.7594087 -0.6283593 0.16871
vn 0.3333065 -0.9415981 0.04795687
vn 0.2433603 -0.9391071 0.2425973
vn 0.9615003 0.09451727 0.2580379
vn 0.9946231 0.1035617 5.231829E-06
vn 0.9758213 0.21857 3.810625E-06
vn 0.9482278 0.1996863 0.2469604
vn 0.9159448 0.3344303 0.2218142
vn 0.9306947 0.365797 2.584914E-05
vn 0.7489433 0.6626341 -8.209628E-05
vn 0.7594087 0.6283593 0.16871
vn 0.3333065 0.9415981 0.04795689
vn 0.2433603 0.9391071 0.2425973
vn 0.04796064 -0.9415749 0.3333714
vn -7.718804E-05 -0.662627 0.7489496
vn 0.1467685 -0.6316323 0.7612488
vn 0.2433603 -0.9391071 0.2425973
vn 0.2032873 -0.3342445 0.9203015
vn 2.784827E-05 -0.3658696 0.9306662
vn 3.457381E-06 -0.2185944 0.9758158
vn 0.2324632 -0.1995332 0.9519178
vn 0.2451627 -0.09442717 0.9648724
vn 4.334452E-06 -0.1035677 0.9946225
vn 0.2488856 0 0.9685328
vn 4.850705E-06 0 1
vn 4.334524E-06 0.1035677 0.9946225
vn 0.2451627 0.09442717 0.9648724
vn 3.457363E-06 0.2185944 0.9758158
vn 0.2324632 0.1995332 0.9519178
vn 0.2032873 0.3342445 0.9203015
vn 2.784938E-05 0.3658696 0.9306661
vn -7.718614E-05 0.662627 0.7489496
vn 0.1467685 0.6316323 0.7612488
vn 0.04796064 0.9415749 0.3333715
vn 0.2433603 0.9391071 0.2425973
vn 0.5465077 -0.604311 0.5797736
vn 0.6598027 -0.3050126 0.6867515
vn 0.9159448 -0.3344303 0.2218142
vn 0.7594087 -0.6283593 0.16871
vn 0.9482278 -0.1996863 0.2469604
vn 0.6851227 -0.1774379 0.7064861
vn 0.9615003 -0.09451727 0.2580379
vn 0.6951026 -0.08288983 0.714116
vn 0.9652565 0 0.2613041
vn 0.6978763 0 0.7162183
vn 0.2451627 -0.09442717 0.9648724
vn 0.2488856 0 0.9685328
vn 0.2324632 -0.1995332 0.9519178
vn 0.2032873 -0.3342445 0.9203015
vn 0.1467685 -0.6316323 0.7612488
vn 0.2433603 -0.9391071 0.2425973
vn 0.2433603 -0.9391071 0.2425973
vn 0.6951026 0.08288983 0.714116
vn 0.9615003 0.09451727 0.2580379
vn 0.6851227 0.1774379 0.7064861
vn 0.9482278 0.1996863 0.2469604
vn 0.6598027 0.3050126 0.6867515
vn 0.9159448 0.3344303 0.2218142
vn 0.5465077 0.604311 0.5797736
vn 0.7594087 0.6283593 0.16871
vn 0.2324632 0.1995332 0.9519178
vn 0.2451627 0.09442717 0.9648724
vn 0.2032873 0.3342445 0.9203015
vn 0.1467685 0.6316323 0.7612488
vn 0.2433603 0.9391071 0.2425973
vn 0.2433603 0.9391071 0.2425973
vn 0.04796064 -0.9415749 0.3333714
vn 0.2433603 -0.9391071 0.2425973
vn 0.3333065 -0.9415981 0.04795687
vn 0.1814448 -0.9665172 0.1814447
vn 0.3333065 0.9415981 0.04795689
vn 0.2433603 0.9391071 0.2425973
vn 0.04796064 0.9415749 0.3333715
vn 0.1814449 0.9665172 0.1814447
g wall_corner_0
f 3/3/3 2/2/2 1/1/1
f 4/4/4 3/3/3 1/1/1
f 2/2/2 5/5/5 1/1/1
f 5/5/5 6/6/6 1/1/1
f 3/3/3 4/4/4 7/7/7
f 8/8/8 3/3/3 7/7/7
f 9/9/9 8/8/8 7/7/7
f 10/10/10 9/9/9 7/7/7
f 11/11/11 9/9/9 10/10/10
f 12/12/12 11/11/11 10/10/10
f 6/6/6 5/5/5 13/13/13
f 5/5/5 14/14/14 13/13/13
f 14/14/14 15/15/15 13/13/13
f 15/15/15 16/16/16 13/13/13
f 16/16/16 15/15/15 17/17/17
f 15/15/15 18/18/18 17/17/17
f 18/18/18 19/19/19 17/17/17
f 19/19/19 20/20/20 17/17/17
f 19/19/19 21/21/21 20/20/20
f 21/21/21 22/22/22 20/20/20
f 25/25/25 24/24/24 23/23/23
f 26/26/26 25/25/25 23/23/23
f 23/23/23 27/27/27 26/26/26
f 27/27/27 28/28/28 26/26/26
f 29/29/29 28/28/28 27/27/27
f 30/30/30 29/29/29 27/27/27
f 30/30/30 31/31/31 29/29/29
f 31/31/31 32/32/32 29/29/29
f 32/32/32 31/31/31 33/33/33
f 34/34/34 32/32/32 33/33/33
f 35/35/35 34/34/34 33/33/33
f 36/36/36 35/35/35 33/33/33
f 35/35/35 36/36/36 37/37/37
f 36/36/36 38/38/38 37/37/37
f 37/37/37 38/38/38 39/39/39
f 40/40/40 37/37/37 39/39/39
f 40/40/40 39/39/39 41/41/41
f 39/39/39 42/42/42 41/41/41
f 43/43/43 41/41/41 42/42/42
f 44/44/44 43/43/43 42/42/42
f 47/47/47 46/46/46 45/45/45
f 48/48/48 47/47/47 45/45/45
f 48/48/48 45/45/45 49/49/49
f 50/50/50 48/48/48 49/49/49
f 50/50/50 49/49/49 51/51/51
f 52/52/52 50/50/50 51/51/51
f 52/52/52 51/51/51 53/53/53
f 54/54/54 52/52/52 53/53/53
f 53/53/53 51/51/51 55/55/55
f 51/51/51 56/56/56 55/55/55
f 51/51/51 49/49/49 56/56/56
f 49/49/49 57/57/57 56/56/56
f 49/49/49 45/45/45 57/57/57
f 45/45/45 58/58/58 57/57/57
f 45/45/45 46/46/46 58/58/58
f 46/46/46 59/59/59 58/58/58
f 60/60/60 46/46/46 47/47/47
f 46/46/46 61/61/61 59/59/59
f 62/62/62 54/54/54 53/53/53
f 63/63/63 62/62/62 53/53/53
f 63/63/63 53/53/53 55/55/55
f 64/64/64 62/62/62 63/63/63
f 65/65/65 64/64/64 63/63/63
f 66/66/66 64/64/64 65/65/65
f 67/67/67 66/66/66 65/65/65
f 68/68/68 66/66/66 67/67/67
f 69/69/69 68/68/68 67/67/67
f 70/70/70 63/63/63 55/55/55
f 65/65/65 63/63/63 70/70/70
f 71/71/71 65/65/65 70/70/70
f 67/67/67 65/65/65 71/71/71
f 72/72/72 67/67/67 71/71/71
f 69/69/69 67/67/67 72/72/72
f 73/73/73 69/69/69 72/72/72
f 69/69/69 74/74/74 68/68/68
f 75/75/75 69/69/69 73/73/73
f 78/78/78 77/77/77 76/76/76
f 78/78/78 79/79/79 77/77/77
f 82/82/82 81/81/81 80/80/80
f 83/83/83 81/81/81 82/82/82
f 86/86/86 85/85/85 84/84/84
f 87/87/87 86/86/86 84/84/84
f 84/84/84 85/85/85 88/88/88
f 89/89/89 84/84/84 88/88/88
f 87/87/87 90/90/90 86/86/86
f 90/90/90 91/91/91 86/86/86
f 92/92/92 91/91/91 90/90/90
f 93/93/93 92/92/92 90/90/90
f 94/94/94 92/92/92 93/93/93
f 95/95/95 94/94/94 93/93/93
f 89/89/89 88/88/88 96/96/96
f 88/88/88 97/97/97 96/96/96
f 96/96/96 97/97/97 98/98/98
f 99/99/99 96/96/96 98/98/98
f 99/99/99 98/98/98 100/100/100
f 98/98/98 101/101/101 100/100/100
f 100/100/100 101/101/101 102/102/102
f 103/103/103 100/100/100 102/102/102
f 103/103/103 102/102/102 104/104/104
f 105/105/105 103/103/103 104/104/104
f 108/108/108 107/107/107 106/106/106
f 109/109/109 108/108/108 106/106/106
f 107/107/107 108/108/108 110/110/110
f 111/111/111 107/107/107 110/110/110
f 112/112/112 111/111/111 110/110/110
f 113/113/113 112/112/112 110/110/110
f 112/112/112 113/113/113 114/114/114
f 115/115/115 112/112/112 114/114/114
f 114/114/114 116/116/116 115/115/115
f 116/116/116 117/117/117 115/115/115
f 118/118/118 117/117/117 116/116/116
f 119/119/119 118/118/118 116/116/116
f 118/118/118 119/119/119 120/120/120
f 119/119/119 121/121/121 120/120/120
f 121/121/121 122/122/122 120/120/120
f 122/122/122 123/123/123 120/120/120
f 123/123/123 122/122/122 124/124/124
f 122/122/122 125/125/125 124/124/124
f 126/126/126 124/124/124 125/125/125
f 127/127/127 126/126/126 125/125/125
f 130/130/130 129/129/129 128/128/128
f 131/131/131 130/130/130 128/128/128
f 130/130/130 132/132/132 129/129/129
f 132/132/132 133/133/133 129/129/129
f 132/132/132 134/134/134 133/133/133
f 134/134/134 135/135/135 133/133/133
f 134/134/134 136/136/136 135/135/135
f 136/136/136 137/137/137 135/135/135
f 135/135/135 137/137/137 138/138/138
f 137/137/137 139/139/139 138/138/138
f 135/135/135 138/138/138 140/140/140
f 133/133/133 135/135/135 140/140/140
f 133/133/133 140/140/140 141/141/141
f 129/129/129 133/133/133 141/141/141
f 129/129/129 141/141/141 142/142/142
f 128/128/128 129/129/129 142/142/142
f 143/143/143 131/131/131 128/128/128
f 128/128/128 142/142/142 144/144/144
f 145/145/145 137/137/137 136/136/136
f 146/146/146 145/145/145 136/136/136
f 147/147/147 145/145/145 146/146/146
f 148/148/148 147/147/147 146/146/146
f 149/149/149 147/147/147 148/148/148
f 150/150/150 149/149/149 148/148/148
f 151/151/151 149/149/149 150/150/150
f 152/152/152 151/151/151 150/150/150
f 147/147/147 153/153/153 145/145/145
f 153/153/153 154/154/154 145/145/145
f 145/145/145 154/154/154 137/137/137
f 154/154/154 139/139/139 137/137/137
f 155/155/155 153/153/153 147/147/147
f 149/149/149 155/155/155 147/147/147
f 156/156/156 155/155/155 149/149/149
f 151/151/151 156/156/156 149/149/149
f 151/151/151 152/152/152 157/157/157
f 158/158/158 156/156/156 151/151/151
f 161/161/161 160/160/160 159/159/159
f 161/161/161 159/159/159 162/162/162
f 165/165/165 164/164/164 163/163/163
f 166/166/166 165/165/165 163/163/163
