g wall_side
v 3 1.75 -3.000002
v 3 1.75 3.000002
v -0.9999993 1 3.000002
v -0.9999993 1 -3.000002
v -1.299999 0.8 3.000002
v -1.399999 0.6 3.000001
v -1.399999 0.6 -3.000001
v -1.299999 0.8 -3.000002
v -0.9999993 1 3.000002
v -0.9999993 1 -3.000002
v -1.458257 0.4 -3.000001
v -1.458257 0.4 3.000001
v -1.489898 0.2 -3.000001
v -1.489898 0.2 3.000001
v -1.5 0 -3.000001
v -1.5 0 3.000001
v -1.489898 -0.2 -3.000001
v -1.489898 -0.2 3.000001
v -1.458257 -0.4 -3
v -1.458257 -0.4 3
v -1.4 -0.6 -3
v -1.4 -0.6 3
v -1.3 -0.8 -3
v -1.3 -0.8 3
v -1 -1 -3
v -1 -1 3
v 3 -1.75 -3
v -1 -1 -3
v -1 -1 3
v 3 -1.75 3
v 3.009213 1.700856 3.000002
v 3.009213 1.700856 -3.000002
v -0.9807557 0.9527367 -3.000002
v -0.9807557 0.9527367 3.000002
v -1.353258 0.5816799 3.000001
v -1.261217 0.7657626 3.000002
v -1.261217 0.7657626 -3.000002
v -1.353258 0.5816799 -3.000001
v -0.9807557 0.9527367 -3.000002
v -0.9807557 0.9527367 3.000002
v -1.409366 0.3890583 3.000001
v -1.409366 0.3890583 -3.000001
v -1.440096 0.1948182 3.000001
v -1.440096 0.1948182 -3.000001
v -1.449936 0 3.000001
v -1.449936 0 -3.000001
v -1.440096 -0.1948183 3.000001
v -1.440096 -0.1948183 -3.000001
v -1.409367 -0.3890583 3
v -1.409367 -0.3890583 -3
v -1.353258 -0.5816799 3
v -1.353258 -0.5816799 -3
v -1.261217 -0.7657626 3
v -1.261217 -0.7657626 -3
v -0.9807563 -0.9527367 3
v -0.9807563 -0.9527367 -3
v -0.9807563 -0.9527367 -3
v 3.009214 -1.700856 -3
v 3.009214 -1.700856 3
v -0.9807563 -0.9527367 3
vt 0.6980804 0.04106921
vt 0.0158144 0.04106921
vt 0.01581435 0.495913
vt 0.6980803 0.495913
vt 0.7538307 0.9693309
vt 0.7792564 0.9693309
vt 0.7792541 0.2870695
vt 0.7538276 0.2870697
vt 0.7128316 0.969331
vt 0.7128289 0.2870699
vt 0.8029413 0.2870694
vt 0.8029454 0.9693307
vt 0.8259662 0.2870694
vt 0.8259706 0.9693305
vt 0.8487374 0.2870691
vt 0.8487445 0.9693304
vt 0.8715085 0.2870688
vt 0.8715172 0.9693301
vt 0.8945332 0.2870687
vt 0.894541 0.9693298
vt 0.9182206 0.2870682
vt 0.9182301 0.9693296
vt 0.943647 0.2870681
vt 0.9436557 0.9693291
vt 0.984646 0.2870675
vt 0.9846548 0.9693285
vt 0.69808 0.9732131
vt 0.69808 0.518369
vt 0.01581435 0.5183691
vt 0.0158144 0.9732131
vt 0.0158144 0.04106921
vt 0.6980804 0.04106921
vt 0.6980803 0.495913
vt 0.01581435 0.495913
vt 0.7792564 0.9693309
vt 0.7538307 0.9693309
vt 0.7538276 0.2870697
vt 0.7792541 0.2870695
vt 0.7128289 0.2870699
vt 0.7128316 0.969331
vt 0.8029454 0.9693307
vt 0.8029413 0.2870694
vt 0.8259706 0.9693305
vt 0.8259662 0.2870694
vt 0.8487445 0.9693304
vt 0.8487374 0.2870691
vt 0.8715172 0.9693301
vt 0.8715085 0.2870688
vt 0.894541 0.9693298
vt 0.8945332 0.2870687
vt 0.9182301 0.9693296
vt 0.9182206 0.2870682
vt 0.9436557 0.9693291
vt 0.943647 0.2870681
vt 0.9846548 0.9693285
vt 0.984646 0.2870675
vt 0.69808 0.518369
vt 0.69808 0.9732131
vt 0.0158144 0.9732131
vt 0.01581435 0.5183691
vn -0.1842886 0.9828722 0
vn -0.1842886 0.9828722 0
vn -0.3771112 0.926168 0
vn -0.3771112 0.926168 0
vn -0.749678 0.6618028 0
vn -0.9310389 0.36492 0
vn -0.9310389 0.36492 0
vn -0.749678 0.6618028 0
vn -0.3771112 0.926168 0
vn -0.3771112 0.926168 0
vn -0.9758596 0.2183991 0
vn -0.9758596 0.2183991 0
vn -0.9946295 0.1034991 0
vn -0.9946295 0.1034991 0
vn -1 3.395702E-07 0
vn -1 3.395702E-07 0
vn -0.9946296 -0.1034985 0
vn -0.9946296 -0.1034985 0
vn -0.9758597 -0.2183985 0
vn -0.9758597 -0.2183985 0
vn -0.9310392 -0.3649192 0
vn -0.9310392 -0.3649192 0
vn -0.7496784 -0.6618024 0
vn -0.7496784 -0.6618024 0
vn -0.3771112 -0.926168 0
vn -0.3771112 -0.926168 0
vn -0.1842885 -0.9828722 0
vn -0.3771112 -0.926168 0
vn -0.3771112 -0.926168 0
vn -0.1842885 -0.9828722 0
vn 0.1842886 -0.9828722 0
vn 0.1842886 -0.9828722 0
vn 0.3771116 -0.9261678 0
vn 0.3771116 -0.9261678 0
vn 0.931039 -0.3649198 0
vn 0.7496783 -0.6618024 0
vn 0.7496783 -0.6618024 0
vn 0.931039 -0.3649198 0
vn 0.3771116 -0.9261678 0
vn 0.3771116 -0.9261678 0
vn 0.9758596 -0.218399 0
vn 0.9758596 -0.218399 0
vn 0.9946295 -0.1034993 0
vn 0.9946295 -0.1034993 0
vn 1 -3.490687E-07 0
vn 1 -3.490687E-07 0
vn 0.9946295 0.1034987 0
vn 0.9946295 0.1034987 0
vn 0.9758597 0.2183985 0
vn 0.9758597 0.2183985 0
vn 0.9310393 0.364919 0
vn 0.9310393 0.364919 0
vn 0.7496787 0.661802 0
vn 0.7496787 0.661802 0
vn 0.3771115 0.9261678 0
vn 0.3771115 0.9261678 0
vn 0.3771115 0.9261678 0
vn 0.1842886 0.9828722 0
vn 0.1842886 0.9828722 0
vn 0.3771115 0.9261678 0
g wall_side_0
f 3/3/3 2/2/2 1/1/1
f 4/4/4 3/3/3 1/1/1
f 7/7/7 6/6/6 5/5/5
f 8/8/8 7/7/7 5/5/5
f 8/8/8 5/5/5 9/9/9
f 10/10/10 8/8/8 9/9/9
f 7/7/7 11/11/11 6/6/6
f 11/11/11 12/12/12 6/6/6
f 11/11/11 13/13/13 12/12/12
f 13/13/13 14/14/14 12/12/12
f 13/13/13 15/15/15 14/14/14
f 15/15/15 16/16/16 14/14/14
f 15/15/15 17/17/17 16/16/16
f 17/17/17 18/18/18 16/16/16
f 17/17/17 19/19/19 18/18/18
f 19/19/19 20/20/20 18/18/18
f 19/19/19 21/21/21 20/20/20
f 21/21/21 22/22/22 20/20/20
f 21/21/21 23/23/23 22/22/22
f 23/23/23 24/24/24 22/22/22
f 23/23/23 25/25/25 24/24/24
f 25/25/25 26/26/26 24/24/24
f 29/29/29 28/28/28 27/27/27
f 30/30/30 29/29/29 27/27/27
f 33/33/33 32/32/32 31/31/31
f 34/34/34 33/33/33 31/31/31
f 37/37/37 36/36/36 35/35/35
f 38/38/38 37/37/37 35/35/35
f 37/37/37 39/39/39 36/36/36
f 39/39/39 40/40/40 36/36/36
f 38/38/38 35/35/35 41/41/41
f 42/42/42 38/38/38 41/41/41
f 42/42/42 41/41/41 43/43/43
f 44/44/44 42/42/42 43/43/43
f 44/44/44 43/43/43 45/45/45
f 46/46/46 44/44/44 45/45/45
f 46/46/46 45/45/45 47/47/47
f 48/48/48 46/46/46 47/47/47
f 48/48/48 47/47/47 49/49/49
f 50/50/50 48/48/48 49/49/49
f 50/50/50 49/49/49 51/51/51
f 52/52/52 50/50/50 51/51/51
f 52/52/52 51/51/51 53/53/53
f 54/54/54 52/52/52 53/53/53
f 54/54/54 53/53/53 55/55/55
f 56/56/56 54/54/54 55/55/55
f 59/59/59 58/58/58 57/57/57
f 60/60/60 59/59/59 57/57/57
