# MagicaVoxel @ Ephtracy

# group
o 

# material
mtllib weapon_arrow.mtl
usemtl palette

# normals
vn -1 0 0
vn 1 0 0
vn 0 0 1
vn 0 0 -1
vn 0 -1 0
vn 0 1 0

# texcoords
vt 0.119141 0.5
vt 0.197266 0.5
vt 0.955078 0.5
vt 0.986328 0.5

# verts
v -0.1 0 0
v -0.1 0 -0.1
v -0.1 0.2 0
v -0.1 0.2 -0.1
v -0.1 0.3 0
v -0.1 0.3 -0.1
v -0.1 1.8 0
v -0.1 1.8 -0.1
v -0.1 2.1 0
v -0.1 2.1 -0.1
v 0 0.1 0.1
v 0 0.1 0
v 0 0.1 -0.1
v 0 0.1 -0.2
v 0 0.2 0.1
v 0 0.2 0
v 0 0.2 -0.1
v 0 0.2 -0.2
v 0 0.3 0
v 0 0.3 -0.1
v 0 0.4 0.1
v 0 0.4 0
v 0 0.4 -0.1
v 0 0.4 -0.2
v 0 1.8 0
v 0 1.8 -0.1
v 0 1.9 0.1
v 0 1.9 0
v 0 1.9 -0.1
v 0 1.9 -0.2
v 0 2.1 0.1
v 0 2.1 0
v 0 2.1 -0.1
v 0 2.1 -0.2
v 0 2.3 0
v 0 2.3 -0.1
v 0.1 0 0
v 0.1 0 -0.1
v 0.1 0.1 0
v 0.1 0.1 -0.1
v 0.1 0.2 0
v 0.1 0.2 -0.1
v 0 0 0
v 0 0 -0.1
v 0 0.1 0
v 0 0.1 -0.1
v 0 0.2 0
v 0 0.2 -0.1
v 0.1 0.1 0.1
v 0.1 0.1 0
v 0.1 0.1 -0.1
v 0.1 0.1 -0.2
v 0.1 0.2 0.1
v 0.1 0.2 0
v 0.1 0.2 -0.1
v 0.1 0.2 -0.2
v 0.1 0.3 0
v 0.1 0.3 -0.1
v 0.1 0.4 0.1
v 0.1 0.4 0
v 0.1 0.4 -0.1
v 0.1 0.4 -0.2
v 0.1 1.8 0
v 0.1 1.8 -0.1
v 0.1 1.9 0.1
v 0.1 1.9 0
v 0.1 1.9 -0.1
v 0.1 1.9 -0.2
v 0.1 2.1 0.1
v 0.1 2.1 0
v 0.1 2.1 -0.1
v 0.1 2.1 -0.2
v 0.1 2.3 0
v 0.1 2.3 -0.1
v 0.2 0 0
v 0.2 0 -0.1
v 0.2 0.2 0
v 0.2 0.2 -0.1
v 0.2 0.3 0
v 0.2 0.3 -0.1
v 0.2 1.8 0
v 0.2 1.8 -0.1
v 0.2 2.1 0
v 0.2 2.1 -0.1
v 0 0.1 0.1
v 0 0.2 0.1
v 0 0.4 0.1
v 0 1.9 0.1
v 0 2.1 0.1
v 0.1 0.1 0.1
v 0.1 0.2 0.1
v 0.1 0.4 0.1
v 0.1 1.9 0.1
v 0.1 2.1 0.1
v -0.1 0 0
v -0.1 0.2 0
v -0.1 0.3 0
v -0.1 1.8 0
v -0.1 2.1 0
v 0 0 0
v 0 0.1 0
v 0 0.2 0
v 0 0.3 0
v 0 0.4 0
v 0 1.8 0
v 0 1.9 0
v 0 2.1 0
v 0 2.3 0
v 0.1 0 0
v 0.1 0.1 0
v 0.1 0.2 0
v 0.1 0.3 0
v 0.1 0.4 0
v 0.1 1.8 0
v 0.1 1.9 0
v 0.1 2.1 0
v 0.1 2.3 0
v 0.2 0 0
v 0.2 0.2 0
v 0.2 0.3 0
v 0.2 1.8 0
v 0.2 2.1 0
v 0 0.1 -0.1
v 0 0.2 -0.1
v 0.1 0.1 -0.1
v 0.1 0.2 -0.1
v 0 0.1 0
v 0 0.2 0
v 0.1 0.1 0
v 0.1 0.2 0
v -0.1 0 -0.1
v -0.1 0.2 -0.1
v -0.1 0.3 -0.1
v -0.1 1.8 -0.1
v -0.1 2.1 -0.1
v 0 0 -0.1
v 0 0.1 -0.1
v 0 0.2 -0.1
v 0 0.3 -0.1
v 0 0.4 -0.1
v 0 1.8 -0.1
v 0 1.9 -0.1
v 0 2.1 -0.1
v 0 2.3 -0.1
v 0.1 0 -0.1
v 0.1 0.1 -0.1
v 0.1 0.2 -0.1
v 0.1 0.3 -0.1
v 0.1 0.4 -0.1
v 0.1 1.8 -0.1
v 0.1 1.9 -0.1
v 0.1 2.1 -0.1
v 0.1 2.3 -0.1
v 0.2 0 -0.1
v 0.2 0.2 -0.1
v 0.2 0.3 -0.1
v 0.2 1.8 -0.1
v 0.2 2.1 -0.1
v 0 0.1 -0.2
v 0 0.2 -0.2
v 0 0.4 -0.2
v 0 1.9 -0.2
v 0 2.1 -0.2
v 0.1 0.1 -0.2
v 0.1 0.2 -0.2
v 0.1 0.4 -0.2
v 0.1 1.9 -0.2
v 0.1 2.1 -0.2
v -0.1 0 0
v 0 0 0
v 0.1 0 0
v 0.2 0 0
v -0.1 0 -0.1
v 0 0 -0.1
v 0.1 0 -0.1
v 0.2 0 -0.1
v 0 0.1 0.1
v 0.1 0.1 0.1
v 0 0.1 0
v 0.1 0.1 0
v 0 0.1 -0.1
v 0.1 0.1 -0.1
v 0 0.1 -0.2
v 0.1 0.1 -0.2
v 0 0.2 0
v 0.1 0.2 0
v 0 0.2 -0.1
v 0.1 0.2 -0.1
v -0.1 1.8 0
v 0 1.8 0
v 0.1 1.8 0
v 0.2 1.8 0
v -0.1 1.8 -0.1
v 0 1.8 -0.1
v 0.1 1.8 -0.1
v 0.2 1.8 -0.1
v 0 1.9 0.1
v 0.1 1.9 0.1
v 0 1.9 0
v 0.1 1.9 0
v 0 1.9 -0.1
v 0.1 1.9 -0.1
v 0 1.9 -0.2
v 0.1 1.9 -0.2
v -0.1 0.3 0
v 0 0.3 0
v 0.1 0.3 0
v 0.2 0.3 0
v -0.1 0.3 -0.1
v 0 0.3 -0.1
v 0.1 0.3 -0.1
v 0.2 0.3 -0.1
v 0 0.4 0.1
v 0.1 0.4 0.1
v 0 0.4 0
v 0.1 0.4 0
v 0 0.4 -0.1
v 0.1 0.4 -0.1
v 0 0.4 -0.2
v 0.1 0.4 -0.2
v 0 2.1 0.1
v 0.1 2.1 0.1
v -0.1 2.1 0
v 0 2.1 0
v 0.1 2.1 0
v 0.2 2.1 0
v -0.1 2.1 -0.1
v 0 2.1 -0.1
v 0.1 2.1 -0.1
v 0.2 2.1 -0.1
v 0 2.1 -0.2
v 0.1 2.1 -0.2
v 0 2.3 0
v 0.1 2.3 0
v 0 2.3 -0.1
v 0.1 2.3 -0.1

# faces
f 3/1/1 2/1/1 1/1/1
f 4/1/1 2/1/1 3/1/1
f 5/3/1 4/3/1 3/3/1
f 6/3/1 4/3/1 5/3/1
f 9/4/1 8/4/1 7/4/1
f 10/4/1 8/4/1 9/4/1
f 15/1/1 12/1/1 11/1/1
f 16/1/1 12/1/1 15/1/1
f 17/1/1 14/1/1 13/1/1
f 18/1/1 14/1/1 17/1/1
f 19/3/1 16/3/1 15/3/1
f 20/3/1 18/3/1 17/3/1
f 21/3/1 19/3/1 15/3/1
f 22/2/1 20/2/1 19/2/1
f 22/3/1 19/3/1 21/3/1
f 23/3/1 18/3/1 20/3/1
f 23/2/1 20/2/1 22/2/1
f 24/3/1 18/3/1 23/3/1
f 25/2/1 23/2/1 22/2/1
f 26/2/1 23/2/1 25/2/1
f 31/4/1 28/4/1 27/4/1
f 32/4/1 28/4/1 31/4/1
f 33/4/1 30/4/1 29/4/1
f 34/4/1 30/4/1 33/4/1
f 35/4/1 33/4/1 32/4/1
f 36/4/1 33/4/1 35/4/1
f 39/1/1 38/1/1 37/1/1
f 40/1/1 38/1/1 39/1/1
f 41/1/1 40/1/1 39/1/1
f 42/1/1 40/1/1 41/1/1
f 43/1/2 44/1/2 45/1/2
f 45/1/2 44/1/2 46/1/2
f 45/1/2 46/1/2 47/1/2
f 47/1/2 46/1/2 48/1/2
f 49/1/2 50/1/2 53/1/2
f 53/1/2 50/1/2 54/1/2
f 51/1/2 52/1/2 55/1/2
f 55/1/2 52/1/2 56/1/2
f 53/3/2 54/3/2 57/3/2
f 55/3/2 56/3/2 58/3/2
f 53/3/2 57/3/2 59/3/2
f 57/2/2 58/2/2 60/2/2
f 59/3/2 57/3/2 60/3/2
f 58/3/2 56/3/2 61/3/2
f 60/2/2 58/2/2 61/2/2
f 61/3/2 56/3/2 62/3/2
f 60/2/2 61/2/2 63/2/2
f 63/2/2 61/2/2 64/2/2
f 65/4/2 66/4/2 69/4/2
f 69/4/2 66/4/2 70/4/2
f 67/4/2 68/4/2 71/4/2
f 71/4/2 68/4/2 72/4/2
f 70/4/2 71/4/2 73/4/2
f 73/4/2 71/4/2 74/4/2
f 75/1/2 76/1/2 77/1/2
f 77/1/2 76/1/2 78/1/2
f 77/3/2 78/3/2 79/3/2
f 79/3/2 78/3/2 80/3/2
f 81/4/2 82/4/2 83/4/2
f 83/4/2 82/4/2 84/4/2
f 90/1/3 86/1/3 85/1/3
f 91/3/3 87/3/3 86/3/3
f 91/1/3 86/1/3 90/1/3
f 92/3/3 87/3/3 91/3/3
f 93/4/3 89/4/3 88/4/3
f 94/4/3 89/4/3 93/4/3
f 100/1/3 96/1/3 95/1/3
f 101/1/3 96/1/3 100/1/3
f 102/3/3 97/3/3 96/3/3
f 102/1/3 96/1/3 101/1/3
f 103/3/3 97/3/3 102/3/3
f 105/4/3 99/4/3 98/4/3
f 106/4/3 99/4/3 105/4/3
f 107/4/3 99/4/3 106/4/3
f 113/2/3 106/2/3 105/2/3
f 113/2/3 105/2/3 104/2/3
f 114/2/3 106/2/3 113/2/3
f 115/2/3 106/2/3 114/2/3
f 116/4/3 108/4/3 107/4/3
f 117/4/3 108/4/3 116/4/3
f 118/1/3 111/1/3 110/1/3
f 118/1/3 110/1/3 109/1/3
f 119/3/3 112/3/3 111/3/3
f 119/1/3 111/1/3 118/1/3
f 120/3/3 112/3/3 119/3/3
f 121/4/3 115/4/3 114/4/3
f 121/4/3 116/4/3 115/4/3
f 122/4/3 116/4/3 121/4/3
f 125/1/3 124/1/3 123/1/3
f 126/1/3 124/1/3 125/1/3
f 127/1/4 128/1/4 129/1/4
f 129/1/4 128/1/4 130/1/4
f 131/1/4 132/1/4 136/1/4
f 136/1/4 132/1/4 137/1/4
f 132/3/4 133/3/4 138/3/4
f 137/1/4 132/1/4 138/1/4
f 138/3/4 133/3/4 139/3/4
f 134/4/4 135/4/4 141/4/4
f 141/4/4 135/4/4 142/4/4
f 142/4/4 135/4/4 143/4/4
f 141/2/4 142/2/4 149/2/4
f 140/2/4 141/2/4 149/2/4
f 149/2/4 142/2/4 150/2/4
f 150/2/4 142/2/4 151/2/4
f 143/4/4 144/4/4 152/4/4
f 152/4/4 144/4/4 153/4/4
f 146/1/4 147/1/4 154/1/4
f 145/1/4 146/1/4 154/1/4
f 147/3/4 148/3/4 155/3/4
f 154/1/4 147/1/4 155/1/4
f 155/3/4 148/3/4 156/3/4
f 150/4/4 151/4/4 157/4/4
f 151/4/4 152/4/4 157/4/4
f 157/4/4 152/4/4 158/4/4
f 159/1/4 160/1/4 164/1/4
f 160/3/4 161/3/4 165/3/4
f 164/1/4 160/1/4 165/1/4
f 165/3/4 161/3/4 166/3/4
f 162/4/4 163/4/4 167/4/4
f 167/4/4 163/4/4 168/4/4
f 173/1/5 170/1/5 169/1/5
f 174/1/5 170/1/5 173/1/5
f 175/1/5 172/1/5 171/1/5
f 176/1/5 172/1/5 175/1/5
f 179/1/5 178/1/5 177/1/5
f 180/1/5 178/1/5 179/1/5
f 183/1/5 182/1/5 181/1/5
f 184/1/5 182/1/5 183/1/5
f 187/2/5 186/2/5 185/2/5
f 188/2/5 186/2/5 187/2/5
f 193/4/5 190/4/5 189/4/5
f 194/4/5 190/4/5 193/4/5
f 195/4/5 192/4/5 191/4/5
f 196/4/5 192/4/5 195/4/5
f 199/4/5 198/4/5 197/4/5
f 200/4/5 198/4/5 199/4/5
f 203/4/5 202/4/5 201/4/5
f 204/4/5 202/4/5 203/4/5
f 205/3/6 206/3/6 209/3/6
f 209/3/6 206/3/6 210/3/6
f 207/3/6 208/3/6 211/3/6
f 211/3/6 208/3/6 212/3/6
f 213/3/6 214/3/6 215/3/6
f 215/3/6 214/3/6 216/3/6
f 217/3/6 218/3/6 219/3/6
f 219/3/6 218/3/6 220/3/6
f 221/4/6 222/4/6 224/4/6
f 224/4/6 222/4/6 225/4/6
f 223/4/6 224/4/6 227/4/6
f 227/4/6 224/4/6 228/4/6
f 225/4/6 226/4/6 229/4/6
f 229/4/6 226/4/6 230/4/6
f 228/4/6 229/4/6 231/4/6
f 231/4/6 229/4/6 232/4/6
f 233/4/6 234/4/6 235/4/6
f 235/4/6 234/4/6 236/4/6
